<?xml version="1.0" encoding="UTF-8" standalone="no"?>
<!DOCTYPE svg PUBLIC "-//W3C//DTD SVG 1.1//EN"
 "http://www.w3.org/Graphics/SVG/1.1/DTD/svg11.dtd">
<!-- Generated by graphviz version 3.0.0 (20220226.1711)
 -->
<!-- Pages: 1 -->
<svg width="428pt" height="382pt"
 viewBox="0.00 0.00 428.00 382.00" xmlns="http://www.w3.org/2000/svg" xmlns:xlink="http://www.w3.org/1999/xlink">
<g id="graph0" class="graph" transform="scale(1 1) rotate(0) translate(4 378)">
<polygon fill="white" stroke="transparent" points="-4,4 -4,-378 424,-378 424,4 -4,4"/>
<text text-anchor="middle" x="210" y="-358.8" font-family="Times New Roman,serif" font-size="14.00">generators Module Exports</text>
<!-- generators/DiagramsGenerator -->
<g id="node1" class="node">
<title>generators/DiagramsGenerator</title>
<polygon fill="lightblue" stroke="transparent" points="9,-248 9,-267 207,-267 207,-248 9,-248"/>
<text text-anchor="start" x="11" y="-254.8" font-family="Times New Roman,serif" font-weight="bold" font-size="14.00">generators/DiagramsGenerator</text>
<polyline fill="none" stroke="black" points="9,-227 207,-227 "/>
<polyline fill="none" stroke="black" points="207,-248 9,-248 "/>
<text text-anchor="start" x="12" y="-233.8" font-family="Times New Roman,serif" font-size="14.00">DiagramsGenerator</text>
<g id="a_node1_0"><a xlink:href="diagrams.html#utils" xlink:title="&lt;TABLE&gt;" target="_top">
<polyline fill="none" stroke="black" points="9,-181 207,-181 "/>
<polyline fill="none" stroke="black" points="207,-227 9,-227 "/>
<text text-anchor="start" x="49.5" y="-214.8" font-family="Times New Roman,serif" font-style="italic" text-decoration="underline" font-size="14.00" fill="red">utils</text>
<text text-anchor="start" x="25" y="-200.8" font-family="Times New Roman,serif" font-style="italic" font-size="14.00" fill="red">utils/file&#45;utils</text>
<text text-anchor="start" x="11" y="-186.8" font-family="Times New Roman,serif" font-size="14.00">getGraphFilename</text>
</a>
</g>
<polygon fill="none" stroke="black" points="8,-180 8,-268 208,-268 208,-180 8,-180"/>
</g>
<!-- generators/DiagramsGenerator&#45;node_modules -->
<g id="node2" class="node">
<title>generators/DiagramsGenerator&#45;node_modules</title>
<polygon fill="lightgrey" stroke="transparent" points="62,-36.5 62,-55.5 154,-55.5 154,-36.5 62,-36.5"/>
<text text-anchor="start" x="64" y="-43.3" font-family="Times New Roman,serif" font-weight="bold" font-size="14.00">node_modules</text>
<text text-anchor="start" x="79" y="-24.3" font-family="Times New Roman,serif" font-style="italic" font-size="14.00" fill="red">fs</text>
<text text-anchor="start" x="89" y="-24.3" font-family="Times New Roman,serif" font-size="14.00"> (fs)</text>
<text text-anchor="start" x="64" y="-10.3" font-family="Times New Roman,serif" font-style="italic" font-size="14.00" fill="red">path</text>
<text text-anchor="start" x="91" y="-10.3" font-family="Times New Roman,serif" font-size="14.00"> (path)</text>
<polygon fill="none" stroke="black" points="61,-4 61,-57 155,-57 155,-4 61,-4"/>
</g>
<!-- generators/DiagramsGenerator&#45;&gt;generators/DiagramsGenerator&#45;node_modules -->
<g id="edge1" class="edge">
<title>generators/DiagramsGenerator&#45;&gt;generators/DiagramsGenerator&#45;node_modules</title>
<path fill="none" stroke="black" d="M108,-175.66C108,-143.56 108,-101.61 108,-71.24"/>
<polygon fill="black" stroke="black" points="111.5,-71.02 108,-61.02 104.5,-71.02 111.5,-71.02"/>
</g>
<!-- generators/HtmlGenerator -->
<g id="node3" class="node">
<title>generators/HtmlGenerator</title>
<polygon fill="lightblue" stroke="transparent" points="243,-327 243,-346 411,-346 411,-327 243,-327"/>
<text text-anchor="start" x="245" y="-333.8" font-family="Times New Roman,serif" font-weight="bold" font-size="14.00">generators/HtmlGenerator</text>
<polyline fill="none" stroke="black" points="243,-306 411,-306 "/>
<polyline fill="none" stroke="black" points="411,-327 243,-327 "/>
<text text-anchor="start" x="246" y="-312.8" font-family="Times New Roman,serif" font-size="14.00">HtmlGenerator</text>
<g id="a_node3_1"><a xlink:href="diagrams.html#ast" xlink:title="&lt;TABLE&gt;" target="_top">
<polyline fill="none" stroke="black" points="243,-232 411,-232 "/>
<polyline fill="none" stroke="black" points="411,-306 243,-306 "/>
<text text-anchor="start" x="295.5" y="-293.8" font-family="Times New Roman,serif" font-style="italic" text-decoration="underline" font-size="14.00" fill="red">ast</text>
<text text-anchor="start" x="245" y="-279.8" font-family="Times New Roman,serif" font-style="italic" font-size="14.00" fill="red">ast/SharedInterfaces</text>
<text text-anchor="start" x="270.5" y="-265.8" font-family="Times New Roman,serif" font-size="14.00">ModuleInfo</text>
<text text-anchor="start" x="273" y="-251.8" font-family="Times New Roman,serif" font-size="14.00">ImportInfo</text>
<text text-anchor="start" x="273" y="-237.8" font-family="Times New Roman,serif" font-size="14.00">ExportInfo</text>
</a>
</g>
<g id="a_node3_2"><a xlink:href="diagrams.html#utils" xlink:title="&lt;TABLE&gt;" target="_top">
<polyline fill="none" stroke="black" points="243,-102 411,-102 "/>
<polyline fill="none" stroke="black" points="411,-232 243,-232 "/>
<text text-anchor="start" x="300.5" y="-219.8" font-family="Times New Roman,serif" font-style="italic" text-decoration="underline" font-size="14.00" fill="red">utils</text>
<text text-anchor="start" x="276" y="-205.8" font-family="Times New Roman,serif" font-style="italic" font-size="14.00" fill="red">utils/file&#45;utils</text>
<text text-anchor="start" x="266" y="-191.8" font-family="Times New Roman,serif" font-size="14.00">moduleFileName</text>
<text text-anchor="start" x="267" y="-177.8" font-family="Times New Roman,serif" font-size="14.00">getModuleName</text>
<text text-anchor="start" x="276.5" y="-163.8" font-family="Times New Roman,serif" font-style="italic" font-size="14.00" fill="red">utils/list&#45;utils</text>
<text text-anchor="start" x="271.5" y="-149.8" font-family="Times New Roman,serif" font-size="14.00">getUsedByList</text>
<text text-anchor="start" x="271" y="-135.8" font-family="Times New Roman,serif" font-size="14.00">getDependsOn</text>
<text text-anchor="start" x="245" y="-121.8" font-family="Times New Roman,serif" font-size="14.00">getUniqueNodeModules</text>
<text text-anchor="start" x="268" y="-107.8" font-family="Times New Roman,serif" font-size="14.00">getExportedList</text>
</a>
</g>
<polygon fill="none" stroke="black" points="242,-101 242,-347 412,-347 412,-101 242,-101"/>
</g>
<!-- generators/HtmlGenerator&#45;node_modules -->
<g id="node4" class="node">
<title>generators/HtmlGenerator&#45;node_modules</title>
<polygon fill="lightgrey" stroke="transparent" points="281,-36.5 281,-55.5 373,-55.5 373,-36.5 281,-36.5"/>
<text text-anchor="start" x="283" y="-43.3" font-family="Times New Roman,serif" font-weight="bold" font-size="14.00">node_modules</text>
<text text-anchor="start" x="298" y="-24.3" font-family="Times New Roman,serif" font-style="italic" font-size="14.00" fill="red">fs</text>
<text text-anchor="start" x="308" y="-24.3" font-family="Times New Roman,serif" font-size="14.00"> (fs)</text>
<text text-anchor="start" x="283" y="-10.3" font-family="Times New Roman,serif" font-style="italic" font-size="14.00" fill="red">path</text>
<text text-anchor="start" x="310" y="-10.3" font-family="Times New Roman,serif" font-size="14.00"> (path)</text>
<polygon fill="none" stroke="black" points="280,-4 280,-57 374,-57 374,-4 280,-4"/>
</g>
<!-- generators/HtmlGenerator&#45;&gt;generators/HtmlGenerator&#45;node_modules -->
<g id="edge2" class="edge">
<title>generators/HtmlGenerator&#45;&gt;generators/HtmlGenerator&#45;node_modules</title>
<path fill="none" stroke="black" d="M327,-96.87C327,-87.82 327,-79.17 327,-71.3"/>
<polygon fill="black" stroke="black" points="330.5,-71.08 327,-61.08 323.5,-71.08 330.5,-71.08"/>
</g>
</g>
</svg>
