<?xml version="1.0" encoding="UTF-8" standalone="no"?>
<!DOCTYPE svg PUBLIC "-//W3C//DTD SVG 1.1//EN"
 "http://www.w3.org/Graphics/SVG/1.1/DTD/svg11.dtd">
<!-- Generated by graphviz version 3.0.0 (20220226.1711)
 -->
<!-- Pages: 1 -->
<svg width="257pt" height="110pt"
 viewBox="0.00 0.00 257.00 110.00" xmlns="http://www.w3.org/2000/svg" xmlns:xlink="http://www.w3.org/1999/xlink">
<g id="graph0" class="graph" transform="scale(1 1) rotate(0) translate(4 106)">
<polygon fill="white" stroke="transparent" points="-4,4 -4,-106 253,-106 253,4 -4,4"/>
<text text-anchor="middle" x="124.5" y="-86.8" font-family="Times New Roman,serif" font-size="14.00">processors Class Diagram</text>
<!-- GraphvizProcessor -->
<g id="node1" class="node">
<title>GraphvizProcessor</title>
<polygon fill="lightblue" stroke="transparent" points="9.5,-52.5 9.5,-73.5 240.5,-73.5 240.5,-52.5 9.5,-52.5"/>
<polygon fill="none" stroke="black" points="9.5,-52.5 9.5,-73.5 240.5,-73.5 240.5,-52.5 9.5,-52.5"/>
<text text-anchor="start" x="12.5" y="-60.3" font-family="Times New Roman,serif" font-weight="bold" font-size="14.00">GraphvizProcessor</text>
<polygon fill="none" stroke="black" points="9.5,-4.5 9.5,-52.5 240.5,-52.5 240.5,-4.5 9.5,-4.5"/>
<text text-anchor="start" x="99" y="-39.3" font-family="Times New Roman,serif" font-weight="bold" font-size="14.00">methods</text>
<text text-anchor="start" x="82" y="-25.3" font-family="Times New Roman,serif" font-size="14.00">+ constructor()</text>
<text text-anchor="start" x="12.5" y="-11.3" font-family="Times New Roman,serif" font-size="14.00">+ generateSvg(dotFilePath, svgFilePath)</text>
<polygon fill="none" stroke="black" points="8,-4 8,-75 241,-75 241,-4 8,-4"/>
</g>
</g>
</svg>
