<?xml version="1.0" encoding="UTF-8" standalone="no"?>
<!DOCTYPE svg PUBLIC "-//W3C//DTD SVG 1.1//EN"
 "http://www.w3.org/Graphics/SVG/1.1/DTD/svg11.dtd">
<!-- Generated by graphviz version 3.0.0 (20220226.1711)
 -->
<!-- Pages: 1 -->
<svg width="220pt" height="204pt"
 viewBox="0.00 0.00 220.00 204.00" xmlns="http://www.w3.org/2000/svg" xmlns:xlink="http://www.w3.org/1999/xlink">
<g id="graph0" class="graph" transform="scale(1 1) rotate(0) translate(4 200)">
<polygon fill="white" stroke="transparent" points="-4,4 -4,-200 216,-200 216,4 -4,4"/>
<text text-anchor="middle" x="106" y="-180.8" font-family="Times New Roman,serif" font-size="14.00">processors Module Exports</text>
<!-- processors/GraphvizProcessor -->
<g id="node1" class="node">
<title>processors/GraphvizProcessor</title>
<polygon fill="lightblue" stroke="transparent" points="9,-147 9,-168 203,-168 203,-147 9,-147"/>
<polygon fill="none" stroke="black" points="9,-147 9,-168 203,-168 203,-147 9,-147"/>
<text text-anchor="start" x="12" y="-154.8" font-family="Times New Roman,serif" font-weight="bold" font-size="14.00">processors/GraphvizProcessor</text>
<polygon fill="none" stroke="black" points="9,-126 9,-147 203,-147 203,-126 9,-126"/>
<text text-anchor="start" x="12" y="-132.8" font-family="Times New Roman,serif" font-size="14.00">GraphvizProcessor</text>
<polygon fill="none" stroke="black" points="9,-120 9,-126 203,-126 203,-120 9,-120"/>
<polygon fill="none" stroke="black" points="8,-119 8,-169 204,-169 204,-119 8,-119"/>
</g>
<!-- processors/GraphvizProcessor&#45;node_modules -->
<g id="node2" class="node">
<title>processors/GraphvizProcessor&#45;node_modules</title>
<polygon fill="lightgrey" stroke="transparent" points="20,-52.5 20,-73.5 193,-73.5 193,-52.5 20,-52.5"/>
<polygon fill="none" stroke="black" points="20,-52.5 20,-73.5 193,-73.5 193,-52.5 20,-52.5"/>
<text text-anchor="start" x="62.5" y="-60.3" font-family="Times New Roman,serif" font-weight="bold" font-size="14.00">node_modules</text>
<polygon fill="none" stroke="black" points="20,-4.5 20,-52.5 193,-52.5 193,-4.5 20,-4.5"/>
<text text-anchor="start" x="42.5" y="-39.3" font-family="Times New Roman,serif" font-style="italic" font-size="14.00" fill="red">child_process</text>
<text text-anchor="start" x="121.5" y="-39.3" font-family="Times New Roman,serif" font-size="14.00"> (spawn)</text>
<text text-anchor="start" x="23" y="-25.3" font-family="Times New Roman,serif" font-style="italic" font-size="14.00" fill="red">child_process</text>
<text text-anchor="start" x="102" y="-25.3" font-family="Times New Roman,serif" font-size="14.00"> (ChildProcess)</text>
<text text-anchor="start" x="89.5" y="-11.3" font-family="Times New Roman,serif" font-style="italic" font-size="14.00" fill="red">fs</text>
<text text-anchor="start" x="99.5" y="-11.3" font-family="Times New Roman,serif" font-size="14.00"> (fs)</text>
<polygon fill="none" stroke="black" points="18.5,-4 18.5,-75 193.5,-75 193.5,-4 18.5,-4"/>
</g>
<!-- processors/GraphvizProcessor&#45;&gt;processors/GraphvizProcessor&#45;node_modules -->
<g id="edge1" class="edge">
<title>processors/GraphvizProcessor&#45;&gt;processors/GraphvizProcessor&#45;node_modules</title>
<path fill="none" stroke="black" d="M106,-114.99C106,-107.07 106,-98.2 106,-89.43"/>
<polygon fill="black" stroke="black" points="109.5,-89.23 106,-79.23 102.5,-89.23 109.5,-89.23"/>
</g>
</g>
</svg>
