<?xml version="1.0" encoding="UTF-8" standalone="no"?>
<!DOCTYPE svg PUBLIC "-//W3C//DTD SVG 1.1//EN"
 "http://www.w3.org/Graphics/SVG/1.1/DTD/svg11.dtd">
<!-- Generated by graphviz version 3.0.0 (20220226.1711)
 -->
<!-- Pages: 1 -->
<svg width="822pt" height="1326pt"
 viewBox="0.00 0.00 821.50 1326.00" xmlns="http://www.w3.org/2000/svg" xmlns:xlink="http://www.w3.org/1999/xlink">
<g id="graph0" class="graph" transform="scale(1 1) rotate(0) translate(4 1322)">
<polygon fill="white" stroke="transparent" points="-4,4 -4,-1322 817.5,-1322 817.5,4 -4,4"/>
<text text-anchor="middle" x="406.75" y="-1302.8" font-family="Times New Roman,serif" font-size="14.00"> Module Exports</text>
<!-- dep&#45;graph -->
<g id="node1" class="node">
<title>dep&#45;graph</title>
<g id="a_node1_0"><a xlink:href="docs/tsdocs/modules/_dep-graph_.html" xlink:title="&lt;TABLE&gt;" target="_blank">
<polygon fill="lightblue" stroke="transparent" points="294,-1165.5 294,-1184.5 468,-1184.5 468,-1165.5 294,-1165.5"/>
<text text-anchor="start" x="349.5" y="-1172.3" font-family="Times New Roman,serif" font-weight="bold" font-size="14.00">dep&#45;graph</text>
</a>
</g>
<polyline fill="none" stroke="black" points="294,-1129.5 468,-1129.5 "/>
<polyline fill="none" stroke="black" points="468,-1165.5 294,-1165.5 "/>
<text text-anchor="start" x="297" y="-1151.3" font-family="Times New Roman,serif" font-size="14.00">ProgramOptions</text>
<text text-anchor="start" x="310.5" y="-1136.3" font-family="Times New Roman,serif" font-size="14.00">runProgram</text>
<polyline fill="none" stroke="black" points="294,-1095.5 468,-1095.5 "/>
<polyline fill="none" stroke="black" points="468,-1129.5 294,-1129.5 "/>
<text text-anchor="start" x="297" y="-1116.3" font-family="Times New Roman,serif" font-style="italic" font-size="14.00" fill="red">DependencyGraphGenerator</text>
<text text-anchor="start" x="300.5" y="-1102.3" font-family="Times New Roman,serif" font-size="14.00">DependencyGraphGenerator</text>
<polygon fill="none" stroke="black" points="293,-1095 293,-1186 469,-1186 469,-1095 293,-1095"/>
</g>
<!-- dep&#45;graph&#45;node_modules -->
<g id="node2" class="node">
<title>dep&#45;graph&#45;node_modules</title>
<polygon fill="lightgrey" stroke="transparent" points="90,-771 90,-790 252,-790 252,-771 90,-771"/>
<text text-anchor="start" x="127" y="-777.8" font-family="Times New Roman,serif" font-weight="bold" font-size="14.00">node_modules</text>
<text text-anchor="start" x="101" y="-758.8" font-family="Times New Roman,serif" font-style="italic" font-size="14.00" fill="red">commander</text>
<text text-anchor="start" x="169" y="-758.8" font-family="Times New Roman,serif" font-size="14.00"> (Command)</text>
<text text-anchor="start" x="111" y="-744.8" font-family="Times New Roman,serif" font-style="italic" font-size="14.00" fill="red">commander</text>
<text text-anchor="start" x="179" y="-744.8" font-family="Times New Roman,serif" font-size="14.00"> (Option)</text>
<text text-anchor="start" x="92" y="-730.8" font-family="Times New Roman,serif" font-style="italic" font-size="14.00" fill="red">commander</text>
<text text-anchor="start" x="160" y="-730.8" font-family="Times New Roman,serif" font-size="14.00"> (OptionValues)</text>
<text text-anchor="start" x="154" y="-716.8" font-family="Times New Roman,serif" font-style="italic" font-size="14.00" fill="red">fs</text>
<text text-anchor="start" x="164" y="-716.8" font-family="Times New Roman,serif" font-size="14.00"> (fs)</text>
<text text-anchor="start" x="139" y="-702.8" font-family="Times New Roman,serif" font-style="italic" font-size="14.00" fill="red">path</text>
<text text-anchor="start" x="166" y="-702.8" font-family="Times New Roman,serif" font-size="14.00"> (path)</text>
<polygon fill="none" stroke="black" points="89,-696.5 89,-791.5 253,-791.5 253,-696.5 89,-696.5"/>
</g>
<!-- dep&#45;graph&#45;&gt;dep&#45;graph&#45;node_modules -->
<g id="edge1" class="edge">
<title>dep&#45;graph&#45;&gt;dep&#45;graph&#45;node_modules</title>
<path fill="none" stroke="black" d="M303.85,-1090.77C291.24,-1080.18 279.29,-1068.16 270,-1055 216.16,-978.72 190.57,-871.73 179.2,-805.47"/>
<polygon fill="black" stroke="black" points="182.65,-804.89 177.56,-795.6 175.75,-806.04 182.65,-804.89"/>
</g>
<!-- DependencyGraphGenerator -->
<g id="node3" class="node">
<title>DependencyGraphGenerator</title>
<g id="a_node3_1"><a xlink:href="docs/tsdocs/modules/_DependencyGraphGenerator_.html" xlink:title="&lt;TABLE&gt;" target="_blank">
<polygon fill="lightblue" stroke="transparent" points="289,-1031 289,-1050 474,-1050 474,-1031 289,-1031"/>
<text text-anchor="start" x="292.5" y="-1037.8" font-family="Times New Roman,serif" font-weight="bold" font-size="14.00">DependencyGraphGenerator</text>
</a>
</g>
<polyline fill="none" stroke="black" points="289,-1010 474,-1010 "/>
<polyline fill="none" stroke="black" points="474,-1031 289,-1031 "/>
<text text-anchor="start" x="292" y="-1016.8" font-family="Times New Roman,serif" font-size="14.00">DependencyGraphGenerator</text>
<polyline fill="none" stroke="black" points="289,-976 474,-976 "/>
<polyline fill="none" stroke="black" points="474,-1010 289,-1010 "/>
<text text-anchor="start" x="292" y="-996.8" font-family="Times New Roman,serif" font-style="italic" font-size="14.00" fill="red">GraphvizProcessor</text>
<text text-anchor="start" x="292" y="-982.8" font-family="Times New Roman,serif" font-size="14.00">GraphvizProcessor</text>
<polyline fill="none" stroke="black" points="289,-942 474,-942 "/>
<polyline fill="none" stroke="black" points="474,-976 289,-976 "/>
<text text-anchor="start" x="292" y="-962.8" font-family="Times New Roman,serif" font-style="italic" font-size="14.00" fill="red">JsDocGenerator</text>
<text text-anchor="start" x="293.5" y="-948.8" font-family="Times New Roman,serif" font-size="14.00">JsDocGenerator</text>
<polyline fill="none" stroke="black" points="289,-908 474,-908 "/>
<polyline fill="none" stroke="black" points="474,-942 289,-942 "/>
<text text-anchor="start" x="292" y="-928.8" font-family="Times New Roman,serif" font-style="italic" font-size="14.00" fill="red">TypeDocGenerator</text>
<text text-anchor="start" x="292.5" y="-914.8" font-family="Times New Roman,serif" font-size="14.00">TypeDocGenerator</text>
<polyline fill="none" stroke="black" points="289,-874 474,-874 "/>
<polyline fill="none" stroke="black" points="474,-908 289,-908 "/>
<text text-anchor="start" x="308.5" y="-894.8" font-family="Times New Roman,serif" font-style="italic" font-size="14.00" fill="red">dep&#45;graph</text>
<text text-anchor="start" x="292" y="-880.8" font-family="Times New Roman,serif" font-size="14.00">ProgramOptions</text>
<polyline fill="none" stroke="black" points="289,-800 474,-800 "/>
<polyline fill="none" stroke="black" points="474,-874 289,-874 "/>
<text text-anchor="start" x="300" y="-861.8" font-family="Times New Roman,serif" font-style="italic" font-size="14.00" fill="red">ast/ASTProcessor</text>
<text text-anchor="start" x="307.5" y="-847.8" font-family="Times New Roman,serif" font-size="14.00">ASTProcessor</text>
<text text-anchor="start" x="291" y="-833.8" font-family="Times New Roman,serif" font-style="italic" font-size="14.00" fill="red">ast/SharedInterfaces</text>
<text text-anchor="start" x="316.5" y="-819.8" font-family="Times New Roman,serif" font-size="14.00">ModuleInfo</text>
<text text-anchor="start" x="294" y="-805.8" font-family="Times New Roman,serif" font-size="14.00">ProcessedASTData</text>
<polyline fill="none" stroke="black" points="289,-740 474,-740 "/>
<polyline fill="none" stroke="black" points="474,-800 289,-800 "/>
<text text-anchor="start" x="291" y="-787.8" font-family="Times New Roman,serif" font-style="italic" font-size="14.00" fill="red">generators/DiagramsGenerator</text>
<text text-anchor="start" x="327" y="-773.8" font-family="Times New Roman,serif" font-size="14.00">DiagramsGenerator</text>
<text text-anchor="start" x="305.5" y="-759.8" font-family="Times New Roman,serif" font-style="italic" font-size="14.00" fill="red">generators/HtmlGenerator</text>
<text text-anchor="start" x="340" y="-745.8" font-family="Times New Roman,serif" font-size="14.00">HtmlGenerator</text>
<polyline fill="none" stroke="black" points="289,-568 474,-568 "/>
<polyline fill="none" stroke="black" points="474,-740 289,-740 "/>
<text text-anchor="start" x="307.5" y="-727.8" font-family="Times New Roman,serif" font-style="italic" font-size="14.00" fill="red">graphs/ClassDiagram</text>
<text text-anchor="start" x="333" y="-713.8" font-family="Times New Roman,serif" font-size="14.00">ClassDiagram</text>
<text text-anchor="start" x="311.5" y="-699.8" font-family="Times New Roman,serif" font-style="italic" font-size="14.00" fill="red">graphs/ExportGraph</text>
<text text-anchor="start" x="335" y="-685.8" font-family="Times New Roman,serif" font-size="14.00">ExportGraph</text>
<text text-anchor="start" x="301" y="-671.8" font-family="Times New Roman,serif" font-style="italic" font-size="14.00" fill="red">graphs/GraphGenerator</text>
<text text-anchor="start" x="314" y="-657.8" font-family="Times New Roman,serif" font-size="14.00">IGraphFileGenerator</text>
<text text-anchor="start" x="291" y="-643.8" font-family="Times New Roman,serif" font-style="italic" font-size="14.00" fill="red">graphs/NodeModulesGraph</text>
<text text-anchor="start" x="314.5" y="-629.8" font-family="Times New Roman,serif" font-size="14.00">NodeModulesGraph</text>
<text text-anchor="start" x="305.5" y="-615.8" font-family="Times New Roman,serif" font-style="italic" font-size="14.00" fill="red">graphs/PackageGraph</text>
<text text-anchor="start" x="331" y="-601.8" font-family="Times New Roman,serif" font-size="14.00">PackageGraph</text>
<text text-anchor="start" x="304" y="-587.8" font-family="Times New Roman,serif" font-style="italic" font-size="14.00" fill="red">graphs/RelationsGraph</text>
<text text-anchor="start" x="328" y="-573.8" font-family="Times New Roman,serif" font-size="14.00">RelationsGraph</text>
<polyline fill="none" stroke="black" points="289,-438 474,-438 "/>
<polyline fill="none" stroke="black" points="474,-568 289,-568 "/>
<text text-anchor="start" x="320.5" y="-555.8" font-family="Times New Roman,serif" font-style="italic" font-size="14.00" fill="red">utils/file&#45;utils</text>
<text text-anchor="start" x="320.5" y="-541.8" font-family="Times New Roman,serif" font-size="14.00">safeWriteFile</text>
<text text-anchor="start" x="300" y="-527.8" font-family="Times New Roman,serif" font-size="14.00">getRelativePathParts</text>
<text text-anchor="start" x="291" y="-513.8" font-family="Times New Roman,serif" font-size="14.00">getDirectoriesRecursive</text>
<text text-anchor="start" x="336" y="-499.8" font-family="Times New Roman,serif" font-size="14.00">getFiles</text>
<text text-anchor="start" x="324" y="-485.8" font-family="Times New Roman,serif" font-size="14.00">getFilename</text>
<text text-anchor="start" x="306.5" y="-471.8" font-family="Times New Roman,serif" font-size="14.00">getGraphFilename</text>
<text text-anchor="start" x="331.5" y="-457.8" font-family="Times New Roman,serif" font-style="italic" font-size="14.00" fill="red">utils/json</text>
<text text-anchor="start" x="335" y="-443.8" font-family="Times New Roman,serif" font-size="14.00">jsonOut</text>
<polygon fill="none" stroke="black" points="287.5,-437 287.5,-1051 474.5,-1051 474.5,-437 287.5,-437"/>
</g>
<!-- dep&#45;graph&#45;&gt;DependencyGraphGenerator -->
<g id="edge7" class="edge">
<title>dep&#45;graph&#45;&gt;DependencyGraphGenerator</title>
<path fill="none" stroke="black" d="M376.37,-1090.73C376.08,-1082.93 375.82,-1074.4 375.59,-1065.29"/>
<polygon fill="black" stroke="black" points="379.08,-1065.09 375.35,-1055.18 372.09,-1065.26 379.08,-1065.09"/>
</g>
<!-- DependencyGraphGenerator&#45;&gt;dep&#45;graph -->
<g id="edge8" class="edge">
<title>DependencyGraphGenerator&#45;&gt;dep&#45;graph</title>
<path fill="none" stroke="black" d="M386.65,-1055.18C386.45,-1064.19 386.23,-1072.72 385.98,-1080.66"/>
<polygon fill="black" stroke="black" points="382.47,-1080.62 385.63,-1090.73 389.47,-1080.86 382.47,-1080.62"/>
</g>
<!-- DependencyGraphGenerator&#45;node_modules -->
<g id="node4" class="node">
<title>DependencyGraphGenerator&#45;node_modules</title>
<polygon fill="lightgrey" stroke="transparent" points="9,-312 9,-331 101,-331 101,-312 9,-312"/>
<text text-anchor="start" x="11" y="-318.8" font-family="Times New Roman,serif" font-weight="bold" font-size="14.00">node_modules</text>
<text text-anchor="start" x="26" y="-299.8" font-family="Times New Roman,serif" font-style="italic" font-size="14.00" fill="red">fs</text>
<text text-anchor="start" x="36" y="-299.8" font-family="Times New Roman,serif" font-size="14.00"> (fs)</text>
<text text-anchor="start" x="11" y="-285.8" font-family="Times New Roman,serif" font-style="italic" font-size="14.00" fill="red">path</text>
<text text-anchor="start" x="38" y="-285.8" font-family="Times New Roman,serif" font-size="14.00"> (path)</text>
<polygon fill="none" stroke="black" points="8,-279.5 8,-332.5 102,-332.5 102,-279.5 8,-279.5"/>
</g>
<!-- DependencyGraphGenerator&#45;&gt;DependencyGraphGenerator&#45;node_modules -->
<g id="edge2" class="edge">
<title>DependencyGraphGenerator&#45;&gt;DependencyGraphGenerator&#45;node_modules</title>
<path fill="none" stroke="black" d="M279.31,-441.87C276.3,-438.82 273.19,-435.86 270,-433 218.61,-386.97 176.2,-435.58 119,-397 100.01,-384.19 84.81,-363.74 73.99,-345.57"/>
<polygon fill="black" stroke="black" points="77.03,-343.83 69.04,-336.88 70.95,-347.3 77.03,-343.83"/>
</g>
<!-- GraphvizProcessor -->
<g id="node7" class="node">
<title>GraphvizProcessor</title>
<g id="a_node7_2"><a xlink:href="docs/tsdocs/modules/_GraphvizProcessor_.html" xlink:title="&lt;TABLE&gt;" target="_blank">
<polygon fill="lightblue" stroke="transparent" points="137,-307 137,-326 259,-326 259,-307 137,-307"/>
<text text-anchor="start" x="139" y="-313.8" font-family="Times New Roman,serif" font-weight="bold" font-size="14.00">GraphvizProcessor</text>
</a>
</g>
<polyline fill="none" stroke="black" points="137,-286 259,-286 "/>
<polyline fill="none" stroke="black" points="259,-307 137,-307 "/>
<text text-anchor="start" x="140" y="-292.8" font-family="Times New Roman,serif" font-size="14.00">GraphvizProcessor</text>
<polygon fill="none" stroke="black" points="136,-285 136,-327 260,-327 260,-285 136,-285"/>
</g>
<!-- DependencyGraphGenerator&#45;&gt;GraphvizProcessor -->
<g id="edge9" class="edge">
<title>DependencyGraphGenerator&#45;&gt;GraphvizProcessor</title>
<path fill="none" stroke="black" d="M279.41,-453.96C276.31,-446.88 273.17,-439.88 270,-433 254.98,-400.39 234.38,-365.04 219.05,-340.11"/>
<polygon fill="black" stroke="black" points="221.91,-338.08 213.67,-331.42 215.96,-341.76 221.91,-338.08"/>
</g>
<!-- JsDocGenerator -->
<g id="node10" class="node">
<title>JsDocGenerator</title>
<g id="a_node10_3"><a xlink:href="docs/tsdocs/modules/_JsDocGenerator_.html" xlink:title="&lt;TABLE&gt;" target="_blank">
<polygon fill="lightblue" stroke="transparent" points="295,-347 295,-366 467,-366 467,-347 295,-347"/>
<text text-anchor="start" x="329.5" y="-353.8" font-family="Times New Roman,serif" font-weight="bold" font-size="14.00">JsDocGenerator</text>
</a>
</g>
<polyline fill="none" stroke="black" points="295,-326 467,-326 "/>
<polyline fill="none" stroke="black" points="467,-347 295,-347 "/>
<text text-anchor="start" x="298" y="-332.8" font-family="Times New Roman,serif" font-size="14.00">JsDocGenerator</text>
<polyline fill="none" stroke="black" points="295,-278 467,-278 "/>
<polyline fill="none" stroke="black" points="467,-326 295,-326 "/>
<text text-anchor="start" x="309" y="-312.8" font-family="Times New Roman,serif" font-style="italic" font-size="14.00" fill="red">DocumentationProcessor</text>
<text text-anchor="start" x="343" y="-298.8" font-family="Times New Roman,serif" font-size="14.00">JSDocConfig</text>
<text text-anchor="start" x="298" y="-284.8" font-family="Times New Roman,serif" font-size="14.00">spawnDocumentationProcess</text>
<polyline fill="none" stroke="black" points="295,-246 467,-246 "/>
<polyline fill="none" stroke="black" points="467,-278 295,-278 "/>
<text text-anchor="start" x="297" y="-265.8" font-family="Times New Roman,serif" font-style="italic" font-size="14.00" fill="red">ast/SharedInterfaces</text>
<text text-anchor="start" x="322.5" y="-251.8" font-family="Times New Roman,serif" font-size="14.00">ModuleInfo</text>
<polygon fill="none" stroke="black" points="294,-245 294,-367 468,-367 468,-245 294,-245"/>
</g>
<!-- DependencyGraphGenerator&#45;&gt;JsDocGenerator -->
<g id="edge10" class="edge">
<title>DependencyGraphGenerator&#45;&gt;JsDocGenerator</title>
<path fill="none" stroke="black" d="M381,-432.82C381,-414.31 381,-396.88 381,-381.24"/>
<polygon fill="black" stroke="black" points="384.5,-381.23 381,-371.23 377.5,-381.23 384.5,-381.23"/>
</g>
<!-- TypeDocGenerator -->
<g id="node12" class="node">
<title>TypeDocGenerator</title>
<g id="a_node12_4"><a xlink:href="docs/tsdocs/modules/_TypeDocGenerator_.html" xlink:title="&lt;TABLE&gt;" target="_blank">
<polygon fill="lightblue" stroke="transparent" points="503,-373 503,-392 675,-392 675,-373 503,-373"/>
<text text-anchor="start" x="529" y="-379.8" font-family="Times New Roman,serif" font-weight="bold" font-size="14.00">TypeDocGenerator</text>
</a>
</g>
<polyline fill="none" stroke="black" points="503,-352 675,-352 "/>
<polyline fill="none" stroke="black" points="675,-373 503,-373 "/>
<text text-anchor="start" x="506" y="-358.8" font-family="Times New Roman,serif" font-size="14.00">TypeDocGenerator</text>
<polyline fill="none" stroke="black" points="503,-318 675,-318 "/>
<polyline fill="none" stroke="black" points="675,-352 503,-352 "/>
<text text-anchor="start" x="517" y="-338.8" font-family="Times New Roman,serif" font-style="italic" font-size="14.00" fill="red">DocumentationProcessor</text>
<text text-anchor="start" x="506" y="-324.8" font-family="Times New Roman,serif" font-size="14.00">spawnDocumentationProcess</text>
<polyline fill="none" stroke="black" points="503,-284 675,-284 "/>
<polyline fill="none" stroke="black" points="675,-318 503,-318 "/>
<text text-anchor="start" x="522.5" y="-304.8" font-family="Times New Roman,serif" font-style="italic" font-size="14.00" fill="red">dep&#45;graph</text>
<text text-anchor="start" x="506" y="-290.8" font-family="Times New Roman,serif" font-size="14.00">ProgramOptions</text>
<polyline fill="none" stroke="black" points="503,-252 675,-252 "/>
<polyline fill="none" stroke="black" points="675,-284 503,-284 "/>
<text text-anchor="start" x="505" y="-271.8" font-family="Times New Roman,serif" font-style="italic" font-size="14.00" fill="red">ast/SharedInterfaces</text>
<text text-anchor="start" x="530.5" y="-257.8" font-family="Times New Roman,serif" font-size="14.00">ModuleInfo</text>
<polyline fill="none" stroke="black" points="503,-220 675,-220 "/>
<polyline fill="none" stroke="black" points="675,-252 503,-252 "/>
<text text-anchor="start" x="505" y="-239.8" font-family="Times New Roman,serif" font-style="italic" font-size="14.00" fill="red">utils/file&#45;utils</text>
<text text-anchor="start" x="508.5" y="-225.8" font-family="Times New Roman,serif" font-size="14.00">getFilename</text>
<polygon fill="none" stroke="black" points="502,-219 502,-393 676,-393 676,-219 502,-219"/>
</g>
<!-- DependencyGraphGenerator&#45;&gt;TypeDocGenerator -->
<g id="edge11" class="edge">
<title>DependencyGraphGenerator&#45;&gt;TypeDocGenerator</title>
<path fill="none" stroke="black" d="M482.56,-530.11C503.19,-486.87 523.95,-443.35 541.59,-406.39"/>
<polygon fill="black" stroke="black" points="544.85,-407.67 546,-397.13 538.54,-404.65 544.85,-407.67"/>
</g>
<!-- DocumentationProcessor -->
<g id="node5" class="node">
<title>DocumentationProcessor</title>
<g id="a_node5_5"><a xlink:href="docs/tsdocs/modules/_DocumentationProcessor_.html" xlink:title="&lt;TABLE&gt;" target="_blank">
<polygon fill="lightblue" stroke="transparent" points="455,-154.5 455,-173.5 627,-173.5 627,-154.5 455,-154.5"/>
<text text-anchor="start" x="463.5" y="-161.3" font-family="Times New Roman,serif" font-weight="bold" font-size="14.00">DocumentationProcessor</text>
</a>
</g>
<polyline fill="none" stroke="black" points="455,-88.5 627,-88.5 "/>
<polyline fill="none" stroke="black" points="627,-154.5 455,-154.5 "/>
<text text-anchor="start" x="503" y="-140.3" font-family="Times New Roman,serif" font-size="14.00">JSDocConfig</text>
<text text-anchor="start" x="489" y="-125.3" font-family="Times New Roman,serif" font-size="14.00">JSDocOptsConfig</text>
<text text-anchor="start" x="483" y="-110.3" font-family="Times New Roman,serif" font-size="14.00">JSDocSourceConfig</text>
<text text-anchor="start" x="458" y="-95.3" font-family="Times New Roman,serif" font-size="14.00">spawnDocumentationProcess</text>
<polygon fill="none" stroke="black" points="454,-88 454,-175 628,-175 628,-88 454,-88"/>
</g>
<!-- DocumentationProcessor&#45;node_modules -->
<g id="node6" class="node">
<title>DocumentationProcessor&#45;node_modules</title>
<polygon fill="lightgrey" stroke="transparent" points="475,-24 475,-43 607,-43 607,-24 475,-24"/>
<text text-anchor="start" x="497" y="-30.8" font-family="Times New Roman,serif" font-weight="bold" font-size="14.00">node_modules</text>
<text text-anchor="start" x="477" y="-11.8" font-family="Times New Roman,serif" font-style="italic" font-size="14.00" fill="red">child_process</text>
<text text-anchor="start" x="556" y="-11.8" font-family="Times New Roman,serif" font-size="14.00"> (spawn)</text>
<polygon fill="none" stroke="black" points="474,-4 474,-44 608,-44 608,-4 474,-4"/>
</g>
<!-- DocumentationProcessor&#45;&gt;DocumentationProcessor&#45;node_modules -->
<g id="edge3" class="edge">
<title>DocumentationProcessor&#45;&gt;DocumentationProcessor&#45;node_modules</title>
<path fill="none" stroke="black" d="M541,-83.92C541,-75.32 541,-66.5 541,-58.39"/>
<polygon fill="black" stroke="black" points="544.5,-58.22 541,-48.22 537.5,-58.22 544.5,-58.22"/>
</g>
<!-- GraphvizProcessor&#45;node_modules -->
<g id="node8" class="node">
<title>GraphvizProcessor&#45;node_modules</title>
<polygon fill="lightgrey" stroke="transparent" points="113,-144.5 113,-163.5 284,-163.5 284,-144.5 113,-144.5"/>
<text text-anchor="start" x="154.5" y="-151.3" font-family="Times New Roman,serif" font-weight="bold" font-size="14.00">node_modules</text>
<text text-anchor="start" x="134.5" y="-132.3" font-family="Times New Roman,serif" font-style="italic" font-size="14.00" fill="red">child_process</text>
<text text-anchor="start" x="213.5" y="-132.3" font-family="Times New Roman,serif" font-size="14.00"> (spawn)</text>
<text text-anchor="start" x="115" y="-118.3" font-family="Times New Roman,serif" font-style="italic" font-size="14.00" fill="red">child_process</text>
<text text-anchor="start" x="194" y="-118.3" font-family="Times New Roman,serif" font-size="14.00"> (ChildProcess)</text>
<text text-anchor="start" x="181.5" y="-104.3" font-family="Times New Roman,serif" font-style="italic" font-size="14.00" fill="red">fs</text>
<text text-anchor="start" x="191.5" y="-104.3" font-family="Times New Roman,serif" font-size="14.00"> (fs)</text>
<polygon fill="none" stroke="black" points="111.5,-98 111.5,-165 284.5,-165 284.5,-98 111.5,-98"/>
</g>
<!-- GraphvizProcessor&#45;&gt;GraphvizProcessor&#45;node_modules -->
<g id="edge4" class="edge">
<title>GraphvizProcessor&#45;&gt;GraphvizProcessor&#45;node_modules</title>
<path fill="none" stroke="black" d="M198,-280.65C198,-254.42 198,-212.05 198,-179.32"/>
<polygon fill="black" stroke="black" points="201.5,-179.07 198,-169.07 194.5,-179.07 201.5,-179.07"/>
</g>
<!-- index -->
<g id="node9" class="node">
<title>index</title>
<g id="a_node9_6"><a xlink:href="docs/tsdocs/modules/_index_.html" xlink:title="&lt;TABLE&gt;" target="_blank">
<polygon fill="lightblue" stroke="transparent" points="345,-1270.5 345,-1289.5 418,-1289.5 418,-1270.5 345,-1270.5"/>
<text text-anchor="start" x="365" y="-1277.3" font-family="Times New Roman,serif" font-weight="bold" font-size="14.00">index</text>
</a>
</g>
<polyline fill="none" stroke="black" points="345,-1264.5 418,-1264.5 "/>
<polyline fill="none" stroke="black" points="418,-1270.5 345,-1270.5 "/>
<polyline fill="none" stroke="black" points="345,-1230.5 418,-1230.5 "/>
<polyline fill="none" stroke="black" points="418,-1264.5 345,-1264.5 "/>
<text text-anchor="start" x="351" y="-1251.3" font-family="Times New Roman,serif" font-style="italic" font-size="14.00" fill="red">dep&#45;graph</text>
<text text-anchor="start" x="348" y="-1237.3" font-family="Times New Roman,serif" font-size="14.00">runProgram</text>
<polygon fill="none" stroke="black" points="343.5,-1230 343.5,-1291 418.5,-1291 418.5,-1230 343.5,-1230"/>
</g>
<!-- index&#45;&gt;dep&#45;graph -->
<g id="edge12" class="edge">
<title>index&#45;&gt;dep&#45;graph</title>
<path fill="none" stroke="black" d="M381,-1225.69C381,-1217.76 381,-1209.08 381,-1200.4"/>
<polygon fill="black" stroke="black" points="384.5,-1200.27 381,-1190.27 377.5,-1200.27 384.5,-1200.27"/>
</g>
<!-- JsDocGenerator&#45;&gt;DocumentationProcessor -->
<g id="edge13" class="edge">
<title>JsDocGenerator&#45;&gt;DocumentationProcessor</title>
<path fill="none" stroke="black" d="M440.58,-240.77C457.07,-222.99 474.8,-203.88 490.7,-186.73"/>
<polygon fill="black" stroke="black" points="493.63,-188.72 497.87,-179 488.5,-183.96 493.63,-188.72"/>
</g>
<!-- JsDocGenerator&#45;node_modules -->
<g id="node11" class="node">
<title>JsDocGenerator&#45;node_modules</title>
<polygon fill="lightgrey" stroke="transparent" points="327,-137.5 327,-156.5 419,-156.5 419,-137.5 327,-137.5"/>
<text text-anchor="start" x="329" y="-144.3" font-family="Times New Roman,serif" font-weight="bold" font-size="14.00">node_modules</text>
<text text-anchor="start" x="344" y="-125.3" font-family="Times New Roman,serif" font-style="italic" font-size="14.00" fill="red">fs</text>
<text text-anchor="start" x="354" y="-125.3" font-family="Times New Roman,serif" font-size="14.00"> (fs)</text>
<text text-anchor="start" x="329" y="-111.3" font-family="Times New Roman,serif" font-style="italic" font-size="14.00" fill="red">path</text>
<text text-anchor="start" x="356" y="-111.3" font-family="Times New Roman,serif" font-size="14.00"> (path)</text>
<polygon fill="none" stroke="black" points="326,-105 326,-158 420,-158 420,-105 326,-105"/>
</g>
<!-- JsDocGenerator&#45;&gt;JsDocGenerator&#45;node_modules -->
<g id="edge5" class="edge">
<title>JsDocGenerator&#45;&gt;JsDocGenerator&#45;node_modules</title>
<path fill="none" stroke="black" d="M378.02,-240.77C376.95,-217.76 375.78,-192.52 374.84,-172.2"/>
<polygon fill="black" stroke="black" points="378.33,-171.89 374.37,-162.06 371.34,-172.21 378.33,-171.89"/>
</g>
<!-- TypeDocGenerator&#45;&gt;dep&#45;graph -->
<g id="edge14" class="edge">
<title>TypeDocGenerator&#45;&gt;dep&#45;graph</title>
<path fill="none" stroke="black" d="M598.34,-397.16C609.28,-545.13 612.6,-844.1 491,-1055 484.88,-1065.62 476.84,-1075.35 467.9,-1084.14"/>
<polygon fill="black" stroke="black" points="465.48,-1081.6 460.55,-1090.98 470.25,-1086.73 465.48,-1081.6"/>
</g>
<!-- TypeDocGenerator&#45;&gt;DocumentationProcessor -->
<g id="edge15" class="edge">
<title>TypeDocGenerator&#45;&gt;DocumentationProcessor</title>
<path fill="none" stroke="black" d="M563.95,-214.96C561.46,-206.04 558.99,-197.17 556.65,-188.73"/>
<polygon fill="black" stroke="black" points="560.01,-187.75 553.95,-179.06 553.26,-189.63 560.01,-187.75"/>
</g>
<!-- TypeDocGenerator&#45;node_modules -->
<g id="node13" class="node">
<title>TypeDocGenerator&#45;node_modules</title>
<polygon fill="lightgrey" stroke="transparent" points="664,-151.5 664,-170.5 805,-170.5 805,-151.5 664,-151.5"/>
<text text-anchor="start" x="690.5" y="-158.3" font-family="Times New Roman,serif" font-weight="bold" font-size="14.00">node_modules</text>
<text text-anchor="start" x="670.5" y="-139.3" font-family="Times New Roman,serif" font-style="italic" font-size="14.00" fill="red">child_process</text>
<text text-anchor="start" x="749.5" y="-139.3" font-family="Times New Roman,serif" font-size="14.00"> (spawn)</text>
<text text-anchor="start" x="666" y="-125.3" font-family="Times New Roman,serif" font-style="italic" font-size="14.00" fill="red">deepmerge</text>
<text text-anchor="start" x="729" y="-125.3" font-family="Times New Roman,serif" font-size="14.00"> (deepmerge)</text>
<text text-anchor="start" x="717.5" y="-111.3" font-family="Times New Roman,serif" font-style="italic" font-size="14.00" fill="red">fs</text>
<text text-anchor="start" x="727.5" y="-111.3" font-family="Times New Roman,serif" font-size="14.00"> (fs)</text>
<text text-anchor="start" x="702.5" y="-97.3" font-family="Times New Roman,serif" font-style="italic" font-size="14.00" fill="red">path</text>
<text text-anchor="start" x="729.5" y="-97.3" font-family="Times New Roman,serif" font-size="14.00"> (path)</text>
<polygon fill="none" stroke="black" points="662.5,-91 662.5,-172 805.5,-172 805.5,-91 662.5,-91"/>
</g>
<!-- TypeDocGenerator&#45;&gt;TypeDocGenerator&#45;node_modules -->
<g id="edge6" class="edge">
<title>TypeDocGenerator&#45;&gt;TypeDocGenerator&#45;node_modules</title>
<path fill="none" stroke="black" d="M664.69,-214.96C673.57,-204.39 682.39,-193.89 690.62,-184.11"/>
<polygon fill="black" stroke="black" points="693.32,-186.34 697.07,-176.43 687.96,-181.83 693.32,-186.34"/>
</g>
</g>
</svg>
