<?xml version="1.0" encoding="UTF-8" standalone="no"?>
<!DOCTYPE svg PUBLIC "-//W3C//DTD SVG 1.1//EN"
 "http://www.w3.org/Graphics/SVG/1.1/DTD/svg11.dtd">
<!-- Generated by graphviz version 3.0.0 (20220226.1711)
 -->
<!-- Pages: 1 -->
<svg width="756pt" height="1447pt"
 viewBox="0.00 0.00 755.50 1447.00" xmlns="http://www.w3.org/2000/svg" xmlns:xlink="http://www.w3.org/1999/xlink">
<g id="graph0" class="graph" transform="scale(1 1) rotate(0) translate(4 1443)">
<polygon fill="white" stroke="transparent" points="-4,4 -4,-1443 751.5,-1443 751.5,4 -4,4"/>
<text text-anchor="middle" x="373.75" y="-1423.8" font-family="Times New Roman,serif" font-size="14.00"> Module Exports</text>
<!-- dep&#45;graph -->
<g id="node1" class="node">
<title>dep&#45;graph</title>
<g id="a_node1_0"><a xlink:href="tsdocs\modules\dep-graph.html" xlink:title="&lt;TABLE&gt;" target="_blank">
<polygon fill="lightblue" stroke="transparent" points="344.5,-1286.5 344.5,-1305.5 518.5,-1305.5 518.5,-1286.5 344.5,-1286.5"/>
<text text-anchor="start" x="400" y="-1293.3" font-family="Times New Roman,serif" font-weight="bold" text-decoration="underline" font-size="14.00">dep&#45;graph</text>
</a>
</g>
<polyline fill="none" stroke="black" points="344.5,-1250.5 518.5,-1250.5 "/>
<polyline fill="none" stroke="black" points="518.5,-1286.5 344.5,-1286.5 "/>
<text text-anchor="start" x="347.5" y="-1272.3" font-family="Times New Roman,serif" font-size="14.00">ProgramOptions</text>
<text text-anchor="start" x="361" y="-1257.3" font-family="Times New Roman,serif" font-size="14.00">runProgram</text>
<polyline fill="none" stroke="black" points="344.5,-1216.5 518.5,-1216.5 "/>
<polyline fill="none" stroke="black" points="518.5,-1250.5 344.5,-1250.5 "/>
<text text-anchor="start" x="347.5" y="-1237.3" font-family="Times New Roman,serif" font-style="italic" font-size="14.00" fill="red">DependencyGraphGenerator</text>
<text text-anchor="start" x="351" y="-1223.3" font-family="Times New Roman,serif" font-size="14.00">DependencyGraphGenerator</text>
<polygon fill="none" stroke="black" points="343.5,-1216 343.5,-1307 519.5,-1307 519.5,-1216 343.5,-1216"/>
</g>
<!-- dep&#45;graph&#45;node_modules -->
<g id="node2" class="node">
<title>dep&#45;graph&#45;node_modules</title>
<polygon fill="lightgrey" stroke="transparent" points="138.5,-876 138.5,-895 302.5,-895 302.5,-876 138.5,-876"/>
<text text-anchor="start" x="176.5" y="-882.8" font-family="Times New Roman,serif" font-weight="bold" font-size="14.00">node_modules</text>
<polyline fill="none" stroke="black" points="302.5,-876 138.5,-876 "/>
<text text-anchor="start" x="150.5" y="-862.8" font-family="Times New Roman,serif" font-style="italic" font-size="14.00" fill="red">commander</text>
<text text-anchor="start" x="218.5" y="-862.8" font-family="Times New Roman,serif" font-size="14.00"> (Command)</text>
<text text-anchor="start" x="160.5" y="-848.8" font-family="Times New Roman,serif" font-style="italic" font-size="14.00" fill="red">commander</text>
<text text-anchor="start" x="228.5" y="-848.8" font-family="Times New Roman,serif" font-size="14.00"> (Option)</text>
<text text-anchor="start" x="141.5" y="-834.8" font-family="Times New Roman,serif" font-style="italic" font-size="14.00" fill="red">commander</text>
<text text-anchor="start" x="209.5" y="-834.8" font-family="Times New Roman,serif" font-size="14.00"> (OptionValues)</text>
<text text-anchor="start" x="203.5" y="-820.8" font-family="Times New Roman,serif" font-style="italic" font-size="14.00" fill="red">fs</text>
<text text-anchor="start" x="213.5" y="-820.8" font-family="Times New Roman,serif" font-size="14.00"> (fs)</text>
<text text-anchor="start" x="188.5" y="-806.8" font-family="Times New Roman,serif" font-style="italic" font-size="14.00" fill="red">path</text>
<text text-anchor="start" x="215.5" y="-806.8" font-family="Times New Roman,serif" font-size="14.00"> (path)</text>
<polygon fill="none" stroke="black" points="137.5,-799.5 137.5,-896.5 303.5,-896.5 303.5,-799.5 137.5,-799.5"/>
</g>
<!-- dep&#45;graph&#45;&gt;dep&#45;graph&#45;node_modules -->
<g id="edge1" class="edge">
<title>dep&#45;graph&#45;&gt;dep&#45;graph&#45;node_modules</title>
<path fill="none" stroke="black" d="M354.21,-1211.87C341.62,-1201.27 329.71,-1189.22 320.5,-1176 263.82,-1094.63 238.53,-980.23 227.8,-910.55"/>
<polygon fill="black" stroke="black" points="231.25,-909.98 226.32,-900.6 224.33,-911.01 231.25,-909.98"/>
</g>
<!-- DependencyGraphGenerator -->
<g id="node3" class="node">
<title>DependencyGraphGenerator</title>
<g id="a_node3_1"><a xlink:href="tsdocs\modules\DependencyGraphGenerator.html" xlink:title="&lt;TABLE&gt;" target="_blank">
<polygon fill="lightblue" stroke="transparent" points="339.5,-1152 339.5,-1171 524.5,-1171 524.5,-1152 339.5,-1152"/>
<text text-anchor="start" x="343" y="-1158.8" font-family="Times New Roman,serif" font-weight="bold" text-decoration="underline" font-size="14.00">DependencyGraphGenerator</text>
</a>
</g>
<polyline fill="none" stroke="black" points="339.5,-1131 524.5,-1131 "/>
<polyline fill="none" stroke="black" points="524.5,-1152 339.5,-1152 "/>
<text text-anchor="start" x="342.5" y="-1137.8" font-family="Times New Roman,serif" font-size="14.00">DependencyGraphGenerator</text>
<polyline fill="none" stroke="black" points="339.5,-1097 524.5,-1097 "/>
<polyline fill="none" stroke="black" points="524.5,-1131 339.5,-1131 "/>
<text text-anchor="start" x="342.5" y="-1117.8" font-family="Times New Roman,serif" font-style="italic" font-size="14.00" fill="red">DocumentationProcessor</text>
<text text-anchor="start" x="351" y="-1103.8" font-family="Times New Roman,serif" font-size="14.00">getTypeDocOutputDir</text>
<polyline fill="none" stroke="black" points="339.5,-1063 524.5,-1063 "/>
<polyline fill="none" stroke="black" points="524.5,-1097 339.5,-1097 "/>
<text text-anchor="start" x="342.5" y="-1083.8" font-family="Times New Roman,serif" font-style="italic" font-size="14.00" fill="red">GraphvizProcessor</text>
<text text-anchor="start" x="342.5" y="-1069.8" font-family="Times New Roman,serif" font-size="14.00">GraphvizProcessor</text>
<polyline fill="none" stroke="black" points="339.5,-1029 524.5,-1029 "/>
<polyline fill="none" stroke="black" points="524.5,-1063 339.5,-1063 "/>
<text text-anchor="start" x="342.5" y="-1049.8" font-family="Times New Roman,serif" font-style="italic" font-size="14.00" fill="red">JsDocGenerator</text>
<text text-anchor="start" x="344" y="-1035.8" font-family="Times New Roman,serif" font-size="14.00">JsDocGenerator</text>
<polyline fill="none" stroke="black" points="339.5,-995 524.5,-995 "/>
<polyline fill="none" stroke="black" points="524.5,-1029 339.5,-1029 "/>
<text text-anchor="start" x="342.5" y="-1015.8" font-family="Times New Roman,serif" font-style="italic" font-size="14.00" fill="red">TypeDocGenerator</text>
<text text-anchor="start" x="343" y="-1001.8" font-family="Times New Roman,serif" font-size="14.00">TypeDocGenerator</text>
<polyline fill="none" stroke="black" points="339.5,-961 524.5,-961 "/>
<polyline fill="none" stroke="black" points="524.5,-995 339.5,-995 "/>
<text text-anchor="start" x="359" y="-981.8" font-family="Times New Roman,serif" font-style="italic" font-size="14.00" fill="red">dep&#45;graph</text>
<text text-anchor="start" x="342.5" y="-967.8" font-family="Times New Roman,serif" font-size="14.00">ProgramOptions</text>
<polyline fill="none" stroke="black" points="339.5,-887 524.5,-887 "/>
<polyline fill="none" stroke="black" points="524.5,-961 339.5,-961 "/>
<text text-anchor="start" x="350.5" y="-948.8" font-family="Times New Roman,serif" font-style="italic" font-size="14.00" fill="red">ast/ASTProcessor</text>
<text text-anchor="start" x="358" y="-934.8" font-family="Times New Roman,serif" font-size="14.00">ASTProcessor</text>
<text text-anchor="start" x="341.5" y="-920.8" font-family="Times New Roman,serif" font-style="italic" font-size="14.00" fill="red">ast/SharedInterfaces</text>
<text text-anchor="start" x="367" y="-906.8" font-family="Times New Roman,serif" font-size="14.00">ModuleInfo</text>
<text text-anchor="start" x="344.5" y="-892.8" font-family="Times New Roman,serif" font-size="14.00">ProcessedASTData</text>
<polyline fill="none" stroke="black" points="339.5,-827 524.5,-827 "/>
<polyline fill="none" stroke="black" points="524.5,-887 339.5,-887 "/>
<text text-anchor="start" x="341.5" y="-874.8" font-family="Times New Roman,serif" font-style="italic" font-size="14.00" fill="red">generators/DiagramsGenerator</text>
<text text-anchor="start" x="377.5" y="-860.8" font-family="Times New Roman,serif" font-size="14.00">DiagramsGenerator</text>
<text text-anchor="start" x="356" y="-846.8" font-family="Times New Roman,serif" font-style="italic" font-size="14.00" fill="red">generators/HtmlGenerator</text>
<text text-anchor="start" x="390.5" y="-832.8" font-family="Times New Roman,serif" font-size="14.00">HtmlGenerator</text>
<polyline fill="none" stroke="black" points="339.5,-655 524.5,-655 "/>
<polyline fill="none" stroke="black" points="524.5,-827 339.5,-827 "/>
<text text-anchor="start" x="358" y="-814.8" font-family="Times New Roman,serif" font-style="italic" font-size="14.00" fill="red">graphs/ClassDiagram</text>
<text text-anchor="start" x="383.5" y="-800.8" font-family="Times New Roman,serif" font-size="14.00">ClassDiagram</text>
<text text-anchor="start" x="362" y="-786.8" font-family="Times New Roman,serif" font-style="italic" font-size="14.00" fill="red">graphs/ExportGraph</text>
<text text-anchor="start" x="385.5" y="-772.8" font-family="Times New Roman,serif" font-size="14.00">ExportGraph</text>
<text text-anchor="start" x="351.5" y="-758.8" font-family="Times New Roman,serif" font-style="italic" font-size="14.00" fill="red">graphs/GraphGenerator</text>
<text text-anchor="start" x="364.5" y="-744.8" font-family="Times New Roman,serif" font-size="14.00">IGraphFileGenerator</text>
<text text-anchor="start" x="341.5" y="-730.8" font-family="Times New Roman,serif" font-style="italic" font-size="14.00" fill="red">graphs/NodeModulesGraph</text>
<text text-anchor="start" x="365" y="-716.8" font-family="Times New Roman,serif" font-size="14.00">NodeModulesGraph</text>
<text text-anchor="start" x="356" y="-702.8" font-family="Times New Roman,serif" font-style="italic" font-size="14.00" fill="red">graphs/PackageGraph</text>
<text text-anchor="start" x="381.5" y="-688.8" font-family="Times New Roman,serif" font-size="14.00">PackageGraph</text>
<text text-anchor="start" x="354.5" y="-674.8" font-family="Times New Roman,serif" font-style="italic" font-size="14.00" fill="red">graphs/RelationsGraph</text>
<text text-anchor="start" x="378.5" y="-660.8" font-family="Times New Roman,serif" font-size="14.00">RelationsGraph</text>
<polyline fill="none" stroke="black" points="339.5,-525 524.5,-525 "/>
<polyline fill="none" stroke="black" points="524.5,-655 339.5,-655 "/>
<text text-anchor="start" x="371" y="-642.8" font-family="Times New Roman,serif" font-style="italic" font-size="14.00" fill="red">utils/file&#45;utils</text>
<text text-anchor="start" x="371" y="-628.8" font-family="Times New Roman,serif" font-size="14.00">safeWriteFile</text>
<text text-anchor="start" x="350.5" y="-614.8" font-family="Times New Roman,serif" font-size="14.00">getRelativePathParts</text>
<text text-anchor="start" x="341.5" y="-600.8" font-family="Times New Roman,serif" font-size="14.00">getDirectoriesRecursive</text>
<text text-anchor="start" x="386.5" y="-586.8" font-family="Times New Roman,serif" font-size="14.00">getFiles</text>
<text text-anchor="start" x="374.5" y="-572.8" font-family="Times New Roman,serif" font-size="14.00">getFilename</text>
<text text-anchor="start" x="357" y="-558.8" font-family="Times New Roman,serif" font-size="14.00">getGraphFilename</text>
<text text-anchor="start" x="382" y="-544.8" font-family="Times New Roman,serif" font-style="italic" font-size="14.00" fill="red">utils/json</text>
<text text-anchor="start" x="385.5" y="-530.8" font-family="Times New Roman,serif" font-size="14.00">jsonOut</text>
<polygon fill="none" stroke="black" points="338,-524 338,-1172 525,-1172 525,-524 338,-524"/>
</g>
<!-- dep&#45;graph&#45;&gt;DependencyGraphGenerator -->
<g id="edge7" class="edge">
<title>dep&#45;graph&#45;&gt;DependencyGraphGenerator</title>
<path fill="none" stroke="black" d="M426.95,-1211.68C426.66,-1203.94 426.4,-1195.47 426.17,-1186.42"/>
<polygon fill="black" stroke="black" points="429.67,-1186.28 425.93,-1176.37 422.67,-1186.45 429.67,-1186.28"/>
</g>
<!-- DependencyGraphGenerator&#45;&gt;dep&#45;graph -->
<g id="edge8" class="edge">
<title>DependencyGraphGenerator&#45;&gt;dep&#45;graph</title>
<path fill="none" stroke="black" d="M437.07,-1176.37C436.87,-1185.33 436.65,-1193.8 436.4,-1201.68"/>
<polygon fill="black" stroke="black" points="432.9,-1201.57 436.05,-1211.68 439.89,-1201.81 432.9,-1201.57"/>
</g>
<!-- DependencyGraphGenerator&#45;node_modules -->
<g id="node4" class="node">
<title>DependencyGraphGenerator&#45;node_modules</title>
<polygon fill="lightgrey" stroke="transparent" points="438.5,-386 438.5,-405 530.5,-405 530.5,-386 438.5,-386"/>
<text text-anchor="start" x="440.5" y="-392.8" font-family="Times New Roman,serif" font-weight="bold" font-size="14.00">node_modules</text>
<polyline fill="none" stroke="black" points="530.5,-386 438.5,-386 "/>
<text text-anchor="start" x="456.5" y="-372.8" font-family="Times New Roman,serif" font-style="italic" font-size="14.00" fill="red">fs</text>
<text text-anchor="start" x="466.5" y="-372.8" font-family="Times New Roman,serif" font-size="14.00"> (fs)</text>
<text text-anchor="start" x="441.5" y="-358.8" font-family="Times New Roman,serif" font-style="italic" font-size="14.00" fill="red">path</text>
<text text-anchor="start" x="468.5" y="-358.8" font-family="Times New Roman,serif" font-size="14.00"> (path)</text>
<polygon fill="none" stroke="black" points="437.5,-351.5 437.5,-406.5 531.5,-406.5 531.5,-351.5 437.5,-351.5"/>
</g>
<!-- DependencyGraphGenerator&#45;&gt;DependencyGraphGenerator&#45;node_modules -->
<g id="edge2" class="edge">
<title>DependencyGraphGenerator&#45;&gt;DependencyGraphGenerator&#45;node_modules</title>
<path fill="none" stroke="black" d="M468.63,-519.8C473.07,-480.71 477.03,-445.82 479.88,-420.67"/>
<polygon fill="black" stroke="black" points="483.39,-420.84 481.04,-410.51 476.43,-420.05 483.39,-420.84"/>
</g>
<!-- DocumentationProcessor -->
<g id="node5" class="node">
<title>DocumentationProcessor</title>
<g id="a_node5_2"><a xlink:href="tsdocs\modules\DocumentationProcessor.html" xlink:title="&lt;TABLE&gt;" target="_blank">
<polygon fill="lightblue" stroke="transparent" points="353.5,-213.5 353.5,-232.5 525.5,-232.5 525.5,-213.5 353.5,-213.5"/>
<text text-anchor="start" x="362" y="-220.3" font-family="Times New Roman,serif" font-weight="bold" text-decoration="underline" font-size="14.00">DocumentationProcessor</text>
</a>
</g>
<polyline fill="none" stroke="black" points="353.5,-117.5 525.5,-117.5 "/>
<polyline fill="none" stroke="black" points="525.5,-213.5 353.5,-213.5 "/>
<text text-anchor="start" x="374" y="-199.3" font-family="Times New Roman,serif" font-size="14.00">getTypedocConfigPath</text>
<text text-anchor="start" x="376" y="-184.3" font-family="Times New Roman,serif" font-size="14.00">getTypeDocOutputDir</text>
<text text-anchor="start" x="401.5" y="-169.3" font-family="Times New Roman,serif" font-size="14.00">JSDocConfig</text>
<text text-anchor="start" x="387.5" y="-154.3" font-family="Times New Roman,serif" font-size="14.00">JSDocOptsConfig</text>
<text text-anchor="start" x="381.5" y="-139.3" font-family="Times New Roman,serif" font-size="14.00">JSDocSourceConfig</text>
<text text-anchor="start" x="356.5" y="-124.3" font-family="Times New Roman,serif" font-size="14.00">spawnDocumentationProcess</text>
<polygon fill="none" stroke="black" points="352.5,-117 352.5,-234 526.5,-234 526.5,-117 352.5,-117"/>
</g>
<!-- DependencyGraphGenerator&#45;&gt;DocumentationProcessor -->
<g id="edge9" class="edge">
<title>DependencyGraphGenerator&#45;&gt;DocumentationProcessor</title>
<path fill="none" stroke="black" d="M412.22,-520C411.05,-439.43 412.83,-353.48 420.5,-274 421.31,-265.61 422.5,-256.87 423.9,-248.22"/>
<polygon fill="black" stroke="black" points="427.39,-248.58 425.63,-238.13 420.49,-247.4 427.39,-248.58"/>
</g>
<!-- GraphvizProcessor -->
<g id="node7" class="node">
<title>GraphvizProcessor</title>
<g id="a_node7_3"><a xlink:href="tsdocs\modules%3raphvizProcessor.html" xlink:title="&lt;TABLE&gt;" target="_blank">
<polygon fill="lightblue" stroke="transparent" points="34.5,-380 34.5,-399 156.5,-399 156.5,-380 34.5,-380"/>
<text text-anchor="start" x="36.5" y="-386.8" font-family="Times New Roman,serif" font-weight="bold" text-decoration="underline" font-size="14.00">GraphvizProcessor</text>
</a>
</g>
<polyline fill="none" stroke="black" points="34.5,-359 156.5,-359 "/>
<polyline fill="none" stroke="black" points="156.5,-380 34.5,-380 "/>
<text text-anchor="start" x="37.5" y="-365.8" font-family="Times New Roman,serif" font-size="14.00">GraphvizProcessor</text>
<polygon fill="none" stroke="black" points="33.5,-358 33.5,-400 157.5,-400 157.5,-358 33.5,-358"/>
</g>
<!-- DependencyGraphGenerator&#45;&gt;GraphvizProcessor -->
<g id="edge10" class="edge">
<title>DependencyGraphGenerator&#45;&gt;GraphvizProcessor</title>
<path fill="none" stroke="black" d="M329.83,-529.1C326.81,-525.97 323.7,-522.94 320.5,-520 271.27,-474.8 230.35,-520.71 174.5,-484 147.57,-466.3 126.19,-436.2 112.5,-412.92"/>
<polygon fill="black" stroke="black" points="115.45,-411.02 107.46,-404.05 109.36,-414.48 115.45,-411.02"/>
</g>
<!-- JsDocGenerator -->
<g id="node10" class="node">
<title>JsDocGenerator</title>
<g id="a_node10_4"><a xlink:href="tsdocs\modules\JsDocGenerator.html" xlink:title="&lt;TABLE&gt;" target="_blank">
<polygon fill="lightblue" stroke="transparent" points="192.5,-420 192.5,-439 364.5,-439 364.5,-420 192.5,-420"/>
<text text-anchor="start" x="227" y="-426.8" font-family="Times New Roman,serif" font-weight="bold" text-decoration="underline" font-size="14.00">JsDocGenerator</text>
</a>
</g>
<polyline fill="none" stroke="black" points="192.5,-399 364.5,-399 "/>
<polyline fill="none" stroke="black" points="364.5,-420 192.5,-420 "/>
<text text-anchor="start" x="195.5" y="-405.8" font-family="Times New Roman,serif" font-size="14.00">JsDocGenerator</text>
<polyline fill="none" stroke="black" points="192.5,-351 364.5,-351 "/>
<polyline fill="none" stroke="black" points="364.5,-399 192.5,-399 "/>
<text text-anchor="start" x="206.5" y="-385.8" font-family="Times New Roman,serif" font-style="italic" font-size="14.00" fill="red">DocumentationProcessor</text>
<text text-anchor="start" x="240.5" y="-371.8" font-family="Times New Roman,serif" font-size="14.00">JSDocConfig</text>
<text text-anchor="start" x="195.5" y="-357.8" font-family="Times New Roman,serif" font-size="14.00">spawnDocumentationProcess</text>
<polyline fill="none" stroke="black" points="192.5,-319 364.5,-319 "/>
<polyline fill="none" stroke="black" points="364.5,-351 192.5,-351 "/>
<text text-anchor="start" x="194.5" y="-338.8" font-family="Times New Roman,serif" font-style="italic" font-size="14.00" fill="red">ast/SharedInterfaces</text>
<text text-anchor="start" x="220" y="-324.8" font-family="Times New Roman,serif" font-size="14.00">ModuleInfo</text>
<polygon fill="none" stroke="black" points="191.5,-318 191.5,-440 365.5,-440 365.5,-318 191.5,-318"/>
</g>
<!-- DependencyGraphGenerator&#45;&gt;JsDocGenerator -->
<g id="edge11" class="edge">
<title>DependencyGraphGenerator&#45;&gt;JsDocGenerator</title>
<path fill="none" stroke="black" d="M329.98,-537.13C319.97,-506.57 310.6,-477.98 302.67,-453.78"/>
<polygon fill="black" stroke="black" points="305.92,-452.45 299.48,-444.04 299.27,-454.63 305.92,-452.45"/>
</g>
<!-- TypeDocGenerator -->
<g id="node12" class="node">
<title>TypeDocGenerator</title>
<g id="a_node12_5"><a xlink:href="tsdocs\modules\TypeDocGenerator.html" xlink:title="&lt;TABLE&gt;" target="_blank">
<polygon fill="lightblue" stroke="transparent" points="566.5,-460 566.5,-479 738.5,-479 738.5,-460 566.5,-460"/>
<text text-anchor="start" x="592.5" y="-466.8" font-family="Times New Roman,serif" font-weight="bold" text-decoration="underline" font-size="14.00">TypeDocGenerator</text>
</a>
</g>
<polyline fill="none" stroke="black" points="566.5,-439 738.5,-439 "/>
<polyline fill="none" stroke="black" points="738.5,-460 566.5,-460 "/>
<text text-anchor="start" x="569.5" y="-445.8" font-family="Times New Roman,serif" font-size="14.00">TypeDocGenerator</text>
<polyline fill="none" stroke="black" points="566.5,-377 738.5,-377 "/>
<polyline fill="none" stroke="black" points="738.5,-439 566.5,-439 "/>
<text text-anchor="start" x="580.5" y="-425.8" font-family="Times New Roman,serif" font-style="italic" font-size="14.00" fill="red">DocumentationProcessor</text>
<text text-anchor="start" x="587" y="-411.8" font-family="Times New Roman,serif" font-size="14.00">getTypedocConfigPath</text>
<text text-anchor="start" x="589" y="-397.8" font-family="Times New Roman,serif" font-size="14.00">getTypeDocOutputDir</text>
<text text-anchor="start" x="569.5" y="-383.8" font-family="Times New Roman,serif" font-size="14.00">spawnDocumentationProcess</text>
<polyline fill="none" stroke="black" points="566.5,-343 738.5,-343 "/>
<polyline fill="none" stroke="black" points="738.5,-377 566.5,-377 "/>
<text text-anchor="start" x="586" y="-363.8" font-family="Times New Roman,serif" font-style="italic" font-size="14.00" fill="red">dep&#45;graph</text>
<text text-anchor="start" x="569.5" y="-349.8" font-family="Times New Roman,serif" font-size="14.00">ProgramOptions</text>
<polyline fill="none" stroke="black" points="566.5,-311 738.5,-311 "/>
<polyline fill="none" stroke="black" points="738.5,-343 566.5,-343 "/>
<text text-anchor="start" x="568.5" y="-330.8" font-family="Times New Roman,serif" font-style="italic" font-size="14.00" fill="red">ast/SharedInterfaces</text>
<text text-anchor="start" x="594" y="-316.8" font-family="Times New Roman,serif" font-size="14.00">ModuleInfo</text>
<polyline fill="none" stroke="black" points="566.5,-279 738.5,-279 "/>
<polyline fill="none" stroke="black" points="738.5,-311 566.5,-311 "/>
<text text-anchor="start" x="568.5" y="-298.8" font-family="Times New Roman,serif" font-style="italic" font-size="14.00" fill="red">utils/file&#45;utils</text>
<text text-anchor="start" x="572" y="-284.8" font-family="Times New Roman,serif" font-size="14.00">getFilename</text>
<polygon fill="none" stroke="black" points="565.5,-278 565.5,-480 739.5,-480 739.5,-278 565.5,-278"/>
</g>
<!-- DependencyGraphGenerator&#45;&gt;TypeDocGenerator -->
<g id="edge12" class="edge">
<title>DependencyGraphGenerator&#45;&gt;TypeDocGenerator</title>
<path fill="none" stroke="black" d="M533.11,-632.29C555.82,-584.31 579.03,-535.25 598.88,-493.31"/>
<polygon fill="black" stroke="black" points="602.08,-494.73 603.19,-484.19 595.75,-491.74 602.08,-494.73"/>
</g>
<!-- DocumentationProcessor&#45;node_modules -->
<g id="node6" class="node">
<title>DocumentationProcessor&#45;node_modules</title>
<polygon fill="lightgrey" stroke="transparent" points="372.5,-52.5 372.5,-71.5 506.5,-71.5 506.5,-52.5 372.5,-52.5"/>
<text text-anchor="start" x="395.5" y="-59.3" font-family="Times New Roman,serif" font-weight="bold" font-size="14.00">node_modules</text>
<polyline fill="none" stroke="black" points="506.5,-52.5 372.5,-52.5 "/>
<text text-anchor="start" x="375.5" y="-39.3" font-family="Times New Roman,serif" font-style="italic" font-size="14.00" fill="red">child_process</text>
<text text-anchor="start" x="454.5" y="-39.3" font-family="Times New Roman,serif" font-size="14.00"> (spawn)</text>
<text text-anchor="start" x="422.5" y="-25.3" font-family="Times New Roman,serif" font-style="italic" font-size="14.00" fill="red">fs</text>
<text text-anchor="start" x="432.5" y="-25.3" font-family="Times New Roman,serif" font-size="14.00"> (fs)</text>
<text text-anchor="start" x="407.5" y="-11.3" font-family="Times New Roman,serif" font-style="italic" font-size="14.00" fill="red">path</text>
<text text-anchor="start" x="434.5" y="-11.3" font-family="Times New Roman,serif" font-size="14.00"> (path)</text>
<polygon fill="none" stroke="black" points="371.5,-4 371.5,-73 507.5,-73 507.5,-4 371.5,-4"/>
</g>
<!-- DocumentationProcessor&#45;&gt;DocumentationProcessor&#45;node_modules -->
<g id="edge3" class="edge">
<title>DocumentationProcessor&#45;&gt;DocumentationProcessor&#45;node_modules</title>
<path fill="none" stroke="black" d="M439.5,-112.93C439.5,-104.32 439.5,-95.59 439.5,-87.29"/>
<polygon fill="black" stroke="black" points="443,-87.05 439.5,-77.05 436,-87.05 443,-87.05"/>
</g>
<!-- GraphvizProcessor&#45;node_modules -->
<g id="node8" class="node">
<title>GraphvizProcessor&#45;node_modules</title>
<polygon fill="lightgrey" stroke="transparent" points="9.5,-189.5 9.5,-208.5 182.5,-208.5 182.5,-189.5 9.5,-189.5"/>
<text text-anchor="start" x="52" y="-196.3" font-family="Times New Roman,serif" font-weight="bold" font-size="14.00">node_modules</text>
<polyline fill="none" stroke="black" points="182.5,-189.5 9.5,-189.5 "/>
<text text-anchor="start" x="32" y="-176.3" font-family="Times New Roman,serif" font-style="italic" font-size="14.00" fill="red">child_process</text>
<text text-anchor="start" x="111" y="-176.3" font-family="Times New Roman,serif" font-size="14.00"> (spawn)</text>
<text text-anchor="start" x="12.5" y="-162.3" font-family="Times New Roman,serif" font-style="italic" font-size="14.00" fill="red">child_process</text>
<text text-anchor="start" x="91.5" y="-162.3" font-family="Times New Roman,serif" font-size="14.00"> (ChildProcess)</text>
<text text-anchor="start" x="79" y="-148.3" font-family="Times New Roman,serif" font-style="italic" font-size="14.00" fill="red">fs</text>
<text text-anchor="start" x="89" y="-148.3" font-family="Times New Roman,serif" font-size="14.00"> (fs)</text>
<polygon fill="none" stroke="black" points="8,-141 8,-210 183,-210 183,-141 8,-141"/>
</g>
<!-- GraphvizProcessor&#45;&gt;GraphvizProcessor&#45;node_modules -->
<g id="edge4" class="edge">
<title>GraphvizProcessor&#45;&gt;GraphvizProcessor&#45;node_modules</title>
<path fill="none" stroke="black" d="M95.5,-353.69C95.5,-321.82 95.5,-265.19 95.5,-224.52"/>
<polygon fill="black" stroke="black" points="99,-224.29 95.5,-214.29 92,-224.29 99,-224.29"/>
</g>
<!-- index -->
<g id="node9" class="node">
<title>index</title>
<g id="a_node9_6"><a xlink:href="tsdocs\modules\index.html" xlink:title="&lt;TABLE&gt;" target="_blank">
<polygon fill="lightblue" stroke="transparent" points="395.5,-1391.5 395.5,-1410.5 468.5,-1410.5 468.5,-1391.5 395.5,-1391.5"/>
<text text-anchor="start" x="415.5" y="-1398.3" font-family="Times New Roman,serif" font-weight="bold" text-decoration="underline" font-size="14.00">index</text>
</a>
</g>
<polyline fill="none" stroke="black" points="395.5,-1385.5 468.5,-1385.5 "/>
<polyline fill="none" stroke="black" points="468.5,-1391.5 395.5,-1391.5 "/>
<polyline fill="none" stroke="black" points="395.5,-1351.5 468.5,-1351.5 "/>
<polyline fill="none" stroke="black" points="468.5,-1385.5 395.5,-1385.5 "/>
<text text-anchor="start" x="401.5" y="-1372.3" font-family="Times New Roman,serif" font-style="italic" font-size="14.00" fill="red">dep&#45;graph</text>
<text text-anchor="start" x="398.5" y="-1358.3" font-family="Times New Roman,serif" font-size="14.00">runProgram</text>
<polygon fill="none" stroke="black" points="394,-1351 394,-1412 469,-1412 469,-1351 394,-1351"/>
</g>
<!-- index&#45;&gt;dep&#45;graph -->
<g id="edge13" class="edge">
<title>index&#45;&gt;dep&#45;graph</title>
<path fill="none" stroke="black" d="M431.5,-1346.69C431.5,-1338.76 431.5,-1330.08 431.5,-1321.4"/>
<polygon fill="black" stroke="black" points="435,-1321.27 431.5,-1311.27 428,-1321.27 435,-1321.27"/>
</g>
<!-- JsDocGenerator&#45;&gt;DocumentationProcessor -->
<g id="edge14" class="edge">
<title>JsDocGenerator&#45;&gt;DocumentationProcessor</title>
<path fill="none" stroke="black" d="M329.66,-313.97C346.88,-292.41 366.18,-268.26 383.74,-246.29"/>
<polygon fill="black" stroke="black" points="386.61,-248.3 390.12,-238.3 381.14,-243.93 386.61,-248.3"/>
</g>
<!-- JsDocGenerator&#45;node_modules -->
<g id="node11" class="node">
<title>JsDocGenerator&#45;node_modules</title>
<polygon fill="lightgrey" stroke="transparent" points="225.5,-182.5 225.5,-201.5 317.5,-201.5 317.5,-182.5 225.5,-182.5"/>
<text text-anchor="start" x="227.5" y="-189.3" font-family="Times New Roman,serif" font-weight="bold" font-size="14.00">node_modules</text>
<polyline fill="none" stroke="black" points="317.5,-182.5 225.5,-182.5 "/>
<text text-anchor="start" x="243.5" y="-169.3" font-family="Times New Roman,serif" font-style="italic" font-size="14.00" fill="red">fs</text>
<text text-anchor="start" x="253.5" y="-169.3" font-family="Times New Roman,serif" font-size="14.00"> (fs)</text>
<text text-anchor="start" x="228.5" y="-155.3" font-family="Times New Roman,serif" font-style="italic" font-size="14.00" fill="red">path</text>
<text text-anchor="start" x="255.5" y="-155.3" font-family="Times New Roman,serif" font-size="14.00"> (path)</text>
<polygon fill="none" stroke="black" points="224.5,-148 224.5,-203 318.5,-203 318.5,-148 224.5,-148"/>
</g>
<!-- JsDocGenerator&#45;&gt;JsDocGenerator&#45;node_modules -->
<g id="edge5" class="edge">
<title>JsDocGenerator&#45;&gt;JsDocGenerator&#45;node_modules</title>
<path fill="none" stroke="black" d="M276.28,-313.97C275.18,-282.29 273.88,-245 272.92,-217.26"/>
<polygon fill="black" stroke="black" points="276.41,-217 272.56,-207.13 269.41,-217.24 276.41,-217"/>
</g>
<!-- TypeDocGenerator&#45;&gt;dep&#45;graph -->
<g id="edge15" class="edge">
<title>TypeDocGenerator&#45;&gt;dep&#45;graph</title>
<path fill="none" stroke="black" d="M662.22,-484.15C672.15,-644.38 671.11,-955.86 542.5,-1176 536.33,-1186.56 528.28,-1196.24 519.32,-1204.98"/>
<polygon fill="black" stroke="black" points="516.93,-1202.43 511.96,-1211.79 521.68,-1207.57 516.93,-1202.43"/>
</g>
<!-- TypeDocGenerator&#45;&gt;DocumentationProcessor -->
<g id="edge16" class="edge">
<title>TypeDocGenerator&#45;&gt;DocumentationProcessor</title>
<path fill="none" stroke="black" d="M557.49,-282.57C554.47,-279.67 551.47,-276.81 548.5,-274 538.48,-264.52 527.81,-254.68 517.21,-245.05"/>
<polygon fill="black" stroke="black" points="519.27,-242.2 509.51,-238.08 514.58,-247.39 519.27,-242.2"/>
</g>
<!-- TypeDocGenerator&#45;node_modules -->
<g id="node13" class="node">
<title>TypeDocGenerator&#45;node_modules</title>
<polygon fill="lightgrey" stroke="transparent" points="581.5,-196.5 581.5,-215.5 724.5,-215.5 724.5,-196.5 581.5,-196.5"/>
<text text-anchor="start" x="609" y="-203.3" font-family="Times New Roman,serif" font-weight="bold" font-size="14.00">node_modules</text>
<polyline fill="none" stroke="black" points="724.5,-196.5 581.5,-196.5 "/>
<text text-anchor="start" x="589" y="-183.3" font-family="Times New Roman,serif" font-style="italic" font-size="14.00" fill="red">child_process</text>
<text text-anchor="start" x="668" y="-183.3" font-family="Times New Roman,serif" font-size="14.00"> (spawn)</text>
<text text-anchor="start" x="584.5" y="-169.3" font-family="Times New Roman,serif" font-style="italic" font-size="14.00" fill="red">deepmerge</text>
<text text-anchor="start" x="647.5" y="-169.3" font-family="Times New Roman,serif" font-size="14.00"> (deepmerge)</text>
<text text-anchor="start" x="636" y="-155.3" font-family="Times New Roman,serif" font-style="italic" font-size="14.00" fill="red">fs</text>
<text text-anchor="start" x="646" y="-155.3" font-family="Times New Roman,serif" font-size="14.00"> (fs)</text>
<text text-anchor="start" x="621" y="-141.3" font-family="Times New Roman,serif" font-style="italic" font-size="14.00" fill="red">path</text>
<text text-anchor="start" x="648" y="-141.3" font-family="Times New Roman,serif" font-size="14.00"> (path)</text>
<polygon fill="none" stroke="black" points="580,-134 580,-217 725,-217 725,-134 580,-134"/>
</g>
<!-- TypeDocGenerator&#45;&gt;TypeDocGenerator&#45;node_modules -->
<g id="edge6" class="edge">
<title>TypeDocGenerator&#45;&gt;TypeDocGenerator&#45;node_modules</title>
<path fill="none" stroke="black" d="M652.5,-273.71C652.5,-259.16 652.5,-244.71 652.5,-231.57"/>
<polygon fill="black" stroke="black" points="656,-231.34 652.5,-221.34 649,-231.34 656,-231.34"/>
</g>
</g>
</svg>
