<?xml version="1.0" encoding="UTF-8" standalone="no"?>
<!DOCTYPE svg PUBLIC "-//W3C//DTD SVG 1.1//EN"
 "http://www.w3.org/Graphics/SVG/1.1/DTD/svg11.dtd">
<!-- Generated by graphviz version 3.0.0 (20220226.1711)
 -->
<!-- Pages: 1 -->
<svg width="798pt" height="1544pt"
 viewBox="0.00 0.00 797.50 1544.00" xmlns="http://www.w3.org/2000/svg" xmlns:xlink="http://www.w3.org/1999/xlink">
<g id="graph0" class="graph" transform="scale(1 1) rotate(0) translate(4 1540)">
<polygon fill="white" stroke="transparent" points="-4,4 -4,-1540 793.5,-1540 793.5,4 -4,4"/>
<text text-anchor="middle" x="394.75" y="-1520.8" font-family="Times New Roman,serif" font-size="14.00"> Module Exports</text>
<!-- dep&#45;graph -->
<g id="node1" class="node">
<title>dep&#45;graph</title>
<g id="a_node1_0"><a xlink:href="tsdocs\modules\dep-graph.html" xlink:title="&lt;TABLE&gt;" target="_blank">
<polygon fill="lightblue" stroke="transparent" points="372,-1363 372,-1382 546,-1382 546,-1363 372,-1363"/>
<text text-anchor="start" x="427.5" y="-1369.8" font-family="Times New Roman,serif" font-weight="bold" text-decoration="underline" font-size="14.00">dep&#45;graph</text>
</a>
</g>
<polyline fill="none" stroke="black" points="372,-1329 546,-1329 "/>
<polyline fill="none" stroke="black" points="546,-1363 372,-1363 "/>
<text text-anchor="start" x="375" y="-1349.8" font-family="Times New Roman,serif" font-size="14.00" fill="purple">🧩 [iface]</text>
<text text-anchor="start" x="432" y="-1349.8" font-family="Times New Roman,serif" font-size="14.00"> &#160;ProgramOptions</text>
<text text-anchor="start" x="375" y="-1335.8" font-family="Times New Roman,serif" font-size="14.00" fill="green">ƒ [fn]</text>
<text text-anchor="start" x="406" y="-1335.8" font-family="Times New Roman,serif" font-size="14.00"> &#160;runProgram</text>
<polyline fill="none" stroke="black" points="546,-1329 372,-1329 "/>
<text text-anchor="start" x="375" y="-1315.8" font-family="Times New Roman,serif" font-style="italic" font-size="14.00" fill="red">IMPORTS</text>
<polyline fill="none" stroke="black" points="372,-1274 546,-1274 "/>
<polyline fill="none" stroke="black" points="546,-1308 372,-1308 "/>
<text text-anchor="start" x="375" y="-1294.8" font-family="Times New Roman,serif" font-style="italic" font-size="14.00" fill="red">DependencyGraphGenerator</text>
<text text-anchor="start" x="375" y="-1280.8" font-family="Times New Roman,serif" font-size="14.00">DependencyGraphGenerator</text>
<polygon fill="none" stroke="black" points="371,-1273 371,-1383 547,-1383 547,-1273 371,-1273"/>
</g>
<!-- dep&#45;graph&#45;node_modules -->
<g id="node2" class="node">
<title>dep&#45;graph&#45;node_modules</title>
<polygon fill="lightgrey" stroke="transparent" points="138,-922.5 138,-941.5 306,-941.5 306,-922.5 138,-922.5"/>
<text text-anchor="start" x="178" y="-929.3" font-family="Times New Roman,serif" font-weight="bold" font-size="14.00">node_modules</text>
<polyline fill="none" stroke="black" points="306,-922.5 138,-922.5 "/>
<text text-anchor="start" x="141" y="-909.3" font-family="Times New Roman,serif" font-style="italic" font-size="14.00" fill="red">commander</text>
<text text-anchor="start" x="209" y="-909.3" font-family="Times New Roman,serif" font-size="14.00"> &#160;(Command)</text>
<text text-anchor="start" x="141" y="-895.3" font-family="Times New Roman,serif" font-style="italic" font-size="14.00" fill="red">commander</text>
<text text-anchor="start" x="209" y="-895.3" font-family="Times New Roman,serif" font-size="14.00"> &#160;(Option)</text>
<text text-anchor="start" x="141" y="-881.3" font-family="Times New Roman,serif" font-style="italic" font-size="14.00" fill="red">commander</text>
<text text-anchor="start" x="209" y="-881.3" font-family="Times New Roman,serif" font-size="14.00"> &#160;(OptionValues)</text>
<text text-anchor="start" x="141" y="-867.3" font-family="Times New Roman,serif" font-style="italic" font-size="14.00" fill="red">fs</text>
<text text-anchor="start" x="151" y="-867.3" font-family="Times New Roman,serif" font-size="14.00"> &#160;(fs)</text>
<text text-anchor="start" x="141" y="-853.3" font-family="Times New Roman,serif" font-style="italic" font-size="14.00" fill="red">path</text>
<text text-anchor="start" x="168" y="-853.3" font-family="Times New Roman,serif" font-size="14.00"> &#160;(path)</text>
<polygon fill="none" stroke="black" points="137,-846 137,-943 307,-943 307,-846 137,-846"/>
</g>
<!-- dep&#45;graph&#45;&gt;dep&#45;graph&#45;node_modules -->
<g id="edge1" class="edge">
<title>dep&#45;graph&#45;&gt;dep&#45;graph&#45;node_modules</title>
<path fill="none" stroke="black" d="M362.87,-1272.37C348.33,-1260.85 334.66,-1247.67 324,-1233 263.33,-1149.44 238.32,-1029.44 228.33,-957.32"/>
<polygon fill="black" stroke="black" points="231.75,-956.49 226.96,-947.04 224.81,-957.41 231.75,-956.49"/>
</g>
<!-- DependencyGraphGenerator -->
<g id="node3" class="node">
<title>DependencyGraphGenerator</title>
<g id="a_node3_1"><a xlink:href="tsdocs\modules\DependencyGraphGenerator.html" xlink:title="&lt;TABLE&gt;" target="_blank">
<polygon fill="lightblue" stroke="transparent" points="343,-1208.5 343,-1227.5 576,-1227.5 576,-1208.5 343,-1208.5"/>
<text text-anchor="start" x="370.5" y="-1215.3" font-family="Times New Roman,serif" font-weight="bold" text-decoration="underline" font-size="14.00">DependencyGraphGenerator</text>
</a>
</g>
<polyline fill="none" stroke="black" points="343,-1187.5 576,-1187.5 "/>
<polyline fill="none" stroke="black" points="576,-1208.5 343,-1208.5 "/>
<text text-anchor="start" x="346" y="-1195.3" font-family="Times New Roman,serif" font-size="14.00" fill="blue">🏛️ [class]</text>
<text text-anchor="start" x="404" y="-1195.3" font-family="Times New Roman,serif" font-size="14.00"> &#160;DependencyGraphGenerator</text>
<polyline fill="none" stroke="black" points="576,-1187.5 343,-1187.5 "/>
<text text-anchor="start" x="346" y="-1174.3" font-family="Times New Roman,serif" font-style="italic" font-size="14.00" fill="red">IMPORTS</text>
<polyline fill="none" stroke="black" points="343,-1132.5 576,-1132.5 "/>
<polyline fill="none" stroke="black" points="576,-1166.5 343,-1166.5 "/>
<text text-anchor="start" x="346" y="-1153.3" font-family="Times New Roman,serif" font-style="italic" font-size="14.00" fill="red">DocumentationProcessor</text>
<text text-anchor="start" x="346" y="-1139.3" font-family="Times New Roman,serif" font-size="14.00">getTypeDocOutputDir</text>
<polyline fill="none" stroke="black" points="343,-1098.5 576,-1098.5 "/>
<polyline fill="none" stroke="black" points="576,-1132.5 343,-1132.5 "/>
<text text-anchor="start" x="346" y="-1119.3" font-family="Times New Roman,serif" font-style="italic" font-size="14.00" fill="red">GraphvizProcessor</text>
<text text-anchor="start" x="346" y="-1105.3" font-family="Times New Roman,serif" font-size="14.00">GraphvizProcessor</text>
<polyline fill="none" stroke="black" points="343,-1064.5 576,-1064.5 "/>
<polyline fill="none" stroke="black" points="576,-1098.5 343,-1098.5 "/>
<text text-anchor="start" x="346" y="-1085.3" font-family="Times New Roman,serif" font-style="italic" font-size="14.00" fill="red">JsDocGenerator</text>
<text text-anchor="start" x="346" y="-1071.3" font-family="Times New Roman,serif" font-size="14.00">JsDocGenerator</text>
<polyline fill="none" stroke="black" points="343,-1030.5 576,-1030.5 "/>
<polyline fill="none" stroke="black" points="576,-1064.5 343,-1064.5 "/>
<text text-anchor="start" x="346" y="-1051.3" font-family="Times New Roman,serif" font-style="italic" font-size="14.00" fill="red">TypeDocGenerator</text>
<text text-anchor="start" x="346" y="-1037.3" font-family="Times New Roman,serif" font-size="14.00">TypeDocGenerator</text>
<polyline fill="none" stroke="black" points="343,-996.5 576,-996.5 "/>
<polyline fill="none" stroke="black" points="576,-1030.5 343,-1030.5 "/>
<text text-anchor="start" x="346" y="-1017.3" font-family="Times New Roman,serif" font-style="italic" font-size="14.00" fill="red">dep&#45;graph</text>
<text text-anchor="start" x="346" y="-1003.3" font-family="Times New Roman,serif" font-size="14.00">ProgramOptions</text>
<polyline fill="none" stroke="black" points="343,-922.5 576,-922.5 "/>
<polyline fill="none" stroke="black" points="576,-996.5 343,-996.5 "/>
<text text-anchor="start" x="345" y="-984.3" font-family="Times New Roman,serif" font-style="italic" font-size="14.00" fill="red">ast/ASTProcessor</text>
<text text-anchor="start" x="345" y="-970.3" font-family="Times New Roman,serif" font-size="14.00">ASTProcessor</text>
<text text-anchor="start" x="345" y="-956.3" font-family="Times New Roman,serif" font-style="italic" font-size="14.00" fill="red">ast/SharedInterfaces</text>
<text text-anchor="start" x="345" y="-942.3" font-family="Times New Roman,serif" font-size="14.00">ModuleInfo</text>
<text text-anchor="start" x="345" y="-928.3" font-family="Times New Roman,serif" font-size="14.00">ProcessedASTData</text>
<polyline fill="none" stroke="black" points="343,-862.5 576,-862.5 "/>
<polyline fill="none" stroke="black" points="576,-922.5 343,-922.5 "/>
<text text-anchor="start" x="345" y="-910.3" font-family="Times New Roman,serif" font-style="italic" font-size="14.00" fill="red">generators/DiagramsGenerator</text>
<text text-anchor="start" x="345" y="-896.3" font-family="Times New Roman,serif" font-size="14.00">DiagramsGenerator</text>
<text text-anchor="start" x="345" y="-882.3" font-family="Times New Roman,serif" font-style="italic" font-size="14.00" fill="red">generators/HtmlGenerator</text>
<text text-anchor="start" x="345" y="-868.3" font-family="Times New Roman,serif" font-size="14.00">HtmlGenerator</text>
<polyline fill="none" stroke="black" points="343,-690.5 576,-690.5 "/>
<polyline fill="none" stroke="black" points="576,-862.5 343,-862.5 "/>
<text text-anchor="start" x="345" y="-850.3" font-family="Times New Roman,serif" font-style="italic" font-size="14.00" fill="red">graphs/ClassDiagram</text>
<text text-anchor="start" x="345" y="-836.3" font-family="Times New Roman,serif" font-size="14.00">ClassDiagram</text>
<text text-anchor="start" x="345" y="-822.3" font-family="Times New Roman,serif" font-style="italic" font-size="14.00" fill="red">graphs/ExportGraph</text>
<text text-anchor="start" x="345" y="-808.3" font-family="Times New Roman,serif" font-size="14.00">ExportGraph</text>
<text text-anchor="start" x="345" y="-794.3" font-family="Times New Roman,serif" font-style="italic" font-size="14.00" fill="red">graphs/GraphGenerator</text>
<text text-anchor="start" x="345" y="-780.3" font-family="Times New Roman,serif" font-size="14.00">IGraphFileGenerator</text>
<text text-anchor="start" x="345" y="-766.3" font-family="Times New Roman,serif" font-style="italic" font-size="14.00" fill="red">graphs/NodeModulesGraph</text>
<text text-anchor="start" x="345" y="-752.3" font-family="Times New Roman,serif" font-size="14.00">NodeModulesGraph</text>
<text text-anchor="start" x="345" y="-738.3" font-family="Times New Roman,serif" font-style="italic" font-size="14.00" fill="red">graphs/PackageGraph</text>
<text text-anchor="start" x="345" y="-724.3" font-family="Times New Roman,serif" font-size="14.00">PackageGraph</text>
<text text-anchor="start" x="345" y="-710.3" font-family="Times New Roman,serif" font-style="italic" font-size="14.00" fill="red">graphs/RelationsGraph</text>
<text text-anchor="start" x="345" y="-696.3" font-family="Times New Roman,serif" font-size="14.00">RelationsGraph</text>
<polyline fill="none" stroke="black" points="343,-560.5 576,-560.5 "/>
<polyline fill="none" stroke="black" points="576,-690.5 343,-690.5 "/>
<text text-anchor="start" x="345" y="-678.3" font-family="Times New Roman,serif" font-style="italic" font-size="14.00" fill="red">utils/file&#45;utils</text>
<text text-anchor="start" x="345" y="-664.3" font-family="Times New Roman,serif" font-size="14.00">safeWriteFile</text>
<text text-anchor="start" x="345" y="-650.3" font-family="Times New Roman,serif" font-size="14.00">getRelativePathParts</text>
<text text-anchor="start" x="345" y="-636.3" font-family="Times New Roman,serif" font-size="14.00">getDirectoriesRecursive</text>
<text text-anchor="start" x="345" y="-622.3" font-family="Times New Roman,serif" font-size="14.00">getFiles</text>
<text text-anchor="start" x="345" y="-608.3" font-family="Times New Roman,serif" font-size="14.00">getFilename</text>
<text text-anchor="start" x="345" y="-594.3" font-family="Times New Roman,serif" font-size="14.00">getGraphFilename</text>
<text text-anchor="start" x="345" y="-580.3" font-family="Times New Roman,serif" font-style="italic" font-size="14.00" fill="red">utils/json</text>
<text text-anchor="start" x="345" y="-566.3" font-family="Times New Roman,serif" font-size="14.00">jsonOut</text>
<polygon fill="none" stroke="black" points="341.5,-560 341.5,-1229 576.5,-1229 576.5,-560 341.5,-560"/>
</g>
<!-- dep&#45;graph&#45;&gt;DependencyGraphGenerator -->
<g id="edge7" class="edge">
<title>dep&#45;graph&#45;&gt;DependencyGraphGenerator</title>
<path fill="none" stroke="black" d="M454.21,-1268.81C453.96,-1260.87 453.73,-1252.3 453.53,-1243.23"/>
<polygon fill="black" stroke="black" points="457.03,-1243.12 453.32,-1233.19 450.03,-1243.26 457.03,-1243.12"/>
</g>
<!-- DependencyGraphGenerator&#45;&gt;dep&#45;graph -->
<g id="edge8" class="edge">
<title>DependencyGraphGenerator&#45;&gt;dep&#45;graph</title>
<path fill="none" stroke="black" d="M464.68,-1233.19C464.51,-1242.11 464.31,-1250.62 464.09,-1258.61"/>
<polygon fill="black" stroke="black" points="460.58,-1258.71 463.79,-1268.81 467.58,-1258.91 460.58,-1258.71"/>
</g>
<!-- DependencyGraphGenerator&#45;node_modules -->
<g id="node4" class="node">
<title>DependencyGraphGenerator&#45;node_modules</title>
<polygon fill="lightgrey" stroke="transparent" points="471,-411.5 471,-430.5 563,-430.5 563,-411.5 471,-411.5"/>
<text text-anchor="start" x="473" y="-418.3" font-family="Times New Roman,serif" font-weight="bold" font-size="14.00">node_modules</text>
<polyline fill="none" stroke="black" points="563,-411.5 471,-411.5 "/>
<text text-anchor="start" x="474" y="-398.3" font-family="Times New Roman,serif" font-style="italic" font-size="14.00" fill="red">fs</text>
<text text-anchor="start" x="484" y="-398.3" font-family="Times New Roman,serif" font-size="14.00"> &#160;(fs)</text>
<text text-anchor="start" x="474" y="-384.3" font-family="Times New Roman,serif" font-style="italic" font-size="14.00" fill="red">path</text>
<text text-anchor="start" x="501" y="-384.3" font-family="Times New Roman,serif" font-size="14.00"> &#160;(path)</text>
<polygon fill="none" stroke="black" points="470,-377 470,-432 564,-432 564,-377 470,-377"/>
</g>
<!-- DependencyGraphGenerator&#45;&gt;DependencyGraphGenerator&#45;node_modules -->
<g id="edge2" class="edge">
<title>DependencyGraphGenerator&#45;&gt;DependencyGraphGenerator&#45;node_modules</title>
<path fill="none" stroke="black" d="M499.12,-555.9C504.28,-512.5 508.89,-473.76 512.13,-446.46"/>
<polygon fill="black" stroke="black" points="515.64,-446.56 513.35,-436.22 508.69,-445.73 515.64,-446.56"/>
</g>
<!-- DocumentationProcessor -->
<g id="node5" class="node">
<title>DocumentationProcessor</title>
<g id="a_node5_2"><a xlink:href="tsdocs\modules\DocumentationProcessor.html" xlink:title="&lt;TABLE&gt;" target="_blank">
<polygon fill="lightblue" stroke="transparent" points="362,-229 362,-248 573,-248 573,-229 362,-229"/>
<text text-anchor="start" x="390" y="-235.8" font-family="Times New Roman,serif" font-weight="bold" text-decoration="underline" font-size="14.00">DocumentationProcessor</text>
</a>
</g>
<polyline fill="none" stroke="black" points="362,-139 573,-139 "/>
<polyline fill="none" stroke="black" points="573,-229 362,-229 "/>
<text text-anchor="start" x="365" y="-215.8" font-family="Times New Roman,serif" font-size="14.00" fill="purple">🧩 [iface]</text>
<text text-anchor="start" x="422" y="-215.8" font-family="Times New Roman,serif" font-size="14.00"> &#160;JSDocConfig</text>
<text text-anchor="start" x="365" y="-201.8" font-family="Times New Roman,serif" font-size="14.00" fill="purple">🧩 [iface]</text>
<text text-anchor="start" x="422" y="-201.8" font-family="Times New Roman,serif" font-size="14.00"> &#160;JSDocOptsConfig</text>
<text text-anchor="start" x="365" y="-187.8" font-family="Times New Roman,serif" font-size="14.00" fill="purple">🧩 [iface]</text>
<text text-anchor="start" x="422" y="-187.8" font-family="Times New Roman,serif" font-size="14.00"> &#160;JSDocSourceConfig</text>
<text text-anchor="start" x="365" y="-173.8" font-family="Times New Roman,serif" font-size="14.00" fill="green">ƒ [fn]</text>
<text text-anchor="start" x="396" y="-173.8" font-family="Times New Roman,serif" font-size="14.00"> &#160;getTypedocConfigPath</text>
<text text-anchor="start" x="365" y="-159.8" font-family="Times New Roman,serif" font-size="14.00" fill="green">ƒ [fn]</text>
<text text-anchor="start" x="396" y="-159.8" font-family="Times New Roman,serif" font-size="14.00"> &#160;getTypeDocOutputDir</text>
<text text-anchor="start" x="365" y="-145.8" font-family="Times New Roman,serif" font-size="14.00" fill="green">ƒ [fn]</text>
<text text-anchor="start" x="396" y="-145.8" font-family="Times New Roman,serif" font-size="14.00"> &#160;spawnDocumentationProcess</text>
<polyline fill="none" stroke="black" points="573,-139 362,-139 "/>
<text text-anchor="start" x="365" y="-125.8" font-family="Times New Roman,serif" font-style="italic" font-size="14.00" fill="red">IMPORTS</text>
<polygon fill="none" stroke="black" points="360.5,-117 360.5,-249 573.5,-249 573.5,-117 360.5,-117"/>
</g>
<!-- DependencyGraphGenerator&#45;&gt;DocumentationProcessor -->
<g id="edge9" class="edge">
<title>DependencyGraphGenerator&#45;&gt;DocumentationProcessor</title>
<path fill="none" stroke="black" d="M446.57,-555.93C445.85,-468.89 447.27,-375.4 453,-289 453.56,-280.62 454.36,-271.9 455.3,-263.21"/>
<polygon fill="black" stroke="black" points="458.8,-263.39 456.47,-253.06 451.85,-262.59 458.8,-263.39"/>
</g>
<!-- GraphvizProcessor -->
<g id="node7" class="node">
<title>GraphvizProcessor</title>
<g id="a_node7_3"><a xlink:href="tsdocs\modules%3raphvizProcessor.html" xlink:title="&lt;TABLE&gt;" target="_blank">
<polygon fill="lightblue" stroke="transparent" points="9,-415.5 9,-434.5 189,-434.5 189,-415.5 9,-415.5"/>
<text text-anchor="start" x="40" y="-422.3" font-family="Times New Roman,serif" font-weight="bold" text-decoration="underline" font-size="14.00">GraphvizProcessor</text>
</a>
</g>
<polyline fill="none" stroke="black" points="9,-394.5 189,-394.5 "/>
<polyline fill="none" stroke="black" points="189,-415.5 9,-415.5 "/>
<text text-anchor="start" x="12" y="-402.3" font-family="Times New Roman,serif" font-size="14.00" fill="blue">🏛️ [class]</text>
<text text-anchor="start" x="70" y="-402.3" font-family="Times New Roman,serif" font-size="14.00"> &#160;GraphvizProcessor</text>
<polyline fill="none" stroke="black" points="189,-394.5 9,-394.5 "/>
<text text-anchor="start" x="12" y="-381.3" font-family="Times New Roman,serif" font-style="italic" font-size="14.00" fill="red">IMPORTS</text>
<polygon fill="none" stroke="black" points="8,-373 8,-436 190,-436 190,-373 8,-373"/>
</g>
<!-- DependencyGraphGenerator&#45;&gt;GraphvizProcessor -->
<g id="edge10" class="edge">
<title>DependencyGraphGenerator&#45;&gt;GraphvizProcessor</title>
<path fill="none" stroke="black" d="M333.19,-564.9C330.19,-561.85 327.13,-558.89 324,-556 283.98,-519.14 253.2,-548.74 207,-520 176.98,-501.32 149.72,-472.28 130.1,-448.12"/>
<polygon fill="black" stroke="black" points="132.71,-445.78 123.74,-440.14 127.23,-450.14 132.71,-445.78"/>
</g>
<!-- JsDocGenerator -->
<g id="node10" class="node">
<title>JsDocGenerator</title>
<g id="a_node10_4"><a xlink:href="tsdocs\modules\JsDocGenerator.html" xlink:title="&lt;TABLE&gt;" target="_blank">
<polygon fill="lightblue" stroke="transparent" points="225,-455.5 225,-474.5 397,-474.5 397,-455.5 225,-455.5"/>
<text text-anchor="start" x="259.5" y="-462.3" font-family="Times New Roman,serif" font-weight="bold" text-decoration="underline" font-size="14.00">JsDocGenerator</text>
</a>
</g>
<polyline fill="none" stroke="black" points="225,-434.5 397,-434.5 "/>
<polyline fill="none" stroke="black" points="397,-455.5 225,-455.5 "/>
<text text-anchor="start" x="228" y="-442.3" font-family="Times New Roman,serif" font-size="14.00" fill="blue">🏛️ [class]</text>
<text text-anchor="start" x="286" y="-442.3" font-family="Times New Roman,serif" font-size="14.00"> &#160;JsDocGenerator</text>
<polyline fill="none" stroke="black" points="397,-434.5 225,-434.5 "/>
<text text-anchor="start" x="228" y="-421.3" font-family="Times New Roman,serif" font-style="italic" font-size="14.00" fill="red">IMPORTS</text>
<polyline fill="none" stroke="black" points="225,-365.5 397,-365.5 "/>
<polyline fill="none" stroke="black" points="397,-413.5 225,-413.5 "/>
<text text-anchor="start" x="228" y="-400.3" font-family="Times New Roman,serif" font-style="italic" font-size="14.00" fill="red">DocumentationProcessor</text>
<text text-anchor="start" x="228" y="-386.3" font-family="Times New Roman,serif" font-size="14.00">JSDocConfig</text>
<text text-anchor="start" x="228" y="-372.3" font-family="Times New Roman,serif" font-size="14.00">spawnDocumentationProcess</text>
<polyline fill="none" stroke="black" points="225,-333.5 397,-333.5 "/>
<polyline fill="none" stroke="black" points="397,-365.5 225,-365.5 "/>
<text text-anchor="start" x="227" y="-353.3" font-family="Times New Roman,serif" font-style="italic" font-size="14.00" fill="red">ast/SharedInterfaces</text>
<text text-anchor="start" x="227" y="-339.3" font-family="Times New Roman,serif" font-size="14.00">ModuleInfo</text>
<polygon fill="none" stroke="black" points="224,-333 224,-476 398,-476 398,-333 224,-333"/>
</g>
<!-- DependencyGraphGenerator&#45;&gt;JsDocGenerator -->
<g id="edge11" class="edge">
<title>DependencyGraphGenerator&#45;&gt;JsDocGenerator</title>
<path fill="none" stroke="black" d="M356.61,-555.9C349.43,-532.21 342.66,-509.9 336.66,-490.09"/>
<polygon fill="black" stroke="black" points="339.93,-488.82 333.68,-480.27 333.23,-490.86 339.93,-488.82"/>
</g>
<!-- TypeDocGenerator -->
<g id="node12" class="node">
<title>TypeDocGenerator</title>
<g id="a_node12_5"><a xlink:href="tsdocs\modules\TypeDocGenerator.html" xlink:title="&lt;TABLE&gt;" target="_blank">
<polygon fill="lightblue" stroke="transparent" points="600,-495.5 600,-514.5 781,-514.5 781,-495.5 600,-495.5"/>
<text text-anchor="start" x="630.5" y="-502.3" font-family="Times New Roman,serif" font-weight="bold" text-decoration="underline" font-size="14.00">TypeDocGenerator</text>
</a>
</g>
<polyline fill="none" stroke="black" points="600,-474.5 781,-474.5 "/>
<polyline fill="none" stroke="black" points="781,-495.5 600,-495.5 "/>
<text text-anchor="start" x="603" y="-482.3" font-family="Times New Roman,serif" font-size="14.00" fill="blue">🏛️ [class]</text>
<text text-anchor="start" x="661" y="-482.3" font-family="Times New Roman,serif" font-size="14.00"> &#160;TypeDocGenerator</text>
<polyline fill="none" stroke="black" points="781,-474.5 600,-474.5 "/>
<text text-anchor="start" x="603" y="-461.3" font-family="Times New Roman,serif" font-style="italic" font-size="14.00" fill="red">IMPORTS</text>
<polyline fill="none" stroke="black" points="600,-391.5 781,-391.5 "/>
<polyline fill="none" stroke="black" points="781,-453.5 600,-453.5 "/>
<text text-anchor="start" x="603" y="-440.3" font-family="Times New Roman,serif" font-style="italic" font-size="14.00" fill="red">DocumentationProcessor</text>
<text text-anchor="start" x="603" y="-426.3" font-family="Times New Roman,serif" font-size="14.00">getTypedocConfigPath</text>
<text text-anchor="start" x="603" y="-412.3" font-family="Times New Roman,serif" font-size="14.00">getTypeDocOutputDir</text>
<text text-anchor="start" x="603" y="-398.3" font-family="Times New Roman,serif" font-size="14.00">spawnDocumentationProcess</text>
<polyline fill="none" stroke="black" points="600,-357.5 781,-357.5 "/>
<polyline fill="none" stroke="black" points="781,-391.5 600,-391.5 "/>
<text text-anchor="start" x="603" y="-378.3" font-family="Times New Roman,serif" font-style="italic" font-size="14.00" fill="red">dep&#45;graph</text>
<text text-anchor="start" x="603" y="-364.3" font-family="Times New Roman,serif" font-size="14.00">ProgramOptions</text>
<polyline fill="none" stroke="black" points="600,-325.5 781,-325.5 "/>
<polyline fill="none" stroke="black" points="781,-357.5 600,-357.5 "/>
<text text-anchor="start" x="602" y="-345.3" font-family="Times New Roman,serif" font-style="italic" font-size="14.00" fill="red">ast/SharedInterfaces</text>
<text text-anchor="start" x="602" y="-331.3" font-family="Times New Roman,serif" font-size="14.00">ModuleInfo</text>
<polyline fill="none" stroke="black" points="600,-293.5 781,-293.5 "/>
<polyline fill="none" stroke="black" points="781,-325.5 600,-325.5 "/>
<text text-anchor="start" x="602" y="-313.3" font-family="Times New Roman,serif" font-style="italic" font-size="14.00" fill="red">utils/file&#45;utils</text>
<text text-anchor="start" x="602" y="-299.3" font-family="Times New Roman,serif" font-size="14.00">getFilename</text>
<polygon fill="none" stroke="black" points="598.5,-293 598.5,-516 781.5,-516 781.5,-293 598.5,-293"/>
</g>
<!-- DependencyGraphGenerator&#45;&gt;TypeDocGenerator -->
<g id="edge12" class="edge">
<title>DependencyGraphGenerator&#45;&gt;TypeDocGenerator</title>
<path fill="none" stroke="black" d="M584.64,-628.08C600.89,-593.74 616.88,-559.97 631.29,-529.52"/>
<polygon fill="black" stroke="black" points="634.6,-530.72 635.71,-520.18 628.27,-527.72 634.6,-530.72"/>
</g>
<!-- DocumentationProcessor&#45;node_modules -->
<g id="node6" class="node">
<title>DocumentationProcessor&#45;node_modules</title>
<polygon fill="lightgrey" stroke="transparent" points="398,-52.5 398,-71.5 536,-71.5 536,-52.5 398,-52.5"/>
<text text-anchor="start" x="423" y="-59.3" font-family="Times New Roman,serif" font-weight="bold" font-size="14.00">node_modules</text>
<polyline fill="none" stroke="black" points="536,-52.5 398,-52.5 "/>
<text text-anchor="start" x="401" y="-39.3" font-family="Times New Roman,serif" font-style="italic" font-size="14.00" fill="red">child_process</text>
<text text-anchor="start" x="480" y="-39.3" font-family="Times New Roman,serif" font-size="14.00"> &#160;(spawn)</text>
<text text-anchor="start" x="401" y="-25.3" font-family="Times New Roman,serif" font-style="italic" font-size="14.00" fill="red">fs</text>
<text text-anchor="start" x="411" y="-25.3" font-family="Times New Roman,serif" font-size="14.00"> &#160;(fs)</text>
<text text-anchor="start" x="401" y="-11.3" font-family="Times New Roman,serif" font-style="italic" font-size="14.00" fill="red">path</text>
<text text-anchor="start" x="428" y="-11.3" font-family="Times New Roman,serif" font-size="14.00"> &#160;(path)</text>
<polygon fill="none" stroke="black" points="397,-4 397,-73 537,-73 537,-4 397,-4"/>
</g>
<!-- DocumentationProcessor&#45;&gt;DocumentationProcessor&#45;node_modules -->
<g id="edge3" class="edge">
<title>DocumentationProcessor&#45;&gt;DocumentationProcessor&#45;node_modules</title>
<path fill="none" stroke="black" d="M467,-112.84C467,-104.16 467,-95.44 467,-87.2"/>
<polygon fill="black" stroke="black" points="470.5,-87.05 467,-77.05 463.5,-87.05 470.5,-87.05"/>
</g>
<!-- GraphvizProcessor&#45;node_modules -->
<g id="node8" class="node">
<title>GraphvizProcessor&#45;node_modules</title>
<polygon fill="lightgrey" stroke="transparent" points="11,-197 11,-216 188,-216 188,-197 11,-197"/>
<text text-anchor="start" x="55.5" y="-203.8" font-family="Times New Roman,serif" font-weight="bold" font-size="14.00">node_modules</text>
<polyline fill="none" stroke="black" points="188,-197 11,-197 "/>
<text text-anchor="start" x="14" y="-183.8" font-family="Times New Roman,serif" font-style="italic" font-size="14.00" fill="red">child_process</text>
<text text-anchor="start" x="93" y="-183.8" font-family="Times New Roman,serif" font-size="14.00"> &#160;(spawn)</text>
<text text-anchor="start" x="14" y="-169.8" font-family="Times New Roman,serif" font-style="italic" font-size="14.00" fill="red">child_process</text>
<text text-anchor="start" x="93" y="-169.8" font-family="Times New Roman,serif" font-size="14.00"> &#160;(ChildProcess)</text>
<text text-anchor="start" x="14" y="-155.8" font-family="Times New Roman,serif" font-style="italic" font-size="14.00" fill="red">fs</text>
<text text-anchor="start" x="24" y="-155.8" font-family="Times New Roman,serif" font-size="14.00"> &#160;(fs)</text>
<polygon fill="none" stroke="black" points="9.5,-148.5 9.5,-217.5 188.5,-217.5 188.5,-148.5 9.5,-148.5"/>
</g>
<!-- GraphvizProcessor&#45;&gt;GraphvizProcessor&#45;node_modules -->
<g id="edge4" class="edge">
<title>GraphvizProcessor&#45;&gt;GraphvizProcessor&#45;node_modules</title>
<path fill="none" stroke="black" d="M99,-368.72C99,-331.72 99,-272.95 99,-231.66"/>
<polygon fill="black" stroke="black" points="102.5,-231.56 99,-221.56 95.5,-231.56 102.5,-231.56"/>
</g>
<!-- index -->
<g id="node9" class="node">
<title>index</title>
<g id="a_node9_6"><a xlink:href="tsdocs\modules\index.html" xlink:title="&lt;TABLE&gt;" target="_blank">
<polygon fill="lightblue" stroke="transparent" points="423,-1489 423,-1508 496,-1508 496,-1489 423,-1489"/>
<text text-anchor="start" x="443" y="-1495.8" font-family="Times New Roman,serif" font-weight="bold" text-decoration="underline" font-size="14.00">index</text>
</a>
</g>
<polyline fill="none" stroke="black" points="423,-1483 496,-1483 "/>
<polyline fill="none" stroke="black" points="496,-1489 423,-1489 "/>
<polyline fill="none" stroke="black" points="496,-1483 423,-1483 "/>
<text text-anchor="start" x="426" y="-1469.8" font-family="Times New Roman,serif" font-style="italic" font-size="14.00" fill="red">IMPORTS</text>
<polyline fill="none" stroke="black" points="423,-1428 496,-1428 "/>
<polyline fill="none" stroke="black" points="496,-1462 423,-1462 "/>
<text text-anchor="start" x="426" y="-1448.8" font-family="Times New Roman,serif" font-style="italic" font-size="14.00" fill="red">dep&#45;graph</text>
<text text-anchor="start" x="426" y="-1434.8" font-family="Times New Roman,serif" font-size="14.00">runProgram</text>
<polygon fill="none" stroke="black" points="421.5,-1427 421.5,-1509 496.5,-1509 496.5,-1427 421.5,-1427"/>
</g>
<!-- index&#45;&gt;dep&#45;graph -->
<g id="edge13" class="edge">
<title>index&#45;&gt;dep&#45;graph</title>
<path fill="none" stroke="black" d="M459,-1422.96C459,-1414.79 459,-1406.09 459,-1397.4"/>
<polygon fill="black" stroke="black" points="462.5,-1397.24 459,-1387.24 455.5,-1397.24 462.5,-1397.24"/>
</g>
<!-- JsDocGenerator&#45;&gt;DocumentationProcessor -->
<g id="edge14" class="edge">
<title>JsDocGenerator&#45;&gt;DocumentationProcessor</title>
<path fill="none" stroke="black" d="M364.03,-328.88C379.46,-307.17 396.35,-283.41 411.9,-261.53"/>
<polygon fill="black" stroke="black" points="414.85,-263.42 417.79,-253.24 409.15,-259.36 414.85,-263.42"/>
</g>
<!-- JsDocGenerator&#45;node_modules -->
<g id="node11" class="node">
<title>JsDocGenerator&#45;node_modules</title>
<polygon fill="lightgrey" stroke="transparent" points="233,-190 233,-209 325,-209 325,-190 233,-190"/>
<text text-anchor="start" x="235" y="-196.8" font-family="Times New Roman,serif" font-weight="bold" font-size="14.00">node_modules</text>
<polyline fill="none" stroke="black" points="325,-190 233,-190 "/>
<text text-anchor="start" x="236" y="-176.8" font-family="Times New Roman,serif" font-style="italic" font-size="14.00" fill="red">fs</text>
<text text-anchor="start" x="246" y="-176.8" font-family="Times New Roman,serif" font-size="14.00"> &#160;(fs)</text>
<text text-anchor="start" x="236" y="-162.8" font-family="Times New Roman,serif" font-style="italic" font-size="14.00" fill="red">path</text>
<text text-anchor="start" x="263" y="-162.8" font-family="Times New Roman,serif" font-size="14.00"> &#160;(path)</text>
<polygon fill="none" stroke="black" points="232,-155.5 232,-210.5 326,-210.5 326,-155.5 232,-155.5"/>
</g>
<!-- JsDocGenerator&#45;&gt;JsDocGenerator&#45;node_modules -->
<g id="edge5" class="edge">
<title>JsDocGenerator&#45;&gt;JsDocGenerator&#45;node_modules</title>
<path fill="none" stroke="black" d="M300.12,-328.88C295.05,-294.12 289.22,-254.11 284.97,-224.96"/>
<polygon fill="black" stroke="black" points="288.39,-224.12 283.48,-214.73 281.46,-225.13 288.39,-224.12"/>
</g>
<!-- TypeDocGenerator&#45;&gt;dep&#45;graph -->
<g id="edge15" class="edge">
<title>TypeDocGenerator&#45;&gt;dep&#45;graph</title>
<path fill="none" stroke="black" d="M704.81,-520.16C720.75,-689.03 728.09,-1008.81 594,-1233 585.87,-1246.6 574.92,-1258.72 562.75,-1269.36"/>
<polygon fill="black" stroke="black" points="560.48,-1266.7 555.04,-1275.8 564.96,-1272.08 560.48,-1266.7"/>
</g>
<!-- TypeDocGenerator&#45;&gt;DocumentationProcessor -->
<g id="edge16" class="edge">
<title>TypeDocGenerator&#45;&gt;DocumentationProcessor</title>
<path fill="none" stroke="black" d="M590.48,-298.41C587.3,-295.22 584.13,-292.08 581,-289 571.35,-279.51 561.1,-269.7 550.84,-260.05"/>
<polygon fill="black" stroke="black" points="553.08,-257.35 543.38,-253.07 548.29,-262.46 553.08,-257.35"/>
</g>
<!-- TypeDocGenerator&#45;node_modules -->
<g id="node13" class="node">
<title>TypeDocGenerator&#45;node_modules</title>
<polygon fill="lightgrey" stroke="transparent" points="617,-204 617,-223 764,-223 764,-204 617,-204"/>
<text text-anchor="start" x="646.5" y="-210.8" font-family="Times New Roman,serif" font-weight="bold" font-size="14.00">node_modules</text>
<polyline fill="none" stroke="black" points="764,-204 617,-204 "/>
<text text-anchor="start" x="620" y="-190.8" font-family="Times New Roman,serif" font-style="italic" font-size="14.00" fill="red">child_process</text>
<text text-anchor="start" x="699" y="-190.8" font-family="Times New Roman,serif" font-size="14.00"> &#160;(spawn)</text>
<text text-anchor="start" x="620" y="-176.8" font-family="Times New Roman,serif" font-style="italic" font-size="14.00" fill="red">deepmerge</text>
<text text-anchor="start" x="683" y="-176.8" font-family="Times New Roman,serif" font-size="14.00"> &#160;(deepmerge)</text>
<text text-anchor="start" x="620" y="-162.8" font-family="Times New Roman,serif" font-style="italic" font-size="14.00" fill="red">fs</text>
<text text-anchor="start" x="630" y="-162.8" font-family="Times New Roman,serif" font-size="14.00"> &#160;(fs)</text>
<text text-anchor="start" x="620" y="-148.8" font-family="Times New Roman,serif" font-style="italic" font-size="14.00" fill="red">path</text>
<text text-anchor="start" x="647" y="-148.8" font-family="Times New Roman,serif" font-size="14.00"> &#160;(path)</text>
<polygon fill="none" stroke="black" points="615.5,-141.5 615.5,-224.5 764.5,-224.5 764.5,-141.5 615.5,-141.5"/>
</g>
<!-- TypeDocGenerator&#45;&gt;TypeDocGenerator&#45;node_modules -->
<g id="edge6" class="edge">
<title>TypeDocGenerator&#45;&gt;TypeDocGenerator&#45;node_modules</title>
<path fill="none" stroke="black" d="M690,-288.93C690,-271.53 690,-254.29 690,-238.97"/>
<polygon fill="black" stroke="black" points="693.5,-238.69 690,-228.69 686.5,-238.69 693.5,-238.69"/>
</g>
</g>
</svg>
