<?xml version="1.0" encoding="UTF-8" standalone="no"?>
<!DOCTYPE svg PUBLIC "-//W3C//DTD SVG 1.1//EN"
 "http://www.w3.org/Graphics/SVG/1.1/DTD/svg11.dtd">
<!-- Generated by graphviz version 3.0.0 (20220226.1711)
 -->
<!-- Pages: 1 -->
<svg width="755pt" height="1445pt"
 viewBox="0.00 0.00 754.50 1445.00" xmlns="http://www.w3.org/2000/svg" xmlns:xlink="http://www.w3.org/1999/xlink">
<g id="graph0" class="graph" transform="scale(1 1) rotate(0) translate(4 1441)">
<polygon fill="white" stroke="transparent" points="-4,4 -4,-1441 750.5,-1441 750.5,4 -4,4"/>
<text text-anchor="middle" x="373.25" y="-1421.8" font-family="Times New Roman,serif" font-size="14.00"> Module Exports</text>
<!-- dep&#45;graph -->
<g id="node1" class="node">
<title>dep&#45;graph</title>
<g id="a_node1_0"><a xlink:href="tsdocs\modules\dep-graph.html" xlink:title="&lt;TABLE&gt;" target="_blank">
<polygon fill="lightblue" stroke="transparent" points="343.5,-1284.5 343.5,-1303.5 517.5,-1303.5 517.5,-1284.5 343.5,-1284.5"/>
<text text-anchor="start" x="399" y="-1291.3" font-family="Times New Roman,serif" font-weight="bold" text-decoration="underline" font-size="14.00">dep&#45;graph</text>
</a>
</g>
<polyline fill="none" stroke="black" points="343.5,-1248.5 517.5,-1248.5 "/>
<polyline fill="none" stroke="black" points="517.5,-1284.5 343.5,-1284.5 "/>
<text text-anchor="start" x="346.5" y="-1270.3" font-family="Times New Roman,serif" font-size="14.00">ProgramOptions</text>
<text text-anchor="start" x="360" y="-1255.3" font-family="Times New Roman,serif" font-size="14.00">runProgram</text>
<polyline fill="none" stroke="black" points="343.5,-1214.5 517.5,-1214.5 "/>
<polyline fill="none" stroke="black" points="517.5,-1248.5 343.5,-1248.5 "/>
<text text-anchor="start" x="346.5" y="-1235.3" font-family="Times New Roman,serif" font-style="italic" font-size="14.00" fill="red">DependencyGraphGenerator</text>
<text text-anchor="start" x="350" y="-1221.3" font-family="Times New Roman,serif" font-size="14.00">DependencyGraphGenerator</text>
<polygon fill="none" stroke="black" points="342.5,-1214 342.5,-1305 518.5,-1305 518.5,-1214 342.5,-1214"/>
</g>
<!-- dep&#45;graph&#45;node_modules -->
<g id="node2" class="node">
<title>dep&#45;graph&#45;node_modules</title>
<polygon fill="lightgrey" stroke="transparent" points="139.5,-873 139.5,-892 301.5,-892 301.5,-873 139.5,-873"/>
<text text-anchor="start" x="176.5" y="-879.8" font-family="Times New Roman,serif" font-weight="bold" font-size="14.00">node_modules</text>
<text text-anchor="start" x="150.5" y="-860.8" font-family="Times New Roman,serif" font-style="italic" font-size="14.00" fill="red">commander</text>
<text text-anchor="start" x="218.5" y="-860.8" font-family="Times New Roman,serif" font-size="14.00"> (Command)</text>
<text text-anchor="start" x="160.5" y="-846.8" font-family="Times New Roman,serif" font-style="italic" font-size="14.00" fill="red">commander</text>
<text text-anchor="start" x="228.5" y="-846.8" font-family="Times New Roman,serif" font-size="14.00"> (Option)</text>
<text text-anchor="start" x="141.5" y="-832.8" font-family="Times New Roman,serif" font-style="italic" font-size="14.00" fill="red">commander</text>
<text text-anchor="start" x="209.5" y="-832.8" font-family="Times New Roman,serif" font-size="14.00"> (OptionValues)</text>
<text text-anchor="start" x="203.5" y="-818.8" font-family="Times New Roman,serif" font-style="italic" font-size="14.00" fill="red">fs</text>
<text text-anchor="start" x="213.5" y="-818.8" font-family="Times New Roman,serif" font-size="14.00"> (fs)</text>
<text text-anchor="start" x="188.5" y="-804.8" font-family="Times New Roman,serif" font-style="italic" font-size="14.00" fill="red">path</text>
<text text-anchor="start" x="215.5" y="-804.8" font-family="Times New Roman,serif" font-size="14.00"> (path)</text>
<polygon fill="none" stroke="black" points="138.5,-798.5 138.5,-893.5 302.5,-893.5 302.5,-798.5 138.5,-798.5"/>
</g>
<!-- dep&#45;graph&#45;&gt;dep&#45;graph&#45;node_modules -->
<g id="edge1" class="edge">
<title>dep&#45;graph&#45;&gt;dep&#45;graph&#45;node_modules</title>
<path fill="none" stroke="black" d="M353.18,-1209.89C340.59,-1199.29 328.69,-1187.23 319.5,-1174 262.74,-1092.28 237.86,-977.25 227.45,-907.65"/>
<polygon fill="black" stroke="black" points="230.91,-907.12 226.01,-897.72 223.98,-908.12 230.91,-907.12"/>
</g>
<!-- DependencyGraphGenerator -->
<g id="node3" class="node">
<title>DependencyGraphGenerator</title>
<g id="a_node3_1"><a xlink:href="tsdocs\modules\DependencyGraphGenerator.html" xlink:title="&lt;TABLE&gt;" target="_blank">
<polygon fill="lightblue" stroke="transparent" points="338.5,-1150 338.5,-1169 523.5,-1169 523.5,-1150 338.5,-1150"/>
<text text-anchor="start" x="342" y="-1156.8" font-family="Times New Roman,serif" font-weight="bold" text-decoration="underline" font-size="14.00">DependencyGraphGenerator</text>
</a>
</g>
<polyline fill="none" stroke="black" points="338.5,-1129 523.5,-1129 "/>
<polyline fill="none" stroke="black" points="523.5,-1150 338.5,-1150 "/>
<text text-anchor="start" x="341.5" y="-1135.8" font-family="Times New Roman,serif" font-size="14.00">DependencyGraphGenerator</text>
<polyline fill="none" stroke="black" points="338.5,-1095 523.5,-1095 "/>
<polyline fill="none" stroke="black" points="523.5,-1129 338.5,-1129 "/>
<text text-anchor="start" x="341.5" y="-1115.8" font-family="Times New Roman,serif" font-style="italic" font-size="14.00" fill="red">DocumentationProcessor</text>
<text text-anchor="start" x="350" y="-1101.8" font-family="Times New Roman,serif" font-size="14.00">getTypeDocOutputDir</text>
<polyline fill="none" stroke="black" points="338.5,-1061 523.5,-1061 "/>
<polyline fill="none" stroke="black" points="523.5,-1095 338.5,-1095 "/>
<text text-anchor="start" x="341.5" y="-1081.8" font-family="Times New Roman,serif" font-style="italic" font-size="14.00" fill="red">GraphvizProcessor</text>
<text text-anchor="start" x="341.5" y="-1067.8" font-family="Times New Roman,serif" font-size="14.00">GraphvizProcessor</text>
<polyline fill="none" stroke="black" points="338.5,-1027 523.5,-1027 "/>
<polyline fill="none" stroke="black" points="523.5,-1061 338.5,-1061 "/>
<text text-anchor="start" x="341.5" y="-1047.8" font-family="Times New Roman,serif" font-style="italic" font-size="14.00" fill="red">JsDocGenerator</text>
<text text-anchor="start" x="343" y="-1033.8" font-family="Times New Roman,serif" font-size="14.00">JsDocGenerator</text>
<polyline fill="none" stroke="black" points="338.5,-993 523.5,-993 "/>
<polyline fill="none" stroke="black" points="523.5,-1027 338.5,-1027 "/>
<text text-anchor="start" x="341.5" y="-1013.8" font-family="Times New Roman,serif" font-style="italic" font-size="14.00" fill="red">TypeDocGenerator</text>
<text text-anchor="start" x="342" y="-999.8" font-family="Times New Roman,serif" font-size="14.00">TypeDocGenerator</text>
<polyline fill="none" stroke="black" points="338.5,-959 523.5,-959 "/>
<polyline fill="none" stroke="black" points="523.5,-993 338.5,-993 "/>
<text text-anchor="start" x="358" y="-979.8" font-family="Times New Roman,serif" font-style="italic" font-size="14.00" fill="red">dep&#45;graph</text>
<text text-anchor="start" x="341.5" y="-965.8" font-family="Times New Roman,serif" font-size="14.00">ProgramOptions</text>
<polyline fill="none" stroke="black" points="338.5,-885 523.5,-885 "/>
<polyline fill="none" stroke="black" points="523.5,-959 338.5,-959 "/>
<text text-anchor="start" x="349.5" y="-946.8" font-family="Times New Roman,serif" font-style="italic" font-size="14.00" fill="red">ast/ASTProcessor</text>
<text text-anchor="start" x="357" y="-932.8" font-family="Times New Roman,serif" font-size="14.00">ASTProcessor</text>
<text text-anchor="start" x="340.5" y="-918.8" font-family="Times New Roman,serif" font-style="italic" font-size="14.00" fill="red">ast/SharedInterfaces</text>
<text text-anchor="start" x="366" y="-904.8" font-family="Times New Roman,serif" font-size="14.00">ModuleInfo</text>
<text text-anchor="start" x="343.5" y="-890.8" font-family="Times New Roman,serif" font-size="14.00">ProcessedASTData</text>
<polyline fill="none" stroke="black" points="338.5,-825 523.5,-825 "/>
<polyline fill="none" stroke="black" points="523.5,-885 338.5,-885 "/>
<text text-anchor="start" x="340.5" y="-872.8" font-family="Times New Roman,serif" font-style="italic" font-size="14.00" fill="red">generators/DiagramsGenerator</text>
<text text-anchor="start" x="376.5" y="-858.8" font-family="Times New Roman,serif" font-size="14.00">DiagramsGenerator</text>
<text text-anchor="start" x="355" y="-844.8" font-family="Times New Roman,serif" font-style="italic" font-size="14.00" fill="red">generators/HtmlGenerator</text>
<text text-anchor="start" x="389.5" y="-830.8" font-family="Times New Roman,serif" font-size="14.00">HtmlGenerator</text>
<polyline fill="none" stroke="black" points="338.5,-653 523.5,-653 "/>
<polyline fill="none" stroke="black" points="523.5,-825 338.5,-825 "/>
<text text-anchor="start" x="357" y="-812.8" font-family="Times New Roman,serif" font-style="italic" font-size="14.00" fill="red">graphs/ClassDiagram</text>
<text text-anchor="start" x="382.5" y="-798.8" font-family="Times New Roman,serif" font-size="14.00">ClassDiagram</text>
<text text-anchor="start" x="361" y="-784.8" font-family="Times New Roman,serif" font-style="italic" font-size="14.00" fill="red">graphs/ExportGraph</text>
<text text-anchor="start" x="384.5" y="-770.8" font-family="Times New Roman,serif" font-size="14.00">ExportGraph</text>
<text text-anchor="start" x="350.5" y="-756.8" font-family="Times New Roman,serif" font-style="italic" font-size="14.00" fill="red">graphs/GraphGenerator</text>
<text text-anchor="start" x="363.5" y="-742.8" font-family="Times New Roman,serif" font-size="14.00">IGraphFileGenerator</text>
<text text-anchor="start" x="340.5" y="-728.8" font-family="Times New Roman,serif" font-style="italic" font-size="14.00" fill="red">graphs/NodeModulesGraph</text>
<text text-anchor="start" x="364" y="-714.8" font-family="Times New Roman,serif" font-size="14.00">NodeModulesGraph</text>
<text text-anchor="start" x="355" y="-700.8" font-family="Times New Roman,serif" font-style="italic" font-size="14.00" fill="red">graphs/PackageGraph</text>
<text text-anchor="start" x="380.5" y="-686.8" font-family="Times New Roman,serif" font-size="14.00">PackageGraph</text>
<text text-anchor="start" x="353.5" y="-672.8" font-family="Times New Roman,serif" font-style="italic" font-size="14.00" fill="red">graphs/RelationsGraph</text>
<text text-anchor="start" x="377.5" y="-658.8" font-family="Times New Roman,serif" font-size="14.00">RelationsGraph</text>
<polyline fill="none" stroke="black" points="338.5,-523 523.5,-523 "/>
<polyline fill="none" stroke="black" points="523.5,-653 338.5,-653 "/>
<text text-anchor="start" x="370" y="-640.8" font-family="Times New Roman,serif" font-style="italic" font-size="14.00" fill="red">utils/file&#45;utils</text>
<text text-anchor="start" x="370" y="-626.8" font-family="Times New Roman,serif" font-size="14.00">safeWriteFile</text>
<text text-anchor="start" x="349.5" y="-612.8" font-family="Times New Roman,serif" font-size="14.00">getRelativePathParts</text>
<text text-anchor="start" x="340.5" y="-598.8" font-family="Times New Roman,serif" font-size="14.00">getDirectoriesRecursive</text>
<text text-anchor="start" x="385.5" y="-584.8" font-family="Times New Roman,serif" font-size="14.00">getFiles</text>
<text text-anchor="start" x="373.5" y="-570.8" font-family="Times New Roman,serif" font-size="14.00">getFilename</text>
<text text-anchor="start" x="356" y="-556.8" font-family="Times New Roman,serif" font-size="14.00">getGraphFilename</text>
<text text-anchor="start" x="381" y="-542.8" font-family="Times New Roman,serif" font-style="italic" font-size="14.00" fill="red">utils/json</text>
<text text-anchor="start" x="384.5" y="-528.8" font-family="Times New Roman,serif" font-size="14.00">jsonOut</text>
<polygon fill="none" stroke="black" points="337,-522 337,-1170 524,-1170 524,-522 337,-522"/>
</g>
<!-- dep&#45;graph&#45;&gt;DependencyGraphGenerator -->
<g id="edge7" class="edge">
<title>dep&#45;graph&#45;&gt;DependencyGraphGenerator</title>
<path fill="none" stroke="black" d="M425.95,-1209.68C425.66,-1201.94 425.4,-1193.47 425.17,-1184.42"/>
<polygon fill="black" stroke="black" points="428.67,-1184.28 424.93,-1174.37 421.67,-1184.45 428.67,-1184.28"/>
</g>
<!-- DependencyGraphGenerator&#45;&gt;dep&#45;graph -->
<g id="edge8" class="edge">
<title>DependencyGraphGenerator&#45;&gt;dep&#45;graph</title>
<path fill="none" stroke="black" d="M436.07,-1174.37C435.87,-1183.33 435.65,-1191.8 435.4,-1199.68"/>
<polygon fill="black" stroke="black" points="431.9,-1199.57 435.05,-1209.68 438.89,-1199.81 431.9,-1199.57"/>
</g>
<!-- DependencyGraphGenerator&#45;node_modules -->
<g id="node4" class="node">
<title>DependencyGraphGenerator&#45;node_modules</title>
<polygon fill="lightgrey" stroke="transparent" points="437.5,-383 437.5,-402 529.5,-402 529.5,-383 437.5,-383"/>
<text text-anchor="start" x="439.5" y="-389.8" font-family="Times New Roman,serif" font-weight="bold" font-size="14.00">node_modules</text>
<text text-anchor="start" x="454.5" y="-370.8" font-family="Times New Roman,serif" font-style="italic" font-size="14.00" fill="red">fs</text>
<text text-anchor="start" x="464.5" y="-370.8" font-family="Times New Roman,serif" font-size="14.00"> (fs)</text>
<text text-anchor="start" x="439.5" y="-356.8" font-family="Times New Roman,serif" font-style="italic" font-size="14.00" fill="red">path</text>
<text text-anchor="start" x="466.5" y="-356.8" font-family="Times New Roman,serif" font-size="14.00"> (path)</text>
<polygon fill="none" stroke="black" points="436.5,-350.5 436.5,-403.5 530.5,-403.5 530.5,-350.5 436.5,-350.5"/>
</g>
<!-- DependencyGraphGenerator&#45;&gt;DependencyGraphGenerator&#45;node_modules -->
<g id="edge2" class="edge">
<title>DependencyGraphGenerator&#45;&gt;DependencyGraphGenerator&#45;node_modules</title>
<path fill="none" stroke="black" d="M467.63,-517.8C472.12,-478.31 476.11,-443.1 478.97,-417.9"/>
<polygon fill="black" stroke="black" points="482.48,-418.06 480.13,-407.73 475.52,-417.27 482.48,-418.06"/>
</g>
<!-- DocumentationProcessor -->
<g id="node5" class="node">
<title>DocumentationProcessor</title>
<g id="a_node5_2"><a xlink:href="tsdocs\modules\DocumentationProcessor.html" xlink:title="&lt;TABLE&gt;" target="_blank">
<polygon fill="lightblue" stroke="transparent" points="352.5,-211.5 352.5,-230.5 524.5,-230.5 524.5,-211.5 352.5,-211.5"/>
<text text-anchor="start" x="361" y="-218.3" font-family="Times New Roman,serif" font-weight="bold" text-decoration="underline" font-size="14.00">DocumentationProcessor</text>
</a>
</g>
<polyline fill="none" stroke="black" points="352.5,-115.5 524.5,-115.5 "/>
<polyline fill="none" stroke="black" points="524.5,-211.5 352.5,-211.5 "/>
<text text-anchor="start" x="373" y="-197.3" font-family="Times New Roman,serif" font-size="14.00">getTypedocConfigPath</text>
<text text-anchor="start" x="375" y="-182.3" font-family="Times New Roman,serif" font-size="14.00">getTypeDocOutputDir</text>
<text text-anchor="start" x="400.5" y="-167.3" font-family="Times New Roman,serif" font-size="14.00">JSDocConfig</text>
<text text-anchor="start" x="386.5" y="-152.3" font-family="Times New Roman,serif" font-size="14.00">JSDocOptsConfig</text>
<text text-anchor="start" x="380.5" y="-137.3" font-family="Times New Roman,serif" font-size="14.00">JSDocSourceConfig</text>
<text text-anchor="start" x="355.5" y="-122.3" font-family="Times New Roman,serif" font-size="14.00">spawnDocumentationProcess</text>
<polygon fill="none" stroke="black" points="351.5,-115 351.5,-232 525.5,-232 525.5,-115 351.5,-115"/>
</g>
<!-- DependencyGraphGenerator&#45;&gt;DocumentationProcessor -->
<g id="edge9" class="edge">
<title>DependencyGraphGenerator&#45;&gt;DocumentationProcessor</title>
<path fill="none" stroke="black" d="M411.22,-518C410.05,-437.43 411.83,-351.48 419.5,-272 420.31,-263.61 421.5,-254.87 422.9,-246.22"/>
<polygon fill="black" stroke="black" points="426.39,-246.58 424.63,-236.13 419.49,-245.4 426.39,-246.58"/>
</g>
<!-- GraphvizProcessor -->
<g id="node7" class="node">
<title>GraphvizProcessor</title>
<g id="a_node7_3"><a xlink:href="tsdocs\modules%3raphvizProcessor.html" xlink:title="&lt;TABLE&gt;" target="_blank">
<polygon fill="lightblue" stroke="transparent" points="33.5,-378 33.5,-397 155.5,-397 155.5,-378 33.5,-378"/>
<text text-anchor="start" x="35.5" y="-384.8" font-family="Times New Roman,serif" font-weight="bold" text-decoration="underline" font-size="14.00">GraphvizProcessor</text>
</a>
</g>
<polyline fill="none" stroke="black" points="33.5,-357 155.5,-357 "/>
<polyline fill="none" stroke="black" points="155.5,-378 33.5,-378 "/>
<text text-anchor="start" x="36.5" y="-363.8" font-family="Times New Roman,serif" font-size="14.00">GraphvizProcessor</text>
<polygon fill="none" stroke="black" points="32.5,-356 32.5,-398 156.5,-398 156.5,-356 32.5,-356"/>
</g>
<!-- DependencyGraphGenerator&#45;&gt;GraphvizProcessor -->
<g id="edge10" class="edge">
<title>DependencyGraphGenerator&#45;&gt;GraphvizProcessor</title>
<path fill="none" stroke="black" d="M328.83,-527.1C325.81,-523.97 322.7,-520.94 319.5,-518 270.27,-472.8 229.35,-518.71 173.5,-482 146.57,-464.3 125.19,-434.2 111.5,-410.92"/>
<polygon fill="black" stroke="black" points="114.45,-409.02 106.46,-402.05 108.36,-412.48 114.45,-409.02"/>
</g>
<!-- JsDocGenerator -->
<g id="node10" class="node">
<title>JsDocGenerator</title>
<g id="a_node10_4"><a xlink:href="tsdocs\modules\JsDocGenerator.html" xlink:title="&lt;TABLE&gt;" target="_blank">
<polygon fill="lightblue" stroke="transparent" points="191.5,-418 191.5,-437 363.5,-437 363.5,-418 191.5,-418"/>
<text text-anchor="start" x="226" y="-424.8" font-family="Times New Roman,serif" font-weight="bold" text-decoration="underline" font-size="14.00">JsDocGenerator</text>
</a>
</g>
<polyline fill="none" stroke="black" points="191.5,-397 363.5,-397 "/>
<polyline fill="none" stroke="black" points="363.5,-418 191.5,-418 "/>
<text text-anchor="start" x="194.5" y="-403.8" font-family="Times New Roman,serif" font-size="14.00">JsDocGenerator</text>
<polyline fill="none" stroke="black" points="191.5,-349 363.5,-349 "/>
<polyline fill="none" stroke="black" points="363.5,-397 191.5,-397 "/>
<text text-anchor="start" x="205.5" y="-383.8" font-family="Times New Roman,serif" font-style="italic" font-size="14.00" fill="red">DocumentationProcessor</text>
<text text-anchor="start" x="239.5" y="-369.8" font-family="Times New Roman,serif" font-size="14.00">JSDocConfig</text>
<text text-anchor="start" x="194.5" y="-355.8" font-family="Times New Roman,serif" font-size="14.00">spawnDocumentationProcess</text>
<polyline fill="none" stroke="black" points="191.5,-317 363.5,-317 "/>
<polyline fill="none" stroke="black" points="363.5,-349 191.5,-349 "/>
<text text-anchor="start" x="193.5" y="-336.8" font-family="Times New Roman,serif" font-style="italic" font-size="14.00" fill="red">ast/SharedInterfaces</text>
<text text-anchor="start" x="219" y="-322.8" font-family="Times New Roman,serif" font-size="14.00">ModuleInfo</text>
<polygon fill="none" stroke="black" points="190.5,-316 190.5,-438 364.5,-438 364.5,-316 190.5,-316"/>
</g>
<!-- DependencyGraphGenerator&#45;&gt;JsDocGenerator -->
<g id="edge11" class="edge">
<title>DependencyGraphGenerator&#45;&gt;JsDocGenerator</title>
<path fill="none" stroke="black" d="M328.98,-535.13C318.97,-504.57 309.6,-475.98 301.67,-451.78"/>
<polygon fill="black" stroke="black" points="304.92,-450.45 298.48,-442.04 298.27,-452.63 304.92,-450.45"/>
</g>
<!-- TypeDocGenerator -->
<g id="node12" class="node">
<title>TypeDocGenerator</title>
<g id="a_node12_5"><a xlink:href="tsdocs\modules\TypeDocGenerator.html" xlink:title="&lt;TABLE&gt;" target="_blank">
<polygon fill="lightblue" stroke="transparent" points="565.5,-458 565.5,-477 737.5,-477 737.5,-458 565.5,-458"/>
<text text-anchor="start" x="591.5" y="-464.8" font-family="Times New Roman,serif" font-weight="bold" text-decoration="underline" font-size="14.00">TypeDocGenerator</text>
</a>
</g>
<polyline fill="none" stroke="black" points="565.5,-437 737.5,-437 "/>
<polyline fill="none" stroke="black" points="737.5,-458 565.5,-458 "/>
<text text-anchor="start" x="568.5" y="-443.8" font-family="Times New Roman,serif" font-size="14.00">TypeDocGenerator</text>
<polyline fill="none" stroke="black" points="565.5,-375 737.5,-375 "/>
<polyline fill="none" stroke="black" points="737.5,-437 565.5,-437 "/>
<text text-anchor="start" x="579.5" y="-423.8" font-family="Times New Roman,serif" font-style="italic" font-size="14.00" fill="red">DocumentationProcessor</text>
<text text-anchor="start" x="586" y="-409.8" font-family="Times New Roman,serif" font-size="14.00">getTypedocConfigPath</text>
<text text-anchor="start" x="588" y="-395.8" font-family="Times New Roman,serif" font-size="14.00">getTypeDocOutputDir</text>
<text text-anchor="start" x="568.5" y="-381.8" font-family="Times New Roman,serif" font-size="14.00">spawnDocumentationProcess</text>
<polyline fill="none" stroke="black" points="565.5,-341 737.5,-341 "/>
<polyline fill="none" stroke="black" points="737.5,-375 565.5,-375 "/>
<text text-anchor="start" x="585" y="-361.8" font-family="Times New Roman,serif" font-style="italic" font-size="14.00" fill="red">dep&#45;graph</text>
<text text-anchor="start" x="568.5" y="-347.8" font-family="Times New Roman,serif" font-size="14.00">ProgramOptions</text>
<polyline fill="none" stroke="black" points="565.5,-309 737.5,-309 "/>
<polyline fill="none" stroke="black" points="737.5,-341 565.5,-341 "/>
<text text-anchor="start" x="567.5" y="-328.8" font-family="Times New Roman,serif" font-style="italic" font-size="14.00" fill="red">ast/SharedInterfaces</text>
<text text-anchor="start" x="593" y="-314.8" font-family="Times New Roman,serif" font-size="14.00">ModuleInfo</text>
<polyline fill="none" stroke="black" points="565.5,-277 737.5,-277 "/>
<polyline fill="none" stroke="black" points="737.5,-309 565.5,-309 "/>
<text text-anchor="start" x="567.5" y="-296.8" font-family="Times New Roman,serif" font-style="italic" font-size="14.00" fill="red">utils/file&#45;utils</text>
<text text-anchor="start" x="571" y="-282.8" font-family="Times New Roman,serif" font-size="14.00">getFilename</text>
<polygon fill="none" stroke="black" points="564.5,-276 564.5,-478 738.5,-478 738.5,-276 564.5,-276"/>
</g>
<!-- DependencyGraphGenerator&#45;&gt;TypeDocGenerator -->
<g id="edge12" class="edge">
<title>DependencyGraphGenerator&#45;&gt;TypeDocGenerator</title>
<path fill="none" stroke="black" d="M532.11,-630.29C554.82,-582.31 578.03,-533.25 597.88,-491.31"/>
<polygon fill="black" stroke="black" points="601.08,-492.73 602.19,-482.19 594.75,-489.74 601.08,-492.73"/>
</g>
<!-- DocumentationProcessor&#45;node_modules -->
<g id="node6" class="node">
<title>DocumentationProcessor&#45;node_modules</title>
<polygon fill="lightgrey" stroke="transparent" points="372.5,-50.5 372.5,-69.5 504.5,-69.5 504.5,-50.5 372.5,-50.5"/>
<text text-anchor="start" x="394.5" y="-57.3" font-family="Times New Roman,serif" font-weight="bold" font-size="14.00">node_modules</text>
<text text-anchor="start" x="374.5" y="-38.3" font-family="Times New Roman,serif" font-style="italic" font-size="14.00" fill="red">child_process</text>
<text text-anchor="start" x="453.5" y="-38.3" font-family="Times New Roman,serif" font-size="14.00"> (spawn)</text>
<text text-anchor="start" x="421.5" y="-24.3" font-family="Times New Roman,serif" font-style="italic" font-size="14.00" fill="red">fs</text>
<text text-anchor="start" x="431.5" y="-24.3" font-family="Times New Roman,serif" font-size="14.00"> (fs)</text>
<text text-anchor="start" x="406.5" y="-10.3" font-family="Times New Roman,serif" font-style="italic" font-size="14.00" fill="red">path</text>
<text text-anchor="start" x="433.5" y="-10.3" font-family="Times New Roman,serif" font-size="14.00"> (path)</text>
<polygon fill="none" stroke="black" points="371.5,-4 371.5,-71 505.5,-71 505.5,-4 371.5,-4"/>
</g>
<!-- DocumentationProcessor&#45;&gt;DocumentationProcessor&#45;node_modules -->
<g id="edge3" class="edge">
<title>DocumentationProcessor&#45;&gt;DocumentationProcessor&#45;node_modules</title>
<path fill="none" stroke="black" d="M438.5,-110.99C438.5,-102.38 438.5,-93.65 438.5,-85.37"/>
<polygon fill="black" stroke="black" points="442,-85.16 438.5,-75.16 435,-85.16 442,-85.16"/>
</g>
<!-- GraphvizProcessor&#45;node_modules -->
<g id="node8" class="node">
<title>GraphvizProcessor&#45;node_modules</title>
<polygon fill="lightgrey" stroke="transparent" points="9.5,-186.5 9.5,-205.5 180.5,-205.5 180.5,-186.5 9.5,-186.5"/>
<text text-anchor="start" x="51" y="-193.3" font-family="Times New Roman,serif" font-weight="bold" font-size="14.00">node_modules</text>
<text text-anchor="start" x="31" y="-174.3" font-family="Times New Roman,serif" font-style="italic" font-size="14.00" fill="red">child_process</text>
<text text-anchor="start" x="110" y="-174.3" font-family="Times New Roman,serif" font-size="14.00"> (spawn)</text>
<text text-anchor="start" x="11.5" y="-160.3" font-family="Times New Roman,serif" font-style="italic" font-size="14.00" fill="red">child_process</text>
<text text-anchor="start" x="90.5" y="-160.3" font-family="Times New Roman,serif" font-size="14.00"> (ChildProcess)</text>
<text text-anchor="start" x="78" y="-146.3" font-family="Times New Roman,serif" font-style="italic" font-size="14.00" fill="red">fs</text>
<text text-anchor="start" x="88" y="-146.3" font-family="Times New Roman,serif" font-size="14.00"> (fs)</text>
<polygon fill="none" stroke="black" points="8,-140 8,-207 181,-207 181,-140 8,-140"/>
</g>
<!-- GraphvizProcessor&#45;&gt;GraphvizProcessor&#45;node_modules -->
<g id="edge4" class="edge">
<title>GraphvizProcessor&#45;&gt;GraphvizProcessor&#45;node_modules</title>
<path fill="none" stroke="black" d="M94.5,-351.69C94.5,-319.53 94.5,-262.16 94.5,-221.42"/>
<polygon fill="black" stroke="black" points="98,-221.18 94.5,-211.18 91,-221.18 98,-221.18"/>
</g>
<!-- index -->
<g id="node9" class="node">
<title>index</title>
<g id="a_node9_6"><a xlink:href="tsdocs\modules\index.html" xlink:title="&lt;TABLE&gt;" target="_blank">
<polygon fill="lightblue" stroke="transparent" points="394.5,-1389.5 394.5,-1408.5 467.5,-1408.5 467.5,-1389.5 394.5,-1389.5"/>
<text text-anchor="start" x="414.5" y="-1396.3" font-family="Times New Roman,serif" font-weight="bold" text-decoration="underline" font-size="14.00">index</text>
</a>
</g>
<polyline fill="none" stroke="black" points="394.5,-1383.5 467.5,-1383.5 "/>
<polyline fill="none" stroke="black" points="467.5,-1389.5 394.5,-1389.5 "/>
<polyline fill="none" stroke="black" points="394.5,-1349.5 467.5,-1349.5 "/>
<polyline fill="none" stroke="black" points="467.5,-1383.5 394.5,-1383.5 "/>
<text text-anchor="start" x="400.5" y="-1370.3" font-family="Times New Roman,serif" font-style="italic" font-size="14.00" fill="red">dep&#45;graph</text>
<text text-anchor="start" x="397.5" y="-1356.3" font-family="Times New Roman,serif" font-size="14.00">runProgram</text>
<polygon fill="none" stroke="black" points="393,-1349 393,-1410 468,-1410 468,-1349 393,-1349"/>
</g>
<!-- index&#45;&gt;dep&#45;graph -->
<g id="edge13" class="edge">
<title>index&#45;&gt;dep&#45;graph</title>
<path fill="none" stroke="black" d="M430.5,-1344.69C430.5,-1336.76 430.5,-1328.08 430.5,-1319.4"/>
<polygon fill="black" stroke="black" points="434,-1319.27 430.5,-1309.27 427,-1319.27 434,-1319.27"/>
</g>
<!-- JsDocGenerator&#45;&gt;DocumentationProcessor -->
<g id="edge14" class="edge">
<title>JsDocGenerator&#45;&gt;DocumentationProcessor</title>
<path fill="none" stroke="black" d="M328.66,-311.97C345.88,-290.41 365.18,-266.26 382.74,-244.29"/>
<polygon fill="black" stroke="black" points="385.61,-246.3 389.12,-236.3 380.14,-241.93 385.61,-246.3"/>
</g>
<!-- JsDocGenerator&#45;node_modules -->
<g id="node11" class="node">
<title>JsDocGenerator&#45;node_modules</title>
<polygon fill="lightgrey" stroke="transparent" points="224.5,-179.5 224.5,-198.5 316.5,-198.5 316.5,-179.5 224.5,-179.5"/>
<text text-anchor="start" x="226.5" y="-186.3" font-family="Times New Roman,serif" font-weight="bold" font-size="14.00">node_modules</text>
<text text-anchor="start" x="241.5" y="-167.3" font-family="Times New Roman,serif" font-style="italic" font-size="14.00" fill="red">fs</text>
<text text-anchor="start" x="251.5" y="-167.3" font-family="Times New Roman,serif" font-size="14.00"> (fs)</text>
<text text-anchor="start" x="226.5" y="-153.3" font-family="Times New Roman,serif" font-style="italic" font-size="14.00" fill="red">path</text>
<text text-anchor="start" x="253.5" y="-153.3" font-family="Times New Roman,serif" font-size="14.00"> (path)</text>
<polygon fill="none" stroke="black" points="223.5,-147 223.5,-200 317.5,-200 317.5,-147 223.5,-147"/>
</g>
<!-- JsDocGenerator&#45;&gt;JsDocGenerator&#45;node_modules -->
<g id="edge5" class="edge">
<title>JsDocGenerator&#45;&gt;JsDocGenerator&#45;node_modules</title>
<path fill="none" stroke="black" d="M275.28,-311.97C274.16,-279.88 272.85,-242.04 271.88,-214.19"/>
<polygon fill="black" stroke="black" points="275.37,-213.91 271.53,-204.04 268.38,-214.16 275.37,-213.91"/>
</g>
<!-- TypeDocGenerator&#45;&gt;dep&#45;graph -->
<g id="edge15" class="edge">
<title>TypeDocGenerator&#45;&gt;dep&#45;graph</title>
<path fill="none" stroke="black" d="M661.22,-482.15C671.15,-642.38 670.11,-953.86 541.5,-1174 535.33,-1184.56 527.28,-1194.24 518.32,-1202.98"/>
<polygon fill="black" stroke="black" points="515.93,-1200.43 510.96,-1209.79 520.68,-1205.57 515.93,-1200.43"/>
</g>
<!-- TypeDocGenerator&#45;&gt;DocumentationProcessor -->
<g id="edge16" class="edge">
<title>TypeDocGenerator&#45;&gt;DocumentationProcessor</title>
<path fill="none" stroke="black" d="M556.49,-280.57C553.47,-277.67 550.47,-274.81 547.5,-272 537.48,-262.52 526.81,-252.68 516.21,-243.05"/>
<polygon fill="black" stroke="black" points="518.27,-240.2 508.51,-236.08 513.58,-245.39 518.27,-240.2"/>
</g>
<!-- TypeDocGenerator&#45;node_modules -->
<g id="node13" class="node">
<title>TypeDocGenerator&#45;node_modules</title>
<polygon fill="lightgrey" stroke="transparent" points="581.5,-193.5 581.5,-212.5 722.5,-212.5 722.5,-193.5 581.5,-193.5"/>
<text text-anchor="start" x="608" y="-200.3" font-family="Times New Roman,serif" font-weight="bold" font-size="14.00">node_modules</text>
<text text-anchor="start" x="588" y="-181.3" font-family="Times New Roman,serif" font-style="italic" font-size="14.00" fill="red">child_process</text>
<text text-anchor="start" x="667" y="-181.3" font-family="Times New Roman,serif" font-size="14.00"> (spawn)</text>
<text text-anchor="start" x="583.5" y="-167.3" font-family="Times New Roman,serif" font-style="italic" font-size="14.00" fill="red">deepmerge</text>
<text text-anchor="start" x="646.5" y="-167.3" font-family="Times New Roman,serif" font-size="14.00"> (deepmerge)</text>
<text text-anchor="start" x="635" y="-153.3" font-family="Times New Roman,serif" font-style="italic" font-size="14.00" fill="red">fs</text>
<text text-anchor="start" x="645" y="-153.3" font-family="Times New Roman,serif" font-size="14.00"> (fs)</text>
<text text-anchor="start" x="620" y="-139.3" font-family="Times New Roman,serif" font-style="italic" font-size="14.00" fill="red">path</text>
<text text-anchor="start" x="647" y="-139.3" font-family="Times New Roman,serif" font-size="14.00"> (path)</text>
<polygon fill="none" stroke="black" points="580,-133 580,-214 723,-214 723,-133 580,-133"/>
</g>
<!-- TypeDocGenerator&#45;&gt;TypeDocGenerator&#45;node_modules -->
<g id="edge6" class="edge">
<title>TypeDocGenerator&#45;&gt;TypeDocGenerator&#45;node_modules</title>
<path fill="none" stroke="black" d="M651.5,-271.71C651.5,-256.86 651.5,-242.11 651.5,-228.76"/>
<polygon fill="black" stroke="black" points="655,-228.37 651.5,-218.37 648,-228.37 655,-228.37"/>
</g>
</g>
</svg>
