<?xml version="1.0" encoding="UTF-8" standalone="no"?>
<!DOCTYPE svg PUBLIC "-//W3C//DTD SVG 1.1//EN"
 "http://www.w3.org/Graphics/SVG/1.1/DTD/svg11.dtd">
<!-- Generated by graphviz version 3.0.0 (20220226.1711)
 -->
<!-- Pages: 1 -->
<svg width="782pt" height="1365pt"
 viewBox="0.00 0.00 782.00 1365.00" xmlns="http://www.w3.org/2000/svg" xmlns:xlink="http://www.w3.org/1999/xlink">
<g id="graph0" class="graph" transform="scale(1 1) rotate(0) translate(4 1361)">
<polygon fill="white" stroke="transparent" points="-4,4 -4,-1361 778,-1361 778,4 -4,4"/>
<text text-anchor="middle" x="387" y="-1341.8" font-family="Times New Roman,serif" font-size="14.00"> Module Exports</text>
<!-- dep&#45;graph -->
<g id="node1" class="node">
<title>dep&#45;graph</title>
<polygon fill="lightblue" stroke="transparent" points="152.5,-1205 152.5,-1224 326.5,-1224 326.5,-1205 152.5,-1205"/>
<text text-anchor="start" x="208" y="-1211.8" font-family="Times New Roman,serif" font-weight="bold" font-size="14.00">dep&#45;graph</text>
<polyline fill="none" stroke="black" points="152.5,-1184 326.5,-1184 "/>
<polyline fill="none" stroke="black" points="326.5,-1205 152.5,-1205 "/>
<text text-anchor="start" x="155.5" y="-1190.8" font-family="Times New Roman,serif" font-size="14.00">runProgram</text>
<polyline fill="none" stroke="black" points="152.5,-1150 326.5,-1150 "/>
<polyline fill="none" stroke="black" points="326.5,-1184 152.5,-1184 "/>
<text text-anchor="start" x="155.5" y="-1170.8" font-family="Times New Roman,serif" font-style="italic" font-size="14.00" fill="red">DependencyGraphGenerator</text>
<text text-anchor="start" x="159" y="-1156.8" font-family="Times New Roman,serif" font-size="14.00">DependencyGraphGenerator</text>
<polygon fill="none" stroke="black" points="151.5,-1149 151.5,-1225 327.5,-1225 327.5,-1149 151.5,-1149"/>
</g>
<!-- dep&#45;graph&#45;node_modules -->
<g id="node2" class="node">
<title>dep&#45;graph&#45;node_modules</title>
<polygon fill="lightgrey" stroke="transparent" points="53.5,-851.5 53.5,-870.5 215.5,-870.5 215.5,-851.5 53.5,-851.5"/>
<text text-anchor="start" x="90.5" y="-858.3" font-family="Times New Roman,serif" font-weight="bold" font-size="14.00">node_modules</text>
<text text-anchor="start" x="64.5" y="-839.3" font-family="Times New Roman,serif" font-style="italic" font-size="14.00" fill="red">commander</text>
<text text-anchor="start" x="132.5" y="-839.3" font-family="Times New Roman,serif" font-size="14.00"> (Command)</text>
<text text-anchor="start" x="74.5" y="-825.3" font-family="Times New Roman,serif" font-style="italic" font-size="14.00" fill="red">commander</text>
<text text-anchor="start" x="142.5" y="-825.3" font-family="Times New Roman,serif" font-size="14.00"> (Option)</text>
<text text-anchor="start" x="55.5" y="-811.3" font-family="Times New Roman,serif" font-style="italic" font-size="14.00" fill="red">commander</text>
<text text-anchor="start" x="123.5" y="-811.3" font-family="Times New Roman,serif" font-size="14.00"> (OptionValues)</text>
<text text-anchor="start" x="117.5" y="-797.3" font-family="Times New Roman,serif" font-style="italic" font-size="14.00" fill="red">fs</text>
<text text-anchor="start" x="127.5" y="-797.3" font-family="Times New Roman,serif" font-size="14.00"> (fs)</text>
<text text-anchor="start" x="102.5" y="-783.3" font-family="Times New Roman,serif" font-style="italic" font-size="14.00" fill="red">path</text>
<text text-anchor="start" x="129.5" y="-783.3" font-family="Times New Roman,serif" font-size="14.00"> (path)</text>
<polygon fill="none" stroke="black" points="52.5,-777 52.5,-872 216.5,-872 216.5,-777 52.5,-777"/>
</g>
<!-- dep&#45;graph&#45;&gt;dep&#45;graph&#45;node_modules -->
<g id="edge1" class="edge">
<title>dep&#45;graph&#45;&gt;dep&#45;graph&#45;node_modules</title>
<path fill="none" stroke="black" d="M227.56,-1145C209.13,-1081.72 173.65,-959.91 152.22,-886.34"/>
<polygon fill="black" stroke="black" points="155.45,-884.91 149.29,-876.29 148.73,-886.87 155.45,-884.91"/>
</g>
<!-- DependencyGraphGenerator -->
<g id="node3" class="node">
<title>DependencyGraphGenerator</title>
<polygon fill="lightblue" stroke="transparent" points="252.5,-1084.5 252.5,-1103.5 437.5,-1103.5 437.5,-1084.5 252.5,-1084.5"/>
<text text-anchor="start" x="256" y="-1091.3" font-family="Times New Roman,serif" font-weight="bold" font-size="14.00">DependencyGraphGenerator</text>
<polyline fill="none" stroke="black" points="252.5,-1048.5 437.5,-1048.5 "/>
<polyline fill="none" stroke="black" points="437.5,-1084.5 252.5,-1084.5 "/>
<text text-anchor="start" x="255.5" y="-1070.3" font-family="Times New Roman,serif" font-size="14.00">DependencyGraphGenerator</text>
<text text-anchor="start" x="301.5" y="-1055.3" font-family="Times New Roman,serif" font-size="14.00">DggOptions</text>
<polyline fill="none" stroke="black" points="252.5,-1014.5 437.5,-1014.5 "/>
<polyline fill="none" stroke="black" points="437.5,-1048.5 252.5,-1048.5 "/>
<text text-anchor="start" x="255.5" y="-1035.3" font-family="Times New Roman,serif" font-style="italic" font-size="14.00" fill="red">DocumentationGenerator</text>
<text text-anchor="start" x="258.5" y="-1021.3" font-family="Times New Roman,serif" font-size="14.00">DocumentationGenerator</text>
<polyline fill="none" stroke="black" points="252.5,-980.5 437.5,-980.5 "/>
<polyline fill="none" stroke="black" points="437.5,-1014.5 252.5,-1014.5 "/>
<text text-anchor="start" x="255.5" y="-1001.3" font-family="Times New Roman,serif" font-style="italic" font-size="14.00" fill="red">GraphvizProcessor</text>
<text text-anchor="start" x="255.5" y="-987.3" font-family="Times New Roman,serif" font-size="14.00">GraphvizProcessor</text>
<polyline fill="none" stroke="black" points="252.5,-906.5 437.5,-906.5 "/>
<polyline fill="none" stroke="black" points="437.5,-980.5 252.5,-980.5 "/>
<text text-anchor="start" x="263.5" y="-968.3" font-family="Times New Roman,serif" font-style="italic" font-size="14.00" fill="red">ast/ASTProcessor</text>
<text text-anchor="start" x="271" y="-954.3" font-family="Times New Roman,serif" font-size="14.00">ASTProcessor</text>
<text text-anchor="start" x="254.5" y="-940.3" font-family="Times New Roman,serif" font-style="italic" font-size="14.00" fill="red">ast/SharedInterfaces</text>
<text text-anchor="start" x="280" y="-926.3" font-family="Times New Roman,serif" font-size="14.00">ModuleInfo</text>
<text text-anchor="start" x="257.5" y="-912.3" font-family="Times New Roman,serif" font-size="14.00">ProcessedASTData</text>
<polyline fill="none" stroke="black" points="252.5,-846.5 437.5,-846.5 "/>
<polyline fill="none" stroke="black" points="437.5,-906.5 252.5,-906.5 "/>
<text text-anchor="start" x="254.5" y="-894.3" font-family="Times New Roman,serif" font-style="italic" font-size="14.00" fill="red">generators/DiagramsGenerator</text>
<text text-anchor="start" x="290.5" y="-880.3" font-family="Times New Roman,serif" font-size="14.00">DiagramsGenerator</text>
<text text-anchor="start" x="269" y="-866.3" font-family="Times New Roman,serif" font-style="italic" font-size="14.00" fill="red">generators/HtmlGenerator</text>
<text text-anchor="start" x="303.5" y="-852.3" font-family="Times New Roman,serif" font-size="14.00">HtmlGenerator</text>
<polyline fill="none" stroke="black" points="252.5,-674.5 437.5,-674.5 "/>
<polyline fill="none" stroke="black" points="437.5,-846.5 252.5,-846.5 "/>
<text text-anchor="start" x="271" y="-834.3" font-family="Times New Roman,serif" font-style="italic" font-size="14.00" fill="red">graphs/ClassDiagram</text>
<text text-anchor="start" x="296.5" y="-820.3" font-family="Times New Roman,serif" font-size="14.00">ClassDiagram</text>
<text text-anchor="start" x="275" y="-806.3" font-family="Times New Roman,serif" font-style="italic" font-size="14.00" fill="red">graphs/ExportGraph</text>
<text text-anchor="start" x="298.5" y="-792.3" font-family="Times New Roman,serif" font-size="14.00">ExportGraph</text>
<text text-anchor="start" x="264.5" y="-778.3" font-family="Times New Roman,serif" font-style="italic" font-size="14.00" fill="red">graphs/GraphGenerator</text>
<text text-anchor="start" x="277.5" y="-764.3" font-family="Times New Roman,serif" font-size="14.00">IGraphFileGenerator</text>
<text text-anchor="start" x="254.5" y="-750.3" font-family="Times New Roman,serif" font-style="italic" font-size="14.00" fill="red">graphs/NodeModulesGraph</text>
<text text-anchor="start" x="278" y="-736.3" font-family="Times New Roman,serif" font-size="14.00">NodeModulesGraph</text>
<text text-anchor="start" x="269" y="-722.3" font-family="Times New Roman,serif" font-style="italic" font-size="14.00" fill="red">graphs/PackageGraph</text>
<text text-anchor="start" x="294.5" y="-708.3" font-family="Times New Roman,serif" font-size="14.00">PackageGraph</text>
<text text-anchor="start" x="267.5" y="-694.3" font-family="Times New Roman,serif" font-style="italic" font-size="14.00" fill="red">graphs/RelationsGraph</text>
<text text-anchor="start" x="291.5" y="-680.3" font-family="Times New Roman,serif" font-size="14.00">RelationsGraph</text>
<polyline fill="none" stroke="black" points="252.5,-544.5 437.5,-544.5 "/>
<polyline fill="none" stroke="black" points="437.5,-674.5 252.5,-674.5 "/>
<text text-anchor="start" x="284" y="-662.3" font-family="Times New Roman,serif" font-style="italic" font-size="14.00" fill="red">utils/file&#45;utils</text>
<text text-anchor="start" x="284" y="-648.3" font-family="Times New Roman,serif" font-size="14.00">safeWriteFile</text>
<text text-anchor="start" x="263.5" y="-634.3" font-family="Times New Roman,serif" font-size="14.00">getRelativePathParts</text>
<text text-anchor="start" x="254.5" y="-620.3" font-family="Times New Roman,serif" font-size="14.00">getDirectoriesRecursive</text>
<text text-anchor="start" x="299.5" y="-606.3" font-family="Times New Roman,serif" font-size="14.00">getFiles</text>
<text text-anchor="start" x="287.5" y="-592.3" font-family="Times New Roman,serif" font-size="14.00">getFilename</text>
<text text-anchor="start" x="270" y="-578.3" font-family="Times New Roman,serif" font-size="14.00">getGraphFilename</text>
<text text-anchor="start" x="295" y="-564.3" font-family="Times New Roman,serif" font-style="italic" font-size="14.00" fill="red">utils/json</text>
<text text-anchor="start" x="298.5" y="-550.3" font-family="Times New Roman,serif" font-size="14.00">jsonOut</text>
<polygon fill="none" stroke="black" points="251,-544 251,-1105 438,-1105 438,-544 251,-544"/>
</g>
<!-- dep&#45;graph&#45;&gt;DependencyGraphGenerator -->
<g id="edge7" class="edge">
<title>dep&#45;graph&#45;&gt;DependencyGraphGenerator</title>
<path fill="none" stroke="black" d="M251.44,-1145C253.74,-1137.11 256.3,-1128.31 259.07,-1118.81"/>
<polygon fill="black" stroke="black" points="262.47,-1119.66 261.9,-1109.08 255.75,-1117.7 262.47,-1119.66"/>
</g>
<!-- DependencyGraphGenerator&#45;node_modules -->
<g id="node4" class="node">
<title>DependencyGraphGenerator&#45;node_modules</title>
<polygon fill="lightgrey" stroke="transparent" points="135.5,-412.5 135.5,-431.5 227.5,-431.5 227.5,-412.5 135.5,-412.5"/>
<text text-anchor="start" x="137.5" y="-419.3" font-family="Times New Roman,serif" font-weight="bold" font-size="14.00">node_modules</text>
<text text-anchor="start" x="152.5" y="-400.3" font-family="Times New Roman,serif" font-style="italic" font-size="14.00" fill="red">fs</text>
<text text-anchor="start" x="162.5" y="-400.3" font-family="Times New Roman,serif" font-size="14.00"> (fs)</text>
<text text-anchor="start" x="137.5" y="-386.3" font-family="Times New Roman,serif" font-style="italic" font-size="14.00" fill="red">path</text>
<text text-anchor="start" x="164.5" y="-386.3" font-family="Times New Roman,serif" font-size="14.00"> (path)</text>
<polygon fill="none" stroke="black" points="134.5,-380 134.5,-433 228.5,-433 228.5,-380 134.5,-380"/>
</g>
<!-- DependencyGraphGenerator&#45;&gt;DependencyGraphGenerator&#45;node_modules -->
<g id="edge2" class="edge">
<title>DependencyGraphGenerator&#45;&gt;DependencyGraphGenerator&#45;node_modules</title>
<path fill="none" stroke="black" d="M242.88,-563.94C239.72,-555.87 236.59,-547.87 233.5,-540 221.22,-508.68 207.3,-473.21 196.96,-446.86"/>
<polygon fill="black" stroke="black" points="200.09,-445.26 193.18,-437.23 193.57,-447.82 200.09,-445.26"/>
</g>
<!-- DocumentationGenerator -->
<g id="node5" class="node">
<title>DocumentationGenerator</title>
<polygon fill="lightblue" stroke="transparent" points="264.5,-479.5 264.5,-498.5 425.5,-498.5 425.5,-479.5 264.5,-479.5"/>
<text text-anchor="start" x="266.5" y="-486.3" font-family="Times New Roman,serif" font-weight="bold" font-size="14.00">DocumentationGenerator</text>
<polyline fill="none" stroke="black" points="264.5,-413.5 425.5,-413.5 "/>
<polyline fill="none" stroke="black" points="425.5,-479.5 264.5,-479.5 "/>
<text text-anchor="start" x="267.5" y="-465.3" font-family="Times New Roman,serif" font-size="14.00">DocumentationGenerator</text>
<text text-anchor="start" x="300" y="-450.3" font-family="Times New Roman,serif" font-size="14.00">JSDocConfig</text>
<text text-anchor="start" x="286" y="-435.3" font-family="Times New Roman,serif" font-size="14.00">JSDocOptsConfig</text>
<text text-anchor="start" x="280" y="-420.3" font-family="Times New Roman,serif" font-size="14.00">JSDocSourceConfig</text>
<polyline fill="none" stroke="black" points="264.5,-379.5 425.5,-379.5 "/>
<polyline fill="none" stroke="black" points="425.5,-413.5 264.5,-413.5 "/>
<text text-anchor="start" x="267.5" y="-400.3" font-family="Times New Roman,serif" font-style="italic" font-size="14.00" fill="red">JsDocGenerator</text>
<text text-anchor="start" x="269" y="-386.3" font-family="Times New Roman,serif" font-size="14.00">JsDocGenerator</text>
<polyline fill="none" stroke="black" points="264.5,-345.5 425.5,-345.5 "/>
<polyline fill="none" stroke="black" points="425.5,-379.5 264.5,-379.5 "/>
<text text-anchor="start" x="267.5" y="-366.3" font-family="Times New Roman,serif" font-style="italic" font-size="14.00" fill="red">TypeDocGenerator</text>
<text text-anchor="start" x="268" y="-352.3" font-family="Times New Roman,serif" font-size="14.00">TypeDocGenerator</text>
<polyline fill="none" stroke="black" points="264.5,-313.5 425.5,-313.5 "/>
<polyline fill="none" stroke="black" points="425.5,-345.5 264.5,-345.5 "/>
<text text-anchor="start" x="266.5" y="-333.3" font-family="Times New Roman,serif" font-style="italic" font-size="14.00" fill="red">ast/SharedInterfaces</text>
<text text-anchor="start" x="292" y="-319.3" font-family="Times New Roman,serif" font-size="14.00">ModuleInfo</text>
<polygon fill="none" stroke="black" points="263,-313 263,-500 426,-500 426,-313 263,-313"/>
</g>
<!-- DependencyGraphGenerator&#45;&gt;DocumentationGenerator -->
<g id="edge8" class="edge">
<title>DependencyGraphGenerator&#45;&gt;DocumentationGenerator</title>
<path fill="none" stroke="black" d="M344.5,-539.98C344.5,-531.3 344.5,-522.82 344.5,-514.61"/>
<polygon fill="black" stroke="black" points="348,-514.38 344.5,-504.38 341,-514.38 348,-514.38"/>
</g>
<!-- GraphvizProcessor -->
<g id="node7" class="node">
<title>GraphvizProcessor</title>
<polygon fill="lightblue" stroke="transparent" points="565.5,-407.5 565.5,-426.5 687.5,-426.5 687.5,-407.5 565.5,-407.5"/>
<text text-anchor="start" x="567.5" y="-414.3" font-family="Times New Roman,serif" font-weight="bold" font-size="14.00">GraphvizProcessor</text>
<polyline fill="none" stroke="black" points="565.5,-386.5 687.5,-386.5 "/>
<polyline fill="none" stroke="black" points="687.5,-407.5 565.5,-407.5 "/>
<text text-anchor="start" x="568.5" y="-393.3" font-family="Times New Roman,serif" font-size="14.00">GraphvizProcessor</text>
<polygon fill="none" stroke="black" points="564.5,-385.5 564.5,-427.5 688.5,-427.5 688.5,-385.5 564.5,-385.5"/>
</g>
<!-- DependencyGraphGenerator&#45;&gt;GraphvizProcessor -->
<g id="edge9" class="edge">
<title>DependencyGraphGenerator&#45;&gt;GraphvizProcessor</title>
<path fill="none" stroke="black" d="M446.11,-673.61C503.58,-588.83 570.55,-490.04 604.43,-440.05"/>
<polygon fill="black" stroke="black" points="607.46,-441.83 610.17,-431.59 601.66,-437.9 607.46,-441.83"/>
</g>
<!-- DocumentationGenerator&#45;node_modules -->
<g id="node6" class="node">
<title>DocumentationGenerator&#45;node_modules</title>
<polygon fill="lightgrey" stroke="transparent" points="9.5,-205 9.5,-224 180.5,-224 180.5,-205 9.5,-205"/>
<text text-anchor="start" x="51" y="-211.8" font-family="Times New Roman,serif" font-weight="bold" font-size="14.00">node_modules</text>
<text text-anchor="start" x="11.5" y="-192.8" font-family="Times New Roman,serif" font-style="italic" font-size="14.00" fill="red">child_process</text>
<text text-anchor="start" x="90.5" y="-192.8" font-family="Times New Roman,serif" font-size="14.00"> (ChildProcess)</text>
<text text-anchor="start" x="31" y="-178.8" font-family="Times New Roman,serif" font-style="italic" font-size="14.00" fill="red">child_process</text>
<text text-anchor="start" x="110" y="-178.8" font-family="Times New Roman,serif" font-size="14.00"> (spawn)</text>
<polygon fill="none" stroke="black" points="8,-172.5 8,-225.5 181,-225.5 181,-172.5 8,-172.5"/>
</g>
<!-- DocumentationGenerator&#45;&gt;DocumentationGenerator&#45;node_modules -->
<g id="edge3" class="edge">
<title>DocumentationGenerator&#45;&gt;DocumentationGenerator&#45;node_modules</title>
<path fill="none" stroke="black" d="M254.92,-317.08C251.77,-314.33 248.62,-311.63 245.5,-309 236.09,-301.09 184.61,-264.14 144.34,-235.42"/>
<polygon fill="black" stroke="black" points="146.37,-232.57 136.19,-229.62 142.3,-238.27 146.37,-232.57"/>
</g>
<!-- JsDocGenerator -->
<g id="node10" class="node">
<title>JsDocGenerator</title>
<polygon fill="lightblue" stroke="transparent" points="216.5,-247 216.5,-266 369.5,-266 369.5,-247 216.5,-247"/>
<text text-anchor="start" x="241.5" y="-253.8" font-family="Times New Roman,serif" font-weight="bold" font-size="14.00">JsDocGenerator</text>
<polyline fill="none" stroke="black" points="216.5,-226 369.5,-226 "/>
<polyline fill="none" stroke="black" points="369.5,-247 216.5,-247 "/>
<text text-anchor="start" x="219.5" y="-232.8" font-family="Times New Roman,serif" font-size="14.00">JsDocGenerator</text>
<polyline fill="none" stroke="black" points="216.5,-164 369.5,-164 "/>
<polyline fill="none" stroke="black" points="369.5,-226 216.5,-226 "/>
<text text-anchor="start" x="219.5" y="-212.8" font-family="Times New Roman,serif" font-style="italic" font-size="14.00" fill="red">DocumentationGenerator</text>
<text text-anchor="start" x="255" y="-198.8" font-family="Times New Roman,serif" font-size="14.00">JSDocConfig</text>
<text text-anchor="start" x="241" y="-184.8" font-family="Times New Roman,serif" font-size="14.00">JSDocOptsConfig</text>
<text text-anchor="start" x="222.5" y="-170.8" font-family="Times New Roman,serif" font-size="14.00">DocumentationGenerator</text>
<polyline fill="none" stroke="black" points="216.5,-132 369.5,-132 "/>
<polyline fill="none" stroke="black" points="369.5,-164 216.5,-164 "/>
<text text-anchor="start" x="218.5" y="-151.8" font-family="Times New Roman,serif" font-style="italic" font-size="14.00" fill="red">ast/SharedInterfaces</text>
<text text-anchor="start" x="244" y="-137.8" font-family="Times New Roman,serif" font-size="14.00">ModuleInfo</text>
<polygon fill="none" stroke="black" points="215,-131 215,-267 370,-267 370,-131 215,-131"/>
</g>
<!-- DocumentationGenerator&#45;&gt;JsDocGenerator -->
<g id="edge10" class="edge">
<title>DocumentationGenerator&#45;&gt;JsDocGenerator</title>
<path fill="none" stroke="black" d="M313.28,-308.77C310.89,-299.44 308.56,-290.05 306.36,-280.9"/>
<polygon fill="black" stroke="black" points="309.74,-280 304.03,-271.08 302.93,-281.61 309.74,-280"/>
</g>
<!-- TypeDocGenerator -->
<g id="node12" class="node">
<title>TypeDocGenerator</title>
<polygon fill="lightblue" stroke="transparent" points="405.5,-249 405.5,-268 558.5,-268 558.5,-249 405.5,-249"/>
<text text-anchor="start" x="422" y="-255.8" font-family="Times New Roman,serif" font-weight="bold" font-size="14.00">TypeDocGenerator</text>
<polyline fill="none" stroke="black" points="405.5,-228 558.5,-228 "/>
<polyline fill="none" stroke="black" points="558.5,-249 405.5,-249 "/>
<text text-anchor="start" x="408.5" y="-234.8" font-family="Times New Roman,serif" font-size="14.00">TypeDocGenerator</text>
<polyline fill="none" stroke="black" points="405.5,-194 558.5,-194 "/>
<polyline fill="none" stroke="black" points="558.5,-228 405.5,-228 "/>
<text text-anchor="start" x="408.5" y="-214.8" font-family="Times New Roman,serif" font-style="italic" font-size="14.00" fill="red">DocumentationGenerator</text>
<text text-anchor="start" x="411.5" y="-200.8" font-family="Times New Roman,serif" font-size="14.00">DocumentationGenerator</text>
<polyline fill="none" stroke="black" points="405.5,-162 558.5,-162 "/>
<polyline fill="none" stroke="black" points="558.5,-194 405.5,-194 "/>
<text text-anchor="start" x="407.5" y="-181.8" font-family="Times New Roman,serif" font-style="italic" font-size="14.00" fill="red">ast/SharedInterfaces</text>
<text text-anchor="start" x="433" y="-167.8" font-family="Times New Roman,serif" font-size="14.00">ModuleInfo</text>
<polyline fill="none" stroke="black" points="405.5,-130 558.5,-130 "/>
<polyline fill="none" stroke="black" points="558.5,-162 405.5,-162 "/>
<text text-anchor="start" x="407.5" y="-149.8" font-family="Times New Roman,serif" font-style="italic" font-size="14.00" fill="red">utils/file&#45;utils</text>
<text text-anchor="start" x="411" y="-135.8" font-family="Times New Roman,serif" font-size="14.00">getFilename</text>
<polygon fill="none" stroke="black" points="404,-129 404,-269 559,-269 559,-129 404,-129"/>
</g>
<!-- DocumentationGenerator&#45;&gt;TypeDocGenerator -->
<g id="edge11" class="edge">
<title>DocumentationGenerator&#45;&gt;TypeDocGenerator</title>
<path fill="none" stroke="black" d="M402.25,-308.77C408.27,-299.7 414.4,-290.56 420.45,-281.65"/>
<polygon fill="black" stroke="black" points="423.48,-283.41 426.22,-273.18 417.7,-279.47 423.48,-283.41"/>
</g>
<!-- GraphvizProcessor&#45;node_modules -->
<g id="node8" class="node">
<title>GraphvizProcessor&#45;node_modules</title>
<polygon fill="lightgrey" stroke="transparent" points="594.5,-212 594.5,-231 765.5,-231 765.5,-212 594.5,-212"/>
<text text-anchor="start" x="636" y="-218.8" font-family="Times New Roman,serif" font-weight="bold" font-size="14.00">node_modules</text>
<text text-anchor="start" x="616" y="-199.8" font-family="Times New Roman,serif" font-style="italic" font-size="14.00" fill="red">child_process</text>
<text text-anchor="start" x="695" y="-199.8" font-family="Times New Roman,serif" font-size="14.00"> (spawn)</text>
<text text-anchor="start" x="596.5" y="-185.8" font-family="Times New Roman,serif" font-style="italic" font-size="14.00" fill="red">child_process</text>
<text text-anchor="start" x="675.5" y="-185.8" font-family="Times New Roman,serif" font-size="14.00"> (ChildProcess)</text>
<text text-anchor="start" x="663" y="-171.8" font-family="Times New Roman,serif" font-style="italic" font-size="14.00" fill="red">fs</text>
<text text-anchor="start" x="673" y="-171.8" font-family="Times New Roman,serif" font-size="14.00"> (fs)</text>
<polygon fill="none" stroke="black" points="593,-165.5 593,-232.5 766,-232.5 766,-165.5 593,-165.5"/>
</g>
<!-- GraphvizProcessor&#45;&gt;GraphvizProcessor&#45;node_modules -->
<g id="edge4" class="edge">
<title>GraphvizProcessor&#45;&gt;GraphvizProcessor&#45;node_modules</title>
<path fill="none" stroke="black" d="M632.79,-381.12C641.32,-348.05 656.72,-288.31 667.5,-246.51"/>
<polygon fill="black" stroke="black" points="670.89,-247.39 670,-236.83 664.12,-245.64 670.89,-247.39"/>
</g>
<!-- index -->
<g id="node9" class="node">
<title>index</title>
<polygon fill="lightblue" stroke="transparent" points="203.5,-1309.5 203.5,-1328.5 276.5,-1328.5 276.5,-1309.5 203.5,-1309.5"/>
<text text-anchor="start" x="223.5" y="-1316.3" font-family="Times New Roman,serif" font-weight="bold" font-size="14.00">index</text>
<polyline fill="none" stroke="black" points="203.5,-1303.5 276.5,-1303.5 "/>
<polyline fill="none" stroke="black" points="276.5,-1309.5 203.5,-1309.5 "/>
<polyline fill="none" stroke="black" points="203.5,-1269.5 276.5,-1269.5 "/>
<polyline fill="none" stroke="black" points="276.5,-1303.5 203.5,-1303.5 "/>
<text text-anchor="start" x="209.5" y="-1290.3" font-family="Times New Roman,serif" font-style="italic" font-size="14.00" fill="red">dep&#45;graph</text>
<text text-anchor="start" x="206.5" y="-1276.3" font-family="Times New Roman,serif" font-size="14.00">runProgram</text>
<polygon fill="none" stroke="black" points="202,-1269 202,-1330 277,-1330 277,-1269 202,-1269"/>
</g>
<!-- index&#45;&gt;dep&#45;graph -->
<g id="edge12" class="edge">
<title>index&#45;&gt;dep&#45;graph</title>
<path fill="none" stroke="black" d="M239.5,-1264.75C239.5,-1256.72 239.5,-1247.97 239.5,-1239.35"/>
<polygon fill="black" stroke="black" points="243,-1239.34 239.5,-1229.34 236,-1239.34 243,-1239.34"/>
</g>
<!-- JsDocGenerator&#45;&gt;DocumentationGenerator -->
<g id="edge13" class="edge">
<title>JsDocGenerator&#45;&gt;DocumentationGenerator</title>
<path fill="none" stroke="black" d="M316.94,-271.08C319.4,-280.11 321.87,-289.5 324.28,-298.93"/>
<polygon fill="black" stroke="black" points="320.92,-299.93 326.76,-308.77 327.71,-298.21 320.92,-299.93"/>
</g>
<!-- JsDocGenerator&#45;node_modules -->
<g id="node11" class="node">
<title>JsDocGenerator&#45;node_modules</title>
<polygon fill="lightgrey" stroke="transparent" points="246.5,-50.5 246.5,-69.5 338.5,-69.5 338.5,-50.5 246.5,-50.5"/>
<text text-anchor="start" x="248.5" y="-57.3" font-family="Times New Roman,serif" font-weight="bold" font-size="14.00">node_modules</text>
<text text-anchor="start" x="263.5" y="-38.3" font-family="Times New Roman,serif" font-style="italic" font-size="14.00" fill="red">fs</text>
<text text-anchor="start" x="273.5" y="-38.3" font-family="Times New Roman,serif" font-size="14.00"> (fs)</text>
<text text-anchor="start" x="248.5" y="-24.3" font-family="Times New Roman,serif" font-style="italic" font-size="14.00" fill="red">path</text>
<text text-anchor="start" x="275.5" y="-24.3" font-family="Times New Roman,serif" font-size="14.00"> (path)</text>
<polygon fill="none" stroke="black" points="245.5,-18 245.5,-71 339.5,-71 339.5,-18 245.5,-18"/>
</g>
<!-- JsDocGenerator&#45;&gt;JsDocGenerator&#45;node_modules -->
<g id="edge5" class="edge">
<title>JsDocGenerator&#45;&gt;JsDocGenerator&#45;node_modules</title>
<path fill="none" stroke="black" d="M292.5,-126.66C292.5,-112.49 292.5,-98.09 292.5,-85.43"/>
<polygon fill="black" stroke="black" points="296,-85.26 292.5,-75.26 289,-85.26 296,-85.26"/>
</g>
<!-- TypeDocGenerator&#45;&gt;DocumentationGenerator -->
<g id="edge14" class="edge">
<title>TypeDocGenerator&#45;&gt;DocumentationGenerator</title>
<path fill="none" stroke="black" d="M439.21,-273.18C433.48,-282.01 427.46,-291.16 421.35,-300.34"/>
<polygon fill="black" stroke="black" points="418.37,-298.51 415.73,-308.77 424.19,-302.39 418.37,-298.51"/>
</g>
<!-- TypeDocGenerator&#45;node_modules -->
<g id="node13" class="node">
<title>TypeDocGenerator&#45;node_modules</title>
<polygon fill="lightgrey" stroke="transparent" points="411.5,-64.5 411.5,-83.5 552.5,-83.5 552.5,-64.5 411.5,-64.5"/>
<text text-anchor="start" x="438" y="-71.3" font-family="Times New Roman,serif" font-weight="bold" font-size="14.00">node_modules</text>
<text text-anchor="start" x="418" y="-52.3" font-family="Times New Roman,serif" font-style="italic" font-size="14.00" fill="red">child_process</text>
<text text-anchor="start" x="497" y="-52.3" font-family="Times New Roman,serif" font-size="14.00"> (spawn)</text>
<text text-anchor="start" x="413.5" y="-38.3" font-family="Times New Roman,serif" font-style="italic" font-size="14.00" fill="red">deepmerge</text>
<text text-anchor="start" x="476.5" y="-38.3" font-family="Times New Roman,serif" font-size="14.00"> (deepmerge)</text>
<text text-anchor="start" x="465" y="-24.3" font-family="Times New Roman,serif" font-style="italic" font-size="14.00" fill="red">fs</text>
<text text-anchor="start" x="475" y="-24.3" font-family="Times New Roman,serif" font-size="14.00"> (fs)</text>
<text text-anchor="start" x="450" y="-10.3" font-family="Times New Roman,serif" font-style="italic" font-size="14.00" fill="red">path</text>
<text text-anchor="start" x="477" y="-10.3" font-family="Times New Roman,serif" font-size="14.00"> (path)</text>
<polygon fill="none" stroke="black" points="410,-4 410,-85 553,-85 553,-4 410,-4"/>
</g>
<!-- TypeDocGenerator&#45;&gt;TypeDocGenerator&#45;node_modules -->
<g id="edge6" class="edge">
<title>TypeDocGenerator&#45;&gt;TypeDocGenerator&#45;node_modules</title>
<path fill="none" stroke="black" d="M481.5,-124.88C481.5,-116.28 481.5,-107.62 481.5,-99.36"/>
<polygon fill="black" stroke="black" points="485,-99.12 481.5,-89.12 478,-99.12 485,-99.12"/>
</g>
</g>
</svg>
