<?xml version="1.0" encoding="UTF-8" standalone="no"?>
<!DOCTYPE svg PUBLIC "-//W3C//DTD SVG 1.1//EN"
 "http://www.w3.org/Graphics/SVG/1.1/DTD/svg11.dtd">
<!-- Generated by graphviz version 3.0.0 (20220226.1711)
 -->
<!-- Pages: 1 -->
<svg width="3490pt" height="507pt"
 viewBox="0.00 0.00 3489.50 507.00" xmlns="http://www.w3.org/2000/svg" xmlns:xlink="http://www.w3.org/1999/xlink">
<g id="graph0" class="graph" transform="scale(1 1) rotate(0) translate(4 503)">
<polygon fill="white" stroke="transparent" points="-4,4 -4,-503 3485.5,-503 3485.5,4 -4,4"/>
<text text-anchor="middle" x="1740.75" y="-483.8" font-family="Times New Roman,serif" font-size="14.00">ast Class Diagram</text>
<!-- ASTProcessor -->
<g id="node1" class="node">
<title>ASTProcessor</title>
<polygon fill="lightblue" stroke="transparent" points="9.5,-405.5 9.5,-424.5 220.5,-424.5 220.5,-405.5 9.5,-405.5"/>
<text text-anchor="start" x="11.5" y="-412.3" font-family="Times New Roman,serif" font-weight="bold" font-size="14.00">ASTProcessor : BaseProcessor</text>
<polyline fill="none" stroke="black" points="220.5,-405.5 9.5,-405.5 "/>
<text text-anchor="start" x="83.5" y="-392.3" font-family="Times New Roman,serif" font-weight="bold" font-size="14.00">properties</text>
<text text-anchor="start" x="12.5" y="-378.3" font-family="Times New Roman,serif" font-size="14.00">&#45; importProcessor: ImportProcessor</text>
<text text-anchor="start" x="13" y="-364.3" font-family="Times New Roman,serif" font-size="14.00">&#45; exportProcessor: ExportProcessor</text>
<text text-anchor="start" x="21" y="-350.3" font-family="Times New Roman,serif" font-size="14.00">&#45; classProcessor: ClassProcessor</text>
<text text-anchor="start" x="27.5" y="-336.3" font-family="Times New Roman,serif" font-size="14.00">&#45; errorCollector: ErrorCollector</text>
<polyline fill="none" stroke="black" points="220.5,-329.5 9.5,-329.5 "/>
<text text-anchor="start" x="77" y="-316.3" font-family="Times New Roman,serif" font-weight="bold" font-size="14.00">methods</text>
<text text-anchor="start" x="36" y="-302.3" font-family="Times New Roman,serif" font-size="14.00">+ constructor(baseLoc)</text>
<text text-anchor="start" x="12.5" y="-288.3" font-family="Times New Roman,serif" font-size="14.00">+ processModules(moduleMap)</text>
<polygon fill="none" stroke="black" points="8,-281 8,-426 221,-426 221,-281 8,-281"/>
</g>
<!-- BaseProcessor -->
<g id="node2" class="node">
<title>BaseProcessor</title>
<polygon fill="lightblue" stroke="transparent" points="686.5,-170.5 686.5,-189.5 987.5,-189.5 987.5,-170.5 686.5,-170.5"/>
<text text-anchor="start" x="688.5" y="-177.3" font-family="Times New Roman,serif" font-weight="bold" font-size="14.00">BaseProcessor</text>
<polyline fill="none" stroke="black" points="987.5,-170.5 686.5,-170.5 "/>
<text text-anchor="start" x="707" y="-157.3" font-family="Times New Roman,serif" font-weight="bold" font-size="14.00">properties</text>
<text text-anchor="start" x="689.5" y="-143.3" font-family="Times New Roman,serif" font-size="14.00">+ baseLoc: string</text>
<polyline fill="none" stroke="black" points="987.5,-136.5 686.5,-136.5 "/>
<text text-anchor="start" x="811" y="-123.3" font-family="Times New Roman,serif" font-weight="bold" font-size="14.00">methods</text>
<text text-anchor="start" x="770" y="-109.3" font-family="Times New Roman,serif" font-size="14.00">+ constructor(baseLoc)</text>
<text text-anchor="start" x="723.5" y="-95.3" font-family="Times New Roman,serif" font-size="14.00">+ getParentNode(rootNode, targetNode)</text>
<text text-anchor="start" x="770.5" y="-81.3" font-family="Times New Roman,serif" font-size="14.00">+ skipNode(nodeType)</text>
<text text-anchor="start" x="703" y="-67.3" font-family="Times New Roman,serif" font-size="14.00">+ getAbsolutePath(currentFilePath, relativePath)</text>
<text text-anchor="start" x="742" y="-53.3" font-family="Times New Roman,serif" font-size="14.00">+ formatFunctionParams(params)</text>
<text text-anchor="start" x="689.5" y="-39.3" font-family="Times New Roman,serif" font-size="14.00">+ calRelSrcFile(importingFilePath, importPathValue)</text>
<text text-anchor="start" x="751.5" y="-25.3" font-family="Times New Roman,serif" font-size="14.00">+ countSubstrings(str, subStr)</text>
<text text-anchor="start" x="698" y="-11.3" font-family="Times New Roman,serif" font-size="14.00">+ replaceWithReversedArray(str, subStr, arr, cnt)</text>
<polygon fill="none" stroke="black" points="685,-4 685,-191 988,-191 988,-4 685,-4"/>
</g>
<!-- ASTProcessor&#45;&gt;BaseProcessor -->
<g id="edge1" class="edge">
<title>ASTProcessor&#45;&gt;BaseProcessor</title>
<path fill="none" stroke="black" d="M177.76,-276.72C195.49,-259.46 215.88,-242.77 237.5,-231 370.93,-158.37 541.63,-125.54 666.64,-110.71"/>
<polygon fill="none" stroke="black" points="667.17,-114.17 676.7,-109.54 666.36,-107.22 667.17,-114.17"/>
</g>
<!-- ClassProcessor -->
<g id="node3" class="node">
<title>ClassProcessor</title>
<polygon fill="lightblue" stroke="transparent" points="256.5,-451.5 256.5,-470.5 531.5,-470.5 531.5,-451.5 256.5,-451.5"/>
<text text-anchor="start" x="258.5" y="-458.3" font-family="Times New Roman,serif" font-weight="bold" font-size="14.00">ClassProcessor : BaseProcessor</text>
<polyline fill="none" stroke="black" points="531.5,-451.5 256.5,-451.5 "/>
<text text-anchor="start" x="368" y="-438.3" font-family="Times New Roman,serif" font-weight="bold" font-size="14.00">methods</text>
<text text-anchor="start" x="327" y="-424.3" font-family="Times New Roman,serif" font-size="14.00">+ constructor(baseLoc)</text>
<text text-anchor="start" x="259.5" y="-410.3" font-family="Times New Roman,serif" font-size="14.00">+ extractTypeNameFromHeritageClause(clause)</text>
<text text-anchor="start" x="270.5" y="-396.3" font-family="Times New Roman,serif" font-size="14.00">+ extractSuperClassName(superClassNode)</text>
<text text-anchor="start" x="280" y="-382.3" font-family="Times New Roman,serif" font-size="14.00">+ extractMemberExpressionName(node)</text>
<text text-anchor="start" x="294.5" y="-368.3" font-family="Times New Roman,serif" font-size="14.00">+ extractMethodInfo(methodNode)</text>
<text text-anchor="start" x="312" y="-354.3" font-family="Times New Roman,serif" font-size="14.00">+ getMethodName(keyNode)</text>
<text text-anchor="start" x="289" y="-340.3" font-family="Times New Roman,serif" font-size="14.00">+ extractPropertyInfo(propertyNode)</text>
<text text-anchor="start" x="263" y="-326.3" font-family="Times New Roman,serif" font-size="14.00">+ extractPropertySignatureInfo(propertyNode)</text>
<text text-anchor="start" x="269" y="-312.3" font-family="Times New Roman,serif" font-size="14.00">+ extractMethodSignatureInfo(methodNode)</text>
<text text-anchor="start" x="309.5" y="-298.3" font-family="Times New Roman,serif" font-size="14.00">+ getPropertyName(keyNode)</text>
<text text-anchor="start" x="261" y="-284.3" font-family="Times New Roman,serif" font-size="14.00">+ extractTypeAnnotation(typeAnnotationNode)</text>
<text text-anchor="start" x="322" y="-270.3" font-family="Times New Roman,serif" font-size="14.00">&#45; isNodeExported(parent)</text>
<text text-anchor="start" x="271" y="-256.3" font-family="Times New Roman,serif" font-size="14.00">+ processClassNode(node, parent, filePath)</text>
<text text-anchor="start" x="262" y="-242.3" font-family="Times New Roman,serif" font-size="14.00">+ processInterfaceNode(node, parent, filePath)</text>
<polygon fill="none" stroke="black" points="255,-235 255,-472 532,-472 532,-235 255,-235"/>
</g>
<!-- ClassProcessor&#45;&gt;BaseProcessor -->
<g id="edge2" class="edge">
<title>ClassProcessor&#45;&gt;BaseProcessor</title>
<path fill="none" stroke="black" d="M540.24,-236.77C543.33,-234.8 546.42,-232.88 549.5,-231 586.46,-208.49 627.88,-187.27 667.51,-168.69"/>
<polygon fill="none" stroke="black" points="669.15,-171.79 676.74,-164.39 666.19,-165.44 669.15,-171.79"/>
</g>
<!-- ErrorCollector -->
<g id="node4" class="node">
<title>ErrorCollector</title>
<polygon fill="lightblue" stroke="transparent" points="567.5,-384.5 567.5,-403.5 767.5,-403.5 767.5,-384.5 567.5,-384.5"/>
<text text-anchor="start" x="569.5" y="-391.3" font-family="Times New Roman,serif" font-weight="bold" font-size="14.00">ErrorCollector : BaseProcessor</text>
<polyline fill="none" stroke="black" points="767.5,-384.5 567.5,-384.5 "/>
<text text-anchor="start" x="579" y="-371.3" font-family="Times New Roman,serif" font-weight="bold" font-size="14.00">properties</text>
<text text-anchor="start" x="570.5" y="-357.3" font-family="Times New Roman,serif" font-size="14.00">+ errors: array</text>
<polyline fill="none" stroke="black" points="767.5,-350.5 567.5,-350.5 "/>
<text text-anchor="start" x="611.5" y="-337.3" font-family="Times New Roman,serif" font-weight="bold" font-size="14.00">methods</text>
<text text-anchor="start" x="570.5" y="-323.3" font-family="Times New Roman,serif" font-size="14.00">+ constructor(baseLoc)</text>
<text text-anchor="start" x="582" y="-309.3" font-family="Times New Roman,serif" font-size="14.00">+ addError(file, err)</text>
<polygon fill="none" stroke="black" points="566.5,-302 566.5,-405 768.5,-405 768.5,-302 566.5,-302"/>
</g>
<!-- ErrorCollector&#45;&gt;BaseProcessor -->
<g id="edge3" class="edge">
<title>ErrorCollector&#45;&gt;BaseProcessor</title>
<path fill="none" stroke="black" d="M703.96,-297.7C722.22,-270.25 744.96,-236.07 766.43,-203.82"/>
<polygon fill="none" stroke="black" points="769.52,-205.49 772.15,-195.22 763.69,-201.61 769.52,-205.49"/>
</g>
<!-- DeclarationInfo -->
<g id="node5" class="node">
<title>DeclarationInfo</title>
<polygon fill="lightyellow" stroke="transparent" points="1812.5,-360.5 1812.5,-392.5 1971.5,-392.5 1971.5,-360.5 1812.5,-360.5"/>
<text text-anchor="start" x="1847.5" y="-380.3" font-family="Times New Roman,serif" font-style="italic" font-size="14.00">&lt;&lt;interface&gt;&gt;</text>
<text text-anchor="start" x="1843.5" y="-366.3" font-family="Times New Roman,serif" font-weight="bold" font-size="14.00">DeclarationInfo</text>
<text text-anchor="start" x="1860.5" y="-348.3" font-family="Times New Roman,serif" font-weight="bold" font-size="14.00">properties</text>
<text text-anchor="start" x="1814.5" y="-334.3" font-family="Times New Roman,serif" font-size="14.00">type: AST_NODE_TYPES</text>
<text text-anchor="start" x="1852.5" y="-320.3" font-family="Times New Roman,serif" font-size="14.00">params: string</text>
<polygon fill="none" stroke="black" points="1811,-313.5 1811,-393.5 1972,-393.5 1972,-313.5 1811,-313.5"/>
</g>
<!-- ExportProcessor -->
<g id="node6" class="node">
<title>ExportProcessor</title>
<polygon fill="lightblue" stroke="transparent" points="803.5,-395.5 803.5,-414.5 1207.5,-414.5 1207.5,-395.5 803.5,-395.5"/>
<text text-anchor="start" x="805.5" y="-402.3" font-family="Times New Roman,serif" font-weight="bold" font-size="14.00">ExportProcessor : BaseProcessor</text>
<polyline fill="none" stroke="black" points="1207.5,-395.5 803.5,-395.5 "/>
<text text-anchor="start" x="979.5" y="-382.3" font-family="Times New Roman,serif" font-weight="bold" font-size="14.00">methods</text>
<text text-anchor="start" x="938.5" y="-368.3" font-family="Times New Roman,serif" font-size="14.00">+ constructor(baseLoc)</text>
<text text-anchor="start" x="872.5" y="-354.3" font-family="Times New Roman,serif" font-size="14.00">&#45; extractNamesFromPattern(idPattern, callback)</text>
<text text-anchor="start" x="906" y="-340.3" font-family="Times New Roman,serif" font-size="14.00">+ processTopLevelDeclaration(ast)</text>
<text text-anchor="start" x="861" y="-326.3" font-family="Times New Roman,serif" font-size="14.00">+ processExportAllDeclaration(node, srcFile, mod)</text>
<text text-anchor="start" x="806.5" y="-312.3" font-family="Times New Roman,serif" font-size="14.00">+ processExportDeclaration(node, srcFile, mod, topLevelDeclarations)</text>
<text text-anchor="start" x="837" y="-298.3" font-family="Times New Roman,serif" font-size="14.00">+ processDeclarationNode(decl, declarationDetailsCallback)</text>
<polygon fill="none" stroke="black" points="802.5,-291 802.5,-416 1208.5,-416 1208.5,-291 802.5,-291"/>
</g>
<!-- ExportProcessor&#45;&gt;BaseProcessor -->
<g id="edge4" class="edge">
<title>ExportProcessor&#45;&gt;BaseProcessor</title>
<path fill="none" stroke="black" d="M961.76,-286.76C944.92,-261.45 925.24,-231.87 906.53,-203.76"/>
<polygon fill="none" stroke="black" points="909.22,-201.47 900.76,-195.09 903.39,-205.35 909.22,-201.47"/>
</g>
<!-- ImportProcessor -->
<g id="node7" class="node">
<title>ImportProcessor</title>
<polygon fill="lightblue" stroke="transparent" points="1243.5,-374.5 1243.5,-393.5 1533.5,-393.5 1533.5,-374.5 1243.5,-374.5"/>
<text text-anchor="start" x="1245.5" y="-381.3" font-family="Times New Roman,serif" font-weight="bold" font-size="14.00">ImportProcessor : BaseProcessor</text>
<polyline fill="none" stroke="black" points="1533.5,-374.5 1243.5,-374.5 "/>
<text text-anchor="start" x="1362.5" y="-361.3" font-family="Times New Roman,serif" font-weight="bold" font-size="14.00">methods</text>
<text text-anchor="start" x="1321.5" y="-347.3" font-family="Times New Roman,serif" font-size="14.00">+ constructor(baseLoc)</text>
<text text-anchor="start" x="1246.5" y="-333.3" font-family="Times New Roman,serif" font-size="14.00">+ processImportDeclaration(node, fullSrcFilePath)</text>
<text text-anchor="start" x="1323" y="-319.3" font-family="Times New Roman,serif" font-size="14.00">+ normalizeDeps(deps)</text>
<polygon fill="none" stroke="black" points="1242.5,-312 1242.5,-395 1534.5,-395 1534.5,-312 1242.5,-312"/>
</g>
<!-- ImportProcessor&#45;&gt;BaseProcessor -->
<g id="edge5" class="edge">
<title>ImportProcessor&#45;&gt;BaseProcessor</title>
<path fill="none" stroke="black" d="M1337.34,-307.82C1306.55,-282.65 1265.64,-252.12 1225.5,-231 1156.76,-194.82 1076.12,-165.45 1006.15,-143.64"/>
<polygon fill="none" stroke="black" points="1006.93,-140.22 996.35,-140.61 1004.87,-146.91 1006.93,-140.22"/>
</g>
<!-- ModuleInfo -->
<g id="node8" class="node">
<title>ModuleInfo</title>
<polygon fill="lightyellow" stroke="transparent" points="2007.5,-381.5 2007.5,-413.5 2145.5,-413.5 2145.5,-381.5 2007.5,-381.5"/>
<text text-anchor="start" x="2032" y="-401.3" font-family="Times New Roman,serif" font-style="italic" font-size="14.00">&lt;&lt;interface&gt;&gt;</text>
<text text-anchor="start" x="2040.5" y="-387.3" font-family="Times New Roman,serif" font-weight="bold" font-size="14.00">ModuleInfo</text>
<text text-anchor="start" x="2045" y="-369.3" font-family="Times New Roman,serif" font-weight="bold" font-size="14.00">properties</text>
<text text-anchor="start" x="2050" y="-355.3" font-family="Times New Roman,serif" font-size="14.00">dir: string</text>
<text text-anchor="start" x="2049" y="-341.3" font-family="Times New Roman,serif" font-size="14.00">file: string</text>
<text text-anchor="start" x="2009.5" y="-327.3" font-family="Times New Roman,serif" font-size="14.00">dependsOnCnt: number</text>
<text text-anchor="start" x="2020.5" y="-313.3" font-family="Times New Roman,serif" font-size="14.00">usedByCnt: number</text>
<text text-anchor="start" x="2023.5" y="-299.3" font-family="Times New Roman,serif" font-size="14.00">exportCnt: number</text>
<polygon fill="none" stroke="black" points="2006.5,-292.5 2006.5,-414.5 2146.5,-414.5 2146.5,-292.5 2006.5,-292.5"/>
</g>
<!-- ImportInfo -->
<g id="node9" class="node">
<title>ImportInfo</title>
<polygon fill="lightyellow" stroke="transparent" points="2182.5,-381.5 2182.5,-413.5 2289.5,-413.5 2289.5,-381.5 2182.5,-381.5"/>
<text text-anchor="start" x="2191.5" y="-401.3" font-family="Times New Roman,serif" font-style="italic" font-size="14.00">&lt;&lt;interface&gt;&gt;</text>
<text text-anchor="start" x="2202.5" y="-387.3" font-family="Times New Roman,serif" font-weight="bold" font-size="14.00">ImportInfo</text>
<text text-anchor="start" x="2204.5" y="-369.3" font-family="Times New Roman,serif" font-weight="bold" font-size="14.00">properties</text>
<text text-anchor="start" x="2208.5" y="-355.3" font-family="Times New Roman,serif" font-size="14.00">src: string</text>
<text text-anchor="start" x="2202.5" y="-341.3" font-family="Times New Roman,serif" font-size="14.00">name: string</text>
<text text-anchor="start" x="2189" y="-327.3" font-family="Times New Roman,serif" font-size="14.00">importSrc: string</text>
<text text-anchor="start" x="2184.5" y="-313.3" font-family="Times New Roman,serif" font-size="14.00">relSrcName: string</text>
<text text-anchor="start" x="2198.5" y="-299.3" font-family="Times New Roman,serif" font-size="14.00">import: string</text>
<polygon fill="none" stroke="black" points="2181,-292.5 2181,-414.5 2290,-414.5 2290,-292.5 2181,-292.5"/>
</g>
<!-- ExportInfo -->
<g id="node10" class="node">
<title>ExportInfo</title>
<polygon fill="lightyellow" stroke="transparent" points="2325.5,-374.5 2325.5,-406.5 2418.5,-406.5 2418.5,-374.5 2325.5,-374.5"/>
<text text-anchor="start" x="2327.5" y="-394.3" font-family="Times New Roman,serif" font-style="italic" font-size="14.00">&lt;&lt;interface&gt;&gt;</text>
<text text-anchor="start" x="2338.5" y="-380.3" font-family="Times New Roman,serif" font-weight="bold" font-size="14.00">ExportInfo</text>
<text text-anchor="start" x="2340" y="-362.3" font-family="Times New Roman,serif" font-weight="bold" font-size="14.00">properties</text>
<text text-anchor="start" x="2344" y="-348.3" font-family="Times New Roman,serif" font-size="14.00">src: string</text>
<text text-anchor="start" x="2327.5" y="-334.3" font-family="Times New Roman,serif" font-size="14.00">exported: string</text>
<text text-anchor="start" x="2340.5" y="-320.3" font-family="Times New Roman,serif" font-size="14.00">type: string</text>
<text text-anchor="start" x="2332" y="-306.3" font-family="Times New Roman,serif" font-size="14.00">params: string</text>
<polygon fill="none" stroke="black" points="2324,-299.5 2324,-407.5 2419,-407.5 2419,-299.5 2324,-299.5"/>
</g>
<!-- ErrorInfo -->
<g id="node11" class="node">
<title>ErrorInfo</title>
<polygon fill="lightyellow" stroke="transparent" points="2454.5,-367.5 2454.5,-399.5 2547.5,-399.5 2547.5,-367.5 2454.5,-367.5"/>
<text text-anchor="start" x="2456.5" y="-387.3" font-family="Times New Roman,serif" font-style="italic" font-size="14.00">&lt;&lt;interface&gt;&gt;</text>
<text text-anchor="start" x="2470.5" y="-373.3" font-family="Times New Roman,serif" font-weight="bold" font-size="14.00">ErrorInfo</text>
<text text-anchor="start" x="2456.5" y="-355.3" font-family="Times New Roman,serif" font-weight="bold" font-size="14.00">properties</text>
<text text-anchor="start" x="2460.5" y="-341.3" font-family="Times New Roman,serif" font-size="14.00">file: string</text>
<text text-anchor="start" x="2462" y="-327.3" font-family="Times New Roman,serif" font-size="14.00">err: Error</text>
<text text-anchor="start" x="2457.5" y="-313.3" font-family="Times New Roman,serif" font-size="14.00">msg: string</text>
<polygon fill="none" stroke="black" points="2453,-306.5 2453,-400.5 2548,-400.5 2548,-306.5 2453,-306.5"/>
</g>
<!-- MethodInfo -->
<g id="node12" class="node">
<title>MethodInfo</title>
<polygon fill="lightyellow" stroke="transparent" points="2583.5,-381.5 2583.5,-413.5 2978.5,-413.5 2978.5,-381.5 2583.5,-381.5"/>
<text text-anchor="start" x="2736.5" y="-401.3" font-family="Times New Roman,serif" font-style="italic" font-size="14.00">&lt;&lt;interface&gt;&gt;</text>
<text text-anchor="start" x="2744.5" y="-387.3" font-family="Times New Roman,serif" font-weight="bold" font-size="14.00">MethodInfo</text>
<text text-anchor="start" x="2749.5" y="-369.3" font-family="Times New Roman,serif" font-weight="bold" font-size="14.00">properties</text>
<text text-anchor="start" x="2747.5" y="-355.3" font-family="Times New Roman,serif" font-size="14.00">name: string</text>
<text text-anchor="start" x="2585.5" y="-341.3" font-family="Times New Roman,serif" font-size="14.00">kind: unknown_type | unknown_type | unknown_type | unknown_type</text>
<text text-anchor="start" x="2735" y="-327.3" font-family="Times New Roman,serif" font-size="14.00">isStatic: boolean</text>
<text text-anchor="start" x="2731.5" y="-313.3" font-family="Times New Roman,serif" font-size="14.00">isPrivate: boolean</text>
<text text-anchor="start" x="2731.5" y="-299.3" font-family="Times New Roman,serif" font-size="14.00">parameters: string</text>
<polygon fill="none" stroke="black" points="2582,-292.5 2582,-414.5 2979,-414.5 2979,-292.5 2582,-292.5"/>
</g>
<!-- PropertyInfo -->
<g id="node13" class="node">
<title>PropertyInfo</title>
<polygon fill="lightyellow" stroke="transparent" points="3014.5,-381.5 3014.5,-413.5 3160.5,-413.5 3160.5,-381.5 3014.5,-381.5"/>
<text text-anchor="start" x="3043" y="-401.3" font-family="Times New Roman,serif" font-style="italic" font-size="14.00">&lt;&lt;interface&gt;&gt;</text>
<text text-anchor="start" x="3048" y="-387.3" font-family="Times New Roman,serif" font-weight="bold" font-size="14.00">PropertyInfo</text>
<text text-anchor="start" x="3056" y="-369.3" font-family="Times New Roman,serif" font-weight="bold" font-size="14.00">properties</text>
<text text-anchor="start" x="3054" y="-355.3" font-family="Times New Roman,serif" font-size="14.00">name: string</text>
<text text-anchor="start" x="3041.5" y="-341.3" font-family="Times New Roman,serif" font-size="14.00">isStatic: boolean</text>
<text text-anchor="start" x="3038" y="-327.3" font-family="Times New Roman,serif" font-size="14.00">isPrivate: boolean</text>
<text text-anchor="start" x="3056.5" y="-313.3" font-family="Times New Roman,serif" font-size="14.00">type: string</text>
<text text-anchor="start" x="3016.5" y="-299.3" font-family="Times New Roman,serif" font-size="14.00">hasDefaultValue: boolean</text>
<polygon fill="none" stroke="black" points="3013.5,-292.5 3013.5,-414.5 3161.5,-414.5 3161.5,-292.5 3013.5,-292.5"/>
</g>
<!-- ClassDetail -->
<g id="node14" class="node">
<title>ClassDetail</title>
<polygon fill="lightyellow" stroke="transparent" points="3196.5,-409.5 3196.5,-441.5 3472.5,-441.5 3472.5,-409.5 3196.5,-409.5"/>
<text text-anchor="start" x="3290" y="-429.3" font-family="Times New Roman,serif" font-style="italic" font-size="14.00">&lt;&lt;interface&gt;&gt;</text>
<text text-anchor="start" x="3299" y="-415.3" font-family="Times New Roman,serif" font-weight="bold" font-size="14.00">ClassDetail</text>
<text text-anchor="start" x="3303" y="-397.3" font-family="Times New Roman,serif" font-weight="bold" font-size="14.00">properties</text>
<text text-anchor="start" x="3301" y="-383.3" font-family="Times New Roman,serif" font-size="14.00">name: string</text>
<text text-anchor="start" x="3295" y="-369.3" font-family="Times New Roman,serif" font-size="14.00">filePath: string</text>
<text text-anchor="start" x="3198.5" y="-355.3" font-family="Times New Roman,serif" font-size="14.00">declarationType: unknown_type | unknown_type</text>
<text text-anchor="start" x="3293" y="-341.3" font-family="Times New Roman,serif" font-size="14.00">methods: array</text>
<text text-anchor="start" x="3289" y="-327.3" font-family="Times New Roman,serif" font-size="14.00">properties: array</text>
<text text-anchor="start" x="3270" y="-313.3" font-family="Times New Roman,serif" font-size="14.00">superClass: string | null</text>
<text text-anchor="start" x="3258" y="-299.3" font-family="Times New Roman,serif" font-size="14.00">implementsInterfaces: array</text>
<text text-anchor="start" x="3268" y="-285.3" font-family="Times New Roman,serif" font-size="14.00">extendsInterfaces: array</text>
<text text-anchor="start" x="3278.5" y="-271.3" font-family="Times New Roman,serif" font-size="14.00">isExported: boolean</text>
<polygon fill="none" stroke="black" points="3195.5,-264.5 3195.5,-442.5 3473.5,-442.5 3473.5,-264.5 3195.5,-264.5"/>
</g>
<!-- UsageProcessor -->
<g id="node15" class="node">
<title>UsageProcessor</title>
<polygon fill="lightblue" stroke="transparent" points="1569.5,-360.5 1569.5,-379.5 1775.5,-379.5 1775.5,-360.5 1569.5,-360.5"/>
<text text-anchor="start" x="1571.5" y="-367.3" font-family="Times New Roman,serif" font-weight="bold" font-size="14.00">UsageProcessor : BaseProcessor</text>
<polyline fill="none" stroke="black" points="1775.5,-360.5 1569.5,-360.5 "/>
<text text-anchor="start" x="1613.5" y="-347.3" font-family="Times New Roman,serif" font-weight="bold" font-size="14.00">methods</text>
<text text-anchor="start" x="1572.5" y="-333.3" font-family="Times New Roman,serif" font-size="14.00">+ constructor(baseLoc)</text>
<polygon fill="none" stroke="black" points="1568.5,-326 1568.5,-381 1776.5,-381 1776.5,-326 1568.5,-326"/>
</g>
<!-- UsageProcessor&#45;&gt;BaseProcessor -->
<g id="edge6" class="edge">
<title>UsageProcessor&#45;&gt;BaseProcessor</title>
<path fill="none" stroke="black" d="M1650.76,-321.82C1628.98,-293.56 1592.84,-252.8 1551.5,-231 1380.26,-140.68 1157.61,-111.03 1006.58,-101.76"/>
<polygon fill="none" stroke="black" points="1006.48,-98.25 996.29,-101.16 1006.07,-105.24 1006.48,-98.25"/>
</g>
</g>
</svg>
