<?xml version="1.0" encoding="UTF-8" standalone="no"?>
<!DOCTYPE svg PUBLIC "-//W3C//DTD SVG 1.1//EN"
 "http://www.w3.org/Graphics/SVG/1.1/DTD/svg11.dtd">
<!-- Generated by graphviz version 3.0.0 (20220226.1711)
 -->
<!-- Pages: 1 -->
<svg width="1546pt" height="1030pt"
 viewBox="0.00 0.00 1546.00 1030.00" xmlns="http://www.w3.org/2000/svg" xmlns:xlink="http://www.w3.org/1999/xlink">
<g id="graph0" class="graph" transform="scale(1 1) rotate(0) translate(4 1026)">
<polygon fill="white" stroke="transparent" points="-4,4 -4,-1026 1542,-1026 1542,4 -4,4"/>
<text text-anchor="middle" x="769" y="-1006.8" font-family="Times New Roman,serif" font-size="14.00">ast Module Exports</text>
<!-- ast/ASTProcessor -->
<g id="node1" class="node">
<title>ast/ASTProcessor</title>
<g id="a_node1_0"><a xlink:href="tsdocs\modules\ast_ASTProcessor.html" xlink:title="&lt;TABLE&gt;" target="_blank">
<polygon fill="lightblue" stroke="transparent" points="729,-974.5 729,-993.5 885,-993.5 885,-974.5 729,-974.5"/>
<text text-anchor="start" x="751" y="-981.3" font-family="Times New Roman,serif" font-weight="bold" text-decoration="underline" font-size="14.00">ast/ASTProcessor</text>
</a>
</g>
<polyline fill="none" stroke="black" points="729,-953.5 885,-953.5 "/>
<polyline fill="none" stroke="black" points="885,-974.5 729,-974.5 "/>
<text text-anchor="start" x="732" y="-961.3" font-family="Times New Roman,serif" font-size="14.00" fill="blue">🏛️ [class]</text>
<text text-anchor="start" x="790" y="-961.3" font-family="Times New Roman,serif" font-size="14.00"> &#160;ASTProcessor</text>
<polyline fill="none" stroke="black" points="885,-953.5 729,-953.5 "/>
<text text-anchor="start" x="732" y="-940.3" font-family="Times New Roman,serif" font-style="italic" font-size="14.00" fill="red">IMPORTS</text>
<polyline fill="none" stroke="black" points="729,-898.5 885,-898.5 "/>
<polyline fill="none" stroke="black" points="885,-932.5 729,-932.5 "/>
<text text-anchor="start" x="732" y="-919.3" font-family="Times New Roman,serif" font-style="italic" font-size="14.00" fill="red">ast/BaseProcessor</text>
<text text-anchor="start" x="732" y="-905.3" font-family="Times New Roman,serif" font-size="14.00">BaseProcessor</text>
<polyline fill="none" stroke="black" points="729,-864.5 885,-864.5 "/>
<polyline fill="none" stroke="black" points="885,-898.5 729,-898.5 "/>
<text text-anchor="start" x="732" y="-885.3" font-family="Times New Roman,serif" font-style="italic" font-size="14.00" fill="red">ast/ClassProcessor</text>
<text text-anchor="start" x="732" y="-871.3" font-family="Times New Roman,serif" font-size="14.00">ClassProcessor</text>
<polyline fill="none" stroke="black" points="729,-830.5 885,-830.5 "/>
<polyline fill="none" stroke="black" points="885,-864.5 729,-864.5 "/>
<text text-anchor="start" x="732" y="-851.3" font-family="Times New Roman,serif" font-style="italic" font-size="14.00" fill="red">ast/ErrorCollector</text>
<text text-anchor="start" x="732" y="-837.3" font-family="Times New Roman,serif" font-size="14.00">ErrorCollector</text>
<polyline fill="none" stroke="black" points="729,-796.5 885,-796.5 "/>
<polyline fill="none" stroke="black" points="885,-830.5 729,-830.5 "/>
<text text-anchor="start" x="732" y="-817.3" font-family="Times New Roman,serif" font-style="italic" font-size="14.00" fill="red">ast/ExportProcessor</text>
<text text-anchor="start" x="732" y="-803.3" font-family="Times New Roman,serif" font-size="14.00">ExportProcessor</text>
<polyline fill="none" stroke="black" points="729,-762.5 885,-762.5 "/>
<polyline fill="none" stroke="black" points="885,-796.5 729,-796.5 "/>
<text text-anchor="start" x="732" y="-783.3" font-family="Times New Roman,serif" font-style="italic" font-size="14.00" fill="red">ast/ImportProcessor</text>
<text text-anchor="start" x="732" y="-769.3" font-family="Times New Roman,serif" font-size="14.00">ImportProcessor</text>
<polyline fill="none" stroke="black" points="729,-672.5 885,-672.5 "/>
<polyline fill="none" stroke="black" points="885,-762.5 729,-762.5 "/>
<text text-anchor="start" x="732" y="-749.3" font-family="Times New Roman,serif" font-style="italic" font-size="14.00" fill="red">ast/SharedInterfaces</text>
<text text-anchor="start" x="732" y="-735.3" font-family="Times New Roman,serif" font-size="14.00">ClassDetail</text>
<text text-anchor="start" x="732" y="-721.3" font-family="Times New Roman,serif" font-size="14.00">ImportInfo</text>
<text text-anchor="start" x="732" y="-707.3" font-family="Times New Roman,serif" font-size="14.00">ExportInfo</text>
<text text-anchor="start" x="732" y="-693.3" font-family="Times New Roman,serif" font-size="14.00">ModuleInfo</text>
<text text-anchor="start" x="732" y="-679.3" font-family="Times New Roman,serif" font-size="14.00">ProcessedASTData</text>
<polyline fill="none" stroke="black" points="729,-598.5 885,-598.5 "/>
<polyline fill="none" stroke="black" points="885,-672.5 729,-672.5 "/>
<text text-anchor="start" x="731" y="-660.3" font-family="Times New Roman,serif" font-style="italic" font-size="14.00" fill="red">utils/file&#45;utils</text>
<text text-anchor="start" x="731" y="-646.3" font-family="Times New Roman,serif" font-size="14.00">cleanPath</text>
<text text-anchor="start" x="731" y="-632.3" font-family="Times New Roman,serif" font-size="14.00">getModuleName</text>
<text text-anchor="start" x="731" y="-618.3" font-family="Times New Roman,serif" font-size="14.00">moduleFileName</text>
<text text-anchor="start" x="731" y="-604.3" font-family="Times New Roman,serif" font-size="14.00">removeExtension</text>
<polygon fill="none" stroke="black" points="728,-598 728,-995 886,-995 886,-598 728,-598"/>
</g>
<!-- ast/ASTProcessor&#45;node_modules -->
<g id="node2" class="node">
<title>ast/ASTProcessor&#45;node_modules</title>
<polygon fill="lightgrey" stroke="transparent" points="952,-514.5 952,-533.5 1234,-533.5 1234,-514.5 952,-514.5"/>
<text text-anchor="start" x="1049" y="-521.3" font-family="Times New Roman,serif" font-weight="bold" font-size="14.00">node_modules</text>
<polyline fill="none" stroke="black" points="1234,-514.5 952,-514.5 "/>
<text text-anchor="start" x="955" y="-501.3" font-family="Times New Roman,serif" font-style="italic" font-size="14.00" fill="red">@typescript&#45;eslint/parser</text>
<text text-anchor="start" x="1098" y="-501.3" font-family="Times New Roman,serif" font-size="14.00"> &#160;(parse)</text>
<text text-anchor="start" x="955" y="-487.3" font-family="Times New Roman,serif" font-style="italic" font-size="14.00" fill="red">@typescript&#45;eslint/types</text>
<text text-anchor="start" x="1090" y="-487.3" font-family="Times New Roman,serif" font-size="14.00"> &#160;(AST_NODE_TYPES)</text>
<text text-anchor="start" x="955" y="-473.3" font-family="Times New Roman,serif" font-style="italic" font-size="14.00" fill="red">@typescript&#45;eslint/types</text>
<text text-anchor="start" x="1090" y="-473.3" font-family="Times New Roman,serif" font-size="14.00"> &#160;(ParserOptions)</text>
<text text-anchor="start" x="955" y="-459.3" font-family="Times New Roman,serif" font-style="italic" font-size="14.00" fill="red">@typescript&#45;eslint/types</text>
<text text-anchor="start" x="1090" y="-459.3" font-family="Times New Roman,serif" font-size="14.00"> &#160;(TSESTree)</text>
<text text-anchor="start" x="955" y="-445.3" font-family="Times New Roman,serif" font-style="italic" font-size="14.00" fill="red">estraverse</text>
<text text-anchor="start" x="1012" y="-445.3" font-family="Times New Roman,serif" font-size="14.00"> &#160;(estraverse)</text>
<text text-anchor="start" x="955" y="-431.3" font-family="Times New Roman,serif" font-style="italic" font-size="14.00" fill="red">estree</text>
<text text-anchor="start" x="988" y="-431.3" font-family="Times New Roman,serif" font-size="14.00"> &#160;(Node)</text>
<text text-anchor="start" x="955" y="-417.3" font-family="Times New Roman,serif" font-style="italic" font-size="14.00" fill="red">fs</text>
<text text-anchor="start" x="965" y="-417.3" font-family="Times New Roman,serif" font-size="14.00"> &#160;(readFileSync)</text>
<text text-anchor="start" x="955" y="-403.3" font-family="Times New Roman,serif" font-style="italic" font-size="14.00" fill="red">path</text>
<text text-anchor="start" x="982" y="-403.3" font-family="Times New Roman,serif" font-size="14.00"> &#160;(path)</text>
<polygon fill="none" stroke="black" points="951,-396 951,-535 1235,-535 1235,-396 951,-396"/>
</g>
<!-- ast/ASTProcessor&#45;&gt;ast/ASTProcessor&#45;node_modules -->
<g id="edge1" class="edge">
<title>ast/ASTProcessor&#45;&gt;ast/ASTProcessor&#45;node_modules</title>
<path fill="none" stroke="black" d="M894.36,-695C935.67,-647.48 984.31,-591.53 1023.13,-546.88"/>
<polygon fill="black" stroke="black" points="1025.84,-549.09 1029.76,-539.25 1020.56,-544.5 1025.84,-549.09"/>
</g>
<!-- ast/BaseProcessor -->
<g id="node3" class="node">
<title>ast/BaseProcessor</title>
<g id="a_node3_1"><a xlink:href="tsdocs\modules\ast_BaseProcessor.html" xlink:title="&lt;TABLE&gt;" target="_blank">
<polygon fill="lightblue" stroke="transparent" points="417,-264 417,-283 573,-283 573,-264 417,-264"/>
<text text-anchor="start" x="438" y="-270.8" font-family="Times New Roman,serif" font-weight="bold" text-decoration="underline" font-size="14.00">ast/BaseProcessor</text>
</a>
</g>
<polyline fill="none" stroke="black" points="417,-243 573,-243 "/>
<polyline fill="none" stroke="black" points="573,-264 417,-264 "/>
<text text-anchor="start" x="420" y="-250.8" font-family="Times New Roman,serif" font-size="14.00" fill="blue">🏛️ [class]</text>
<text text-anchor="start" x="478" y="-250.8" font-family="Times New Roman,serif" font-size="14.00"> &#160;BaseProcessor</text>
<polyline fill="none" stroke="black" points="573,-243 417,-243 "/>
<text text-anchor="start" x="420" y="-229.8" font-family="Times New Roman,serif" font-style="italic" font-size="14.00" fill="red">IMPORTS</text>
<polygon fill="none" stroke="black" points="416,-221.5 416,-284.5 574,-284.5 574,-221.5 416,-221.5"/>
</g>
<!-- ast/ASTProcessor&#45;&gt;ast/BaseProcessor -->
<g id="edge6" class="edge">
<title>ast/ASTProcessor&#45;&gt;ast/BaseProcessor</title>
<path fill="none" stroke="black" d="M719.96,-784.23C599.27,-763.42 385.22,-706.53 290,-558 245.62,-488.78 248.97,-444.25 290,-373 313.62,-331.97 357.42,-303.78 398.48,-285.19"/>
<polygon fill="black" stroke="black" points="399.99,-288.35 407.74,-281.13 397.18,-281.94 399.99,-288.35"/>
</g>
<!-- ast/ClassProcessor -->
<g id="node5" class="node">
<title>ast/ClassProcessor</title>
<g id="a_node5_2"><a xlink:href="tsdocs\modules\ast_ClassProcessor.html" xlink:title="&lt;TABLE&gt;" target="_blank">
<polygon fill="lightblue" stroke="transparent" points="1308,-524.5 1308,-543.5 1468,-543.5 1468,-524.5 1308,-524.5"/>
<text text-anchor="start" x="1329" y="-531.3" font-family="Times New Roman,serif" font-weight="bold" text-decoration="underline" font-size="14.00">ast/ClassProcessor</text>
</a>
</g>
<polyline fill="none" stroke="black" points="1308,-503.5 1468,-503.5 "/>
<polyline fill="none" stroke="black" points="1468,-524.5 1308,-524.5 "/>
<text text-anchor="start" x="1311" y="-511.3" font-family="Times New Roman,serif" font-size="14.00" fill="blue">🏛️ [class]</text>
<text text-anchor="start" x="1369" y="-511.3" font-family="Times New Roman,serif" font-size="14.00"> &#160;ClassProcessor</text>
<polyline fill="none" stroke="black" points="1468,-503.5 1308,-503.5 "/>
<text text-anchor="start" x="1311" y="-490.3" font-family="Times New Roman,serif" font-style="italic" font-size="14.00" fill="red">IMPORTS</text>
<polyline fill="none" stroke="black" points="1308,-448.5 1468,-448.5 "/>
<polyline fill="none" stroke="black" points="1468,-482.5 1308,-482.5 "/>
<text text-anchor="start" x="1311" y="-469.3" font-family="Times New Roman,serif" font-style="italic" font-size="14.00" fill="red">ast/BaseProcessor</text>
<text text-anchor="start" x="1311" y="-455.3" font-family="Times New Roman,serif" font-size="14.00">BaseProcessor</text>
<polyline fill="none" stroke="black" points="1308,-386.5 1468,-386.5 "/>
<polyline fill="none" stroke="black" points="1468,-448.5 1308,-448.5 "/>
<text text-anchor="start" x="1311" y="-435.3" font-family="Times New Roman,serif" font-style="italic" font-size="14.00" fill="red">ast/SharedInterfaces</text>
<text text-anchor="start" x="1311" y="-421.3" font-family="Times New Roman,serif" font-size="14.00">ClassDetail</text>
<text text-anchor="start" x="1311" y="-407.3" font-family="Times New Roman,serif" font-size="14.00">MethodInfo</text>
<text text-anchor="start" x="1311" y="-393.3" font-family="Times New Roman,serif" font-size="14.00">PropertyInfo</text>
<polygon fill="none" stroke="black" points="1307,-386 1307,-545 1469,-545 1469,-386 1307,-386"/>
</g>
<!-- ast/ASTProcessor&#45;&gt;ast/ClassProcessor -->
<g id="edge7" class="edge">
<title>ast/ASTProcessor&#45;&gt;ast/ClassProcessor</title>
<path fill="none" stroke="black" d="M894.09,-760.55C992.89,-719.04 1156.93,-644.45 1285,-558 1286.89,-556.72 1288.79,-555.41 1290.68,-554.08"/>
<polygon fill="black" stroke="black" points="1292.94,-556.76 1298.97,-548.05 1288.83,-551.1 1292.94,-556.76"/>
</g>
<!-- ast/ErrorCollector -->
<g id="node7" class="node">
<title>ast/ErrorCollector</title>
<g id="a_node7_3"><a xlink:href="tsdocs\modules\ast_ErrorCollector.html" xlink:title="&lt;TABLE&gt;" target="_blank">
<polygon fill="lightblue" stroke="transparent" points="509,-510.5 509,-529.5 662,-529.5 662,-510.5 509,-510.5"/>
<text text-anchor="start" x="528" y="-517.3" font-family="Times New Roman,serif" font-weight="bold" text-decoration="underline" font-size="14.00">ast/ErrorCollector</text>
</a>
</g>
<polyline fill="none" stroke="black" points="509,-489.5 662,-489.5 "/>
<polyline fill="none" stroke="black" points="662,-510.5 509,-510.5 "/>
<text text-anchor="start" x="512" y="-497.3" font-family="Times New Roman,serif" font-size="14.00" fill="blue">🏛️ [class]</text>
<text text-anchor="start" x="570" y="-497.3" font-family="Times New Roman,serif" font-size="14.00"> &#160;ErrorCollector</text>
<polyline fill="none" stroke="black" points="662,-489.5 509,-489.5 "/>
<text text-anchor="start" x="512" y="-476.3" font-family="Times New Roman,serif" font-style="italic" font-size="14.00" fill="red">IMPORTS</text>
<polyline fill="none" stroke="black" points="509,-434.5 662,-434.5 "/>
<polyline fill="none" stroke="black" points="662,-468.5 509,-468.5 "/>
<text text-anchor="start" x="512" y="-455.3" font-family="Times New Roman,serif" font-style="italic" font-size="14.00" fill="red">ast/BaseProcessor</text>
<text text-anchor="start" x="512" y="-441.3" font-family="Times New Roman,serif" font-size="14.00">BaseProcessor</text>
<polyline fill="none" stroke="black" points="509,-400.5 662,-400.5 "/>
<polyline fill="none" stroke="black" points="662,-434.5 509,-434.5 "/>
<text text-anchor="start" x="512" y="-421.3" font-family="Times New Roman,serif" font-style="italic" font-size="14.00" fill="red">ast/SharedInterfaces</text>
<text text-anchor="start" x="512" y="-407.3" font-family="Times New Roman,serif" font-size="14.00">ErrorInfo</text>
<polygon fill="none" stroke="black" points="507.5,-400 507.5,-531 662.5,-531 662.5,-400 507.5,-400"/>
</g>
<!-- ast/ASTProcessor&#45;&gt;ast/ErrorCollector -->
<g id="edge8" class="edge">
<title>ast/ASTProcessor&#45;&gt;ast/ErrorCollector</title>
<path fill="none" stroke="black" d="M719.9,-666.41C691.89,-624.92 661.76,-580.26 637.09,-543.7"/>
<polygon fill="black" stroke="black" points="639.77,-541.41 631.27,-535.07 633.96,-545.32 639.77,-541.41"/>
</g>
<!-- ast/ExportProcessor -->
<g id="node8" class="node">
<title>ast/ExportProcessor</title>
<g id="a_node8_4"><a xlink:href="tsdocs\modules\ast_ExportProcessor.html" xlink:title="&lt;TABLE&gt;" target="_blank">
<polygon fill="lightblue" stroke="transparent" points="698,-531.5 698,-550.5 916,-550.5 916,-531.5 698,-531.5"/>
<text text-anchor="start" x="744" y="-538.3" font-family="Times New Roman,serif" font-weight="bold" text-decoration="underline" font-size="14.00">ast/ExportProcessor</text>
</a>
</g>
<polyline fill="none" stroke="black" points="698,-483.5 916,-483.5 "/>
<polyline fill="none" stroke="black" points="916,-531.5 698,-531.5 "/>
<text text-anchor="start" x="701" y="-518.3" font-family="Times New Roman,serif" font-size="14.00" fill="blue">🏛️ [class]</text>
<text text-anchor="start" x="759" y="-518.3" font-family="Times New Roman,serif" font-size="14.00"> &#160;ExportProcessor</text>
<text text-anchor="start" x="701" y="-504.3" font-family="Times New Roman,serif" font-size="14.00" fill="purple">🧩 [iface]</text>
<text text-anchor="start" x="758" y="-504.3" font-family="Times New Roman,serif" font-size="14.00"> &#160;DeclarationInfo</text>
<text text-anchor="start" x="701" y="-490.3" font-family="Times New Roman,serif" font-size="14.00" fill="orange">🏷️ [type]</text>
<text text-anchor="start" x="756" y="-490.3" font-family="Times New Roman,serif" font-size="14.00"> &#160;DeclarationDetailsCallback</text>
<polyline fill="none" stroke="black" points="916,-483.5 698,-483.5 "/>
<text text-anchor="start" x="701" y="-470.3" font-family="Times New Roman,serif" font-style="italic" font-size="14.00" fill="red">IMPORTS</text>
<polyline fill="none" stroke="black" points="698,-428.5 916,-428.5 "/>
<polyline fill="none" stroke="black" points="916,-462.5 698,-462.5 "/>
<text text-anchor="start" x="701" y="-449.3" font-family="Times New Roman,serif" font-style="italic" font-size="14.00" fill="red">ast/BaseProcessor</text>
<text text-anchor="start" x="701" y="-435.3" font-family="Times New Roman,serif" font-size="14.00">BaseProcessor</text>
<polyline fill="none" stroke="black" points="698,-380.5 916,-380.5 "/>
<polyline fill="none" stroke="black" points="916,-428.5 698,-428.5 "/>
<text text-anchor="start" x="701" y="-415.3" font-family="Times New Roman,serif" font-style="italic" font-size="14.00" fill="red">ast/SharedInterfaces</text>
<text text-anchor="start" x="701" y="-401.3" font-family="Times New Roman,serif" font-size="14.00">ExportInfo</text>
<text text-anchor="start" x="701" y="-387.3" font-family="Times New Roman,serif" font-size="14.00">ModuleInfo</text>
<polygon fill="none" stroke="black" points="697,-379.5 697,-551.5 917,-551.5 917,-379.5 697,-379.5"/>
</g>
<!-- ast/ASTProcessor&#45;&gt;ast/ExportProcessor -->
<g id="edge9" class="edge">
<title>ast/ASTProcessor&#45;&gt;ast/ExportProcessor</title>
<path fill="none" stroke="black" d="M807,-593.7C807,-584.13 807,-574.74 807,-565.67"/>
<polygon fill="black" stroke="black" points="810.5,-565.57 807,-555.57 803.5,-565.57 810.5,-565.57"/>
</g>
<!-- ast/ImportProcessor -->
<g id="node10" class="node">
<title>ast/ImportProcessor</title>
<g id="a_node10_5"><a xlink:href="tsdocs\modules\ast_ImportProcessor.html" xlink:title="&lt;TABLE&gt;" target="_blank">
<polygon fill="lightblue" stroke="transparent" points="67,-533.5 67,-552.5 234,-552.5 234,-533.5 67,-533.5"/>
<text text-anchor="start" x="87.5" y="-540.3" font-family="Times New Roman,serif" font-weight="bold" text-decoration="underline" font-size="14.00">ast/ImportProcessor</text>
</a>
</g>
<polyline fill="none" stroke="black" points="67,-512.5 234,-512.5 "/>
<polyline fill="none" stroke="black" points="234,-533.5 67,-533.5 "/>
<text text-anchor="start" x="70" y="-520.3" font-family="Times New Roman,serif" font-size="14.00" fill="blue">🏛️ [class]</text>
<text text-anchor="start" x="128" y="-520.3" font-family="Times New Roman,serif" font-size="14.00"> &#160;ImportProcessor</text>
<polyline fill="none" stroke="black" points="234,-512.5 67,-512.5 "/>
<text text-anchor="start" x="70" y="-499.3" font-family="Times New Roman,serif" font-style="italic" font-size="14.00" fill="red">IMPORTS</text>
<polyline fill="none" stroke="black" points="67,-457.5 234,-457.5 "/>
<polyline fill="none" stroke="black" points="234,-491.5 67,-491.5 "/>
<text text-anchor="start" x="70" y="-478.3" font-family="Times New Roman,serif" font-style="italic" font-size="14.00" fill="red">ast/BaseProcessor</text>
<text text-anchor="start" x="70" y="-464.3" font-family="Times New Roman,serif" font-size="14.00">BaseProcessor</text>
<polyline fill="none" stroke="black" points="67,-423.5 234,-423.5 "/>
<polyline fill="none" stroke="black" points="234,-457.5 67,-457.5 "/>
<text text-anchor="start" x="70" y="-444.3" font-family="Times New Roman,serif" font-style="italic" font-size="14.00" fill="red">ast/SharedInterfaces</text>
<text text-anchor="start" x="70" y="-430.3" font-family="Times New Roman,serif" font-size="14.00">ImportInfo</text>
<polyline fill="none" stroke="black" points="67,-377.5 234,-377.5 "/>
<polyline fill="none" stroke="black" points="234,-423.5 67,-423.5 "/>
<text text-anchor="start" x="69" y="-411.3" font-family="Times New Roman,serif" font-style="italic" font-size="14.00" fill="red">utils/file&#45;utils</text>
<text text-anchor="start" x="69" y="-397.3" font-family="Times New Roman,serif" font-size="14.00">cleanPath</text>
<text text-anchor="start" x="69" y="-383.3" font-family="Times New Roman,serif" font-size="14.00">removeExtension</text>
<polygon fill="none" stroke="black" points="65.5,-377 65.5,-554 234.5,-554 234.5,-377 65.5,-377"/>
</g>
<!-- ast/ASTProcessor&#45;&gt;ast/ImportProcessor -->
<g id="edge10" class="edge">
<title>ast/ASTProcessor&#45;&gt;ast/ImportProcessor</title>
<path fill="none" stroke="black" d="M719.68,-766.98C607.75,-728.41 409.9,-653.34 257,-558 255.06,-556.79 253.12,-555.55 251.19,-554.28"/>
<polygon fill="black" stroke="black" points="252.95,-551.24 242.71,-548.52 249.02,-557.04 252.95,-551.24"/>
</g>
<!-- ast/SharedInterfaces -->
<g id="node12" class="node">
<title>ast/SharedInterfaces</title>
<g id="a_node12_6"><a xlink:href="tsdocs\modules\ast_SharedInterfaces.html" xlink:title="&lt;TABLE&gt;" target="_blank">
<polygon fill="lightblue" stroke="transparent" points="661,-313 661,-332 841,-332 841,-313 661,-313"/>
<text text-anchor="start" x="687.5" y="-319.8" font-family="Times New Roman,serif" font-weight="bold" text-decoration="underline" font-size="14.00">ast/SharedInterfaces</text>
</a>
</g>
<polyline fill="none" stroke="black" points="661,-195 841,-195 "/>
<polyline fill="none" stroke="black" points="841,-313 661,-313 "/>
<text text-anchor="start" x="664" y="-299.8" font-family="Times New Roman,serif" font-size="14.00" fill="purple">🧩 [iface]</text>
<text text-anchor="start" x="721" y="-299.8" font-family="Times New Roman,serif" font-size="14.00"> &#160;ClassDetail</text>
<text text-anchor="start" x="664" y="-285.8" font-family="Times New Roman,serif" font-size="14.00" fill="purple">🧩 [iface]</text>
<text text-anchor="start" x="721" y="-285.8" font-family="Times New Roman,serif" font-size="14.00"> &#160;ErrorInfo</text>
<text text-anchor="start" x="664" y="-271.8" font-family="Times New Roman,serif" font-size="14.00" fill="purple">🧩 [iface]</text>
<text text-anchor="start" x="721" y="-271.8" font-family="Times New Roman,serif" font-size="14.00"> &#160;ExportInfo</text>
<text text-anchor="start" x="664" y="-257.8" font-family="Times New Roman,serif" font-size="14.00" fill="purple">🧩 [iface]</text>
<text text-anchor="start" x="721" y="-257.8" font-family="Times New Roman,serif" font-size="14.00"> &#160;ImportInfo</text>
<text text-anchor="start" x="664" y="-243.8" font-family="Times New Roman,serif" font-size="14.00" fill="purple">🧩 [iface]</text>
<text text-anchor="start" x="721" y="-243.8" font-family="Times New Roman,serif" font-size="14.00"> &#160;MethodInfo</text>
<text text-anchor="start" x="664" y="-229.8" font-family="Times New Roman,serif" font-size="14.00" fill="purple">🧩 [iface]</text>
<text text-anchor="start" x="721" y="-229.8" font-family="Times New Roman,serif" font-size="14.00"> &#160;ModuleInfo</text>
<text text-anchor="start" x="664" y="-215.8" font-family="Times New Roman,serif" font-size="14.00" fill="purple">🧩 [iface]</text>
<text text-anchor="start" x="721" y="-215.8" font-family="Times New Roman,serif" font-size="14.00"> &#160;PropertyInfo</text>
<text text-anchor="start" x="664" y="-201.8" font-family="Times New Roman,serif" font-size="14.00" fill="orange">🏷️ [type]</text>
<text text-anchor="start" x="719" y="-201.8" font-family="Times New Roman,serif" font-size="14.00"> &#160;ProcessedASTData</text>
<polyline fill="none" stroke="black" points="841,-195 661,-195 "/>
<text text-anchor="start" x="664" y="-181.8" font-family="Times New Roman,serif" font-style="italic" font-size="14.00" fill="red">IMPORTS</text>
<polygon fill="none" stroke="black" points="660,-173 660,-333 842,-333 842,-173 660,-173"/>
</g>
<!-- ast/ASTProcessor&#45;&gt;ast/SharedInterfaces -->
<g id="edge11" class="edge">
<title>ast/ASTProcessor&#45;&gt;ast/SharedInterfaces</title>
<path fill="none" stroke="black" d="M894.27,-777.29C1000.28,-749.98 1174.52,-687.17 1252,-558 1294.29,-487.49 1307.42,-433.73 1252,-373 1194.85,-310.37 957.2,-365.09 859.67,-336.45"/>
<polygon fill="black" stroke="black" points="860.72,-333.11 850.13,-333.2 858.46,-339.74 860.72,-333.11"/>
</g>
<!-- ast/BaseProcessor&#45;node_modules -->
<g id="node4" class="node">
<title>ast/BaseProcessor&#45;node_modules</title>
<polygon fill="lightgrey" stroke="transparent" points="354,-108.5 354,-127.5 636,-127.5 636,-108.5 354,-108.5"/>
<text text-anchor="start" x="451" y="-115.3" font-family="Times New Roman,serif" font-weight="bold" font-size="14.00">node_modules</text>
<polyline fill="none" stroke="black" points="636,-108.5 354,-108.5 "/>
<text text-anchor="start" x="357" y="-95.3" font-family="Times New Roman,serif" font-style="italic" font-size="14.00" fill="red">@typescript&#45;eslint/types</text>
<text text-anchor="start" x="492" y="-95.3" font-family="Times New Roman,serif" font-size="14.00"> &#160;(AST_NODE_TYPES)</text>
<text text-anchor="start" x="357" y="-81.3" font-family="Times New Roman,serif" font-style="italic" font-size="14.00" fill="red">@typescript&#45;eslint/types</text>
<text text-anchor="start" x="492" y="-81.3" font-family="Times New Roman,serif" font-size="14.00"> &#160;(TSESTree)</text>
<text text-anchor="start" x="357" y="-67.3" font-family="Times New Roman,serif" font-style="italic" font-size="14.00" fill="red">estraverse</text>
<text text-anchor="start" x="414" y="-67.3" font-family="Times New Roman,serif" font-size="14.00"> &#160;(estraverse)</text>
<text text-anchor="start" x="357" y="-53.3" font-family="Times New Roman,serif" font-style="italic" font-size="14.00" fill="red">estraverse</text>
<text text-anchor="start" x="414" y="-53.3" font-family="Times New Roman,serif" font-size="14.00"> &#160;(VisitorOption)</text>
<text text-anchor="start" x="357" y="-39.3" font-family="Times New Roman,serif" font-style="italic" font-size="14.00" fill="red">estraverse</text>
<text text-anchor="start" x="414" y="-39.3" font-family="Times New Roman,serif" font-size="14.00"> &#160;(Controller)</text>
<text text-anchor="start" x="357" y="-25.3" font-family="Times New Roman,serif" font-style="italic" font-size="14.00" fill="red">estree</text>
<text text-anchor="start" x="390" y="-25.3" font-family="Times New Roman,serif" font-size="14.00"> &#160;(Node)</text>
<text text-anchor="start" x="357" y="-11.3" font-family="Times New Roman,serif" font-style="italic" font-size="14.00" fill="red">path</text>
<text text-anchor="start" x="384" y="-11.3" font-family="Times New Roman,serif" font-size="14.00"> &#160;(path)</text>
<polygon fill="none" stroke="black" points="353,-4 353,-129 637,-129 637,-4 353,-4"/>
</g>
<!-- ast/BaseProcessor&#45;&gt;ast/BaseProcessor&#45;node_modules -->
<g id="edge2" class="edge">
<title>ast/BaseProcessor&#45;&gt;ast/BaseProcessor&#45;node_modules</title>
<path fill="none" stroke="black" d="M495,-217.3C495,-196.38 495,-168.89 495,-143.17"/>
<polygon fill="black" stroke="black" points="498.5,-143.04 495,-133.04 491.5,-143.04 498.5,-143.04"/>
</g>
<!-- ast/ClassProcessor&#45;&gt;ast/BaseProcessor -->
<g id="edge12" class="edge">
<title>ast/ClassProcessor&#45;&gt;ast/BaseProcessor</title>
<path fill="none" stroke="black" d="M1298.98,-395.11C1283.97,-386.26 1268.04,-378.42 1252,-373 995.11,-286.26 903.2,-413.25 643,-337 611.12,-327.66 578.62,-310.44 552.22,-294.11"/>
<polygon fill="black" stroke="black" points="553.83,-290.99 543.51,-288.61 550.1,-296.91 553.83,-290.99"/>
</g>
<!-- ast/ClassProcessor&#45;node_modules -->
<g id="node6" class="node">
<title>ast/ClassProcessor&#45;node_modules</title>
<polygon fill="lightgrey" stroke="transparent" points="1247,-260 1247,-279 1529,-279 1529,-260 1247,-260"/>
<text text-anchor="start" x="1344" y="-266.8" font-family="Times New Roman,serif" font-weight="bold" font-size="14.00">node_modules</text>
<polyline fill="none" stroke="black" points="1529,-260 1247,-260 "/>
<text text-anchor="start" x="1250" y="-246.8" font-family="Times New Roman,serif" font-style="italic" font-size="14.00" fill="red">@typescript&#45;eslint/types</text>
<text text-anchor="start" x="1385" y="-246.8" font-family="Times New Roman,serif" font-size="14.00"> &#160;(TSESTree)</text>
<text text-anchor="start" x="1250" y="-232.8" font-family="Times New Roman,serif" font-style="italic" font-size="14.00" fill="red">@typescript&#45;eslint/types</text>
<text text-anchor="start" x="1385" y="-232.8" font-family="Times New Roman,serif" font-size="14.00"> &#160;(AST_NODE_TYPES)</text>
<polygon fill="none" stroke="black" points="1246,-225.5 1246,-280.5 1530,-280.5 1530,-225.5 1246,-225.5"/>
</g>
<!-- ast/ClassProcessor&#45;&gt;ast/ClassProcessor&#45;node_modules -->
<g id="edge3" class="edge">
<title>ast/ClassProcessor&#45;&gt;ast/ClassProcessor&#45;node_modules</title>
<path fill="none" stroke="black" d="M1388,-381.91C1388,-351.98 1388,-319.48 1388,-294.73"/>
<polygon fill="black" stroke="black" points="1391.5,-294.63 1388,-284.63 1384.5,-294.63 1391.5,-294.63"/>
</g>
<!-- ast/ClassProcessor&#45;&gt;ast/SharedInterfaces -->
<g id="edge13" class="edge">
<title>ast/ClassProcessor&#45;&gt;ast/SharedInterfaces</title>
<path fill="none" stroke="black" d="M1302.44,-381.95C1296.76,-378.57 1290.93,-375.55 1285,-373 1113.37,-299.36 1038.73,-402.05 859.56,-336.78"/>
<polygon fill="black" stroke="black" points="860.71,-333.48 850.12,-333.23 858.24,-340.03 860.71,-333.48"/>
</g>
<!-- ast/ErrorCollector&#45;&gt;ast/BaseProcessor -->
<g id="edge14" class="edge">
<title>ast/ErrorCollector&#45;&gt;ast/BaseProcessor</title>
<path fill="none" stroke="black" d="M555.66,-395.87C541.88,-363.64 525.86,-326.17 513.74,-297.84"/>
<polygon fill="black" stroke="black" points="516.94,-296.42 509.79,-288.6 510.51,-299.17 516.94,-296.42"/>
</g>
<!-- ast/ErrorCollector&#45;&gt;ast/SharedInterfaces -->
<g id="edge15" class="edge">
<title>ast/ErrorCollector&#45;&gt;ast/SharedInterfaces</title>
<path fill="none" stroke="black" d="M639.12,-395.87C651.81,-379.78 665.52,-362.39 678.85,-345.49"/>
<polygon fill="black" stroke="black" points="681.92,-347.25 685.36,-337.24 676.42,-342.92 681.92,-347.25"/>
</g>
<!-- ast/ExportProcessor&#45;&gt;ast/BaseProcessor -->
<g id="edge16" class="edge">
<title>ast/ExportProcessor&#45;&gt;ast/BaseProcessor</title>
<path fill="none" stroke="black" d="M688.84,-379.06C685.87,-377.01 682.92,-374.99 680,-373 640.43,-346.05 595.24,-316.95 559.44,-294.28"/>
<polygon fill="black" stroke="black" points="560.87,-291.04 550.54,-288.66 557.13,-296.96 560.87,-291.04"/>
</g>
<!-- ast/ExportProcessor&#45;node_modules -->
<g id="node9" class="node">
<title>ast/ExportProcessor&#45;node_modules</title>
<polygon fill="lightgrey" stroke="transparent" points="877,-267 877,-286 1159,-286 1159,-267 877,-267"/>
<text text-anchor="start" x="974" y="-273.8" font-family="Times New Roman,serif" font-weight="bold" font-size="14.00">node_modules</text>
<polyline fill="none" stroke="black" points="1159,-267 877,-267 "/>
<text text-anchor="start" x="880" y="-253.8" font-family="Times New Roman,serif" font-style="italic" font-size="14.00" fill="red">@typescript&#45;eslint/types</text>
<text text-anchor="start" x="1015" y="-253.8" font-family="Times New Roman,serif" font-size="14.00"> &#160;(TSESTree)</text>
<text text-anchor="start" x="880" y="-239.8" font-family="Times New Roman,serif" font-style="italic" font-size="14.00" fill="red">@typescript&#45;eslint/types</text>
<text text-anchor="start" x="1015" y="-239.8" font-family="Times New Roman,serif" font-size="14.00"> &#160;(AST_NODE_TYPES)</text>
<text text-anchor="start" x="880" y="-225.8" font-family="Times New Roman,serif" font-style="italic" font-size="14.00" fill="red">path</text>
<text text-anchor="start" x="907" y="-225.8" font-family="Times New Roman,serif" font-size="14.00"> &#160;(path)</text>
<polygon fill="none" stroke="black" points="876,-218.5 876,-287.5 1160,-287.5 1160,-218.5 876,-218.5"/>
</g>
<!-- ast/ExportProcessor&#45;&gt;ast/ExportProcessor&#45;node_modules -->
<g id="edge4" class="edge">
<title>ast/ExportProcessor&#45;&gt;ast/ExportProcessor&#45;node_modules</title>
<path fill="none" stroke="black" d="M896.48,-375.23C922.82,-348.95 950.52,-321.32 972.81,-299.08"/>
<polygon fill="black" stroke="black" points="975.55,-301.29 980.16,-291.75 970.61,-296.34 975.55,-301.29"/>
</g>
<!-- ast/ExportProcessor&#45;&gt;ast/SharedInterfaces -->
<g id="edge17" class="edge">
<title>ast/ExportProcessor&#45;&gt;ast/SharedInterfaces</title>
<path fill="none" stroke="black" d="M783.25,-375.23C780.75,-365.83 778.2,-356.26 775.69,-346.82"/>
<polygon fill="black" stroke="black" points="779.05,-345.82 773.09,-337.05 772.28,-347.61 779.05,-345.82"/>
</g>
<!-- ast/ImportProcessor&#45;&gt;ast/BaseProcessor -->
<g id="edge18" class="edge">
<title>ast/ImportProcessor&#45;&gt;ast/BaseProcessor</title>
<path fill="none" stroke="black" d="M242.62,-383.03C247.4,-379.54 252.21,-376.17 257,-373 303.37,-342.25 358.8,-314.09 404.49,-292.89"/>
<polygon fill="black" stroke="black" points="406.17,-295.97 413.79,-288.61 403.24,-289.61 406.17,-295.97"/>
</g>
<!-- ast/ImportProcessor&#45;node_modules -->
<g id="node11" class="node">
<title>ast/ImportProcessor&#45;node_modules</title>
<polygon fill="lightgrey" stroke="transparent" points="9,-267 9,-286 291,-286 291,-267 9,-267"/>
<text text-anchor="start" x="106" y="-273.8" font-family="Times New Roman,serif" font-weight="bold" font-size="14.00">node_modules</text>
<polyline fill="none" stroke="black" points="291,-267 9,-267 "/>
<text text-anchor="start" x="12" y="-253.8" font-family="Times New Roman,serif" font-style="italic" font-size="14.00" fill="red">@typescript&#45;eslint/types</text>
<text text-anchor="start" x="147" y="-253.8" font-family="Times New Roman,serif" font-size="14.00"> &#160;(TSESTree)</text>
<text text-anchor="start" x="12" y="-239.8" font-family="Times New Roman,serif" font-style="italic" font-size="14.00" fill="red">@typescript&#45;eslint/types</text>
<text text-anchor="start" x="147" y="-239.8" font-family="Times New Roman,serif" font-size="14.00"> &#160;(AST_NODE_TYPES)</text>
<text text-anchor="start" x="12" y="-225.8" font-family="Times New Roman,serif" font-style="italic" font-size="14.00" fill="red">path</text>
<text text-anchor="start" x="39" y="-225.8" font-family="Times New Roman,serif" font-size="14.00"> &#160;(path)</text>
<polygon fill="none" stroke="black" points="8,-218.5 8,-287.5 292,-287.5 292,-218.5 8,-218.5"/>
</g>
<!-- ast/ImportProcessor&#45;&gt;ast/ImportProcessor&#45;node_modules -->
<g id="edge5" class="edge">
<title>ast/ImportProcessor&#45;&gt;ast/ImportProcessor&#45;node_modules</title>
<path fill="none" stroke="black" d="M150,-372.78C150,-348.33 150,-322.89 150,-301.85"/>
<polygon fill="black" stroke="black" points="153.5,-301.59 150,-291.59 146.5,-301.59 153.5,-301.59"/>
</g>
<!-- ast/ImportProcessor&#45;&gt;ast/SharedInterfaces -->
<g id="edge19" class="edge">
<title>ast/ImportProcessor&#45;&gt;ast/SharedInterfaces</title>
<path fill="none" stroke="black" d="M242.52,-395.75C257.79,-386.88 273.9,-378.86 290,-373 416.61,-326.93 462.24,-376.66 591,-337 608.16,-331.71 625.66,-324.63 642.5,-316.82"/>
<polygon fill="black" stroke="black" points="644.24,-319.86 651.77,-312.41 641.24,-313.54 644.24,-319.86"/>
</g>
<!-- ast/UsageProcessor -->
<g id="node13" class="node">
<title>ast/UsageProcessor</title>
<g id="a_node13_7"><a xlink:href="tsdocs\modules\ast_UsageProcessor.html" xlink:title="&lt;TABLE&gt;" target="_blank">
<polygon fill="lightblue" stroke="transparent" points="308,-493.5 308,-512.5 472,-512.5 472,-493.5 308,-493.5"/>
<text text-anchor="start" x="329.5" y="-500.3" font-family="Times New Roman,serif" font-weight="bold" text-decoration="underline" font-size="14.00">ast/UsageProcessor</text>
</a>
</g>
<polyline fill="none" stroke="black" points="308,-472.5 472,-472.5 "/>
<polyline fill="none" stroke="black" points="472,-493.5 308,-493.5 "/>
<text text-anchor="start" x="311" y="-480.3" font-family="Times New Roman,serif" font-size="14.00" fill="blue">🏛️ [class]</text>
<text text-anchor="start" x="369" y="-480.3" font-family="Times New Roman,serif" font-size="14.00"> &#160;UsageProcessor</text>
<polyline fill="none" stroke="black" points="472,-472.5 308,-472.5 "/>
<text text-anchor="start" x="311" y="-459.3" font-family="Times New Roman,serif" font-style="italic" font-size="14.00" fill="red">IMPORTS</text>
<polyline fill="none" stroke="black" points="308,-417.5 472,-417.5 "/>
<polyline fill="none" stroke="black" points="472,-451.5 308,-451.5 "/>
<text text-anchor="start" x="311" y="-438.3" font-family="Times New Roman,serif" font-style="italic" font-size="14.00" fill="red">ast/BaseProcessor</text>
<text text-anchor="start" x="311" y="-424.3" font-family="Times New Roman,serif" font-size="14.00">BaseProcessor</text>
<polygon fill="none" stroke="black" points="307,-417 307,-514 473,-514 473,-417 307,-417"/>
</g>
<!-- ast/UsageProcessor&#45;&gt;ast/BaseProcessor -->
<g id="edge20" class="edge">
<title>ast/UsageProcessor&#45;&gt;ast/BaseProcessor</title>
<path fill="none" stroke="black" d="M415.82,-412.74C433.41,-377.46 456.45,-331.27 473.14,-297.82"/>
<polygon fill="black" stroke="black" points="476.34,-299.26 477.67,-288.74 470.07,-296.13 476.34,-299.26"/>
</g>
</g>
</svg>
