<?xml version="1.0" encoding="UTF-8" standalone="no"?>
<!DOCTYPE svg PUBLIC "-//W3C//DTD SVG 1.1//EN"
 "http://www.w3.org/Graphics/SVG/1.1/DTD/svg11.dtd">
<!-- Generated by graphviz version 3.0.0 (20220226.1711)
 -->
<!-- Pages: 1 -->
<svg width="1371pt" height="975pt"
 viewBox="0.00 0.00 1371.00 975.00" xmlns="http://www.w3.org/2000/svg" xmlns:xlink="http://www.w3.org/1999/xlink">
<g id="graph0" class="graph" transform="scale(1 1) rotate(0) translate(4 971)">
<polygon fill="white" stroke="transparent" points="-4,4 -4,-971 1367,-971 1367,4 -4,4"/>
<text text-anchor="middle" x="681.5" y="-951.8" font-family="Times New Roman,serif" font-size="14.00">ast Module Exports</text>
<!-- ast/ASTProcessor -->
<g id="node1" class="node">
<title>ast/ASTProcessor</title>
<g id="a_node1_0"><a xlink:href="tsdocs\modules\ast_ASTProcessor.html" xlink:title="&lt;TABLE&gt;" target="_blank">
<polygon fill="lightblue" stroke="transparent" points="625,-920 625,-939 749,-939 749,-920 625,-920"/>
<text text-anchor="start" x="631" y="-926.8" font-family="Times New Roman,serif" font-weight="bold" text-decoration="underline" font-size="14.00">ast/ASTProcessor</text>
</a>
</g>
<polyline fill="none" stroke="black" points="625,-899 749,-899 "/>
<polyline fill="none" stroke="black" points="749,-920 625,-920 "/>
<text text-anchor="start" x="628" y="-905.8" font-family="Times New Roman,serif" font-size="14.00">ASTProcessor</text>
<polyline fill="none" stroke="black" points="625,-865 749,-865 "/>
<polyline fill="none" stroke="black" points="749,-899 625,-899 "/>
<text text-anchor="start" x="628" y="-885.8" font-family="Times New Roman,serif" font-style="italic" font-size="14.00" fill="red">ast/BaseProcessor</text>
<text text-anchor="start" x="637.5" y="-871.8" font-family="Times New Roman,serif" font-size="14.00">BaseProcessor</text>
<polyline fill="none" stroke="black" points="625,-831 749,-831 "/>
<polyline fill="none" stroke="black" points="749,-865 625,-865 "/>
<text text-anchor="start" x="628" y="-851.8" font-family="Times New Roman,serif" font-style="italic" font-size="14.00" fill="red">ast/ClassProcessor</text>
<text text-anchor="start" x="638" y="-837.8" font-family="Times New Roman,serif" font-size="14.00">ClassProcessor</text>
<polyline fill="none" stroke="black" points="625,-797 749,-797 "/>
<polyline fill="none" stroke="black" points="749,-831 625,-831 "/>
<text text-anchor="start" x="628" y="-817.8" font-family="Times New Roman,serif" font-style="italic" font-size="14.00" fill="red">ast/ErrorCollector</text>
<text text-anchor="start" x="639" y="-803.8" font-family="Times New Roman,serif" font-size="14.00">ErrorCollector</text>
<polyline fill="none" stroke="black" points="625,-763 749,-763 "/>
<polyline fill="none" stroke="black" points="749,-797 625,-797 "/>
<text text-anchor="start" x="628" y="-783.8" font-family="Times New Roman,serif" font-style="italic" font-size="14.00" fill="red">ast/ExportProcessor</text>
<text text-anchor="start" x="637.5" y="-769.8" font-family="Times New Roman,serif" font-size="14.00">ExportProcessor</text>
<polyline fill="none" stroke="black" points="625,-729 749,-729 "/>
<polyline fill="none" stroke="black" points="749,-763 625,-763 "/>
<text text-anchor="start" x="628" y="-749.8" font-family="Times New Roman,serif" font-style="italic" font-size="14.00" fill="red">ast/ImportProcessor</text>
<text text-anchor="start" x="637.5" y="-735.8" font-family="Times New Roman,serif" font-size="14.00">ImportProcessor</text>
<polyline fill="none" stroke="black" points="625,-639 749,-639 "/>
<polyline fill="none" stroke="black" points="749,-729 625,-729 "/>
<text text-anchor="start" x="628" y="-715.8" font-family="Times New Roman,serif" font-style="italic" font-size="14.00" fill="red">ast/SharedInterfaces</text>
<text text-anchor="start" x="655.5" y="-701.8" font-family="Times New Roman,serif" font-size="14.00">ClassDetail</text>
<text text-anchor="start" x="656" y="-687.8" font-family="Times New Roman,serif" font-size="14.00">ImportInfo</text>
<text text-anchor="start" x="656" y="-673.8" font-family="Times New Roman,serif" font-size="14.00">ExportInfo</text>
<text text-anchor="start" x="653.5" y="-659.8" font-family="Times New Roman,serif" font-size="14.00">ModuleInfo</text>
<text text-anchor="start" x="631" y="-645.8" font-family="Times New Roman,serif" font-size="14.00">ProcessedASTData</text>
<polyline fill="none" stroke="black" points="625,-565 749,-565 "/>
<polyline fill="none" stroke="black" points="749,-639 625,-639 "/>
<text text-anchor="start" x="638.5" y="-626.8" font-family="Times New Roman,serif" font-style="italic" font-size="14.00" fill="red">utils/file&#45;utils</text>
<text text-anchor="start" x="648.5" y="-612.8" font-family="Times New Roman,serif" font-size="14.00">cleanPath</text>
<text text-anchor="start" x="629.5" y="-598.8" font-family="Times New Roman,serif" font-size="14.00">getModuleName</text>
<text text-anchor="start" x="628.5" y="-584.8" font-family="Times New Roman,serif" font-size="14.00">moduleFileName</text>
<text text-anchor="start" x="627" y="-570.8" font-family="Times New Roman,serif" font-size="14.00">removeExtension</text>
<polygon fill="none" stroke="black" points="624,-564 624,-940 750,-940 750,-564 624,-564"/>
</g>
<!-- ast/ASTProcessor&#45;node_modules -->
<g id="node2" class="node">
<title>ast/ASTProcessor&#45;node_modules</title>
<polygon fill="lightgrey" stroke="transparent" points="801,-491 801,-510 1079,-510 1079,-491 801,-491"/>
<text text-anchor="start" x="896" y="-497.8" font-family="Times New Roman,serif" font-weight="bold" font-size="14.00">node_modules</text>
<polyline fill="none" stroke="black" points="1079,-491 801,-491 "/>
<text text-anchor="start" x="847" y="-477.8" font-family="Times New Roman,serif" font-style="italic" font-size="14.00" fill="red">@typescript&#45;eslint/parser</text>
<text text-anchor="start" x="990" y="-477.8" font-family="Times New Roman,serif" font-size="14.00"> (parse)</text>
<text text-anchor="start" x="804" y="-463.8" font-family="Times New Roman,serif" font-style="italic" font-size="14.00" fill="red">@typescript&#45;eslint/types</text>
<text text-anchor="start" x="939" y="-463.8" font-family="Times New Roman,serif" font-size="14.00"> (AST_NODE_TYPES)</text>
<text text-anchor="start" x="825.5" y="-449.8" font-family="Times New Roman,serif" font-style="italic" font-size="14.00" fill="red">@typescript&#45;eslint/types</text>
<text text-anchor="start" x="960.5" y="-449.8" font-family="Times New Roman,serif" font-size="14.00"> (ParserOptions)</text>
<text text-anchor="start" x="836" y="-435.8" font-family="Times New Roman,serif" font-style="italic" font-size="14.00" fill="red">@typescript&#45;eslint/types</text>
<text text-anchor="start" x="971" y="-435.8" font-family="Times New Roman,serif" font-size="14.00"> (TSESTree)</text>
<text text-anchor="start" x="877" y="-421.8" font-family="Times New Roman,serif" font-style="italic" font-size="14.00" fill="red">estraverse</text>
<text text-anchor="start" x="934" y="-421.8" font-family="Times New Roman,serif" font-size="14.00"> (estraverse)</text>
<text text-anchor="start" x="901.5" y="-407.8" font-family="Times New Roman,serif" font-style="italic" font-size="14.00" fill="red">estree</text>
<text text-anchor="start" x="934.5" y="-407.8" font-family="Times New Roman,serif" font-size="14.00"> (Node)</text>
<text text-anchor="start" x="892" y="-393.8" font-family="Times New Roman,serif" font-style="italic" font-size="14.00" fill="red">fs</text>
<text text-anchor="start" x="902" y="-393.8" font-family="Times New Roman,serif" font-size="14.00"> (readFileSync)</text>
<text text-anchor="start" x="908" y="-379.8" font-family="Times New Roman,serif" font-style="italic" font-size="14.00" fill="red">path</text>
<text text-anchor="start" x="935" y="-379.8" font-family="Times New Roman,serif" font-size="14.00"> (path)</text>
<polygon fill="none" stroke="black" points="800,-372.5 800,-511.5 1080,-511.5 1080,-372.5 800,-372.5"/>
</g>
<!-- ast/ASTProcessor&#45;&gt;ast/ASTProcessor&#45;node_modules -->
<g id="edge1" class="edge">
<title>ast/ASTProcessor&#45;&gt;ast/ASTProcessor&#45;node_modules</title>
<path fill="none" stroke="black" d="M758.15,-664.39C794.4,-620.25 838.21,-566.91 873.75,-523.65"/>
<polygon fill="black" stroke="black" points="876.64,-525.65 880.28,-515.7 871.23,-521.2 876.64,-525.65"/>
</g>
<!-- ast/BaseProcessor -->
<g id="node3" class="node">
<title>ast/BaseProcessor</title>
<g id="a_node3_1"><a xlink:href="tsdocs\modules\ast_BaseProcessor.html" xlink:title="&lt;TABLE&gt;" target="_blank">
<polygon fill="lightblue" stroke="transparent" points="353,-247.5 353,-266.5 471,-266.5 471,-247.5 353,-247.5"/>
<text text-anchor="start" x="355" y="-254.3" font-family="Times New Roman,serif" font-weight="bold" text-decoration="underline" font-size="14.00">ast/BaseProcessor</text>
</a>
</g>
<polyline fill="none" stroke="black" points="353,-226.5 471,-226.5 "/>
<polyline fill="none" stroke="black" points="471,-247.5 353,-247.5 "/>
<text text-anchor="start" x="356" y="-233.3" font-family="Times New Roman,serif" font-size="14.00">BaseProcessor</text>
<polygon fill="none" stroke="black" points="352,-225.5 352,-267.5 472,-267.5 472,-225.5 352,-225.5"/>
</g>
<!-- ast/ASTProcessor&#45;&gt;ast/BaseProcessor -->
<g id="edge6" class="edge">
<title>ast/ASTProcessor&#45;&gt;ast/BaseProcessor</title>
<path fill="none" stroke="black" d="M615.74,-735.86C517.76,-710.78 345.05,-650.31 270,-524 232.77,-461.34 238.27,-425.62 270,-360 275.51,-348.6 330.28,-307.02 370.16,-277.75"/>
<polygon fill="black" stroke="black" points="372.42,-280.43 378.42,-271.7 368.28,-274.78 372.42,-280.43"/>
</g>
<!-- ast/ClassProcessor -->
<g id="node5" class="node">
<title>ast/ClassProcessor</title>
<g id="a_node5_2"><a xlink:href="tsdocs\modules\ast_ClassProcessor.html" xlink:title="&lt;TABLE&gt;" target="_blank">
<polygon fill="lightblue" stroke="transparent" points="1153,-491 1153,-510 1277,-510 1277,-491 1153,-491"/>
<text text-anchor="start" x="1156" y="-497.8" font-family="Times New Roman,serif" font-weight="bold" text-decoration="underline" font-size="14.00">ast/ClassProcessor</text>
</a>
</g>
<polyline fill="none" stroke="black" points="1153,-470 1277,-470 "/>
<polyline fill="none" stroke="black" points="1277,-491 1153,-491 "/>
<text text-anchor="start" x="1156" y="-476.8" font-family="Times New Roman,serif" font-size="14.00">ClassProcessor</text>
<polyline fill="none" stroke="black" points="1153,-436 1277,-436 "/>
<polyline fill="none" stroke="black" points="1277,-470 1153,-470 "/>
<text text-anchor="start" x="1156" y="-456.8" font-family="Times New Roman,serif" font-style="italic" font-size="14.00" fill="red">ast/BaseProcessor</text>
<text text-anchor="start" x="1165.5" y="-442.8" font-family="Times New Roman,serif" font-size="14.00">BaseProcessor</text>
<polyline fill="none" stroke="black" points="1153,-374 1277,-374 "/>
<polyline fill="none" stroke="black" points="1277,-436 1153,-436 "/>
<text text-anchor="start" x="1156" y="-422.8" font-family="Times New Roman,serif" font-style="italic" font-size="14.00" fill="red">ast/SharedInterfaces</text>
<text text-anchor="start" x="1183.5" y="-408.8" font-family="Times New Roman,serif" font-size="14.00">ClassDetail</text>
<text text-anchor="start" x="1181.5" y="-394.8" font-family="Times New Roman,serif" font-size="14.00">MethodInfo</text>
<text text-anchor="start" x="1178.5" y="-380.8" font-family="Times New Roman,serif" font-size="14.00">PropertyInfo</text>
<polygon fill="none" stroke="black" points="1152,-373 1152,-511 1278,-511 1278,-373 1152,-373"/>
</g>
<!-- ast/ASTProcessor&#45;&gt;ast/ClassProcessor -->
<g id="edge7" class="edge">
<title>ast/ASTProcessor&#45;&gt;ast/ClassProcessor</title>
<path fill="none" stroke="black" d="M758.06,-722.18C848.64,-683.79 1008.1,-610.55 1130,-524 1131.89,-522.66 1133.78,-521.27 1135.67,-519.86"/>
<polygon fill="black" stroke="black" points="1138.16,-522.35 1143.9,-513.44 1133.86,-516.83 1138.16,-522.35"/>
</g>
<!-- ast/ErrorCollector -->
<g id="node7" class="node">
<title>ast/ErrorCollector</title>
<g id="a_node7_3"><a xlink:href="tsdocs\modules\ast_ErrorCollector.html" xlink:title="&lt;TABLE&gt;" target="_blank">
<polygon fill="lightblue" stroke="transparent" points="449,-477 449,-496 573,-496 573,-477 449,-477"/>
<text text-anchor="start" x="453.5" y="-483.8" font-family="Times New Roman,serif" font-weight="bold" text-decoration="underline" font-size="14.00">ast/ErrorCollector</text>
</a>
</g>
<polyline fill="none" stroke="black" points="449,-456 573,-456 "/>
<polyline fill="none" stroke="black" points="573,-477 449,-477 "/>
<text text-anchor="start" x="452" y="-462.8" font-family="Times New Roman,serif" font-size="14.00">ErrorCollector</text>
<polyline fill="none" stroke="black" points="449,-422 573,-422 "/>
<polyline fill="none" stroke="black" points="573,-456 449,-456 "/>
<text text-anchor="start" x="452" y="-442.8" font-family="Times New Roman,serif" font-style="italic" font-size="14.00" fill="red">ast/BaseProcessor</text>
<text text-anchor="start" x="461.5" y="-428.8" font-family="Times New Roman,serif" font-size="14.00">BaseProcessor</text>
<polyline fill="none" stroke="black" points="449,-388 573,-388 "/>
<polyline fill="none" stroke="black" points="573,-422 449,-422 "/>
<text text-anchor="start" x="452" y="-408.8" font-family="Times New Roman,serif" font-style="italic" font-size="14.00" fill="red">ast/SharedInterfaces</text>
<text text-anchor="start" x="484.5" y="-394.8" font-family="Times New Roman,serif" font-size="14.00">ErrorInfo</text>
<polygon fill="none" stroke="black" points="448,-387 448,-497 574,-497 574,-387 448,-387"/>
</g>
<!-- ast/ASTProcessor&#45;&gt;ast/ErrorCollector -->
<g id="edge8" class="edge">
<title>ast/ASTProcessor&#45;&gt;ast/ErrorCollector</title>
<path fill="none" stroke="black" d="M615.92,-626.61C593.15,-586.76 568.81,-544.17 549.31,-510.04"/>
<polygon fill="black" stroke="black" points="552.2,-508.05 544.2,-501.11 546.13,-511.53 552.2,-508.05"/>
</g>
<!-- ast/ExportProcessor -->
<g id="node8" class="node">
<title>ast/ExportProcessor</title>
<g id="a_node8_4"><a xlink:href="tsdocs\modules\ast_ExportProcessor.html" xlink:title="&lt;TABLE&gt;" target="_blank">
<polygon fill="lightblue" stroke="transparent" points="609,-499 609,-518 765,-518 765,-499 609,-499"/>
<text text-anchor="start" x="624" y="-505.8" font-family="Times New Roman,serif" font-weight="bold" text-decoration="underline" font-size="14.00">ast/ExportProcessor</text>
</a>
</g>
<polyline fill="none" stroke="black" points="609,-448 765,-448 "/>
<polyline fill="none" stroke="black" points="765,-499 609,-499 "/>
<text text-anchor="start" x="612" y="-484.8" font-family="Times New Roman,serif" font-size="14.00">DeclarationDetailsCallback</text>
<text text-anchor="start" x="643.5" y="-469.8" font-family="Times New Roman,serif" font-size="14.00">DeclarationInfo</text>
<text text-anchor="start" x="639" y="-454.8" font-family="Times New Roman,serif" font-size="14.00">ExportProcessor</text>
<polyline fill="none" stroke="black" points="609,-414 765,-414 "/>
<polyline fill="none" stroke="black" points="765,-448 609,-448 "/>
<text text-anchor="start" x="612" y="-434.8" font-family="Times New Roman,serif" font-style="italic" font-size="14.00" fill="red">ast/BaseProcessor</text>
<text text-anchor="start" x="621.5" y="-420.8" font-family="Times New Roman,serif" font-size="14.00">BaseProcessor</text>
<polyline fill="none" stroke="black" points="609,-366 765,-366 "/>
<polyline fill="none" stroke="black" points="765,-414 609,-414 "/>
<text text-anchor="start" x="612" y="-400.8" font-family="Times New Roman,serif" font-style="italic" font-size="14.00" fill="red">ast/SharedInterfaces</text>
<text text-anchor="start" x="640" y="-386.8" font-family="Times New Roman,serif" font-size="14.00">ExportInfo</text>
<text text-anchor="start" x="637.5" y="-372.8" font-family="Times New Roman,serif" font-size="14.00">ModuleInfo</text>
<polygon fill="none" stroke="black" points="608,-365 608,-519 766,-519 766,-365 608,-365"/>
</g>
<!-- ast/ASTProcessor&#45;&gt;ast/ExportProcessor -->
<g id="edge9" class="edge">
<title>ast/ASTProcessor&#45;&gt;ast/ExportProcessor</title>
<path fill="none" stroke="black" d="M687,-559.88C687,-550.71 687,-541.72 687,-533.07"/>
<polygon fill="black" stroke="black" points="690.5,-533.06 687,-523.06 683.5,-533.06 690.5,-533.06"/>
</g>
<!-- ast/ImportProcessor -->
<g id="node10" class="node">
<title>ast/ImportProcessor</title>
<g id="a_node10_5"><a xlink:href="tsdocs\modules\ast_ImportProcessor.html" xlink:title="&lt;TABLE&gt;" target="_blank">
<polygon fill="lightblue" stroke="transparent" points="83,-500 83,-519 213,-519 213,-500 83,-500"/>
<text text-anchor="start" x="85" y="-506.8" font-family="Times New Roman,serif" font-weight="bold" text-decoration="underline" font-size="14.00">ast/ImportProcessor</text>
</a>
</g>
<polyline fill="none" stroke="black" points="83,-479 213,-479 "/>
<polyline fill="none" stroke="black" points="213,-500 83,-500 "/>
<text text-anchor="start" x="86" y="-485.8" font-family="Times New Roman,serif" font-size="14.00">ImportProcessor</text>
<polyline fill="none" stroke="black" points="83,-445 213,-445 "/>
<polyline fill="none" stroke="black" points="213,-479 83,-479 "/>
<text text-anchor="start" x="86" y="-465.8" font-family="Times New Roman,serif" font-style="italic" font-size="14.00" fill="red">ast/BaseProcessor</text>
<text text-anchor="start" x="95.5" y="-451.8" font-family="Times New Roman,serif" font-size="14.00">BaseProcessor</text>
<polyline fill="none" stroke="black" points="83,-411 213,-411 "/>
<polyline fill="none" stroke="black" points="213,-445 83,-445 "/>
<text text-anchor="start" x="86" y="-431.8" font-family="Times New Roman,serif" font-style="italic" font-size="14.00" fill="red">ast/SharedInterfaces</text>
<text text-anchor="start" x="114" y="-417.8" font-family="Times New Roman,serif" font-size="14.00">ImportInfo</text>
<polyline fill="none" stroke="black" points="83,-365 213,-365 "/>
<polyline fill="none" stroke="black" points="213,-411 83,-411 "/>
<text text-anchor="start" x="96.5" y="-398.8" font-family="Times New Roman,serif" font-style="italic" font-size="14.00" fill="red">utils/file&#45;utils</text>
<text text-anchor="start" x="106.5" y="-384.8" font-family="Times New Roman,serif" font-size="14.00">cleanPath</text>
<text text-anchor="start" x="85" y="-370.8" font-family="Times New Roman,serif" font-size="14.00">removeExtension</text>
<polygon fill="none" stroke="black" points="82,-364 82,-520 214,-520 214,-364 82,-364"/>
</g>
<!-- ast/ASTProcessor&#45;&gt;ast/ImportProcessor -->
<g id="edge10" class="edge">
<title>ast/ASTProcessor&#45;&gt;ast/ImportProcessor</title>
<path fill="none" stroke="black" d="M615.64,-722.43C523.77,-684.03 361.08,-610.52 236,-524 234.13,-522.7 232.25,-521.37 230.38,-520.01"/>
<polygon fill="black" stroke="black" points="232.29,-517.06 222.2,-513.83 228.07,-522.65 232.29,-517.06"/>
</g>
<!-- ast/SharedInterfaces -->
<g id="node12" class="node">
<title>ast/SharedInterfaces</title>
<g id="a_node12_6"><a xlink:href="tsdocs\modules\ast_SharedInterfaces.html" xlink:title="&lt;TABLE&gt;" target="_blank">
<polygon fill="lightblue" stroke="transparent" points="566,-299.5 566,-318.5 697,-318.5 697,-299.5 566,-299.5"/>
<text text-anchor="start" x="568" y="-306.3" font-family="Times New Roman,serif" font-weight="bold" text-decoration="underline" font-size="14.00">ast/SharedInterfaces</text>
</a>
</g>
<polyline fill="none" stroke="black" points="566,-173.5 697,-173.5 "/>
<polyline fill="none" stroke="black" points="697,-299.5 566,-299.5 "/>
<text text-anchor="start" x="593.5" y="-285.3" font-family="Times New Roman,serif" font-size="14.00">ClassDetail</text>
<text text-anchor="start" x="598.5" y="-270.3" font-family="Times New Roman,serif" font-size="14.00">ErrorInfo</text>
<text text-anchor="start" x="594" y="-255.3" font-family="Times New Roman,serif" font-size="14.00">ExportInfo</text>
<text text-anchor="start" x="594" y="-240.3" font-family="Times New Roman,serif" font-size="14.00">ImportInfo</text>
<text text-anchor="start" x="591.5" y="-225.3" font-family="Times New Roman,serif" font-size="14.00">MethodInfo</text>
<text text-anchor="start" x="591.5" y="-210.3" font-family="Times New Roman,serif" font-size="14.00">ModuleInfo</text>
<text text-anchor="start" x="569" y="-195.3" font-family="Times New Roman,serif" font-size="14.00">ProcessedASTData</text>
<text text-anchor="start" x="588.5" y="-180.3" font-family="Times New Roman,serif" font-size="14.00">PropertyInfo</text>
<polygon fill="none" stroke="black" points="564.5,-173 564.5,-320 697.5,-320 697.5,-173 564.5,-173"/>
</g>
<!-- ast/ASTProcessor&#45;&gt;ast/SharedInterfaces -->
<g id="edge11" class="edge">
<title>ast/ASTProcessor&#45;&gt;ast/SharedInterfaces</title>
<path fill="none" stroke="black" d="M758.33,-735.15C854.92,-709.43 1023.67,-648.42 1097,-524 1134.01,-461.21 1146.06,-413.9 1097,-360 1039.61,-296.94 792.98,-358.48 715,-324 714.9,-323.96 714.8,-323.91 714.7,-323.87"/>
<polygon fill="black" stroke="black" points="716.16,-320.69 705.66,-319.34 713.03,-326.95 716.16,-320.69"/>
</g>
<!-- ast/BaseProcessor&#45;node_modules -->
<g id="node4" class="node">
<title>ast/BaseProcessor&#45;node_modules</title>
<polygon fill="lightgrey" stroke="transparent" points="273,-108.5 273,-127.5 551,-127.5 551,-108.5 273,-108.5"/>
<text text-anchor="start" x="368" y="-115.3" font-family="Times New Roman,serif" font-weight="bold" font-size="14.00">node_modules</text>
<polyline fill="none" stroke="black" points="551,-108.5 273,-108.5 "/>
<text text-anchor="start" x="276" y="-95.3" font-family="Times New Roman,serif" font-style="italic" font-size="14.00" fill="red">@typescript&#45;eslint/types</text>
<text text-anchor="start" x="411" y="-95.3" font-family="Times New Roman,serif" font-size="14.00"> (AST_NODE_TYPES)</text>
<text text-anchor="start" x="308" y="-81.3" font-family="Times New Roman,serif" font-style="italic" font-size="14.00" fill="red">@typescript&#45;eslint/types</text>
<text text-anchor="start" x="443" y="-81.3" font-family="Times New Roman,serif" font-size="14.00"> (TSESTree)</text>
<text text-anchor="start" x="349" y="-67.3" font-family="Times New Roman,serif" font-style="italic" font-size="14.00" fill="red">estraverse</text>
<text text-anchor="start" x="406" y="-67.3" font-family="Times New Roman,serif" font-size="14.00"> (estraverse)</text>
<text text-anchor="start" x="338.5" y="-53.3" font-family="Times New Roman,serif" font-style="italic" font-size="14.00" fill="red">estraverse</text>
<text text-anchor="start" x="395.5" y="-53.3" font-family="Times New Roman,serif" font-size="14.00"> (VisitorOption)</text>
<text text-anchor="start" x="348.5" y="-39.3" font-family="Times New Roman,serif" font-style="italic" font-size="14.00" fill="red">estraverse</text>
<text text-anchor="start" x="405.5" y="-39.3" font-family="Times New Roman,serif" font-size="14.00"> (Controller)</text>
<text text-anchor="start" x="373.5" y="-25.3" font-family="Times New Roman,serif" font-style="italic" font-size="14.00" fill="red">estree</text>
<text text-anchor="start" x="406.5" y="-25.3" font-family="Times New Roman,serif" font-size="14.00"> (Node)</text>
<text text-anchor="start" x="380" y="-11.3" font-family="Times New Roman,serif" font-style="italic" font-size="14.00" fill="red">path</text>
<text text-anchor="start" x="407" y="-11.3" font-family="Times New Roman,serif" font-size="14.00"> (path)</text>
<polygon fill="none" stroke="black" points="272,-4 272,-129 552,-129 552,-4 272,-4"/>
</g>
<!-- ast/BaseProcessor&#45;&gt;ast/BaseProcessor&#45;node_modules -->
<g id="edge2" class="edge">
<title>ast/BaseProcessor&#45;&gt;ast/BaseProcessor&#45;node_modules</title>
<path fill="none" stroke="black" d="M412,-221.49C412,-201.38 412,-171.53 412,-143.44"/>
<polygon fill="black" stroke="black" points="415.5,-143.2 412,-133.2 408.5,-143.2 415.5,-143.2"/>
</g>
<!-- ast/ClassProcessor&#45;&gt;ast/BaseProcessor -->
<g id="edge12" class="edge">
<title>ast/ClassProcessor&#45;&gt;ast/BaseProcessor</title>
<path fill="none" stroke="black" d="M1143.71,-383.26C1129.01,-373.96 1113.08,-365.57 1097,-360 865.95,-279.95 782.39,-393.67 548,-324 514.05,-313.91 479.32,-294.18 453.44,-277.28"/>
<polygon fill="black" stroke="black" points="455.29,-274.3 445.02,-271.68 451.41,-280.13 455.29,-274.3"/>
</g>
<!-- ast/ClassProcessor&#45;node_modules -->
<g id="node6" class="node">
<title>ast/ClassProcessor&#45;node_modules</title>
<polygon fill="lightgrey" stroke="transparent" points="1076,-253.5 1076,-272.5 1354,-272.5 1354,-253.5 1076,-253.5"/>
<text text-anchor="start" x="1171" y="-260.3" font-family="Times New Roman,serif" font-weight="bold" font-size="14.00">node_modules</text>
<polyline fill="none" stroke="black" points="1354,-253.5 1076,-253.5 "/>
<text text-anchor="start" x="1111" y="-240.3" font-family="Times New Roman,serif" font-style="italic" font-size="14.00" fill="red">@typescript&#45;eslint/types</text>
<text text-anchor="start" x="1246" y="-240.3" font-family="Times New Roman,serif" font-size="14.00"> (TSESTree)</text>
<text text-anchor="start" x="1079" y="-226.3" font-family="Times New Roman,serif" font-style="italic" font-size="14.00" fill="red">@typescript&#45;eslint/types</text>
<text text-anchor="start" x="1214" y="-226.3" font-family="Times New Roman,serif" font-size="14.00"> (AST_NODE_TYPES)</text>
<polygon fill="none" stroke="black" points="1075,-219 1075,-274 1355,-274 1355,-219 1075,-219"/>
</g>
<!-- ast/ClassProcessor&#45;&gt;ast/ClassProcessor&#45;node_modules -->
<g id="edge3" class="edge">
<title>ast/ClassProcessor&#45;&gt;ast/ClassProcessor&#45;node_modules</title>
<path fill="none" stroke="black" d="M1215,-368.95C1215,-341.74 1215,-311.74 1215,-288.36"/>
<polygon fill="black" stroke="black" points="1218.5,-288.12 1215,-278.12 1211.5,-288.12 1218.5,-288.12"/>
</g>
<!-- ast/ClassProcessor&#45;&gt;ast/SharedInterfaces -->
<g id="edge13" class="edge">
<title>ast/ClassProcessor&#45;&gt;ast/SharedInterfaces</title>
<path fill="none" stroke="black" d="M1146.26,-368.96C1141.01,-365.55 1135.57,-362.52 1130,-360 961.25,-283.85 884.6,-398.24 715,-324 714.9,-323.96 714.8,-323.91 714.7,-323.87"/>
<polygon fill="black" stroke="black" points="716.16,-320.68 705.64,-319.37 713.04,-326.95 716.16,-320.68"/>
</g>
<!-- ast/ErrorCollector&#45;&gt;ast/BaseProcessor -->
<g id="edge14" class="edge">
<title>ast/ErrorCollector&#45;&gt;ast/BaseProcessor</title>
<path fill="none" stroke="black" d="M481.3,-382.94C464.21,-349.54 443.34,-308.77 429,-280.74"/>
<polygon fill="black" stroke="black" points="432.08,-279.06 424.41,-271.75 425.84,-282.24 432.08,-279.06"/>
</g>
<!-- ast/ErrorCollector&#45;&gt;ast/SharedInterfaces -->
<g id="edge15" class="edge">
<title>ast/ErrorCollector&#45;&gt;ast/SharedInterfaces</title>
<path fill="none" stroke="black" d="M547,-382.94C556.76,-367.21 567.54,-349.84 578.02,-332.93"/>
<polygon fill="black" stroke="black" points="581.17,-334.49 583.47,-324.15 575.22,-330.8 581.17,-334.49"/>
</g>
<!-- ast/ExportProcessor&#45;&gt;ast/BaseProcessor -->
<g id="edge16" class="edge">
<title>ast/ExportProcessor&#45;&gt;ast/BaseProcessor</title>
<path fill="none" stroke="black" d="M599.77,-366.54C596.83,-364.31 593.91,-362.12 591,-360 549.33,-329.56 499.45,-298.62 462.94,-276.92"/>
<polygon fill="black" stroke="black" points="464.34,-273.68 453.95,-271.6 460.78,-279.71 464.34,-273.68"/>
</g>
<!-- ast/ExportProcessor&#45;node_modules -->
<g id="node9" class="node">
<title>ast/ExportProcessor&#45;node_modules</title>
<polygon fill="lightgrey" stroke="transparent" points="733,-260.5 733,-279.5 1011,-279.5 1011,-260.5 733,-260.5"/>
<text text-anchor="start" x="828" y="-267.3" font-family="Times New Roman,serif" font-weight="bold" font-size="14.00">node_modules</text>
<polyline fill="none" stroke="black" points="1011,-260.5 733,-260.5 "/>
<text text-anchor="start" x="768" y="-247.3" font-family="Times New Roman,serif" font-style="italic" font-size="14.00" fill="red">@typescript&#45;eslint/types</text>
<text text-anchor="start" x="903" y="-247.3" font-family="Times New Roman,serif" font-size="14.00"> (TSESTree)</text>
<text text-anchor="start" x="736" y="-233.3" font-family="Times New Roman,serif" font-style="italic" font-size="14.00" fill="red">@typescript&#45;eslint/types</text>
<text text-anchor="start" x="871" y="-233.3" font-family="Times New Roman,serif" font-size="14.00"> (AST_NODE_TYPES)</text>
<text text-anchor="start" x="840" y="-219.3" font-family="Times New Roman,serif" font-style="italic" font-size="14.00" fill="red">path</text>
<text text-anchor="start" x="867" y="-219.3" font-family="Times New Roman,serif" font-size="14.00"> (path)</text>
<polygon fill="none" stroke="black" points="732,-212 732,-281 1012,-281 1012,-212 732,-212"/>
</g>
<!-- ast/ExportProcessor&#45;&gt;ast/ExportProcessor&#45;node_modules -->
<g id="edge4" class="edge">
<title>ast/ExportProcessor&#45;&gt;ast/ExportProcessor&#45;node_modules</title>
<path fill="none" stroke="black" d="M763.58,-360.9C785.98,-337.47 809.66,-312.7 829.16,-292.31"/>
<polygon fill="black" stroke="black" points="831.76,-294.65 836.14,-285 826.7,-289.81 831.76,-294.65"/>
</g>
<!-- ast/ExportProcessor&#45;&gt;ast/SharedInterfaces -->
<g id="edge17" class="edge">
<title>ast/ExportProcessor&#45;&gt;ast/SharedInterfaces</title>
<path fill="none" stroke="black" d="M663.82,-360.9C661.23,-351.97 658.59,-342.84 655.98,-333.83"/>
<polygon fill="black" stroke="black" points="659.32,-332.75 653.17,-324.12 652.59,-334.7 659.32,-332.75"/>
</g>
<!-- ast/ImportProcessor&#45;&gt;ast/BaseProcessor -->
<g id="edge18" class="edge">
<title>ast/ImportProcessor&#45;&gt;ast/BaseProcessor</title>
<path fill="none" stroke="black" d="M222,-370.45C226.64,-366.79 231.33,-363.28 236,-360 264.3,-340.12 275.53,-342.1 305,-324 327.99,-309.88 352.54,-292.51 372.32,-277.88"/>
<polygon fill="black" stroke="black" points="374.56,-280.58 380.49,-271.8 370.38,-274.97 374.56,-280.58"/>
</g>
<!-- ast/ImportProcessor&#45;node_modules -->
<g id="node11" class="node">
<title>ast/ImportProcessor&#45;node_modules</title>
<polygon fill="lightgrey" stroke="transparent" points="9,-260.5 9,-279.5 287,-279.5 287,-260.5 9,-260.5"/>
<text text-anchor="start" x="104" y="-267.3" font-family="Times New Roman,serif" font-weight="bold" font-size="14.00">node_modules</text>
<polyline fill="none" stroke="black" points="287,-260.5 9,-260.5 "/>
<text text-anchor="start" x="44" y="-247.3" font-family="Times New Roman,serif" font-style="italic" font-size="14.00" fill="red">@typescript&#45;eslint/types</text>
<text text-anchor="start" x="179" y="-247.3" font-family="Times New Roman,serif" font-size="14.00"> (TSESTree)</text>
<text text-anchor="start" x="12" y="-233.3" font-family="Times New Roman,serif" font-style="italic" font-size="14.00" fill="red">@typescript&#45;eslint/types</text>
<text text-anchor="start" x="147" y="-233.3" font-family="Times New Roman,serif" font-size="14.00"> (AST_NODE_TYPES)</text>
<text text-anchor="start" x="116" y="-219.3" font-family="Times New Roman,serif" font-style="italic" font-size="14.00" fill="red">path</text>
<text text-anchor="start" x="143" y="-219.3" font-family="Times New Roman,serif" font-size="14.00"> (path)</text>
<polygon fill="none" stroke="black" points="8,-212 8,-281 288,-281 288,-212 8,-212"/>
</g>
<!-- ast/ImportProcessor&#45;&gt;ast/ImportProcessor&#45;node_modules -->
<g id="edge5" class="edge">
<title>ast/ImportProcessor&#45;&gt;ast/ImportProcessor&#45;node_modules</title>
<path fill="none" stroke="black" d="M148,-359.78C148,-337.77 148,-314.67 148,-295.18"/>
<polygon fill="black" stroke="black" points="151.5,-295.05 148,-285.05 144.5,-295.05 151.5,-295.05"/>
</g>
<!-- ast/ImportProcessor&#45;&gt;ast/SharedInterfaces -->
<g id="edge19" class="edge">
<title>ast/ImportProcessor&#45;&gt;ast/SharedInterfaces</title>
<path fill="none" stroke="black" d="M222.05,-384.75C237.29,-375.26 253.67,-366.42 270,-360 361.8,-323.92 395.64,-355.83 489,-324 508.59,-317.32 528.7,-308.12 547.4,-298.42"/>
<polygon fill="black" stroke="black" points="549.26,-301.39 556.46,-293.62 545.99,-295.21 549.26,-301.39"/>
</g>
<!-- ast/UsageProcessor -->
<g id="node13" class="node">
<title>ast/UsageProcessor</title>
<g id="a_node13_7"><a xlink:href="tsdocs\modules\ast_UsageProcessor.html" xlink:title="&lt;TABLE&gt;" target="_blank">
<polygon fill="lightblue" stroke="transparent" points="288,-460 288,-479 413,-479 413,-460 288,-460"/>
<text text-anchor="start" x="290" y="-466.8" font-family="Times New Roman,serif" font-weight="bold" text-decoration="underline" font-size="14.00">ast/UsageProcessor</text>
</a>
</g>
<polyline fill="none" stroke="black" points="288,-439 413,-439 "/>
<polyline fill="none" stroke="black" points="413,-460 288,-460 "/>
<text text-anchor="start" x="291" y="-445.8" font-family="Times New Roman,serif" font-size="14.00">UsageProcessor</text>
<polyline fill="none" stroke="black" points="288,-405 413,-405 "/>
<polyline fill="none" stroke="black" points="413,-439 288,-439 "/>
<text text-anchor="start" x="291" y="-425.8" font-family="Times New Roman,serif" font-style="italic" font-size="14.00" fill="red">ast/BaseProcessor</text>
<text text-anchor="start" x="300.5" y="-411.8" font-family="Times New Roman,serif" font-size="14.00">BaseProcessor</text>
<polygon fill="none" stroke="black" points="286.5,-404 286.5,-480 413.5,-480 413.5,-404 286.5,-404"/>
</g>
<!-- ast/UsageProcessor&#45;&gt;ast/BaseProcessor -->
<g id="edge20" class="edge">
<title>ast/UsageProcessor&#45;&gt;ast/BaseProcessor</title>
<path fill="none" stroke="black" d="M363.15,-399.96C374.46,-364.67 390.57,-314.39 401.15,-281.36"/>
<polygon fill="black" stroke="black" points="404.53,-282.29 404.25,-271.69 397.86,-280.15 404.53,-282.29"/>
</g>
</g>
</svg>
