<?xml version="1.0" encoding="UTF-8" standalone="no"?>
<!DOCTYPE svg PUBLIC "-//W3C//DTD SVG 1.1//EN"
 "http://www.w3.org/Graphics/SVG/1.1/DTD/svg11.dtd">
<!-- Generated by graphviz version 3.0.0 (20220226.1711)
 -->
<!-- Pages: 1 -->
<svg width="1367pt" height="973pt"
 viewBox="0.00 0.00 1367.00 973.00" xmlns="http://www.w3.org/2000/svg" xmlns:xlink="http://www.w3.org/1999/xlink">
<g id="graph0" class="graph" transform="scale(1 1) rotate(0) translate(4 969)">
<polygon fill="white" stroke="transparent" points="-4,4 -4,-969 1363,-969 1363,4 -4,4"/>
<text text-anchor="middle" x="679.5" y="-949.8" font-family="Times New Roman,serif" font-size="14.00">ast Module Exports</text>
<!-- ast/ASTProcessor -->
<g id="node1" class="node">
<title>ast/ASTProcessor</title>
<g id="a_node1_0"><a xlink:href="tsdocs\modules\ast_ASTProcessor.html" xlink:title="&lt;TABLE&gt;" target="_blank">
<polygon fill="lightblue" stroke="transparent" points="624,-918 624,-937 748,-937 748,-918 624,-918"/>
<text text-anchor="start" x="630" y="-924.8" font-family="Times New Roman,serif" font-weight="bold" text-decoration="underline" font-size="14.00">ast/ASTProcessor</text>
</a>
</g>
<polyline fill="none" stroke="black" points="624,-897 748,-897 "/>
<polyline fill="none" stroke="black" points="748,-918 624,-918 "/>
<text text-anchor="start" x="627" y="-903.8" font-family="Times New Roman,serif" font-size="14.00">ASTProcessor</text>
<polyline fill="none" stroke="black" points="624,-863 748,-863 "/>
<polyline fill="none" stroke="black" points="748,-897 624,-897 "/>
<text text-anchor="start" x="627" y="-883.8" font-family="Times New Roman,serif" font-style="italic" font-size="14.00" fill="red">ast/BaseProcessor</text>
<text text-anchor="start" x="636.5" y="-869.8" font-family="Times New Roman,serif" font-size="14.00">BaseProcessor</text>
<polyline fill="none" stroke="black" points="624,-829 748,-829 "/>
<polyline fill="none" stroke="black" points="748,-863 624,-863 "/>
<text text-anchor="start" x="627" y="-849.8" font-family="Times New Roman,serif" font-style="italic" font-size="14.00" fill="red">ast/ClassProcessor</text>
<text text-anchor="start" x="637" y="-835.8" font-family="Times New Roman,serif" font-size="14.00">ClassProcessor</text>
<polyline fill="none" stroke="black" points="624,-795 748,-795 "/>
<polyline fill="none" stroke="black" points="748,-829 624,-829 "/>
<text text-anchor="start" x="627" y="-815.8" font-family="Times New Roman,serif" font-style="italic" font-size="14.00" fill="red">ast/ErrorCollector</text>
<text text-anchor="start" x="638" y="-801.8" font-family="Times New Roman,serif" font-size="14.00">ErrorCollector</text>
<polyline fill="none" stroke="black" points="624,-761 748,-761 "/>
<polyline fill="none" stroke="black" points="748,-795 624,-795 "/>
<text text-anchor="start" x="627" y="-781.8" font-family="Times New Roman,serif" font-style="italic" font-size="14.00" fill="red">ast/ExportProcessor</text>
<text text-anchor="start" x="636.5" y="-767.8" font-family="Times New Roman,serif" font-size="14.00">ExportProcessor</text>
<polyline fill="none" stroke="black" points="624,-727 748,-727 "/>
<polyline fill="none" stroke="black" points="748,-761 624,-761 "/>
<text text-anchor="start" x="627" y="-747.8" font-family="Times New Roman,serif" font-style="italic" font-size="14.00" fill="red">ast/ImportProcessor</text>
<text text-anchor="start" x="636.5" y="-733.8" font-family="Times New Roman,serif" font-size="14.00">ImportProcessor</text>
<polyline fill="none" stroke="black" points="624,-637 748,-637 "/>
<polyline fill="none" stroke="black" points="748,-727 624,-727 "/>
<text text-anchor="start" x="627" y="-713.8" font-family="Times New Roman,serif" font-style="italic" font-size="14.00" fill="red">ast/SharedInterfaces</text>
<text text-anchor="start" x="654.5" y="-699.8" font-family="Times New Roman,serif" font-size="14.00">ClassDetail</text>
<text text-anchor="start" x="655" y="-685.8" font-family="Times New Roman,serif" font-size="14.00">ImportInfo</text>
<text text-anchor="start" x="655" y="-671.8" font-family="Times New Roman,serif" font-size="14.00">ExportInfo</text>
<text text-anchor="start" x="652.5" y="-657.8" font-family="Times New Roman,serif" font-size="14.00">ModuleInfo</text>
<text text-anchor="start" x="630" y="-643.8" font-family="Times New Roman,serif" font-size="14.00">ProcessedASTData</text>
<polyline fill="none" stroke="black" points="624,-563 748,-563 "/>
<polyline fill="none" stroke="black" points="748,-637 624,-637 "/>
<text text-anchor="start" x="637.5" y="-624.8" font-family="Times New Roman,serif" font-style="italic" font-size="14.00" fill="red">utils/file&#45;utils</text>
<text text-anchor="start" x="647.5" y="-610.8" font-family="Times New Roman,serif" font-size="14.00">cleanPath</text>
<text text-anchor="start" x="628.5" y="-596.8" font-family="Times New Roman,serif" font-size="14.00">getModuleName</text>
<text text-anchor="start" x="627.5" y="-582.8" font-family="Times New Roman,serif" font-size="14.00">moduleFileName</text>
<text text-anchor="start" x="626" y="-568.8" font-family="Times New Roman,serif" font-size="14.00">removeExtension</text>
<polygon fill="none" stroke="black" points="623,-562 623,-938 749,-938 749,-562 623,-562"/>
</g>
<!-- ast/ASTProcessor&#45;node_modules -->
<g id="node2" class="node">
<title>ast/ASTProcessor&#45;node_modules</title>
<polygon fill="lightgrey" stroke="transparent" points="800,-488 800,-507 1076,-507 1076,-488 800,-488"/>
<text text-anchor="start" x="894" y="-494.8" font-family="Times New Roman,serif" font-weight="bold" font-size="14.00">node_modules</text>
<text text-anchor="start" x="845" y="-475.8" font-family="Times New Roman,serif" font-style="italic" font-size="14.00" fill="red">@typescript&#45;eslint/parser</text>
<text text-anchor="start" x="988" y="-475.8" font-family="Times New Roman,serif" font-size="14.00"> (parse)</text>
<text text-anchor="start" x="802" y="-461.8" font-family="Times New Roman,serif" font-style="italic" font-size="14.00" fill="red">@typescript&#45;eslint/types</text>
<text text-anchor="start" x="937" y="-461.8" font-family="Times New Roman,serif" font-size="14.00"> (AST_NODE_TYPES)</text>
<text text-anchor="start" x="823.5" y="-447.8" font-family="Times New Roman,serif" font-style="italic" font-size="14.00" fill="red">@typescript&#45;eslint/types</text>
<text text-anchor="start" x="958.5" y="-447.8" font-family="Times New Roman,serif" font-size="14.00"> (ParserOptions)</text>
<text text-anchor="start" x="834" y="-433.8" font-family="Times New Roman,serif" font-style="italic" font-size="14.00" fill="red">@typescript&#45;eslint/types</text>
<text text-anchor="start" x="969" y="-433.8" font-family="Times New Roman,serif" font-size="14.00"> (TSESTree)</text>
<text text-anchor="start" x="875" y="-419.8" font-family="Times New Roman,serif" font-style="italic" font-size="14.00" fill="red">estraverse</text>
<text text-anchor="start" x="932" y="-419.8" font-family="Times New Roman,serif" font-size="14.00"> (estraverse)</text>
<text text-anchor="start" x="899.5" y="-405.8" font-family="Times New Roman,serif" font-style="italic" font-size="14.00" fill="red">estree</text>
<text text-anchor="start" x="932.5" y="-405.8" font-family="Times New Roman,serif" font-size="14.00"> (Node)</text>
<text text-anchor="start" x="890" y="-391.8" font-family="Times New Roman,serif" font-style="italic" font-size="14.00" fill="red">fs</text>
<text text-anchor="start" x="900" y="-391.8" font-family="Times New Roman,serif" font-size="14.00"> (readFileSync)</text>
<text text-anchor="start" x="906" y="-377.8" font-family="Times New Roman,serif" font-style="italic" font-size="14.00" fill="red">path</text>
<text text-anchor="start" x="933" y="-377.8" font-family="Times New Roman,serif" font-size="14.00"> (path)</text>
<polygon fill="none" stroke="black" points="799,-371.5 799,-508.5 1077,-508.5 1077,-371.5 799,-371.5"/>
</g>
<!-- ast/ASTProcessor&#45;&gt;ast/ASTProcessor&#45;node_modules -->
<g id="edge1" class="edge">
<title>ast/ASTProcessor&#45;&gt;ast/ASTProcessor&#45;node_modules</title>
<path fill="none" stroke="black" d="M757.2,-661.97C793.51,-617.6 837.36,-564 872.78,-520.71"/>
<polygon fill="black" stroke="black" points="875.67,-522.71 879.3,-512.75 870.25,-518.27 875.67,-522.71"/>
</g>
<!-- ast/BaseProcessor -->
<g id="node3" class="node">
<title>ast/BaseProcessor</title>
<g id="a_node3_1"><a xlink:href="tsdocs\modules\ast_BaseProcessor.html" xlink:title="&lt;TABLE&gt;" target="_blank">
<polygon fill="lightblue" stroke="transparent" points="351,-245.5 351,-264.5 469,-264.5 469,-245.5 351,-245.5"/>
<text text-anchor="start" x="353" y="-252.3" font-family="Times New Roman,serif" font-weight="bold" text-decoration="underline" font-size="14.00">ast/BaseProcessor</text>
</a>
</g>
<polyline fill="none" stroke="black" points="351,-224.5 469,-224.5 "/>
<polyline fill="none" stroke="black" points="469,-245.5 351,-245.5 "/>
<text text-anchor="start" x="354" y="-231.3" font-family="Times New Roman,serif" font-size="14.00">BaseProcessor</text>
<polygon fill="none" stroke="black" points="350,-223.5 350,-265.5 470,-265.5 470,-223.5 350,-223.5"/>
</g>
<!-- ast/ASTProcessor&#45;&gt;ast/BaseProcessor -->
<g id="edge6" class="edge">
<title>ast/ASTProcessor&#45;&gt;ast/BaseProcessor</title>
<path fill="none" stroke="black" d="M614.74,-733.86C516.76,-708.78 344.05,-648.31 269,-522 231.77,-459.34 237.38,-423.67 269,-358 274.47,-346.64 328.86,-305.05 368.45,-275.76"/>
<polygon fill="black" stroke="black" points="370.68,-278.47 376.65,-269.71 366.53,-272.83 370.68,-278.47"/>
</g>
<!-- ast/ClassProcessor -->
<g id="node5" class="node">
<title>ast/ClassProcessor</title>
<g id="a_node5_2"><a xlink:href="tsdocs\modules\ast_ClassProcessor.html" xlink:title="&lt;TABLE&gt;" target="_blank">
<polygon fill="lightblue" stroke="transparent" points="1150,-489 1150,-508 1274,-508 1274,-489 1150,-489"/>
<text text-anchor="start" x="1153" y="-495.8" font-family="Times New Roman,serif" font-weight="bold" text-decoration="underline" font-size="14.00">ast/ClassProcessor</text>
</a>
</g>
<polyline fill="none" stroke="black" points="1150,-468 1274,-468 "/>
<polyline fill="none" stroke="black" points="1274,-489 1150,-489 "/>
<text text-anchor="start" x="1153" y="-474.8" font-family="Times New Roman,serif" font-size="14.00">ClassProcessor</text>
<polyline fill="none" stroke="black" points="1150,-434 1274,-434 "/>
<polyline fill="none" stroke="black" points="1274,-468 1150,-468 "/>
<text text-anchor="start" x="1153" y="-454.8" font-family="Times New Roman,serif" font-style="italic" font-size="14.00" fill="red">ast/BaseProcessor</text>
<text text-anchor="start" x="1162.5" y="-440.8" font-family="Times New Roman,serif" font-size="14.00">BaseProcessor</text>
<polyline fill="none" stroke="black" points="1150,-372 1274,-372 "/>
<polyline fill="none" stroke="black" points="1274,-434 1150,-434 "/>
<text text-anchor="start" x="1153" y="-420.8" font-family="Times New Roman,serif" font-style="italic" font-size="14.00" fill="red">ast/SharedInterfaces</text>
<text text-anchor="start" x="1180.5" y="-406.8" font-family="Times New Roman,serif" font-size="14.00">ClassDetail</text>
<text text-anchor="start" x="1178.5" y="-392.8" font-family="Times New Roman,serif" font-size="14.00">MethodInfo</text>
<text text-anchor="start" x="1175.5" y="-378.8" font-family="Times New Roman,serif" font-size="14.00">PropertyInfo</text>
<polygon fill="none" stroke="black" points="1149,-371 1149,-509 1275,-509 1275,-371 1149,-371"/>
</g>
<!-- ast/ASTProcessor&#45;&gt;ast/ClassProcessor -->
<g id="edge7" class="edge">
<title>ast/ASTProcessor&#45;&gt;ast/ClassProcessor</title>
<path fill="none" stroke="black" d="M757.12,-719.95C847.35,-681.45 1005.79,-608.23 1127,-522 1128.89,-520.66 1130.78,-519.27 1132.66,-517.85"/>
<polygon fill="black" stroke="black" points="1135.16,-520.34 1140.9,-511.43 1130.86,-514.82 1135.16,-520.34"/>
</g>
<!-- ast/ErrorCollector -->
<g id="node7" class="node">
<title>ast/ErrorCollector</title>
<g id="a_node7_3"><a xlink:href="tsdocs\modules\ast_ErrorCollector.html" xlink:title="&lt;TABLE&gt;" target="_blank">
<polygon fill="lightblue" stroke="transparent" points="448,-475 448,-494 572,-494 572,-475 448,-475"/>
<text text-anchor="start" x="452.5" y="-481.8" font-family="Times New Roman,serif" font-weight="bold" text-decoration="underline" font-size="14.00">ast/ErrorCollector</text>
</a>
</g>
<polyline fill="none" stroke="black" points="448,-454 572,-454 "/>
<polyline fill="none" stroke="black" points="572,-475 448,-475 "/>
<text text-anchor="start" x="451" y="-460.8" font-family="Times New Roman,serif" font-size="14.00">ErrorCollector</text>
<polyline fill="none" stroke="black" points="448,-420 572,-420 "/>
<polyline fill="none" stroke="black" points="572,-454 448,-454 "/>
<text text-anchor="start" x="451" y="-440.8" font-family="Times New Roman,serif" font-style="italic" font-size="14.00" fill="red">ast/BaseProcessor</text>
<text text-anchor="start" x="460.5" y="-426.8" font-family="Times New Roman,serif" font-size="14.00">BaseProcessor</text>
<polyline fill="none" stroke="black" points="448,-386 572,-386 "/>
<polyline fill="none" stroke="black" points="572,-420 448,-420 "/>
<text text-anchor="start" x="451" y="-406.8" font-family="Times New Roman,serif" font-style="italic" font-size="14.00" fill="red">ast/SharedInterfaces</text>
<text text-anchor="start" x="483.5" y="-392.8" font-family="Times New Roman,serif" font-size="14.00">ErrorInfo</text>
<polygon fill="none" stroke="black" points="447,-385 447,-495 573,-495 573,-385 447,-385"/>
</g>
<!-- ast/ASTProcessor&#45;&gt;ast/ErrorCollector -->
<g id="edge8" class="edge">
<title>ast/ASTProcessor&#45;&gt;ast/ErrorCollector</title>
<path fill="none" stroke="black" d="M614.92,-624.61C592.15,-584.76 567.81,-542.17 548.31,-508.04"/>
<polygon fill="black" stroke="black" points="551.2,-506.05 543.2,-499.11 545.13,-509.53 551.2,-506.05"/>
</g>
<!-- ast/ExportProcessor -->
<g id="node8" class="node">
<title>ast/ExportProcessor</title>
<g id="a_node8_4"><a xlink:href="tsdocs\modules\ast_ExportProcessor.html" xlink:title="&lt;TABLE&gt;" target="_blank">
<polygon fill="lightblue" stroke="transparent" points="608,-497 608,-516 764,-516 764,-497 608,-497"/>
<text text-anchor="start" x="623" y="-503.8" font-family="Times New Roman,serif" font-weight="bold" text-decoration="underline" font-size="14.00">ast/ExportProcessor</text>
</a>
</g>
<polyline fill="none" stroke="black" points="608,-446 764,-446 "/>
<polyline fill="none" stroke="black" points="764,-497 608,-497 "/>
<text text-anchor="start" x="611" y="-482.8" font-family="Times New Roman,serif" font-size="14.00">DeclarationDetailsCallback</text>
<text text-anchor="start" x="642.5" y="-467.8" font-family="Times New Roman,serif" font-size="14.00">DeclarationInfo</text>
<text text-anchor="start" x="638" y="-452.8" font-family="Times New Roman,serif" font-size="14.00">ExportProcessor</text>
<polyline fill="none" stroke="black" points="608,-412 764,-412 "/>
<polyline fill="none" stroke="black" points="764,-446 608,-446 "/>
<text text-anchor="start" x="611" y="-432.8" font-family="Times New Roman,serif" font-style="italic" font-size="14.00" fill="red">ast/BaseProcessor</text>
<text text-anchor="start" x="620.5" y="-418.8" font-family="Times New Roman,serif" font-size="14.00">BaseProcessor</text>
<polyline fill="none" stroke="black" points="608,-364 764,-364 "/>
<polyline fill="none" stroke="black" points="764,-412 608,-412 "/>
<text text-anchor="start" x="611" y="-398.8" font-family="Times New Roman,serif" font-style="italic" font-size="14.00" fill="red">ast/SharedInterfaces</text>
<text text-anchor="start" x="639" y="-384.8" font-family="Times New Roman,serif" font-size="14.00">ExportInfo</text>
<text text-anchor="start" x="636.5" y="-370.8" font-family="Times New Roman,serif" font-size="14.00">ModuleInfo</text>
<polygon fill="none" stroke="black" points="607,-363 607,-517 765,-517 765,-363 607,-363"/>
</g>
<!-- ast/ASTProcessor&#45;&gt;ast/ExportProcessor -->
<g id="edge9" class="edge">
<title>ast/ASTProcessor&#45;&gt;ast/ExportProcessor</title>
<path fill="none" stroke="black" d="M686,-557.88C686,-548.71 686,-539.72 686,-531.07"/>
<polygon fill="black" stroke="black" points="689.5,-531.06 686,-521.06 682.5,-531.06 689.5,-531.06"/>
</g>
<!-- ast/ImportProcessor -->
<g id="node10" class="node">
<title>ast/ImportProcessor</title>
<g id="a_node10_5"><a xlink:href="tsdocs\modules\ast_ImportProcessor.html" xlink:title="&lt;TABLE&gt;" target="_blank">
<polygon fill="lightblue" stroke="transparent" points="82,-498 82,-517 212,-517 212,-498 82,-498"/>
<text text-anchor="start" x="84" y="-504.8" font-family="Times New Roman,serif" font-weight="bold" text-decoration="underline" font-size="14.00">ast/ImportProcessor</text>
</a>
</g>
<polyline fill="none" stroke="black" points="82,-477 212,-477 "/>
<polyline fill="none" stroke="black" points="212,-498 82,-498 "/>
<text text-anchor="start" x="85" y="-483.8" font-family="Times New Roman,serif" font-size="14.00">ImportProcessor</text>
<polyline fill="none" stroke="black" points="82,-443 212,-443 "/>
<polyline fill="none" stroke="black" points="212,-477 82,-477 "/>
<text text-anchor="start" x="85" y="-463.8" font-family="Times New Roman,serif" font-style="italic" font-size="14.00" fill="red">ast/BaseProcessor</text>
<text text-anchor="start" x="94.5" y="-449.8" font-family="Times New Roman,serif" font-size="14.00">BaseProcessor</text>
<polyline fill="none" stroke="black" points="82,-409 212,-409 "/>
<polyline fill="none" stroke="black" points="212,-443 82,-443 "/>
<text text-anchor="start" x="85" y="-429.8" font-family="Times New Roman,serif" font-style="italic" font-size="14.00" fill="red">ast/SharedInterfaces</text>
<text text-anchor="start" x="113" y="-415.8" font-family="Times New Roman,serif" font-size="14.00">ImportInfo</text>
<polyline fill="none" stroke="black" points="82,-363 212,-363 "/>
<polyline fill="none" stroke="black" points="212,-409 82,-409 "/>
<text text-anchor="start" x="95.5" y="-396.8" font-family="Times New Roman,serif" font-style="italic" font-size="14.00" fill="red">utils/file&#45;utils</text>
<text text-anchor="start" x="105.5" y="-382.8" font-family="Times New Roman,serif" font-size="14.00">cleanPath</text>
<text text-anchor="start" x="84" y="-368.8" font-family="Times New Roman,serif" font-size="14.00">removeExtension</text>
<polygon fill="none" stroke="black" points="81,-362 81,-518 213,-518 213,-362 81,-362"/>
</g>
<!-- ast/ASTProcessor&#45;&gt;ast/ImportProcessor -->
<g id="edge10" class="edge">
<title>ast/ASTProcessor&#45;&gt;ast/ImportProcessor</title>
<path fill="none" stroke="black" d="M614.64,-720.43C522.77,-682.03 360.08,-608.52 235,-522 233.13,-520.7 231.25,-519.37 229.38,-518.01"/>
<polygon fill="black" stroke="black" points="231.29,-515.06 221.2,-511.83 227.07,-520.65 231.29,-515.06"/>
</g>
<!-- ast/SharedInterfaces -->
<g id="node12" class="node">
<title>ast/SharedInterfaces</title>
<g id="a_node12_6"><a xlink:href="tsdocs\modules\ast_SharedInterfaces.html" xlink:title="&lt;TABLE&gt;" target="_blank">
<polygon fill="lightblue" stroke="transparent" points="565,-297.5 565,-316.5 696,-316.5 696,-297.5 565,-297.5"/>
<text text-anchor="start" x="567" y="-304.3" font-family="Times New Roman,serif" font-weight="bold" text-decoration="underline" font-size="14.00">ast/SharedInterfaces</text>
</a>
</g>
<polyline fill="none" stroke="black" points="565,-171.5 696,-171.5 "/>
<polyline fill="none" stroke="black" points="696,-297.5 565,-297.5 "/>
<text text-anchor="start" x="592.5" y="-283.3" font-family="Times New Roman,serif" font-size="14.00">ClassDetail</text>
<text text-anchor="start" x="597.5" y="-268.3" font-family="Times New Roman,serif" font-size="14.00">ErrorInfo</text>
<text text-anchor="start" x="593" y="-253.3" font-family="Times New Roman,serif" font-size="14.00">ExportInfo</text>
<text text-anchor="start" x="593" y="-238.3" font-family="Times New Roman,serif" font-size="14.00">ImportInfo</text>
<text text-anchor="start" x="590.5" y="-223.3" font-family="Times New Roman,serif" font-size="14.00">MethodInfo</text>
<text text-anchor="start" x="590.5" y="-208.3" font-family="Times New Roman,serif" font-size="14.00">ModuleInfo</text>
<text text-anchor="start" x="568" y="-193.3" font-family="Times New Roman,serif" font-size="14.00">ProcessedASTData</text>
<text text-anchor="start" x="587.5" y="-178.3" font-family="Times New Roman,serif" font-size="14.00">PropertyInfo</text>
<polygon fill="none" stroke="black" points="563.5,-171 563.5,-318 696.5,-318 696.5,-171 563.5,-171"/>
</g>
<!-- ast/ASTProcessor&#45;&gt;ast/SharedInterfaces -->
<g id="edge11" class="edge">
<title>ast/ASTProcessor&#45;&gt;ast/SharedInterfaces</title>
<path fill="none" stroke="black" d="M757.4,-732.93C853.6,-707.02 1021.18,-645.85 1094,-522 1130.94,-459.17 1143.05,-411.92 1094,-358 1036.92,-295.26 791.57,-356.32 714,-322 713.9,-321.96 713.8,-321.91 713.7,-321.87"/>
<polygon fill="black" stroke="black" points="715.17,-318.69 704.66,-317.34 712.03,-324.95 715.17,-318.69"/>
</g>
<!-- ast/BaseProcessor&#45;node_modules -->
<g id="node4" class="node">
<title>ast/BaseProcessor&#45;node_modules</title>
<polygon fill="lightgrey" stroke="transparent" points="272,-106.5 272,-125.5 548,-125.5 548,-106.5 272,-106.5"/>
<text text-anchor="start" x="366" y="-113.3" font-family="Times New Roman,serif" font-weight="bold" font-size="14.00">node_modules</text>
<text text-anchor="start" x="274" y="-94.3" font-family="Times New Roman,serif" font-style="italic" font-size="14.00" fill="red">@typescript&#45;eslint/types</text>
<text text-anchor="start" x="409" y="-94.3" font-family="Times New Roman,serif" font-size="14.00"> (AST_NODE_TYPES)</text>
<text text-anchor="start" x="306" y="-80.3" font-family="Times New Roman,serif" font-style="italic" font-size="14.00" fill="red">@typescript&#45;eslint/types</text>
<text text-anchor="start" x="441" y="-80.3" font-family="Times New Roman,serif" font-size="14.00"> (TSESTree)</text>
<text text-anchor="start" x="347" y="-66.3" font-family="Times New Roman,serif" font-style="italic" font-size="14.00" fill="red">estraverse</text>
<text text-anchor="start" x="404" y="-66.3" font-family="Times New Roman,serif" font-size="14.00"> (estraverse)</text>
<text text-anchor="start" x="336.5" y="-52.3" font-family="Times New Roman,serif" font-style="italic" font-size="14.00" fill="red">estraverse</text>
<text text-anchor="start" x="393.5" y="-52.3" font-family="Times New Roman,serif" font-size="14.00"> (VisitorOption)</text>
<text text-anchor="start" x="346.5" y="-38.3" font-family="Times New Roman,serif" font-style="italic" font-size="14.00" fill="red">estraverse</text>
<text text-anchor="start" x="403.5" y="-38.3" font-family="Times New Roman,serif" font-size="14.00"> (Controller)</text>
<text text-anchor="start" x="371.5" y="-24.3" font-family="Times New Roman,serif" font-style="italic" font-size="14.00" fill="red">estree</text>
<text text-anchor="start" x="404.5" y="-24.3" font-family="Times New Roman,serif" font-size="14.00"> (Node)</text>
<text text-anchor="start" x="378" y="-10.3" font-family="Times New Roman,serif" font-style="italic" font-size="14.00" fill="red">path</text>
<text text-anchor="start" x="405" y="-10.3" font-family="Times New Roman,serif" font-size="14.00"> (path)</text>
<polygon fill="none" stroke="black" points="271,-4 271,-127 549,-127 549,-4 271,-4"/>
</g>
<!-- ast/BaseProcessor&#45;&gt;ast/BaseProcessor&#45;node_modules -->
<g id="edge2" class="edge">
<title>ast/BaseProcessor&#45;&gt;ast/BaseProcessor&#45;node_modules</title>
<path fill="none" stroke="black" d="M410,-219.26C410,-199.11 410,-169.31 410,-141.37"/>
<polygon fill="black" stroke="black" points="413.5,-141.18 410,-131.18 406.5,-141.18 413.5,-141.18"/>
</g>
<!-- ast/ClassProcessor&#45;&gt;ast/BaseProcessor -->
<g id="edge12" class="edge">
<title>ast/ClassProcessor&#45;&gt;ast/BaseProcessor</title>
<path fill="none" stroke="black" d="M1140.71,-381.27C1126.01,-371.96 1110.08,-363.57 1094,-358 863.8,-278.21 780.64,-391.08 547,-322 512.85,-311.9 477.85,-292.17 451.78,-275.28"/>
<polygon fill="black" stroke="black" points="453.57,-272.26 443.29,-269.67 449.71,-278.1 453.57,-272.26"/>
</g>
<!-- ast/ClassProcessor&#45;node_modules -->
<g id="node6" class="node">
<title>ast/ClassProcessor&#45;node_modules</title>
<polygon fill="lightgrey" stroke="transparent" points="1074,-250.5 1074,-269.5 1350,-269.5 1350,-250.5 1074,-250.5"/>
<text text-anchor="start" x="1168" y="-257.3" font-family="Times New Roman,serif" font-weight="bold" font-size="14.00">node_modules</text>
<text text-anchor="start" x="1108" y="-238.3" font-family="Times New Roman,serif" font-style="italic" font-size="14.00" fill="red">@typescript&#45;eslint/types</text>
<text text-anchor="start" x="1243" y="-238.3" font-family="Times New Roman,serif" font-size="14.00"> (TSESTree)</text>
<text text-anchor="start" x="1076" y="-224.3" font-family="Times New Roman,serif" font-style="italic" font-size="14.00" fill="red">@typescript&#45;eslint/types</text>
<text text-anchor="start" x="1211" y="-224.3" font-family="Times New Roman,serif" font-size="14.00"> (AST_NODE_TYPES)</text>
<polygon fill="none" stroke="black" points="1073,-218 1073,-271 1351,-271 1351,-218 1073,-218"/>
</g>
<!-- ast/ClassProcessor&#45;&gt;ast/ClassProcessor&#45;node_modules -->
<g id="edge3" class="edge">
<title>ast/ClassProcessor&#45;&gt;ast/ClassProcessor&#45;node_modules</title>
<path fill="none" stroke="black" d="M1212,-366.95C1212,-339.37 1212,-308.92 1212,-285.4"/>
<polygon fill="black" stroke="black" points="1215.5,-285.13 1212,-275.13 1208.5,-285.13 1215.5,-285.13"/>
</g>
<!-- ast/ClassProcessor&#45;&gt;ast/SharedInterfaces -->
<g id="edge13" class="edge">
<title>ast/ClassProcessor&#45;&gt;ast/SharedInterfaces</title>
<path fill="none" stroke="black" d="M1143.26,-366.96C1138.01,-363.56 1132.57,-360.52 1127,-358 959.07,-282.18 882.77,-395.92 714,-322 713.9,-321.96 713.8,-321.91 713.7,-321.87"/>
<polygon fill="black" stroke="black" points="715.16,-318.68 704.64,-317.37 712.04,-324.95 715.16,-318.68"/>
</g>
<!-- ast/ErrorCollector&#45;&gt;ast/BaseProcessor -->
<g id="edge14" class="edge">
<title>ast/ErrorCollector&#45;&gt;ast/BaseProcessor</title>
<path fill="none" stroke="black" d="M480,-380.94C462.73,-347.54 441.66,-306.77 427.18,-278.74"/>
<polygon fill="black" stroke="black" points="430.23,-277.02 422.53,-269.75 424.01,-280.24 430.23,-277.02"/>
</g>
<!-- ast/ErrorCollector&#45;&gt;ast/SharedInterfaces -->
<g id="edge15" class="edge">
<title>ast/ErrorCollector&#45;&gt;ast/SharedInterfaces</title>
<path fill="none" stroke="black" d="M546,-380.94C555.76,-365.21 566.54,-347.84 577.02,-330.93"/>
<polygon fill="black" stroke="black" points="580.17,-332.49 582.47,-322.15 574.22,-328.8 580.17,-332.49"/>
</g>
<!-- ast/ExportProcessor&#45;&gt;ast/BaseProcessor -->
<g id="edge16" class="edge">
<title>ast/ExportProcessor&#45;&gt;ast/BaseProcessor</title>
<path fill="none" stroke="black" d="M598.78,-364.53C595.84,-362.3 592.91,-360.12 590,-358 548.13,-327.49 497.96,-296.56 461.24,-274.88"/>
<polygon fill="black" stroke="black" points="462.6,-271.62 452.2,-269.57 459.05,-277.65 462.6,-271.62"/>
</g>
<!-- ast/ExportProcessor&#45;node_modules -->
<g id="node9" class="node">
<title>ast/ExportProcessor&#45;node_modules</title>
<polygon fill="lightgrey" stroke="transparent" points="732,-257.5 732,-276.5 1008,-276.5 1008,-257.5 732,-257.5"/>
<text text-anchor="start" x="826" y="-264.3" font-family="Times New Roman,serif" font-weight="bold" font-size="14.00">node_modules</text>
<text text-anchor="start" x="766" y="-245.3" font-family="Times New Roman,serif" font-style="italic" font-size="14.00" fill="red">@typescript&#45;eslint/types</text>
<text text-anchor="start" x="901" y="-245.3" font-family="Times New Roman,serif" font-size="14.00"> (TSESTree)</text>
<text text-anchor="start" x="734" y="-231.3" font-family="Times New Roman,serif" font-style="italic" font-size="14.00" fill="red">@typescript&#45;eslint/types</text>
<text text-anchor="start" x="869" y="-231.3" font-family="Times New Roman,serif" font-size="14.00"> (AST_NODE_TYPES)</text>
<text text-anchor="start" x="838" y="-217.3" font-family="Times New Roman,serif" font-style="italic" font-size="14.00" fill="red">path</text>
<text text-anchor="start" x="865" y="-217.3" font-family="Times New Roman,serif" font-size="14.00"> (path)</text>
<polygon fill="none" stroke="black" points="731,-211 731,-278 1009,-278 1009,-211 731,-211"/>
</g>
<!-- ast/ExportProcessor&#45;&gt;ast/ExportProcessor&#45;node_modules -->
<g id="edge4" class="edge">
<title>ast/ExportProcessor&#45;&gt;ast/ExportProcessor&#45;node_modules</title>
<path fill="none" stroke="black" d="M762.17,-358.9C784.71,-335.19 808.56,-310.11 828.08,-289.58"/>
<polygon fill="black" stroke="black" points="830.71,-291.9 835.07,-282.24 825.64,-287.07 830.71,-291.9"/>
</g>
<!-- ast/ExportProcessor&#45;&gt;ast/SharedInterfaces -->
<g id="edge17" class="edge">
<title>ast/ExportProcessor&#45;&gt;ast/SharedInterfaces</title>
<path fill="none" stroke="black" d="M662.82,-358.9C660.23,-349.97 657.59,-340.84 654.98,-331.83"/>
<polygon fill="black" stroke="black" points="658.32,-330.75 652.17,-322.12 651.59,-332.7 658.32,-330.75"/>
</g>
<!-- ast/ImportProcessor&#45;&gt;ast/BaseProcessor -->
<g id="edge18" class="edge">
<title>ast/ImportProcessor&#45;&gt;ast/BaseProcessor</title>
<path fill="none" stroke="black" d="M221.03,-368.48C225.66,-364.82 230.34,-361.3 235,-358 262.92,-338.26 273.91,-339.98 303,-322 325.94,-307.81 350.49,-290.43 370.29,-275.82"/>
<polygon fill="black" stroke="black" points="372.52,-278.52 378.46,-269.75 368.34,-272.91 372.52,-278.52"/>
</g>
<!-- ast/ImportProcessor&#45;node_modules -->
<g id="node11" class="node">
<title>ast/ImportProcessor&#45;node_modules</title>
<polygon fill="lightgrey" stroke="transparent" points="9,-257.5 9,-276.5 285,-276.5 285,-257.5 9,-257.5"/>
<text text-anchor="start" x="103" y="-264.3" font-family="Times New Roman,serif" font-weight="bold" font-size="14.00">node_modules</text>
<text text-anchor="start" x="43" y="-245.3" font-family="Times New Roman,serif" font-style="italic" font-size="14.00" fill="red">@typescript&#45;eslint/types</text>
<text text-anchor="start" x="178" y="-245.3" font-family="Times New Roman,serif" font-size="14.00"> (TSESTree)</text>
<text text-anchor="start" x="11" y="-231.3" font-family="Times New Roman,serif" font-style="italic" font-size="14.00" fill="red">@typescript&#45;eslint/types</text>
<text text-anchor="start" x="146" y="-231.3" font-family="Times New Roman,serif" font-size="14.00"> (AST_NODE_TYPES)</text>
<text text-anchor="start" x="115" y="-217.3" font-family="Times New Roman,serif" font-style="italic" font-size="14.00" fill="red">path</text>
<text text-anchor="start" x="142" y="-217.3" font-family="Times New Roman,serif" font-size="14.00"> (path)</text>
<polygon fill="none" stroke="black" points="8,-211 8,-278 286,-278 286,-211 8,-211"/>
</g>
<!-- ast/ImportProcessor&#45;&gt;ast/ImportProcessor&#45;node_modules -->
<g id="edge5" class="edge">
<title>ast/ImportProcessor&#45;&gt;ast/ImportProcessor&#45;node_modules</title>
<path fill="none" stroke="black" d="M147,-357.78C147,-335.42 147,-311.93 147,-292.25"/>
<polygon fill="black" stroke="black" points="150.5,-292.03 147,-282.03 143.5,-292.03 150.5,-292.03"/>
</g>
<!-- ast/ImportProcessor&#45;&gt;ast/SharedInterfaces -->
<g id="edge19" class="edge">
<title>ast/ImportProcessor&#45;&gt;ast/SharedInterfaces</title>
<path fill="none" stroke="black" d="M221.06,-382.76C236.29,-373.27 252.68,-364.42 269,-358 360.38,-322.04 394.02,-353.58 487,-322 506.91,-315.24 527.37,-305.91 546.37,-296.09"/>
<polygon fill="black" stroke="black" points="548.06,-299.16 555.27,-291.4 544.8,-292.96 548.06,-299.16"/>
</g>
<!-- ast/UsageProcessor -->
<g id="node13" class="node">
<title>ast/UsageProcessor</title>
<g id="a_node13_7"><a xlink:href="tsdocs\modules\ast_UsageProcessor.html" xlink:title="&lt;TABLE&gt;" target="_blank">
<polygon fill="lightblue" stroke="transparent" points="287,-458 287,-477 412,-477 412,-458 287,-458"/>
<text text-anchor="start" x="289" y="-464.8" font-family="Times New Roman,serif" font-weight="bold" text-decoration="underline" font-size="14.00">ast/UsageProcessor</text>
</a>
</g>
<polyline fill="none" stroke="black" points="287,-437 412,-437 "/>
<polyline fill="none" stroke="black" points="412,-458 287,-458 "/>
<text text-anchor="start" x="290" y="-443.8" font-family="Times New Roman,serif" font-size="14.00">UsageProcessor</text>
<polyline fill="none" stroke="black" points="287,-403 412,-403 "/>
<polyline fill="none" stroke="black" points="412,-437 287,-437 "/>
<text text-anchor="start" x="290" y="-423.8" font-family="Times New Roman,serif" font-style="italic" font-size="14.00" fill="red">ast/BaseProcessor</text>
<text text-anchor="start" x="299.5" y="-409.8" font-family="Times New Roman,serif" font-size="14.00">BaseProcessor</text>
<polygon fill="none" stroke="black" points="285.5,-402 285.5,-478 412.5,-478 412.5,-402 285.5,-402"/>
</g>
<!-- ast/UsageProcessor&#45;&gt;ast/BaseProcessor -->
<g id="edge20" class="edge">
<title>ast/UsageProcessor&#45;&gt;ast/BaseProcessor</title>
<path fill="none" stroke="black" d="M361.94,-397.96C373.06,-362.67 388.91,-312.39 399.33,-279.36"/>
<polygon fill="black" stroke="black" points="402.7,-280.28 402.37,-269.69 396.03,-278.18 402.7,-280.28"/>
</g>
</g>
</svg>
