<?xml version="1.0" encoding="UTF-8" standalone="no"?>
<!DOCTYPE svg PUBLIC "-//W3C//DTD SVG 1.1//EN"
 "http://www.w3.org/Graphics/SVG/1.1/DTD/svg11.dtd">
<!-- Generated by graphviz version 3.0.0 (20220226.1711)
 -->
<!-- Pages: 1 -->
<svg width="3524pt" height="507pt"
 viewBox="0.00 0.00 3523.50 507.00" xmlns="http://www.w3.org/2000/svg" xmlns:xlink="http://www.w3.org/1999/xlink">
<g id="graph0" class="graph" transform="scale(1 1) rotate(0) translate(4 503)">
<polygon fill="white" stroke="transparent" points="-4,4 -4,-503 3519.5,-503 3519.5,4 -4,4"/>
<text text-anchor="middle" x="1757.75" y="-483.8" font-family="Times New Roman,serif" font-size="14.00">ast Class Diagram</text>
<!-- ASTProcessor -->
<g id="node1" class="node">
<title>ASTProcessor</title>
<polygon fill="lightblue" stroke="transparent" points="9.5,-405.5 9.5,-424.5 224.5,-424.5 224.5,-405.5 9.5,-405.5"/>
<text text-anchor="start" x="11.5" y="-412.3" font-family="Times New Roman,serif" font-weight="bold" font-size="14.00">ASTProcessor : BaseProcessor</text>
<polyline fill="none" stroke="black" points="224.5,-405.5 9.5,-405.5 "/>
<text text-anchor="start" x="12.5" y="-392.3" font-family="Times New Roman,serif" font-weight="bold" font-size="14.00">properties</text>
<text text-anchor="start" x="12.5" y="-378.3" font-family="Times New Roman,serif" font-size="14.00" fill="red">&#45;</text>
<text text-anchor="start" x="17.5" y="-378.3" font-family="Times New Roman,serif" font-size="14.00"> &#160;classProcessor: ClassProcessor</text>
<text text-anchor="start" x="12.5" y="-364.3" font-family="Times New Roman,serif" font-size="14.00" fill="red">&#45;</text>
<text text-anchor="start" x="17.5" y="-364.3" font-family="Times New Roman,serif" font-size="14.00"> &#160;errorCollector: ErrorCollector</text>
<text text-anchor="start" x="12.5" y="-350.3" font-family="Times New Roman,serif" font-size="14.00" fill="red">&#45;</text>
<text text-anchor="start" x="17.5" y="-350.3" font-family="Times New Roman,serif" font-size="14.00"> &#160;exportProcessor: ExportProcessor</text>
<text text-anchor="start" x="12.5" y="-336.3" font-family="Times New Roman,serif" font-size="14.00" fill="red">&#45;</text>
<text text-anchor="start" x="17.5" y="-336.3" font-family="Times New Roman,serif" font-size="14.00"> &#160;importProcessor: ImportProcessor</text>
<polyline fill="none" stroke="black" points="224.5,-329.5 9.5,-329.5 "/>
<text text-anchor="start" x="12.5" y="-316.3" font-family="Times New Roman,serif" font-weight="bold" font-size="14.00">methods</text>
<text text-anchor="start" x="12.5" y="-302.3" font-family="Times New Roman,serif" font-size="14.00" fill="blue">+</text>
<text text-anchor="start" x="21.5" y="-302.3" font-family="Times New Roman,serif" font-size="14.00"> &#160;constructor(baseLoc)</text>
<text text-anchor="start" x="12.5" y="-288.3" font-family="Times New Roman,serif" font-size="14.00" fill="blue">+</text>
<text text-anchor="start" x="21.5" y="-288.3" font-family="Times New Roman,serif" font-size="14.00"> &#160;processModules(moduleMap)</text>
<polygon fill="none" stroke="black" points="8,-281 8,-426 225,-426 225,-281 8,-281"/>
</g>
<!-- BaseProcessor -->
<g id="node2" class="node">
<title>BaseProcessor</title>
<polygon fill="lightblue" stroke="transparent" points="694.5,-170.5 694.5,-189.5 999.5,-189.5 999.5,-170.5 694.5,-170.5"/>
<text text-anchor="start" x="696.5" y="-177.3" font-family="Times New Roman,serif" font-weight="bold" font-size="14.00">BaseProcessor</text>
<polyline fill="none" stroke="black" points="999.5,-170.5 694.5,-170.5 "/>
<text text-anchor="start" x="697.5" y="-157.3" font-family="Times New Roman,serif" font-weight="bold" font-size="14.00">properties</text>
<text text-anchor="start" x="697.5" y="-143.3" font-family="Times New Roman,serif" font-size="14.00" fill="blue">+</text>
<text text-anchor="start" x="706.5" y="-143.3" font-family="Times New Roman,serif" font-size="14.00"> &#160;baseLoc: string</text>
<polyline fill="none" stroke="black" points="999.5,-136.5 694.5,-136.5 "/>
<text text-anchor="start" x="697.5" y="-123.3" font-family="Times New Roman,serif" font-weight="bold" font-size="14.00">methods</text>
<text text-anchor="start" x="697.5" y="-109.3" font-family="Times New Roman,serif" font-size="14.00" fill="blue">+</text>
<text text-anchor="start" x="706.5" y="-109.3" font-family="Times New Roman,serif" font-size="14.00"> &#160;calRelSrcFile(importingFilePath, importPathValue)</text>
<text text-anchor="start" x="697.5" y="-95.3" font-family="Times New Roman,serif" font-size="14.00" fill="blue">+</text>
<text text-anchor="start" x="706.5" y="-95.3" font-family="Times New Roman,serif" font-size="14.00"> &#160;constructor(baseLoc)</text>
<text text-anchor="start" x="697.5" y="-81.3" font-family="Times New Roman,serif" font-size="14.00" fill="blue">+</text>
<text text-anchor="start" x="706.5" y="-81.3" font-family="Times New Roman,serif" font-size="14.00"> &#160;countSubstrings(str, subStr)</text>
<text text-anchor="start" x="697.5" y="-67.3" font-family="Times New Roman,serif" font-size="14.00" fill="blue">+</text>
<text text-anchor="start" x="706.5" y="-67.3" font-family="Times New Roman,serif" font-size="14.00"> &#160;formatFunctionParams(params)</text>
<text text-anchor="start" x="697.5" y="-53.3" font-family="Times New Roman,serif" font-size="14.00" fill="blue">+</text>
<text text-anchor="start" x="706.5" y="-53.3" font-family="Times New Roman,serif" font-size="14.00"> &#160;getAbsolutePath(currentFilePath, relativePath)</text>
<text text-anchor="start" x="697.5" y="-39.3" font-family="Times New Roman,serif" font-size="14.00" fill="blue">+</text>
<text text-anchor="start" x="706.5" y="-39.3" font-family="Times New Roman,serif" font-size="14.00"> &#160;getParentNode(rootNode, targetNode)</text>
<text text-anchor="start" x="697.5" y="-25.3" font-family="Times New Roman,serif" font-size="14.00" fill="blue">+</text>
<text text-anchor="start" x="706.5" y="-25.3" font-family="Times New Roman,serif" font-size="14.00"> &#160;replaceWithReversedArray(str, subStr, arr, cnt)</text>
<text text-anchor="start" x="697.5" y="-11.3" font-family="Times New Roman,serif" font-size="14.00" fill="blue">+</text>
<text text-anchor="start" x="706.5" y="-11.3" font-family="Times New Roman,serif" font-size="14.00"> &#160;skipNode(nodeType)</text>
<polygon fill="none" stroke="black" points="693,-4 693,-191 1000,-191 1000,-4 693,-4"/>
</g>
<!-- ASTProcessor&#45;&gt;BaseProcessor -->
<g id="edge1" class="edge">
<title>ASTProcessor&#45;&gt;BaseProcessor</title>
<path fill="none" stroke="black" d="M181.55,-276.71C199.71,-259.46 220.53,-242.76 242.5,-231 377.26,-158.84 548.98,-125.96 674.85,-110.99"/>
<polygon fill="none" stroke="black" points="675.44,-114.45 684.97,-109.81 674.63,-107.49 675.44,-114.45"/>
</g>
<!-- ClassProcessor -->
<g id="node3" class="node">
<title>ClassProcessor</title>
<polygon fill="lightblue" stroke="transparent" points="260.5,-451.5 260.5,-470.5 540.5,-470.5 540.5,-451.5 260.5,-451.5"/>
<text text-anchor="start" x="262.5" y="-458.3" font-family="Times New Roman,serif" font-weight="bold" font-size="14.00">ClassProcessor : BaseProcessor</text>
<polyline fill="none" stroke="black" points="540.5,-451.5 260.5,-451.5 "/>
<text text-anchor="start" x="263.5" y="-438.3" font-family="Times New Roman,serif" font-weight="bold" font-size="14.00">methods</text>
<text text-anchor="start" x="263.5" y="-424.3" font-family="Times New Roman,serif" font-size="14.00" fill="blue">+</text>
<text text-anchor="start" x="272.5" y="-424.3" font-family="Times New Roman,serif" font-size="14.00"> &#160;constructor(baseLoc)</text>
<text text-anchor="start" x="263.5" y="-410.3" font-family="Times New Roman,serif" font-size="14.00" fill="blue">+</text>
<text text-anchor="start" x="272.5" y="-410.3" font-family="Times New Roman,serif" font-size="14.00"> &#160;extractMemberExpressionName(node)</text>
<text text-anchor="start" x="263.5" y="-396.3" font-family="Times New Roman,serif" font-size="14.00" fill="blue">+</text>
<text text-anchor="start" x="272.5" y="-396.3" font-family="Times New Roman,serif" font-size="14.00"> &#160;extractMethodInfo(methodNode)</text>
<text text-anchor="start" x="263.5" y="-382.3" font-family="Times New Roman,serif" font-size="14.00" fill="blue">+</text>
<text text-anchor="start" x="272.5" y="-382.3" font-family="Times New Roman,serif" font-size="14.00"> &#160;extractMethodSignatureInfo(methodNode)</text>
<text text-anchor="start" x="263.5" y="-368.3" font-family="Times New Roman,serif" font-size="14.00" fill="blue">+</text>
<text text-anchor="start" x="272.5" y="-368.3" font-family="Times New Roman,serif" font-size="14.00"> &#160;extractPropertyInfo(propertyNode)</text>
<text text-anchor="start" x="263.5" y="-354.3" font-family="Times New Roman,serif" font-size="14.00" fill="blue">+</text>
<text text-anchor="start" x="272.5" y="-354.3" font-family="Times New Roman,serif" font-size="14.00"> &#160;extractPropertySignatureInfo(propertyNode)</text>
<text text-anchor="start" x="263.5" y="-340.3" font-family="Times New Roman,serif" font-size="14.00" fill="blue">+</text>
<text text-anchor="start" x="272.5" y="-340.3" font-family="Times New Roman,serif" font-size="14.00"> &#160;extractSuperClassName(superClassNode)</text>
<text text-anchor="start" x="263.5" y="-326.3" font-family="Times New Roman,serif" font-size="14.00" fill="blue">+</text>
<text text-anchor="start" x="272.5" y="-326.3" font-family="Times New Roman,serif" font-size="14.00"> &#160;extractTypeAnnotation(typeAnnotationNode)</text>
<text text-anchor="start" x="263.5" y="-312.3" font-family="Times New Roman,serif" font-size="14.00" fill="blue">+</text>
<text text-anchor="start" x="272.5" y="-312.3" font-family="Times New Roman,serif" font-size="14.00"> &#160;extractTypeNameFromHeritageClause(clause)</text>
<text text-anchor="start" x="263.5" y="-298.3" font-family="Times New Roman,serif" font-size="14.00" fill="blue">+</text>
<text text-anchor="start" x="272.5" y="-298.3" font-family="Times New Roman,serif" font-size="14.00"> &#160;getMethodName(keyNode)</text>
<text text-anchor="start" x="263.5" y="-284.3" font-family="Times New Roman,serif" font-size="14.00" fill="blue">+</text>
<text text-anchor="start" x="272.5" y="-284.3" font-family="Times New Roman,serif" font-size="14.00"> &#160;getPropertyName(keyNode)</text>
<text text-anchor="start" x="263.5" y="-270.3" font-family="Times New Roman,serif" font-size="14.00" fill="blue">+</text>
<text text-anchor="start" x="272.5" y="-270.3" font-family="Times New Roman,serif" font-size="14.00"> &#160;processClassNode(node, parent, filePath)</text>
<text text-anchor="start" x="263.5" y="-256.3" font-family="Times New Roman,serif" font-size="14.00" fill="blue">+</text>
<text text-anchor="start" x="272.5" y="-256.3" font-family="Times New Roman,serif" font-size="14.00"> &#160;processInterfaceNode(node, parent, filePath)</text>
<text text-anchor="start" x="263.5" y="-242.3" font-family="Times New Roman,serif" font-size="14.00" fill="red">&#45;</text>
<text text-anchor="start" x="268.5" y="-242.3" font-family="Times New Roman,serif" font-size="14.00"> &#160;isNodeExported(parent)</text>
<polygon fill="none" stroke="black" points="259.5,-235 259.5,-472 541.5,-472 541.5,-235 259.5,-235"/>
</g>
<!-- ClassProcessor&#45;&gt;BaseProcessor -->
<g id="edge2" class="edge">
<title>ClassProcessor&#45;&gt;BaseProcessor</title>
<path fill="none" stroke="black" d="M549.59,-236.5C552.57,-234.62 555.54,-232.79 558.5,-231 595.14,-208.87 636.09,-187.96 675.36,-169.57"/>
<polygon fill="none" stroke="black" points="677.17,-172.58 684.77,-165.19 674.22,-166.24 677.17,-172.58"/>
</g>
<!-- ErrorCollector -->
<g id="node4" class="node">
<title>ErrorCollector</title>
<polygon fill="lightblue" stroke="transparent" points="576.5,-384.5 576.5,-403.5 776.5,-403.5 776.5,-384.5 576.5,-384.5"/>
<text text-anchor="start" x="578.5" y="-391.3" font-family="Times New Roman,serif" font-weight="bold" font-size="14.00">ErrorCollector : BaseProcessor</text>
<polyline fill="none" stroke="black" points="776.5,-384.5 576.5,-384.5 "/>
<text text-anchor="start" x="579.5" y="-371.3" font-family="Times New Roman,serif" font-weight="bold" font-size="14.00">properties</text>
<text text-anchor="start" x="579.5" y="-357.3" font-family="Times New Roman,serif" font-size="14.00" fill="blue">+</text>
<text text-anchor="start" x="588.5" y="-357.3" font-family="Times New Roman,serif" font-size="14.00"> &#160;errors: array</text>
<polyline fill="none" stroke="black" points="776.5,-350.5 576.5,-350.5 "/>
<text text-anchor="start" x="579.5" y="-337.3" font-family="Times New Roman,serif" font-weight="bold" font-size="14.00">methods</text>
<text text-anchor="start" x="579.5" y="-323.3" font-family="Times New Roman,serif" font-size="14.00" fill="blue">+</text>
<text text-anchor="start" x="588.5" y="-323.3" font-family="Times New Roman,serif" font-size="14.00"> &#160;addError(file, err)</text>
<text text-anchor="start" x="579.5" y="-309.3" font-family="Times New Roman,serif" font-size="14.00" fill="blue">+</text>
<text text-anchor="start" x="588.5" y="-309.3" font-family="Times New Roman,serif" font-size="14.00"> &#160;constructor(baseLoc)</text>
<polygon fill="none" stroke="black" points="575.5,-302 575.5,-405 777.5,-405 777.5,-302 575.5,-302"/>
</g>
<!-- ErrorCollector&#45;&gt;BaseProcessor -->
<g id="edge3" class="edge">
<title>ErrorCollector&#45;&gt;BaseProcessor</title>
<path fill="none" stroke="black" d="M713.18,-297.7C731.55,-270.25 754.42,-236.07 776.01,-203.82"/>
<polygon fill="none" stroke="black" points="779.11,-205.48 781.76,-195.22 773.29,-201.59 779.11,-205.48"/>
</g>
<!-- DeclarationInfo -->
<g id="node5" class="node">
<title>DeclarationInfo</title>
<polygon fill="lightyellow" stroke="transparent" points="1832.5,-361.5 1832.5,-393.5 1993.5,-393.5 1993.5,-361.5 1832.5,-361.5"/>
<text text-anchor="start" x="1868.5" y="-381.3" font-family="Times New Roman,serif" font-style="italic" font-size="14.00">&lt;&lt;interface&gt;&gt;</text>
<text text-anchor="start" x="1864.5" y="-367.3" font-family="Times New Roman,serif" font-weight="bold" font-size="14.00">DeclarationInfo</text>
<polyline fill="none" stroke="black" points="1993.5,-361.5 1832.5,-361.5 "/>
<text text-anchor="start" x="1835.5" y="-348.3" font-family="Times New Roman,serif" font-weight="bold" font-size="14.00">properties</text>
<text text-anchor="start" x="1835.5" y="-334.3" font-family="Times New Roman,serif" font-size="14.00">type: AST_NODE_TYPES</text>
<text text-anchor="start" x="1835.5" y="-320.3" font-family="Times New Roman,serif" font-size="14.00">params: string</text>
<polygon fill="none" stroke="black" points="1831,-312.5 1831,-394.5 1994,-394.5 1994,-312.5 1831,-312.5"/>
</g>
<!-- ExportProcessor -->
<g id="node6" class="node">
<title>ExportProcessor</title>
<polygon fill="lightblue" stroke="transparent" points="813.5,-395.5 813.5,-414.5 1222.5,-414.5 1222.5,-395.5 813.5,-395.5"/>
<text text-anchor="start" x="815.5" y="-402.3" font-family="Times New Roman,serif" font-weight="bold" font-size="14.00">ExportProcessor : BaseProcessor</text>
<polyline fill="none" stroke="black" points="1222.5,-395.5 813.5,-395.5 "/>
<text text-anchor="start" x="816.5" y="-382.3" font-family="Times New Roman,serif" font-weight="bold" font-size="14.00">methods</text>
<text text-anchor="start" x="816.5" y="-368.3" font-family="Times New Roman,serif" font-size="14.00" fill="blue">+</text>
<text text-anchor="start" x="825.5" y="-368.3" font-family="Times New Roman,serif" font-size="14.00"> &#160;constructor(baseLoc)</text>
<text text-anchor="start" x="816.5" y="-354.3" font-family="Times New Roman,serif" font-size="14.00" fill="blue">+</text>
<text text-anchor="start" x="825.5" y="-354.3" font-family="Times New Roman,serif" font-size="14.00"> &#160;processDeclarationNode(decl, declarationDetailsCallback)</text>
<text text-anchor="start" x="816.5" y="-340.3" font-family="Times New Roman,serif" font-size="14.00" fill="blue">+</text>
<text text-anchor="start" x="825.5" y="-340.3" font-family="Times New Roman,serif" font-size="14.00"> &#160;processExportAllDeclaration(node, srcFile, mod)</text>
<text text-anchor="start" x="816.5" y="-326.3" font-family="Times New Roman,serif" font-size="14.00" fill="blue">+</text>
<text text-anchor="start" x="825.5" y="-326.3" font-family="Times New Roman,serif" font-size="14.00"> &#160;processExportDeclaration(node, srcFile, mod, topLevelDeclarations)</text>
<text text-anchor="start" x="816.5" y="-312.3" font-family="Times New Roman,serif" font-size="14.00" fill="blue">+</text>
<text text-anchor="start" x="825.5" y="-312.3" font-family="Times New Roman,serif" font-size="14.00"> &#160;processTopLevelDeclaration(ast)</text>
<text text-anchor="start" x="816.5" y="-298.3" font-family="Times New Roman,serif" font-size="14.00" fill="red">&#45;</text>
<text text-anchor="start" x="821.5" y="-298.3" font-family="Times New Roman,serif" font-size="14.00"> &#160;extractNamesFromPattern(idPattern, callback)</text>
<polygon fill="none" stroke="black" points="812,-291 812,-416 1223,-416 1223,-291 812,-291"/>
</g>
<!-- ExportProcessor&#45;&gt;BaseProcessor -->
<g id="edge4" class="edge">
<title>ExportProcessor&#45;&gt;BaseProcessor</title>
<path fill="none" stroke="black" d="M973.24,-286.76C956.13,-261.34 936.12,-231.62 917.12,-203.39"/>
<polygon fill="none" stroke="black" points="920.01,-201.43 911.52,-195.09 914.21,-205.34 920.01,-201.43"/>
</g>
<!-- ImportProcessor -->
<g id="node7" class="node">
<title>ImportProcessor</title>
<polygon fill="lightblue" stroke="transparent" points="1258.5,-374.5 1258.5,-393.5 1553.5,-393.5 1553.5,-374.5 1258.5,-374.5"/>
<text text-anchor="start" x="1260.5" y="-381.3" font-family="Times New Roman,serif" font-weight="bold" font-size="14.00">ImportProcessor : BaseProcessor</text>
<polyline fill="none" stroke="black" points="1553.5,-374.5 1258.5,-374.5 "/>
<text text-anchor="start" x="1261.5" y="-361.3" font-family="Times New Roman,serif" font-weight="bold" font-size="14.00">methods</text>
<text text-anchor="start" x="1261.5" y="-347.3" font-family="Times New Roman,serif" font-size="14.00" fill="blue">+</text>
<text text-anchor="start" x="1270.5" y="-347.3" font-family="Times New Roman,serif" font-size="14.00"> &#160;constructor(baseLoc)</text>
<text text-anchor="start" x="1261.5" y="-333.3" font-family="Times New Roman,serif" font-size="14.00" fill="blue">+</text>
<text text-anchor="start" x="1270.5" y="-333.3" font-family="Times New Roman,serif" font-size="14.00"> &#160;normalizeDeps(deps)</text>
<text text-anchor="start" x="1261.5" y="-319.3" font-family="Times New Roman,serif" font-size="14.00" fill="blue">+</text>
<text text-anchor="start" x="1270.5" y="-319.3" font-family="Times New Roman,serif" font-size="14.00"> &#160;processImportDeclaration(node, fullSrcFilePath)</text>
<polygon fill="none" stroke="black" points="1257,-312 1257,-395 1554,-395 1554,-312 1257,-312"/>
</g>
<!-- ImportProcessor&#45;&gt;BaseProcessor -->
<g id="edge5" class="edge">
<title>ImportProcessor&#45;&gt;BaseProcessor</title>
<path fill="none" stroke="black" d="M1353.66,-307.8C1322.47,-282.62 1281.06,-252.09 1240.5,-231 1170.79,-194.75 1089.11,-165.36 1018.24,-143.56"/>
<polygon fill="none" stroke="black" points="1018.91,-140.11 1008.32,-140.54 1016.86,-146.8 1018.91,-140.11"/>
</g>
<!-- ModuleInfo -->
<g id="node8" class="node">
<title>ModuleInfo</title>
<polygon fill="lightyellow" stroke="transparent" points="2029.5,-382.5 2029.5,-414.5 2169.5,-414.5 2169.5,-382.5 2029.5,-382.5"/>
<text text-anchor="start" x="2055" y="-402.3" font-family="Times New Roman,serif" font-style="italic" font-size="14.00">&lt;&lt;interface&gt;&gt;</text>
<text text-anchor="start" x="2063.5" y="-388.3" font-family="Times New Roman,serif" font-weight="bold" font-size="14.00">ModuleInfo</text>
<polyline fill="none" stroke="black" points="2169.5,-382.5 2029.5,-382.5 "/>
<text text-anchor="start" x="2032.5" y="-369.3" font-family="Times New Roman,serif" font-weight="bold" font-size="14.00">properties</text>
<text text-anchor="start" x="2032.5" y="-355.3" font-family="Times New Roman,serif" font-size="14.00">dir: string</text>
<text text-anchor="start" x="2032.5" y="-341.3" font-family="Times New Roman,serif" font-size="14.00">file: string</text>
<text text-anchor="start" x="2032.5" y="-327.3" font-family="Times New Roman,serif" font-size="14.00">dependsOnCnt: number</text>
<text text-anchor="start" x="2032.5" y="-313.3" font-family="Times New Roman,serif" font-size="14.00">usedByCnt: number</text>
<text text-anchor="start" x="2032.5" y="-299.3" font-family="Times New Roman,serif" font-size="14.00">exportCnt: number</text>
<polygon fill="none" stroke="black" points="2028.5,-291.5 2028.5,-415.5 2170.5,-415.5 2170.5,-291.5 2028.5,-291.5"/>
</g>
<!-- ImportInfo -->
<g id="node9" class="node">
<title>ImportInfo</title>
<polygon fill="lightyellow" stroke="transparent" points="2206.5,-382.5 2206.5,-414.5 2315.5,-414.5 2315.5,-382.5 2206.5,-382.5"/>
<text text-anchor="start" x="2216.5" y="-402.3" font-family="Times New Roman,serif" font-style="italic" font-size="14.00">&lt;&lt;interface&gt;&gt;</text>
<text text-anchor="start" x="2227.5" y="-388.3" font-family="Times New Roman,serif" font-weight="bold" font-size="14.00">ImportInfo</text>
<polyline fill="none" stroke="black" points="2315.5,-382.5 2206.5,-382.5 "/>
<text text-anchor="start" x="2209.5" y="-369.3" font-family="Times New Roman,serif" font-weight="bold" font-size="14.00">properties</text>
<text text-anchor="start" x="2209.5" y="-355.3" font-family="Times New Roman,serif" font-size="14.00">src: string</text>
<text text-anchor="start" x="2209.5" y="-341.3" font-family="Times New Roman,serif" font-size="14.00">name: string</text>
<text text-anchor="start" x="2209.5" y="-327.3" font-family="Times New Roman,serif" font-size="14.00">importSrc: string</text>
<text text-anchor="start" x="2209.5" y="-313.3" font-family="Times New Roman,serif" font-size="14.00">relSrcName: string</text>
<text text-anchor="start" x="2209.5" y="-299.3" font-family="Times New Roman,serif" font-size="14.00">import: string</text>
<polygon fill="none" stroke="black" points="2205,-291.5 2205,-415.5 2316,-415.5 2316,-291.5 2205,-291.5"/>
</g>
<!-- ExportInfo -->
<g id="node10" class="node">
<title>ExportInfo</title>
<polygon fill="lightyellow" stroke="transparent" points="2351.5,-375.5 2351.5,-407.5 2445.5,-407.5 2445.5,-375.5 2351.5,-375.5"/>
<text text-anchor="start" x="2354" y="-395.3" font-family="Times New Roman,serif" font-style="italic" font-size="14.00">&lt;&lt;interface&gt;&gt;</text>
<text text-anchor="start" x="2365" y="-381.3" font-family="Times New Roman,serif" font-weight="bold" font-size="14.00">ExportInfo</text>
<polyline fill="none" stroke="black" points="2445.5,-375.5 2351.5,-375.5 "/>
<text text-anchor="start" x="2354.5" y="-362.3" font-family="Times New Roman,serif" font-weight="bold" font-size="14.00">properties</text>
<text text-anchor="start" x="2354.5" y="-348.3" font-family="Times New Roman,serif" font-size="14.00">src: string</text>
<text text-anchor="start" x="2354.5" y="-334.3" font-family="Times New Roman,serif" font-size="14.00">exported: string</text>
<text text-anchor="start" x="2354.5" y="-320.3" font-family="Times New Roman,serif" font-size="14.00">type: string</text>
<text text-anchor="start" x="2354.5" y="-306.3" font-family="Times New Roman,serif" font-size="14.00">params: string</text>
<polygon fill="none" stroke="black" points="2350.5,-298.5 2350.5,-408.5 2446.5,-408.5 2446.5,-298.5 2350.5,-298.5"/>
</g>
<!-- ErrorInfo -->
<g id="node11" class="node">
<title>ErrorInfo</title>
<polygon fill="lightyellow" stroke="transparent" points="2482.5,-368.5 2482.5,-400.5 2575.5,-400.5 2575.5,-368.5 2482.5,-368.5"/>
<text text-anchor="start" x="2484.5" y="-388.3" font-family="Times New Roman,serif" font-style="italic" font-size="14.00">&lt;&lt;interface&gt;&gt;</text>
<text text-anchor="start" x="2498.5" y="-374.3" font-family="Times New Roman,serif" font-weight="bold" font-size="14.00">ErrorInfo</text>
<polyline fill="none" stroke="black" points="2575.5,-368.5 2482.5,-368.5 "/>
<text text-anchor="start" x="2485.5" y="-355.3" font-family="Times New Roman,serif" font-weight="bold" font-size="14.00">properties</text>
<text text-anchor="start" x="2485.5" y="-341.3" font-family="Times New Roman,serif" font-size="14.00">file: string</text>
<text text-anchor="start" x="2485.5" y="-327.3" font-family="Times New Roman,serif" font-size="14.00">err: Error</text>
<text text-anchor="start" x="2485.5" y="-313.3" font-family="Times New Roman,serif" font-size="14.00">msg: string</text>
<polygon fill="none" stroke="black" points="2481,-305.5 2481,-401.5 2576,-401.5 2576,-305.5 2481,-305.5"/>
</g>
<!-- MethodInfo -->
<g id="node12" class="node">
<title>MethodInfo</title>
<polygon fill="lightyellow" stroke="transparent" points="2611.5,-382.5 2611.5,-414.5 3008.5,-414.5 3008.5,-382.5 2611.5,-382.5"/>
<text text-anchor="start" x="2765.5" y="-402.3" font-family="Times New Roman,serif" font-style="italic" font-size="14.00">&lt;&lt;interface&gt;&gt;</text>
<text text-anchor="start" x="2773.5" y="-388.3" font-family="Times New Roman,serif" font-weight="bold" font-size="14.00">MethodInfo</text>
<polyline fill="none" stroke="black" points="3008.5,-382.5 2611.5,-382.5 "/>
<text text-anchor="start" x="2614.5" y="-369.3" font-family="Times New Roman,serif" font-weight="bold" font-size="14.00">properties</text>
<text text-anchor="start" x="2614.5" y="-355.3" font-family="Times New Roman,serif" font-size="14.00">name: string</text>
<text text-anchor="start" x="2614.5" y="-341.3" font-family="Times New Roman,serif" font-size="14.00">kind: unknown_type | unknown_type | unknown_type | unknown_type</text>
<text text-anchor="start" x="2614.5" y="-327.3" font-family="Times New Roman,serif" font-size="14.00">isStatic: boolean</text>
<text text-anchor="start" x="2614.5" y="-313.3" font-family="Times New Roman,serif" font-size="14.00">isPrivate: boolean</text>
<text text-anchor="start" x="2614.5" y="-299.3" font-family="Times New Roman,serif" font-size="14.00">parameters: string</text>
<polygon fill="none" stroke="black" points="2610,-291.5 2610,-415.5 3009,-415.5 3009,-291.5 2610,-291.5"/>
</g>
<!-- PropertyInfo -->
<g id="node13" class="node">
<title>PropertyInfo</title>
<polygon fill="lightyellow" stroke="transparent" points="3044.5,-382.5 3044.5,-414.5 3192.5,-414.5 3192.5,-382.5 3044.5,-382.5"/>
<text text-anchor="start" x="3074" y="-402.3" font-family="Times New Roman,serif" font-style="italic" font-size="14.00">&lt;&lt;interface&gt;&gt;</text>
<text text-anchor="start" x="3079" y="-388.3" font-family="Times New Roman,serif" font-weight="bold" font-size="14.00">PropertyInfo</text>
<polyline fill="none" stroke="black" points="3192.5,-382.5 3044.5,-382.5 "/>
<text text-anchor="start" x="3047.5" y="-369.3" font-family="Times New Roman,serif" font-weight="bold" font-size="14.00">properties</text>
<text text-anchor="start" x="3047.5" y="-355.3" font-family="Times New Roman,serif" font-size="14.00">name: string</text>
<text text-anchor="start" x="3047.5" y="-341.3" font-family="Times New Roman,serif" font-size="14.00">isStatic: boolean</text>
<text text-anchor="start" x="3047.5" y="-327.3" font-family="Times New Roman,serif" font-size="14.00">isPrivate: boolean</text>
<text text-anchor="start" x="3047.5" y="-313.3" font-family="Times New Roman,serif" font-size="14.00">type: string</text>
<text text-anchor="start" x="3047.5" y="-299.3" font-family="Times New Roman,serif" font-size="14.00">hasDefaultValue: boolean</text>
<polygon fill="none" stroke="black" points="3043.5,-291.5 3043.5,-415.5 3193.5,-415.5 3193.5,-291.5 3043.5,-291.5"/>
</g>
<!-- ClassDetail -->
<g id="node14" class="node">
<title>ClassDetail</title>
<polygon fill="lightyellow" stroke="transparent" points="3228.5,-410.5 3228.5,-442.5 3506.5,-442.5 3506.5,-410.5 3228.5,-410.5"/>
<text text-anchor="start" x="3323" y="-430.3" font-family="Times New Roman,serif" font-style="italic" font-size="14.00">&lt;&lt;interface&gt;&gt;</text>
<text text-anchor="start" x="3332" y="-416.3" font-family="Times New Roman,serif" font-weight="bold" font-size="14.00">ClassDetail</text>
<polyline fill="none" stroke="black" points="3506.5,-410.5 3228.5,-410.5 "/>
<text text-anchor="start" x="3231.5" y="-397.3" font-family="Times New Roman,serif" font-weight="bold" font-size="14.00">properties</text>
<text text-anchor="start" x="3231.5" y="-383.3" font-family="Times New Roman,serif" font-size="14.00">name: string</text>
<text text-anchor="start" x="3231.5" y="-369.3" font-family="Times New Roman,serif" font-size="14.00">filePath: string</text>
<text text-anchor="start" x="3231.5" y="-355.3" font-family="Times New Roman,serif" font-size="14.00">declarationType: unknown_type | unknown_type</text>
<text text-anchor="start" x="3231.5" y="-341.3" font-family="Times New Roman,serif" font-size="14.00">methods: array</text>
<text text-anchor="start" x="3231.5" y="-327.3" font-family="Times New Roman,serif" font-size="14.00">properties: array</text>
<text text-anchor="start" x="3231.5" y="-313.3" font-family="Times New Roman,serif" font-size="14.00">superClass: string | null</text>
<text text-anchor="start" x="3231.5" y="-299.3" font-family="Times New Roman,serif" font-size="14.00">implementsInterfaces: array</text>
<text text-anchor="start" x="3231.5" y="-285.3" font-family="Times New Roman,serif" font-size="14.00">extendsInterfaces: array</text>
<text text-anchor="start" x="3231.5" y="-271.3" font-family="Times New Roman,serif" font-size="14.00">isExported: boolean</text>
<polygon fill="none" stroke="black" points="3227.5,-263.5 3227.5,-443.5 3507.5,-443.5 3507.5,-263.5 3227.5,-263.5"/>
</g>
<!-- UsageProcessor -->
<g id="node15" class="node">
<title>UsageProcessor</title>
<polygon fill="lightblue" stroke="transparent" points="1589.5,-360.5 1589.5,-379.5 1795.5,-379.5 1795.5,-360.5 1589.5,-360.5"/>
<text text-anchor="start" x="1591.5" y="-367.3" font-family="Times New Roman,serif" font-weight="bold" font-size="14.00">UsageProcessor : BaseProcessor</text>
<polyline fill="none" stroke="black" points="1795.5,-360.5 1589.5,-360.5 "/>
<text text-anchor="start" x="1592.5" y="-347.3" font-family="Times New Roman,serif" font-weight="bold" font-size="14.00">methods</text>
<text text-anchor="start" x="1592.5" y="-333.3" font-family="Times New Roman,serif" font-size="14.00" fill="blue">+</text>
<text text-anchor="start" x="1601.5" y="-333.3" font-family="Times New Roman,serif" font-size="14.00"> &#160;constructor(baseLoc)</text>
<polygon fill="none" stroke="black" points="1588.5,-326 1588.5,-381 1796.5,-381 1796.5,-326 1588.5,-326"/>
</g>
<!-- UsageProcessor&#45;&gt;BaseProcessor -->
<g id="edge6" class="edge">
<title>UsageProcessor&#45;&gt;BaseProcessor</title>
<path fill="none" stroke="black" d="M1670.77,-321.8C1649.01,-293.52 1612.87,-252.75 1571.5,-231 1397.69,-139.6 1171.71,-110.17 1018.58,-101.26"/>
<polygon fill="none" stroke="black" points="1018.32,-97.74 1008.14,-100.67 1017.93,-104.72 1018.32,-97.74"/>
</g>
</g>
</svg>
