<?xml version="1.0" encoding="UTF-8" standalone="no"?>
<!DOCTYPE svg PUBLIC "-//W3C//DTD SVG 1.1//EN"
 "http://www.w3.org/Graphics/SVG/1.1/DTD/svg11.dtd">
<!-- Generated by graphviz version 3.0.0 (20220226.1711)
 -->
<!-- Pages: 1 -->
<svg width="603pt" height="1131pt"
 viewBox="0.00 0.00 602.50 1131.00" xmlns="http://www.w3.org/2000/svg" xmlns:xlink="http://www.w3.org/1999/xlink">
<g id="graph0" class="graph" transform="scale(1 1) rotate(0) translate(4 1127)">
<polygon fill="white" stroke="transparent" points="-4,4 -4,-1127 598.5,-1127 598.5,4 -4,4"/>
<text text-anchor="middle" x="297.25" y="-1107.8" font-family="Times New Roman,serif" font-size="14.00"> Module Exports</text>
<!-- dep&#45;graph -->
<g id="node1" class="node">
<title>dep&#45;graph</title>
<polygon fill="lightblue" stroke="transparent" points="108,-971 108,-990 282,-990 282,-971 108,-971"/>
<text text-anchor="start" x="163.5" y="-977.8" font-family="Times New Roman,serif" font-weight="bold" font-size="14.00">dep&#45;graph</text>
<polyline fill="none" stroke="black" points="108,-950 282,-950 "/>
<polyline fill="none" stroke="black" points="282,-971 108,-971 "/>
<text text-anchor="start" x="111" y="-956.8" font-family="Times New Roman,serif" font-size="14.00">runProgram</text>
<polyline fill="none" stroke="black" points="108,-916 282,-916 "/>
<polyline fill="none" stroke="black" points="282,-950 108,-950 "/>
<text text-anchor="start" x="111" y="-936.8" font-family="Times New Roman,serif" font-style="italic" font-size="14.00" fill="red">DependencyGraphGenerator</text>
<text text-anchor="start" x="114.5" y="-922.8" font-family="Times New Roman,serif" font-size="14.00">DependencyGraphGenerator</text>
<polygon fill="none" stroke="black" points="107,-915 107,-991 283,-991 283,-915 107,-915"/>
</g>
<!-- dep&#45;graph&#45;node_modules -->
<g id="node2" class="node">
<title>dep&#45;graph&#45;node_modules</title>
<polygon fill="lightgrey" stroke="transparent" points="9,-624.5 9,-643.5 171,-643.5 171,-624.5 9,-624.5"/>
<text text-anchor="start" x="46" y="-631.3" font-family="Times New Roman,serif" font-weight="bold" font-size="14.00">node_modules</text>
<text text-anchor="start" x="20" y="-612.3" font-family="Times New Roman,serif" font-style="italic" font-size="14.00" fill="red">commander</text>
<text text-anchor="start" x="88" y="-612.3" font-family="Times New Roman,serif" font-size="14.00"> (Command)</text>
<text text-anchor="start" x="30" y="-598.3" font-family="Times New Roman,serif" font-style="italic" font-size="14.00" fill="red">commander</text>
<text text-anchor="start" x="98" y="-598.3" font-family="Times New Roman,serif" font-size="14.00"> (Option)</text>
<text text-anchor="start" x="11" y="-584.3" font-family="Times New Roman,serif" font-style="italic" font-size="14.00" fill="red">commander</text>
<text text-anchor="start" x="79" y="-584.3" font-family="Times New Roman,serif" font-size="14.00"> (OptionValues)</text>
<text text-anchor="start" x="73" y="-570.3" font-family="Times New Roman,serif" font-style="italic" font-size="14.00" fill="red">fs</text>
<text text-anchor="start" x="83" y="-570.3" font-family="Times New Roman,serif" font-size="14.00"> (fs)</text>
<text text-anchor="start" x="58" y="-556.3" font-family="Times New Roman,serif" font-style="italic" font-size="14.00" fill="red">path</text>
<text text-anchor="start" x="85" y="-556.3" font-family="Times New Roman,serif" font-size="14.00"> (path)</text>
<polygon fill="none" stroke="black" points="8,-550 8,-645 172,-645 172,-550 8,-550"/>
</g>
<!-- dep&#45;graph&#45;&gt;dep&#45;graph&#45;node_modules -->
<g id="edge1" class="edge">
<title>dep&#45;graph&#45;&gt;dep&#45;graph&#45;node_modules</title>
<path fill="none" stroke="black" d="M182.75,-910.76C164.3,-848.66 129.29,-730.79 107.96,-658.97"/>
<polygon fill="black" stroke="black" points="111.25,-657.74 105.04,-649.15 104.54,-659.73 111.25,-657.74"/>
</g>
<!-- DependencyGraphGenerator -->
<g id="node3" class="node">
<title>DependencyGraphGenerator</title>
<polygon fill="lightblue" stroke="transparent" points="208,-850.5 208,-869.5 393,-869.5 393,-850.5 208,-850.5"/>
<text text-anchor="start" x="211.5" y="-857.3" font-family="Times New Roman,serif" font-weight="bold" font-size="14.00">DependencyGraphGenerator</text>
<polyline fill="none" stroke="black" points="208,-814.5 393,-814.5 "/>
<polyline fill="none" stroke="black" points="393,-850.5 208,-850.5 "/>
<text text-anchor="start" x="211" y="-836.3" font-family="Times New Roman,serif" font-size="14.00">DependencyGraphGenerator</text>
<text text-anchor="start" x="257" y="-821.3" font-family="Times New Roman,serif" font-size="14.00">DggOptions</text>
<polyline fill="none" stroke="black" points="208,-780.5 393,-780.5 "/>
<polyline fill="none" stroke="black" points="393,-814.5 208,-814.5 "/>
<text text-anchor="start" x="211" y="-801.3" font-family="Times New Roman,serif" font-style="italic" font-size="14.00" fill="red">DocumentationGenerator</text>
<text text-anchor="start" x="214" y="-787.3" font-family="Times New Roman,serif" font-size="14.00">DocumentationGenerator</text>
<polyline fill="none" stroke="black" points="208,-746.5 393,-746.5 "/>
<polyline fill="none" stroke="black" points="393,-780.5 208,-780.5 "/>
<text text-anchor="start" x="211" y="-767.3" font-family="Times New Roman,serif" font-style="italic" font-size="14.00" fill="red">GraphvizProcessor</text>
<text text-anchor="start" x="211" y="-753.3" font-family="Times New Roman,serif" font-size="14.00">GraphvizProcessor</text>
<polyline fill="none" stroke="black" points="208,-672.5 393,-672.5 "/>
<polyline fill="none" stroke="black" points="393,-746.5 208,-746.5 "/>
<text text-anchor="start" x="219" y="-734.3" font-family="Times New Roman,serif" font-style="italic" font-size="14.00" fill="red">ast/ASTProcessor</text>
<text text-anchor="start" x="226.5" y="-720.3" font-family="Times New Roman,serif" font-size="14.00">ASTProcessor</text>
<text text-anchor="start" x="210" y="-706.3" font-family="Times New Roman,serif" font-style="italic" font-size="14.00" fill="red">ast/SharedInterfaces</text>
<text text-anchor="start" x="235.5" y="-692.3" font-family="Times New Roman,serif" font-size="14.00">ModuleInfo</text>
<text text-anchor="start" x="213" y="-678.3" font-family="Times New Roman,serif" font-size="14.00">ProcessedASTData</text>
<polyline fill="none" stroke="black" points="208,-612.5 393,-612.5 "/>
<polyline fill="none" stroke="black" points="393,-672.5 208,-672.5 "/>
<text text-anchor="start" x="210" y="-660.3" font-family="Times New Roman,serif" font-style="italic" font-size="14.00" fill="red">generators/DiagramsGenerator</text>
<text text-anchor="start" x="246" y="-646.3" font-family="Times New Roman,serif" font-size="14.00">DiagramsGenerator</text>
<text text-anchor="start" x="224.5" y="-632.3" font-family="Times New Roman,serif" font-style="italic" font-size="14.00" fill="red">generators/HtmlGenerator</text>
<text text-anchor="start" x="259" y="-618.3" font-family="Times New Roman,serif" font-size="14.00">HtmlGenerator</text>
<polyline fill="none" stroke="black" points="208,-440.5 393,-440.5 "/>
<polyline fill="none" stroke="black" points="393,-612.5 208,-612.5 "/>
<text text-anchor="start" x="226.5" y="-600.3" font-family="Times New Roman,serif" font-style="italic" font-size="14.00" fill="red">graphs/ClassDiagram</text>
<text text-anchor="start" x="252" y="-586.3" font-family="Times New Roman,serif" font-size="14.00">ClassDiagram</text>
<text text-anchor="start" x="230.5" y="-572.3" font-family="Times New Roman,serif" font-style="italic" font-size="14.00" fill="red">graphs/ExportGraph</text>
<text text-anchor="start" x="254" y="-558.3" font-family="Times New Roman,serif" font-size="14.00">ExportGraph</text>
<text text-anchor="start" x="220" y="-544.3" font-family="Times New Roman,serif" font-style="italic" font-size="14.00" fill="red">graphs/GraphGenerator</text>
<text text-anchor="start" x="233" y="-530.3" font-family="Times New Roman,serif" font-size="14.00">IGraphFileGenerator</text>
<text text-anchor="start" x="210" y="-516.3" font-family="Times New Roman,serif" font-style="italic" font-size="14.00" fill="red">graphs/NodeModulesGraph</text>
<text text-anchor="start" x="233.5" y="-502.3" font-family="Times New Roman,serif" font-size="14.00">NodeModulesGraph</text>
<text text-anchor="start" x="224.5" y="-488.3" font-family="Times New Roman,serif" font-style="italic" font-size="14.00" fill="red">graphs/PackageGraph</text>
<text text-anchor="start" x="250" y="-474.3" font-family="Times New Roman,serif" font-size="14.00">PackageGraph</text>
<text text-anchor="start" x="223" y="-460.3" font-family="Times New Roman,serif" font-style="italic" font-size="14.00" fill="red">graphs/RelationsGraph</text>
<text text-anchor="start" x="247" y="-446.3" font-family="Times New Roman,serif" font-size="14.00">RelationsGraph</text>
<polyline fill="none" stroke="black" points="208,-324.5 393,-324.5 "/>
<polyline fill="none" stroke="black" points="393,-440.5 208,-440.5 "/>
<text text-anchor="start" x="239.5" y="-428.3" font-family="Times New Roman,serif" font-style="italic" font-size="14.00" fill="red">utils/file&#45;utils</text>
<text text-anchor="start" x="239.5" y="-414.3" font-family="Times New Roman,serif" font-size="14.00">safeWriteFile</text>
<text text-anchor="start" x="219" y="-400.3" font-family="Times New Roman,serif" font-size="14.00">getRelativePathParts</text>
<text text-anchor="start" x="210" y="-386.3" font-family="Times New Roman,serif" font-size="14.00">getDirectoriesRecursive</text>
<text text-anchor="start" x="255" y="-372.3" font-family="Times New Roman,serif" font-size="14.00">getFiles</text>
<text text-anchor="start" x="243" y="-358.3" font-family="Times New Roman,serif" font-size="14.00">getFilename</text>
<text text-anchor="start" x="250.5" y="-344.3" font-family="Times New Roman,serif" font-style="italic" font-size="14.00" fill="red">utils/json</text>
<text text-anchor="start" x="254" y="-330.3" font-family="Times New Roman,serif" font-size="14.00">jsonOut</text>
<polygon fill="none" stroke="black" points="206.5,-324 206.5,-871 393.5,-871 393.5,-324 206.5,-324"/>
</g>
<!-- dep&#45;graph&#45;&gt;DependencyGraphGenerator -->
<g id="edge5" class="edge">
<title>dep&#45;graph&#45;&gt;DependencyGraphGenerator</title>
<path fill="none" stroke="black" d="M207.25,-910.76C209.58,-902.9 212.18,-894.16 214.98,-884.72"/>
<polygon fill="black" stroke="black" points="218.36,-885.65 217.85,-875.07 211.65,-883.66 218.36,-885.65"/>
</g>
<!-- DependencyGraphGenerator&#45;node_modules -->
<g id="node4" class="node">
<title>DependencyGraphGenerator&#45;node_modules</title>
<polygon fill="lightgrey" stroke="transparent" points="91,-210.5 91,-229.5 183,-229.5 183,-210.5 91,-210.5"/>
<text text-anchor="start" x="93" y="-217.3" font-family="Times New Roman,serif" font-weight="bold" font-size="14.00">node_modules</text>
<text text-anchor="start" x="108" y="-198.3" font-family="Times New Roman,serif" font-style="italic" font-size="14.00" fill="red">fs</text>
<text text-anchor="start" x="118" y="-198.3" font-family="Times New Roman,serif" font-size="14.00"> (fs)</text>
<text text-anchor="start" x="93" y="-184.3" font-family="Times New Roman,serif" font-style="italic" font-size="14.00" fill="red">path</text>
<text text-anchor="start" x="120" y="-184.3" font-family="Times New Roman,serif" font-size="14.00"> (path)</text>
<polygon fill="none" stroke="black" points="90,-178 90,-231 184,-231 184,-178 90,-178"/>
</g>
<!-- DependencyGraphGenerator&#45;&gt;DependencyGraphGenerator&#45;node_modules -->
<g id="edge2" class="edge">
<title>DependencyGraphGenerator&#45;&gt;DependencyGraphGenerator&#45;node_modules</title>
<path fill="none" stroke="black" d="M198.36,-342.07C195.23,-334.62 192.1,-327.25 189,-320 178.23,-294.82 165.53,-266.82 155.38,-244.82"/>
<polygon fill="black" stroke="black" points="158.43,-243.08 151.05,-235.47 152.08,-246.02 158.43,-243.08"/>
</g>
<!-- DocumentationGenerator -->
<g id="node5" class="node">
<title>DocumentationGenerator</title>
<polygon fill="lightblue" stroke="transparent" points="220,-259.5 220,-278.5 381,-278.5 381,-259.5 220,-259.5"/>
<text text-anchor="start" x="222" y="-266.3" font-family="Times New Roman,serif" font-weight="bold" font-size="14.00">DocumentationGenerator</text>
<polyline fill="none" stroke="black" points="220,-193.5 381,-193.5 "/>
<polyline fill="none" stroke="black" points="381,-259.5 220,-259.5 "/>
<text text-anchor="start" x="223" y="-245.3" font-family="Times New Roman,serif" font-size="14.00">DocumentationGenerator</text>
<text text-anchor="start" x="255.5" y="-230.3" font-family="Times New Roman,serif" font-size="14.00">JSDocConfig</text>
<text text-anchor="start" x="241.5" y="-215.3" font-family="Times New Roman,serif" font-size="14.00">JSDocOptsConfig</text>
<text text-anchor="start" x="235.5" y="-200.3" font-family="Times New Roman,serif" font-size="14.00">JSDocSourceConfig</text>
<polyline fill="none" stroke="black" points="220,-161.5 381,-161.5 "/>
<polyline fill="none" stroke="black" points="381,-193.5 220,-193.5 "/>
<text text-anchor="start" x="222" y="-181.3" font-family="Times New Roman,serif" font-style="italic" font-size="14.00" fill="red">ast/SharedInterfaces</text>
<text text-anchor="start" x="247.5" y="-167.3" font-family="Times New Roman,serif" font-size="14.00">ModuleInfo</text>
<polyline fill="none" stroke="black" points="220,-129.5 381,-129.5 "/>
<polyline fill="none" stroke="black" points="381,-161.5 220,-161.5 "/>
<text text-anchor="start" x="222" y="-149.3" font-family="Times New Roman,serif" font-style="italic" font-size="14.00" fill="red">utils/file&#45;utils</text>
<text text-anchor="start" x="225.5" y="-135.3" font-family="Times New Roman,serif" font-size="14.00">getFilename</text>
<polygon fill="none" stroke="black" points="218.5,-129 218.5,-280 381.5,-280 381.5,-129 218.5,-129"/>
</g>
<!-- DependencyGraphGenerator&#45;&gt;DocumentationGenerator -->
<g id="edge6" class="edge">
<title>DependencyGraphGenerator&#45;&gt;DocumentationGenerator</title>
<path fill="none" stroke="black" d="M300,-319.91C300,-311.07 300,-302.51 300,-294.31"/>
<polygon fill="black" stroke="black" points="303.5,-294.12 300,-284.12 296.5,-294.12 303.5,-294.12"/>
</g>
<!-- GraphvizProcessor -->
<g id="node7" class="node">
<title>GraphvizProcessor</title>
<polygon fill="lightblue" stroke="transparent" points="431,-205.5 431,-224.5 553,-224.5 553,-205.5 431,-205.5"/>
<text text-anchor="start" x="433" y="-212.3" font-family="Times New Roman,serif" font-weight="bold" font-size="14.00">GraphvizProcessor</text>
<polyline fill="none" stroke="black" points="431,-184.5 553,-184.5 "/>
<polyline fill="none" stroke="black" points="553,-205.5 431,-205.5 "/>
<text text-anchor="start" x="434" y="-191.3" font-family="Times New Roman,serif" font-size="14.00">GraphvizProcessor</text>
<polygon fill="none" stroke="black" points="430,-183.5 430,-225.5 554,-225.5 554,-183.5 430,-183.5"/>
</g>
<!-- DependencyGraphGenerator&#45;&gt;GraphvizProcessor -->
<g id="edge7" class="edge">
<title>DependencyGraphGenerator&#45;&gt;GraphvizProcessor</title>
<path fill="none" stroke="black" d="M401.62,-389.55C430.48,-330.78 458.66,-273.39 475.68,-238.73"/>
<polygon fill="black" stroke="black" points="478.91,-240.1 480.18,-229.58 472.63,-237.01 478.91,-240.1"/>
</g>
<!-- DocumentationGenerator&#45;node_modules -->
<g id="node6" class="node">
<title>DocumentationGenerator&#45;node_modules</title>
<polygon fill="lightgrey" stroke="transparent" points="208,-64.5 208,-83.5 379,-83.5 379,-64.5 208,-64.5"/>
<text text-anchor="start" x="249.5" y="-71.3" font-family="Times New Roman,serif" font-weight="bold" font-size="14.00">node_modules</text>
<text text-anchor="start" x="210" y="-52.3" font-family="Times New Roman,serif" font-style="italic" font-size="14.00" fill="red">child_process</text>
<text text-anchor="start" x="289" y="-52.3" font-family="Times New Roman,serif" font-size="14.00"> (ChildProcess)</text>
<text text-anchor="start" x="229.5" y="-38.3" font-family="Times New Roman,serif" font-style="italic" font-size="14.00" fill="red">child_process</text>
<text text-anchor="start" x="308.5" y="-38.3" font-family="Times New Roman,serif" font-size="14.00"> (spawn)</text>
<text text-anchor="start" x="276.5" y="-24.3" font-family="Times New Roman,serif" font-style="italic" font-size="14.00" fill="red">fs</text>
<text text-anchor="start" x="286.5" y="-24.3" font-family="Times New Roman,serif" font-size="14.00"> (fs)</text>
<text text-anchor="start" x="261.5" y="-10.3" font-family="Times New Roman,serif" font-style="italic" font-size="14.00" fill="red">path</text>
<text text-anchor="start" x="288.5" y="-10.3" font-family="Times New Roman,serif" font-size="14.00"> (path)</text>
<polygon fill="none" stroke="black" points="206.5,-4 206.5,-85 379.5,-85 379.5,-4 206.5,-4"/>
</g>
<!-- DocumentationGenerator&#45;&gt;DocumentationGenerator&#45;node_modules -->
<g id="edge3" class="edge">
<title>DocumentationGenerator&#45;&gt;DocumentationGenerator&#45;node_modules</title>
<path fill="none" stroke="black" d="M296.52,-124.96C296.14,-116.36 295.76,-107.75 295.39,-99.54"/>
<polygon fill="black" stroke="black" points="298.88,-99.22 294.94,-89.38 291.89,-99.53 298.88,-99.22"/>
</g>
<!-- GraphvizProcessor&#45;node_modules -->
<g id="node8" class="node">
<title>GraphvizProcessor&#45;node_modules</title>
<polygon fill="lightgrey" stroke="transparent" points="415,-57.5 415,-76.5 586,-76.5 586,-57.5 415,-57.5"/>
<text text-anchor="start" x="456.5" y="-64.3" font-family="Times New Roman,serif" font-weight="bold" font-size="14.00">node_modules</text>
<text text-anchor="start" x="436.5" y="-45.3" font-family="Times New Roman,serif" font-style="italic" font-size="14.00" fill="red">child_process</text>
<text text-anchor="start" x="515.5" y="-45.3" font-family="Times New Roman,serif" font-size="14.00"> (spawn)</text>
<text text-anchor="start" x="417" y="-31.3" font-family="Times New Roman,serif" font-style="italic" font-size="14.00" fill="red">child_process</text>
<text text-anchor="start" x="496" y="-31.3" font-family="Times New Roman,serif" font-size="14.00"> (ChildProcess)</text>
<text text-anchor="start" x="483.5" y="-17.3" font-family="Times New Roman,serif" font-style="italic" font-size="14.00" fill="red">fs</text>
<text text-anchor="start" x="493.5" y="-17.3" font-family="Times New Roman,serif" font-size="14.00"> (fs)</text>
<polygon fill="none" stroke="black" points="413.5,-11 413.5,-78 586.5,-78 586.5,-11 413.5,-11"/>
</g>
<!-- GraphvizProcessor&#45;&gt;GraphvizProcessor&#45;node_modules -->
<g id="edge4" class="edge">
<title>GraphvizProcessor&#45;&gt;GraphvizProcessor&#45;node_modules</title>
<path fill="none" stroke="black" d="M493.23,-179.16C494.4,-156.11 496.18,-120.88 497.63,-92.37"/>
<polygon fill="black" stroke="black" points="501.13,-92.38 498.14,-82.21 494.14,-92.02 501.13,-92.38"/>
</g>
<!-- index -->
<g id="node9" class="node">
<title>index</title>
<polygon fill="lightblue" stroke="transparent" points="159,-1075.5 159,-1094.5 232,-1094.5 232,-1075.5 159,-1075.5"/>
<text text-anchor="start" x="179" y="-1082.3" font-family="Times New Roman,serif" font-weight="bold" font-size="14.00">index</text>
<polyline fill="none" stroke="black" points="159,-1069.5 232,-1069.5 "/>
<polyline fill="none" stroke="black" points="232,-1075.5 159,-1075.5 "/>
<polyline fill="none" stroke="black" points="159,-1035.5 232,-1035.5 "/>
<polyline fill="none" stroke="black" points="232,-1069.5 159,-1069.5 "/>
<text text-anchor="start" x="165" y="-1056.3" font-family="Times New Roman,serif" font-style="italic" font-size="14.00" fill="red">dep&#45;graph</text>
<text text-anchor="start" x="162" y="-1042.3" font-family="Times New Roman,serif" font-size="14.00">runProgram</text>
<polygon fill="none" stroke="black" points="157.5,-1035 157.5,-1096 232.5,-1096 232.5,-1035 157.5,-1035"/>
</g>
<!-- index&#45;&gt;dep&#45;graph -->
<g id="edge8" class="edge">
<title>index&#45;&gt;dep&#45;graph</title>
<path fill="none" stroke="black" d="M195,-1030.75C195,-1022.72 195,-1013.97 195,-1005.35"/>
<polygon fill="black" stroke="black" points="198.5,-1005.34 195,-995.34 191.5,-1005.34 198.5,-1005.34"/>
</g>
</g>
</svg>
