<?xml version="1.0" encoding="UTF-8" standalone="no"?>
<!DOCTYPE svg PUBLIC "-//W3C//DTD SVG 1.1//EN"
 "http://www.w3.org/Graphics/SVG/1.1/DTD/svg11.dtd">
<!-- Generated by graphviz version 3.0.0 (20220226.1711)
 -->
<!-- Pages: 1 -->
<svg width="603pt" height="1215pt"
 viewBox="0.00 0.00 602.50 1215.00" xmlns="http://www.w3.org/2000/svg" xmlns:xlink="http://www.w3.org/1999/xlink">
<g id="graph0" class="graph" transform="scale(1 1) rotate(0) translate(4 1211)">
<polygon fill="white" stroke="transparent" points="-4,4 -4,-1211 598.5,-1211 598.5,4 -4,4"/>
<text text-anchor="middle" x="297.25" y="-1191.8" font-family="Times New Roman,serif" font-size="14.00"> Module Exports</text>
<!-- dep&#45;graph -->
<g id="node1" class="node">
<title>dep&#45;graph</title>
<polygon fill="lightblue" stroke="transparent" points="108,-1055 108,-1074 282,-1074 282,-1055 108,-1055"/>
<text text-anchor="start" x="163.5" y="-1061.8" font-family="Times New Roman,serif" font-weight="bold" font-size="14.00">dep&#45;graph</text>
<polyline fill="none" stroke="black" points="108,-1034 282,-1034 "/>
<polyline fill="none" stroke="black" points="282,-1055 108,-1055 "/>
<text text-anchor="start" x="111" y="-1040.8" font-family="Times New Roman,serif" font-size="14.00">runProgram</text>
<polyline fill="none" stroke="black" points="108,-1000 282,-1000 "/>
<polyline fill="none" stroke="black" points="282,-1034 108,-1034 "/>
<text text-anchor="start" x="111" y="-1020.8" font-family="Times New Roman,serif" font-style="italic" font-size="14.00" fill="red">DependencyGraphGenerator</text>
<text text-anchor="start" x="114.5" y="-1006.8" font-family="Times New Roman,serif" font-size="14.00">DependencyGraphGenerator</text>
<polygon fill="none" stroke="black" points="107,-999 107,-1075 283,-1075 283,-999 107,-999"/>
</g>
<!-- dep&#45;graph&#45;node_modules -->
<g id="node2" class="node">
<title>dep&#45;graph&#45;node_modules</title>
<polygon fill="lightgrey" stroke="transparent" points="9,-680.5 9,-699.5 171,-699.5 171,-680.5 9,-680.5"/>
<text text-anchor="start" x="46" y="-687.3" font-family="Times New Roman,serif" font-weight="bold" font-size="14.00">node_modules</text>
<text text-anchor="start" x="20" y="-668.3" font-family="Times New Roman,serif" font-style="italic" font-size="14.00" fill="red">commander</text>
<text text-anchor="start" x="88" y="-668.3" font-family="Times New Roman,serif" font-size="14.00"> (Command)</text>
<text text-anchor="start" x="30" y="-654.3" font-family="Times New Roman,serif" font-style="italic" font-size="14.00" fill="red">commander</text>
<text text-anchor="start" x="98" y="-654.3" font-family="Times New Roman,serif" font-size="14.00"> (Option)</text>
<text text-anchor="start" x="11" y="-640.3" font-family="Times New Roman,serif" font-style="italic" font-size="14.00" fill="red">commander</text>
<text text-anchor="start" x="79" y="-640.3" font-family="Times New Roman,serif" font-size="14.00"> (OptionValues)</text>
<text text-anchor="start" x="73" y="-626.3" font-family="Times New Roman,serif" font-style="italic" font-size="14.00" fill="red">fs</text>
<text text-anchor="start" x="83" y="-626.3" font-family="Times New Roman,serif" font-size="14.00"> (fs)</text>
<text text-anchor="start" x="58" y="-612.3" font-family="Times New Roman,serif" font-style="italic" font-size="14.00" fill="red">path</text>
<text text-anchor="start" x="85" y="-612.3" font-family="Times New Roman,serif" font-size="14.00"> (path)</text>
<polygon fill="none" stroke="black" points="8,-606 8,-701 172,-701 172,-606 8,-606"/>
</g>
<!-- dep&#45;graph&#45;&gt;dep&#45;graph&#45;node_modules -->
<g id="edge1" class="edge">
<title>dep&#45;graph&#45;&gt;dep&#45;graph&#45;node_modules</title>
<path fill="none" stroke="black" d="M183.66,-994.81C165.1,-927.37 128.14,-793.09 106.62,-714.88"/>
<polygon fill="black" stroke="black" points="109.97,-713.87 103.94,-705.16 103.22,-715.73 109.97,-713.87"/>
</g>
<!-- DependencyGraphGenerator -->
<g id="node3" class="node">
<title>DependencyGraphGenerator</title>
<polygon fill="lightblue" stroke="transparent" points="208,-934.5 208,-953.5 393,-953.5 393,-934.5 208,-934.5"/>
<text text-anchor="start" x="211.5" y="-941.3" font-family="Times New Roman,serif" font-weight="bold" font-size="14.00">DependencyGraphGenerator</text>
<polyline fill="none" stroke="black" points="208,-898.5 393,-898.5 "/>
<polyline fill="none" stroke="black" points="393,-934.5 208,-934.5 "/>
<text text-anchor="start" x="211" y="-920.3" font-family="Times New Roman,serif" font-size="14.00">DependencyGraphGenerator</text>
<text text-anchor="start" x="257" y="-905.3" font-family="Times New Roman,serif" font-size="14.00">DggOptions</text>
<polyline fill="none" stroke="black" points="208,-864.5 393,-864.5 "/>
<polyline fill="none" stroke="black" points="393,-898.5 208,-898.5 "/>
<text text-anchor="start" x="211" y="-885.3" font-family="Times New Roman,serif" font-style="italic" font-size="14.00" fill="red">DocumentationGenerator</text>
<text text-anchor="start" x="214" y="-871.3" font-family="Times New Roman,serif" font-size="14.00">DocumentationGenerator</text>
<polyline fill="none" stroke="black" points="208,-830.5 393,-830.5 "/>
<polyline fill="none" stroke="black" points="393,-864.5 208,-864.5 "/>
<text text-anchor="start" x="211" y="-851.3" font-family="Times New Roman,serif" font-style="italic" font-size="14.00" fill="red">GraphvizProcessor</text>
<text text-anchor="start" x="211" y="-837.3" font-family="Times New Roman,serif" font-size="14.00">GraphvizProcessor</text>
<g id="a_node3_0"><a xlink:href="diagrams.html#ast" xlink:title="&lt;TABLE&gt;" target="_top">
<polyline fill="none" stroke="black" points="208,-742.5 393,-742.5 "/>
<polyline fill="none" stroke="black" points="393,-830.5 208,-830.5 "/>
<text text-anchor="start" x="260.5" y="-818.3" font-family="Times New Roman,serif" font-style="italic" font-size="14.00" fill="red">ast</text>
<text text-anchor="start" x="219" y="-804.3" font-family="Times New Roman,serif" font-style="italic" font-size="14.00" fill="red">ast/ASTProcessor</text>
<text text-anchor="start" x="226.5" y="-790.3" font-family="Times New Roman,serif" font-size="14.00">ASTProcessor</text>
<text text-anchor="start" x="210" y="-776.3" font-family="Times New Roman,serif" font-style="italic" font-size="14.00" fill="red">ast/SharedInterfaces</text>
<text text-anchor="start" x="235.5" y="-762.3" font-family="Times New Roman,serif" font-size="14.00">ModuleInfo</text>
<text text-anchor="start" x="213" y="-748.3" font-family="Times New Roman,serif" font-size="14.00">ProcessedASTData</text>
</a>
</g>
<g id="a_node3_1"><a xlink:href="diagrams.html#generators" xlink:title="&lt;TABLE&gt;" target="_top">
<polyline fill="none" stroke="black" points="208,-668.5 393,-668.5 "/>
<polyline fill="none" stroke="black" points="393,-742.5 208,-742.5 "/>
<text text-anchor="start" x="270" y="-730.3" font-family="Times New Roman,serif" font-style="italic" font-size="14.00" fill="red">generators</text>
<text text-anchor="start" x="210" y="-716.3" font-family="Times New Roman,serif" font-style="italic" font-size="14.00" fill="red">generators/DiagramsGenerator</text>
<text text-anchor="start" x="246" y="-702.3" font-family="Times New Roman,serif" font-size="14.00">DiagramsGenerator</text>
<text text-anchor="start" x="224.5" y="-688.3" font-family="Times New Roman,serif" font-style="italic" font-size="14.00" fill="red">generators/HtmlGenerator</text>
<text text-anchor="start" x="259" y="-674.3" font-family="Times New Roman,serif" font-size="14.00">HtmlGenerator</text>
</a>
</g>
<g id="a_node3_2"><a xlink:href="diagrams.html#graphs" xlink:title="&lt;TABLE&gt;" target="_top">
<polyline fill="none" stroke="black" points="208,-482.5 393,-482.5 "/>
<polyline fill="none" stroke="black" points="393,-668.5 208,-668.5 "/>
<text text-anchor="start" x="270.5" y="-656.3" font-family="Times New Roman,serif" font-style="italic" font-size="14.00" fill="red">graphs</text>
<text text-anchor="start" x="226.5" y="-642.3" font-family="Times New Roman,serif" font-style="italic" font-size="14.00" fill="red">graphs/ClassDiagram</text>
<text text-anchor="start" x="252" y="-628.3" font-family="Times New Roman,serif" font-size="14.00">ClassDiagram</text>
<text text-anchor="start" x="230.5" y="-614.3" font-family="Times New Roman,serif" font-style="italic" font-size="14.00" fill="red">graphs/ExportGraph</text>
<text text-anchor="start" x="254" y="-600.3" font-family="Times New Roman,serif" font-size="14.00">ExportGraph</text>
<text text-anchor="start" x="220" y="-586.3" font-family="Times New Roman,serif" font-style="italic" font-size="14.00" fill="red">graphs/GraphGenerator</text>
<text text-anchor="start" x="233" y="-572.3" font-family="Times New Roman,serif" font-size="14.00">IGraphFileGenerator</text>
<text text-anchor="start" x="210" y="-558.3" font-family="Times New Roman,serif" font-style="italic" font-size="14.00" fill="red">graphs/NodeModulesGraph</text>
<text text-anchor="start" x="233.5" y="-544.3" font-family="Times New Roman,serif" font-size="14.00">NodeModulesGraph</text>
<text text-anchor="start" x="224.5" y="-530.3" font-family="Times New Roman,serif" font-style="italic" font-size="14.00" fill="red">graphs/PackageGraph</text>
<text text-anchor="start" x="250" y="-516.3" font-family="Times New Roman,serif" font-size="14.00">PackageGraph</text>
<text text-anchor="start" x="223" y="-502.3" font-family="Times New Roman,serif" font-style="italic" font-size="14.00" fill="red">graphs/RelationsGraph</text>
<text text-anchor="start" x="247" y="-488.3" font-family="Times New Roman,serif" font-size="14.00">RelationsGraph</text>
</a>
</g>
<g id="a_node3_3"><a xlink:href="diagrams.html#utils" xlink:title="&lt;TABLE&gt;" target="_top">
<polyline fill="none" stroke="black" points="208,-352.5 393,-352.5 "/>
<polyline fill="none" stroke="black" points="393,-482.5 208,-482.5 "/>
<text text-anchor="start" x="264" y="-470.3" font-family="Times New Roman,serif" font-style="italic" font-size="14.00" fill="red">utils</text>
<text text-anchor="start" x="239.5" y="-456.3" font-family="Times New Roman,serif" font-style="italic" font-size="14.00" fill="red">utils/file&#45;utils</text>
<text text-anchor="start" x="239.5" y="-442.3" font-family="Times New Roman,serif" font-size="14.00">safeWriteFile</text>
<text text-anchor="start" x="219" y="-428.3" font-family="Times New Roman,serif" font-size="14.00">getRelativePathParts</text>
<text text-anchor="start" x="210" y="-414.3" font-family="Times New Roman,serif" font-size="14.00">getDirectoriesRecursive</text>
<text text-anchor="start" x="255" y="-400.3" font-family="Times New Roman,serif" font-size="14.00">getFiles</text>
<text text-anchor="start" x="243" y="-386.3" font-family="Times New Roman,serif" font-size="14.00">getFilename</text>
<text text-anchor="start" x="250.5" y="-372.3" font-family="Times New Roman,serif" font-style="italic" font-size="14.00" fill="red">utils/json</text>
<text text-anchor="start" x="254" y="-358.3" font-family="Times New Roman,serif" font-size="14.00">jsonOut</text>
</a>
</g>
<polygon fill="none" stroke="black" points="206.5,-352 206.5,-955 393.5,-955 393.5,-352 206.5,-352"/>
</g>
<!-- dep&#45;graph&#45;&gt;DependencyGraphGenerator -->
<g id="edge5" class="edge">
<title>dep&#45;graph&#45;&gt;DependencyGraphGenerator</title>
<path fill="none" stroke="black" d="M206.34,-994.81C208.46,-987.09 210.83,-978.49 213.39,-969.2"/>
<polygon fill="black" stroke="black" points="216.84,-969.85 216.12,-959.28 210.09,-967.99 216.84,-969.85"/>
</g>
<!-- DependencyGraphGenerator&#45;node_modules -->
<g id="node4" class="node">
<title>DependencyGraphGenerator&#45;node_modules</title>
<polygon fill="lightgrey" stroke="transparent" points="91,-224.5 91,-243.5 183,-243.5 183,-224.5 91,-224.5"/>
<text text-anchor="start" x="93" y="-231.3" font-family="Times New Roman,serif" font-weight="bold" font-size="14.00">node_modules</text>
<text text-anchor="start" x="108" y="-212.3" font-family="Times New Roman,serif" font-style="italic" font-size="14.00" fill="red">fs</text>
<text text-anchor="start" x="118" y="-212.3" font-family="Times New Roman,serif" font-size="14.00"> (fs)</text>
<text text-anchor="start" x="93" y="-198.3" font-family="Times New Roman,serif" font-style="italic" font-size="14.00" fill="red">path</text>
<text text-anchor="start" x="120" y="-198.3" font-family="Times New Roman,serif" font-size="14.00"> (path)</text>
<polygon fill="none" stroke="black" points="90,-192 90,-245 184,-245 184,-192 90,-192"/>
</g>
<!-- DependencyGraphGenerator&#45;&gt;DependencyGraphGenerator&#45;node_modules -->
<g id="edge2" class="edge">
<title>DependencyGraphGenerator&#45;&gt;DependencyGraphGenerator&#45;node_modules</title>
<path fill="none" stroke="black" d="M198.46,-372.77C195.29,-364.41 192.13,-356.14 189,-348 177.4,-317.82 163.65,-283.93 153.21,-258.54"/>
<polygon fill="black" stroke="black" points="156.43,-257.15 149.38,-249.24 149.95,-259.82 156.43,-257.15"/>
</g>
<!-- DocumentationGenerator -->
<g id="node5" class="node">
<title>DocumentationGenerator</title>
<polygon fill="lightblue" stroke="transparent" points="220,-287.5 220,-306.5 381,-306.5 381,-287.5 220,-287.5"/>
<text text-anchor="start" x="222" y="-294.3" font-family="Times New Roman,serif" font-weight="bold" font-size="14.00">DocumentationGenerator</text>
<polyline fill="none" stroke="black" points="220,-221.5 381,-221.5 "/>
<polyline fill="none" stroke="black" points="381,-287.5 220,-287.5 "/>
<text text-anchor="start" x="223" y="-273.3" font-family="Times New Roman,serif" font-size="14.00">DocumentationGenerator</text>
<text text-anchor="start" x="255.5" y="-258.3" font-family="Times New Roman,serif" font-size="14.00">JSDocConfig</text>
<text text-anchor="start" x="241.5" y="-243.3" font-family="Times New Roman,serif" font-size="14.00">JSDocOptsConfig</text>
<text text-anchor="start" x="235.5" y="-228.3" font-family="Times New Roman,serif" font-size="14.00">JSDocSourceConfig</text>
<g id="a_node5_4"><a xlink:href="diagrams.html#ast" xlink:title="&lt;TABLE&gt;" target="_top">
<polyline fill="none" stroke="black" points="220,-175.5 381,-175.5 "/>
<polyline fill="none" stroke="black" points="381,-221.5 220,-221.5 "/>
<text text-anchor="start" x="272.5" y="-209.3" font-family="Times New Roman,serif" font-style="italic" font-size="14.00" fill="red">ast</text>
<text text-anchor="start" x="222" y="-195.3" font-family="Times New Roman,serif" font-style="italic" font-size="14.00" fill="red">ast/SharedInterfaces</text>
<text text-anchor="start" x="247.5" y="-181.3" font-family="Times New Roman,serif" font-size="14.00">ModuleInfo</text>
</a>
</g>
<g id="a_node5_5"><a xlink:href="diagrams.html#utils" xlink:title="&lt;TABLE&gt;" target="_top">
<polyline fill="none" stroke="black" points="220,-129.5 381,-129.5 "/>
<polyline fill="none" stroke="black" points="381,-175.5 220,-175.5 "/>
<text text-anchor="start" x="246.5" y="-163.3" font-family="Times New Roman,serif" font-style="italic" font-size="14.00" fill="red">utils</text>
<text text-anchor="start" x="222" y="-149.3" font-family="Times New Roman,serif" font-style="italic" font-size="14.00" fill="red">utils/file&#45;utils</text>
<text text-anchor="start" x="225.5" y="-135.3" font-family="Times New Roman,serif" font-size="14.00">getFilename</text>
</a>
</g>
<polygon fill="none" stroke="black" points="218.5,-129 218.5,-308 381.5,-308 381.5,-129 218.5,-129"/>
</g>
<!-- DependencyGraphGenerator&#45;&gt;DocumentationGenerator -->
<g id="edge6" class="edge">
<title>DependencyGraphGenerator&#45;&gt;DocumentationGenerator</title>
<path fill="none" stroke="black" d="M300,-347.95C300,-339.04 300,-330.38 300,-322.03"/>
<polygon fill="black" stroke="black" points="303.5,-322 300,-312 296.5,-322 303.5,-322"/>
</g>
<!-- GraphvizProcessor -->
<g id="node7" class="node">
<title>GraphvizProcessor</title>
<polygon fill="lightblue" stroke="transparent" points="431,-219.5 431,-238.5 553,-238.5 553,-219.5 431,-219.5"/>
<text text-anchor="start" x="433" y="-226.3" font-family="Times New Roman,serif" font-weight="bold" font-size="14.00">GraphvizProcessor</text>
<polyline fill="none" stroke="black" points="431,-198.5 553,-198.5 "/>
<polyline fill="none" stroke="black" points="553,-219.5 431,-219.5 "/>
<text text-anchor="start" x="434" y="-205.3" font-family="Times New Roman,serif" font-size="14.00">GraphvizProcessor</text>
<polygon fill="none" stroke="black" points="430,-197.5 430,-239.5 554,-239.5 554,-197.5 430,-197.5"/>
</g>
<!-- DependencyGraphGenerator&#45;&gt;GraphvizProcessor -->
<g id="edge7" class="edge">
<title>DependencyGraphGenerator&#45;&gt;GraphvizProcessor</title>
<path fill="none" stroke="black" d="M401.62,-423.32C431.27,-356.47 460.19,-291.24 477.04,-253.23"/>
<polygon fill="black" stroke="black" points="480.41,-254.28 481.26,-243.72 474.01,-251.44 480.41,-254.28"/>
</g>
<!-- DocumentationGenerator&#45;node_modules -->
<g id="node6" class="node">
<title>DocumentationGenerator&#45;node_modules</title>
<polygon fill="lightgrey" stroke="transparent" points="208,-64.5 208,-83.5 379,-83.5 379,-64.5 208,-64.5"/>
<text text-anchor="start" x="249.5" y="-71.3" font-family="Times New Roman,serif" font-weight="bold" font-size="14.00">node_modules</text>
<text text-anchor="start" x="210" y="-52.3" font-family="Times New Roman,serif" font-style="italic" font-size="14.00" fill="red">child_process</text>
<text text-anchor="start" x="289" y="-52.3" font-family="Times New Roman,serif" font-size="14.00"> (ChildProcess)</text>
<text text-anchor="start" x="229.5" y="-38.3" font-family="Times New Roman,serif" font-style="italic" font-size="14.00" fill="red">child_process</text>
<text text-anchor="start" x="308.5" y="-38.3" font-family="Times New Roman,serif" font-size="14.00"> (spawn)</text>
<text text-anchor="start" x="276.5" y="-24.3" font-family="Times New Roman,serif" font-style="italic" font-size="14.00" fill="red">fs</text>
<text text-anchor="start" x="286.5" y="-24.3" font-family="Times New Roman,serif" font-size="14.00"> (fs)</text>
<text text-anchor="start" x="261.5" y="-10.3" font-family="Times New Roman,serif" font-style="italic" font-size="14.00" fill="red">path</text>
<text text-anchor="start" x="288.5" y="-10.3" font-family="Times New Roman,serif" font-size="14.00"> (path)</text>
<polygon fill="none" stroke="black" points="206.5,-4 206.5,-85 379.5,-85 379.5,-4 206.5,-4"/>
</g>
<!-- DocumentationGenerator&#45;&gt;DocumentationGenerator&#45;node_modules -->
<g id="edge3" class="edge">
<title>DocumentationGenerator&#45;&gt;DocumentationGenerator&#45;node_modules</title>
<path fill="none" stroke="black" d="M296.23,-124.95C295.88,-116.23 295.53,-107.6 295.19,-99.42"/>
<polygon fill="black" stroke="black" points="298.69,-99.18 294.78,-89.33 291.69,-99.46 298.69,-99.18"/>
</g>
<!-- GraphvizProcessor&#45;node_modules -->
<g id="node8" class="node">
<title>GraphvizProcessor&#45;node_modules</title>
<polygon fill="lightgrey" stroke="transparent" points="415,-57.5 415,-76.5 586,-76.5 586,-57.5 415,-57.5"/>
<text text-anchor="start" x="456.5" y="-64.3" font-family="Times New Roman,serif" font-weight="bold" font-size="14.00">node_modules</text>
<text text-anchor="start" x="436.5" y="-45.3" font-family="Times New Roman,serif" font-style="italic" font-size="14.00" fill="red">child_process</text>
<text text-anchor="start" x="515.5" y="-45.3" font-family="Times New Roman,serif" font-size="14.00"> (spawn)</text>
<text text-anchor="start" x="417" y="-31.3" font-family="Times New Roman,serif" font-style="italic" font-size="14.00" fill="red">child_process</text>
<text text-anchor="start" x="496" y="-31.3" font-family="Times New Roman,serif" font-size="14.00"> (ChildProcess)</text>
<text text-anchor="start" x="483.5" y="-17.3" font-family="Times New Roman,serif" font-style="italic" font-size="14.00" fill="red">fs</text>
<text text-anchor="start" x="493.5" y="-17.3" font-family="Times New Roman,serif" font-size="14.00"> (fs)</text>
<polygon fill="none" stroke="black" points="413.5,-11 413.5,-78 586.5,-78 586.5,-11 413.5,-11"/>
</g>
<!-- GraphvizProcessor&#45;&gt;GraphvizProcessor&#45;node_modules -->
<g id="edge4" class="edge">
<title>GraphvizProcessor&#45;&gt;GraphvizProcessor&#45;node_modules</title>
<path fill="none" stroke="black" d="M493.13,-193.22C494.34,-167.15 496.3,-125.09 497.81,-92.5"/>
<polygon fill="black" stroke="black" points="501.32,-92.44 498.29,-82.29 494.33,-92.11 501.32,-92.44"/>
</g>
<!-- index -->
<g id="node9" class="node">
<title>index</title>
<polygon fill="lightblue" stroke="transparent" points="159,-1159.5 159,-1178.5 232,-1178.5 232,-1159.5 159,-1159.5"/>
<text text-anchor="start" x="179" y="-1166.3" font-family="Times New Roman,serif" font-weight="bold" font-size="14.00">index</text>
<polyline fill="none" stroke="black" points="159,-1153.5 232,-1153.5 "/>
<polyline fill="none" stroke="black" points="232,-1159.5 159,-1159.5 "/>
<polyline fill="none" stroke="black" points="159,-1119.5 232,-1119.5 "/>
<polyline fill="none" stroke="black" points="232,-1153.5 159,-1153.5 "/>
<text text-anchor="start" x="165" y="-1140.3" font-family="Times New Roman,serif" font-style="italic" font-size="14.00" fill="red">dep&#45;graph</text>
<text text-anchor="start" x="162" y="-1126.3" font-family="Times New Roman,serif" font-size="14.00">runProgram</text>
<polygon fill="none" stroke="black" points="157.5,-1119 157.5,-1180 232.5,-1180 232.5,-1119 157.5,-1119"/>
</g>
<!-- index&#45;&gt;dep&#45;graph -->
<g id="edge8" class="edge">
<title>index&#45;&gt;dep&#45;graph</title>
<path fill="none" stroke="black" d="M195,-1114.75C195,-1106.72 195,-1097.97 195,-1089.35"/>
<polygon fill="black" stroke="black" points="198.5,-1089.34 195,-1079.34 191.5,-1089.34 198.5,-1089.34"/>
</g>
</g>
</svg>
