<?xml version="1.0" encoding="UTF-8" standalone="no"?>
<!DOCTYPE svg PUBLIC "-//W3C//DTD SVG 1.1//EN"
 "http://www.w3.org/Graphics/SVG/1.1/DTD/svg11.dtd">
<!-- Generated by graphviz version 3.0.0 (20220226.1711)
 -->
<!-- Pages: 1 -->
<svg width="428pt" height="356pt"
 viewBox="0.00 0.00 428.00 356.00" xmlns="http://www.w3.org/2000/svg" xmlns:xlink="http://www.w3.org/1999/xlink">
<g id="graph0" class="graph" transform="scale(1 1) rotate(0) translate(4 352)">
<polygon fill="white" stroke="transparent" points="-4,4 -4,-352 424,-352 424,4 -4,4"/>
<text text-anchor="middle" x="210" y="-332.8" font-family="Times New Roman,serif" font-size="14.00">generators Module Exports</text>
<!-- generators/DiagramsGenerator -->
<g id="node1" class="node">
<title>generators/DiagramsGenerator</title>
<g id="a_node1_0"><a xlink:href="tsdocs\modules\generators_DiagramsGenerator.html" xlink:title="&lt;TABLE&gt;" target="_blank">
<polygon fill="lightblue" stroke="transparent" points="9,-229 9,-248 207,-248 207,-229 9,-229"/>
<text text-anchor="start" x="11" y="-235.8" font-family="Times New Roman,serif" font-weight="bold" text-decoration="underline" font-size="14.00">generators/DiagramsGenerator</text>
</a>
</g>
<polyline fill="none" stroke="black" points="9,-208 207,-208 "/>
<polyline fill="none" stroke="black" points="207,-229 9,-229 "/>
<text text-anchor="start" x="12" y="-214.8" font-family="Times New Roman,serif" font-size="14.00">DiagramsGenerator</text>
<polyline fill="none" stroke="black" points="9,-176 207,-176 "/>
<polyline fill="none" stroke="black" points="207,-208 9,-208 "/>
<text text-anchor="start" x="25" y="-195.8" font-family="Times New Roman,serif" font-style="italic" font-size="14.00" fill="red">utils/file&#45;utils</text>
<text text-anchor="start" x="11" y="-181.8" font-family="Times New Roman,serif" font-size="14.00">getGraphFilename</text>
<polygon fill="none" stroke="black" points="8,-175 8,-249 208,-249 208,-175 8,-175"/>
</g>
<!-- generators/DiagramsGenerator&#45;node_modules -->
<g id="node2" class="node">
<title>generators/DiagramsGenerator&#45;node_modules</title>
<polygon fill="lightgrey" stroke="transparent" points="62,-38.5 62,-57.5 154,-57.5 154,-38.5 62,-38.5"/>
<text text-anchor="start" x="64" y="-45.3" font-family="Times New Roman,serif" font-weight="bold" font-size="14.00">node_modules</text>
<polyline fill="none" stroke="black" points="154,-38.5 62,-38.5 "/>
<text text-anchor="start" x="80" y="-25.3" font-family="Times New Roman,serif" font-style="italic" font-size="14.00" fill="red">fs</text>
<text text-anchor="start" x="90" y="-25.3" font-family="Times New Roman,serif" font-size="14.00"> (fs)</text>
<text text-anchor="start" x="65" y="-11.3" font-family="Times New Roman,serif" font-style="italic" font-size="14.00" fill="red">path</text>
<text text-anchor="start" x="92" y="-11.3" font-family="Times New Roman,serif" font-size="14.00"> (path)</text>
<polygon fill="none" stroke="black" points="61,-4 61,-59 155,-59 155,-4 61,-4"/>
</g>
<!-- generators/DiagramsGenerator&#45;&gt;generators/DiagramsGenerator&#45;node_modules -->
<g id="edge1" class="edge">
<title>generators/DiagramsGenerator&#45;&gt;generators/DiagramsGenerator&#45;node_modules</title>
<path fill="none" stroke="black" d="M108,-170.94C108,-141.92 108,-102.81 108,-73.56"/>
<polygon fill="black" stroke="black" points="111.5,-73.27 108,-63.27 104.5,-73.27 111.5,-73.27"/>
</g>
<!-- generators/HtmlGenerator -->
<g id="node3" class="node">
<title>generators/HtmlGenerator</title>
<g id="a_node3_1"><a xlink:href="tsdocs\modules\generators_HtmlGenerator.html" xlink:title="&lt;TABLE&gt;" target="_blank">
<polygon fill="lightblue" stroke="transparent" points="243,-301 243,-320 411,-320 411,-301 243,-301"/>
<text text-anchor="start" x="245" y="-307.8" font-family="Times New Roman,serif" font-weight="bold" text-decoration="underline" font-size="14.00">generators/HtmlGenerator</text>
</a>
</g>
<polyline fill="none" stroke="black" points="243,-280 411,-280 "/>
<polyline fill="none" stroke="black" points="411,-301 243,-301 "/>
<text text-anchor="start" x="246" y="-286.8" font-family="Times New Roman,serif" font-size="14.00">HtmlGenerator</text>
<polyline fill="none" stroke="black" points="243,-220 411,-220 "/>
<polyline fill="none" stroke="black" points="411,-280 243,-280 "/>
<text text-anchor="start" x="245" y="-267.8" font-family="Times New Roman,serif" font-style="italic" font-size="14.00" fill="red">ast/SharedInterfaces</text>
<text text-anchor="start" x="270.5" y="-253.8" font-family="Times New Roman,serif" font-size="14.00">ModuleInfo</text>
<text text-anchor="start" x="273" y="-239.8" font-family="Times New Roman,serif" font-size="14.00">ImportInfo</text>
<text text-anchor="start" x="273" y="-225.8" font-family="Times New Roman,serif" font-size="14.00">ExportInfo</text>
<polyline fill="none" stroke="black" points="243,-104 411,-104 "/>
<polyline fill="none" stroke="black" points="411,-220 243,-220 "/>
<text text-anchor="start" x="276" y="-207.8" font-family="Times New Roman,serif" font-style="italic" font-size="14.00" fill="red">utils/file&#45;utils</text>
<text text-anchor="start" x="266" y="-193.8" font-family="Times New Roman,serif" font-size="14.00">moduleFileName</text>
<text text-anchor="start" x="267" y="-179.8" font-family="Times New Roman,serif" font-size="14.00">getModuleName</text>
<text text-anchor="start" x="276.5" y="-165.8" font-family="Times New Roman,serif" font-style="italic" font-size="14.00" fill="red">utils/list&#45;utils</text>
<text text-anchor="start" x="271.5" y="-151.8" font-family="Times New Roman,serif" font-size="14.00">getUsedByList</text>
<text text-anchor="start" x="271" y="-137.8" font-family="Times New Roman,serif" font-size="14.00">getDependsOn</text>
<text text-anchor="start" x="245" y="-123.8" font-family="Times New Roman,serif" font-size="14.00">getUniqueNodeModules</text>
<text text-anchor="start" x="268" y="-109.8" font-family="Times New Roman,serif" font-size="14.00">getExportedList</text>
<polygon fill="none" stroke="black" points="242,-103 242,-321 412,-321 412,-103 242,-103"/>
</g>
<!-- generators/HtmlGenerator&#45;node_modules -->
<g id="node4" class="node">
<title>generators/HtmlGenerator&#45;node_modules</title>
<polygon fill="lightgrey" stroke="transparent" points="281,-38.5 281,-57.5 373,-57.5 373,-38.5 281,-38.5"/>
<text text-anchor="start" x="283" y="-45.3" font-family="Times New Roman,serif" font-weight="bold" font-size="14.00">node_modules</text>
<polyline fill="none" stroke="black" points="373,-38.5 281,-38.5 "/>
<text text-anchor="start" x="299" y="-25.3" font-family="Times New Roman,serif" font-style="italic" font-size="14.00" fill="red">fs</text>
<text text-anchor="start" x="309" y="-25.3" font-family="Times New Roman,serif" font-size="14.00"> (fs)</text>
<text text-anchor="start" x="284" y="-11.3" font-family="Times New Roman,serif" font-style="italic" font-size="14.00" fill="red">path</text>
<text text-anchor="start" x="311" y="-11.3" font-family="Times New Roman,serif" font-size="14.00"> (path)</text>
<polygon fill="none" stroke="black" points="280,-4 280,-59 374,-59 374,-4 280,-4"/>
</g>
<!-- generators/HtmlGenerator&#45;&gt;generators/HtmlGenerator&#45;node_modules -->
<g id="edge2" class="edge">
<title>generators/HtmlGenerator&#45;&gt;generators/HtmlGenerator&#45;node_modules</title>
<path fill="none" stroke="black" d="M327,-98.97C327,-89.91 327,-81.18 327,-73.21"/>
<polygon fill="black" stroke="black" points="330.5,-73.18 327,-63.18 323.5,-73.18 330.5,-73.18"/>
</g>
</g>
</svg>
