<?xml version="1.0" encoding="UTF-8" standalone="no"?>
<!DOCTYPE svg PUBLIC "-//W3C//DTD SVG 1.1//EN"
 "http://www.w3.org/Graphics/SVG/1.1/DTD/svg11.dtd">
<!-- Generated by graphviz version 3.0.0 (20220226.1711)
 -->
<!-- Pages: 1 -->
<svg width="428pt" height="377pt"
 viewBox="0.00 0.00 428.00 377.00" xmlns="http://www.w3.org/2000/svg" xmlns:xlink="http://www.w3.org/1999/xlink">
<g id="graph0" class="graph" transform="scale(1 1) rotate(0) translate(4 373)">
<polygon fill="white" stroke="transparent" points="-4,4 -4,-373 424,-373 424,4 -4,4"/>
<text text-anchor="middle" x="210" y="-353.8" font-family="Times New Roman,serif" font-size="14.00">generators Module Exports</text>
<!-- generators/DiagramsGenerator -->
<g id="node1" class="node">
<title>generators/DiagramsGenerator</title>
<g id="a_node1_0"><a xlink:href="tsdocs\modules\generators_DiagramsGenerator.html" xlink:title="&lt;TABLE&gt;" target="_blank">
<polygon fill="lightblue" stroke="transparent" points="9,-249.5 9,-268.5 207,-268.5 207,-249.5 9,-249.5"/>
<text text-anchor="start" x="11" y="-256.3" font-family="Times New Roman,serif" font-weight="bold" text-decoration="underline" font-size="14.00">generators/DiagramsGenerator</text>
</a>
</g>
<polyline fill="none" stroke="black" points="9,-228.5 207,-228.5 "/>
<polyline fill="none" stroke="black" points="207,-249.5 9,-249.5 "/>
<text text-anchor="start" x="12" y="-236.3" font-family="Times New Roman,serif" font-size="14.00" fill="blue">🏛️ [class]</text>
<text text-anchor="start" x="70" y="-236.3" font-family="Times New Roman,serif" font-size="14.00"> &#160;DiagramsGenerator</text>
<polyline fill="none" stroke="black" points="207,-228.5 9,-228.5 "/>
<text text-anchor="start" x="12" y="-215.3" font-family="Times New Roman,serif" font-style="italic" font-size="14.00" fill="red">IMPORTS</text>
<polyline fill="none" stroke="black" points="9,-175.5 207,-175.5 "/>
<polyline fill="none" stroke="black" points="207,-207.5 9,-207.5 "/>
<text text-anchor="start" x="11" y="-195.3" font-family="Times New Roman,serif" font-style="italic" font-size="14.00" fill="red">utils/file&#45;utils</text>
<text text-anchor="start" x="11" y="-181.3" font-family="Times New Roman,serif" font-size="14.00">getGraphFilename</text>
<polygon fill="none" stroke="black" points="8,-175 8,-270 208,-270 208,-175 8,-175"/>
</g>
<!-- generators/DiagramsGenerator&#45;node_modules -->
<g id="node2" class="node">
<title>generators/DiagramsGenerator&#45;node_modules</title>
<polygon fill="lightgrey" stroke="transparent" points="62,-38.5 62,-57.5 154,-57.5 154,-38.5 62,-38.5"/>
<text text-anchor="start" x="64" y="-45.3" font-family="Times New Roman,serif" font-weight="bold" font-size="14.00">node_modules</text>
<polyline fill="none" stroke="black" points="154,-38.5 62,-38.5 "/>
<text text-anchor="start" x="65" y="-25.3" font-family="Times New Roman,serif" font-style="italic" font-size="14.00" fill="red">fs</text>
<text text-anchor="start" x="75" y="-25.3" font-family="Times New Roman,serif" font-size="14.00"> &#160;(fs)</text>
<text text-anchor="start" x="65" y="-11.3" font-family="Times New Roman,serif" font-style="italic" font-size="14.00" fill="red">path</text>
<text text-anchor="start" x="92" y="-11.3" font-family="Times New Roman,serif" font-size="14.00"> &#160;(path)</text>
<polygon fill="none" stroke="black" points="61,-4 61,-59 155,-59 155,-4 61,-4"/>
</g>
<!-- generators/DiagramsGenerator&#45;&gt;generators/DiagramsGenerator&#45;node_modules -->
<g id="edge1" class="edge">
<title>generators/DiagramsGenerator&#45;&gt;generators/DiagramsGenerator&#45;node_modules</title>
<path fill="none" stroke="black" d="M108,-170.85C108,-140.27 108,-101.82 108,-73.22"/>
<polygon fill="black" stroke="black" points="111.5,-73.16 108,-63.16 104.5,-73.16 111.5,-73.16"/>
</g>
<!-- generators/HtmlGenerator -->
<g id="node3" class="node">
<title>generators/HtmlGenerator</title>
<g id="a_node3_1"><a xlink:href="tsdocs\modules\generators_HtmlGenerator.html" xlink:title="&lt;TABLE&gt;" target="_blank">
<polygon fill="lightblue" stroke="transparent" points="243,-321.5 243,-340.5 411,-340.5 411,-321.5 243,-321.5"/>
<text text-anchor="start" x="245" y="-328.3" font-family="Times New Roman,serif" font-weight="bold" text-decoration="underline" font-size="14.00">generators/HtmlGenerator</text>
</a>
</g>
<polyline fill="none" stroke="black" points="243,-300.5 411,-300.5 "/>
<polyline fill="none" stroke="black" points="411,-321.5 243,-321.5 "/>
<text text-anchor="start" x="246" y="-308.3" font-family="Times New Roman,serif" font-size="14.00" fill="blue">🏛️ [class]</text>
<text text-anchor="start" x="304" y="-308.3" font-family="Times New Roman,serif" font-size="14.00"> &#160;HtmlGenerator</text>
<polyline fill="none" stroke="black" points="411,-300.5 243,-300.5 "/>
<text text-anchor="start" x="246" y="-287.3" font-family="Times New Roman,serif" font-style="italic" font-size="14.00" fill="red">IMPORTS</text>
<polyline fill="none" stroke="black" points="243,-219.5 411,-219.5 "/>
<polyline fill="none" stroke="black" points="411,-279.5 243,-279.5 "/>
<text text-anchor="start" x="245" y="-267.3" font-family="Times New Roman,serif" font-style="italic" font-size="14.00" fill="red">ast/SharedInterfaces</text>
<text text-anchor="start" x="245" y="-253.3" font-family="Times New Roman,serif" font-size="14.00">ModuleInfo</text>
<text text-anchor="start" x="245" y="-239.3" font-family="Times New Roman,serif" font-size="14.00">ImportInfo</text>
<text text-anchor="start" x="245" y="-225.3" font-family="Times New Roman,serif" font-size="14.00">ExportInfo</text>
<polyline fill="none" stroke="black" points="243,-103.5 411,-103.5 "/>
<polyline fill="none" stroke="black" points="411,-219.5 243,-219.5 "/>
<text text-anchor="start" x="245" y="-207.3" font-family="Times New Roman,serif" font-style="italic" font-size="14.00" fill="red">utils/file&#45;utils</text>
<text text-anchor="start" x="245" y="-193.3" font-family="Times New Roman,serif" font-size="14.00">moduleFileName</text>
<text text-anchor="start" x="245" y="-179.3" font-family="Times New Roman,serif" font-size="14.00">getModuleName</text>
<text text-anchor="start" x="245" y="-165.3" font-family="Times New Roman,serif" font-style="italic" font-size="14.00" fill="red">utils/list&#45;utils</text>
<text text-anchor="start" x="245" y="-151.3" font-family="Times New Roman,serif" font-size="14.00">getUsedByList</text>
<text text-anchor="start" x="245" y="-137.3" font-family="Times New Roman,serif" font-size="14.00">getDependsOn</text>
<text text-anchor="start" x="245" y="-123.3" font-family="Times New Roman,serif" font-size="14.00">getUniqueNodeModules</text>
<text text-anchor="start" x="245" y="-109.3" font-family="Times New Roman,serif" font-size="14.00">getExportedList</text>
<polygon fill="none" stroke="black" points="242,-103 242,-342 412,-342 412,-103 242,-103"/>
</g>
<!-- generators/HtmlGenerator&#45;node_modules -->
<g id="node4" class="node">
<title>generators/HtmlGenerator&#45;node_modules</title>
<polygon fill="lightgrey" stroke="transparent" points="281,-38.5 281,-57.5 373,-57.5 373,-38.5 281,-38.5"/>
<text text-anchor="start" x="283" y="-45.3" font-family="Times New Roman,serif" font-weight="bold" font-size="14.00">node_modules</text>
<polyline fill="none" stroke="black" points="373,-38.5 281,-38.5 "/>
<text text-anchor="start" x="284" y="-25.3" font-family="Times New Roman,serif" font-style="italic" font-size="14.00" fill="red">fs</text>
<text text-anchor="start" x="294" y="-25.3" font-family="Times New Roman,serif" font-size="14.00"> &#160;(fs)</text>
<text text-anchor="start" x="284" y="-11.3" font-family="Times New Roman,serif" font-style="italic" font-size="14.00" fill="red">path</text>
<text text-anchor="start" x="311" y="-11.3" font-family="Times New Roman,serif" font-size="14.00"> &#160;(path)</text>
<polygon fill="none" stroke="black" points="280,-4 280,-59 374,-59 374,-4 280,-4"/>
</g>
<!-- generators/HtmlGenerator&#45;&gt;generators/HtmlGenerator&#45;node_modules -->
<g id="edge2" class="edge">
<title>generators/HtmlGenerator&#45;&gt;generators/HtmlGenerator&#45;node_modules</title>
<path fill="none" stroke="black" d="M327,-98.87C327,-89.92 327,-81.34 327,-73.5"/>
<polygon fill="black" stroke="black" points="330.5,-73.29 327,-63.29 323.5,-73.29 330.5,-73.29"/>
</g>
</g>
</svg>
