<?xml version="1.0" encoding="UTF-8" standalone="no"?>
<!DOCTYPE svg PUBLIC "-//W3C//DTD SVG 1.1//EN"
 "http://www.w3.org/Graphics/SVG/1.1/DTD/svg11.dtd">
<!-- Generated by graphviz version 3.0.0 (20220226.1711)
 -->
<!-- Pages: 1 -->
<svg width="1576pt" height="527pt"
 viewBox="0.00 0.00 1576.00 527.00" xmlns="http://www.w3.org/2000/svg" xmlns:xlink="http://www.w3.org/1999/xlink">
<g id="graph0" class="graph" transform="scale(1 1) rotate(0) translate(4 523)">
<polygon fill="white" stroke="transparent" points="-4,4 -4,-523 1572,-523 1572,4 -4,4"/>
<text text-anchor="middle" x="784" y="-503.8" font-family="Times New Roman,serif" font-size="14.00">graphs Class Diagram</text>
<!-- ClassDiagram -->
<g id="node1" class="node">
<title>ClassDiagram</title>
<polygon fill="lightblue" stroke="transparent" points="1289,-457.5 1289,-476.5 1559,-476.5 1559,-457.5 1289,-457.5"/>
<text text-anchor="start" x="1291" y="-464.3" font-family="Times New Roman,serif" font-weight="bold" font-size="14.00">ClassDiagram : GraphBase</text>
<polyline fill="none" stroke="black" points="1559,-457.5 1289,-457.5 "/>
<text text-anchor="start" x="1325" y="-444.3" font-family="Times New Roman,serif" font-weight="bold" font-size="14.00">properties</text>
<text text-anchor="start" x="1292" y="-430.3" font-family="Times New Roman,serif" font-size="14.00">+ declarationList: array</text>
<polyline fill="none" stroke="black" points="1559,-423.5 1289,-423.5 "/>
<text text-anchor="start" x="1398" y="-410.3" font-family="Times New Roman,serif" font-weight="bold" font-size="14.00">methods</text>
<text text-anchor="start" x="1292" y="-396.3" font-family="Times New Roman,serif" font-size="14.00">+ constructor(dependencyList, declarationList)</text>
<text text-anchor="start" x="1383" y="-382.3" font-family="Times New Roman,serif" font-size="14.00">+ generate(dir)</text>
<text text-anchor="start" x="1339.5" y="-368.3" font-family="Times New Roman,serif" font-size="14.00">+ createClassNode(classItem)</text>
<text text-anchor="start" x="1321" y="-354.3" font-family="Times New Roman,serif" font-size="14.00">+ createInterfaceNode(interfaceItem)</text>
<polygon fill="none" stroke="black" points="1288,-347 1288,-478 1560,-478 1560,-347 1288,-347"/>
</g>
<!-- GraphBase -->
<g id="node2" class="node">
<title>GraphBase</title>
<polygon fill="lightblue" stroke="transparent" points="576,-268.5 576,-287.5 790,-287.5 790,-268.5 576,-268.5"/>
<text text-anchor="start" x="578" y="-275.3" font-family="Times New Roman,serif" font-weight="bold" font-size="14.00">GraphBase</text>
<polyline fill="none" stroke="black" points="790,-268.5 576,-268.5 "/>
<text text-anchor="start" x="617" y="-255.3" font-family="Times New Roman,serif" font-weight="bold" font-size="14.00">properties</text>
<text text-anchor="start" x="580.5" y="-241.3" font-family="Times New Roman,serif" font-size="14.00">+ dependencyList: array</text>
<text text-anchor="start" x="588.5" y="-227.3" font-family="Times New Roman,serif" font-size="14.00">+ moduleArray: array</text>
<text text-anchor="start" x="579" y="-213.3" font-family="Times New Roman,serif" font-size="14.00">+ diagramsHTML: string</text>
<polyline fill="none" stroke="black" points="790,-206.5 576,-206.5 "/>
<text text-anchor="start" x="657" y="-193.3" font-family="Times New Roman,serif" font-weight="bold" font-size="14.00">methods</text>
<text text-anchor="start" x="579" y="-179.3" font-family="Times New Roman,serif" font-size="14.00">+ constructor(depList, moduleArray)</text>
<text text-anchor="start" x="641.5" y="-165.3" font-family="Times New Roman,serif" font-size="14.00">+ digraph(title)</text>
<text text-anchor="start" x="635.5" y="-151.3" font-family="Times New Roman,serif" font-size="14.00">+ nodeStart(title)</text>
<text text-anchor="start" x="623" y="-137.3" font-family="Times New Roman,serif" font-size="14.00">+ makeSafeTitle(title)</text>
<text text-anchor="start" x="641.5" y="-123.3" font-family="Times New Roman,serif" font-size="14.00">+ nodeFinish()</text>
<text text-anchor="start" x="622" y="-109.3" font-family="Times New Roman,serif" font-size="14.00">+ recordDigraph(title)</text>
<text text-anchor="start" x="604.5" y="-95.3" font-family="Times New Roman,serif" font-size="14.00">+ getDependsOnMod(mod)</text>
<text text-anchor="start" x="616.5" y="-81.3" font-family="Times New Roman,serif" font-size="14.00">+ getNodeModuleList()</text>
<text text-anchor="start" x="609" y="-67.3" font-family="Times New Roman,serif" font-size="14.00">+ filterModulesForDir(dir)</text>
<text text-anchor="start" x="642" y="-53.3" font-family="Times New Roman,serif" font-size="14.00">+ uniqueDirs()</text>
<text text-anchor="start" x="620.5" y="-39.3" font-family="Times New Roman,serif" font-size="14.00">+ isNodeModule(dep)</text>
<text text-anchor="start" x="615" y="-25.3" font-family="Times New Roman,serif" font-size="14.00">+ inSameDirectory(dep)</text>
<text text-anchor="start" x="625.5" y="-11.3" font-family="Times New Roman,serif" font-size="14.00">+ cleanDirPath(root)</text>
<polygon fill="none" stroke="black" points="575,-4 575,-289 791,-289 791,-4 575,-4"/>
</g>
<!-- ClassDiagram&#45;&gt;GraphBase -->
<g id="edge1" class="edge">
<title>ClassDiagram&#45;&gt;GraphBase</title>
<path fill="none" stroke="black" d="M1301.89,-342.86C1291.56,-337.91 1281.18,-333.22 1271,-329 1219.56,-307.68 1204.25,-309.27 1151,-293 1034.96,-257.56 902.98,-216.45 808.82,-186.99"/>
<polygon fill="none" stroke="black" points="809.85,-183.64 799.26,-184 807.76,-190.32 809.85,-183.64"/>
</g>
<!-- IGraphFileGenerator -->
<g id="node3" class="node">
<title>IGraphFileGenerator</title>
<polygon fill="lightyellow" stroke="transparent" points="1169,-146.5 1169,-178.5 1306,-178.5 1306,-146.5 1169,-146.5"/>
<text text-anchor="start" x="1193" y="-166.3" font-family="Times New Roman,serif" font-style="italic" font-size="14.00">&lt;&lt;interface&gt;&gt;</text>
<text text-anchor="start" x="1171" y="-152.3" font-family="Times New Roman,serif" font-weight="bold" font-size="14.00">IGraphFileGenerator</text>
<text text-anchor="start" x="1180" y="-134.3" font-family="Times New Roman,serif" font-weight="bold" font-size="14.00">methods</text>
<text text-anchor="start" x="1171" y="-120.3" font-family="Times New Roman,serif" font-size="14.00">generate(dir)</text>
<polygon fill="none" stroke="black" points="1167.5,-113.5 1167.5,-179.5 1306.5,-179.5 1306.5,-113.5 1167.5,-113.5"/>
</g>
<!-- ClassDiagram&#45;&gt;IGraphFileGenerator -->
<g id="edge2" class="edge">
<title>ClassDiagram&#45;&gt;IGraphFileGenerator</title>
<path fill="none" stroke="black" stroke-dasharray="5,2" d="M1375.36,-342.83C1341.64,-295.23 1297.73,-233.24 1268.52,-191.99"/>
<polygon fill="none" stroke="black" points="1271.33,-189.91 1262.69,-183.77 1265.62,-193.96 1271.33,-189.91"/>
</g>
<!-- ExportGraph -->
<g id="node4" class="node">
<title>ExportGraph</title>
<polygon fill="lightblue" stroke="transparent" points="850,-471.5 850,-490.5 1253,-490.5 1253,-471.5 850,-471.5"/>
<text text-anchor="start" x="852" y="-478.3" font-family="Times New Roman,serif" font-weight="bold" font-size="14.00">ExportGraph : GraphBase</text>
<polyline fill="none" stroke="black" points="1253,-471.5 850,-471.5 "/>
<text text-anchor="start" x="882" y="-458.3" font-family="Times New Roman,serif" font-weight="bold" font-size="14.00">properties</text>
<text text-anchor="start" x="861.5" y="-444.3" font-family="Times New Roman,serif" font-size="14.00">+ exportList: array</text>
<text text-anchor="start" x="853" y="-430.3" font-family="Times New Roman,serif" font-size="14.00">+ typedocPath: string</text>
<polyline fill="none" stroke="black" points="1253,-423.5 850,-423.5 "/>
<text text-anchor="start" x="1025.5" y="-410.3" font-family="Times New Roman,serif" font-weight="bold" font-size="14.00">methods</text>
<text text-anchor="start" x="853" y="-396.3" font-family="Times New Roman,serif" font-size="14.00">+ constructor(dependencyList, exportList, moduleArray, typedocPath)</text>
<text text-anchor="start" x="1010.5" y="-382.3" font-family="Times New Roman,serif" font-size="14.00">+ generate(dir)</text>
<text text-anchor="start" x="942.5" y="-368.3" font-family="Times New Roman,serif" font-size="14.00">+ createModuleNode(mod, exportList)</text>
<text text-anchor="start" x="897.5" y="-354.3" font-family="Times New Roman,serif" font-size="14.00">&#45; createNodeModulesRelations(modName, nodeMods)</text>
<text text-anchor="start" x="976.5" y="-340.3" font-family="Times New Roman,serif" font-size="14.00">&#45; createRelations(modules)</text>
<polygon fill="none" stroke="black" points="848.5,-333 848.5,-492 1253.5,-492 1253.5,-333 848.5,-333"/>
</g>
<!-- ExportGraph&#45;&gt;GraphBase -->
<g id="edge3" class="edge">
<title>ExportGraph&#45;&gt;GraphBase</title>
<path fill="none" stroke="black" d="M935.82,-328.87C895.01,-299.59 848.91,-266.52 807.36,-236.72"/>
<polygon fill="none" stroke="black" points="809.28,-233.79 799.12,-230.8 805.2,-239.47 809.28,-233.79"/>
</g>
<!-- ExportGraph&#45;&gt;IGraphFileGenerator -->
<g id="edge4" class="edge">
<title>ExportGraph&#45;&gt;IGraphFileGenerator</title>
<path fill="none" stroke="black" stroke-dasharray="5,2" d="M1109.34,-328.69C1141.1,-283.62 1179.15,-229.61 1205.4,-192.35"/>
<polygon fill="none" stroke="black" points="1208.58,-193.91 1211.48,-183.72 1202.86,-189.88 1208.58,-193.91"/>
</g>
<!-- NodeModulesGraph -->
<g id="node5" class="node">
<title>NodeModulesGraph</title>
<polygon fill="lightblue" stroke="transparent" points="9,-433.5 9,-452.5 219,-452.5 219,-433.5 9,-433.5"/>
<text text-anchor="start" x="11" y="-440.3" font-family="Times New Roman,serif" font-weight="bold" font-size="14.00">NodeModulesGraph : GraphBase</text>
<polyline fill="none" stroke="black" points="219,-433.5 9,-433.5 "/>
<text text-anchor="start" x="74" y="-420.3" font-family="Times New Roman,serif" font-weight="bold" font-size="14.00">methods</text>
<text text-anchor="start" x="12.5" y="-406.3" font-family="Times New Roman,serif" font-size="14.00">+ constructor(dependencyList)</text>
<text text-anchor="start" x="66.5" y="-392.3" font-family="Times New Roman,serif" font-size="14.00">+ generate()</text>
<text text-anchor="start" x="12" y="-378.3" font-family="Times New Roman,serif" font-size="14.00">+ createNodeModulesSection()</text>
<polygon fill="none" stroke="black" points="8,-371 8,-454 220,-454 220,-371 8,-371"/>
</g>
<!-- NodeModulesGraph&#45;&gt;GraphBase -->
<g id="edge5" class="edge">
<title>NodeModulesGraph&#45;&gt;GraphBase</title>
<path fill="none" stroke="black" d="M175.04,-366.98C194.35,-353.88 216.11,-340.1 237,-329 341.26,-273.57 466.25,-224.05 557.35,-190.8"/>
<polygon fill="none" stroke="black" points="558.69,-194.03 566.89,-187.33 556.3,-187.46 558.69,-194.03"/>
</g>
<!-- PackageGraph -->
<g id="node6" class="node">
<title>PackageGraph</title>
<polygon fill="lightblue" stroke="transparent" points="256,-440.5 256,-459.5 517,-459.5 517,-440.5 256,-440.5"/>
<text text-anchor="start" x="258" y="-447.3" font-family="Times New Roman,serif" font-weight="bold" font-size="14.00">PackageGraph : GraphBase</text>
<polyline fill="none" stroke="black" points="517,-440.5 256,-440.5 "/>
<text text-anchor="start" x="360.5" y="-427.3" font-family="Times New Roman,serif" font-weight="bold" font-size="14.00">methods</text>
<text text-anchor="start" x="259" y="-413.3" font-family="Times New Roman,serif" font-size="14.00">+ constructor(moduleArray, dependencyList)</text>
<text text-anchor="start" x="353" y="-399.3" font-family="Times New Roman,serif" font-size="14.00">+ generate()</text>
<text text-anchor="start" x="299" y="-385.3" font-family="Times New Roman,serif" font-size="14.00">&#45; createPackageDependencies()</text>
<text text-anchor="start" x="319.5" y="-371.3" font-family="Times New Roman,serif" font-size="14.00">&#45; createPackageNodes()</text>
<polygon fill="none" stroke="black" points="254.5,-364 254.5,-461 517.5,-461 517.5,-364 254.5,-364"/>
</g>
<!-- PackageGraph&#45;&gt;GraphBase -->
<g id="edge6" class="edge">
<title>PackageGraph&#45;&gt;GraphBase</title>
<path fill="none" stroke="black" d="M443.97,-359.97C476.73,-330.85 519,-293.28 558.86,-257.85"/>
<polygon fill="none" stroke="black" points="561.64,-260.06 566.79,-250.8 556.99,-254.82 561.64,-260.06"/>
</g>
<!-- RelationsGraph -->
<g id="node7" class="node">
<title>RelationsGraph</title>
<polygon fill="lightblue" stroke="transparent" points="553,-464.5 553,-483.5 814,-483.5 814,-464.5 553,-464.5"/>
<text text-anchor="start" x="555" y="-471.3" font-family="Times New Roman,serif" font-weight="bold" font-size="14.00">RelationsGraph : GraphBase</text>
<polyline fill="none" stroke="black" points="814,-464.5 553,-464.5 "/>
<text text-anchor="start" x="578.5" y="-451.3" font-family="Times New Roman,serif" font-weight="bold" font-size="14.00">properties</text>
<text text-anchor="start" x="556" y="-437.3" font-family="Times New Roman,serif" font-size="14.00">+ nodeMods: array</text>
<polyline fill="none" stroke="black" points="814,-430.5 553,-430.5 "/>
<text text-anchor="start" x="657.5" y="-417.3" font-family="Times New Roman,serif" font-weight="bold" font-size="14.00">methods</text>
<text text-anchor="start" x="556" y="-403.3" font-family="Times New Roman,serif" font-size="14.00">+ constructor(dependencyList, moduleArray)</text>
<text text-anchor="start" x="650" y="-389.3" font-family="Times New Roman,serif" font-size="14.00">+ generate()</text>
<text text-anchor="start" x="631" y="-375.3" font-family="Times New Roman,serif" font-size="14.00">&#45; getUsedBy(mod)</text>
<text text-anchor="start" x="585.5" y="-361.3" font-family="Times New Roman,serif" font-size="14.00">&#45; createModuleRelationNode(mod)</text>
<text text-anchor="start" x="597.5" y="-347.3" font-family="Times New Roman,serif" font-size="14.00">&#45; createNodeModulesSection()</text>
<polygon fill="none" stroke="black" points="551.5,-340 551.5,-485 814.5,-485 814.5,-340 551.5,-340"/>
</g>
<!-- RelationsGraph&#45;&gt;GraphBase -->
<g id="edge7" class="edge">
<title>RelationsGraph&#45;&gt;GraphBase</title>
<path fill="none" stroke="black" d="M683,-335.85C683,-325.58 683,-314.76 683,-303.7"/>
<polygon fill="none" stroke="black" points="686.5,-303.48 683,-293.48 679.5,-303.48 686.5,-303.48"/>
</g>
</g>
</svg>
