<?xml version="1.0" encoding="UTF-8" standalone="no"?>
<!DOCTYPE svg PUBLIC "-//W3C//DTD SVG 1.1//EN"
 "http://www.w3.org/Graphics/SVG/1.1/DTD/svg11.dtd">
<!-- Generated by graphviz version 3.0.0 (20220226.1711)
 -->
<!-- Pages: 1 -->
<svg width="933pt" height="593pt"
 viewBox="0.00 0.00 932.50 593.00" xmlns="http://www.w3.org/2000/svg" xmlns:xlink="http://www.w3.org/1999/xlink">
<g id="graph0" class="graph" transform="scale(1 1) rotate(0) translate(4 589)">
<polygon fill="white" stroke="transparent" points="-4,4 -4,-589 928.5,-589 928.5,4 -4,4"/>
<text text-anchor="middle" x="462.25" y="-569.8" font-family="Times New Roman,serif" font-size="14.00">graphs Module Exports</text>
<!-- graphs/ClassDiagram -->
<g id="node1" class="node">
<title>graphs/ClassDiagram</title>
<g id="a_node1_0"><a xlink:href="tsdocs\modules\graphs_ClassDiagram.html" xlink:title="&lt;TABLE&gt;" target="_blank">
<polygon fill="lightblue" stroke="transparent" points="583.5,-494 583.5,-513 731.5,-513 731.5,-494 583.5,-494"/>
<text text-anchor="start" x="590.5" y="-500.8" font-family="Times New Roman,serif" font-weight="bold" text-decoration="underline" font-size="14.00">graphs/ClassDiagram</text>
</a>
</g>
<polyline fill="none" stroke="black" points="583.5,-473 731.5,-473 "/>
<polyline fill="none" stroke="black" points="731.5,-494 583.5,-494 "/>
<text text-anchor="start" x="586.5" y="-479.8" font-family="Times New Roman,serif" font-size="14.00">ClassDiagram</text>
<polyline fill="none" stroke="black" points="583.5,-439 731.5,-439 "/>
<polyline fill="none" stroke="black" points="731.5,-473 583.5,-473 "/>
<text text-anchor="start" x="586.5" y="-459.8" font-family="Times New Roman,serif" font-style="italic" font-size="14.00" fill="red">graphs/GraphBase</text>
<text text-anchor="start" x="610.5" y="-445.8" font-family="Times New Roman,serif" font-size="14.00">GraphBase</text>
<polyline fill="none" stroke="black" points="583.5,-405 731.5,-405 "/>
<polyline fill="none" stroke="black" points="731.5,-439 583.5,-439 "/>
<text text-anchor="start" x="586.5" y="-425.8" font-family="Times New Roman,serif" font-style="italic" font-size="14.00" fill="red">graphs/GraphGenerator</text>
<text text-anchor="start" x="599.5" y="-411.8" font-family="Times New Roman,serif" font-size="14.00">IGraphFileGenerator</text>
<polyline fill="none" stroke="black" points="583.5,-373 731.5,-373 "/>
<polyline fill="none" stroke="black" points="731.5,-405 583.5,-405 "/>
<text text-anchor="start" x="602" y="-392.8" font-family="Times New Roman,serif" font-style="italic" font-size="14.00" fill="red">dep&#45;graph</text>
<text text-anchor="start" x="585.5" y="-378.8" font-family="Times New Roman,serif" font-size="14.00">ProgramOptions</text>
<polyline fill="none" stroke="black" points="583.5,-327 731.5,-327 "/>
<polyline fill="none" stroke="black" points="731.5,-373 583.5,-373 "/>
<text text-anchor="start" x="585.5" y="-360.8" font-family="Times New Roman,serif" font-style="italic" font-size="14.00" fill="red">ast/SharedInterfaces</text>
<text text-anchor="start" x="613" y="-346.8" font-family="Times New Roman,serif" font-size="14.00">ClassDetail</text>
<text text-anchor="start" x="613.5" y="-332.8" font-family="Times New Roman,serif" font-size="14.00">ImportInfo</text>
<polygon fill="none" stroke="black" points="582.5,-326 582.5,-514 732.5,-514 732.5,-326 582.5,-326"/>
</g>
<!-- graphs/GraphBase -->
<g id="node4" class="node">
<title>graphs/GraphBase</title>
<g id="a_node4_1"><a xlink:href="tsdocs\modules\graphs_GraphBase.html" xlink:title="&lt;TABLE&gt;" target="_blank">
<polygon fill="lightblue" stroke="transparent" points="412.5,-218 412.5,-237 534.5,-237 534.5,-218 412.5,-218"/>
<text text-anchor="start" x="415.5" y="-224.8" font-family="Times New Roman,serif" font-weight="bold" text-decoration="underline" font-size="14.00">graphs/GraphBase</text>
</a>
</g>
<polyline fill="none" stroke="black" points="412.5,-197 534.5,-197 "/>
<polyline fill="none" stroke="black" points="534.5,-218 412.5,-218 "/>
<text text-anchor="start" x="415.5" y="-203.8" font-family="Times New Roman,serif" font-size="14.00">GraphBase</text>
<polyline fill="none" stroke="black" points="412.5,-151 534.5,-151 "/>
<polyline fill="none" stroke="black" points="534.5,-197 412.5,-197 "/>
<text text-anchor="start" x="414.5" y="-184.8" font-family="Times New Roman,serif" font-style="italic" font-size="14.00" fill="red">ast/SharedInterfaces</text>
<text text-anchor="start" x="442.5" y="-170.8" font-family="Times New Roman,serif" font-size="14.00">ImportInfo</text>
<text text-anchor="start" x="440" y="-156.8" font-family="Times New Roman,serif" font-size="14.00">ModuleInfo</text>
<polyline fill="none" stroke="black" points="412.5,-91 534.5,-91 "/>
<polyline fill="none" stroke="black" points="534.5,-151 412.5,-151 "/>
<text text-anchor="start" x="426" y="-138.8" font-family="Times New Roman,serif" font-style="italic" font-size="14.00" fill="red">utils/file&#45;utils</text>
<text text-anchor="start" x="436" y="-124.8" font-family="Times New Roman,serif" font-size="14.00">cleanPath</text>
<text text-anchor="start" x="426.5" y="-110.8" font-family="Times New Roman,serif" font-style="italic" font-size="14.00" fill="red">utils/list&#45;utils</text>
<text text-anchor="start" x="414.5" y="-96.8" font-family="Times New Roman,serif" font-size="14.00">getNodeModules</text>
<polygon fill="none" stroke="black" points="411.5,-90 411.5,-238 535.5,-238 535.5,-90 411.5,-90"/>
</g>
<!-- graphs/ClassDiagram&#45;&gt;graphs/GraphBase -->
<g id="edge3" class="edge">
<title>graphs/ClassDiagram&#45;&gt;graphs/GraphBase</title>
<path fill="none" stroke="black" d="M595.97,-321.76C586.04,-306.92 575.67,-291.93 565.5,-278 558.87,-268.91 551.76,-259.57 544.55,-250.34"/>
<polygon fill="black" stroke="black" points="547.12,-247.96 538.19,-242.27 541.62,-252.29 547.12,-247.96"/>
</g>
<!-- graphs/GraphGenerator -->
<g id="node6" class="node">
<title>graphs/GraphGenerator</title>
<g id="a_node6_2"><a xlink:href="tsdocs\modules\graphs_GraphGenerator.html" xlink:title="&lt;TABLE&gt;" target="_blank">
<polygon fill="lightblue" stroke="transparent" points="592.5,-165 592.5,-184 746.5,-184 746.5,-165 592.5,-165"/>
<text text-anchor="start" x="594.5" y="-171.8" font-family="Times New Roman,serif" font-weight="bold" text-decoration="underline" font-size="14.00">graphs/GraphGenerator</text>
</a>
</g>
<polyline fill="none" stroke="black" points="592.5,-144 746.5,-144 "/>
<polyline fill="none" stroke="black" points="746.5,-165 592.5,-165 "/>
<text text-anchor="start" x="595.5" y="-150.8" font-family="Times New Roman,serif" font-size="14.00">IGraphFileGenerator</text>
<polygon fill="none" stroke="black" points="591.5,-143 591.5,-185 747.5,-185 747.5,-143 591.5,-143"/>
</g>
<!-- graphs/ClassDiagram&#45;&gt;graphs/GraphGenerator -->
<g id="edge4" class="edge">
<title>graphs/ClassDiagram&#45;&gt;graphs/GraphGenerator</title>
<path fill="none" stroke="black" d="M662.09,-321.89C664.12,-278.79 666.39,-230.83 667.87,-199.41"/>
<polygon fill="black" stroke="black" points="671.39,-199.18 668.36,-189.03 664.4,-198.85 671.39,-199.18"/>
</g>
<!-- graphs/ExportGraph -->
<g id="node2" class="node">
<title>graphs/ExportGraph</title>
<g id="a_node2_3"><a xlink:href="tsdocs\modules\graphs_ExportGraph.html" xlink:title="&lt;TABLE&gt;" target="_blank">
<polygon fill="lightblue" stroke="transparent" points="767.5,-538 767.5,-557 915.5,-557 915.5,-538 767.5,-538"/>
<text text-anchor="start" x="777.5" y="-544.8" font-family="Times New Roman,serif" font-weight="bold" text-decoration="underline" font-size="14.00">graphs/ExportGraph</text>
</a>
</g>
<polyline fill="none" stroke="black" points="767.5,-517 915.5,-517 "/>
<polyline fill="none" stroke="black" points="915.5,-538 767.5,-538 "/>
<text text-anchor="start" x="770.5" y="-523.8" font-family="Times New Roman,serif" font-size="14.00">ExportGraph</text>
<polyline fill="none" stroke="black" points="767.5,-483 915.5,-483 "/>
<polyline fill="none" stroke="black" points="915.5,-517 767.5,-517 "/>
<text text-anchor="start" x="770.5" y="-503.8" font-family="Times New Roman,serif" font-style="italic" font-size="14.00" fill="red">graphs/GraphBase</text>
<text text-anchor="start" x="794.5" y="-489.8" font-family="Times New Roman,serif" font-size="14.00">GraphBase</text>
<polyline fill="none" stroke="black" points="767.5,-449 915.5,-449 "/>
<polyline fill="none" stroke="black" points="915.5,-483 767.5,-483 "/>
<text text-anchor="start" x="770.5" y="-469.8" font-family="Times New Roman,serif" font-style="italic" font-size="14.00" fill="red">graphs/GraphGenerator</text>
<text text-anchor="start" x="783.5" y="-455.8" font-family="Times New Roman,serif" font-size="14.00">IGraphFileGenerator</text>
<polyline fill="none" stroke="black" points="767.5,-417 915.5,-417 "/>
<polyline fill="none" stroke="black" points="915.5,-449 767.5,-449 "/>
<text text-anchor="start" x="786" y="-436.8" font-family="Times New Roman,serif" font-style="italic" font-size="14.00" fill="red">dep&#45;graph</text>
<text text-anchor="start" x="769.5" y="-422.8" font-family="Times New Roman,serif" font-size="14.00">ProgramOptions</text>
<polyline fill="none" stroke="black" points="767.5,-357 915.5,-357 "/>
<polyline fill="none" stroke="black" points="915.5,-417 767.5,-417 "/>
<text text-anchor="start" x="769.5" y="-404.8" font-family="Times New Roman,serif" font-style="italic" font-size="14.00" fill="red">ast/SharedInterfaces</text>
<text text-anchor="start" x="797.5" y="-390.8" font-family="Times New Roman,serif" font-size="14.00">ImportInfo</text>
<text text-anchor="start" x="797.5" y="-376.8" font-family="Times New Roman,serif" font-size="14.00">ExportInfo</text>
<text text-anchor="start" x="795" y="-362.8" font-family="Times New Roman,serif" font-size="14.00">ModuleInfo</text>
<polyline fill="none" stroke="black" points="767.5,-283 915.5,-283 "/>
<polyline fill="none" stroke="black" points="915.5,-357 767.5,-357 "/>
<text text-anchor="start" x="779.5" y="-344.8" font-family="Times New Roman,serif" font-style="italic" font-size="14.00" fill="red">utils/file&#45;utils</text>
<text text-anchor="start" x="770.5" y="-330.8" font-family="Times New Roman,serif" font-size="14.00">getModuleName</text>
<text text-anchor="start" x="769.5" y="-316.8" font-family="Times New Roman,serif" font-size="14.00">moduleFileName</text>
<text text-anchor="start" x="780" y="-302.8" font-family="Times New Roman,serif" font-style="italic" font-size="14.00" fill="red">utils/list&#45;utils</text>
<text text-anchor="start" x="771.5" y="-288.8" font-family="Times New Roman,serif" font-size="14.00">getExportedList</text>
<polygon fill="none" stroke="black" points="766.5,-282 766.5,-558 916.5,-558 916.5,-282 766.5,-282"/>
</g>
<!-- graphs/ExportGraph&#45;node_modules -->
<g id="node3" class="node">
<title>graphs/ExportGraph&#45;node_modules</title>
<polygon fill="lightgrey" stroke="transparent" points="795.5,-165 795.5,-184 887.5,-184 887.5,-165 795.5,-165"/>
<text text-anchor="start" x="797.5" y="-171.8" font-family="Times New Roman,serif" font-weight="bold" font-size="14.00">node_modules</text>
<polyline fill="none" stroke="black" points="887.5,-165 795.5,-165 "/>
<text text-anchor="start" x="798.5" y="-151.8" font-family="Times New Roman,serif" font-style="italic" font-size="14.00" fill="red">path</text>
<text text-anchor="start" x="825.5" y="-151.8" font-family="Times New Roman,serif" font-size="14.00"> (path)</text>
<polygon fill="none" stroke="black" points="794.5,-143 794.5,-185 888.5,-185 888.5,-143 794.5,-143"/>
</g>
<!-- graphs/ExportGraph&#45;&gt;graphs/ExportGraph&#45;node_modules -->
<g id="edge1" class="edge">
<title>graphs/ExportGraph&#45;&gt;graphs/ExportGraph&#45;node_modules</title>
<path fill="none" stroke="black" d="M841.5,-277.89C841.5,-248.72 841.5,-220.55 841.5,-199.65"/>
<polygon fill="black" stroke="black" points="845,-199.42 841.5,-189.42 838,-199.42 845,-199.42"/>
</g>
<!-- graphs/ExportGraph&#45;&gt;graphs/GraphBase -->
<g id="edge5" class="edge">
<title>graphs/ExportGraph&#45;&gt;graphs/GraphBase</title>
<path fill="none" stroke="black" d="M758.33,-284.56C755.46,-282.25 752.52,-280.06 749.5,-278 683.86,-233.31 646.77,-274.89 574.5,-242 566.93,-238.55 559.39,-234.45 552.05,-229.96"/>
<polygon fill="black" stroke="black" points="553.84,-226.95 543.53,-224.52 550.08,-232.85 553.84,-226.95"/>
</g>
<!-- graphs/ExportGraph&#45;&gt;graphs/GraphGenerator -->
<g id="edge6" class="edge">
<title>graphs/ExportGraph&#45;&gt;graphs/GraphGenerator</title>
<path fill="none" stroke="black" d="M758.47,-291.27C755.45,-286.79 752.46,-282.35 749.5,-278 730.81,-250.5 708.96,-219.73 692.82,-197.25"/>
<polygon fill="black" stroke="black" points="695.61,-195.14 686.93,-189.06 689.93,-199.22 695.61,-195.14"/>
</g>
<!-- graphs/GraphBase&#45;node_modules -->
<g id="node5" class="node">
<title>graphs/GraphBase&#45;node_modules</title>
<polygon fill="lightgrey" stroke="transparent" points="427.5,-26 427.5,-45 519.5,-45 519.5,-26 427.5,-26"/>
<text text-anchor="start" x="429.5" y="-32.8" font-family="Times New Roman,serif" font-weight="bold" font-size="14.00">node_modules</text>
<polyline fill="none" stroke="black" points="519.5,-26 427.5,-26 "/>
<text text-anchor="start" x="430.5" y="-12.8" font-family="Times New Roman,serif" font-style="italic" font-size="14.00" fill="red">path</text>
<text text-anchor="start" x="457.5" y="-12.8" font-family="Times New Roman,serif" font-size="14.00"> (path)</text>
<polygon fill="none" stroke="black" points="426.5,-4 426.5,-46 520.5,-46 520.5,-4 426.5,-4"/>
</g>
<!-- graphs/GraphBase&#45;&gt;graphs/GraphBase&#45;node_modules -->
<g id="edge2" class="edge">
<title>graphs/GraphBase&#45;&gt;graphs/GraphBase&#45;node_modules</title>
<path fill="none" stroke="black" d="M473.5,-85.69C473.5,-76.85 473.5,-68.2 473.5,-60.35"/>
<polygon fill="black" stroke="black" points="477,-60.21 473.5,-50.21 470,-60.21 477,-60.21"/>
</g>
<!-- graphs/NodeModulesGraph -->
<g id="node7" class="node">
<title>graphs/NodeModulesGraph</title>
<g id="a_node7_4"><a xlink:href="tsdocs\modules\graphs_NodeModulesGraph.html" xlink:title="&lt;TABLE&gt;" target="_blank">
<polygon fill="lightblue" stroke="transparent" points="9.5,-454 9.5,-473 184.5,-473 184.5,-454 9.5,-454"/>
<text text-anchor="start" x="11.5" y="-460.8" font-family="Times New Roman,serif" font-weight="bold" text-decoration="underline" font-size="14.00">graphs/NodeModulesGraph</text>
</a>
</g>
<polyline fill="none" stroke="black" points="9.5,-433 184.5,-433 "/>
<polyline fill="none" stroke="black" points="184.5,-454 9.5,-454 "/>
<text text-anchor="start" x="12.5" y="-439.8" font-family="Times New Roman,serif" font-size="14.00">NodeModulesGraph</text>
<polyline fill="none" stroke="black" points="9.5,-399 184.5,-399 "/>
<polyline fill="none" stroke="black" points="184.5,-433 9.5,-433 "/>
<text text-anchor="start" x="12.5" y="-419.8" font-family="Times New Roman,serif" font-style="italic" font-size="14.00" fill="red">graphs/GraphBase</text>
<text text-anchor="start" x="36.5" y="-405.8" font-family="Times New Roman,serif" font-size="14.00">GraphBase</text>
<polyline fill="none" stroke="black" points="9.5,-367 184.5,-367 "/>
<polyline fill="none" stroke="black" points="184.5,-399 9.5,-399 "/>
<text text-anchor="start" x="11.5" y="-386.8" font-family="Times New Roman,serif" font-style="italic" font-size="14.00" fill="red">ast/SharedInterfaces</text>
<text text-anchor="start" x="39.5" y="-372.8" font-family="Times New Roman,serif" font-size="14.00">ImportInfo</text>
<polygon fill="none" stroke="black" points="8,-366 8,-474 185,-474 185,-366 8,-366"/>
</g>
<!-- graphs/NodeModulesGraph&#45;&gt;graphs/GraphBase -->
<g id="edge7" class="edge">
<title>graphs/NodeModulesGraph&#45;&gt;graphs/GraphBase</title>
<path fill="none" stroke="black" d="M129,-361.67C147.33,-333.45 172.38,-300.71 201.5,-278 258.68,-233.42 335.97,-203.55 393.54,-185.78"/>
<polygon fill="black" stroke="black" points="394.77,-189.07 403.33,-182.82 392.74,-182.37 394.77,-189.07"/>
</g>
<!-- graphs/PackageGraph -->
<g id="node8" class="node">
<title>graphs/PackageGraph</title>
<g id="a_node8_5"><a xlink:href="tsdocs\modules\graphs_PackageGraph.html" xlink:title="&lt;TABLE&gt;" target="_blank">
<polygon fill="lightblue" stroke="transparent" points="220.5,-461 220.5,-480 363.5,-480 363.5,-461 220.5,-461"/>
<text text-anchor="start" x="222.5" y="-467.8" font-family="Times New Roman,serif" font-weight="bold" text-decoration="underline" font-size="14.00">graphs/PackageGraph</text>
</a>
</g>
<polyline fill="none" stroke="black" points="220.5,-440 363.5,-440 "/>
<polyline fill="none" stroke="black" points="363.5,-461 220.5,-461 "/>
<text text-anchor="start" x="223.5" y="-446.8" font-family="Times New Roman,serif" font-size="14.00">PackageGraph</text>
<polyline fill="none" stroke="black" points="220.5,-406 363.5,-406 "/>
<polyline fill="none" stroke="black" points="363.5,-440 220.5,-440 "/>
<text text-anchor="start" x="223.5" y="-426.8" font-family="Times New Roman,serif" font-style="italic" font-size="14.00" fill="red">graphs/GraphBase</text>
<text text-anchor="start" x="247.5" y="-412.8" font-family="Times New Roman,serif" font-size="14.00">GraphBase</text>
<polyline fill="none" stroke="black" points="220.5,-360 363.5,-360 "/>
<polyline fill="none" stroke="black" points="363.5,-406 220.5,-406 "/>
<text text-anchor="start" x="222.5" y="-393.8" font-family="Times New Roman,serif" font-style="italic" font-size="14.00" fill="red">ast/SharedInterfaces</text>
<text text-anchor="start" x="250.5" y="-379.8" font-family="Times New Roman,serif" font-size="14.00">ImportInfo</text>
<text text-anchor="start" x="248" y="-365.8" font-family="Times New Roman,serif" font-size="14.00">ModuleInfo</text>
<polygon fill="none" stroke="black" points="219,-359 219,-481 364,-481 364,-359 219,-359"/>
</g>
<!-- graphs/PackageGraph&#45;&gt;graphs/GraphBase -->
<g id="edge8" class="edge">
<title>graphs/PackageGraph&#45;&gt;graphs/GraphBase</title>
<path fill="none" stroke="black" d="M330.3,-354.8C345.64,-330.34 363.81,-302.48 381.5,-278 388.09,-268.88 395.17,-259.52 402.36,-250.28"/>
<polygon fill="black" stroke="black" points="405.28,-252.22 408.71,-242.19 399.78,-247.9 405.28,-252.22"/>
</g>
<!-- graphs/RelationsGraph -->
<g id="node9" class="node">
<title>graphs/RelationsGraph</title>
<g id="a_node9_6"><a xlink:href="tsdocs\modules\graphs_RelationsGraph.html" xlink:title="&lt;TABLE&gt;" target="_blank">
<polygon fill="lightblue" stroke="transparent" points="399.5,-491 399.5,-510 547.5,-510 547.5,-491 399.5,-491"/>
<text text-anchor="start" x="401.5" y="-497.8" font-family="Times New Roman,serif" font-weight="bold" text-decoration="underline" font-size="14.00">graphs/RelationsGraph</text>
</a>
</g>
<polyline fill="none" stroke="black" points="399.5,-470 547.5,-470 "/>
<polyline fill="none" stroke="black" points="547.5,-491 399.5,-491 "/>
<text text-anchor="start" x="402.5" y="-476.8" font-family="Times New Roman,serif" font-size="14.00">RelationsGraph</text>
<polyline fill="none" stroke="black" points="399.5,-436 547.5,-436 "/>
<polyline fill="none" stroke="black" points="547.5,-470 399.5,-470 "/>
<text text-anchor="start" x="402.5" y="-456.8" font-family="Times New Roman,serif" font-style="italic" font-size="14.00" fill="red">graphs/GraphBase</text>
<text text-anchor="start" x="426.5" y="-442.8" font-family="Times New Roman,serif" font-size="14.00">GraphBase</text>
<polyline fill="none" stroke="black" points="399.5,-390 547.5,-390 "/>
<polyline fill="none" stroke="black" points="547.5,-436 399.5,-436 "/>
<text text-anchor="start" x="401.5" y="-423.8" font-family="Times New Roman,serif" font-style="italic" font-size="14.00" fill="red">ast/SharedInterfaces</text>
<text text-anchor="start" x="429.5" y="-409.8" font-family="Times New Roman,serif" font-size="14.00">ImportInfo</text>
<text text-anchor="start" x="427" y="-395.8" font-family="Times New Roman,serif" font-size="14.00">ModuleInfo</text>
<polyline fill="none" stroke="black" points="399.5,-330 547.5,-330 "/>
<polyline fill="none" stroke="black" points="547.5,-390 399.5,-390 "/>
<text text-anchor="start" x="410.5" y="-377.8" font-family="Times New Roman,serif" font-style="italic" font-size="14.00" fill="red">utils/file&#45;utils</text>
<text text-anchor="start" x="401.5" y="-363.8" font-family="Times New Roman,serif" font-size="14.00">getModuleName</text>
<text text-anchor="start" x="411" y="-349.8" font-family="Times New Roman,serif" font-style="italic" font-size="14.00" fill="red">utils/list&#45;utils</text>
<text text-anchor="start" x="406" y="-335.8" font-family="Times New Roman,serif" font-size="14.00">getUsedByList</text>
<polygon fill="none" stroke="black" points="398.5,-329 398.5,-511 548.5,-511 548.5,-329 398.5,-329"/>
</g>
<!-- graphs/RelationsGraph&#45;&gt;graphs/GraphBase -->
<g id="edge9" class="edge">
<title>graphs/RelationsGraph&#45;&gt;graphs/GraphBase</title>
<path fill="none" stroke="black" d="M473.5,-324.78C473.5,-301.04 473.5,-275.67 473.5,-252.29"/>
<polygon fill="black" stroke="black" points="477,-252.05 473.5,-242.05 470,-252.05 477,-252.05"/>
</g>
</g>
</svg>
