<?xml version="1.0" encoding="UTF-8" standalone="no"?>
<!DOCTYPE svg PUBLIC "-//W3C//DTD SVG 1.1//EN"
 "http://www.w3.org/Graphics/SVG/1.1/DTD/svg11.dtd">
<!-- Generated by graphviz version 3.0.0 (20220226.1711)
 -->
<!-- Pages: 1 -->
<svg width="1568pt" height="519pt"
 viewBox="0.00 0.00 1568.00 519.00" xmlns="http://www.w3.org/2000/svg" xmlns:xlink="http://www.w3.org/1999/xlink">
<g id="graph0" class="graph" transform="scale(1 1) rotate(0) translate(4 515)">
<polygon fill="white" stroke="transparent" points="-4,4 -4,-515 1564,-515 1564,4 -4,4"/>
<text text-anchor="middle" x="780" y="-495.8" font-family="Times New Roman,serif" font-size="14.00">graphs Class Diagram</text>
<!-- ClassDiagram -->
<g id="node1" class="node">
<title>ClassDiagram</title>
<polygon fill="lightblue" stroke="transparent" points="1283,-449.5 1283,-468.5 1551,-468.5 1551,-449.5 1283,-449.5"/>
<text text-anchor="start" x="1285" y="-456.3" font-family="Times New Roman,serif" font-weight="bold" font-size="14.00">ClassDiagram : GraphBase</text>
<text text-anchor="start" x="1318" y="-437.3" font-family="Times New Roman,serif" font-weight="bold" font-size="14.00">properties</text>
<text text-anchor="start" x="1285" y="-423.3" font-family="Times New Roman,serif" font-size="14.00">+ declarationList: array</text>
<text text-anchor="start" x="1391" y="-405.3" font-family="Times New Roman,serif" font-weight="bold" font-size="14.00">methods</text>
<text text-anchor="start" x="1285" y="-391.3" font-family="Times New Roman,serif" font-size="14.00">+ constructor(dependencyList, declarationList)</text>
<text text-anchor="start" x="1376" y="-377.3" font-family="Times New Roman,serif" font-size="14.00">+ generate(dir)</text>
<text text-anchor="start" x="1332.5" y="-363.3" font-family="Times New Roman,serif" font-size="14.00">+ createClassNode(classItem)</text>
<text text-anchor="start" x="1314" y="-349.3" font-family="Times New Roman,serif" font-size="14.00">+ createInterfaceNode(interfaceItem)</text>
<polygon fill="none" stroke="black" points="1282,-343 1282,-470 1552,-470 1552,-343 1282,-343"/>
</g>
<!-- GraphBase -->
<g id="node2" class="node">
<title>GraphBase</title>
<polygon fill="lightblue" stroke="transparent" points="574,-264.5 574,-283.5 786,-283.5 786,-264.5 574,-264.5"/>
<text text-anchor="start" x="576" y="-271.3" font-family="Times New Roman,serif" font-weight="bold" font-size="14.00">GraphBase</text>
<text text-anchor="start" x="614" y="-252.3" font-family="Times New Roman,serif" font-weight="bold" font-size="14.00">properties</text>
<text text-anchor="start" x="577.5" y="-238.3" font-family="Times New Roman,serif" font-size="14.00">+ dependencyList: array</text>
<text text-anchor="start" x="585.5" y="-224.3" font-family="Times New Roman,serif" font-size="14.00">+ moduleArray: array</text>
<text text-anchor="start" x="576" y="-210.3" font-family="Times New Roman,serif" font-size="14.00">+ diagramsHTML: string</text>
<text text-anchor="start" x="654" y="-192.3" font-family="Times New Roman,serif" font-weight="bold" font-size="14.00">methods</text>
<text text-anchor="start" x="576" y="-178.3" font-family="Times New Roman,serif" font-size="14.00">+ constructor(depList, moduleArray)</text>
<text text-anchor="start" x="638.5" y="-164.3" font-family="Times New Roman,serif" font-size="14.00">+ digraph(title)</text>
<text text-anchor="start" x="632.5" y="-150.3" font-family="Times New Roman,serif" font-size="14.00">+ nodeStart(title)</text>
<text text-anchor="start" x="620" y="-136.3" font-family="Times New Roman,serif" font-size="14.00">+ makeSafeTitle(title)</text>
<text text-anchor="start" x="638.5" y="-122.3" font-family="Times New Roman,serif" font-size="14.00">+ nodeFinish()</text>
<text text-anchor="start" x="619" y="-108.3" font-family="Times New Roman,serif" font-size="14.00">+ recordDigraph(title)</text>
<text text-anchor="start" x="601.5" y="-94.3" font-family="Times New Roman,serif" font-size="14.00">+ getDependsOnMod(mod)</text>
<text text-anchor="start" x="613.5" y="-80.3" font-family="Times New Roman,serif" font-size="14.00">+ getNodeModuleList()</text>
<text text-anchor="start" x="606" y="-66.3" font-family="Times New Roman,serif" font-size="14.00">+ filterModulesForDir(dir)</text>
<text text-anchor="start" x="639" y="-52.3" font-family="Times New Roman,serif" font-size="14.00">+ uniqueDirs()</text>
<text text-anchor="start" x="617.5" y="-38.3" font-family="Times New Roman,serif" font-size="14.00">+ isNodeModule(dep)</text>
<text text-anchor="start" x="612" y="-24.3" font-family="Times New Roman,serif" font-size="14.00">+ inSameDirectory(dep)</text>
<text text-anchor="start" x="622.5" y="-10.3" font-family="Times New Roman,serif" font-size="14.00">+ cleanDirPath(root)</text>
<polygon fill="none" stroke="black" points="573,-4 573,-285 787,-285 787,-4 573,-4"/>
</g>
<!-- ClassDiagram&#45;&gt;GraphBase -->
<g id="edge1" class="edge">
<title>ClassDiagram&#45;&gt;GraphBase</title>
<path fill="none" stroke="black" d="M1296.47,-338.96C1285.95,-333.98 1275.36,-329.25 1265,-325 1213.48,-303.87 1198.27,-305.21 1145,-289 1029.66,-253.9 898.42,-213.35 804.85,-184.32"/>
<polygon fill="none" stroke="black" points="805.65,-180.9 795.06,-181.28 803.57,-187.59 805.65,-180.9"/>
</g>
<!-- IGraphFileGenerator -->
<g id="node3" class="node">
<title>IGraphFileGenerator</title>
<polygon fill="lightyellow" stroke="transparent" points="1163,-144.5 1163,-176.5 1300,-176.5 1300,-144.5 1163,-144.5"/>
<text text-anchor="start" x="1187" y="-164.3" font-family="Times New Roman,serif" font-style="italic" font-size="14.00">&lt;&lt;interface&gt;&gt;</text>
<text text-anchor="start" x="1165" y="-150.3" font-family="Times New Roman,serif" font-weight="bold" font-size="14.00">IGraphFileGenerator</text>
<text text-anchor="start" x="1174" y="-132.3" font-family="Times New Roman,serif" font-weight="bold" font-size="14.00">methods</text>
<text text-anchor="start" x="1165" y="-118.3" font-family="Times New Roman,serif" font-size="14.00">generate(dir)</text>
<polygon fill="none" stroke="black" points="1161.5,-111.5 1161.5,-177.5 1300.5,-177.5 1300.5,-111.5 1161.5,-111.5"/>
</g>
<!-- ClassDiagram&#45;&gt;IGraphFileGenerator -->
<g id="edge2" class="edge">
<title>ClassDiagram&#45;&gt;IGraphFileGenerator</title>
<path fill="none" stroke="black" stroke-dasharray="5,2" d="M1369.34,-338.88C1335.81,-292.01 1291.86,-230.58 1262.59,-189.66"/>
<polygon fill="none" stroke="black" points="1265.43,-187.61 1256.76,-181.51 1259.73,-191.68 1265.43,-187.61"/>
</g>
<!-- ExportGraph -->
<g id="node4" class="node">
<title>ExportGraph</title>
<polygon fill="lightblue" stroke="transparent" points="846,-463.5 846,-482.5 1247,-482.5 1247,-463.5 846,-463.5"/>
<text text-anchor="start" x="848" y="-470.3" font-family="Times New Roman,serif" font-weight="bold" font-size="14.00">ExportGraph : GraphBase</text>
<text text-anchor="start" x="877" y="-451.3" font-family="Times New Roman,serif" font-weight="bold" font-size="14.00">properties</text>
<text text-anchor="start" x="856.5" y="-437.3" font-family="Times New Roman,serif" font-size="14.00">+ exportList: array</text>
<text text-anchor="start" x="848" y="-423.3" font-family="Times New Roman,serif" font-size="14.00">+ typedocPath: string</text>
<text text-anchor="start" x="1020.5" y="-405.3" font-family="Times New Roman,serif" font-weight="bold" font-size="14.00">methods</text>
<text text-anchor="start" x="848" y="-391.3" font-family="Times New Roman,serif" font-size="14.00">+ constructor(dependencyList, exportList, moduleArray, typedocPath)</text>
<text text-anchor="start" x="1005.5" y="-377.3" font-family="Times New Roman,serif" font-size="14.00">+ generate(dir)</text>
<text text-anchor="start" x="937.5" y="-363.3" font-family="Times New Roman,serif" font-size="14.00">+ createModuleNode(mod, exportList)</text>
<text text-anchor="start" x="892.5" y="-349.3" font-family="Times New Roman,serif" font-size="14.00">&#45; createNodeModulesRelations(modName, nodeMods)</text>
<text text-anchor="start" x="971.5" y="-335.3" font-family="Times New Roman,serif" font-size="14.00">&#45; createRelations(modules)</text>
<polygon fill="none" stroke="black" points="844.5,-329 844.5,-484 1247.5,-484 1247.5,-329 844.5,-329"/>
</g>
<!-- ExportGraph&#45;&gt;GraphBase -->
<g id="edge3" class="edge">
<title>ExportGraph&#45;&gt;GraphBase</title>
<path fill="none" stroke="black" d="M932.2,-324.66C891.38,-295.66 845.17,-262.83 803.56,-233.28"/>
<polygon fill="none" stroke="black" points="805.48,-230.35 795.3,-227.41 801.43,-236.05 805.48,-230.35"/>
</g>
<!-- ExportGraph&#45;&gt;IGraphFileGenerator -->
<g id="edge4" class="edge">
<title>ExportGraph&#45;&gt;IGraphFileGenerator</title>
<path fill="none" stroke="black" stroke-dasharray="5,2" d="M1103.52,-324.66C1135.04,-280.36 1172.92,-227.13 1199.15,-190.26"/>
<polygon fill="none" stroke="black" points="1202.28,-191.9 1205.23,-181.72 1196.58,-187.84 1202.28,-191.9"/>
</g>
<!-- NodeModulesGraph -->
<g id="node5" class="node">
<title>NodeModulesGraph</title>
<polygon fill="lightblue" stroke="transparent" points="9,-426.5 9,-445.5 219,-445.5 219,-426.5 9,-426.5"/>
<text text-anchor="start" x="11" y="-433.3" font-family="Times New Roman,serif" font-weight="bold" font-size="14.00">NodeModulesGraph : GraphBase</text>
<text text-anchor="start" x="73" y="-414.3" font-family="Times New Roman,serif" font-weight="bold" font-size="14.00">methods</text>
<text text-anchor="start" x="11.5" y="-400.3" font-family="Times New Roman,serif" font-size="14.00">+ constructor(dependencyList)</text>
<text text-anchor="start" x="65.5" y="-386.3" font-family="Times New Roman,serif" font-size="14.00">+ generate()</text>
<text text-anchor="start" x="11" y="-372.3" font-family="Times New Roman,serif" font-size="14.00">+ createNodeModulesSection()</text>
<polygon fill="none" stroke="black" points="8,-366 8,-447 220,-447 220,-366 8,-366"/>
</g>
<!-- NodeModulesGraph&#45;&gt;GraphBase -->
<g id="edge5" class="edge">
<title>NodeModulesGraph&#45;&gt;GraphBase</title>
<path fill="none" stroke="black" d="M175.47,-361.92C194.7,-349.2 216.31,-335.83 237,-325 340.85,-270.64 464.96,-221.62 555.37,-188.6"/>
<polygon fill="none" stroke="black" points="556.64,-191.86 564.84,-185.15 554.24,-185.28 556.64,-191.86"/>
</g>
<!-- PackageGraph -->
<g id="node6" class="node">
<title>PackageGraph</title>
<polygon fill="lightblue" stroke="transparent" points="256,-433.5 256,-452.5 515,-452.5 515,-433.5 256,-433.5"/>
<text text-anchor="start" x="258" y="-440.3" font-family="Times New Roman,serif" font-weight="bold" font-size="14.00">PackageGraph : GraphBase</text>
<text text-anchor="start" x="359.5" y="-421.3" font-family="Times New Roman,serif" font-weight="bold" font-size="14.00">methods</text>
<text text-anchor="start" x="258" y="-407.3" font-family="Times New Roman,serif" font-size="14.00">+ constructor(moduleArray, dependencyList)</text>
<text text-anchor="start" x="352" y="-393.3" font-family="Times New Roman,serif" font-size="14.00">+ generate()</text>
<text text-anchor="start" x="298" y="-379.3" font-family="Times New Roman,serif" font-size="14.00">&#45; createPackageDependencies()</text>
<text text-anchor="start" x="318.5" y="-365.3" font-family="Times New Roman,serif" font-size="14.00">&#45; createPackageNodes()</text>
<polygon fill="none" stroke="black" points="254.5,-359 254.5,-454 515.5,-454 515.5,-359 254.5,-359"/>
</g>
<!-- PackageGraph&#45;&gt;GraphBase -->
<g id="edge6" class="edge">
<title>PackageGraph&#45;&gt;GraphBase</title>
<path fill="none" stroke="black" d="M442.58,-354.75C475.2,-326 517.3,-288.89 556.98,-253.93"/>
<polygon fill="none" stroke="black" points="559.69,-256.2 564.88,-246.96 555.06,-250.95 559.69,-256.2"/>
</g>
<!-- RelationsGraph -->
<g id="node7" class="node">
<title>RelationsGraph</title>
<polygon fill="lightblue" stroke="transparent" points="551,-456.5 551,-475.5 810,-475.5 810,-456.5 551,-456.5"/>
<text text-anchor="start" x="553" y="-463.3" font-family="Times New Roman,serif" font-weight="bold" font-size="14.00">RelationsGraph : GraphBase</text>
<text text-anchor="start" x="575.5" y="-444.3" font-family="Times New Roman,serif" font-weight="bold" font-size="14.00">properties</text>
<text text-anchor="start" x="553" y="-430.3" font-family="Times New Roman,serif" font-size="14.00">+ nodeMods: array</text>
<text text-anchor="start" x="654.5" y="-412.3" font-family="Times New Roman,serif" font-weight="bold" font-size="14.00">methods</text>
<text text-anchor="start" x="553" y="-398.3" font-family="Times New Roman,serif" font-size="14.00">+ constructor(dependencyList, moduleArray)</text>
<text text-anchor="start" x="647" y="-384.3" font-family="Times New Roman,serif" font-size="14.00">+ generate()</text>
<text text-anchor="start" x="628" y="-370.3" font-family="Times New Roman,serif" font-size="14.00">&#45; getUsedBy(mod)</text>
<text text-anchor="start" x="582.5" y="-356.3" font-family="Times New Roman,serif" font-size="14.00">&#45; createModuleRelationNode(mod)</text>
<text text-anchor="start" x="594.5" y="-342.3" font-family="Times New Roman,serif" font-size="14.00">&#45; createNodeModulesSection()</text>
<polygon fill="none" stroke="black" points="549.5,-336 549.5,-477 810.5,-477 810.5,-336 549.5,-336"/>
</g>
<!-- RelationsGraph&#45;&gt;GraphBase -->
<g id="edge7" class="edge">
<title>RelationsGraph&#45;&gt;GraphBase</title>
<path fill="none" stroke="black" d="M680,-331.69C680,-321.46 680,-310.65 680,-299.61"/>
<polygon fill="none" stroke="black" points="683.5,-299.41 680,-289.41 676.5,-299.41 683.5,-299.41"/>
</g>
</g>
</svg>
