<?xml version="1.0" encoding="UTF-8" standalone="no"?>
<!DOCTYPE svg PUBLIC "-//W3C//DTD SVG 1.1//EN"
 "http://www.w3.org/Graphics/SVG/1.1/DTD/svg11.dtd">
<!-- Generated by graphviz version 3.0.0 (20220226.1711)
 -->
<!-- Pages: 1 -->
<svg width="1593pt" height="527pt"
 viewBox="0.00 0.00 1593.00 527.00" xmlns="http://www.w3.org/2000/svg" xmlns:xlink="http://www.w3.org/1999/xlink">
<g id="graph0" class="graph" transform="scale(1 1) rotate(0) translate(4 523)">
<polygon fill="white" stroke="transparent" points="-4,4 -4,-523 1589,-523 1589,4 -4,4"/>
<text text-anchor="middle" x="792.5" y="-503.8" font-family="Times New Roman,serif" font-size="14.00">graphs Class Diagram</text>
<!-- ClassDiagram -->
<g id="node1" class="node">
<title>ClassDiagram</title>
<polygon fill="lightblue" stroke="transparent" points="1302,-457.5 1302,-476.5 1576,-476.5 1576,-457.5 1302,-457.5"/>
<text text-anchor="start" x="1304" y="-464.3" font-family="Times New Roman,serif" font-weight="bold" font-size="14.00">ClassDiagram : GraphBase</text>
<polyline fill="none" stroke="black" points="1576,-457.5 1302,-457.5 "/>
<text text-anchor="start" x="1305" y="-444.3" font-family="Times New Roman,serif" font-weight="bold" font-size="14.00">properties</text>
<text text-anchor="start" x="1305" y="-430.3" font-family="Times New Roman,serif" font-size="14.00" fill="blue">+</text>
<text text-anchor="start" x="1314" y="-430.3" font-family="Times New Roman,serif" font-size="14.00"> &#160;declarationList: array</text>
<polyline fill="none" stroke="black" points="1576,-423.5 1302,-423.5 "/>
<text text-anchor="start" x="1305" y="-410.3" font-family="Times New Roman,serif" font-weight="bold" font-size="14.00">methods</text>
<text text-anchor="start" x="1305" y="-396.3" font-family="Times New Roman,serif" font-size="14.00" fill="blue">+</text>
<text text-anchor="start" x="1314" y="-396.3" font-family="Times New Roman,serif" font-size="14.00"> &#160;constructor(dependencyList, declarationList)</text>
<text text-anchor="start" x="1305" y="-382.3" font-family="Times New Roman,serif" font-size="14.00" fill="blue">+</text>
<text text-anchor="start" x="1314" y="-382.3" font-family="Times New Roman,serif" font-size="14.00"> &#160;createClassNode(classItem)</text>
<text text-anchor="start" x="1305" y="-368.3" font-family="Times New Roman,serif" font-size="14.00" fill="blue">+</text>
<text text-anchor="start" x="1314" y="-368.3" font-family="Times New Roman,serif" font-size="14.00"> &#160;createInterfaceNode(interfaceItem)</text>
<text text-anchor="start" x="1305" y="-354.3" font-family="Times New Roman,serif" font-size="14.00" fill="blue">+</text>
<text text-anchor="start" x="1314" y="-354.3" font-family="Times New Roman,serif" font-size="14.00"> &#160;generate(dir)</text>
<polygon fill="none" stroke="black" points="1301,-347 1301,-478 1577,-478 1577,-347 1301,-347"/>
</g>
<!-- GraphBase -->
<g id="node2" class="node">
<title>GraphBase</title>
<polygon fill="lightblue" stroke="transparent" points="580,-268.5 580,-287.5 799,-287.5 799,-268.5 580,-268.5"/>
<text text-anchor="start" x="582" y="-275.3" font-family="Times New Roman,serif" font-weight="bold" font-size="14.00">GraphBase</text>
<polyline fill="none" stroke="black" points="799,-268.5 580,-268.5 "/>
<text text-anchor="start" x="583" y="-255.3" font-family="Times New Roman,serif" font-weight="bold" font-size="14.00">properties</text>
<text text-anchor="start" x="583" y="-241.3" font-family="Times New Roman,serif" font-size="14.00" fill="blue">+</text>
<text text-anchor="start" x="592" y="-241.3" font-family="Times New Roman,serif" font-size="14.00"> &#160;dependencyList: array</text>
<text text-anchor="start" x="583" y="-227.3" font-family="Times New Roman,serif" font-size="14.00" fill="blue">+</text>
<text text-anchor="start" x="592" y="-227.3" font-family="Times New Roman,serif" font-size="14.00"> &#160;diagramsHTML: string</text>
<text text-anchor="start" x="583" y="-213.3" font-family="Times New Roman,serif" font-size="14.00" fill="blue">+</text>
<text text-anchor="start" x="592" y="-213.3" font-family="Times New Roman,serif" font-size="14.00"> &#160;moduleArray: array</text>
<polyline fill="none" stroke="black" points="799,-206.5 580,-206.5 "/>
<text text-anchor="start" x="583" y="-193.3" font-family="Times New Roman,serif" font-weight="bold" font-size="14.00">methods</text>
<text text-anchor="start" x="583" y="-179.3" font-family="Times New Roman,serif" font-size="14.00" fill="blue">+</text>
<text text-anchor="start" x="592" y="-179.3" font-family="Times New Roman,serif" font-size="14.00"> &#160;cleanDirPath(root)</text>
<text text-anchor="start" x="583" y="-165.3" font-family="Times New Roman,serif" font-size="14.00" fill="blue">+</text>
<text text-anchor="start" x="592" y="-165.3" font-family="Times New Roman,serif" font-size="14.00"> &#160;constructor(depList, moduleArray)</text>
<text text-anchor="start" x="583" y="-151.3" font-family="Times New Roman,serif" font-size="14.00" fill="blue">+</text>
<text text-anchor="start" x="592" y="-151.3" font-family="Times New Roman,serif" font-size="14.00"> &#160;digraph(title)</text>
<text text-anchor="start" x="583" y="-137.3" font-family="Times New Roman,serif" font-size="14.00" fill="blue">+</text>
<text text-anchor="start" x="592" y="-137.3" font-family="Times New Roman,serif" font-size="14.00"> &#160;filterModulesForDir(dir)</text>
<text text-anchor="start" x="583" y="-123.3" font-family="Times New Roman,serif" font-size="14.00" fill="blue">+</text>
<text text-anchor="start" x="592" y="-123.3" font-family="Times New Roman,serif" font-size="14.00"> &#160;getDependsOnMod(mod)</text>
<text text-anchor="start" x="583" y="-109.3" font-family="Times New Roman,serif" font-size="14.00" fill="blue">+</text>
<text text-anchor="start" x="592" y="-109.3" font-family="Times New Roman,serif" font-size="14.00"> &#160;getNodeModuleList()</text>
<text text-anchor="start" x="583" y="-95.3" font-family="Times New Roman,serif" font-size="14.00" fill="blue">+</text>
<text text-anchor="start" x="592" y="-95.3" font-family="Times New Roman,serif" font-size="14.00"> &#160;inSameDirectory(dep)</text>
<text text-anchor="start" x="583" y="-81.3" font-family="Times New Roman,serif" font-size="14.00" fill="blue">+</text>
<text text-anchor="start" x="592" y="-81.3" font-family="Times New Roman,serif" font-size="14.00"> &#160;isNodeModule(dep)</text>
<text text-anchor="start" x="583" y="-67.3" font-family="Times New Roman,serif" font-size="14.00" fill="blue">+</text>
<text text-anchor="start" x="592" y="-67.3" font-family="Times New Roman,serif" font-size="14.00"> &#160;makeSafeTitle(title)</text>
<text text-anchor="start" x="583" y="-53.3" font-family="Times New Roman,serif" font-size="14.00" fill="blue">+</text>
<text text-anchor="start" x="592" y="-53.3" font-family="Times New Roman,serif" font-size="14.00"> &#160;nodeFinish()</text>
<text text-anchor="start" x="583" y="-39.3" font-family="Times New Roman,serif" font-size="14.00" fill="blue">+</text>
<text text-anchor="start" x="592" y="-39.3" font-family="Times New Roman,serif" font-size="14.00"> &#160;nodeStart(title)</text>
<text text-anchor="start" x="583" y="-25.3" font-family="Times New Roman,serif" font-size="14.00" fill="blue">+</text>
<text text-anchor="start" x="592" y="-25.3" font-family="Times New Roman,serif" font-size="14.00"> &#160;recordDigraph(title)</text>
<text text-anchor="start" x="583" y="-11.3" font-family="Times New Roman,serif" font-size="14.00" fill="blue">+</text>
<text text-anchor="start" x="592" y="-11.3" font-family="Times New Roman,serif" font-size="14.00"> &#160;uniqueDirs()</text>
<polygon fill="none" stroke="black" points="578.5,-4 578.5,-289 799.5,-289 799.5,-4 578.5,-4"/>
</g>
<!-- ClassDiagram&#45;&gt;GraphBase -->
<g id="edge1" class="edge">
<title>ClassDiagram&#45;&gt;GraphBase</title>
<path fill="none" stroke="black" d="M1315.25,-342.89C1304.8,-337.94 1294.29,-333.23 1284,-329 1232.51,-307.82 1217.29,-309.15 1164,-293 1046.5,-257.38 912.79,-216.38 817.24,-187"/>
<polygon fill="none" stroke="black" points="818.12,-183.61 807.53,-184.02 816.06,-190.3 818.12,-183.61"/>
</g>
<!-- IGraphFileGenerator -->
<g id="node3" class="node">
<title>IGraphFileGenerator</title>
<polygon fill="lightyellow" stroke="transparent" points="1182,-146.5 1182,-178.5 1319,-178.5 1319,-146.5 1182,-146.5"/>
<text text-anchor="start" x="1206" y="-166.3" font-family="Times New Roman,serif" font-style="italic" font-size="14.00">&lt;&lt;interface&gt;&gt;</text>
<text text-anchor="start" x="1184" y="-152.3" font-family="Times New Roman,serif" font-weight="bold" font-size="14.00">IGraphFileGenerator</text>
<text text-anchor="start" x="1184" y="-134.3" font-family="Times New Roman,serif" font-weight="bold" font-size="14.00">methods</text>
<text text-anchor="start" x="1184" y="-120.3" font-family="Times New Roman,serif" font-size="14.00">generate(dir)</text>
<polygon fill="none" stroke="black" points="1180.5,-113.5 1180.5,-179.5 1319.5,-179.5 1319.5,-113.5 1180.5,-113.5"/>
</g>
<!-- ClassDiagram&#45;&gt;IGraphFileGenerator -->
<g id="edge2" class="edge">
<title>ClassDiagram&#45;&gt;IGraphFileGenerator</title>
<path fill="none" stroke="black" stroke-dasharray="5,2" d="M1389.84,-342.83C1355.76,-295.23 1311.38,-233.24 1281.85,-191.99"/>
<polygon fill="none" stroke="black" points="1284.64,-189.87 1275.97,-183.77 1278.94,-193.94 1284.64,-189.87"/>
</g>
<!-- ExportGraph -->
<g id="node4" class="node">
<title>ExportGraph</title>
<polygon fill="lightblue" stroke="transparent" points="858,-471.5 858,-490.5 1266,-490.5 1266,-471.5 858,-471.5"/>
<text text-anchor="start" x="860" y="-478.3" font-family="Times New Roman,serif" font-weight="bold" font-size="14.00">ExportGraph : GraphBase</text>
<polyline fill="none" stroke="black" points="1266,-471.5 858,-471.5 "/>
<text text-anchor="start" x="861" y="-458.3" font-family="Times New Roman,serif" font-weight="bold" font-size="14.00">properties</text>
<text text-anchor="start" x="861" y="-444.3" font-family="Times New Roman,serif" font-size="14.00" fill="blue">+</text>
<text text-anchor="start" x="870" y="-444.3" font-family="Times New Roman,serif" font-size="14.00"> &#160;exportList: array</text>
<text text-anchor="start" x="861" y="-430.3" font-family="Times New Roman,serif" font-size="14.00" fill="blue">+</text>
<text text-anchor="start" x="870" y="-430.3" font-family="Times New Roman,serif" font-size="14.00"> &#160;typedocPath: string</text>
<polyline fill="none" stroke="black" points="1266,-423.5 858,-423.5 "/>
<text text-anchor="start" x="861" y="-410.3" font-family="Times New Roman,serif" font-weight="bold" font-size="14.00">methods</text>
<text text-anchor="start" x="861" y="-396.3" font-family="Times New Roman,serif" font-size="14.00" fill="blue">+</text>
<text text-anchor="start" x="870" y="-396.3" font-family="Times New Roman,serif" font-size="14.00"> &#160;constructor(dependencyList, exportList, moduleArray, typedocPath)</text>
<text text-anchor="start" x="861" y="-382.3" font-family="Times New Roman,serif" font-size="14.00" fill="blue">+</text>
<text text-anchor="start" x="870" y="-382.3" font-family="Times New Roman,serif" font-size="14.00"> &#160;createModuleNode(mod, exportList)</text>
<text text-anchor="start" x="861" y="-368.3" font-family="Times New Roman,serif" font-size="14.00" fill="blue">+</text>
<text text-anchor="start" x="870" y="-368.3" font-family="Times New Roman,serif" font-size="14.00"> &#160;generate(dir)</text>
<text text-anchor="start" x="861" y="-354.3" font-family="Times New Roman,serif" font-size="14.00" fill="red">&#45;</text>
<text text-anchor="start" x="866" y="-354.3" font-family="Times New Roman,serif" font-size="14.00"> &#160;createNodeModulesRelations(modName, nodeMods)</text>
<text text-anchor="start" x="861" y="-340.3" font-family="Times New Roman,serif" font-size="14.00" fill="red">&#45;</text>
<text text-anchor="start" x="866" y="-340.3" font-family="Times New Roman,serif" font-size="14.00"> &#160;createRelations(modules)</text>
<polygon fill="none" stroke="black" points="857,-333 857,-492 1267,-492 1267,-333 857,-333"/>
</g>
<!-- ExportGraph&#45;&gt;GraphBase -->
<g id="edge3" class="edge">
<title>ExportGraph&#45;&gt;GraphBase</title>
<path fill="none" stroke="black" d="M945.26,-328.87C904.19,-299.8 857.84,-267 815.97,-237.37"/>
<polygon fill="none" stroke="black" points="817.84,-234.4 807.66,-231.48 813.8,-240.12 817.84,-234.4"/>
</g>
<!-- ExportGraph&#45;&gt;IGraphFileGenerator -->
<g id="edge4" class="edge">
<title>ExportGraph&#45;&gt;IGraphFileGenerator</title>
<path fill="none" stroke="black" stroke-dasharray="5,2" d="M1120.97,-328.69C1153.2,-283.43 1191.86,-229.15 1218.4,-191.88"/>
<polygon fill="none" stroke="black" points="1221.26,-193.9 1224.21,-183.72 1215.55,-189.84 1221.26,-193.9"/>
</g>
<!-- NodeModulesGraph -->
<g id="node5" class="node">
<title>NodeModulesGraph</title>
<polygon fill="lightblue" stroke="transparent" points="9,-433.5 9,-452.5 219,-452.5 219,-433.5 9,-433.5"/>
<text text-anchor="start" x="11" y="-440.3" font-family="Times New Roman,serif" font-weight="bold" font-size="14.00">NodeModulesGraph : GraphBase</text>
<polyline fill="none" stroke="black" points="219,-433.5 9,-433.5 "/>
<text text-anchor="start" x="12" y="-420.3" font-family="Times New Roman,serif" font-weight="bold" font-size="14.00">methods</text>
<text text-anchor="start" x="12" y="-406.3" font-family="Times New Roman,serif" font-size="14.00" fill="blue">+</text>
<text text-anchor="start" x="21" y="-406.3" font-family="Times New Roman,serif" font-size="14.00"> &#160;constructor(dependencyList)</text>
<text text-anchor="start" x="12" y="-392.3" font-family="Times New Roman,serif" font-size="14.00" fill="blue">+</text>
<text text-anchor="start" x="21" y="-392.3" font-family="Times New Roman,serif" font-size="14.00"> &#160;createNodeModulesSection()</text>
<text text-anchor="start" x="12" y="-378.3" font-family="Times New Roman,serif" font-size="14.00" fill="blue">+</text>
<text text-anchor="start" x="21" y="-378.3" font-family="Times New Roman,serif" font-size="14.00"> &#160;generate()</text>
<polygon fill="none" stroke="black" points="8,-371 8,-454 220,-454 220,-371 8,-371"/>
</g>
<!-- NodeModulesGraph&#45;&gt;GraphBase -->
<g id="edge5" class="edge">
<title>NodeModulesGraph&#45;&gt;GraphBase</title>
<path fill="none" stroke="black" d="M175.01,-366.92C194.32,-353.82 216.09,-340.06 237,-329 342.24,-273.36 468.41,-224.04 560.67,-190.9"/>
<polygon fill="none" stroke="black" points="562.1,-194.11 570.34,-187.44 559.74,-187.51 562.1,-194.11"/>
</g>
<!-- PackageGraph -->
<g id="node6" class="node">
<title>PackageGraph</title>
<polygon fill="lightblue" stroke="transparent" points="256,-440.5 256,-459.5 521,-459.5 521,-440.5 256,-440.5"/>
<text text-anchor="start" x="258" y="-447.3" font-family="Times New Roman,serif" font-weight="bold" font-size="14.00">PackageGraph : GraphBase</text>
<polyline fill="none" stroke="black" points="521,-440.5 256,-440.5 "/>
<text text-anchor="start" x="259" y="-427.3" font-family="Times New Roman,serif" font-weight="bold" font-size="14.00">methods</text>
<text text-anchor="start" x="259" y="-413.3" font-family="Times New Roman,serif" font-size="14.00" fill="blue">+</text>
<text text-anchor="start" x="268" y="-413.3" font-family="Times New Roman,serif" font-size="14.00"> &#160;constructor(moduleArray, dependencyList)</text>
<text text-anchor="start" x="259" y="-399.3" font-family="Times New Roman,serif" font-size="14.00" fill="blue">+</text>
<text text-anchor="start" x="268" y="-399.3" font-family="Times New Roman,serif" font-size="14.00"> &#160;generate()</text>
<text text-anchor="start" x="259" y="-385.3" font-family="Times New Roman,serif" font-size="14.00" fill="red">&#45;</text>
<text text-anchor="start" x="264" y="-385.3" font-family="Times New Roman,serif" font-size="14.00"> &#160;createPackageDependencies()</text>
<text text-anchor="start" x="259" y="-371.3" font-family="Times New Roman,serif" font-size="14.00" fill="red">&#45;</text>
<text text-anchor="start" x="264" y="-371.3" font-family="Times New Roman,serif" font-size="14.00"> &#160;createPackageNodes()</text>
<polygon fill="none" stroke="black" points="254.5,-364 254.5,-461 521.5,-461 521.5,-364 254.5,-364"/>
</g>
<!-- PackageGraph&#45;&gt;GraphBase -->
<g id="edge6" class="edge">
<title>PackageGraph&#45;&gt;GraphBase</title>
<path fill="none" stroke="black" d="M446.75,-359.97C479.78,-331 522.34,-293.67 562.56,-258.4"/>
<polygon fill="none" stroke="black" points="565.09,-260.84 570.3,-251.61 560.47,-255.57 565.09,-260.84"/>
</g>
<!-- RelationsGraph -->
<g id="node7" class="node">
<title>RelationsGraph</title>
<polygon fill="lightblue" stroke="transparent" points="557,-464.5 557,-483.5 822,-483.5 822,-464.5 557,-464.5"/>
<text text-anchor="start" x="559" y="-471.3" font-family="Times New Roman,serif" font-weight="bold" font-size="14.00">RelationsGraph : GraphBase</text>
<polyline fill="none" stroke="black" points="822,-464.5 557,-464.5 "/>
<text text-anchor="start" x="560" y="-451.3" font-family="Times New Roman,serif" font-weight="bold" font-size="14.00">properties</text>
<text text-anchor="start" x="560" y="-437.3" font-family="Times New Roman,serif" font-size="14.00" fill="blue">+</text>
<text text-anchor="start" x="569" y="-437.3" font-family="Times New Roman,serif" font-size="14.00"> &#160;nodeMods: array</text>
<polyline fill="none" stroke="black" points="822,-430.5 557,-430.5 "/>
<text text-anchor="start" x="560" y="-417.3" font-family="Times New Roman,serif" font-weight="bold" font-size="14.00">methods</text>
<text text-anchor="start" x="560" y="-403.3" font-family="Times New Roman,serif" font-size="14.00" fill="blue">+</text>
<text text-anchor="start" x="569" y="-403.3" font-family="Times New Roman,serif" font-size="14.00"> &#160;constructor(dependencyList, moduleArray)</text>
<text text-anchor="start" x="560" y="-389.3" font-family="Times New Roman,serif" font-size="14.00" fill="blue">+</text>
<text text-anchor="start" x="569" y="-389.3" font-family="Times New Roman,serif" font-size="14.00"> &#160;generate()</text>
<text text-anchor="start" x="560" y="-375.3" font-family="Times New Roman,serif" font-size="14.00" fill="red">&#45;</text>
<text text-anchor="start" x="565" y="-375.3" font-family="Times New Roman,serif" font-size="14.00"> &#160;createModuleRelationNode(mod)</text>
<text text-anchor="start" x="560" y="-361.3" font-family="Times New Roman,serif" font-size="14.00" fill="red">&#45;</text>
<text text-anchor="start" x="565" y="-361.3" font-family="Times New Roman,serif" font-size="14.00"> &#160;createNodeModulesSection()</text>
<text text-anchor="start" x="560" y="-347.3" font-family="Times New Roman,serif" font-size="14.00" fill="red">&#45;</text>
<text text-anchor="start" x="565" y="-347.3" font-family="Times New Roman,serif" font-size="14.00"> &#160;getUsedBy(mod)</text>
<polygon fill="none" stroke="black" points="555.5,-340 555.5,-485 822.5,-485 822.5,-340 555.5,-340"/>
</g>
<!-- RelationsGraph&#45;&gt;GraphBase -->
<g id="edge7" class="edge">
<title>RelationsGraph&#45;&gt;GraphBase</title>
<path fill="none" stroke="black" d="M689,-335.85C689,-325.58 689,-314.76 689,-303.7"/>
<polygon fill="none" stroke="black" points="692.5,-303.48 689,-293.48 685.5,-303.48 692.5,-303.48"/>
</g>
</g>
</svg>
