<?xml version="1.0" encoding="UTF-8" standalone="no"?>
<!DOCTYPE svg PUBLIC "-//W3C//DTD SVG 1.1//EN"
 "http://www.w3.org/Graphics/SVG/1.1/DTD/svg11.dtd">
<!-- Generated by graphviz version 3.0.0 (20220226.1711)
 -->
<!-- Pages: 1 -->
<svg width="969pt" height="635pt"
 viewBox="0.00 0.00 968.50 635.00" xmlns="http://www.w3.org/2000/svg" xmlns:xlink="http://www.w3.org/1999/xlink">
<g id="graph0" class="graph" transform="scale(1 1) rotate(0) translate(4 631)">
<polygon fill="white" stroke="transparent" points="-4,4 -4,-631 964.5,-631 964.5,4 -4,4"/>
<text text-anchor="middle" x="480.25" y="-611.8" font-family="Times New Roman,serif" font-size="14.00">graphs Module Exports</text>
<!-- graphs/ClassDiagram -->
<g id="node1" class="node">
<title>graphs/ClassDiagram</title>
<g id="a_node1_0"><a xlink:href="tsdocs\modules\graphs_ClassDiagram.html" xlink:title="&lt;TABLE&gt;" target="_blank">
<polygon fill="lightblue" stroke="transparent" points="618.5,-535.5 618.5,-554.5 767.5,-554.5 767.5,-535.5 618.5,-535.5"/>
<text text-anchor="start" x="626" y="-542.3" font-family="Times New Roman,serif" font-weight="bold" text-decoration="underline" font-size="14.00">graphs/ClassDiagram</text>
</a>
</g>
<polyline fill="none" stroke="black" points="618.5,-514.5 767.5,-514.5 "/>
<polyline fill="none" stroke="black" points="767.5,-535.5 618.5,-535.5 "/>
<text text-anchor="start" x="621.5" y="-522.3" font-family="Times New Roman,serif" font-size="14.00" fill="blue">🏛️ [class]</text>
<text text-anchor="start" x="679.5" y="-522.3" font-family="Times New Roman,serif" font-size="14.00"> &#160;ClassDiagram</text>
<polyline fill="none" stroke="black" points="767.5,-514.5 618.5,-514.5 "/>
<text text-anchor="start" x="621.5" y="-501.3" font-family="Times New Roman,serif" font-style="italic" font-size="14.00" fill="red">IMPORTS</text>
<polyline fill="none" stroke="black" points="618.5,-459.5 767.5,-459.5 "/>
<polyline fill="none" stroke="black" points="767.5,-493.5 618.5,-493.5 "/>
<text text-anchor="start" x="621.5" y="-480.3" font-family="Times New Roman,serif" font-style="italic" font-size="14.00" fill="red">graphs/GraphBase</text>
<text text-anchor="start" x="621.5" y="-466.3" font-family="Times New Roman,serif" font-size="14.00">GraphBase</text>
<polyline fill="none" stroke="black" points="618.5,-425.5 767.5,-425.5 "/>
<polyline fill="none" stroke="black" points="767.5,-459.5 618.5,-459.5 "/>
<text text-anchor="start" x="621.5" y="-446.3" font-family="Times New Roman,serif" font-style="italic" font-size="14.00" fill="red">graphs/GraphGenerator</text>
<text text-anchor="start" x="621.5" y="-432.3" font-family="Times New Roman,serif" font-size="14.00">IGraphFileGenerator</text>
<polyline fill="none" stroke="black" points="618.5,-393.5 767.5,-393.5 "/>
<polyline fill="none" stroke="black" points="767.5,-425.5 618.5,-425.5 "/>
<text text-anchor="start" x="620.5" y="-413.3" font-family="Times New Roman,serif" font-style="italic" font-size="14.00" fill="red">dep&#45;graph</text>
<text text-anchor="start" x="620.5" y="-399.3" font-family="Times New Roman,serif" font-size="14.00">ProgramOptions</text>
<polyline fill="none" stroke="black" points="618.5,-347.5 767.5,-347.5 "/>
<polyline fill="none" stroke="black" points="767.5,-393.5 618.5,-393.5 "/>
<text text-anchor="start" x="620.5" y="-381.3" font-family="Times New Roman,serif" font-style="italic" font-size="14.00" fill="red">ast/SharedInterfaces</text>
<text text-anchor="start" x="620.5" y="-367.3" font-family="Times New Roman,serif" font-size="14.00">ClassDetail</text>
<text text-anchor="start" x="620.5" y="-353.3" font-family="Times New Roman,serif" font-size="14.00">ImportInfo</text>
<polygon fill="none" stroke="black" points="617,-347 617,-556 768,-556 768,-347 617,-347"/>
</g>
<!-- graphs/GraphBase -->
<g id="node4" class="node">
<title>graphs/GraphBase</title>
<g id="a_node4_1"><a xlink:href="tsdocs\modules\graphs_GraphBase.html" xlink:title="&lt;TABLE&gt;" target="_blank">
<polygon fill="lightblue" stroke="transparent" points="435.5,-238.5 435.5,-257.5 569.5,-257.5 569.5,-238.5 435.5,-238.5"/>
<text text-anchor="start" x="444.5" y="-245.3" font-family="Times New Roman,serif" font-weight="bold" text-decoration="underline" font-size="14.00">graphs/GraphBase</text>
</a>
</g>
<polyline fill="none" stroke="black" points="435.5,-217.5 569.5,-217.5 "/>
<polyline fill="none" stroke="black" points="569.5,-238.5 435.5,-238.5 "/>
<text text-anchor="start" x="438.5" y="-225.3" font-family="Times New Roman,serif" font-size="14.00" fill="blue">🏛️ [class]</text>
<text text-anchor="start" x="496.5" y="-225.3" font-family="Times New Roman,serif" font-size="14.00"> &#160;GraphBase</text>
<polyline fill="none" stroke="black" points="569.5,-217.5 435.5,-217.5 "/>
<text text-anchor="start" x="438.5" y="-204.3" font-family="Times New Roman,serif" font-style="italic" font-size="14.00" fill="red">IMPORTS</text>
<polyline fill="none" stroke="black" points="435.5,-150.5 569.5,-150.5 "/>
<polyline fill="none" stroke="black" points="569.5,-196.5 435.5,-196.5 "/>
<text text-anchor="start" x="437.5" y="-184.3" font-family="Times New Roman,serif" font-style="italic" font-size="14.00" fill="red">ast/SharedInterfaces</text>
<text text-anchor="start" x="437.5" y="-170.3" font-family="Times New Roman,serif" font-size="14.00">ImportInfo</text>
<text text-anchor="start" x="437.5" y="-156.3" font-family="Times New Roman,serif" font-size="14.00">ModuleInfo</text>
<polyline fill="none" stroke="black" points="435.5,-90.5 569.5,-90.5 "/>
<polyline fill="none" stroke="black" points="569.5,-150.5 435.5,-150.5 "/>
<text text-anchor="start" x="437.5" y="-138.3" font-family="Times New Roman,serif" font-style="italic" font-size="14.00" fill="red">utils/file&#45;utils</text>
<text text-anchor="start" x="437.5" y="-124.3" font-family="Times New Roman,serif" font-size="14.00">cleanPath</text>
<text text-anchor="start" x="437.5" y="-110.3" font-family="Times New Roman,serif" font-style="italic" font-size="14.00" fill="red">utils/list&#45;utils</text>
<text text-anchor="start" x="437.5" y="-96.3" font-family="Times New Roman,serif" font-size="14.00">getNodeModules</text>
<polygon fill="none" stroke="black" points="434.5,-90 434.5,-259 570.5,-259 570.5,-90 434.5,-90"/>
</g>
<!-- graphs/ClassDiagram&#45;&gt;graphs/GraphBase -->
<g id="edge3" class="edge">
<title>graphs/ClassDiagram&#45;&gt;graphs/GraphBase</title>
<path fill="none" stroke="black" d="M628.47,-342.74C619.02,-327.87 609.2,-312.93 599.5,-299 593.17,-289.91 586.42,-280.6 579.52,-271.37"/>
<polygon fill="black" stroke="black" points="582.24,-269.16 573.43,-263.28 576.65,-273.37 582.24,-269.16"/>
</g>
<!-- graphs/GraphGenerator -->
<g id="node6" class="node">
<title>graphs/GraphGenerator</title>
<g id="a_node6_2"><a xlink:href="tsdocs\modules\graphs_GraphGenerator.html" xlink:title="&lt;TABLE&gt;" target="_blank">
<polygon fill="lightblue" stroke="transparent" points="607.5,-185.5 607.5,-204.5 794.5,-204.5 794.5,-185.5 607.5,-185.5"/>
<text text-anchor="start" x="626" y="-192.3" font-family="Times New Roman,serif" font-weight="bold" text-decoration="underline" font-size="14.00">graphs/GraphGenerator</text>
</a>
</g>
<polyline fill="none" stroke="black" points="607.5,-164.5 794.5,-164.5 "/>
<polyline fill="none" stroke="black" points="794.5,-185.5 607.5,-185.5 "/>
<text text-anchor="start" x="610.5" y="-172.3" font-family="Times New Roman,serif" font-size="14.00" fill="purple">🧩 [iface]</text>
<text text-anchor="start" x="667.5" y="-172.3" font-family="Times New Roman,serif" font-size="14.00"> &#160;IGraphFileGenerator</text>
<polyline fill="none" stroke="black" points="794.5,-164.5 607.5,-164.5 "/>
<text text-anchor="start" x="610.5" y="-151.3" font-family="Times New Roman,serif" font-style="italic" font-size="14.00" fill="red">IMPORTS</text>
<polygon fill="none" stroke="black" points="606,-143 606,-206 795,-206 795,-143 606,-143"/>
</g>
<!-- graphs/ClassDiagram&#45;&gt;graphs/GraphGenerator -->
<g id="edge4" class="edge">
<title>graphs/ClassDiagram&#45;&gt;graphs/GraphGenerator</title>
<path fill="none" stroke="black" d="M695.63,-343C696.87,-300.31 698.23,-253.58 699.2,-220.34"/>
<polygon fill="black" stroke="black" points="702.7,-220.15 699.49,-210.05 695.71,-219.95 702.7,-220.15"/>
</g>
<!-- graphs/ExportGraph -->
<g id="node2" class="node">
<title>graphs/ExportGraph</title>
<g id="a_node2_3"><a xlink:href="tsdocs\modules\graphs_ExportGraph.html" xlink:title="&lt;TABLE&gt;" target="_blank">
<polygon fill="lightblue" stroke="transparent" points="803.5,-579.5 803.5,-598.5 951.5,-598.5 951.5,-579.5 803.5,-579.5"/>
<text text-anchor="start" x="813.5" y="-586.3" font-family="Times New Roman,serif" font-weight="bold" text-decoration="underline" font-size="14.00">graphs/ExportGraph</text>
</a>
</g>
<polyline fill="none" stroke="black" points="803.5,-558.5 951.5,-558.5 "/>
<polyline fill="none" stroke="black" points="951.5,-579.5 803.5,-579.5 "/>
<text text-anchor="start" x="806.5" y="-566.3" font-family="Times New Roman,serif" font-size="14.00" fill="blue">🏛️ [class]</text>
<text text-anchor="start" x="864.5" y="-566.3" font-family="Times New Roman,serif" font-size="14.00"> &#160;ExportGraph</text>
<polyline fill="none" stroke="black" points="951.5,-558.5 803.5,-558.5 "/>
<text text-anchor="start" x="806.5" y="-545.3" font-family="Times New Roman,serif" font-style="italic" font-size="14.00" fill="red">IMPORTS</text>
<polyline fill="none" stroke="black" points="803.5,-503.5 951.5,-503.5 "/>
<polyline fill="none" stroke="black" points="951.5,-537.5 803.5,-537.5 "/>
<text text-anchor="start" x="806.5" y="-524.3" font-family="Times New Roman,serif" font-style="italic" font-size="14.00" fill="red">graphs/GraphBase</text>
<text text-anchor="start" x="806.5" y="-510.3" font-family="Times New Roman,serif" font-size="14.00">GraphBase</text>
<polyline fill="none" stroke="black" points="803.5,-469.5 951.5,-469.5 "/>
<polyline fill="none" stroke="black" points="951.5,-503.5 803.5,-503.5 "/>
<text text-anchor="start" x="806.5" y="-490.3" font-family="Times New Roman,serif" font-style="italic" font-size="14.00" fill="red">graphs/GraphGenerator</text>
<text text-anchor="start" x="806.5" y="-476.3" font-family="Times New Roman,serif" font-size="14.00">IGraphFileGenerator</text>
<polyline fill="none" stroke="black" points="803.5,-437.5 951.5,-437.5 "/>
<polyline fill="none" stroke="black" points="951.5,-469.5 803.5,-469.5 "/>
<text text-anchor="start" x="805.5" y="-457.3" font-family="Times New Roman,serif" font-style="italic" font-size="14.00" fill="red">dep&#45;graph</text>
<text text-anchor="start" x="805.5" y="-443.3" font-family="Times New Roman,serif" font-size="14.00">ProgramOptions</text>
<polyline fill="none" stroke="black" points="803.5,-377.5 951.5,-377.5 "/>
<polyline fill="none" stroke="black" points="951.5,-437.5 803.5,-437.5 "/>
<text text-anchor="start" x="805.5" y="-425.3" font-family="Times New Roman,serif" font-style="italic" font-size="14.00" fill="red">ast/SharedInterfaces</text>
<text text-anchor="start" x="805.5" y="-411.3" font-family="Times New Roman,serif" font-size="14.00">ImportInfo</text>
<text text-anchor="start" x="805.5" y="-397.3" font-family="Times New Roman,serif" font-size="14.00">ExportInfo</text>
<text text-anchor="start" x="805.5" y="-383.3" font-family="Times New Roman,serif" font-size="14.00">ModuleInfo</text>
<polyline fill="none" stroke="black" points="803.5,-303.5 951.5,-303.5 "/>
<polyline fill="none" stroke="black" points="951.5,-377.5 803.5,-377.5 "/>
<text text-anchor="start" x="805.5" y="-365.3" font-family="Times New Roman,serif" font-style="italic" font-size="14.00" fill="red">utils/file&#45;utils</text>
<text text-anchor="start" x="805.5" y="-351.3" font-family="Times New Roman,serif" font-size="14.00">getModuleName</text>
<text text-anchor="start" x="805.5" y="-337.3" font-family="Times New Roman,serif" font-size="14.00">moduleFileName</text>
<text text-anchor="start" x="805.5" y="-323.3" font-family="Times New Roman,serif" font-style="italic" font-size="14.00" fill="red">utils/list&#45;utils</text>
<text text-anchor="start" x="805.5" y="-309.3" font-family="Times New Roman,serif" font-size="14.00">getExportedList</text>
<polygon fill="none" stroke="black" points="802.5,-303 802.5,-600 952.5,-600 952.5,-303 802.5,-303"/>
</g>
<!-- graphs/ExportGraph&#45;node_modules -->
<g id="node3" class="node">
<title>graphs/ExportGraph&#45;node_modules</title>
<polygon fill="lightgrey" stroke="transparent" points="831.5,-175.5 831.5,-194.5 923.5,-194.5 923.5,-175.5 831.5,-175.5"/>
<text text-anchor="start" x="833.5" y="-182.3" font-family="Times New Roman,serif" font-weight="bold" font-size="14.00">node_modules</text>
<polyline fill="none" stroke="black" points="923.5,-175.5 831.5,-175.5 "/>
<text text-anchor="start" x="834.5" y="-162.3" font-family="Times New Roman,serif" font-style="italic" font-size="14.00" fill="red">path</text>
<text text-anchor="start" x="861.5" y="-162.3" font-family="Times New Roman,serif" font-size="14.00"> &#160;(path)</text>
<polygon fill="none" stroke="black" points="830.5,-153.5 830.5,-195.5 924.5,-195.5 924.5,-153.5 830.5,-153.5"/>
</g>
<!-- graphs/ExportGraph&#45;&gt;graphs/ExportGraph&#45;node_modules -->
<g id="edge1" class="edge">
<title>graphs/ExportGraph&#45;&gt;graphs/ExportGraph&#45;node_modules</title>
<path fill="none" stroke="black" d="M877.5,-298.92C877.5,-265.39 877.5,-232.98 877.5,-209.79"/>
<polygon fill="black" stroke="black" points="881,-209.5 877.5,-199.5 874,-209.5 881,-209.5"/>
</g>
<!-- graphs/ExportGraph&#45;&gt;graphs/GraphBase -->
<g id="edge5" class="edge">
<title>graphs/ExportGraph&#45;&gt;graphs/GraphBase</title>
<path fill="none" stroke="black" d="M794.38,-305.67C791.5,-303.32 788.54,-301.09 785.5,-299 712.19,-248.53 667.14,-304.68 588.5,-263 588.08,-262.78 587.65,-262.55 587.23,-262.32"/>
<polygon fill="black" stroke="black" points="588.88,-259.23 578.5,-257.11 585.29,-265.24 588.88,-259.23"/>
</g>
<!-- graphs/ExportGraph&#45;&gt;graphs/GraphGenerator -->
<g id="edge6" class="edge">
<title>graphs/ExportGraph&#45;&gt;graphs/GraphGenerator</title>
<path fill="none" stroke="black" d="M794.35,-312.8C791.38,-308.13 788.43,-303.52 785.5,-299 767.93,-271.85 747.4,-241.96 730.91,-218.39"/>
<polygon fill="black" stroke="black" points="733.64,-216.19 725.03,-210.01 727.91,-220.21 733.64,-216.19"/>
</g>
<!-- graphs/GraphBase&#45;node_modules -->
<g id="node5" class="node">
<title>graphs/GraphBase&#45;node_modules</title>
<polygon fill="lightgrey" stroke="transparent" points="456.5,-26 456.5,-45 548.5,-45 548.5,-26 456.5,-26"/>
<text text-anchor="start" x="458.5" y="-32.8" font-family="Times New Roman,serif" font-weight="bold" font-size="14.00">node_modules</text>
<polyline fill="none" stroke="black" points="548.5,-26 456.5,-26 "/>
<text text-anchor="start" x="459.5" y="-12.8" font-family="Times New Roman,serif" font-style="italic" font-size="14.00" fill="red">path</text>
<text text-anchor="start" x="486.5" y="-12.8" font-family="Times New Roman,serif" font-size="14.00"> &#160;(path)</text>
<polygon fill="none" stroke="black" points="455.5,-4 455.5,-46 549.5,-46 549.5,-4 455.5,-4"/>
</g>
<!-- graphs/GraphBase&#45;&gt;graphs/GraphBase&#45;node_modules -->
<g id="edge2" class="edge">
<title>graphs/GraphBase&#45;&gt;graphs/GraphBase&#45;node_modules</title>
<path fill="none" stroke="black" d="M502.5,-85.99C502.5,-76.95 502.5,-68.2 502.5,-60.3"/>
<polygon fill="black" stroke="black" points="506,-60.11 502.5,-50.11 499,-60.11 506,-60.11"/>
</g>
<!-- graphs/NodeModulesGraph -->
<g id="node7" class="node">
<title>graphs/NodeModulesGraph</title>
<g id="a_node7_4"><a xlink:href="tsdocs\modules\graphs_NodeModulesGraph.html" xlink:title="&lt;TABLE&gt;" target="_blank">
<polygon fill="lightblue" stroke="transparent" points="9.5,-495.5 9.5,-514.5 196.5,-514.5 196.5,-495.5 9.5,-495.5"/>
<text text-anchor="start" x="17.5" y="-502.3" font-family="Times New Roman,serif" font-weight="bold" text-decoration="underline" font-size="14.00">graphs/NodeModulesGraph</text>
</a>
</g>
<polyline fill="none" stroke="black" points="9.5,-474.5 196.5,-474.5 "/>
<polyline fill="none" stroke="black" points="196.5,-495.5 9.5,-495.5 "/>
<text text-anchor="start" x="12.5" y="-482.3" font-family="Times New Roman,serif" font-size="14.00" fill="blue">🏛️ [class]</text>
<text text-anchor="start" x="70.5" y="-482.3" font-family="Times New Roman,serif" font-size="14.00"> &#160;NodeModulesGraph</text>
<polyline fill="none" stroke="black" points="196.5,-474.5 9.5,-474.5 "/>
<text text-anchor="start" x="12.5" y="-461.3" font-family="Times New Roman,serif" font-style="italic" font-size="14.00" fill="red">IMPORTS</text>
<polyline fill="none" stroke="black" points="9.5,-419.5 196.5,-419.5 "/>
<polyline fill="none" stroke="black" points="196.5,-453.5 9.5,-453.5 "/>
<text text-anchor="start" x="12.5" y="-440.3" font-family="Times New Roman,serif" font-style="italic" font-size="14.00" fill="red">graphs/GraphBase</text>
<text text-anchor="start" x="12.5" y="-426.3" font-family="Times New Roman,serif" font-size="14.00">GraphBase</text>
<polyline fill="none" stroke="black" points="9.5,-387.5 196.5,-387.5 "/>
<polyline fill="none" stroke="black" points="196.5,-419.5 9.5,-419.5 "/>
<text text-anchor="start" x="11.5" y="-407.3" font-family="Times New Roman,serif" font-style="italic" font-size="14.00" fill="red">ast/SharedInterfaces</text>
<text text-anchor="start" x="11.5" y="-393.3" font-family="Times New Roman,serif" font-size="14.00">ImportInfo</text>
<polygon fill="none" stroke="black" points="8,-387 8,-516 197,-516 197,-387 8,-387"/>
</g>
<!-- graphs/NodeModulesGraph&#45;&gt;graphs/GraphBase -->
<g id="edge7" class="edge">
<title>graphs/NodeModulesGraph&#45;&gt;graphs/GraphBase</title>
<path fill="none" stroke="black" d="M141.17,-382.97C160.3,-354.15 185.52,-321.94 214.5,-299 274.63,-251.4 355.85,-218.78 416.72,-199.07"/>
<polygon fill="black" stroke="black" points="417.84,-202.38 426.31,-196.01 415.72,-195.71 417.84,-202.38"/>
</g>
<!-- graphs/PackageGraph -->
<g id="node8" class="node">
<title>graphs/PackageGraph</title>
<g id="a_node8_5"><a xlink:href="tsdocs\modules\graphs_PackageGraph.html" xlink:title="&lt;TABLE&gt;" target="_blank">
<polygon fill="lightblue" stroke="transparent" points="232.5,-502.5 232.5,-521.5 386.5,-521.5 386.5,-502.5 232.5,-502.5"/>
<text text-anchor="start" x="240" y="-509.3" font-family="Times New Roman,serif" font-weight="bold" text-decoration="underline" font-size="14.00">graphs/PackageGraph</text>
</a>
</g>
<polyline fill="none" stroke="black" points="232.5,-481.5 386.5,-481.5 "/>
<polyline fill="none" stroke="black" points="386.5,-502.5 232.5,-502.5 "/>
<text text-anchor="start" x="235.5" y="-489.3" font-family="Times New Roman,serif" font-size="14.00" fill="blue">🏛️ [class]</text>
<text text-anchor="start" x="293.5" y="-489.3" font-family="Times New Roman,serif" font-size="14.00"> &#160;PackageGraph</text>
<polyline fill="none" stroke="black" points="386.5,-481.5 232.5,-481.5 "/>
<text text-anchor="start" x="235.5" y="-468.3" font-family="Times New Roman,serif" font-style="italic" font-size="14.00" fill="red">IMPORTS</text>
<polyline fill="none" stroke="black" points="232.5,-426.5 386.5,-426.5 "/>
<polyline fill="none" stroke="black" points="386.5,-460.5 232.5,-460.5 "/>
<text text-anchor="start" x="235.5" y="-447.3" font-family="Times New Roman,serif" font-style="italic" font-size="14.00" fill="red">graphs/GraphBase</text>
<text text-anchor="start" x="235.5" y="-433.3" font-family="Times New Roman,serif" font-size="14.00">GraphBase</text>
<polyline fill="none" stroke="black" points="232.5,-380.5 386.5,-380.5 "/>
<polyline fill="none" stroke="black" points="386.5,-426.5 232.5,-426.5 "/>
<text text-anchor="start" x="234.5" y="-414.3" font-family="Times New Roman,serif" font-style="italic" font-size="14.00" fill="red">ast/SharedInterfaces</text>
<text text-anchor="start" x="234.5" y="-400.3" font-family="Times New Roman,serif" font-size="14.00">ImportInfo</text>
<text text-anchor="start" x="234.5" y="-386.3" font-family="Times New Roman,serif" font-size="14.00">ModuleInfo</text>
<polygon fill="none" stroke="black" points="231.5,-380 231.5,-523 387.5,-523 387.5,-380 231.5,-380"/>
</g>
<!-- graphs/PackageGraph&#45;&gt;graphs/GraphBase -->
<g id="edge8" class="edge">
<title>graphs/PackageGraph&#45;&gt;graphs/GraphBase</title>
<path fill="none" stroke="black" d="M354.04,-375.84C369.45,-351.01 387.2,-323.46 404.5,-299 410.92,-289.92 417.76,-280.62 424.74,-271.39"/>
<polygon fill="black" stroke="black" points="427.63,-273.38 430.9,-263.31 422.06,-269.14 427.63,-273.38"/>
</g>
<!-- graphs/RelationsGraph -->
<g id="node9" class="node">
<title>graphs/RelationsGraph</title>
<g id="a_node9_6"><a xlink:href="tsdocs\modules\graphs_RelationsGraph.html" xlink:title="&lt;TABLE&gt;" target="_blank">
<polygon fill="lightblue" stroke="transparent" points="423.5,-532.5 423.5,-551.5 582.5,-551.5 582.5,-532.5 423.5,-532.5"/>
<text text-anchor="start" x="431" y="-539.3" font-family="Times New Roman,serif" font-weight="bold" text-decoration="underline" font-size="14.00">graphs/RelationsGraph</text>
</a>
</g>
<polyline fill="none" stroke="black" points="423.5,-511.5 582.5,-511.5 "/>
<polyline fill="none" stroke="black" points="582.5,-532.5 423.5,-532.5 "/>
<text text-anchor="start" x="426.5" y="-519.3" font-family="Times New Roman,serif" font-size="14.00" fill="blue">🏛️ [class]</text>
<text text-anchor="start" x="484.5" y="-519.3" font-family="Times New Roman,serif" font-size="14.00"> &#160;RelationsGraph</text>
<polyline fill="none" stroke="black" points="582.5,-511.5 423.5,-511.5 "/>
<text text-anchor="start" x="426.5" y="-498.3" font-family="Times New Roman,serif" font-style="italic" font-size="14.00" fill="red">IMPORTS</text>
<polyline fill="none" stroke="black" points="423.5,-456.5 582.5,-456.5 "/>
<polyline fill="none" stroke="black" points="582.5,-490.5 423.5,-490.5 "/>
<text text-anchor="start" x="426.5" y="-477.3" font-family="Times New Roman,serif" font-style="italic" font-size="14.00" fill="red">graphs/GraphBase</text>
<text text-anchor="start" x="426.5" y="-463.3" font-family="Times New Roman,serif" font-size="14.00">GraphBase</text>
<polyline fill="none" stroke="black" points="423.5,-410.5 582.5,-410.5 "/>
<polyline fill="none" stroke="black" points="582.5,-456.5 423.5,-456.5 "/>
<text text-anchor="start" x="425.5" y="-444.3" font-family="Times New Roman,serif" font-style="italic" font-size="14.00" fill="red">ast/SharedInterfaces</text>
<text text-anchor="start" x="425.5" y="-430.3" font-family="Times New Roman,serif" font-size="14.00">ImportInfo</text>
<text text-anchor="start" x="425.5" y="-416.3" font-family="Times New Roman,serif" font-size="14.00">ModuleInfo</text>
<polyline fill="none" stroke="black" points="423.5,-350.5 582.5,-350.5 "/>
<polyline fill="none" stroke="black" points="582.5,-410.5 423.5,-410.5 "/>
<text text-anchor="start" x="425.5" y="-398.3" font-family="Times New Roman,serif" font-style="italic" font-size="14.00" fill="red">utils/file&#45;utils</text>
<text text-anchor="start" x="425.5" y="-384.3" font-family="Times New Roman,serif" font-size="14.00">getModuleName</text>
<text text-anchor="start" x="425.5" y="-370.3" font-family="Times New Roman,serif" font-style="italic" font-size="14.00" fill="red">utils/list&#45;utils</text>
<text text-anchor="start" x="425.5" y="-356.3" font-family="Times New Roman,serif" font-size="14.00">getUsedByList</text>
<polygon fill="none" stroke="black" points="422,-350 422,-553 583,-553 583,-350 422,-350"/>
</g>
<!-- graphs/RelationsGraph&#45;&gt;graphs/GraphBase -->
<g id="edge9" class="edge">
<title>graphs/RelationsGraph&#45;&gt;graphs/GraphBase</title>
<path fill="none" stroke="black" d="M502.5,-345.75C502.5,-322.08 502.5,-297.04 502.5,-273.66"/>
<polygon fill="black" stroke="black" points="506,-273.39 502.5,-263.39 499,-273.39 506,-273.39"/>
</g>
</g>
</svg>
