<?xml version="1.0" encoding="UTF-8" standalone="no"?>
<!DOCTYPE svg PUBLIC "-//W3C//DTD SVG 1.1//EN"
 "http://www.w3.org/Graphics/SVG/1.1/DTD/svg11.dtd">
<!-- Generated by graphviz version 3.0.0 (20220226.1711)
 -->
<!-- Pages: 1 -->
<svg width="1490pt" height="505pt"
 viewBox="0.00 0.00 1490.00 505.00" xmlns="http://www.w3.org/2000/svg" xmlns:xlink="http://www.w3.org/1999/xlink">
<g id="graph0" class="graph" transform="scale(1 1) rotate(0) translate(4 501)">
<polygon fill="white" stroke="transparent" points="-4,4 -4,-501 1486,-501 1486,4 -4,4"/>
<text text-anchor="middle" x="741" y="-481.8" font-family="Times New Roman,serif" font-size="14.00">graphs Class Diagram</text>
<!-- ClassDiagram -->
<g id="node1" class="node">
<title>ClassDiagram</title>
<polygon fill="lightblue" stroke="transparent" points="1205,-442.5 1205,-461.5 1473,-461.5 1473,-442.5 1205,-442.5"/>
<text text-anchor="start" x="1207" y="-449.3" font-family="Times New Roman,serif" font-weight="bold" font-size="14.00">ClassDiagram : GraphBase</text>
<text text-anchor="start" x="1240" y="-430.3" font-family="Times New Roman,serif" font-weight="bold" font-size="14.00">properties</text>
<text text-anchor="start" x="1207" y="-416.3" font-family="Times New Roman,serif" font-size="14.00">+ declarationList: array</text>
<text text-anchor="start" x="1313" y="-398.3" font-family="Times New Roman,serif" font-weight="bold" font-size="14.00">methods</text>
<text text-anchor="start" x="1207" y="-384.3" font-family="Times New Roman,serif" font-size="14.00">+ constructor(dependencyList, declarationList)</text>
<text text-anchor="start" x="1273" y="-370.3" font-family="Times New Roman,serif" font-size="14.00">+ generate(dir, options)</text>
<text text-anchor="start" x="1254.5" y="-356.3" font-family="Times New Roman,serif" font-size="14.00">+ createClassNode(classItem)</text>
<text text-anchor="start" x="1236" y="-342.3" font-family="Times New Roman,serif" font-size="14.00">+ createInterfaceNode(interfaceItem)</text>
<polygon fill="none" stroke="black" points="1204,-336 1204,-463 1474,-463 1474,-336 1204,-336"/>
</g>
<!-- GraphBase -->
<g id="node2" class="node">
<title>GraphBase</title>
<polygon fill="lightblue" stroke="transparent" points="574,-264.5 574,-283.5 786,-283.5 786,-264.5 574,-264.5"/>
<text text-anchor="start" x="576" y="-271.3" font-family="Times New Roman,serif" font-weight="bold" font-size="14.00">GraphBase</text>
<text text-anchor="start" x="614" y="-252.3" font-family="Times New Roman,serif" font-weight="bold" font-size="14.00">properties</text>
<text text-anchor="start" x="577.5" y="-238.3" font-family="Times New Roman,serif" font-size="14.00">+ dependencyList: array</text>
<text text-anchor="start" x="585.5" y="-224.3" font-family="Times New Roman,serif" font-size="14.00">+ moduleArray: array</text>
<text text-anchor="start" x="576" y="-210.3" font-family="Times New Roman,serif" font-size="14.00">+ diagramsHTML: string</text>
<text text-anchor="start" x="654" y="-192.3" font-family="Times New Roman,serif" font-weight="bold" font-size="14.00">methods</text>
<text text-anchor="start" x="576" y="-178.3" font-family="Times New Roman,serif" font-size="14.00">+ constructor(depList, moduleArray)</text>
<text text-anchor="start" x="638.5" y="-164.3" font-family="Times New Roman,serif" font-size="14.00">+ digraph(title)</text>
<text text-anchor="start" x="632.5" y="-150.3" font-family="Times New Roman,serif" font-size="14.00">+ nodeStart(title)</text>
<text text-anchor="start" x="620" y="-136.3" font-family="Times New Roman,serif" font-size="14.00">+ makeSafeTitle(title)</text>
<text text-anchor="start" x="638.5" y="-122.3" font-family="Times New Roman,serif" font-size="14.00">+ nodeFinish()</text>
<text text-anchor="start" x="619" y="-108.3" font-family="Times New Roman,serif" font-size="14.00">+ recordDigraph(title)</text>
<text text-anchor="start" x="601.5" y="-94.3" font-family="Times New Roman,serif" font-size="14.00">+ getDependsOnMod(mod)</text>
<text text-anchor="start" x="613.5" y="-80.3" font-family="Times New Roman,serif" font-size="14.00">+ getNodeModuleList()</text>
<text text-anchor="start" x="606" y="-66.3" font-family="Times New Roman,serif" font-size="14.00">+ filterModulesForDir(dir)</text>
<text text-anchor="start" x="639" y="-52.3" font-family="Times New Roman,serif" font-size="14.00">+ uniqueDirs()</text>
<text text-anchor="start" x="617.5" y="-38.3" font-family="Times New Roman,serif" font-size="14.00">+ isNodeModule(dep)</text>
<text text-anchor="start" x="612" y="-24.3" font-family="Times New Roman,serif" font-size="14.00">+ inSameDirectory(dep)</text>
<text text-anchor="start" x="622.5" y="-10.3" font-family="Times New Roman,serif" font-size="14.00">+ cleanDirPath(root)</text>
<polygon fill="none" stroke="black" points="573,-4 573,-285 787,-285 787,-4 573,-4"/>
</g>
<!-- ClassDiagram&#45;&gt;GraphBase -->
<g id="edge1" class="edge">
<title>ClassDiagram&#45;&gt;GraphBase</title>
<path fill="none" stroke="black" d="M1203.02,-331.85C1197.63,-329.49 1192.27,-327.2 1187,-325 1177.73,-321.13 951.8,-241.34 804.7,-189.46"/>
<polygon fill="none" stroke="black" points="805.72,-186.11 795.13,-186.08 803.39,-192.71 805.72,-186.11"/>
</g>
<!-- IGraphFileGenerator -->
<g id="node3" class="node">
<title>IGraphFileGenerator</title>
<polygon fill="lightyellow" stroke="transparent" points="1105,-144.5 1105,-176.5 1242,-176.5 1242,-144.5 1105,-144.5"/>
<text text-anchor="start" x="1129" y="-164.3" font-family="Times New Roman,serif" font-style="italic" font-size="14.00">&lt;&lt;interface&gt;&gt;</text>
<text text-anchor="start" x="1107" y="-150.3" font-family="Times New Roman,serif" font-weight="bold" font-size="14.00">IGraphFileGenerator</text>
<text text-anchor="start" x="1141" y="-132.3" font-family="Times New Roman,serif" font-weight="bold" font-size="14.00">methods</text>
<text text-anchor="start" x="1107" y="-118.3" font-family="Times New Roman,serif" font-size="14.00">generate(dir, options)</text>
<polygon fill="none" stroke="black" points="1103.5,-111.5 1103.5,-177.5 1242.5,-177.5 1242.5,-111.5 1103.5,-111.5"/>
</g>
<!-- ClassDiagram&#45;&gt;IGraphFileGenerator -->
<g id="edge2" class="edge">
<title>ClassDiagram&#45;&gt;IGraphFileGenerator</title>
<path fill="none" stroke="black" stroke-dasharray="5,2" d="M1295.17,-331.7C1265.88,-287.05 1228.14,-229.54 1202.41,-190.32"/>
<polygon fill="none" stroke="black" points="1205.2,-188.19 1196.79,-181.75 1199.35,-192.03 1205.2,-188.19"/>
</g>
<!-- ExportGraph -->
<g id="node4" class="node">
<title>ExportGraph</title>
<polygon fill="lightblue" stroke="transparent" points="846,-449.5 846,-468.5 1169,-468.5 1169,-449.5 846,-449.5"/>
<text text-anchor="start" x="848" y="-456.3" font-family="Times New Roman,serif" font-weight="bold" font-size="14.00">ExportGraph : GraphBase</text>
<text text-anchor="start" x="868.5" y="-437.3" font-family="Times New Roman,serif" font-weight="bold" font-size="14.00">properties</text>
<text text-anchor="start" x="848" y="-423.3" font-family="Times New Roman,serif" font-size="14.00">+ exportList: array</text>
<text text-anchor="start" x="981.5" y="-405.3" font-family="Times New Roman,serif" font-weight="bold" font-size="14.00">methods</text>
<text text-anchor="start" x="848" y="-391.3" font-family="Times New Roman,serif" font-size="14.00">+ constructor(dependencyList, exportList, moduleArray)</text>
<text text-anchor="start" x="941.5" y="-377.3" font-family="Times New Roman,serif" font-size="14.00">+ generate(dir, options)</text>
<text text-anchor="start" x="898.5" y="-363.3" font-family="Times New Roman,serif" font-size="14.00">+ createModuleNode(mod, exportList)</text>
<text text-anchor="start" x="853.5" y="-349.3" font-family="Times New Roman,serif" font-size="14.00">&#45; createNodeModulesRelations(modName, nodeMods)</text>
<text text-anchor="start" x="932.5" y="-335.3" font-family="Times New Roman,serif" font-size="14.00">&#45; createRelations(modules)</text>
<polygon fill="none" stroke="black" points="844.5,-329 844.5,-470 1169.5,-470 1169.5,-329 844.5,-329"/>
</g>
<!-- ExportGraph&#45;&gt;GraphBase -->
<g id="edge3" class="edge">
<title>ExportGraph&#45;&gt;GraphBase</title>
<path fill="none" stroke="black" d="M911.98,-324.98C878.06,-298.74 839.33,-268.78 803.37,-240.95"/>
<polygon fill="none" stroke="black" points="805.31,-238.03 795.26,-234.68 801.03,-243.57 805.31,-238.03"/>
</g>
<!-- ExportGraph&#45;&gt;IGraphFileGenerator -->
<g id="edge4" class="edge">
<title>ExportGraph&#45;&gt;IGraphFileGenerator</title>
<path fill="none" stroke="black" stroke-dasharray="5,2" d="M1055.24,-324.98C1083.86,-281.36 1119.22,-227.47 1143.68,-190.18"/>
<polygon fill="none" stroke="black" points="1146.79,-191.83 1149.35,-181.55 1140.93,-187.99 1146.79,-191.83"/>
</g>
<!-- NodeModulesGraph -->
<g id="node5" class="node">
<title>NodeModulesGraph</title>
<polygon fill="lightblue" stroke="transparent" points="9,-419.5 9,-438.5 219,-438.5 219,-419.5 9,-419.5"/>
<text text-anchor="start" x="11" y="-426.3" font-family="Times New Roman,serif" font-weight="bold" font-size="14.00">NodeModulesGraph : GraphBase</text>
<text text-anchor="start" x="73" y="-407.3" font-family="Times New Roman,serif" font-weight="bold" font-size="14.00">methods</text>
<text text-anchor="start" x="11.5" y="-393.3" font-family="Times New Roman,serif" font-size="14.00">+ constructor(dependencyList)</text>
<text text-anchor="start" x="65.5" y="-379.3" font-family="Times New Roman,serif" font-size="14.00">+ generate()</text>
<text text-anchor="start" x="11" y="-365.3" font-family="Times New Roman,serif" font-size="14.00">+ createNodeModulesSection()</text>
<polygon fill="none" stroke="black" points="8,-359 8,-440 220,-440 220,-359 8,-359"/>
</g>
<!-- NodeModulesGraph&#45;&gt;GraphBase -->
<g id="edge5" class="edge">
<title>NodeModulesGraph&#45;&gt;GraphBase</title>
<path fill="none" stroke="black" d="M182.89,-354.81C200.26,-344.5 219.07,-333.92 237,-325 341.76,-272.86 465.52,-223.7 555.56,-190.06"/>
<polygon fill="none" stroke="black" points="556.84,-193.31 564.99,-186.54 554.4,-186.75 556.84,-193.31"/>
</g>
<!-- PackageGraph -->
<g id="node6" class="node">
<title>PackageGraph</title>
<polygon fill="lightblue" stroke="transparent" points="256,-426.5 256,-445.5 515,-445.5 515,-426.5 256,-426.5"/>
<text text-anchor="start" x="258" y="-433.3" font-family="Times New Roman,serif" font-weight="bold" font-size="14.00">PackageGraph : GraphBase</text>
<text text-anchor="start" x="359.5" y="-414.3" font-family="Times New Roman,serif" font-weight="bold" font-size="14.00">methods</text>
<text text-anchor="start" x="258" y="-400.3" font-family="Times New Roman,serif" font-size="14.00">+ constructor(moduleArray, dependencyList)</text>
<text text-anchor="start" x="352" y="-386.3" font-family="Times New Roman,serif" font-size="14.00">+ generate()</text>
<text text-anchor="start" x="298" y="-372.3" font-family="Times New Roman,serif" font-size="14.00">&#45; createPackageDependencies()</text>
<text text-anchor="start" x="318.5" y="-358.3" font-family="Times New Roman,serif" font-size="14.00">&#45; createPackageNodes()</text>
<polygon fill="none" stroke="black" points="254.5,-352 254.5,-447 515.5,-447 515.5,-352 254.5,-352"/>
</g>
<!-- PackageGraph&#45;&gt;GraphBase -->
<g id="edge6" class="edge">
<title>PackageGraph&#45;&gt;GraphBase</title>
<path fill="none" stroke="black" d="M443.99,-347.91C476.46,-320.06 518.02,-284.42 557.18,-250.83"/>
<polygon fill="none" stroke="black" points="559.67,-253.31 564.98,-244.15 555.11,-248 559.67,-253.31"/>
</g>
<!-- RelationsGraph -->
<g id="node7" class="node">
<title>RelationsGraph</title>
<polygon fill="lightblue" stroke="transparent" points="551,-449.5 551,-468.5 810,-468.5 810,-449.5 551,-449.5"/>
<text text-anchor="start" x="553" y="-456.3" font-family="Times New Roman,serif" font-weight="bold" font-size="14.00">RelationsGraph : GraphBase</text>
<text text-anchor="start" x="575.5" y="-437.3" font-family="Times New Roman,serif" font-weight="bold" font-size="14.00">properties</text>
<text text-anchor="start" x="553" y="-423.3" font-family="Times New Roman,serif" font-size="14.00">+ nodeMods: array</text>
<text text-anchor="start" x="654.5" y="-405.3" font-family="Times New Roman,serif" font-weight="bold" font-size="14.00">methods</text>
<text text-anchor="start" x="553" y="-391.3" font-family="Times New Roman,serif" font-size="14.00">+ constructor(dependencyList, moduleArray)</text>
<text text-anchor="start" x="647" y="-377.3" font-family="Times New Roman,serif" font-size="14.00">+ generate()</text>
<text text-anchor="start" x="628" y="-363.3" font-family="Times New Roman,serif" font-size="14.00">&#45; getUsedBy(mod)</text>
<text text-anchor="start" x="582.5" y="-349.3" font-family="Times New Roman,serif" font-size="14.00">&#45; createModuleRelationNode(mod)</text>
<text text-anchor="start" x="594.5" y="-335.3" font-family="Times New Roman,serif" font-size="14.00">&#45; createNodeModulesSection()</text>
<polygon fill="none" stroke="black" points="549.5,-329 549.5,-470 810.5,-470 810.5,-329 549.5,-329"/>
</g>
<!-- RelationsGraph&#45;&gt;GraphBase -->
<g id="edge7" class="edge">
<title>RelationsGraph&#45;&gt;GraphBase</title>
<path fill="none" stroke="black" d="M680,-324.98C680,-316.71 680,-308.08 680,-299.25"/>
<polygon fill="none" stroke="black" points="683.5,-299.22 680,-289.22 676.5,-299.22 683.5,-299.22"/>
</g>
</g>
</svg>
