<?xml version="1.0" encoding="UTF-8" standalone="no"?>
<!DOCTYPE svg PUBLIC "-//W3C//DTD SVG 1.1//EN"
 "http://www.w3.org/Graphics/SVG/1.1/DTD/svg11.dtd">
<!-- Generated by graphviz version 3.0.0 (20220226.1711)
 -->
<!-- Pages: 1 -->
<svg width="933pt" height="591pt"
 viewBox="0.00 0.00 932.50 591.00" xmlns="http://www.w3.org/2000/svg" xmlns:xlink="http://www.w3.org/1999/xlink">
<g id="graph0" class="graph" transform="scale(1 1) rotate(0) translate(4 587)">
<polygon fill="white" stroke="transparent" points="-4,4 -4,-587 928.5,-587 928.5,4 -4,4"/>
<text text-anchor="middle" x="462.25" y="-567.8" font-family="Times New Roman,serif" font-size="14.00">graphs Module Exports</text>
<!-- graphs/ClassDiagram -->
<g id="node1" class="node">
<title>graphs/ClassDiagram</title>
<g id="a_node1_0"><a xlink:href="tsdocs\modules\graphs_ClassDiagram.html" xlink:title="&lt;TABLE&gt;" target="_blank">
<polygon fill="lightblue" stroke="transparent" points="583.5,-492 583.5,-511 731.5,-511 731.5,-492 583.5,-492"/>
<text text-anchor="start" x="590.5" y="-498.8" font-family="Times New Roman,serif" font-weight="bold" text-decoration="underline" font-size="14.00">graphs/ClassDiagram</text>
</a>
</g>
<polyline fill="none" stroke="black" points="583.5,-471 731.5,-471 "/>
<polyline fill="none" stroke="black" points="731.5,-492 583.5,-492 "/>
<text text-anchor="start" x="586.5" y="-477.8" font-family="Times New Roman,serif" font-size="14.00">ClassDiagram</text>
<polyline fill="none" stroke="black" points="583.5,-437 731.5,-437 "/>
<polyline fill="none" stroke="black" points="731.5,-471 583.5,-471 "/>
<text text-anchor="start" x="586.5" y="-457.8" font-family="Times New Roman,serif" font-style="italic" font-size="14.00" fill="red">graphs/GraphBase</text>
<text text-anchor="start" x="610.5" y="-443.8" font-family="Times New Roman,serif" font-size="14.00">GraphBase</text>
<polyline fill="none" stroke="black" points="583.5,-403 731.5,-403 "/>
<polyline fill="none" stroke="black" points="731.5,-437 583.5,-437 "/>
<text text-anchor="start" x="586.5" y="-423.8" font-family="Times New Roman,serif" font-style="italic" font-size="14.00" fill="red">graphs/GraphGenerator</text>
<text text-anchor="start" x="599.5" y="-409.8" font-family="Times New Roman,serif" font-size="14.00">IGraphFileGenerator</text>
<polyline fill="none" stroke="black" points="583.5,-371 731.5,-371 "/>
<polyline fill="none" stroke="black" points="731.5,-403 583.5,-403 "/>
<text text-anchor="start" x="602" y="-390.8" font-family="Times New Roman,serif" font-style="italic" font-size="14.00" fill="red">dep&#45;graph</text>
<text text-anchor="start" x="585.5" y="-376.8" font-family="Times New Roman,serif" font-size="14.00">ProgramOptions</text>
<polyline fill="none" stroke="black" points="583.5,-325 731.5,-325 "/>
<polyline fill="none" stroke="black" points="731.5,-371 583.5,-371 "/>
<text text-anchor="start" x="585.5" y="-358.8" font-family="Times New Roman,serif" font-style="italic" font-size="14.00" fill="red">ast/SharedInterfaces</text>
<text text-anchor="start" x="613" y="-344.8" font-family="Times New Roman,serif" font-size="14.00">ClassDetail</text>
<text text-anchor="start" x="613.5" y="-330.8" font-family="Times New Roman,serif" font-size="14.00">ImportInfo</text>
<polygon fill="none" stroke="black" points="582.5,-324 582.5,-512 732.5,-512 732.5,-324 582.5,-324"/>
</g>
<!-- graphs/GraphBase -->
<g id="node4" class="node">
<title>graphs/GraphBase</title>
<g id="a_node4_1"><a xlink:href="tsdocs\modules\graphs_GraphBase.html" xlink:title="&lt;TABLE&gt;" target="_blank">
<polygon fill="lightblue" stroke="transparent" points="412.5,-216 412.5,-235 534.5,-235 534.5,-216 412.5,-216"/>
<text text-anchor="start" x="415.5" y="-222.8" font-family="Times New Roman,serif" font-weight="bold" text-decoration="underline" font-size="14.00">graphs/GraphBase</text>
</a>
</g>
<polyline fill="none" stroke="black" points="412.5,-195 534.5,-195 "/>
<polyline fill="none" stroke="black" points="534.5,-216 412.5,-216 "/>
<text text-anchor="start" x="415.5" y="-201.8" font-family="Times New Roman,serif" font-size="14.00">GraphBase</text>
<polyline fill="none" stroke="black" points="412.5,-149 534.5,-149 "/>
<polyline fill="none" stroke="black" points="534.5,-195 412.5,-195 "/>
<text text-anchor="start" x="414.5" y="-182.8" font-family="Times New Roman,serif" font-style="italic" font-size="14.00" fill="red">ast/SharedInterfaces</text>
<text text-anchor="start" x="442.5" y="-168.8" font-family="Times New Roman,serif" font-size="14.00">ImportInfo</text>
<text text-anchor="start" x="440" y="-154.8" font-family="Times New Roman,serif" font-size="14.00">ModuleInfo</text>
<polyline fill="none" stroke="black" points="412.5,-89 534.5,-89 "/>
<polyline fill="none" stroke="black" points="534.5,-149 412.5,-149 "/>
<text text-anchor="start" x="426" y="-136.8" font-family="Times New Roman,serif" font-style="italic" font-size="14.00" fill="red">utils/file&#45;utils</text>
<text text-anchor="start" x="436" y="-122.8" font-family="Times New Roman,serif" font-size="14.00">cleanPath</text>
<text text-anchor="start" x="426.5" y="-108.8" font-family="Times New Roman,serif" font-style="italic" font-size="14.00" fill="red">utils/list&#45;utils</text>
<text text-anchor="start" x="414.5" y="-94.8" font-family="Times New Roman,serif" font-size="14.00">getNodeModules</text>
<polygon fill="none" stroke="black" points="411.5,-88 411.5,-236 535.5,-236 535.5,-88 411.5,-88"/>
</g>
<!-- graphs/ClassDiagram&#45;&gt;graphs/GraphBase -->
<g id="edge3" class="edge">
<title>graphs/ClassDiagram&#45;&gt;graphs/GraphBase</title>
<path fill="none" stroke="black" d="M595.97,-319.76C586.04,-304.92 575.67,-289.93 565.5,-276 558.87,-266.91 551.76,-257.57 544.55,-248.34"/>
<polygon fill="black" stroke="black" points="547.12,-245.96 538.19,-240.27 541.62,-250.29 547.12,-245.96"/>
</g>
<!-- graphs/GraphGenerator -->
<g id="node6" class="node">
<title>graphs/GraphGenerator</title>
<g id="a_node6_2"><a xlink:href="tsdocs\modules\graphs_GraphGenerator.html" xlink:title="&lt;TABLE&gt;" target="_blank">
<polygon fill="lightblue" stroke="transparent" points="592.5,-163 592.5,-182 746.5,-182 746.5,-163 592.5,-163"/>
<text text-anchor="start" x="594.5" y="-169.8" font-family="Times New Roman,serif" font-weight="bold" text-decoration="underline" font-size="14.00">graphs/GraphGenerator</text>
</a>
</g>
<polyline fill="none" stroke="black" points="592.5,-142 746.5,-142 "/>
<polyline fill="none" stroke="black" points="746.5,-163 592.5,-163 "/>
<text text-anchor="start" x="595.5" y="-148.8" font-family="Times New Roman,serif" font-size="14.00">IGraphFileGenerator</text>
<polygon fill="none" stroke="black" points="591.5,-141 591.5,-183 747.5,-183 747.5,-141 591.5,-141"/>
</g>
<!-- graphs/ClassDiagram&#45;&gt;graphs/GraphGenerator -->
<g id="edge4" class="edge">
<title>graphs/ClassDiagram&#45;&gt;graphs/GraphGenerator</title>
<path fill="none" stroke="black" d="M662.09,-319.89C664.12,-276.79 666.39,-228.83 667.87,-197.41"/>
<polygon fill="black" stroke="black" points="671.39,-197.18 668.36,-187.03 664.4,-196.85 671.39,-197.18"/>
</g>
<!-- graphs/ExportGraph -->
<g id="node2" class="node">
<title>graphs/ExportGraph</title>
<g id="a_node2_3"><a xlink:href="tsdocs\modules\graphs_ExportGraph.html" xlink:title="&lt;TABLE&gt;" target="_blank">
<polygon fill="lightblue" stroke="transparent" points="767.5,-536 767.5,-555 915.5,-555 915.5,-536 767.5,-536"/>
<text text-anchor="start" x="777.5" y="-542.8" font-family="Times New Roman,serif" font-weight="bold" text-decoration="underline" font-size="14.00">graphs/ExportGraph</text>
</a>
</g>
<polyline fill="none" stroke="black" points="767.5,-515 915.5,-515 "/>
<polyline fill="none" stroke="black" points="915.5,-536 767.5,-536 "/>
<text text-anchor="start" x="770.5" y="-521.8" font-family="Times New Roman,serif" font-size="14.00">ExportGraph</text>
<polyline fill="none" stroke="black" points="767.5,-481 915.5,-481 "/>
<polyline fill="none" stroke="black" points="915.5,-515 767.5,-515 "/>
<text text-anchor="start" x="770.5" y="-501.8" font-family="Times New Roman,serif" font-style="italic" font-size="14.00" fill="red">graphs/GraphBase</text>
<text text-anchor="start" x="794.5" y="-487.8" font-family="Times New Roman,serif" font-size="14.00">GraphBase</text>
<polyline fill="none" stroke="black" points="767.5,-447 915.5,-447 "/>
<polyline fill="none" stroke="black" points="915.5,-481 767.5,-481 "/>
<text text-anchor="start" x="770.5" y="-467.8" font-family="Times New Roman,serif" font-style="italic" font-size="14.00" fill="red">graphs/GraphGenerator</text>
<text text-anchor="start" x="783.5" y="-453.8" font-family="Times New Roman,serif" font-size="14.00">IGraphFileGenerator</text>
<polyline fill="none" stroke="black" points="767.5,-415 915.5,-415 "/>
<polyline fill="none" stroke="black" points="915.5,-447 767.5,-447 "/>
<text text-anchor="start" x="786" y="-434.8" font-family="Times New Roman,serif" font-style="italic" font-size="14.00" fill="red">dep&#45;graph</text>
<text text-anchor="start" x="769.5" y="-420.8" font-family="Times New Roman,serif" font-size="14.00">ProgramOptions</text>
<polyline fill="none" stroke="black" points="767.5,-355 915.5,-355 "/>
<polyline fill="none" stroke="black" points="915.5,-415 767.5,-415 "/>
<text text-anchor="start" x="769.5" y="-402.8" font-family="Times New Roman,serif" font-style="italic" font-size="14.00" fill="red">ast/SharedInterfaces</text>
<text text-anchor="start" x="797.5" y="-388.8" font-family="Times New Roman,serif" font-size="14.00">ImportInfo</text>
<text text-anchor="start" x="797.5" y="-374.8" font-family="Times New Roman,serif" font-size="14.00">ExportInfo</text>
<text text-anchor="start" x="795" y="-360.8" font-family="Times New Roman,serif" font-size="14.00">ModuleInfo</text>
<polyline fill="none" stroke="black" points="767.5,-281 915.5,-281 "/>
<polyline fill="none" stroke="black" points="915.5,-355 767.5,-355 "/>
<text text-anchor="start" x="779.5" y="-342.8" font-family="Times New Roman,serif" font-style="italic" font-size="14.00" fill="red">utils/file&#45;utils</text>
<text text-anchor="start" x="770.5" y="-328.8" font-family="Times New Roman,serif" font-size="14.00">getModuleName</text>
<text text-anchor="start" x="769.5" y="-314.8" font-family="Times New Roman,serif" font-size="14.00">moduleFileName</text>
<text text-anchor="start" x="780" y="-300.8" font-family="Times New Roman,serif" font-style="italic" font-size="14.00" fill="red">utils/list&#45;utils</text>
<text text-anchor="start" x="771.5" y="-286.8" font-family="Times New Roman,serif" font-size="14.00">getExportedList</text>
<polygon fill="none" stroke="black" points="766.5,-280 766.5,-556 916.5,-556 916.5,-280 766.5,-280"/>
</g>
<!-- graphs/ExportGraph&#45;node_modules -->
<g id="node3" class="node">
<title>graphs/ExportGraph&#45;node_modules</title>
<polygon fill="lightgrey" stroke="transparent" points="795.5,-162 795.5,-181 887.5,-181 887.5,-162 795.5,-162"/>
<text text-anchor="start" x="797.5" y="-168.8" font-family="Times New Roman,serif" font-weight="bold" font-size="14.00">node_modules</text>
<text text-anchor="start" x="797.5" y="-149.8" font-family="Times New Roman,serif" font-style="italic" font-size="14.00" fill="red">path</text>
<text text-anchor="start" x="824.5" y="-149.8" font-family="Times New Roman,serif" font-size="14.00"> (path)</text>
<polygon fill="none" stroke="black" points="794.5,-142 794.5,-182 888.5,-182 888.5,-142 794.5,-142"/>
</g>
<!-- graphs/ExportGraph&#45;&gt;graphs/ExportGraph&#45;node_modules -->
<g id="edge1" class="edge">
<title>graphs/ExportGraph&#45;&gt;graphs/ExportGraph&#45;node_modules</title>
<path fill="none" stroke="black" d="M841.5,-275.89C841.5,-246.13 841.5,-217.42 841.5,-196.4"/>
<polygon fill="black" stroke="black" points="845,-196.15 841.5,-186.15 838,-196.15 845,-196.15"/>
</g>
<!-- graphs/ExportGraph&#45;&gt;graphs/GraphBase -->
<g id="edge5" class="edge">
<title>graphs/ExportGraph&#45;&gt;graphs/GraphBase</title>
<path fill="none" stroke="black" d="M758.33,-282.56C755.46,-280.25 752.52,-278.06 749.5,-276 683.86,-231.31 646.77,-272.89 574.5,-240 566.93,-236.55 559.39,-232.45 552.05,-227.96"/>
<polygon fill="black" stroke="black" points="553.84,-224.95 543.53,-222.52 550.08,-230.85 553.84,-224.95"/>
</g>
<!-- graphs/ExportGraph&#45;&gt;graphs/GraphGenerator -->
<g id="edge6" class="edge">
<title>graphs/ExportGraph&#45;&gt;graphs/GraphGenerator</title>
<path fill="none" stroke="black" d="M758.47,-289.27C755.45,-284.79 752.46,-280.35 749.5,-276 730.81,-248.5 708.96,-217.73 692.82,-195.25"/>
<polygon fill="black" stroke="black" points="695.61,-193.14 686.93,-187.06 689.93,-197.22 695.61,-193.14"/>
</g>
<!-- graphs/GraphBase&#45;node_modules -->
<g id="node5" class="node">
<title>graphs/GraphBase&#45;node_modules</title>
<polygon fill="lightgrey" stroke="transparent" points="427.5,-24 427.5,-43 519.5,-43 519.5,-24 427.5,-24"/>
<text text-anchor="start" x="429.5" y="-30.8" font-family="Times New Roman,serif" font-weight="bold" font-size="14.00">node_modules</text>
<text text-anchor="start" x="429.5" y="-11.8" font-family="Times New Roman,serif" font-style="italic" font-size="14.00" fill="red">path</text>
<text text-anchor="start" x="456.5" y="-11.8" font-family="Times New Roman,serif" font-size="14.00"> (path)</text>
<polygon fill="none" stroke="black" points="426.5,-4 426.5,-44 520.5,-44 520.5,-4 426.5,-4"/>
</g>
<!-- graphs/GraphBase&#45;&gt;graphs/GraphBase&#45;node_modules -->
<g id="edge2" class="edge">
<title>graphs/GraphBase&#45;&gt;graphs/GraphBase&#45;node_modules</title>
<path fill="none" stroke="black" d="M473.5,-83.86C473.5,-74.88 473.5,-66.11 473.5,-58.2"/>
<polygon fill="black" stroke="black" points="477,-58.01 473.5,-48.01 470,-58.01 477,-58.01"/>
</g>
<!-- graphs/NodeModulesGraph -->
<g id="node7" class="node">
<title>graphs/NodeModulesGraph</title>
<g id="a_node7_4"><a xlink:href="tsdocs\modules\graphs_NodeModulesGraph.html" xlink:title="&lt;TABLE&gt;" target="_blank">
<polygon fill="lightblue" stroke="transparent" points="9.5,-452 9.5,-471 184.5,-471 184.5,-452 9.5,-452"/>
<text text-anchor="start" x="11.5" y="-458.8" font-family="Times New Roman,serif" font-weight="bold" text-decoration="underline" font-size="14.00">graphs/NodeModulesGraph</text>
</a>
</g>
<polyline fill="none" stroke="black" points="9.5,-431 184.5,-431 "/>
<polyline fill="none" stroke="black" points="184.5,-452 9.5,-452 "/>
<text text-anchor="start" x="12.5" y="-437.8" font-family="Times New Roman,serif" font-size="14.00">NodeModulesGraph</text>
<polyline fill="none" stroke="black" points="9.5,-397 184.5,-397 "/>
<polyline fill="none" stroke="black" points="184.5,-431 9.5,-431 "/>
<text text-anchor="start" x="12.5" y="-417.8" font-family="Times New Roman,serif" font-style="italic" font-size="14.00" fill="red">graphs/GraphBase</text>
<text text-anchor="start" x="36.5" y="-403.8" font-family="Times New Roman,serif" font-size="14.00">GraphBase</text>
<polyline fill="none" stroke="black" points="9.5,-365 184.5,-365 "/>
<polyline fill="none" stroke="black" points="184.5,-397 9.5,-397 "/>
<text text-anchor="start" x="11.5" y="-384.8" font-family="Times New Roman,serif" font-style="italic" font-size="14.00" fill="red">ast/SharedInterfaces</text>
<text text-anchor="start" x="39.5" y="-370.8" font-family="Times New Roman,serif" font-size="14.00">ImportInfo</text>
<polygon fill="none" stroke="black" points="8,-364 8,-472 185,-472 185,-364 8,-364"/>
</g>
<!-- graphs/NodeModulesGraph&#45;&gt;graphs/GraphBase -->
<g id="edge7" class="edge">
<title>graphs/NodeModulesGraph&#45;&gt;graphs/GraphBase</title>
<path fill="none" stroke="black" d="M129,-359.67C147.33,-331.45 172.38,-298.71 201.5,-276 258.68,-231.42 335.97,-201.55 393.54,-183.78"/>
<polygon fill="black" stroke="black" points="394.77,-187.07 403.33,-180.82 392.74,-180.37 394.77,-187.07"/>
</g>
<!-- graphs/PackageGraph -->
<g id="node8" class="node">
<title>graphs/PackageGraph</title>
<g id="a_node8_5"><a xlink:href="tsdocs\modules\graphs_PackageGraph.html" xlink:title="&lt;TABLE&gt;" target="_blank">
<polygon fill="lightblue" stroke="transparent" points="220.5,-459 220.5,-478 363.5,-478 363.5,-459 220.5,-459"/>
<text text-anchor="start" x="222.5" y="-465.8" font-family="Times New Roman,serif" font-weight="bold" text-decoration="underline" font-size="14.00">graphs/PackageGraph</text>
</a>
</g>
<polyline fill="none" stroke="black" points="220.5,-438 363.5,-438 "/>
<polyline fill="none" stroke="black" points="363.5,-459 220.5,-459 "/>
<text text-anchor="start" x="223.5" y="-444.8" font-family="Times New Roman,serif" font-size="14.00">PackageGraph</text>
<polyline fill="none" stroke="black" points="220.5,-404 363.5,-404 "/>
<polyline fill="none" stroke="black" points="363.5,-438 220.5,-438 "/>
<text text-anchor="start" x="223.5" y="-424.8" font-family="Times New Roman,serif" font-style="italic" font-size="14.00" fill="red">graphs/GraphBase</text>
<text text-anchor="start" x="247.5" y="-410.8" font-family="Times New Roman,serif" font-size="14.00">GraphBase</text>
<polyline fill="none" stroke="black" points="220.5,-358 363.5,-358 "/>
<polyline fill="none" stroke="black" points="363.5,-404 220.5,-404 "/>
<text text-anchor="start" x="222.5" y="-391.8" font-family="Times New Roman,serif" font-style="italic" font-size="14.00" fill="red">ast/SharedInterfaces</text>
<text text-anchor="start" x="250.5" y="-377.8" font-family="Times New Roman,serif" font-size="14.00">ImportInfo</text>
<text text-anchor="start" x="248" y="-363.8" font-family="Times New Roman,serif" font-size="14.00">ModuleInfo</text>
<polygon fill="none" stroke="black" points="219,-357 219,-479 364,-479 364,-357 219,-357"/>
</g>
<!-- graphs/PackageGraph&#45;&gt;graphs/GraphBase -->
<g id="edge8" class="edge">
<title>graphs/PackageGraph&#45;&gt;graphs/GraphBase</title>
<path fill="none" stroke="black" d="M330.3,-352.8C345.64,-328.34 363.81,-300.48 381.5,-276 388.09,-266.88 395.17,-257.52 402.36,-248.28"/>
<polygon fill="black" stroke="black" points="405.28,-250.22 408.71,-240.19 399.78,-245.9 405.28,-250.22"/>
</g>
<!-- graphs/RelationsGraph -->
<g id="node9" class="node">
<title>graphs/RelationsGraph</title>
<g id="a_node9_6"><a xlink:href="tsdocs\modules\graphs_RelationsGraph.html" xlink:title="&lt;TABLE&gt;" target="_blank">
<polygon fill="lightblue" stroke="transparent" points="399.5,-489 399.5,-508 547.5,-508 547.5,-489 399.5,-489"/>
<text text-anchor="start" x="401.5" y="-495.8" font-family="Times New Roman,serif" font-weight="bold" text-decoration="underline" font-size="14.00">graphs/RelationsGraph</text>
</a>
</g>
<polyline fill="none" stroke="black" points="399.5,-468 547.5,-468 "/>
<polyline fill="none" stroke="black" points="547.5,-489 399.5,-489 "/>
<text text-anchor="start" x="402.5" y="-474.8" font-family="Times New Roman,serif" font-size="14.00">RelationsGraph</text>
<polyline fill="none" stroke="black" points="399.5,-434 547.5,-434 "/>
<polyline fill="none" stroke="black" points="547.5,-468 399.5,-468 "/>
<text text-anchor="start" x="402.5" y="-454.8" font-family="Times New Roman,serif" font-style="italic" font-size="14.00" fill="red">graphs/GraphBase</text>
<text text-anchor="start" x="426.5" y="-440.8" font-family="Times New Roman,serif" font-size="14.00">GraphBase</text>
<polyline fill="none" stroke="black" points="399.5,-388 547.5,-388 "/>
<polyline fill="none" stroke="black" points="547.5,-434 399.5,-434 "/>
<text text-anchor="start" x="401.5" y="-421.8" font-family="Times New Roman,serif" font-style="italic" font-size="14.00" fill="red">ast/SharedInterfaces</text>
<text text-anchor="start" x="429.5" y="-407.8" font-family="Times New Roman,serif" font-size="14.00">ImportInfo</text>
<text text-anchor="start" x="427" y="-393.8" font-family="Times New Roman,serif" font-size="14.00">ModuleInfo</text>
<polyline fill="none" stroke="black" points="399.5,-328 547.5,-328 "/>
<polyline fill="none" stroke="black" points="547.5,-388 399.5,-388 "/>
<text text-anchor="start" x="410.5" y="-375.8" font-family="Times New Roman,serif" font-style="italic" font-size="14.00" fill="red">utils/file&#45;utils</text>
<text text-anchor="start" x="401.5" y="-361.8" font-family="Times New Roman,serif" font-size="14.00">getModuleName</text>
<text text-anchor="start" x="411" y="-347.8" font-family="Times New Roman,serif" font-style="italic" font-size="14.00" fill="red">utils/list&#45;utils</text>
<text text-anchor="start" x="406" y="-333.8" font-family="Times New Roman,serif" font-size="14.00">getUsedByList</text>
<polygon fill="none" stroke="black" points="398.5,-327 398.5,-509 548.5,-509 548.5,-327 398.5,-327"/>
</g>
<!-- graphs/RelationsGraph&#45;&gt;graphs/GraphBase -->
<g id="edge9" class="edge">
<title>graphs/RelationsGraph&#45;&gt;graphs/GraphBase</title>
<path fill="none" stroke="black" d="M473.5,-322.78C473.5,-299.04 473.5,-273.67 473.5,-250.29"/>
<polygon fill="black" stroke="black" points="477,-250.05 473.5,-240.05 470,-250.05 477,-250.05"/>
</g>
</g>
</svg>
