<?xml version="1.0" encoding="UTF-8" standalone="no"?>
<!DOCTYPE svg PUBLIC "-//W3C//DTD SVG 1.1//EN"
 "http://www.w3.org/Graphics/SVG/1.1/DTD/svg11.dtd">
<!-- Generated by graphviz version 3.0.0 (20220226.1711)
 -->
<!-- Pages: 1 -->
<svg width="214pt" height="557pt"
 viewBox="0.00 0.00 214.00 557.00" xmlns="http://www.w3.org/2000/svg" xmlns:xlink="http://www.w3.org/1999/xlink">
<g id="graph0" class="graph" transform="scale(1 1) rotate(0) translate(4 553)">
<polygon fill="white" stroke="transparent" points="-4,4 -4,-553 210,-553 210,4 -4,4"/>
<text text-anchor="middle" x="103" y="-533.8" font-family="Times New Roman,serif" font-size="14.00">Node Modules Dependencies</text>
<!-- node&#45;modules -->
<g id="node1" class="node">
<title>node&#45;modules</title>
<polygon fill="lightgrey" stroke="transparent" points="31,-158.5 31,-179.5 175,-179.5 175,-158.5 31,-158.5"/>
<polyline fill="none" stroke="black" points="31,-158.5 175,-158.5 "/>
<text text-anchor="start" x="60.5" y="-166.3" font-family="Times New Roman,serif" font-weight="bold" font-size="14.00">node&#45;modules</text>
<text text-anchor="start" x="33" y="-145.3" font-family="Times New Roman,serif" font-size="14.00">@/dep&#45;graph</text>
<text text-anchor="start" x="33" y="-130.3" font-family="Times New Roman,serif" font-size="14.00">@typescript&#45;eslint/parser</text>
<text text-anchor="start" x="33" y="-115.3" font-family="Times New Roman,serif" font-size="14.00">@typescript&#45;eslint/types</text>
<text text-anchor="start" x="33" y="-100.3" font-family="Times New Roman,serif" font-size="14.00">child_process</text>
<text text-anchor="start" x="33" y="-85.3" font-family="Times New Roman,serif" font-size="14.00">commander</text>
<text text-anchor="start" x="33" y="-70.3" font-family="Times New Roman,serif" font-size="14.00">deepmerge</text>
<text text-anchor="start" x="33" y="-55.3" font-family="Times New Roman,serif" font-size="14.00">estraverse</text>
<text text-anchor="start" x="33" y="-40.3" font-family="Times New Roman,serif" font-size="14.00">estree</text>
<text text-anchor="start" x="33" y="-25.3" font-family="Times New Roman,serif" font-size="14.00">fs</text>
<text text-anchor="start" x="33" y="-10.3" font-family="Times New Roman,serif" font-size="14.00">path</text>
<polygon fill="none" stroke="black" points="30,-4 30,-181 176,-181 176,-4 30,-4"/>
</g>
<!-- modules -->
<g id="node2" class="node">
<title>modules</title>
<polygon fill="lightgrey" stroke="transparent" points="9,-499.5 9,-520.5 197,-520.5 197,-499.5 9,-499.5"/>
<polyline fill="none" stroke="black" points="9,-499.5 197,-499.5 "/>
<text text-anchor="start" x="77.5" y="-507.3" font-family="Times New Roman,serif" font-weight="bold" font-size="14.00">modules</text>
<text text-anchor="start" x="11" y="-486.3" font-family="Times New Roman,serif" font-size="14.00">dep&#45;graph.ts</text>
<text text-anchor="start" x="11" y="-471.3" font-family="Times New Roman,serif" font-size="14.00">DependencyGraphGenerator.ts</text>
<text text-anchor="start" x="11" y="-456.3" font-family="Times New Roman,serif" font-size="14.00">DocumentationProcessor.ts</text>
<text text-anchor="start" x="11" y="-441.3" font-family="Times New Roman,serif" font-size="14.00">GraphvizProcessor.ts</text>
<text text-anchor="start" x="11" y="-426.3" font-family="Times New Roman,serif" font-size="14.00">JsDocGenerator.ts</text>
<text text-anchor="start" x="11" y="-411.3" font-family="Times New Roman,serif" font-size="14.00">TypeDocGenerator.ts</text>
<text text-anchor="start" x="11" y="-396.3" font-family="Times New Roman,serif" font-size="14.00">ast/ASTProcessor.ts</text>
<text text-anchor="start" x="11" y="-381.3" font-family="Times New Roman,serif" font-size="14.00">ast/BaseProcessor.ts</text>
<text text-anchor="start" x="11" y="-366.3" font-family="Times New Roman,serif" font-size="14.00">ast/ClassProcessor.ts</text>
<text text-anchor="start" x="11" y="-351.3" font-family="Times New Roman,serif" font-size="14.00">ast/ExportProcessor.ts</text>
<text text-anchor="start" x="11" y="-336.3" font-family="Times New Roman,serif" font-size="14.00">ast/ImportProcessor.ts</text>
<text text-anchor="start" x="11" y="-321.3" font-family="Times New Roman,serif" font-size="14.00">generators/DiagramsGenerator.ts</text>
<text text-anchor="start" x="11" y="-306.3" font-family="Times New Roman,serif" font-size="14.00">generators/HtmlGenerator.ts</text>
<text text-anchor="start" x="11" y="-291.3" font-family="Times New Roman,serif" font-size="14.00">graphs/ClassDiagram.ts</text>
<text text-anchor="start" x="11" y="-276.3" font-family="Times New Roman,serif" font-size="14.00">graphs/ExportGraph.ts</text>
<text text-anchor="start" x="11" y="-261.3" font-family="Times New Roman,serif" font-size="14.00">graphs/GraphBase.ts</text>
<text text-anchor="start" x="11" y="-246.3" font-family="Times New Roman,serif" font-size="14.00">utils/file&#45;utils.ts</text>
<text text-anchor="start" x="11" y="-231.3" font-family="Times New Roman,serif" font-size="14.00">utils/json.ts</text>
<polygon fill="none" stroke="black" points="8,-225 8,-522 198,-522 198,-225 8,-225"/>
</g>
<!-- modules&#45;&gt;node&#45;modules -->
<g id="edge1" class="edge">
<title>modules&#45;&gt;node&#45;modules</title>
<path fill="none" stroke="black" d="M103,-220.75C103,-212.12 103,-203.55 103,-195.18"/>
<polygon fill="black" stroke="black" points="106.5,-195.07 103,-185.07 99.5,-195.07 106.5,-195.07"/>
</g>
</g>
</svg>
