<?xml version="1.0" encoding="UTF-8" standalone="no"?>
<!DOCTYPE svg PUBLIC "-//W3C//DTD SVG 1.1//EN"
 "http://www.w3.org/Graphics/SVG/1.1/DTD/svg11.dtd">
<!-- Generated by graphviz version 3.0.0 (20220226.1711)
 -->
<!-- Pages: 1 -->
<svg width="387pt" height="646pt"
 viewBox="0.00 0.00 386.50 646.00" xmlns="http://www.w3.org/2000/svg" xmlns:xlink="http://www.w3.org/1999/xlink">
<g id="graph0" class="graph" transform="scale(1 1) rotate(0) translate(4 642)">
<polygon fill="white" stroke="transparent" points="-4,4 -4,-642 382.5,-642 382.5,4 -4,4"/>
<g id="node1" class="node">
<title></title>
<g id="a_node1_0"><a xlink:href="diagrams.html#base" xlink:title="&lt;TABLE&gt;" target="_top">
<text text-anchor="start" x="275.5" y="-620.8" font-family="Times New Roman,serif" text-decoration="underline" font-size="14.00" fill="blue">./</text>
</a>
</g>
<polyline fill="none" stroke="black" points="370,-614 189,-614 "/>
<text text-anchor="start" x="244" y="-599.8" font-family="Times New Roman,serif" font-size="14.00">dep&#45;graph.ts</text>
<text text-anchor="start" x="192" y="-584.8" font-family="Times New Roman,serif" font-size="14.00">DependencyGraphGenerator.ts</text>
<text text-anchor="start" x="201.5" y="-569.8" font-family="Times New Roman,serif" font-size="14.00">DocumentationProcessor.ts</text>
<text text-anchor="start" x="218.5" y="-554.8" font-family="Times New Roman,serif" font-size="14.00">GraphvizProcessor.ts</text>
<text text-anchor="start" x="257.5" y="-539.8" font-family="Times New Roman,serif" font-size="14.00">index.ts</text>
<text text-anchor="start" x="227" y="-524.8" font-family="Times New Roman,serif" font-size="14.00">JsDocGenerator.ts</text>
<text text-anchor="start" x="218" y="-509.8" font-family="Times New Roman,serif" font-size="14.00">TypeDocGenerator.ts</text>
<polygon fill="none" stroke="black" points="187.5,-502 187.5,-634 370.5,-634 370.5,-502 187.5,-502"/>
</g>
<!-- ast -->
<g id="node2" class="node">
<title>ast</title>
<g id="a_node2_1"><a xlink:href="diagrams.html#ast" xlink:title="&lt;TABLE&gt;" target="_top">
<text text-anchor="start" x="168.5" y="-268.3" font-family="Times New Roman,serif" text-decoration="underline" font-size="14.00" fill="blue">ast</text>
</a>
</g>
<polyline fill="none" stroke="black" points="234,-261.5 119,-261.5 "/>
<text text-anchor="start" x="127.5" y="-247.3" font-family="Times New Roman,serif" font-size="14.00">ASTProcessor.ts</text>
<text text-anchor="start" x="127.5" y="-232.3" font-family="Times New Roman,serif" font-size="14.00">BaseProcessor.ts</text>
<text text-anchor="start" x="125.5" y="-217.3" font-family="Times New Roman,serif" font-size="14.00">ClassProcessor.ts</text>
<text text-anchor="start" x="129" y="-202.3" font-family="Times New Roman,serif" font-size="14.00">ErrorCollector.ts</text>
<text text-anchor="start" x="122" y="-187.3" font-family="Times New Roman,serif" font-size="14.00">ExportProcessor.ts</text>
<text text-anchor="start" x="122" y="-172.3" font-family="Times New Roman,serif" font-size="14.00">ImportProcessor.ts</text>
<text text-anchor="start" x="122.5" y="-157.3" font-family="Times New Roman,serif" font-size="14.00">SharedInterfaces.ts</text>
<text text-anchor="start" x="123.5" y="-142.3" font-family="Times New Roman,serif" font-size="14.00">UsageProcessor.ts</text>
<polygon fill="none" stroke="black" points="117.5,-135 117.5,-282 234.5,-282 234.5,-135 117.5,-135"/>
</g>
<!-- &#45;&gt;ast -->
<g id="edge4" class="edge">
<title>&#45;&gt;ast</title>
<path fill="none" stroke="black" d="M213.66,-497.84C205.84,-486.54 198.91,-474.44 194,-462 173.32,-409.6 168.84,-346.38 169.52,-296.31"/>
<polygon fill="black" stroke="black" points="173.02,-296.22 169.73,-286.15 166.02,-296.08 173.02,-296.22"/>
</g>
<!-- generators -->
<g id="node3" class="node">
<title>generators</title>
<g id="a_node3_2"><a xlink:href="diagrams.html#generators" xlink:title="&lt;TABLE&gt;" target="_top">
<text text-anchor="start" x="44" y="-406.8" font-family="Times New Roman,serif" text-decoration="underline" font-size="14.00" fill="blue">generators</text>
</a>
</g>
<polyline fill="none" stroke="black" points="137,-400 9,-400 "/>
<text text-anchor="start" x="12" y="-385.8" font-family="Times New Roman,serif" font-size="14.00">DiagramsGenerator.ts</text>
<text text-anchor="start" x="24.5" y="-370.8" font-family="Times New Roman,serif" font-size="14.00">HtmlGenerator.ts</text>
<polygon fill="none" stroke="black" points="8,-363.5 8,-420.5 138,-420.5 138,-363.5 8,-363.5"/>
</g>
<!-- &#45;&gt;generators -->
<g id="edge1" class="edge">
<title>&#45;&gt;generators</title>
<path fill="none" stroke="black" d="M197.29,-497.98C170.46,-475.32 141.61,-450.96 118.47,-431.41"/>
<polygon fill="black" stroke="black" points="120.44,-428.49 110.54,-424.71 115.92,-433.83 120.44,-428.49"/>
</g>
<!-- graphs -->
<g id="node4" class="node">
<title>graphs</title>
<g id="a_node4_3"><a xlink:href="diagrams.html#graphs" xlink:title="&lt;TABLE&gt;" target="_top">
<text text-anchor="start" x="260.5" y="-444.8" font-family="Times New Roman,serif" text-decoration="underline" font-size="14.00" fill="blue">graphs</text>
</a>
</g>
<polyline fill="none" stroke="black" points="347,-438 212,-438 "/>
<text text-anchor="start" x="234" y="-423.8" font-family="Times New Roman,serif" font-size="14.00">ClassDiagram.ts</text>
<text text-anchor="start" x="235.5" y="-408.8" font-family="Times New Roman,serif" font-size="14.00">ExportGraph.ts</text>
<text text-anchor="start" x="241.5" y="-393.8" font-family="Times New Roman,serif" font-size="14.00">GraphBase.ts</text>
<text text-anchor="start" x="227" y="-378.8" font-family="Times New Roman,serif" font-size="14.00">GraphGenerator.ts</text>
<text text-anchor="start" x="215" y="-363.8" font-family="Times New Roman,serif" font-size="14.00">NodeModulesGraph.ts</text>
<text text-anchor="start" x="231.5" y="-348.8" font-family="Times New Roman,serif" font-size="14.00">PackageGraph.ts</text>
<text text-anchor="start" x="229" y="-333.8" font-family="Times New Roman,serif" font-size="14.00">RelationsGraph.ts</text>
<polygon fill="none" stroke="black" points="210.5,-326 210.5,-458 347.5,-458 347.5,-326 210.5,-326"/>
</g>
<!-- &#45;&gt;graphs -->
<g id="edge3" class="edge">
<title>&#45;&gt;graphs</title>
<path fill="none" stroke="black" d="M272.38,-497.98C272.26,-489.52 272.22,-480.83 272.27,-472.24"/>
<polygon fill="black" stroke="black" points="275.77,-472.26 272.38,-462.22 268.77,-472.18 275.77,-472.26"/>
</g>
<!-- utils -->
<g id="node5" class="node">
<title>utils</title>
<g id="a_node5_4"><a xlink:href="diagrams.html#utils" xlink:title="&lt;TABLE&gt;" target="_top">
<text text-anchor="start" x="164.5" y="-77.3" font-family="Times New Roman,serif" text-decoration="underline" font-size="14.00" fill="blue">utils</text>
</a>
</g>
<polyline fill="none" stroke="black" points="208,-70.5 144,-70.5 "/>
<text text-anchor="start" x="147" y="-56.3" font-family="Times New Roman,serif" font-size="14.00">file&#45;utils.ts</text>
<text text-anchor="start" x="149" y="-41.3" font-family="Times New Roman,serif" font-size="14.00">globals.ts</text>
<text text-anchor="start" x="157.5" y="-26.3" font-family="Times New Roman,serif" font-size="14.00">json.ts</text>
<text text-anchor="start" x="147.5" y="-11.3" font-family="Times New Roman,serif" font-size="14.00">list&#45;utils.ts</text>
<polygon fill="none" stroke="black" points="143,-4 143,-91 209,-91 209,-4 143,-4"/>
</g>
<!-- &#45;&gt;utils -->
<g id="edge2" class="edge">
<title>&#45;&gt;utils</title>
<path fill="none" stroke="black" d="M346.12,-497.93C353.83,-486.65 360.52,-474.54 365,-462 385.93,-403.4 377.8,-382.89 365,-322 345.93,-231.25 337.83,-204.28 281,-131 265.72,-111.29 244.74,-93.58 225.55,-79.66"/>
<polygon fill="black" stroke="black" points="227.35,-76.66 217.17,-73.74 223.31,-82.37 227.35,-76.66"/>
</g>
<!-- ast&#45;&gt;utils -->
<g id="edge5" class="edge">
<title>ast&#45;&gt;utils</title>
<path fill="none" stroke="black" d="M169.25,-130.79C169.23,-122.2 169.31,-113.55 169.5,-105.27"/>
<polygon fill="black" stroke="black" points="173.01,-105.1 169.8,-95 166.01,-104.9 173.01,-105.1"/>
</g>
<!-- generators&#45;&gt;ast -->
<g id="edge7" class="edge">
<title>generators&#45;&gt;ast</title>
<path fill="none" stroke="black" d="M90.94,-359.39C101.16,-341.37 114.51,-317.86 127.59,-294.81"/>
<polygon fill="black" stroke="black" points="130.69,-296.44 132.58,-286.01 124.6,-292.98 130.69,-296.44"/>
</g>
<!-- generators&#45;&gt;utils -->
<g id="edge6" class="edge">
<title>generators&#45;&gt;utils</title>
<path fill="none" stroke="black" d="M70.08,-359.34C66.74,-308.68 65.56,-207.32 100,-131 106.57,-116.44 116.73,-102.74 127.51,-90.84"/>
<polygon fill="black" stroke="black" points="130.32,-92.97 134.65,-83.3 125.24,-88.15 130.32,-92.97"/>
</g>
<!-- graphs&#45;&gt; -->
<g id="edge9" class="edge">
<title>graphs&#45;&gt;</title>
<path fill="none" stroke="black" d="M285.62,-462.22C285.75,-470.68 285.78,-479.38 285.72,-487.97"/>
<polygon fill="black" stroke="black" points="282.22,-487.94 285.62,-497.98 289.22,-488.02 282.22,-487.94"/>
</g>
<!-- graphs&#45;&gt;ast -->
<g id="edge8" class="edge">
<title>graphs&#45;&gt;ast</title>
<path fill="none" stroke="black" d="M239.77,-321.86C234.78,-313.07 229.63,-304 224.51,-294.99"/>
<polygon fill="black" stroke="black" points="227.4,-292.98 219.42,-286.02 221.31,-296.44 227.4,-292.98"/>
</g>
<!-- graphs&#45;&gt;utils -->
<g id="edge10" class="edge">
<title>graphs&#45;&gt;utils</title>
<path fill="none" stroke="black" d="M283.42,-321.97C284.22,-267.73 279.3,-191.5 252,-131 245.43,-116.44 235.27,-102.74 224.49,-90.84"/>
<polygon fill="black" stroke="black" points="226.76,-88.15 217.35,-83.3 221.68,-92.97 226.76,-88.15"/>
</g>
<!-- utils&#45;&gt;ast -->
<g id="edge11" class="edge">
<title>utils&#45;&gt;ast</title>
<path fill="none" stroke="black" d="M182.2,-95C182.49,-103.17 182.66,-111.91 182.73,-120.77"/>
<polygon fill="black" stroke="black" points="179.23,-120.8 182.75,-130.79 186.23,-120.79 179.23,-120.8"/>
</g>
</g>
</svg>
