<?xml version="1.0" encoding="UTF-8" standalone="no"?>
<!DOCTYPE svg PUBLIC "-//W3C//DTD SVG 1.1//EN"
 "http://www.w3.org/Graphics/SVG/1.1/DTD/svg11.dtd">
<!-- Generated by graphviz version 3.0.0 (20220226.1711)
 -->
<!-- Pages: 1 -->
<svg width="385pt" height="638pt"
 viewBox="0.00 0.00 384.87 638.00" xmlns="http://www.w3.org/2000/svg" xmlns:xlink="http://www.w3.org/1999/xlink">
<g id="graph0" class="graph" transform="scale(1 1) rotate(0) translate(4 634)">
<polygon fill="white" stroke="transparent" points="-4,4 -4,-634 380.87,-634 380.87,4 -4,4"/>
<g id="node1" class="node">
<title></title>
<g id="a_node1_0"><a xlink:href="diagrams.html#base" xlink:title="&lt;TABLE&gt;" target="_top">
<text text-anchor="start" x="220.5" y="-612.8" font-family="Times New Roman,serif" text-decoration="underline" font-size="14.00" fill="blue">./</text>
</a>
</g>
<text text-anchor="start" x="189" y="-592.8" font-family="Times New Roman,serif" font-size="14.00">dep&#45;graph.ts</text>
<text text-anchor="start" x="137" y="-577.8" font-family="Times New Roman,serif" font-size="14.00">DependencyGraphGenerator.ts</text>
<text text-anchor="start" x="147.5" y="-562.8" font-family="Times New Roman,serif" font-size="14.00">DocumentationGenerator.ts</text>
<text text-anchor="start" x="163.5" y="-547.8" font-family="Times New Roman,serif" font-size="14.00">GraphvizProcessor.ts</text>
<text text-anchor="start" x="202.5" y="-532.8" font-family="Times New Roman,serif" font-size="14.00">index.ts</text>
<text text-anchor="start" x="172" y="-517.8" font-family="Times New Roman,serif" font-size="14.00">JsDocGenerator.ts</text>
<text text-anchor="start" x="163" y="-502.8" font-family="Times New Roman,serif" font-size="14.00">TypeDocGenerator.ts</text>
<polygon fill="none" stroke="black" points="133.5,-496 133.5,-626 314.5,-626 314.5,-496 133.5,-496"/>
</g>
<!-- ast -->
<g id="node2" class="node">
<title>ast</title>
<g id="a_node2_1"><a xlink:href="diagrams.html#ast" xlink:title="&lt;TABLE&gt;" target="_top">
<text text-anchor="start" x="166.5" y="-264.3" font-family="Times New Roman,serif" text-decoration="underline" font-size="14.00" fill="blue">ast</text>
</a>
</g>
<text text-anchor="start" x="125.5" y="-244.3" font-family="Times New Roman,serif" font-size="14.00">ASTProcessor.ts</text>
<text text-anchor="start" x="125.5" y="-229.3" font-family="Times New Roman,serif" font-size="14.00">BaseProcessor.ts</text>
<text text-anchor="start" x="123.5" y="-214.3" font-family="Times New Roman,serif" font-size="14.00">ClassProcessor.ts</text>
<text text-anchor="start" x="127" y="-199.3" font-family="Times New Roman,serif" font-size="14.00">ErrorCollector.ts</text>
<text text-anchor="start" x="120" y="-184.3" font-family="Times New Roman,serif" font-size="14.00">ExportProcessor.ts</text>
<text text-anchor="start" x="120" y="-169.3" font-family="Times New Roman,serif" font-size="14.00">ImportProcessor.ts</text>
<text text-anchor="start" x="120.5" y="-154.3" font-family="Times New Roman,serif" font-size="14.00">SharedInterfaces.ts</text>
<text text-anchor="start" x="121.5" y="-139.3" font-family="Times New Roman,serif" font-size="14.00">UsageProcessor.ts</text>
<polygon fill="none" stroke="black" points="116.5,-133 116.5,-278 231.5,-278 231.5,-133 116.5,-133"/>
</g>
<!-- &#45;&gt;ast -->
<g id="edge4" class="edge">
<title>&#45;&gt;ast</title>
<path fill="none" stroke="black" d="M200.6,-491.74C197.24,-479.94 194.19,-467.7 192,-456 181.9,-402.1 177.38,-340.67 175.4,-292.26"/>
<polygon fill="black" stroke="black" points="178.89,-291.99 175.01,-282.13 171.9,-292.26 178.89,-291.99"/>
</g>
<!-- generators -->
<g id="node3" class="node">
<title>generators</title>
<g id="a_node3_2"><a xlink:href="diagrams.html#generators" xlink:title="&lt;TABLE&gt;" target="_top">
<text text-anchor="start" x="43" y="-400.8" font-family="Times New Roman,serif" text-decoration="underline" font-size="14.00" fill="blue">generators</text>
</a>
</g>
<text text-anchor="start" x="11" y="-380.8" font-family="Times New Roman,serif" font-size="14.00">DiagramsGenerator.ts</text>
<text text-anchor="start" x="23.5" y="-365.8" font-family="Times New Roman,serif" font-size="14.00">HtmlGenerator.ts</text>
<polygon fill="none" stroke="black" points="8,-359.5 8,-414.5 136,-414.5 136,-359.5 8,-359.5"/>
</g>
<!-- &#45;&gt;generators -->
<g id="edge1" class="edge">
<title>&#45;&gt;generators</title>
<path fill="none" stroke="black" d="M163.49,-491.53C143.84,-469.3 122.75,-445.43 105.78,-426.23"/>
<polygon fill="black" stroke="black" points="108.26,-423.74 99.01,-418.57 103.01,-428.38 108.26,-423.74"/>
</g>
<!-- graphs -->
<g id="node4" class="node">
<title>graphs</title>
<g id="a_node4_3"><a xlink:href="diagrams.html#graphs" xlink:title="&lt;TABLE&gt;" target="_top">
<text text-anchor="start" x="257.5" y="-438.8" font-family="Times New Roman,serif" text-decoration="underline" font-size="14.00" fill="blue">graphs</text>
</a>
</g>
<text text-anchor="start" x="231" y="-418.8" font-family="Times New Roman,serif" font-size="14.00">ClassDiagram.ts</text>
<text text-anchor="start" x="232.5" y="-403.8" font-family="Times New Roman,serif" font-size="14.00">ExportGraph.ts</text>
<text text-anchor="start" x="238.5" y="-388.8" font-family="Times New Roman,serif" font-size="14.00">GraphBase.ts</text>
<text text-anchor="start" x="224" y="-373.8" font-family="Times New Roman,serif" font-size="14.00">GraphGenerator.ts</text>
<text text-anchor="start" x="212" y="-358.8" font-family="Times New Roman,serif" font-size="14.00">NodeModulesGraph.ts</text>
<text text-anchor="start" x="228.5" y="-343.8" font-family="Times New Roman,serif" font-size="14.00">PackageGraph.ts</text>
<text text-anchor="start" x="226" y="-328.8" font-family="Times New Roman,serif" font-size="14.00">RelationsGraph.ts</text>
<polygon fill="none" stroke="black" points="208.5,-322 208.5,-452 343.5,-452 343.5,-322 208.5,-322"/>
</g>
<!-- &#45;&gt;graphs -->
<g id="edge3" class="edge">
<title>&#45;&gt;graphs</title>
<path fill="none" stroke="black" d="M244.7,-491.53C247.25,-483.09 249.88,-474.41 252.47,-465.84"/>
<polygon fill="black" stroke="black" points="255.83,-466.82 255.37,-456.24 249.13,-464.8 255.83,-466.82"/>
</g>
<!-- utils -->
<g id="node5" class="node">
<title>utils</title>
<g id="a_node5_4"><a xlink:href="diagrams.html#utils" xlink:title="&lt;TABLE&gt;" target="_top">
<text text-anchor="start" x="162.5" y="-75.3" font-family="Times New Roman,serif" text-decoration="underline" font-size="14.00" fill="blue">utils</text>
</a>
</g>
<text text-anchor="start" x="145" y="-55.3" font-family="Times New Roman,serif" font-size="14.00">file&#45;utils.ts</text>
<text text-anchor="start" x="147" y="-40.3" font-family="Times New Roman,serif" font-size="14.00">globals.ts</text>
<text text-anchor="start" x="155.5" y="-25.3" font-family="Times New Roman,serif" font-size="14.00">json.ts</text>
<text text-anchor="start" x="145.5" y="-10.3" font-family="Times New Roman,serif" font-size="14.00">list&#45;utils.ts</text>
<polygon fill="none" stroke="black" points="142,-4 142,-89 206,-89 206,-4 142,-4"/>
</g>
<!-- &#45;&gt;utils -->
<g id="edge2" class="edge">
<title>&#45;&gt;utils</title>
<path fill="none" stroke="black" d="M322.53,-503.54C338.07,-490.05 351.97,-474.19 361,-456 388.27,-401.06 373.6,-378.03 361,-318 342.15,-228.21 334.25,-201.48 278,-129 262.69,-109.27 241.59,-91.58 222.39,-77.76"/>
<polygon fill="black" stroke="black" points="224.21,-74.76 214.02,-71.89 220.19,-80.5 224.21,-74.76"/>
</g>
<!-- ast&#45;&gt;utils -->
<g id="edge5" class="edge">
<title>ast&#45;&gt;utils</title>
<path fill="none" stroke="black" d="M167.25,-128.76C167.23,-120.27 167.31,-111.73 167.5,-103.56"/>
<polygon fill="black" stroke="black" points="171,-103.51 167.8,-93.42 164.01,-103.31 171,-103.51"/>
</g>
<!-- generators&#45;&gt;ast -->
<g id="edge7" class="edge">
<title>generators&#45;&gt;ast</title>
<path fill="none" stroke="black" d="M89.53,-355.14C99.69,-337.28 113.01,-313.84 126.06,-290.87"/>
<polygon fill="black" stroke="black" points="129.14,-292.53 131.04,-282.1 123.06,-289.07 129.14,-292.53"/>
</g>
<!-- generators&#45;&gt;utils -->
<g id="edge6" class="edge">
<title>generators&#45;&gt;utils</title>
<path fill="none" stroke="black" d="M69.19,-355.11C65.95,-305.17 64.83,-204.64 99,-129 105.62,-114.34 115.93,-100.55 126.8,-88.64"/>
<polygon fill="black" stroke="black" points="129.63,-90.74 134,-81.09 124.56,-85.91 129.63,-90.74"/>
</g>
<!-- graphs&#45;&gt;ast -->
<g id="edge8" class="edge">
<title>graphs&#45;&gt;ast</title>
<path fill="none" stroke="black" d="M237.29,-317.88C232.31,-309.11 227.15,-300.03 222.04,-291.03"/>
<polygon fill="black" stroke="black" points="224.93,-289.04 216.94,-282.07 218.84,-292.49 224.93,-289.04"/>
</g>
<!-- graphs&#45;&gt;utils -->
<g id="edge9" class="edge">
<title>graphs&#45;&gt;utils</title>
<path fill="none" stroke="black" d="M280.26,-317.77C280.97,-264.15 276.01,-188.8 249,-129 242.38,-114.34 232.07,-100.55 221.2,-88.64"/>
<polygon fill="black" stroke="black" points="223.44,-85.91 214,-81.09 218.37,-90.74 223.44,-85.91"/>
</g>
<!-- utils&#45;&gt;ast -->
<g id="edge10" class="edge">
<title>utils&#45;&gt;ast</title>
<path fill="none" stroke="black" d="M180.2,-93.42C180.49,-101.4 180.66,-109.93 180.72,-118.58"/>
<polygon fill="black" stroke="black" points="177.22,-118.77 180.75,-128.76 184.22,-118.75 177.22,-118.77"/>
</g>
</g>
</svg>
