<?xml version="1.0" encoding="UTF-8" standalone="no"?>
<!DOCTYPE svg PUBLIC "-//W3C//DTD SVG 1.1//EN"
 "http://www.w3.org/Graphics/SVG/1.1/DTD/svg11.dtd">
<!-- Generated by graphviz version 3.0.0 (20220226.1711)
 -->
<!-- Pages: 1 -->
<svg width="426pt" height="539pt"
 viewBox="0.00 0.00 426.00 539.00" xmlns="http://www.w3.org/2000/svg" xmlns:xlink="http://www.w3.org/1999/xlink">
<g id="graph0" class="graph" transform="scale(1 1) rotate(0) translate(4 535)">
<polygon fill="white" stroke="transparent" points="-4,4 -4,-535 422,-535 422,4 -4,4"/>
<text text-anchor="middle" x="209" y="-515.8" font-family="Times New Roman,serif" font-size="14.00">utils Module Exports</text>
<!-- utils/file&#45;utils -->
<g id="node1" class="node">
<title>utils/file&#45;utils</title>
<polygon fill="lightblue" stroke="transparent" points="46,-291.5 46,-310.5 185,-310.5 185,-291.5 46,-291.5"/>
<text text-anchor="start" x="76" y="-298.3" font-family="Times New Roman,serif" font-weight="bold" font-size="14.00">utils/file&#45;utils</text>
<polyline fill="none" stroke="black" points="46,-135.5 185,-135.5 "/>
<polyline fill="none" stroke="black" points="185,-291.5 46,-291.5 "/>
<text text-anchor="start" x="88.5" y="-277.3" font-family="Times New Roman,serif" font-size="14.00">cleanPath</text>
<text text-anchor="start" x="49" y="-262.3" font-family="Times New Roman,serif" font-size="14.00">getDirectoriesRecursive</text>
<text text-anchor="start" x="82" y="-247.3" font-family="Times New Roman,serif" font-size="14.00">getFilename</text>
<text text-anchor="start" x="94" y="-232.3" font-family="Times New Roman,serif" font-size="14.00">getFiles</text>
<text text-anchor="start" x="69.5" y="-217.3" font-family="Times New Roman,serif" font-size="14.00">getModuleName</text>
<text text-anchor="start" x="58" y="-202.3" font-family="Times New Roman,serif" font-size="14.00">getRelativePathParts</text>
<text text-anchor="start" x="68.5" y="-187.3" font-family="Times New Roman,serif" font-size="14.00">moduleFileName</text>
<text text-anchor="start" x="70" y="-172.3" font-family="Times New Roman,serif" font-size="14.00">ModulePathInfo</text>
<text text-anchor="start" x="67" y="-157.3" font-family="Times New Roman,serif" font-size="14.00">removeExtension</text>
<text text-anchor="start" x="78.5" y="-142.3" font-family="Times New Roman,serif" font-size="14.00">safeWriteFile</text>
<polyline fill="none" stroke="black" points="46,-101.5 185,-101.5 "/>
<polyline fill="none" stroke="black" points="185,-135.5 46,-135.5 "/>
<text text-anchor="start" x="49" y="-122.3" font-family="Times New Roman,serif" font-style="italic" font-size="14.00" fill="red">utils/globals</text>
<text text-anchor="start" x="51.5" y="-108.3" font-family="Times New Roman,serif" font-size="14.00">EXT_LIST</text>
<polygon fill="none" stroke="black" points="44.5,-101 44.5,-312 185.5,-312 185.5,-101 44.5,-101"/>
</g>
<!-- utils/file&#45;utils&#45;node_modules -->
<g id="node2" class="node">
<title>utils/file&#45;utils&#45;node_modules</title>
<polygon fill="lightgrey" stroke="transparent" points="9,-36.5 9,-55.5 101,-55.5 101,-36.5 9,-36.5"/>
<text text-anchor="start" x="11" y="-43.3" font-family="Times New Roman,serif" font-weight="bold" font-size="14.00">node_modules</text>
<text text-anchor="start" x="26" y="-24.3" font-family="Times New Roman,serif" font-style="italic" font-size="14.00" fill="red">fs</text>
<text text-anchor="start" x="36" y="-24.3" font-family="Times New Roman,serif" font-size="14.00"> (fs)</text>
<text text-anchor="start" x="11" y="-10.3" font-family="Times New Roman,serif" font-style="italic" font-size="14.00" fill="red">path</text>
<text text-anchor="start" x="38" y="-10.3" font-family="Times New Roman,serif" font-size="14.00"> (path)</text>
<polygon fill="none" stroke="black" points="8,-4 8,-57 102,-57 102,-4 8,-4"/>
</g>
<!-- utils/file&#45;utils&#45;&gt;utils/file&#45;utils&#45;node_modules -->
<g id="edge1" class="edge">
<title>utils/file&#45;utils&#45;&gt;utils/file&#45;utils&#45;node_modules</title>
<path fill="none" stroke="black" d="M77.51,-96.79C74.38,-87.71 71.37,-78.96 68.62,-70.99"/>
<polygon fill="black" stroke="black" points="71.85,-69.64 65.29,-61.33 65.24,-71.92 71.85,-69.64"/>
</g>
<!-- utils/globals -->
<g id="node3" class="node">
<title>utils/globals</title>
<polygon fill="lightblue" stroke="transparent" points="138,-31.5 138,-50.5 215,-50.5 215,-31.5 138,-31.5"/>
<text text-anchor="start" x="140" y="-38.3" font-family="Times New Roman,serif" font-weight="bold" font-size="14.00">utils/globals</text>
<polyline fill="none" stroke="black" points="138,-10.5 215,-10.5 "/>
<polyline fill="none" stroke="black" points="215,-31.5 138,-31.5 "/>
<text text-anchor="start" x="141" y="-17.3" font-family="Times New Roman,serif" font-size="14.00">EXT_LIST</text>
<polygon fill="none" stroke="black" points="136.5,-9.5 136.5,-51.5 215.5,-51.5 215.5,-9.5 136.5,-9.5"/>
</g>
<!-- utils/file&#45;utils&#45;&gt;utils/globals -->
<g id="edge3" class="edge">
<title>utils/file&#45;utils&#45;&gt;utils/globals</title>
<path fill="none" stroke="black" d="M153.11,-96.79C157.07,-85.49 160.85,-74.71 164.16,-65.28"/>
<polygon fill="black" stroke="black" points="167.54,-66.22 167.54,-55.63 160.93,-63.9 167.54,-66.22"/>
</g>
<!-- utils/json -->
<g id="node4" class="node">
<title>utils/json</title>
<polygon fill="lightblue" stroke="transparent" points="151,-463 151,-482 231,-482 231,-463 151,-463"/>
<text text-anchor="start" x="163.5" y="-469.8" font-family="Times New Roman,serif" font-weight="bold" font-size="14.00">utils/json</text>
<polyline fill="none" stroke="black" points="151,-412 231,-412 "/>
<polyline fill="none" stroke="black" points="231,-463 151,-463 "/>
<text text-anchor="start" x="157.5" y="-448.8" font-family="Times New Roman,serif" font-size="14.00">default</text>
<text text-anchor="start" x="159" y="-433.8" font-family="Times New Roman,serif" font-size="14.00">jsonIn</text>
<text text-anchor="start" x="154" y="-418.8" font-family="Times New Roman,serif" font-size="14.00">jsonOut</text>
<polyline fill="none" stroke="black" points="151,-378 231,-378 "/>
<polyline fill="none" stroke="black" points="231,-412 151,-412 "/>
<text text-anchor="start" x="154" y="-398.8" font-family="Times New Roman,serif" font-style="italic" font-size="14.00" fill="red">utils/file&#45;utils</text>
<text text-anchor="start" x="154" y="-384.8" font-family="Times New Roman,serif" font-size="14.00">safeWriteFile</text>
<polygon fill="none" stroke="black" points="150,-377 150,-483 232,-483 232,-377 150,-377"/>
</g>
<!-- utils/json&#45;&gt;utils/file&#45;utils -->
<g id="edge4" class="edge">
<title>utils/json&#45;&gt;utils/file&#45;utils</title>
<path fill="none" stroke="black" d="M171.72,-372.82C166.76,-358.36 161.23,-342.24 155.62,-325.89"/>
<polygon fill="black" stroke="black" points="158.87,-324.58 152.32,-316.26 152.25,-326.85 158.87,-324.58"/>
</g>
<!-- utils/json&#45;node_modules -->
<g id="node5" class="node">
<title>utils/json&#45;node_modules</title>
<polygon fill="lightgrey" stroke="transparent" points="221,-206.5 221,-225.5 313,-225.5 313,-206.5 221,-206.5"/>
<text text-anchor="start" x="223" y="-213.3" font-family="Times New Roman,serif" font-weight="bold" font-size="14.00">node_modules</text>
<text text-anchor="start" x="223" y="-194.3" font-family="Times New Roman,serif" font-style="italic" font-size="14.00" fill="red">fs</text>
<text text-anchor="start" x="233" y="-194.3" font-family="Times New Roman,serif" font-size="14.00"> (fs)</text>
<polygon fill="none" stroke="black" points="220,-186.5 220,-226.5 314,-226.5 314,-186.5 220,-186.5"/>
</g>
<!-- utils/json&#45;&gt;utils/json&#45;node_modules -->
<g id="edge2" class="edge">
<title>utils/json&#45;&gt;utils/json&#45;node_modules</title>
<path fill="none" stroke="black" d="M210.28,-372.82C224.65,-330.94 243.78,-275.19 255.74,-240.32"/>
<polygon fill="black" stroke="black" points="259.13,-241.23 259.06,-230.64 252.5,-238.96 259.13,-241.23"/>
</g>
<!-- utils/list&#45;utils -->
<g id="node6" class="node">
<title>utils/list&#45;utils</title>
<polygon fill="lightblue" stroke="transparent" points="267,-484 267,-503 409,-503 409,-484 267,-484"/>
<text text-anchor="start" x="299" y="-490.8" font-family="Times New Roman,serif" font-weight="bold" font-size="14.00">utils/list&#45;utils</text>
<polyline fill="none" stroke="black" points="267,-403 409,-403 "/>
<polyline fill="none" stroke="black" points="409,-484 267,-484 "/>
<text text-anchor="start" x="296" y="-469.8" font-family="Times New Roman,serif" font-size="14.00">getDependsOn</text>
<text text-anchor="start" x="293" y="-454.8" font-family="Times New Roman,serif" font-size="14.00">getExportedList</text>
<text text-anchor="start" x="289.5" y="-439.8" font-family="Times New Roman,serif" font-size="14.00">getNodeModules</text>
<text text-anchor="start" x="270" y="-424.8" font-family="Times New Roman,serif" font-size="14.00">getUniqueNodeModules</text>
<text text-anchor="start" x="296.5" y="-409.8" font-family="Times New Roman,serif" font-size="14.00">getUsedByList</text>
<polyline fill="none" stroke="black" points="267,-357 409,-357 "/>
<polyline fill="none" stroke="black" points="409,-403 267,-403 "/>
<text text-anchor="start" x="269" y="-390.8" font-family="Times New Roman,serif" font-style="italic" font-size="14.00" fill="red">ast/SharedInterfaces</text>
<text text-anchor="start" x="297" y="-376.8" font-family="Times New Roman,serif" font-size="14.00">ImportInfo</text>
<text text-anchor="start" x="297" y="-362.8" font-family="Times New Roman,serif" font-size="14.00">ExportInfo</text>
<polygon fill="none" stroke="black" points="266,-356 266,-504 410,-504 410,-356 266,-356"/>
</g>
</g>
</svg>
