<?xml version="1.0" encoding="UTF-8" standalone="no"?>
<!DOCTYPE svg PUBLIC "-//W3C//DTD SVG 1.1//EN"
 "http://www.w3.org/Graphics/SVG/1.1/DTD/svg11.dtd">
<!-- Generated by graphviz version 3.0.0 (20220226.1711)
 -->
<!-- Pages: 1 -->
<svg width="426pt" height="554pt"
 viewBox="0.00 0.00 426.00 554.00" xmlns="http://www.w3.org/2000/svg" xmlns:xlink="http://www.w3.org/1999/xlink">
<g id="graph0" class="graph" transform="scale(1 1) rotate(0) translate(4 550)">
<polygon fill="white" stroke="transparent" points="-4,4 -4,-550 422,-550 422,4 -4,4"/>
<text text-anchor="middle" x="209" y="-530.8" font-family="Times New Roman,serif" font-size="14.00">utils Module Exports</text>
<!-- utils/file&#45;utils -->
<g id="node1" class="node">
<title>utils/file&#45;utils</title>
<polygon fill="lightblue" stroke="transparent" points="46,-307 46,-326 185,-326 185,-307 46,-307"/>
<text text-anchor="start" x="76" y="-313.8" font-family="Times New Roman,serif" font-weight="bold" font-size="14.00">utils/file&#45;utils</text>
<polyline fill="none" stroke="black" points="46,-136 185,-136 "/>
<polyline fill="none" stroke="black" points="185,-307 46,-307 "/>
<text text-anchor="start" x="88.5" y="-292.8" font-family="Times New Roman,serif" font-size="14.00">cleanPath</text>
<text text-anchor="start" x="49" y="-277.8" font-family="Times New Roman,serif" font-size="14.00">getDirectoriesRecursive</text>
<text text-anchor="start" x="82" y="-262.8" font-family="Times New Roman,serif" font-size="14.00">getFilename</text>
<text text-anchor="start" x="94" y="-247.8" font-family="Times New Roman,serif" font-size="14.00">getFiles</text>
<text text-anchor="start" x="64.5" y="-232.8" font-family="Times New Roman,serif" font-size="14.00">getGraphFilename</text>
<text text-anchor="start" x="69.5" y="-217.8" font-family="Times New Roman,serif" font-size="14.00">getModuleName</text>
<text text-anchor="start" x="58" y="-202.8" font-family="Times New Roman,serif" font-size="14.00">getRelativePathParts</text>
<text text-anchor="start" x="68.5" y="-187.8" font-family="Times New Roman,serif" font-size="14.00">moduleFileName</text>
<text text-anchor="start" x="70" y="-172.8" font-family="Times New Roman,serif" font-size="14.00">ModulePathInfo</text>
<text text-anchor="start" x="67" y="-157.8" font-family="Times New Roman,serif" font-size="14.00">removeExtension</text>
<text text-anchor="start" x="78.5" y="-142.8" font-family="Times New Roman,serif" font-size="14.00">safeWriteFile</text>
<polyline fill="none" stroke="black" points="46,-102 185,-102 "/>
<polyline fill="none" stroke="black" points="185,-136 46,-136 "/>
<text text-anchor="start" x="49" y="-122.8" font-family="Times New Roman,serif" font-style="italic" font-size="14.00" fill="red">utils/globals</text>
<text text-anchor="start" x="51.5" y="-108.8" font-family="Times New Roman,serif" font-size="14.00">EXT_LIST</text>
<polygon fill="none" stroke="black" points="44.5,-101 44.5,-327 185.5,-327 185.5,-101 44.5,-101"/>
</g>
<!-- utils/file&#45;utils&#45;node_modules -->
<g id="node2" class="node">
<title>utils/file&#45;utils&#45;node_modules</title>
<polygon fill="lightgrey" stroke="transparent" points="9,-36.5 9,-55.5 101,-55.5 101,-36.5 9,-36.5"/>
<text text-anchor="start" x="11" y="-43.3" font-family="Times New Roman,serif" font-weight="bold" font-size="14.00">node_modules</text>
<text text-anchor="start" x="26" y="-24.3" font-family="Times New Roman,serif" font-style="italic" font-size="14.00" fill="red">fs</text>
<text text-anchor="start" x="36" y="-24.3" font-family="Times New Roman,serif" font-size="14.00"> (fs)</text>
<text text-anchor="start" x="11" y="-10.3" font-family="Times New Roman,serif" font-style="italic" font-size="14.00" fill="red">path</text>
<text text-anchor="start" x="38" y="-10.3" font-family="Times New Roman,serif" font-size="14.00"> (path)</text>
<polygon fill="none" stroke="black" points="8,-4 8,-57 102,-57 102,-4 8,-4"/>
</g>
<!-- utils/file&#45;utils&#45;&gt;utils/file&#45;utils&#45;node_modules -->
<g id="edge1" class="edge">
<title>utils/file&#45;utils&#45;&gt;utils/file&#45;utils&#45;node_modules</title>
<path fill="none" stroke="black" d="M76.58,-96.77C73.55,-87.61 70.65,-78.84 68.01,-70.85"/>
<polygon fill="black" stroke="black" points="71.28,-69.59 64.81,-61.19 64.63,-71.78 71.28,-69.59"/>
</g>
<!-- utils/globals -->
<g id="node3" class="node">
<title>utils/globals</title>
<polygon fill="lightblue" stroke="transparent" points="138,-31.5 138,-50.5 215,-50.5 215,-31.5 138,-31.5"/>
<text text-anchor="start" x="140" y="-38.3" font-family="Times New Roman,serif" font-weight="bold" font-size="14.00">utils/globals</text>
<polyline fill="none" stroke="black" points="138,-10.5 215,-10.5 "/>
<polyline fill="none" stroke="black" points="215,-31.5 138,-31.5 "/>
<text text-anchor="start" x="141" y="-17.3" font-family="Times New Roman,serif" font-size="14.00">EXT_LIST</text>
<polygon fill="none" stroke="black" points="136.5,-9.5 136.5,-51.5 215.5,-51.5 215.5,-9.5 136.5,-9.5"/>
</g>
<!-- utils/file&#45;utils&#45;&gt;utils/globals -->
<g id="edge3" class="edge">
<title>utils/file&#45;utils&#45;&gt;utils/globals</title>
<path fill="none" stroke="black" d="M154.06,-96.77C157.86,-85.48 161.46,-74.76 164.61,-65.4"/>
<polygon fill="black" stroke="black" points="167.96,-66.39 167.83,-55.8 161.33,-64.16 167.96,-66.39"/>
</g>
<!-- utils/json -->
<g id="node4" class="node">
<title>utils/json</title>
<polygon fill="lightblue" stroke="transparent" points="151,-478 151,-497 231,-497 231,-478 151,-478"/>
<text text-anchor="start" x="163.5" y="-484.8" font-family="Times New Roman,serif" font-weight="bold" font-size="14.00">utils/json</text>
<polyline fill="none" stroke="black" points="151,-427 231,-427 "/>
<polyline fill="none" stroke="black" points="231,-478 151,-478 "/>
<text text-anchor="start" x="157.5" y="-463.8" font-family="Times New Roman,serif" font-size="14.00">default</text>
<text text-anchor="start" x="159" y="-448.8" font-family="Times New Roman,serif" font-size="14.00">jsonIn</text>
<text text-anchor="start" x="154" y="-433.8" font-family="Times New Roman,serif" font-size="14.00">jsonOut</text>
<polyline fill="none" stroke="black" points="151,-393 231,-393 "/>
<polyline fill="none" stroke="black" points="231,-427 151,-427 "/>
<text text-anchor="start" x="154" y="-413.8" font-family="Times New Roman,serif" font-style="italic" font-size="14.00" fill="red">utils/file&#45;utils</text>
<text text-anchor="start" x="154" y="-399.8" font-family="Times New Roman,serif" font-size="14.00">safeWriteFile</text>
<polygon fill="none" stroke="black" points="150,-392 150,-498 232,-498 232,-392 150,-392"/>
</g>
<!-- utils/json&#45;&gt;utils/file&#45;utils -->
<g id="edge4" class="edge">
<title>utils/json&#45;&gt;utils/file&#45;utils</title>
<path fill="none" stroke="black" d="M172.41,-387.98C167.63,-373.59 162.3,-357.52 156.86,-341.12"/>
<polygon fill="black" stroke="black" points="160.12,-339.83 153.64,-331.44 153.47,-342.04 160.12,-339.83"/>
</g>
<!-- utils/json&#45;node_modules -->
<g id="node5" class="node">
<title>utils/json&#45;node_modules</title>
<polygon fill="lightgrey" stroke="transparent" points="221,-214 221,-233 313,-233 313,-214 221,-214"/>
<text text-anchor="start" x="223" y="-220.8" font-family="Times New Roman,serif" font-weight="bold" font-size="14.00">node_modules</text>
<text text-anchor="start" x="223" y="-201.8" font-family="Times New Roman,serif" font-style="italic" font-size="14.00" fill="red">fs</text>
<text text-anchor="start" x="233" y="-201.8" font-family="Times New Roman,serif" font-size="14.00"> (fs)</text>
<polygon fill="none" stroke="black" points="220,-194 220,-234 314,-234 314,-194 220,-194"/>
</g>
<!-- utils/json&#45;&gt;utils/json&#45;node_modules -->
<g id="edge2" class="edge">
<title>utils/json&#45;&gt;utils/json&#45;node_modules</title>
<path fill="none" stroke="black" d="M209.59,-387.98C224.17,-344.05 243.97,-284.41 256.09,-247.87"/>
<polygon fill="black" stroke="black" points="259.47,-248.8 259.3,-238.21 252.83,-246.6 259.47,-248.8"/>
</g>
<!-- utils/list&#45;utils -->
<g id="node6" class="node">
<title>utils/list&#45;utils</title>
<polygon fill="lightblue" stroke="transparent" points="267,-499 267,-518 409,-518 409,-499 267,-499"/>
<text text-anchor="start" x="299" y="-505.8" font-family="Times New Roman,serif" font-weight="bold" font-size="14.00">utils/list&#45;utils</text>
<polyline fill="none" stroke="black" points="267,-418 409,-418 "/>
<polyline fill="none" stroke="black" points="409,-499 267,-499 "/>
<text text-anchor="start" x="296" y="-484.8" font-family="Times New Roman,serif" font-size="14.00">getDependsOn</text>
<text text-anchor="start" x="293" y="-469.8" font-family="Times New Roman,serif" font-size="14.00">getExportedList</text>
<text text-anchor="start" x="289.5" y="-454.8" font-family="Times New Roman,serif" font-size="14.00">getNodeModules</text>
<text text-anchor="start" x="270" y="-439.8" font-family="Times New Roman,serif" font-size="14.00">getUniqueNodeModules</text>
<text text-anchor="start" x="296.5" y="-424.8" font-family="Times New Roman,serif" font-size="14.00">getUsedByList</text>
<polyline fill="none" stroke="black" points="267,-372 409,-372 "/>
<polyline fill="none" stroke="black" points="409,-418 267,-418 "/>
<text text-anchor="start" x="269" y="-405.8" font-family="Times New Roman,serif" font-style="italic" font-size="14.00" fill="red">ast/SharedInterfaces</text>
<text text-anchor="start" x="297" y="-391.8" font-family="Times New Roman,serif" font-size="14.00">ImportInfo</text>
<text text-anchor="start" x="297" y="-377.8" font-family="Times New Roman,serif" font-size="14.00">ExportInfo</text>
<polygon fill="none" stroke="black" points="266,-371 266,-519 410,-519 410,-371 266,-371"/>
</g>
</g>
</svg>
