<?xml version="1.0" encoding="UTF-8" standalone="no"?>
<!DOCTYPE svg PUBLIC "-//W3C//DTD SVG 1.1//EN"
 "http://www.w3.org/Graphics/SVG/1.1/DTD/svg11.dtd">
<!-- Generated by graphviz version 3.0.0 (20220226.1711)
 -->
<!-- Pages: 1 -->
<svg width="426pt" height="556pt"
 viewBox="0.00 0.00 426.00 556.00" xmlns="http://www.w3.org/2000/svg" xmlns:xlink="http://www.w3.org/1999/xlink">
<g id="graph0" class="graph" transform="scale(1 1) rotate(0) translate(4 552)">
<polygon fill="white" stroke="transparent" points="-4,4 -4,-552 422,-552 422,4 -4,4"/>
<text text-anchor="middle" x="209" y="-532.8" font-family="Times New Roman,serif" font-size="14.00">utils Module Exports</text>
<!-- utils/file&#45;utils -->
<g id="node1" class="node">
<title>utils/file&#45;utils</title>
<g id="a_node1_0"><a xlink:href="tsdocs\modules\utils_file-utils.html" xlink:title="&lt;TABLE&gt;" target="_blank">
<polygon fill="lightblue" stroke="transparent" points="46,-309 46,-328 185,-328 185,-309 46,-309"/>
<text text-anchor="start" x="76" y="-315.8" font-family="Times New Roman,serif" font-weight="bold" text-decoration="underline" font-size="14.00">utils/file&#45;utils</text>
</a>
</g>
<polyline fill="none" stroke="black" points="46,-138 185,-138 "/>
<polyline fill="none" stroke="black" points="185,-309 46,-309 "/>
<text text-anchor="start" x="88.5" y="-294.8" font-family="Times New Roman,serif" font-size="14.00">cleanPath</text>
<text text-anchor="start" x="49" y="-279.8" font-family="Times New Roman,serif" font-size="14.00">getDirectoriesRecursive</text>
<text text-anchor="start" x="82" y="-264.8" font-family="Times New Roman,serif" font-size="14.00">getFilename</text>
<text text-anchor="start" x="94" y="-249.8" font-family="Times New Roman,serif" font-size="14.00">getFiles</text>
<text text-anchor="start" x="64.5" y="-234.8" font-family="Times New Roman,serif" font-size="14.00">getGraphFilename</text>
<text text-anchor="start" x="69.5" y="-219.8" font-family="Times New Roman,serif" font-size="14.00">getModuleName</text>
<text text-anchor="start" x="58" y="-204.8" font-family="Times New Roman,serif" font-size="14.00">getRelativePathParts</text>
<text text-anchor="start" x="68.5" y="-189.8" font-family="Times New Roman,serif" font-size="14.00">moduleFileName</text>
<text text-anchor="start" x="70" y="-174.8" font-family="Times New Roman,serif" font-size="14.00">ModulePathInfo</text>
<text text-anchor="start" x="67" y="-159.8" font-family="Times New Roman,serif" font-size="14.00">removeExtension</text>
<text text-anchor="start" x="78.5" y="-144.8" font-family="Times New Roman,serif" font-size="14.00">safeWriteFile</text>
<polyline fill="none" stroke="black" points="46,-104 185,-104 "/>
<polyline fill="none" stroke="black" points="185,-138 46,-138 "/>
<text text-anchor="start" x="49" y="-124.8" font-family="Times New Roman,serif" font-style="italic" font-size="14.00" fill="red">utils/globals</text>
<text text-anchor="start" x="51.5" y="-110.8" font-family="Times New Roman,serif" font-size="14.00">EXT_LIST</text>
<polygon fill="none" stroke="black" points="44.5,-103 44.5,-329 185.5,-329 185.5,-103 44.5,-103"/>
</g>
<!-- utils/file&#45;utils&#45;node_modules -->
<g id="node2" class="node">
<title>utils/file&#45;utils&#45;node_modules</title>
<polygon fill="lightgrey" stroke="transparent" points="9,-38.5 9,-57.5 101,-57.5 101,-38.5 9,-38.5"/>
<text text-anchor="start" x="11" y="-45.3" font-family="Times New Roman,serif" font-weight="bold" font-size="14.00">node_modules</text>
<polyline fill="none" stroke="black" points="101,-38.5 9,-38.5 "/>
<text text-anchor="start" x="27" y="-25.3" font-family="Times New Roman,serif" font-style="italic" font-size="14.00" fill="red">fs</text>
<text text-anchor="start" x="37" y="-25.3" font-family="Times New Roman,serif" font-size="14.00"> (fs)</text>
<text text-anchor="start" x="12" y="-11.3" font-family="Times New Roman,serif" font-style="italic" font-size="14.00" fill="red">path</text>
<text text-anchor="start" x="39" y="-11.3" font-family="Times New Roman,serif" font-size="14.00"> (path)</text>
<polygon fill="none" stroke="black" points="8,-4 8,-59 102,-59 102,-4 8,-4"/>
</g>
<!-- utils/file&#45;utils&#45;&gt;utils/file&#45;utils&#45;node_modules -->
<g id="edge1" class="edge">
<title>utils/file&#45;utils&#45;&gt;utils/file&#45;utils&#45;node_modules</title>
<path fill="none" stroke="black" d="M76.83,-98.9C73.81,-89.71 70.91,-80.88 68.26,-72.83"/>
<polygon fill="black" stroke="black" points="71.5,-71.48 65.05,-63.08 64.85,-73.67 71.5,-71.48"/>
</g>
<!-- utils/globals -->
<g id="node3" class="node">
<title>utils/globals</title>
<g id="a_node3_1"><a xlink:href="tsdocs\modules\utils_globals.html" xlink:title="&lt;TABLE&gt;" target="_blank">
<polygon fill="lightblue" stroke="transparent" points="138,-32.5 138,-51.5 215,-51.5 215,-32.5 138,-32.5"/>
<text text-anchor="start" x="140" y="-39.3" font-family="Times New Roman,serif" font-weight="bold" text-decoration="underline" font-size="14.00">utils/globals</text>
</a>
</g>
<polyline fill="none" stroke="black" points="138,-11.5 215,-11.5 "/>
<polyline fill="none" stroke="black" points="215,-32.5 138,-32.5 "/>
<text text-anchor="start" x="141" y="-18.3" font-family="Times New Roman,serif" font-size="14.00">EXT_LIST</text>
<polygon fill="none" stroke="black" points="136.5,-10.5 136.5,-52.5 215.5,-52.5 215.5,-10.5 136.5,-10.5"/>
</g>
<!-- utils/file&#45;utils&#45;&gt;utils/globals -->
<g id="edge3" class="edge">
<title>utils/file&#45;utils&#45;&gt;utils/globals</title>
<path fill="none" stroke="black" d="M153.81,-98.9C157.75,-87.11 161.49,-75.92 164.74,-66.2"/>
<polygon fill="black" stroke="black" points="168.08,-67.23 167.93,-56.64 161.44,-65.01 168.08,-67.23"/>
</g>
<!-- utils/json -->
<g id="node4" class="node">
<title>utils/json</title>
<g id="a_node4_2"><a xlink:href="tsdocs\modules\utils_json.html" xlink:title="&lt;TABLE&gt;" target="_blank">
<polygon fill="lightblue" stroke="transparent" points="151,-480 151,-499 231,-499 231,-480 151,-480"/>
<text text-anchor="start" x="163.5" y="-486.8" font-family="Times New Roman,serif" font-weight="bold" text-decoration="underline" font-size="14.00">utils/json</text>
</a>
</g>
<polyline fill="none" stroke="black" points="151,-429 231,-429 "/>
<polyline fill="none" stroke="black" points="231,-480 151,-480 "/>
<text text-anchor="start" x="157.5" y="-465.8" font-family="Times New Roman,serif" font-size="14.00">default</text>
<text text-anchor="start" x="159" y="-450.8" font-family="Times New Roman,serif" font-size="14.00">jsonIn</text>
<text text-anchor="start" x="154" y="-435.8" font-family="Times New Roman,serif" font-size="14.00">jsonOut</text>
<polyline fill="none" stroke="black" points="151,-395 231,-395 "/>
<polyline fill="none" stroke="black" points="231,-429 151,-429 "/>
<text text-anchor="start" x="154" y="-415.8" font-family="Times New Roman,serif" font-style="italic" font-size="14.00" fill="red">utils/file&#45;utils</text>
<text text-anchor="start" x="154" y="-401.8" font-family="Times New Roman,serif" font-size="14.00">safeWriteFile</text>
<polygon fill="none" stroke="black" points="150,-394 150,-500 232,-500 232,-394 150,-394"/>
</g>
<!-- utils/json&#45;&gt;utils/file&#45;utils -->
<g id="edge4" class="edge">
<title>utils/json&#45;&gt;utils/file&#45;utils</title>
<path fill="none" stroke="black" d="M172.41,-389.98C167.63,-375.59 162.3,-359.52 156.86,-343.12"/>
<polygon fill="black" stroke="black" points="160.12,-341.83 153.64,-333.44 153.47,-344.04 160.12,-341.83"/>
</g>
<!-- utils/json&#45;node_modules -->
<g id="node5" class="node">
<title>utils/json&#45;node_modules</title>
<polygon fill="lightgrey" stroke="transparent" points="221,-217 221,-236 313,-236 313,-217 221,-217"/>
<text text-anchor="start" x="223" y="-223.8" font-family="Times New Roman,serif" font-weight="bold" font-size="14.00">node_modules</text>
<polyline fill="none" stroke="black" points="313,-217 221,-217 "/>
<text text-anchor="start" x="224" y="-203.8" font-family="Times New Roman,serif" font-style="italic" font-size="14.00" fill="red">fs</text>
<text text-anchor="start" x="234" y="-203.8" font-family="Times New Roman,serif" font-size="14.00"> (fs)</text>
<polygon fill="none" stroke="black" points="220,-195 220,-237 314,-237 314,-195 220,-195"/>
</g>
<!-- utils/json&#45;&gt;utils/json&#45;node_modules -->
<g id="edge2" class="edge">
<title>utils/json&#45;&gt;utils/json&#45;node_modules</title>
<path fill="none" stroke="black" d="M209.59,-389.98C224.05,-346.41 243.64,-287.39 255.79,-250.78"/>
<polygon fill="black" stroke="black" points="259.18,-251.67 259.01,-241.08 252.54,-249.47 259.18,-251.67"/>
</g>
<!-- utils/list&#45;utils -->
<g id="node6" class="node">
<title>utils/list&#45;utils</title>
<g id="a_node6_3"><a xlink:href="tsdocs\modules\utils_list-utils.html" xlink:title="&lt;TABLE&gt;" target="_blank">
<polygon fill="lightblue" stroke="transparent" points="267,-501 267,-520 409,-520 409,-501 267,-501"/>
<text text-anchor="start" x="299" y="-507.8" font-family="Times New Roman,serif" font-weight="bold" text-decoration="underline" font-size="14.00">utils/list&#45;utils</text>
</a>
</g>
<polyline fill="none" stroke="black" points="267,-420 409,-420 "/>
<polyline fill="none" stroke="black" points="409,-501 267,-501 "/>
<text text-anchor="start" x="296" y="-486.8" font-family="Times New Roman,serif" font-size="14.00">getDependsOn</text>
<text text-anchor="start" x="293" y="-471.8" font-family="Times New Roman,serif" font-size="14.00">getExportedList</text>
<text text-anchor="start" x="289.5" y="-456.8" font-family="Times New Roman,serif" font-size="14.00">getNodeModules</text>
<text text-anchor="start" x="270" y="-441.8" font-family="Times New Roman,serif" font-size="14.00">getUniqueNodeModules</text>
<text text-anchor="start" x="296.5" y="-426.8" font-family="Times New Roman,serif" font-size="14.00">getUsedByList</text>
<polyline fill="none" stroke="black" points="267,-374 409,-374 "/>
<polyline fill="none" stroke="black" points="409,-420 267,-420 "/>
<text text-anchor="start" x="269" y="-407.8" font-family="Times New Roman,serif" font-style="italic" font-size="14.00" fill="red">ast/SharedInterfaces</text>
<text text-anchor="start" x="297" y="-393.8" font-family="Times New Roman,serif" font-size="14.00">ImportInfo</text>
<text text-anchor="start" x="297" y="-379.8" font-family="Times New Roman,serif" font-size="14.00">ExportInfo</text>
<polygon fill="none" stroke="black" points="266,-373 266,-521 410,-521 410,-373 266,-373"/>
</g>
</g>
</svg>
