<?xml version="1.0" encoding="UTF-8" standalone="no"?>
<!DOCTYPE svg PUBLIC "-//W3C//DTD SVG 1.1//EN"
 "http://www.w3.org/Graphics/SVG/1.1/DTD/svg11.dtd">
<!-- Generated by graphviz version 3.0.0 (20220226.1711)
 -->
<!-- Pages: 1 -->
<svg width="499pt" height="590pt"
 viewBox="0.00 0.00 498.50 590.00" xmlns="http://www.w3.org/2000/svg" xmlns:xlink="http://www.w3.org/1999/xlink">
<g id="graph0" class="graph" transform="scale(1 1) rotate(0) translate(4 586)">
<polygon fill="white" stroke="transparent" points="-4,4 -4,-586 494.5,-586 494.5,4 -4,4"/>
<text text-anchor="middle" x="245.25" y="-566.8" font-family="Times New Roman,serif" font-size="14.00">utils Module Exports</text>
<!-- utils/file&#45;utils -->
<g id="node1" class="node">
<title>utils/file&#45;utils</title>
<g id="a_node1_0"><a xlink:href="tsdocs\modules\utils_file-utils.html" xlink:title="&lt;TABLE&gt;" target="_blank">
<polygon fill="lightblue" stroke="transparent" points="39,-327 39,-346 217,-346 217,-327 39,-327"/>
<text text-anchor="start" x="88.5" y="-333.8" font-family="Times New Roman,serif" font-weight="bold" text-decoration="underline" font-size="14.00">utils/file&#45;utils</text>
</a>
</g>
<polyline fill="none" stroke="black" points="39,-167 217,-167 "/>
<polyline fill="none" stroke="black" points="217,-327 39,-327 "/>
<text text-anchor="start" x="42" y="-313.8" font-family="Times New Roman,serif" font-size="14.00" fill="purple">🧩 [iface]</text>
<text text-anchor="start" x="99" y="-313.8" font-family="Times New Roman,serif" font-size="14.00"> &#160;ModulePathInfo</text>
<text text-anchor="start" x="42" y="-299.8" font-family="Times New Roman,serif" font-size="14.00" fill="green">ƒ [fn]</text>
<text text-anchor="start" x="73" y="-299.8" font-family="Times New Roman,serif" font-size="14.00"> &#160;cleanPath</text>
<text text-anchor="start" x="42" y="-285.8" font-family="Times New Roman,serif" font-size="14.00" fill="green">ƒ [fn]</text>
<text text-anchor="start" x="73" y="-285.8" font-family="Times New Roman,serif" font-size="14.00"> &#160;getDirectoriesRecursive</text>
<text text-anchor="start" x="42" y="-271.8" font-family="Times New Roman,serif" font-size="14.00" fill="green">ƒ [fn]</text>
<text text-anchor="start" x="73" y="-271.8" font-family="Times New Roman,serif" font-size="14.00"> &#160;getFilename</text>
<text text-anchor="start" x="42" y="-257.8" font-family="Times New Roman,serif" font-size="14.00" fill="green">ƒ [fn]</text>
<text text-anchor="start" x="73" y="-257.8" font-family="Times New Roman,serif" font-size="14.00"> &#160;getFiles</text>
<text text-anchor="start" x="42" y="-243.8" font-family="Times New Roman,serif" font-size="14.00" fill="green">ƒ [fn]</text>
<text text-anchor="start" x="73" y="-243.8" font-family="Times New Roman,serif" font-size="14.00"> &#160;getGraphFilename</text>
<text text-anchor="start" x="42" y="-229.8" font-family="Times New Roman,serif" font-size="14.00" fill="green">ƒ [fn]</text>
<text text-anchor="start" x="73" y="-229.8" font-family="Times New Roman,serif" font-size="14.00"> &#160;getModuleName</text>
<text text-anchor="start" x="42" y="-215.8" font-family="Times New Roman,serif" font-size="14.00" fill="green">ƒ [fn]</text>
<text text-anchor="start" x="73" y="-215.8" font-family="Times New Roman,serif" font-size="14.00"> &#160;getRelativePathParts</text>
<text text-anchor="start" x="42" y="-201.8" font-family="Times New Roman,serif" font-size="14.00" fill="green">ƒ [fn]</text>
<text text-anchor="start" x="73" y="-201.8" font-family="Times New Roman,serif" font-size="14.00"> &#160;moduleFileName</text>
<text text-anchor="start" x="42" y="-187.8" font-family="Times New Roman,serif" font-size="14.00" fill="green">ƒ [fn]</text>
<text text-anchor="start" x="73" y="-187.8" font-family="Times New Roman,serif" font-size="14.00"> &#160;safeWriteFile</text>
<text text-anchor="start" x="42" y="-173.8" font-family="Times New Roman,serif" font-size="14.00" fill="teal">🔸 [var]</text>
<text text-anchor="start" x="90" y="-173.8" font-family="Times New Roman,serif" font-size="14.00"> &#160;removeExtension</text>
<polyline fill="none" stroke="black" points="217,-167 39,-167 "/>
<text text-anchor="start" x="42" y="-153.8" font-family="Times New Roman,serif" font-style="italic" font-size="14.00" fill="red">IMPORTS</text>
<polyline fill="none" stroke="black" points="39,-112 217,-112 "/>
<polyline fill="none" stroke="black" points="217,-146 39,-146 "/>
<text text-anchor="start" x="42" y="-132.8" font-family="Times New Roman,serif" font-style="italic" font-size="14.00" fill="red">utils/globals</text>
<text text-anchor="start" x="42" y="-118.8" font-family="Times New Roman,serif" font-size="14.00">EXT_LIST</text>
<polygon fill="none" stroke="black" points="38,-111 38,-347 218,-347 218,-111 38,-111"/>
</g>
<!-- utils/file&#45;utils&#45;node_modules -->
<g id="node2" class="node">
<title>utils/file&#45;utils&#45;node_modules</title>
<polygon fill="lightgrey" stroke="transparent" points="9,-42.5 9,-61.5 101,-61.5 101,-42.5 9,-42.5"/>
<text text-anchor="start" x="11" y="-49.3" font-family="Times New Roman,serif" font-weight="bold" font-size="14.00">node_modules</text>
<polyline fill="none" stroke="black" points="101,-42.5 9,-42.5 "/>
<text text-anchor="start" x="12" y="-29.3" font-family="Times New Roman,serif" font-style="italic" font-size="14.00" fill="red">fs</text>
<text text-anchor="start" x="22" y="-29.3" font-family="Times New Roman,serif" font-size="14.00"> &#160;(fs)</text>
<text text-anchor="start" x="12" y="-15.3" font-family="Times New Roman,serif" font-style="italic" font-size="14.00" fill="red">path</text>
<text text-anchor="start" x="39" y="-15.3" font-family="Times New Roman,serif" font-size="14.00"> &#160;(path)</text>
<polygon fill="none" stroke="black" points="8,-8 8,-63 102,-63 102,-8 8,-8"/>
</g>
<!-- utils/file&#45;utils&#45;&gt;utils/file&#45;utils&#45;node_modules -->
<g id="edge1" class="edge">
<title>utils/file&#45;utils&#45;&gt;utils/file&#45;utils&#45;node_modules</title>
<path fill="none" stroke="black" d="M81.87,-106.99C77.79,-96.27 73.87,-86.01 70.36,-76.8"/>
<polygon fill="black" stroke="black" points="73.55,-75.33 66.72,-67.23 67.01,-77.82 73.55,-75.33"/>
</g>
<!-- utils/globals -->
<g id="node3" class="node">
<title>utils/globals</title>
<g id="a_node3_1"><a xlink:href="tsdocs\modules\utils_globals.html" xlink:title="&lt;TABLE&gt;" target="_blank">
<polygon fill="lightblue" stroke="transparent" points="138,-46.5 138,-65.5 265,-65.5 265,-46.5 138,-46.5"/>
<text text-anchor="start" x="165" y="-53.3" font-family="Times New Roman,serif" font-weight="bold" text-decoration="underline" font-size="14.00">utils/globals</text>
</a>
</g>
<polyline fill="none" stroke="black" points="138,-25.5 265,-25.5 "/>
<polyline fill="none" stroke="black" points="265,-46.5 138,-46.5 "/>
<text text-anchor="start" x="141" y="-33.3" font-family="Times New Roman,serif" font-size="14.00" fill="teal">🔸 [var]</text>
<text text-anchor="start" x="189" y="-33.3" font-family="Times New Roman,serif" font-size="14.00"> &#160;EXT_LIST</text>
<polyline fill="none" stroke="black" points="265,-25.5 138,-25.5 "/>
<text text-anchor="start" x="141" y="-12.3" font-family="Times New Roman,serif" font-style="italic" font-size="14.00" fill="red">IMPORTS</text>
<polygon fill="none" stroke="black" points="136.5,-4 136.5,-67 265.5,-67 265.5,-4 136.5,-4"/>
</g>
<!-- utils/file&#45;utils&#45;&gt;utils/globals -->
<g id="edge3" class="edge">
<title>utils/file&#45;utils&#45;&gt;utils/globals</title>
<path fill="none" stroke="black" d="M174.13,-106.99C177.64,-97.78 181.02,-88.91 184.13,-80.74"/>
<polygon fill="black" stroke="black" points="187.49,-81.75 187.79,-71.16 180.95,-79.26 187.49,-81.75"/>
</g>
<!-- utils/json -->
<g id="node4" class="node">
<title>utils/json</title>
<g id="a_node4_2"><a xlink:href="tsdocs\modules\utils_json.html" xlink:title="&lt;TABLE&gt;" target="_blank">
<polygon fill="lightblue" stroke="transparent" points="162,-515 162,-534 265,-534 265,-515 162,-515"/>
<text text-anchor="start" x="186" y="-521.8" font-family="Times New Roman,serif" font-weight="bold" text-decoration="underline" font-size="14.00">utils/json</text>
</a>
</g>
<polyline fill="none" stroke="black" points="162,-467 265,-467 "/>
<polyline fill="none" stroke="black" points="265,-515 162,-515 "/>
<text text-anchor="start" x="165" y="-501.8" font-family="Times New Roman,serif" font-size="14.00" fill="green">ƒ [fn]</text>
<text text-anchor="start" x="196" y="-501.8" font-family="Times New Roman,serif" font-size="14.00"> &#160;jsonIn</text>
<text text-anchor="start" x="165" y="-487.8" font-family="Times New Roman,serif" font-size="14.00" fill="green">ƒ [fn]</text>
<text text-anchor="start" x="196" y="-487.8" font-family="Times New Roman,serif" font-size="14.00"> &#160;jsonOut</text>
<text text-anchor="start" x="165" y="-473.8" font-family="Times New Roman,serif" font-size="14.00">📦 [exp]</text>
<text text-anchor="start" x="216" y="-473.8" font-family="Times New Roman,serif" font-size="14.00"> &#160;default</text>
<polyline fill="none" stroke="black" points="265,-467 162,-467 "/>
<text text-anchor="start" x="165" y="-453.8" font-family="Times New Roman,serif" font-style="italic" font-size="14.00" fill="red">IMPORTS</text>
<polyline fill="none" stroke="black" points="162,-412 265,-412 "/>
<polyline fill="none" stroke="black" points="265,-446 162,-446 "/>
<text text-anchor="start" x="165" y="-432.8" font-family="Times New Roman,serif" font-style="italic" font-size="14.00" fill="red">utils/file&#45;utils</text>
<text text-anchor="start" x="165" y="-418.8" font-family="Times New Roman,serif" font-size="14.00">safeWriteFile</text>
<polygon fill="none" stroke="black" points="160.5,-411 160.5,-535 265.5,-535 265.5,-411 160.5,-411"/>
</g>
<!-- utils/json&#45;&gt;utils/file&#45;utils -->
<g id="edge4" class="edge">
<title>utils/json&#45;&gt;utils/file&#45;utils</title>
<path fill="none" stroke="black" d="M190.11,-406.83C185.1,-392.57 179.63,-376.99 174.07,-361.17"/>
<polygon fill="black" stroke="black" points="177.22,-359.57 170.6,-351.3 170.62,-361.89 177.22,-359.57"/>
</g>
<!-- utils/json&#45;node_modules -->
<g id="node5" class="node">
<title>utils/json&#45;node_modules</title>
<polygon fill="lightgrey" stroke="transparent" points="253,-230 253,-249 345,-249 345,-230 253,-230"/>
<text text-anchor="start" x="255" y="-236.8" font-family="Times New Roman,serif" font-weight="bold" font-size="14.00">node_modules</text>
<polyline fill="none" stroke="black" points="345,-230 253,-230 "/>
<text text-anchor="start" x="256" y="-216.8" font-family="Times New Roman,serif" font-style="italic" font-size="14.00" fill="red">fs</text>
<text text-anchor="start" x="266" y="-216.8" font-family="Times New Roman,serif" font-size="14.00"> &#160;(fs)</text>
<polygon fill="none" stroke="black" points="252,-208 252,-250 346,-250 346,-208 252,-208"/>
</g>
<!-- utils/json&#45;&gt;utils/json&#45;node_modules -->
<g id="edge2" class="edge">
<title>utils/json&#45;&gt;utils/json&#45;node_modules</title>
<path fill="none" stroke="black" d="M236.16,-406.83C252.53,-360.76 273.82,-300.87 286.94,-263.95"/>
<polygon fill="black" stroke="black" points="290.36,-264.77 290.41,-254.18 283.76,-262.43 290.36,-264.77"/>
</g>
<!-- utils/list&#45;utils -->
<g id="node6" class="node">
<title>utils/list&#45;utils</title>
<g id="a_node6_3"><a xlink:href="tsdocs\modules\utils_list-utils.html" xlink:title="&lt;TABLE&gt;" target="_blank">
<polygon fill="lightblue" stroke="transparent" points="301,-535 301,-554 482,-554 482,-535 301,-535"/>
<text text-anchor="start" x="352.5" y="-541.8" font-family="Times New Roman,serif" font-weight="bold" text-decoration="underline" font-size="14.00">utils/list&#45;utils</text>
</a>
</g>
<polyline fill="none" stroke="black" points="301,-459 482,-459 "/>
<polyline fill="none" stroke="black" points="482,-535 301,-535 "/>
<text text-anchor="start" x="304" y="-521.8" font-family="Times New Roman,serif" font-size="14.00" fill="green">ƒ [fn]</text>
<text text-anchor="start" x="335" y="-521.8" font-family="Times New Roman,serif" font-size="14.00"> &#160;getDependsOn</text>
<text text-anchor="start" x="304" y="-507.8" font-family="Times New Roman,serif" font-size="14.00" fill="green">ƒ [fn]</text>
<text text-anchor="start" x="335" y="-507.8" font-family="Times New Roman,serif" font-size="14.00"> &#160;getExportedList</text>
<text text-anchor="start" x="304" y="-493.8" font-family="Times New Roman,serif" font-size="14.00" fill="green">ƒ [fn]</text>
<text text-anchor="start" x="335" y="-493.8" font-family="Times New Roman,serif" font-size="14.00"> &#160;getNodeModules</text>
<text text-anchor="start" x="304" y="-479.8" font-family="Times New Roman,serif" font-size="14.00" fill="green">ƒ [fn]</text>
<text text-anchor="start" x="335" y="-479.8" font-family="Times New Roman,serif" font-size="14.00"> &#160;getUniqueNodeModules</text>
<text text-anchor="start" x="304" y="-465.8" font-family="Times New Roman,serif" font-size="14.00" fill="green">ƒ [fn]</text>
<text text-anchor="start" x="335" y="-465.8" font-family="Times New Roman,serif" font-size="14.00"> &#160;getUsedByList</text>
<polyline fill="none" stroke="black" points="482,-459 301,-459 "/>
<text text-anchor="start" x="304" y="-445.8" font-family="Times New Roman,serif" font-style="italic" font-size="14.00" fill="red">IMPORTS</text>
<polyline fill="none" stroke="black" points="301,-392 482,-392 "/>
<polyline fill="none" stroke="black" points="482,-438 301,-438 "/>
<text text-anchor="start" x="303" y="-425.8" font-family="Times New Roman,serif" font-style="italic" font-size="14.00" fill="red">ast/SharedInterfaces</text>
<text text-anchor="start" x="303" y="-411.8" font-family="Times New Roman,serif" font-size="14.00">ImportInfo</text>
<text text-anchor="start" x="303" y="-397.8" font-family="Times New Roman,serif" font-size="14.00">ExportInfo</text>
<polygon fill="none" stroke="black" points="299.5,-391 299.5,-555 482.5,-555 482.5,-391 299.5,-391"/>
</g>
</g>
</svg>
