<?xml version="1.0" encoding="UTF-8" standalone="no"?>
<!DOCTYPE svg PUBLIC "-//W3C//DTD SVG 1.1//EN"
 "http://www.w3.org/Graphics/SVG/1.1/DTD/svg11.dtd">
<!-- Generated by graphviz version 3.0.0 (20220226.1711)
 -->
<!-- Pages: 1 -->
<svg width="933pt" height="629pt"
 viewBox="0.00 0.00 932.50 629.00" xmlns="http://www.w3.org/2000/svg" xmlns:xlink="http://www.w3.org/1999/xlink">
<g id="graph0" class="graph" transform="scale(1 1) rotate(0) translate(4 625)">
<polygon fill="white" stroke="transparent" points="-4,4 -4,-625 928.5,-625 928.5,4 -4,4"/>
<text text-anchor="middle" x="462.25" y="-605.8" font-family="Times New Roman,serif" font-size="14.00">graphs Module Exports</text>
<!-- graphs/ClassDiagram -->
<g id="node1" class="node">
<title>graphs/ClassDiagram</title>
<polygon fill="lightblue" stroke="transparent" points="583.5,-516 583.5,-535 731.5,-535 731.5,-516 583.5,-516"/>
<text text-anchor="start" x="590.5" y="-522.8" font-family="Times New Roman,serif" font-weight="bold" font-size="14.00">graphs/ClassDiagram</text>
<polyline fill="none" stroke="black" points="583.5,-495 731.5,-495 "/>
<polyline fill="none" stroke="black" points="731.5,-516 583.5,-516 "/>
<text text-anchor="start" x="586.5" y="-501.8" font-family="Times New Roman,serif" font-size="14.00">ClassDiagram</text>
<polyline fill="none" stroke="black" points="583.5,-461 731.5,-461 "/>
<polyline fill="none" stroke="black" points="731.5,-495 583.5,-495 "/>
<text text-anchor="start" x="586.5" y="-481.8" font-family="Times New Roman,serif" font-style="italic" font-size="14.00" fill="red">graphs/GraphBase</text>
<text text-anchor="start" x="610.5" y="-467.8" font-family="Times New Roman,serif" font-size="14.00">GraphBase</text>
<polyline fill="none" stroke="black" points="583.5,-427 731.5,-427 "/>
<polyline fill="none" stroke="black" points="731.5,-461 583.5,-461 "/>
<text text-anchor="start" x="586.5" y="-447.8" font-family="Times New Roman,serif" font-style="italic" font-size="14.00" fill="red">graphs/GraphGenerator</text>
<text text-anchor="start" x="599.5" y="-433.8" font-family="Times New Roman,serif" font-size="14.00">IGraphFileGenerator</text>
<g id="a_node1_0"><a xlink:href="diagrams.html#ast" xlink:title="&lt;TABLE&gt;" target="_top">
<polyline fill="none" stroke="black" points="583.5,-367 731.5,-367 "/>
<polyline fill="none" stroke="black" points="731.5,-427 583.5,-427 "/>
<text text-anchor="start" x="636" y="-414.8" font-family="Times New Roman,serif" font-style="italic" font-size="14.00" fill="red">ast</text>
<text text-anchor="start" x="585.5" y="-400.8" font-family="Times New Roman,serif" font-style="italic" font-size="14.00" fill="red">ast/SharedInterfaces</text>
<text text-anchor="start" x="613" y="-386.8" font-family="Times New Roman,serif" font-size="14.00">ClassDetail</text>
<text text-anchor="start" x="613.5" y="-372.8" font-family="Times New Roman,serif" font-size="14.00">ImportInfo</text>
</a>
</g>
<polygon fill="none" stroke="black" points="582.5,-366 582.5,-536 732.5,-536 732.5,-366 582.5,-366"/>
</g>
<!-- graphs/GraphBase -->
<g id="node4" class="node">
<title>graphs/GraphBase</title>
<polygon fill="lightblue" stroke="transparent" points="412.5,-244 412.5,-263 534.5,-263 534.5,-244 412.5,-244"/>
<text text-anchor="start" x="415.5" y="-250.8" font-family="Times New Roman,serif" font-weight="bold" font-size="14.00">graphs/GraphBase</text>
<polyline fill="none" stroke="black" points="412.5,-223 534.5,-223 "/>
<polyline fill="none" stroke="black" points="534.5,-244 412.5,-244 "/>
<text text-anchor="start" x="415.5" y="-229.8" font-family="Times New Roman,serif" font-size="14.00">GraphBase</text>
<g id="a_node4_1"><a xlink:href="diagrams.html#ast" xlink:title="&lt;TABLE&gt;" target="_top">
<polyline fill="none" stroke="black" points="412.5,-163 534.5,-163 "/>
<polyline fill="none" stroke="black" points="534.5,-223 412.5,-223 "/>
<text text-anchor="start" x="465" y="-210.8" font-family="Times New Roman,serif" font-style="italic" font-size="14.00" fill="red">ast</text>
<text text-anchor="start" x="414.5" y="-196.8" font-family="Times New Roman,serif" font-style="italic" font-size="14.00" fill="red">ast/SharedInterfaces</text>
<text text-anchor="start" x="442.5" y="-182.8" font-family="Times New Roman,serif" font-size="14.00">ImportInfo</text>
<text text-anchor="start" x="440" y="-168.8" font-family="Times New Roman,serif" font-size="14.00">ModuleInfo</text>
</a>
</g>
<g id="a_node4_2"><a xlink:href="diagrams.html#utils" xlink:title="&lt;TABLE&gt;" target="_top">
<polyline fill="none" stroke="black" points="412.5,-89 534.5,-89 "/>
<polyline fill="none" stroke="black" points="534.5,-163 412.5,-163 "/>
<text text-anchor="start" x="450.5" y="-150.8" font-family="Times New Roman,serif" font-style="italic" font-size="14.00" fill="red">utils</text>
<text text-anchor="start" x="426" y="-136.8" font-family="Times New Roman,serif" font-style="italic" font-size="14.00" fill="red">utils/file&#45;utils</text>
<text text-anchor="start" x="436" y="-122.8" font-family="Times New Roman,serif" font-size="14.00">cleanPath</text>
<text text-anchor="start" x="426.5" y="-108.8" font-family="Times New Roman,serif" font-style="italic" font-size="14.00" fill="red">utils/list&#45;utils</text>
<text text-anchor="start" x="414.5" y="-94.8" font-family="Times New Roman,serif" font-size="14.00">getNodeModules</text>
</a>
</g>
<polygon fill="none" stroke="black" points="411.5,-88 411.5,-264 535.5,-264 535.5,-88 411.5,-88"/>
</g>
<!-- graphs/ClassDiagram&#45;&gt;graphs/GraphBase -->
<g id="edge3" class="edge">
<title>graphs/ClassDiagram&#45;&gt;graphs/GraphBase</title>
<path fill="none" stroke="black" d="M603.19,-361.78C591.02,-342.58 578,-322.49 565.5,-304 559.37,-294.93 552.89,-285.57 546.33,-276.25"/>
<polygon fill="black" stroke="black" points="549.18,-274.21 540.55,-268.07 543.46,-278.25 549.18,-274.21"/>
</g>
<!-- graphs/GraphGenerator -->
<g id="node6" class="node">
<title>graphs/GraphGenerator</title>
<polygon fill="lightblue" stroke="transparent" points="592.5,-177 592.5,-196 746.5,-196 746.5,-177 592.5,-177"/>
<text text-anchor="start" x="594.5" y="-183.8" font-family="Times New Roman,serif" font-weight="bold" font-size="14.00">graphs/GraphGenerator</text>
<polyline fill="none" stroke="black" points="592.5,-156 746.5,-156 "/>
<polyline fill="none" stroke="black" points="746.5,-177 592.5,-177 "/>
<text text-anchor="start" x="595.5" y="-162.8" font-family="Times New Roman,serif" font-size="14.00">IGraphFileGenerator</text>
<polygon fill="none" stroke="black" points="591.5,-155 591.5,-197 747.5,-197 747.5,-155 591.5,-155"/>
</g>
<!-- graphs/ClassDiagram&#45;&gt;graphs/GraphGenerator -->
<g id="edge4" class="edge">
<title>graphs/ClassDiagram&#45;&gt;graphs/GraphGenerator</title>
<path fill="none" stroke="black" d="M661.38,-361.74C663.63,-310.56 666.34,-248.99 667.99,-211.44"/>
<polygon fill="black" stroke="black" points="671.5,-211.2 668.44,-201.05 664.51,-210.89 671.5,-211.2"/>
</g>
<!-- graphs/ExportGraph -->
<g id="node2" class="node">
<title>graphs/ExportGraph</title>
<polygon fill="lightblue" stroke="transparent" points="767.5,-574 767.5,-593 915.5,-593 915.5,-574 767.5,-574"/>
<text text-anchor="start" x="777.5" y="-580.8" font-family="Times New Roman,serif" font-weight="bold" font-size="14.00">graphs/ExportGraph</text>
<polyline fill="none" stroke="black" points="767.5,-553 915.5,-553 "/>
<polyline fill="none" stroke="black" points="915.5,-574 767.5,-574 "/>
<text text-anchor="start" x="770.5" y="-559.8" font-family="Times New Roman,serif" font-size="14.00">ExportGraph</text>
<polyline fill="none" stroke="black" points="767.5,-519 915.5,-519 "/>
<polyline fill="none" stroke="black" points="915.5,-553 767.5,-553 "/>
<text text-anchor="start" x="770.5" y="-539.8" font-family="Times New Roman,serif" font-style="italic" font-size="14.00" fill="red">graphs/GraphBase</text>
<text text-anchor="start" x="794.5" y="-525.8" font-family="Times New Roman,serif" font-size="14.00">GraphBase</text>
<polyline fill="none" stroke="black" points="767.5,-485 915.5,-485 "/>
<polyline fill="none" stroke="black" points="915.5,-519 767.5,-519 "/>
<text text-anchor="start" x="770.5" y="-505.8" font-family="Times New Roman,serif" font-style="italic" font-size="14.00" fill="red">graphs/GraphGenerator</text>
<text text-anchor="start" x="783.5" y="-491.8" font-family="Times New Roman,serif" font-size="14.00">IGraphFileGenerator</text>
<g id="a_node2_3"><a xlink:href="diagrams.html#ast" xlink:title="&lt;TABLE&gt;" target="_top">
<polyline fill="none" stroke="black" points="767.5,-411 915.5,-411 "/>
<polyline fill="none" stroke="black" points="915.5,-485 767.5,-485 "/>
<text text-anchor="start" x="820" y="-472.8" font-family="Times New Roman,serif" font-style="italic" font-size="14.00" fill="red">ast</text>
<text text-anchor="start" x="769.5" y="-458.8" font-family="Times New Roman,serif" font-style="italic" font-size="14.00" fill="red">ast/SharedInterfaces</text>
<text text-anchor="start" x="797.5" y="-444.8" font-family="Times New Roman,serif" font-size="14.00">ImportInfo</text>
<text text-anchor="start" x="797.5" y="-430.8" font-family="Times New Roman,serif" font-size="14.00">ExportInfo</text>
<text text-anchor="start" x="795" y="-416.8" font-family="Times New Roman,serif" font-size="14.00">ModuleInfo</text>
</a>
</g>
<g id="a_node2_4"><a xlink:href="diagrams.html#utils" xlink:title="&lt;TABLE&gt;" target="_top">
<polyline fill="none" stroke="black" points="767.5,-309 915.5,-309 "/>
<polyline fill="none" stroke="black" points="915.5,-411 767.5,-411 "/>
<text text-anchor="start" x="804" y="-398.8" font-family="Times New Roman,serif" font-style="italic" font-size="14.00" fill="red">utils</text>
<text text-anchor="start" x="779.5" y="-384.8" font-family="Times New Roman,serif" font-style="italic" font-size="14.00" fill="red">utils/file&#45;utils</text>
<text text-anchor="start" x="789.5" y="-370.8" font-family="Times New Roman,serif" font-size="14.00">cleanPath</text>
<text text-anchor="start" x="770.5" y="-356.8" font-family="Times New Roman,serif" font-size="14.00">getModuleName</text>
<text text-anchor="start" x="769.5" y="-342.8" font-family="Times New Roman,serif" font-size="14.00">moduleFileName</text>
<text text-anchor="start" x="780" y="-328.8" font-family="Times New Roman,serif" font-style="italic" font-size="14.00" fill="red">utils/list&#45;utils</text>
<text text-anchor="start" x="771.5" y="-314.8" font-family="Times New Roman,serif" font-size="14.00">getExportedList</text>
</a>
</g>
<polygon fill="none" stroke="black" points="766.5,-308 766.5,-594 916.5,-594 916.5,-308 766.5,-308"/>
</g>
<!-- graphs/ExportGraph&#45;node_modules -->
<g id="node3" class="node">
<title>graphs/ExportGraph&#45;node_modules</title>
<polygon fill="lightgrey" stroke="transparent" points="795.5,-176 795.5,-195 887.5,-195 887.5,-176 795.5,-176"/>
<text text-anchor="start" x="797.5" y="-182.8" font-family="Times New Roman,serif" font-weight="bold" font-size="14.00">node_modules</text>
<text text-anchor="start" x="797.5" y="-163.8" font-family="Times New Roman,serif" font-style="italic" font-size="14.00" fill="red">path</text>
<text text-anchor="start" x="824.5" y="-163.8" font-family="Times New Roman,serif" font-size="14.00"> (path)</text>
<polygon fill="none" stroke="black" points="794.5,-156 794.5,-196 888.5,-196 888.5,-156 794.5,-156"/>
</g>
<!-- graphs/ExportGraph&#45;&gt;graphs/ExportGraph&#45;node_modules -->
<g id="edge1" class="edge">
<title>graphs/ExportGraph&#45;&gt;graphs/ExportGraph&#45;node_modules</title>
<path fill="none" stroke="black" d="M841.5,-303.91C841.5,-268.73 841.5,-234.4 841.5,-210.34"/>
<polygon fill="black" stroke="black" points="845,-210.04 841.5,-200.04 838,-210.04 845,-210.04"/>
</g>
<!-- graphs/ExportGraph&#45;&gt;graphs/GraphBase -->
<g id="edge5" class="edge">
<title>graphs/ExportGraph&#45;&gt;graphs/GraphBase</title>
<path fill="none" stroke="black" d="M758.49,-310.8C755.58,-308.4 752.58,-306.13 749.5,-304 684.22,-258.79 645.36,-303.83 574.5,-268 566.85,-264.13 559.35,-259.54 552.09,-254.49"/>
<polygon fill="black" stroke="black" points="553.84,-251.43 543.7,-248.38 549.72,-257.09 553.84,-251.43"/>
</g>
<!-- graphs/ExportGraph&#45;&gt;graphs/GraphGenerator -->
<g id="edge6" class="edge">
<title>graphs/ExportGraph&#45;&gt;graphs/GraphGenerator</title>
<path fill="none" stroke="black" d="M758.27,-317.9C733,-277.79 707.41,-237.18 690.24,-209.93"/>
<polygon fill="black" stroke="black" points="693.05,-207.81 684.76,-201.22 687.13,-211.54 693.05,-207.81"/>
</g>
<!-- graphs/GraphBase&#45;node_modules -->
<g id="node5" class="node">
<title>graphs/GraphBase&#45;node_modules</title>
<polygon fill="lightgrey" stroke="transparent" points="427.5,-24 427.5,-43 519.5,-43 519.5,-24 427.5,-24"/>
<text text-anchor="start" x="429.5" y="-30.8" font-family="Times New Roman,serif" font-weight="bold" font-size="14.00">node_modules</text>
<text text-anchor="start" x="429.5" y="-11.8" font-family="Times New Roman,serif" font-style="italic" font-size="14.00" fill="red">path</text>
<text text-anchor="start" x="456.5" y="-11.8" font-family="Times New Roman,serif" font-size="14.00"> (path)</text>
<polygon fill="none" stroke="black" points="426.5,-4 426.5,-44 520.5,-44 520.5,-4 426.5,-4"/>
</g>
<!-- graphs/GraphBase&#45;&gt;graphs/GraphBase&#45;node_modules -->
<g id="edge2" class="edge">
<title>graphs/GraphBase&#45;&gt;graphs/GraphBase&#45;node_modules</title>
<path fill="none" stroke="black" d="M473.5,-83.85C473.5,-74.83 473.5,-66.13 473.5,-58.32"/>
<polygon fill="black" stroke="black" points="477,-58.26 473.5,-48.26 470,-58.26 477,-58.26"/>
</g>
<!-- graphs/NodeModulesGraph -->
<g id="node7" class="node">
<title>graphs/NodeModulesGraph</title>
<polygon fill="lightblue" stroke="transparent" points="9.5,-492 9.5,-511 184.5,-511 184.5,-492 9.5,-492"/>
<text text-anchor="start" x="11.5" y="-498.8" font-family="Times New Roman,serif" font-weight="bold" font-size="14.00">graphs/NodeModulesGraph</text>
<polyline fill="none" stroke="black" points="9.5,-471 184.5,-471 "/>
<polyline fill="none" stroke="black" points="184.5,-492 9.5,-492 "/>
<text text-anchor="start" x="12.5" y="-477.8" font-family="Times New Roman,serif" font-size="14.00">NodeModulesGraph</text>
<polyline fill="none" stroke="black" points="9.5,-437 184.5,-437 "/>
<polyline fill="none" stroke="black" points="184.5,-471 9.5,-471 "/>
<text text-anchor="start" x="12.5" y="-457.8" font-family="Times New Roman,serif" font-style="italic" font-size="14.00" fill="red">graphs/GraphBase</text>
<text text-anchor="start" x="36.5" y="-443.8" font-family="Times New Roman,serif" font-size="14.00">GraphBase</text>
<g id="a_node7_5"><a xlink:href="diagrams.html#ast" xlink:title="&lt;TABLE&gt;" target="_top">
<polyline fill="none" stroke="black" points="9.5,-391 184.5,-391 "/>
<polyline fill="none" stroke="black" points="184.5,-437 9.5,-437 "/>
<text text-anchor="start" x="62" y="-424.8" font-family="Times New Roman,serif" font-style="italic" font-size="14.00" fill="red">ast</text>
<text text-anchor="start" x="11.5" y="-410.8" font-family="Times New Roman,serif" font-style="italic" font-size="14.00" fill="red">ast/SharedInterfaces</text>
<text text-anchor="start" x="39.5" y="-396.8" font-family="Times New Roman,serif" font-size="14.00">ImportInfo</text>
</a>
</g>
<polygon fill="none" stroke="black" points="8,-390 8,-512 185,-512 185,-390 8,-390"/>
</g>
<!-- graphs/NodeModulesGraph&#45;&gt;graphs/GraphBase -->
<g id="edge7" class="edge">
<title>graphs/NodeModulesGraph&#45;&gt;graphs/GraphBase</title>
<path fill="none" stroke="black" d="M132.52,-385.67C150.49,-357.87 174.22,-326.61 201.5,-304 258.61,-256.67 336.29,-222.71 394.02,-201.89"/>
<polygon fill="black" stroke="black" points="395.21,-205.17 403.47,-198.53 392.87,-198.58 395.21,-205.17"/>
</g>
<!-- graphs/PackageGraph -->
<g id="node8" class="node">
<title>graphs/PackageGraph</title>
<polygon fill="lightblue" stroke="transparent" points="220.5,-499 220.5,-518 363.5,-518 363.5,-499 220.5,-499"/>
<text text-anchor="start" x="222.5" y="-505.8" font-family="Times New Roman,serif" font-weight="bold" font-size="14.00">graphs/PackageGraph</text>
<polyline fill="none" stroke="black" points="220.5,-478 363.5,-478 "/>
<polyline fill="none" stroke="black" points="363.5,-499 220.5,-499 "/>
<text text-anchor="start" x="223.5" y="-484.8" font-family="Times New Roman,serif" font-size="14.00">PackageGraph</text>
<polyline fill="none" stroke="black" points="220.5,-444 363.5,-444 "/>
<polyline fill="none" stroke="black" points="363.5,-478 220.5,-478 "/>
<text text-anchor="start" x="223.5" y="-464.8" font-family="Times New Roman,serif" font-style="italic" font-size="14.00" fill="red">graphs/GraphBase</text>
<text text-anchor="start" x="247.5" y="-450.8" font-family="Times New Roman,serif" font-size="14.00">GraphBase</text>
<g id="a_node8_6"><a xlink:href="diagrams.html#ast" xlink:title="&lt;TABLE&gt;" target="_top">
<polyline fill="none" stroke="black" points="220.5,-384 363.5,-384 "/>
<polyline fill="none" stroke="black" points="363.5,-444 220.5,-444 "/>
<text text-anchor="start" x="273" y="-431.8" font-family="Times New Roman,serif" font-style="italic" font-size="14.00" fill="red">ast</text>
<text text-anchor="start" x="222.5" y="-417.8" font-family="Times New Roman,serif" font-style="italic" font-size="14.00" fill="red">ast/SharedInterfaces</text>
<text text-anchor="start" x="250.5" y="-403.8" font-family="Times New Roman,serif" font-size="14.00">ImportInfo</text>
<text text-anchor="start" x="248" y="-389.8" font-family="Times New Roman,serif" font-size="14.00">ModuleInfo</text>
</a>
</g>
<polygon fill="none" stroke="black" points="219,-383 219,-519 364,-519 364,-383 219,-383"/>
</g>
<!-- graphs/PackageGraph&#45;&gt;graphs/GraphBase -->
<g id="edge8" class="edge">
<title>graphs/PackageGraph&#45;&gt;graphs/GraphBase</title>
<path fill="none" stroke="black" d="M333.94,-378.78C348.63,-354.78 365.44,-328.01 381.5,-304 387.47,-295.08 393.78,-285.89 400.19,-276.73"/>
<polygon fill="black" stroke="black" points="403.21,-278.53 406.1,-268.34 397.48,-274.5 403.21,-278.53"/>
</g>
<!-- graphs/RelationsGraph -->
<g id="node9" class="node">
<title>graphs/RelationsGraph</title>
<polygon fill="lightblue" stroke="transparent" points="399.5,-536 399.5,-555 547.5,-555 547.5,-536 399.5,-536"/>
<text text-anchor="start" x="401.5" y="-542.8" font-family="Times New Roman,serif" font-weight="bold" font-size="14.00">graphs/RelationsGraph</text>
<polyline fill="none" stroke="black" points="399.5,-515 547.5,-515 "/>
<polyline fill="none" stroke="black" points="547.5,-536 399.5,-536 "/>
<text text-anchor="start" x="402.5" y="-521.8" font-family="Times New Roman,serif" font-size="14.00">RelationsGraph</text>
<polyline fill="none" stroke="black" points="399.5,-481 547.5,-481 "/>
<polyline fill="none" stroke="black" points="547.5,-515 399.5,-515 "/>
<text text-anchor="start" x="402.5" y="-501.8" font-family="Times New Roman,serif" font-style="italic" font-size="14.00" fill="red">graphs/GraphBase</text>
<text text-anchor="start" x="426.5" y="-487.8" font-family="Times New Roman,serif" font-size="14.00">GraphBase</text>
<g id="a_node9_7"><a xlink:href="diagrams.html#ast" xlink:title="&lt;TABLE&gt;" target="_top">
<polyline fill="none" stroke="black" points="399.5,-421 547.5,-421 "/>
<polyline fill="none" stroke="black" points="547.5,-481 399.5,-481 "/>
<text text-anchor="start" x="452" y="-468.8" font-family="Times New Roman,serif" font-style="italic" font-size="14.00" fill="red">ast</text>
<text text-anchor="start" x="401.5" y="-454.8" font-family="Times New Roman,serif" font-style="italic" font-size="14.00" fill="red">ast/SharedInterfaces</text>
<text text-anchor="start" x="429.5" y="-440.8" font-family="Times New Roman,serif" font-size="14.00">ImportInfo</text>
<text text-anchor="start" x="427" y="-426.8" font-family="Times New Roman,serif" font-size="14.00">ModuleInfo</text>
</a>
</g>
<g id="a_node9_8"><a xlink:href="diagrams.html#utils" xlink:title="&lt;TABLE&gt;" target="_top">
<polyline fill="none" stroke="black" points="399.5,-347 547.5,-347 "/>
<polyline fill="none" stroke="black" points="547.5,-421 399.5,-421 "/>
<text text-anchor="start" x="435" y="-408.8" font-family="Times New Roman,serif" font-style="italic" font-size="14.00" fill="red">utils</text>
<text text-anchor="start" x="410.5" y="-394.8" font-family="Times New Roman,serif" font-style="italic" font-size="14.00" fill="red">utils/file&#45;utils</text>
<text text-anchor="start" x="401.5" y="-380.8" font-family="Times New Roman,serif" font-size="14.00">getModuleName</text>
<text text-anchor="start" x="411" y="-366.8" font-family="Times New Roman,serif" font-style="italic" font-size="14.00" fill="red">utils/list&#45;utils</text>
<text text-anchor="start" x="406" y="-352.8" font-family="Times New Roman,serif" font-size="14.00">getUsedByList</text>
</a>
</g>
<polygon fill="none" stroke="black" points="398.5,-346 398.5,-556 548.5,-556 548.5,-346 398.5,-346"/>
</g>
<!-- graphs/RelationsGraph&#45;&gt;graphs/GraphBase -->
<g id="edge9" class="edge">
<title>graphs/RelationsGraph&#45;&gt;graphs/GraphBase</title>
<path fill="none" stroke="black" d="M473.5,-341.71C473.5,-320.73 473.5,-298.82 473.5,-278.08"/>
<polygon fill="black" stroke="black" points="477,-278 473.5,-268 470,-278 477,-278"/>
</g>
</g>
</svg>
