<?xml version="1.0" encoding="UTF-8" standalone="no"?>
<!DOCTYPE svg PUBLIC "-//W3C//DTD SVG 1.1//EN"
 "http://www.w3.org/Graphics/SVG/1.1/DTD/svg11.dtd">
<!-- Generated by graphviz version 3.0.0 (20220226.1711)
 -->
<!-- Pages: 1 -->
<svg width="933pt" height="559pt"
 viewBox="0.00 0.00 932.50 559.00" xmlns="http://www.w3.org/2000/svg" xmlns:xlink="http://www.w3.org/1999/xlink">
<g id="graph0" class="graph" transform="scale(1 1) rotate(0) translate(4 555)">
<polygon fill="white" stroke="transparent" points="-4,4 -4,-555 928.5,-555 928.5,4 -4,4"/>
<text text-anchor="middle" x="462.25" y="-535.8" font-family="Times New Roman,serif" font-size="14.00">graphs Module Exports</text>
<!-- graphs/ClassDiagram -->
<g id="node1" class="node">
<title>graphs/ClassDiagram</title>
<polygon fill="lightblue" stroke="transparent" points="583.5,-460 583.5,-479 731.5,-479 731.5,-460 583.5,-460"/>
<text text-anchor="start" x="590.5" y="-466.8" font-family="Times New Roman,serif" font-weight="bold" font-size="14.00">graphs/ClassDiagram</text>
<polyline fill="none" stroke="black" points="583.5,-439 731.5,-439 "/>
<polyline fill="none" stroke="black" points="731.5,-460 583.5,-460 "/>
<text text-anchor="start" x="586.5" y="-445.8" font-family="Times New Roman,serif" font-size="14.00">ClassDiagram</text>
<polyline fill="none" stroke="black" points="583.5,-405 731.5,-405 "/>
<polyline fill="none" stroke="black" points="731.5,-439 583.5,-439 "/>
<text text-anchor="start" x="586.5" y="-425.8" font-family="Times New Roman,serif" font-style="italic" font-size="14.00" fill="red">graphs/GraphBase</text>
<text text-anchor="start" x="610.5" y="-411.8" font-family="Times New Roman,serif" font-size="14.00">GraphBase</text>
<polyline fill="none" stroke="black" points="583.5,-371 731.5,-371 "/>
<polyline fill="none" stroke="black" points="731.5,-405 583.5,-405 "/>
<text text-anchor="start" x="586.5" y="-391.8" font-family="Times New Roman,serif" font-style="italic" font-size="14.00" fill="red">graphs/GraphGenerator</text>
<text text-anchor="start" x="599.5" y="-377.8" font-family="Times New Roman,serif" font-size="14.00">IGraphFileGenerator</text>
<polyline fill="none" stroke="black" points="583.5,-325 731.5,-325 "/>
<polyline fill="none" stroke="black" points="731.5,-371 583.5,-371 "/>
<text text-anchor="start" x="585.5" y="-358.8" font-family="Times New Roman,serif" font-style="italic" font-size="14.00" fill="red">ast/SharedInterfaces</text>
<text text-anchor="start" x="613" y="-344.8" font-family="Times New Roman,serif" font-size="14.00">ClassDetail</text>
<text text-anchor="start" x="613.5" y="-330.8" font-family="Times New Roman,serif" font-size="14.00">ImportInfo</text>
<polygon fill="none" stroke="black" points="582.5,-324 582.5,-480 732.5,-480 732.5,-324 582.5,-324"/>
</g>
<!-- graphs/GraphBase -->
<g id="node4" class="node">
<title>graphs/GraphBase</title>
<polygon fill="lightblue" stroke="transparent" points="412.5,-216 412.5,-235 534.5,-235 534.5,-216 412.5,-216"/>
<text text-anchor="start" x="415.5" y="-222.8" font-family="Times New Roman,serif" font-weight="bold" font-size="14.00">graphs/GraphBase</text>
<polyline fill="none" stroke="black" points="412.5,-195 534.5,-195 "/>
<polyline fill="none" stroke="black" points="534.5,-216 412.5,-216 "/>
<text text-anchor="start" x="415.5" y="-201.8" font-family="Times New Roman,serif" font-size="14.00">GraphBase</text>
<polyline fill="none" stroke="black" points="412.5,-149 534.5,-149 "/>
<polyline fill="none" stroke="black" points="534.5,-195 412.5,-195 "/>
<text text-anchor="start" x="414.5" y="-182.8" font-family="Times New Roman,serif" font-style="italic" font-size="14.00" fill="red">ast/SharedInterfaces</text>
<text text-anchor="start" x="442.5" y="-168.8" font-family="Times New Roman,serif" font-size="14.00">ImportInfo</text>
<text text-anchor="start" x="440" y="-154.8" font-family="Times New Roman,serif" font-size="14.00">ModuleInfo</text>
<polyline fill="none" stroke="black" points="412.5,-89 534.5,-89 "/>
<polyline fill="none" stroke="black" points="534.5,-149 412.5,-149 "/>
<text text-anchor="start" x="426" y="-136.8" font-family="Times New Roman,serif" font-style="italic" font-size="14.00" fill="red">utils/file&#45;utils</text>
<text text-anchor="start" x="436" y="-122.8" font-family="Times New Roman,serif" font-size="14.00">cleanPath</text>
<text text-anchor="start" x="426.5" y="-108.8" font-family="Times New Roman,serif" font-style="italic" font-size="14.00" fill="red">utils/list&#45;utils</text>
<text text-anchor="start" x="414.5" y="-94.8" font-family="Times New Roman,serif" font-size="14.00">getNodeModules</text>
<polygon fill="none" stroke="black" points="411.5,-88 411.5,-236 535.5,-236 535.5,-88 411.5,-88"/>
</g>
<!-- graphs/ClassDiagram&#45;&gt;graphs/GraphBase -->
<g id="edge3" class="edge">
<title>graphs/ClassDiagram&#45;&gt;graphs/GraphBase</title>
<path fill="none" stroke="black" d="M598.68,-319.88C587.78,-305.18 576.39,-290.06 565.5,-276 558.42,-266.86 550.94,-257.38 543.42,-247.97"/>
<polygon fill="black" stroke="black" points="546.09,-245.71 537.1,-240.1 540.63,-250.09 546.09,-245.71"/>
</g>
<!-- graphs/GraphGenerator -->
<g id="node6" class="node">
<title>graphs/GraphGenerator</title>
<polygon fill="lightblue" stroke="transparent" points="592.5,-163 592.5,-182 746.5,-182 746.5,-163 592.5,-163"/>
<text text-anchor="start" x="594.5" y="-169.8" font-family="Times New Roman,serif" font-weight="bold" font-size="14.00">graphs/GraphGenerator</text>
<polyline fill="none" stroke="black" points="592.5,-142 746.5,-142 "/>
<polyline fill="none" stroke="black" points="746.5,-163 592.5,-163 "/>
<text text-anchor="start" x="595.5" y="-148.8" font-family="Times New Roman,serif" font-size="14.00">IGraphFileGenerator</text>
<polygon fill="none" stroke="black" points="591.5,-141 591.5,-183 747.5,-183 747.5,-141 591.5,-141"/>
</g>
<!-- graphs/ClassDiagram&#45;&gt;graphs/GraphGenerator -->
<g id="edge4" class="edge">
<title>graphs/ClassDiagram&#45;&gt;graphs/GraphGenerator</title>
<path fill="none" stroke="black" d="M661.6,-319.76C663.71,-277.9 666.17,-229.08 667.78,-197.19"/>
<polygon fill="black" stroke="black" points="671.28,-197.22 668.29,-187.06 664.29,-196.87 671.28,-197.22"/>
</g>
<!-- graphs/ExportGraph -->
<g id="node2" class="node">
<title>graphs/ExportGraph</title>
<polygon fill="lightblue" stroke="transparent" points="767.5,-504 767.5,-523 915.5,-523 915.5,-504 767.5,-504"/>
<text text-anchor="start" x="777.5" y="-510.8" font-family="Times New Roman,serif" font-weight="bold" font-size="14.00">graphs/ExportGraph</text>
<polyline fill="none" stroke="black" points="767.5,-483 915.5,-483 "/>
<polyline fill="none" stroke="black" points="915.5,-504 767.5,-504 "/>
<text text-anchor="start" x="770.5" y="-489.8" font-family="Times New Roman,serif" font-size="14.00">ExportGraph</text>
<polyline fill="none" stroke="black" points="767.5,-449 915.5,-449 "/>
<polyline fill="none" stroke="black" points="915.5,-483 767.5,-483 "/>
<text text-anchor="start" x="770.5" y="-469.8" font-family="Times New Roman,serif" font-style="italic" font-size="14.00" fill="red">graphs/GraphBase</text>
<text text-anchor="start" x="794.5" y="-455.8" font-family="Times New Roman,serif" font-size="14.00">GraphBase</text>
<polyline fill="none" stroke="black" points="767.5,-415 915.5,-415 "/>
<polyline fill="none" stroke="black" points="915.5,-449 767.5,-449 "/>
<text text-anchor="start" x="770.5" y="-435.8" font-family="Times New Roman,serif" font-style="italic" font-size="14.00" fill="red">graphs/GraphGenerator</text>
<text text-anchor="start" x="783.5" y="-421.8" font-family="Times New Roman,serif" font-size="14.00">IGraphFileGenerator</text>
<polyline fill="none" stroke="black" points="767.5,-355 915.5,-355 "/>
<polyline fill="none" stroke="black" points="915.5,-415 767.5,-415 "/>
<text text-anchor="start" x="769.5" y="-402.8" font-family="Times New Roman,serif" font-style="italic" font-size="14.00" fill="red">ast/SharedInterfaces</text>
<text text-anchor="start" x="797.5" y="-388.8" font-family="Times New Roman,serif" font-size="14.00">ImportInfo</text>
<text text-anchor="start" x="797.5" y="-374.8" font-family="Times New Roman,serif" font-size="14.00">ExportInfo</text>
<text text-anchor="start" x="795" y="-360.8" font-family="Times New Roman,serif" font-size="14.00">ModuleInfo</text>
<polyline fill="none" stroke="black" points="767.5,-281 915.5,-281 "/>
<polyline fill="none" stroke="black" points="915.5,-355 767.5,-355 "/>
<text text-anchor="start" x="779.5" y="-342.8" font-family="Times New Roman,serif" font-style="italic" font-size="14.00" fill="red">utils/file&#45;utils</text>
<text text-anchor="start" x="770.5" y="-328.8" font-family="Times New Roman,serif" font-size="14.00">getModuleName</text>
<text text-anchor="start" x="769.5" y="-314.8" font-family="Times New Roman,serif" font-size="14.00">moduleFileName</text>
<text text-anchor="start" x="780" y="-300.8" font-family="Times New Roman,serif" font-style="italic" font-size="14.00" fill="red">utils/list&#45;utils</text>
<text text-anchor="start" x="771.5" y="-286.8" font-family="Times New Roman,serif" font-size="14.00">getExportedList</text>
<polygon fill="none" stroke="black" points="766.5,-280 766.5,-524 916.5,-524 916.5,-280 766.5,-280"/>
</g>
<!-- graphs/ExportGraph&#45;node_modules -->
<g id="node3" class="node">
<title>graphs/ExportGraph&#45;node_modules</title>
<polygon fill="lightgrey" stroke="transparent" points="795.5,-162 795.5,-181 887.5,-181 887.5,-162 795.5,-162"/>
<text text-anchor="start" x="797.5" y="-168.8" font-family="Times New Roman,serif" font-weight="bold" font-size="14.00">node_modules</text>
<text text-anchor="start" x="797.5" y="-149.8" font-family="Times New Roman,serif" font-style="italic" font-size="14.00" fill="red">path</text>
<text text-anchor="start" x="824.5" y="-149.8" font-family="Times New Roman,serif" font-size="14.00"> (path)</text>
<polygon fill="none" stroke="black" points="794.5,-142 794.5,-182 888.5,-182 888.5,-142 794.5,-142"/>
</g>
<!-- graphs/ExportGraph&#45;&gt;graphs/ExportGraph&#45;node_modules -->
<g id="edge1" class="edge">
<title>graphs/ExportGraph&#45;&gt;graphs/ExportGraph&#45;node_modules</title>
<path fill="none" stroke="black" d="M841.5,-275.73C841.5,-246.41 841.5,-217.61 841.5,-196.45"/>
<polygon fill="black" stroke="black" points="845,-196.42 841.5,-186.42 838,-196.42 845,-196.42"/>
</g>
<!-- graphs/ExportGraph&#45;&gt;graphs/GraphBase -->
<g id="edge5" class="edge">
<title>graphs/ExportGraph&#45;&gt;graphs/GraphBase</title>
<path fill="none" stroke="black" d="M758.49,-282.29C755.56,-280.06 752.56,-277.96 749.5,-276 682.63,-233.18 646.77,-272.89 574.5,-240 566.93,-236.55 559.39,-232.45 552.05,-227.96"/>
<polygon fill="black" stroke="black" points="553.84,-224.95 543.53,-222.52 550.08,-230.85 553.84,-224.95"/>
</g>
<!-- graphs/ExportGraph&#45;&gt;graphs/GraphGenerator -->
<g id="edge6" class="edge">
<title>graphs/ExportGraph&#45;&gt;graphs/GraphGenerator</title>
<path fill="none" stroke="black" d="M758.27,-285.83C734.29,-252.65 710.02,-219.07 692.94,-195.43"/>
<polygon fill="black" stroke="black" points="695.67,-193.24 686.98,-187.19 690,-197.34 695.67,-193.24"/>
</g>
<!-- graphs/GraphBase&#45;node_modules -->
<g id="node5" class="node">
<title>graphs/GraphBase&#45;node_modules</title>
<polygon fill="lightgrey" stroke="transparent" points="427.5,-24 427.5,-43 519.5,-43 519.5,-24 427.5,-24"/>
<text text-anchor="start" x="429.5" y="-30.8" font-family="Times New Roman,serif" font-weight="bold" font-size="14.00">node_modules</text>
<text text-anchor="start" x="429.5" y="-11.8" font-family="Times New Roman,serif" font-style="italic" font-size="14.00" fill="red">path</text>
<text text-anchor="start" x="456.5" y="-11.8" font-family="Times New Roman,serif" font-size="14.00"> (path)</text>
<polygon fill="none" stroke="black" points="426.5,-4 426.5,-44 520.5,-44 520.5,-4 426.5,-4"/>
</g>
<!-- graphs/GraphBase&#45;&gt;graphs/GraphBase&#45;node_modules -->
<g id="edge2" class="edge">
<title>graphs/GraphBase&#45;&gt;graphs/GraphBase&#45;node_modules</title>
<path fill="none" stroke="black" d="M473.5,-83.86C473.5,-74.88 473.5,-66.11 473.5,-58.2"/>
<polygon fill="black" stroke="black" points="477,-58.01 473.5,-48.01 470,-58.01 477,-58.01"/>
</g>
<!-- graphs/NodeModulesGraph -->
<g id="node7" class="node">
<title>graphs/NodeModulesGraph</title>
<polygon fill="lightblue" stroke="transparent" points="9.5,-436 9.5,-455 184.5,-455 184.5,-436 9.5,-436"/>
<text text-anchor="start" x="11.5" y="-442.8" font-family="Times New Roman,serif" font-weight="bold" font-size="14.00">graphs/NodeModulesGraph</text>
<polyline fill="none" stroke="black" points="9.5,-415 184.5,-415 "/>
<polyline fill="none" stroke="black" points="184.5,-436 9.5,-436 "/>
<text text-anchor="start" x="12.5" y="-421.8" font-family="Times New Roman,serif" font-size="14.00">NodeModulesGraph</text>
<polyline fill="none" stroke="black" points="9.5,-381 184.5,-381 "/>
<polyline fill="none" stroke="black" points="184.5,-415 9.5,-415 "/>
<text text-anchor="start" x="12.5" y="-401.8" font-family="Times New Roman,serif" font-style="italic" font-size="14.00" fill="red">graphs/GraphBase</text>
<text text-anchor="start" x="36.5" y="-387.8" font-family="Times New Roman,serif" font-size="14.00">GraphBase</text>
<polyline fill="none" stroke="black" points="9.5,-349 184.5,-349 "/>
<polyline fill="none" stroke="black" points="184.5,-381 9.5,-381 "/>
<text text-anchor="start" x="11.5" y="-368.8" font-family="Times New Roman,serif" font-style="italic" font-size="14.00" fill="red">ast/SharedInterfaces</text>
<text text-anchor="start" x="39.5" y="-354.8" font-family="Times New Roman,serif" font-size="14.00">ImportInfo</text>
<polygon fill="none" stroke="black" points="8,-348 8,-456 185,-456 185,-348 8,-348"/>
</g>
<!-- graphs/NodeModulesGraph&#45;&gt;graphs/GraphBase -->
<g id="edge7" class="edge">
<title>graphs/NodeModulesGraph&#45;&gt;graphs/GraphBase</title>
<path fill="none" stroke="black" d="M135.23,-343.71C153.23,-320.35 176.25,-294.52 201.5,-276 259.77,-233.25 336.6,-203.27 393.74,-184.98"/>
<polygon fill="black" stroke="black" points="394.96,-188.26 403.45,-181.92 392.86,-181.58 394.96,-188.26"/>
</g>
<!-- graphs/PackageGraph -->
<g id="node8" class="node">
<title>graphs/PackageGraph</title>
<polygon fill="lightblue" stroke="transparent" points="220.5,-443 220.5,-462 363.5,-462 363.5,-443 220.5,-443"/>
<text text-anchor="start" x="222.5" y="-449.8" font-family="Times New Roman,serif" font-weight="bold" font-size="14.00">graphs/PackageGraph</text>
<polyline fill="none" stroke="black" points="220.5,-422 363.5,-422 "/>
<polyline fill="none" stroke="black" points="363.5,-443 220.5,-443 "/>
<text text-anchor="start" x="223.5" y="-428.8" font-family="Times New Roman,serif" font-size="14.00">PackageGraph</text>
<polyline fill="none" stroke="black" points="220.5,-388 363.5,-388 "/>
<polyline fill="none" stroke="black" points="363.5,-422 220.5,-422 "/>
<text text-anchor="start" x="223.5" y="-408.8" font-family="Times New Roman,serif" font-style="italic" font-size="14.00" fill="red">graphs/GraphBase</text>
<text text-anchor="start" x="247.5" y="-394.8" font-family="Times New Roman,serif" font-size="14.00">GraphBase</text>
<polyline fill="none" stroke="black" points="220.5,-342 363.5,-342 "/>
<polyline fill="none" stroke="black" points="363.5,-388 220.5,-388 "/>
<text text-anchor="start" x="222.5" y="-375.8" font-family="Times New Roman,serif" font-style="italic" font-size="14.00" fill="red">ast/SharedInterfaces</text>
<text text-anchor="start" x="250.5" y="-361.8" font-family="Times New Roman,serif" font-size="14.00">ImportInfo</text>
<text text-anchor="start" x="248" y="-347.8" font-family="Times New Roman,serif" font-size="14.00">ModuleInfo</text>
<polygon fill="none" stroke="black" points="219,-341 219,-463 364,-463 364,-341 219,-341"/>
</g>
<!-- graphs/PackageGraph&#45;&gt;graphs/GraphBase -->
<g id="edge8" class="edge">
<title>graphs/PackageGraph&#45;&gt;graphs/GraphBase</title>
<path fill="none" stroke="black" d="M336.56,-336.87C350.71,-317.17 366.54,-295.53 381.5,-276 388.53,-266.82 395.98,-257.32 403.48,-247.9"/>
<polygon fill="black" stroke="black" points="406.27,-250.01 409.79,-240.02 400.81,-245.64 406.27,-250.01"/>
</g>
<!-- graphs/RelationsGraph -->
<g id="node9" class="node">
<title>graphs/RelationsGraph</title>
<polygon fill="lightblue" stroke="transparent" points="399.5,-473 399.5,-492 547.5,-492 547.5,-473 399.5,-473"/>
<text text-anchor="start" x="401.5" y="-479.8" font-family="Times New Roman,serif" font-weight="bold" font-size="14.00">graphs/RelationsGraph</text>
<polyline fill="none" stroke="black" points="399.5,-452 547.5,-452 "/>
<polyline fill="none" stroke="black" points="547.5,-473 399.5,-473 "/>
<text text-anchor="start" x="402.5" y="-458.8" font-family="Times New Roman,serif" font-size="14.00">RelationsGraph</text>
<polyline fill="none" stroke="black" points="399.5,-418 547.5,-418 "/>
<polyline fill="none" stroke="black" points="547.5,-452 399.5,-452 "/>
<text text-anchor="start" x="402.5" y="-438.8" font-family="Times New Roman,serif" font-style="italic" font-size="14.00" fill="red">graphs/GraphBase</text>
<text text-anchor="start" x="426.5" y="-424.8" font-family="Times New Roman,serif" font-size="14.00">GraphBase</text>
<polyline fill="none" stroke="black" points="399.5,-372 547.5,-372 "/>
<polyline fill="none" stroke="black" points="547.5,-418 399.5,-418 "/>
<text text-anchor="start" x="401.5" y="-405.8" font-family="Times New Roman,serif" font-style="italic" font-size="14.00" fill="red">ast/SharedInterfaces</text>
<text text-anchor="start" x="429.5" y="-391.8" font-family="Times New Roman,serif" font-size="14.00">ImportInfo</text>
<text text-anchor="start" x="427" y="-377.8" font-family="Times New Roman,serif" font-size="14.00">ModuleInfo</text>
<polyline fill="none" stroke="black" points="399.5,-312 547.5,-312 "/>
<polyline fill="none" stroke="black" points="547.5,-372 399.5,-372 "/>
<text text-anchor="start" x="410.5" y="-359.8" font-family="Times New Roman,serif" font-style="italic" font-size="14.00" fill="red">utils/file&#45;utils</text>
<text text-anchor="start" x="401.5" y="-345.8" font-family="Times New Roman,serif" font-size="14.00">getModuleName</text>
<text text-anchor="start" x="411" y="-331.8" font-family="Times New Roman,serif" font-style="italic" font-size="14.00" fill="red">utils/list&#45;utils</text>
<text text-anchor="start" x="406" y="-317.8" font-family="Times New Roman,serif" font-size="14.00">getUsedByList</text>
<polygon fill="none" stroke="black" points="398.5,-311 398.5,-493 548.5,-493 548.5,-311 398.5,-311"/>
</g>
<!-- graphs/RelationsGraph&#45;&gt;graphs/GraphBase -->
<g id="edge9" class="edge">
<title>graphs/RelationsGraph&#45;&gt;graphs/GraphBase</title>
<path fill="none" stroke="black" d="M473.5,-306.94C473.5,-288.3 473.5,-268.81 473.5,-250.4"/>
<polygon fill="black" stroke="black" points="477,-250.3 473.5,-240.3 470,-250.3 477,-250.3"/>
</g>
</g>
</svg>
