<?xml version="1.0" encoding="UTF-8" standalone="no"?>
<!DOCTYPE svg PUBLIC "-//W3C//DTD SVG 1.1//EN"
 "http://www.w3.org/Graphics/SVG/1.1/DTD/svg11.dtd">
<!-- Generated by graphviz version 3.0.0 (20220226.1711)
 -->
<!-- Pages: 1 -->
<svg width="933pt" height="615pt"
 viewBox="0.00 0.00 932.50 615.00" xmlns="http://www.w3.org/2000/svg" xmlns:xlink="http://www.w3.org/1999/xlink">
<g id="graph0" class="graph" transform="scale(1 1) rotate(0) translate(4 611)">
<polygon fill="white" stroke="transparent" points="-4,4 -4,-611 928.5,-611 928.5,4 -4,4"/>
<text text-anchor="middle" x="462.25" y="-591.8" font-family="Times New Roman,serif" font-size="14.00">graphs Module Exports</text>
<!-- graphs/ClassDiagram -->
<g id="node1" class="node">
<title>graphs/ClassDiagram</title>
<polygon fill="lightblue" stroke="transparent" points="583.5,-509 583.5,-528 731.5,-528 731.5,-509 583.5,-509"/>
<text text-anchor="start" x="590.5" y="-515.8" font-family="Times New Roman,serif" font-weight="bold" font-size="14.00">graphs/ClassDiagram</text>
<polyline fill="none" stroke="black" points="583.5,-488 731.5,-488 "/>
<polyline fill="none" stroke="black" points="731.5,-509 583.5,-509 "/>
<text text-anchor="start" x="586.5" y="-494.8" font-family="Times New Roman,serif" font-size="14.00">ClassDiagram</text>
<polyline fill="none" stroke="black" points="583.5,-454 731.5,-454 "/>
<polyline fill="none" stroke="black" points="731.5,-488 583.5,-488 "/>
<text text-anchor="start" x="586.5" y="-474.8" font-family="Times New Roman,serif" font-style="italic" font-size="14.00" fill="red">graphs/GraphBase</text>
<text text-anchor="start" x="610.5" y="-460.8" font-family="Times New Roman,serif" font-size="14.00">GraphBase</text>
<polyline fill="none" stroke="black" points="583.5,-420 731.5,-420 "/>
<polyline fill="none" stroke="black" points="731.5,-454 583.5,-454 "/>
<text text-anchor="start" x="586.5" y="-440.8" font-family="Times New Roman,serif" font-style="italic" font-size="14.00" fill="red">graphs/GraphGenerator</text>
<text text-anchor="start" x="599.5" y="-426.8" font-family="Times New Roman,serif" font-size="14.00">IGraphFileGenerator</text>
<g id="a_node1_0"><a xlink:href="diagrams.html#ast" xlink:title="&lt;TABLE&gt;" target="_top">
<polyline fill="none" stroke="black" points="583.5,-360 731.5,-360 "/>
<polyline fill="none" stroke="black" points="731.5,-420 583.5,-420 "/>
<text text-anchor="start" x="636" y="-407.8" font-family="Times New Roman,serif" font-style="italic" text-decoration="underline" font-size="14.00" fill="red">ast</text>
<text text-anchor="start" x="585.5" y="-393.8" font-family="Times New Roman,serif" font-style="italic" font-size="14.00" fill="red">ast/SharedInterfaces</text>
<text text-anchor="start" x="613" y="-379.8" font-family="Times New Roman,serif" font-size="14.00">ClassDetail</text>
<text text-anchor="start" x="613.5" y="-365.8" font-family="Times New Roman,serif" font-size="14.00">ImportInfo</text>
</a>
</g>
<polygon fill="none" stroke="black" points="582.5,-359 582.5,-529 732.5,-529 732.5,-359 582.5,-359"/>
</g>
<!-- graphs/GraphBase -->
<g id="node4" class="node">
<title>graphs/GraphBase</title>
<polygon fill="lightblue" stroke="transparent" points="412.5,-244 412.5,-263 534.5,-263 534.5,-244 412.5,-244"/>
<text text-anchor="start" x="415.5" y="-250.8" font-family="Times New Roman,serif" font-weight="bold" font-size="14.00">graphs/GraphBase</text>
<polyline fill="none" stroke="black" points="412.5,-223 534.5,-223 "/>
<polyline fill="none" stroke="black" points="534.5,-244 412.5,-244 "/>
<text text-anchor="start" x="415.5" y="-229.8" font-family="Times New Roman,serif" font-size="14.00">GraphBase</text>
<g id="a_node4_1"><a xlink:href="diagrams.html#ast" xlink:title="&lt;TABLE&gt;" target="_top">
<polyline fill="none" stroke="black" points="412.5,-163 534.5,-163 "/>
<polyline fill="none" stroke="black" points="534.5,-223 412.5,-223 "/>
<text text-anchor="start" x="465" y="-210.8" font-family="Times New Roman,serif" font-style="italic" text-decoration="underline" font-size="14.00" fill="red">ast</text>
<text text-anchor="start" x="414.5" y="-196.8" font-family="Times New Roman,serif" font-style="italic" font-size="14.00" fill="red">ast/SharedInterfaces</text>
<text text-anchor="start" x="442.5" y="-182.8" font-family="Times New Roman,serif" font-size="14.00">ImportInfo</text>
<text text-anchor="start" x="440" y="-168.8" font-family="Times New Roman,serif" font-size="14.00">ModuleInfo</text>
</a>
</g>
<g id="a_node4_2"><a xlink:href="diagrams.html#utils" xlink:title="&lt;TABLE&gt;" target="_top">
<polyline fill="none" stroke="black" points="412.5,-89 534.5,-89 "/>
<polyline fill="none" stroke="black" points="534.5,-163 412.5,-163 "/>
<text text-anchor="start" x="450.5" y="-150.8" font-family="Times New Roman,serif" font-style="italic" text-decoration="underline" font-size="14.00" fill="red">utils</text>
<text text-anchor="start" x="426" y="-136.8" font-family="Times New Roman,serif" font-style="italic" font-size="14.00" fill="red">utils/file&#45;utils</text>
<text text-anchor="start" x="436" y="-122.8" font-family="Times New Roman,serif" font-size="14.00">cleanPath</text>
<text text-anchor="start" x="426.5" y="-108.8" font-family="Times New Roman,serif" font-style="italic" font-size="14.00" fill="red">utils/list&#45;utils</text>
<text text-anchor="start" x="414.5" y="-94.8" font-family="Times New Roman,serif" font-size="14.00">getNodeModules</text>
</a>
</g>
<polygon fill="none" stroke="black" points="411.5,-88 411.5,-264 535.5,-264 535.5,-88 411.5,-88"/>
</g>
<!-- graphs/ClassDiagram&#45;&gt;graphs/GraphBase -->
<g id="edge3" class="edge">
<title>graphs/ClassDiagram&#45;&gt;graphs/GraphBase</title>
<path fill="none" stroke="black" d="M599.9,-354.76C588.62,-337.82 576.79,-320.3 565.5,-304 559.26,-295 552.72,-285.69 546.11,-276.4"/>
<polygon fill="black" stroke="black" points="548.95,-274.35 540.3,-268.24 543.25,-278.41 548.95,-274.35"/>
</g>
<!-- graphs/GraphGenerator -->
<g id="node6" class="node">
<title>graphs/GraphGenerator</title>
<polygon fill="lightblue" stroke="transparent" points="592.5,-177 592.5,-196 746.5,-196 746.5,-177 592.5,-177"/>
<text text-anchor="start" x="594.5" y="-183.8" font-family="Times New Roman,serif" font-weight="bold" font-size="14.00">graphs/GraphGenerator</text>
<polyline fill="none" stroke="black" points="592.5,-156 746.5,-156 "/>
<polyline fill="none" stroke="black" points="746.5,-177 592.5,-177 "/>
<text text-anchor="start" x="595.5" y="-162.8" font-family="Times New Roman,serif" font-size="14.00">IGraphFileGenerator</text>
<polygon fill="none" stroke="black" points="591.5,-155 591.5,-197 747.5,-197 747.5,-155 591.5,-155"/>
</g>
<!-- graphs/ClassDiagram&#45;&gt;graphs/GraphGenerator -->
<g id="edge4" class="edge">
<title>graphs/ClassDiagram&#45;&gt;graphs/GraphGenerator</title>
<path fill="none" stroke="black" d="M661.48,-354.8C663.7,-305.66 666.33,-247.28 667.96,-211.18"/>
<polygon fill="black" stroke="black" points="671.46,-211.32 668.41,-201.17 664.46,-211.01 671.46,-211.32"/>
</g>
<!-- graphs/ExportGraph -->
<g id="node2" class="node">
<title>graphs/ExportGraph</title>
<polygon fill="lightblue" stroke="transparent" points="767.5,-560 767.5,-579 915.5,-579 915.5,-560 767.5,-560"/>
<text text-anchor="start" x="777.5" y="-566.8" font-family="Times New Roman,serif" font-weight="bold" font-size="14.00">graphs/ExportGraph</text>
<polyline fill="none" stroke="black" points="767.5,-539 915.5,-539 "/>
<polyline fill="none" stroke="black" points="915.5,-560 767.5,-560 "/>
<text text-anchor="start" x="770.5" y="-545.8" font-family="Times New Roman,serif" font-size="14.00">ExportGraph</text>
<polyline fill="none" stroke="black" points="767.5,-505 915.5,-505 "/>
<polyline fill="none" stroke="black" points="915.5,-539 767.5,-539 "/>
<text text-anchor="start" x="770.5" y="-525.8" font-family="Times New Roman,serif" font-style="italic" font-size="14.00" fill="red">graphs/GraphBase</text>
<text text-anchor="start" x="794.5" y="-511.8" font-family="Times New Roman,serif" font-size="14.00">GraphBase</text>
<polyline fill="none" stroke="black" points="767.5,-471 915.5,-471 "/>
<polyline fill="none" stroke="black" points="915.5,-505 767.5,-505 "/>
<text text-anchor="start" x="770.5" y="-491.8" font-family="Times New Roman,serif" font-style="italic" font-size="14.00" fill="red">graphs/GraphGenerator</text>
<text text-anchor="start" x="783.5" y="-477.8" font-family="Times New Roman,serif" font-size="14.00">IGraphFileGenerator</text>
<g id="a_node2_3"><a xlink:href="diagrams.html#ast" xlink:title="&lt;TABLE&gt;" target="_top">
<polyline fill="none" stroke="black" points="767.5,-397 915.5,-397 "/>
<polyline fill="none" stroke="black" points="915.5,-471 767.5,-471 "/>
<text text-anchor="start" x="820" y="-458.8" font-family="Times New Roman,serif" font-style="italic" text-decoration="underline" font-size="14.00" fill="red">ast</text>
<text text-anchor="start" x="769.5" y="-444.8" font-family="Times New Roman,serif" font-style="italic" font-size="14.00" fill="red">ast/SharedInterfaces</text>
<text text-anchor="start" x="797.5" y="-430.8" font-family="Times New Roman,serif" font-size="14.00">ImportInfo</text>
<text text-anchor="start" x="797.5" y="-416.8" font-family="Times New Roman,serif" font-size="14.00">ExportInfo</text>
<text text-anchor="start" x="795" y="-402.8" font-family="Times New Roman,serif" font-size="14.00">ModuleInfo</text>
</a>
</g>
<g id="a_node2_4"><a xlink:href="diagrams.html#utils" xlink:title="&lt;TABLE&gt;" target="_top">
<polyline fill="none" stroke="black" points="767.5,-309 915.5,-309 "/>
<polyline fill="none" stroke="black" points="915.5,-397 767.5,-397 "/>
<text text-anchor="start" x="804" y="-384.8" font-family="Times New Roman,serif" font-style="italic" text-decoration="underline" font-size="14.00" fill="red">utils</text>
<text text-anchor="start" x="779.5" y="-370.8" font-family="Times New Roman,serif" font-style="italic" font-size="14.00" fill="red">utils/file&#45;utils</text>
<text text-anchor="start" x="770.5" y="-356.8" font-family="Times New Roman,serif" font-size="14.00">getModuleName</text>
<text text-anchor="start" x="769.5" y="-342.8" font-family="Times New Roman,serif" font-size="14.00">moduleFileName</text>
<text text-anchor="start" x="780" y="-328.8" font-family="Times New Roman,serif" font-style="italic" font-size="14.00" fill="red">utils/list&#45;utils</text>
<text text-anchor="start" x="771.5" y="-314.8" font-family="Times New Roman,serif" font-size="14.00">getExportedList</text>
</a>
</g>
<polygon fill="none" stroke="black" points="766.5,-308 766.5,-580 916.5,-580 916.5,-308 766.5,-308"/>
</g>
<!-- graphs/ExportGraph&#45;node_modules -->
<g id="node3" class="node">
<title>graphs/ExportGraph&#45;node_modules</title>
<polygon fill="lightgrey" stroke="transparent" points="795.5,-176 795.5,-195 887.5,-195 887.5,-176 795.5,-176"/>
<text text-anchor="start" x="797.5" y="-182.8" font-family="Times New Roman,serif" font-weight="bold" font-size="14.00">node_modules</text>
<text text-anchor="start" x="797.5" y="-163.8" font-family="Times New Roman,serif" font-style="italic" font-size="14.00" fill="red">path</text>
<text text-anchor="start" x="824.5" y="-163.8" font-family="Times New Roman,serif" font-size="14.00"> (path)</text>
<polygon fill="none" stroke="black" points="794.5,-156 794.5,-196 888.5,-196 888.5,-156 794.5,-156"/>
</g>
<!-- graphs/ExportGraph&#45;&gt;graphs/ExportGraph&#45;node_modules -->
<g id="edge1" class="edge">
<title>graphs/ExportGraph&#45;&gt;graphs/ExportGraph&#45;node_modules</title>
<path fill="none" stroke="black" d="M841.5,-303.77C841.5,-268.73 841.5,-234.27 841.5,-210.14"/>
<polygon fill="black" stroke="black" points="845,-210.14 841.5,-200.14 838,-210.14 845,-210.14"/>
</g>
<!-- graphs/ExportGraph&#45;&gt;graphs/GraphBase -->
<g id="edge5" class="edge">
<title>graphs/ExportGraph&#45;&gt;graphs/GraphBase</title>
<path fill="none" stroke="black" d="M758.27,-310.46C755.42,-308.19 752.5,-306.03 749.5,-304 683.72,-259.52 645.36,-303.83 574.5,-268 566.85,-264.13 559.35,-259.54 552.09,-254.49"/>
<polygon fill="black" stroke="black" points="553.84,-251.43 543.7,-248.38 549.72,-257.09 553.84,-251.43"/>
</g>
<!-- graphs/ExportGraph&#45;&gt;graphs/GraphGenerator -->
<g id="edge6" class="edge">
<title>graphs/ExportGraph&#45;&gt;graphs/GraphGenerator</title>
<path fill="none" stroke="black" d="M758.27,-314.29C733.16,-275.44 707.73,-236.12 690.56,-209.57"/>
<polygon fill="black" stroke="black" points="693.44,-207.57 685.07,-201.07 687.56,-211.37 693.44,-207.57"/>
</g>
<!-- graphs/GraphBase&#45;node_modules -->
<g id="node5" class="node">
<title>graphs/GraphBase&#45;node_modules</title>
<polygon fill="lightgrey" stroke="transparent" points="427.5,-24 427.5,-43 519.5,-43 519.5,-24 427.5,-24"/>
<text text-anchor="start" x="429.5" y="-30.8" font-family="Times New Roman,serif" font-weight="bold" font-size="14.00">node_modules</text>
<text text-anchor="start" x="429.5" y="-11.8" font-family="Times New Roman,serif" font-style="italic" font-size="14.00" fill="red">path</text>
<text text-anchor="start" x="456.5" y="-11.8" font-family="Times New Roman,serif" font-size="14.00"> (path)</text>
<polygon fill="none" stroke="black" points="426.5,-4 426.5,-44 520.5,-44 520.5,-4 426.5,-4"/>
</g>
<!-- graphs/GraphBase&#45;&gt;graphs/GraphBase&#45;node_modules -->
<g id="edge2" class="edge">
<title>graphs/GraphBase&#45;&gt;graphs/GraphBase&#45;node_modules</title>
<path fill="none" stroke="black" d="M473.5,-83.85C473.5,-74.83 473.5,-66.13 473.5,-58.32"/>
<polygon fill="black" stroke="black" points="477,-58.26 473.5,-48.26 470,-58.26 477,-58.26"/>
</g>
<!-- graphs/NodeModulesGraph -->
<g id="node7" class="node">
<title>graphs/NodeModulesGraph</title>
<polygon fill="lightblue" stroke="transparent" points="9.5,-485 9.5,-504 184.5,-504 184.5,-485 9.5,-485"/>
<text text-anchor="start" x="11.5" y="-491.8" font-family="Times New Roman,serif" font-weight="bold" font-size="14.00">graphs/NodeModulesGraph</text>
<polyline fill="none" stroke="black" points="9.5,-464 184.5,-464 "/>
<polyline fill="none" stroke="black" points="184.5,-485 9.5,-485 "/>
<text text-anchor="start" x="12.5" y="-470.8" font-family="Times New Roman,serif" font-size="14.00">NodeModulesGraph</text>
<polyline fill="none" stroke="black" points="9.5,-430 184.5,-430 "/>
<polyline fill="none" stroke="black" points="184.5,-464 9.5,-464 "/>
<text text-anchor="start" x="12.5" y="-450.8" font-family="Times New Roman,serif" font-style="italic" font-size="14.00" fill="red">graphs/GraphBase</text>
<text text-anchor="start" x="36.5" y="-436.8" font-family="Times New Roman,serif" font-size="14.00">GraphBase</text>
<g id="a_node7_5"><a xlink:href="diagrams.html#ast" xlink:title="&lt;TABLE&gt;" target="_top">
<polyline fill="none" stroke="black" points="9.5,-384 184.5,-384 "/>
<polyline fill="none" stroke="black" points="184.5,-430 9.5,-430 "/>
<text text-anchor="start" x="62" y="-417.8" font-family="Times New Roman,serif" font-style="italic" text-decoration="underline" font-size="14.00" fill="red">ast</text>
<text text-anchor="start" x="11.5" y="-403.8" font-family="Times New Roman,serif" font-style="italic" font-size="14.00" fill="red">ast/SharedInterfaces</text>
<text text-anchor="start" x="39.5" y="-389.8" font-family="Times New Roman,serif" font-size="14.00">ImportInfo</text>
</a>
</g>
<polygon fill="none" stroke="black" points="8,-383 8,-505 185,-505 185,-383 8,-383"/>
</g>
<!-- graphs/NodeModulesGraph&#45;&gt;graphs/GraphBase -->
<g id="edge7" class="edge">
<title>graphs/NodeModulesGraph&#45;&gt;graphs/GraphBase</title>
<path fill="none" stroke="black" d="M135.26,-378.65C153.04,-353.01 175.87,-324.74 201.5,-304 259.06,-257.42 336.52,-223.42 394.06,-202.39"/>
<polygon fill="black" stroke="black" points="395.25,-205.68 403.47,-199 392.88,-199.09 395.25,-205.68"/>
</g>
<!-- graphs/PackageGraph -->
<g id="node8" class="node">
<title>graphs/PackageGraph</title>
<polygon fill="lightblue" stroke="transparent" points="220.5,-492 220.5,-511 363.5,-511 363.5,-492 220.5,-492"/>
<text text-anchor="start" x="222.5" y="-498.8" font-family="Times New Roman,serif" font-weight="bold" font-size="14.00">graphs/PackageGraph</text>
<polyline fill="none" stroke="black" points="220.5,-471 363.5,-471 "/>
<polyline fill="none" stroke="black" points="363.5,-492 220.5,-492 "/>
<text text-anchor="start" x="223.5" y="-477.8" font-family="Times New Roman,serif" font-size="14.00">PackageGraph</text>
<polyline fill="none" stroke="black" points="220.5,-437 363.5,-437 "/>
<polyline fill="none" stroke="black" points="363.5,-471 220.5,-471 "/>
<text text-anchor="start" x="223.5" y="-457.8" font-family="Times New Roman,serif" font-style="italic" font-size="14.00" fill="red">graphs/GraphBase</text>
<text text-anchor="start" x="247.5" y="-443.8" font-family="Times New Roman,serif" font-size="14.00">GraphBase</text>
<g id="a_node8_6"><a xlink:href="diagrams.html#ast" xlink:title="&lt;TABLE&gt;" target="_top">
<polyline fill="none" stroke="black" points="220.5,-377 363.5,-377 "/>
<polyline fill="none" stroke="black" points="363.5,-437 220.5,-437 "/>
<text text-anchor="start" x="273" y="-424.8" font-family="Times New Roman,serif" font-style="italic" text-decoration="underline" font-size="14.00" fill="red">ast</text>
<text text-anchor="start" x="222.5" y="-410.8" font-family="Times New Roman,serif" font-style="italic" font-size="14.00" fill="red">ast/SharedInterfaces</text>
<text text-anchor="start" x="250.5" y="-396.8" font-family="Times New Roman,serif" font-size="14.00">ImportInfo</text>
<text text-anchor="start" x="248" y="-382.8" font-family="Times New Roman,serif" font-size="14.00">ModuleInfo</text>
</a>
</g>
<polygon fill="none" stroke="black" points="219,-376 219,-512 364,-512 364,-376 219,-376"/>
</g>
<!-- graphs/PackageGraph&#45;&gt;graphs/GraphBase -->
<g id="edge8" class="edge">
<title>graphs/PackageGraph&#45;&gt;graphs/GraphBase</title>
<path fill="none" stroke="black" d="M336.58,-371.81C350.72,-349.91 366.55,-325.82 381.5,-304 387.69,-294.97 394.21,-285.64 400.79,-276.33"/>
<polygon fill="black" stroke="black" points="403.66,-278.34 406.59,-268.16 397.95,-274.29 403.66,-278.34"/>
</g>
<!-- graphs/RelationsGraph -->
<g id="node9" class="node">
<title>graphs/RelationsGraph</title>
<polygon fill="lightblue" stroke="transparent" points="399.5,-529 399.5,-548 547.5,-548 547.5,-529 399.5,-529"/>
<text text-anchor="start" x="401.5" y="-535.8" font-family="Times New Roman,serif" font-weight="bold" font-size="14.00">graphs/RelationsGraph</text>
<polyline fill="none" stroke="black" points="399.5,-508 547.5,-508 "/>
<polyline fill="none" stroke="black" points="547.5,-529 399.5,-529 "/>
<text text-anchor="start" x="402.5" y="-514.8" font-family="Times New Roman,serif" font-size="14.00">RelationsGraph</text>
<polyline fill="none" stroke="black" points="399.5,-474 547.5,-474 "/>
<polyline fill="none" stroke="black" points="547.5,-508 399.5,-508 "/>
<text text-anchor="start" x="402.5" y="-494.8" font-family="Times New Roman,serif" font-style="italic" font-size="14.00" fill="red">graphs/GraphBase</text>
<text text-anchor="start" x="426.5" y="-480.8" font-family="Times New Roman,serif" font-size="14.00">GraphBase</text>
<g id="a_node9_7"><a xlink:href="diagrams.html#ast" xlink:title="&lt;TABLE&gt;" target="_top">
<polyline fill="none" stroke="black" points="399.5,-414 547.5,-414 "/>
<polyline fill="none" stroke="black" points="547.5,-474 399.5,-474 "/>
<text text-anchor="start" x="452" y="-461.8" font-family="Times New Roman,serif" font-style="italic" text-decoration="underline" font-size="14.00" fill="red">ast</text>
<text text-anchor="start" x="401.5" y="-447.8" font-family="Times New Roman,serif" font-style="italic" font-size="14.00" fill="red">ast/SharedInterfaces</text>
<text text-anchor="start" x="429.5" y="-433.8" font-family="Times New Roman,serif" font-size="14.00">ImportInfo</text>
<text text-anchor="start" x="427" y="-419.8" font-family="Times New Roman,serif" font-size="14.00">ModuleInfo</text>
</a>
</g>
<g id="a_node9_8"><a xlink:href="diagrams.html#utils" xlink:title="&lt;TABLE&gt;" target="_top">
<polyline fill="none" stroke="black" points="399.5,-340 547.5,-340 "/>
<polyline fill="none" stroke="black" points="547.5,-414 399.5,-414 "/>
<text text-anchor="start" x="435" y="-401.8" font-family="Times New Roman,serif" font-style="italic" text-decoration="underline" font-size="14.00" fill="red">utils</text>
<text text-anchor="start" x="410.5" y="-387.8" font-family="Times New Roman,serif" font-style="italic" font-size="14.00" fill="red">utils/file&#45;utils</text>
<text text-anchor="start" x="401.5" y="-373.8" font-family="Times New Roman,serif" font-size="14.00">getModuleName</text>
<text text-anchor="start" x="411" y="-359.8" font-family="Times New Roman,serif" font-style="italic" font-size="14.00" fill="red">utils/list&#45;utils</text>
<text text-anchor="start" x="406" y="-345.8" font-family="Times New Roman,serif" font-size="14.00">getUsedByList</text>
</a>
</g>
<polygon fill="none" stroke="black" points="398.5,-339 398.5,-549 548.5,-549 548.5,-339 398.5,-339"/>
</g>
<!-- graphs/RelationsGraph&#45;&gt;graphs/GraphBase -->
<g id="edge9" class="edge">
<title>graphs/RelationsGraph&#45;&gt;graphs/GraphBase</title>
<path fill="none" stroke="black" d="M473.5,-334.81C473.5,-316.12 473.5,-296.75 473.5,-278.25"/>
<polygon fill="black" stroke="black" points="477,-278.08 473.5,-268.08 470,-278.08 477,-278.08"/>
</g>
</g>
</svg>
