<?xml version="1.0" encoding="UTF-8" standalone="no"?>
<!DOCTYPE svg PUBLIC "-//W3C//DTD SVG 1.1//EN"
 "http://www.w3.org/Graphics/SVG/1.1/DTD/svg11.dtd">
<!-- Generated by graphviz version 3.0.0 (20220226.1711)
 -->
<!-- Pages: 1 -->
<svg width="3482pt" height="501pt"
 viewBox="0.00 0.00 3481.50 501.00" xmlns="http://www.w3.org/2000/svg" xmlns:xlink="http://www.w3.org/1999/xlink">
<g id="graph0" class="graph" transform="scale(1 1) rotate(0) translate(4 497)">
<polygon fill="white" stroke="transparent" points="-4,4 -4,-497 3477.5,-497 3477.5,4 -4,4"/>
<text text-anchor="middle" x="1736.75" y="-477.8" font-family="Times New Roman,serif" font-size="14.00">ast Class Diagram</text>
<!-- ASTProcessor -->
<g id="node1" class="node">
<title>ASTProcessor</title>
<polygon fill="lightblue" stroke="transparent" points="9.5,-398.5 9.5,-417.5 218.5,-417.5 218.5,-398.5 9.5,-398.5"/>
<text text-anchor="start" x="11.5" y="-405.3" font-family="Times New Roman,serif" font-weight="bold" font-size="14.00">ASTProcessor : BaseProcessor</text>
<text text-anchor="start" x="82.5" y="-386.3" font-family="Times New Roman,serif" font-weight="bold" font-size="14.00">properties</text>
<text text-anchor="start" x="11.5" y="-372.3" font-family="Times New Roman,serif" font-size="14.00">&#45; importProcessor: ImportProcessor</text>
<text text-anchor="start" x="12" y="-358.3" font-family="Times New Roman,serif" font-size="14.00">&#45; exportProcessor: ExportProcessor</text>
<text text-anchor="start" x="20" y="-344.3" font-family="Times New Roman,serif" font-size="14.00">&#45; classProcessor: ClassProcessor</text>
<text text-anchor="start" x="26.5" y="-330.3" font-family="Times New Roman,serif" font-size="14.00">&#45; errorCollector: ErrorCollector</text>
<text text-anchor="start" x="76" y="-312.3" font-family="Times New Roman,serif" font-weight="bold" font-size="14.00">methods</text>
<text text-anchor="start" x="35" y="-298.3" font-family="Times New Roman,serif" font-size="14.00">+ constructor(baseLoc)</text>
<text text-anchor="start" x="11.5" y="-284.3" font-family="Times New Roman,serif" font-size="14.00">+ processModules(moduleMap)</text>
<polygon fill="none" stroke="black" points="8,-278 8,-419 219,-419 219,-278 8,-278"/>
</g>
<!-- BaseProcessor -->
<g id="node2" class="node">
<title>BaseProcessor</title>
<polygon fill="lightblue" stroke="transparent" points="682.5,-166.5 682.5,-185.5 981.5,-185.5 981.5,-166.5 682.5,-166.5"/>
<text text-anchor="start" x="684.5" y="-173.3" font-family="Times New Roman,serif" font-weight="bold" font-size="14.00">BaseProcessor</text>
<text text-anchor="start" x="702" y="-154.3" font-family="Times New Roman,serif" font-weight="bold" font-size="14.00">properties</text>
<text text-anchor="start" x="684.5" y="-140.3" font-family="Times New Roman,serif" font-size="14.00">+ baseLoc: string</text>
<text text-anchor="start" x="806" y="-122.3" font-family="Times New Roman,serif" font-weight="bold" font-size="14.00">methods</text>
<text text-anchor="start" x="765" y="-108.3" font-family="Times New Roman,serif" font-size="14.00">+ constructor(baseLoc)</text>
<text text-anchor="start" x="718.5" y="-94.3" font-family="Times New Roman,serif" font-size="14.00">+ getParentNode(rootNode, targetNode)</text>
<text text-anchor="start" x="765.5" y="-80.3" font-family="Times New Roman,serif" font-size="14.00">+ skipNode(nodeType)</text>
<text text-anchor="start" x="698" y="-66.3" font-family="Times New Roman,serif" font-size="14.00">+ getAbsolutePath(currentFilePath, relativePath)</text>
<text text-anchor="start" x="737" y="-52.3" font-family="Times New Roman,serif" font-size="14.00">+ formatFunctionParams(params)</text>
<text text-anchor="start" x="684.5" y="-38.3" font-family="Times New Roman,serif" font-size="14.00">+ calRelSrcFile(importingFilePath, importPathValue)</text>
<text text-anchor="start" x="746.5" y="-24.3" font-family="Times New Roman,serif" font-size="14.00">+ countSubstrings(str, subStr)</text>
<text text-anchor="start" x="693" y="-10.3" font-family="Times New Roman,serif" font-size="14.00">+ replaceWithReversedArray(str, subStr, arr, cnt)</text>
<polygon fill="none" stroke="black" points="681,-4 681,-187 982,-187 982,-4 681,-4"/>
</g>
<!-- ASTProcessor&#45;&gt;BaseProcessor -->
<g id="edge1" class="edge">
<title>ASTProcessor&#45;&gt;BaseProcessor</title>
<path fill="none" stroke="black" d="M174.63,-273.88C192.59,-256.21 213.39,-239 235.5,-227 368.39,-154.85 538.41,-122.59 662.82,-108.16"/>
<polygon fill="none" stroke="black" points="663.29,-111.63 672.83,-107.03 662.5,-104.68 663.29,-111.63"/>
</g>
<!-- ClassProcessor -->
<g id="node3" class="node">
<title>ClassProcessor</title>
<polygon fill="lightblue" stroke="transparent" points="254.5,-445.5 254.5,-464.5 527.5,-464.5 527.5,-445.5 254.5,-445.5"/>
<text text-anchor="start" x="256.5" y="-452.3" font-family="Times New Roman,serif" font-weight="bold" font-size="14.00">ClassProcessor : BaseProcessor</text>
<text text-anchor="start" x="365" y="-433.3" font-family="Times New Roman,serif" font-weight="bold" font-size="14.00">methods</text>
<text text-anchor="start" x="324" y="-419.3" font-family="Times New Roman,serif" font-size="14.00">+ constructor(baseLoc)</text>
<text text-anchor="start" x="256.5" y="-405.3" font-family="Times New Roman,serif" font-size="14.00">+ extractTypeNameFromHeritageClause(clause)</text>
<text text-anchor="start" x="267.5" y="-391.3" font-family="Times New Roman,serif" font-size="14.00">+ extractSuperClassName(superClassNode)</text>
<text text-anchor="start" x="277" y="-377.3" font-family="Times New Roman,serif" font-size="14.00">+ extractMemberExpressionName(node)</text>
<text text-anchor="start" x="291.5" y="-363.3" font-family="Times New Roman,serif" font-size="14.00">+ extractMethodInfo(methodNode)</text>
<text text-anchor="start" x="309" y="-349.3" font-family="Times New Roman,serif" font-size="14.00">+ getMethodName(keyNode)</text>
<text text-anchor="start" x="286" y="-335.3" font-family="Times New Roman,serif" font-size="14.00">+ extractPropertyInfo(propertyNode)</text>
<text text-anchor="start" x="260" y="-321.3" font-family="Times New Roman,serif" font-size="14.00">+ extractPropertySignatureInfo(propertyNode)</text>
<text text-anchor="start" x="266" y="-307.3" font-family="Times New Roman,serif" font-size="14.00">+ extractMethodSignatureInfo(methodNode)</text>
<text text-anchor="start" x="306.5" y="-293.3" font-family="Times New Roman,serif" font-size="14.00">+ getPropertyName(keyNode)</text>
<text text-anchor="start" x="258" y="-279.3" font-family="Times New Roman,serif" font-size="14.00">+ extractTypeAnnotation(typeAnnotationNode)</text>
<text text-anchor="start" x="319" y="-265.3" font-family="Times New Roman,serif" font-size="14.00">&#45; isNodeExported(parent)</text>
<text text-anchor="start" x="268" y="-251.3" font-family="Times New Roman,serif" font-size="14.00">+ processClassNode(node, parent, filePath)</text>
<text text-anchor="start" x="259" y="-237.3" font-family="Times New Roman,serif" font-size="14.00">+ processInterfaceNode(node, parent, filePath)</text>
<polygon fill="none" stroke="black" points="253,-231 253,-466 528,-466 528,-231 253,-231"/>
</g>
<!-- ClassProcessor&#45;&gt;BaseProcessor -->
<g id="edge2" class="edge">
<title>ClassProcessor&#45;&gt;BaseProcessor</title>
<path fill="none" stroke="black" d="M536.29,-232.71C539.37,-230.76 542.44,-228.85 545.5,-227 582.42,-204.64 623.83,-183.64 663.43,-165.3"/>
<polygon fill="none" stroke="black" points="665.02,-168.42 672.64,-161.06 662.09,-162.06 665.02,-168.42"/>
</g>
<!-- ErrorCollector -->
<g id="node4" class="node">
<title>ErrorCollector</title>
<polygon fill="lightblue" stroke="transparent" points="563.5,-377.5 563.5,-396.5 763.5,-396.5 763.5,-377.5 563.5,-377.5"/>
<text text-anchor="start" x="565.5" y="-384.3" font-family="Times New Roman,serif" font-weight="bold" font-size="14.00">ErrorCollector : BaseProcessor</text>
<text text-anchor="start" x="574" y="-365.3" font-family="Times New Roman,serif" font-weight="bold" font-size="14.00">properties</text>
<text text-anchor="start" x="565.5" y="-351.3" font-family="Times New Roman,serif" font-size="14.00">+ errors: array</text>
<text text-anchor="start" x="606.5" y="-333.3" font-family="Times New Roman,serif" font-weight="bold" font-size="14.00">methods</text>
<text text-anchor="start" x="565.5" y="-319.3" font-family="Times New Roman,serif" font-size="14.00">+ constructor(baseLoc)</text>
<text text-anchor="start" x="577" y="-305.3" font-family="Times New Roman,serif" font-size="14.00">+ addError(file, err)</text>
<polygon fill="none" stroke="black" points="562.5,-299 562.5,-398 764.5,-398 764.5,-299 562.5,-299"/>
</g>
<!-- ErrorCollector&#45;&gt;BaseProcessor -->
<g id="edge3" class="edge">
<title>ErrorCollector&#45;&gt;BaseProcessor</title>
<path fill="none" stroke="black" d="M698.72,-294.88C717.18,-267.3 740.45,-232.54 762.33,-199.84"/>
<polygon fill="none" stroke="black" points="765.51,-201.39 768.16,-191.13 759.69,-197.5 765.51,-201.39"/>
</g>
<!-- DeclarationInfo -->
<g id="node5" class="node">
<title>DeclarationInfo</title>
<polygon fill="lightyellow" stroke="transparent" points="1804.5,-355.5 1804.5,-387.5 1963.5,-387.5 1963.5,-355.5 1804.5,-355.5"/>
<text text-anchor="start" x="1839.5" y="-375.3" font-family="Times New Roman,serif" font-style="italic" font-size="14.00">&lt;&lt;interface&gt;&gt;</text>
<text text-anchor="start" x="1835.5" y="-361.3" font-family="Times New Roman,serif" font-weight="bold" font-size="14.00">DeclarationInfo</text>
<text text-anchor="start" x="1852.5" y="-343.3" font-family="Times New Roman,serif" font-weight="bold" font-size="14.00">properties</text>
<text text-anchor="start" x="1806.5" y="-329.3" font-family="Times New Roman,serif" font-size="14.00">type: AST_NODE_TYPES</text>
<text text-anchor="start" x="1844.5" y="-315.3" font-family="Times New Roman,serif" font-size="14.00">params: string</text>
<polygon fill="none" stroke="black" points="1803,-308.5 1803,-388.5 1964,-388.5 1964,-308.5 1803,-308.5"/>
</g>
<!-- ExportProcessor -->
<g id="node6" class="node">
<title>ExportProcessor</title>
<polygon fill="lightblue" stroke="transparent" points="799.5,-389.5 799.5,-408.5 1201.5,-408.5 1201.5,-389.5 799.5,-389.5"/>
<text text-anchor="start" x="801.5" y="-396.3" font-family="Times New Roman,serif" font-weight="bold" font-size="14.00">ExportProcessor : BaseProcessor</text>
<text text-anchor="start" x="974.5" y="-377.3" font-family="Times New Roman,serif" font-weight="bold" font-size="14.00">methods</text>
<text text-anchor="start" x="933.5" y="-363.3" font-family="Times New Roman,serif" font-size="14.00">+ constructor(baseLoc)</text>
<text text-anchor="start" x="867.5" y="-349.3" font-family="Times New Roman,serif" font-size="14.00">&#45; extractNamesFromPattern(idPattern, callback)</text>
<text text-anchor="start" x="901" y="-335.3" font-family="Times New Roman,serif" font-size="14.00">+ processTopLevelDeclaration(ast)</text>
<text text-anchor="start" x="856" y="-321.3" font-family="Times New Roman,serif" font-size="14.00">+ processExportAllDeclaration(node, srcFile, mod)</text>
<text text-anchor="start" x="801.5" y="-307.3" font-family="Times New Roman,serif" font-size="14.00">+ processExportDeclaration(node, srcFile, mod, topLevelDeclarations)</text>
<text text-anchor="start" x="832" y="-293.3" font-family="Times New Roman,serif" font-size="14.00">+ processDeclarationNode(decl, declarationDetailsCallback)</text>
<polygon fill="none" stroke="black" points="798.5,-287 798.5,-410 1202.5,-410 1202.5,-287 798.5,-287"/>
</g>
<!-- ExportProcessor&#45;&gt;BaseProcessor -->
<g id="edge4" class="edge">
<title>ExportProcessor&#45;&gt;BaseProcessor</title>
<path fill="none" stroke="black" d="M956.98,-282.86C939.89,-257.48 919.85,-227.71 900.86,-199.51"/>
<polygon fill="none" stroke="black" points="903.76,-197.55 895.27,-191.21 897.95,-201.46 903.76,-197.55"/>
</g>
<!-- ImportProcessor -->
<g id="node7" class="node">
<title>ImportProcessor</title>
<polygon fill="lightblue" stroke="transparent" points="1237.5,-368.5 1237.5,-387.5 1525.5,-387.5 1525.5,-368.5 1237.5,-368.5"/>
<text text-anchor="start" x="1239.5" y="-375.3" font-family="Times New Roman,serif" font-weight="bold" font-size="14.00">ImportProcessor : BaseProcessor</text>
<text text-anchor="start" x="1355.5" y="-356.3" font-family="Times New Roman,serif" font-weight="bold" font-size="14.00">methods</text>
<text text-anchor="start" x="1314.5" y="-342.3" font-family="Times New Roman,serif" font-size="14.00">+ constructor(baseLoc)</text>
<text text-anchor="start" x="1239.5" y="-328.3" font-family="Times New Roman,serif" font-size="14.00">+ processImportDeclaration(node, fullSrcFilePath)</text>
<text text-anchor="start" x="1316" y="-314.3" font-family="Times New Roman,serif" font-size="14.00">+ normalizeDeps(deps)</text>
<polygon fill="none" stroke="black" points="1236.5,-308 1236.5,-389 1526.5,-389 1526.5,-308 1236.5,-308"/>
</g>
<!-- ImportProcessor&#45;&gt;BaseProcessor -->
<g id="edge5" class="edge">
<title>ImportProcessor&#45;&gt;BaseProcessor</title>
<path fill="none" stroke="black" d="M1331.39,-303.72C1300.7,-278.63 1259.72,-248.04 1219.5,-227 1150.79,-191.05 1070.16,-162.04 1000.25,-140.58"/>
<polygon fill="none" stroke="black" points="1001.05,-137.17 990.46,-137.6 999.01,-143.86 1001.05,-137.17"/>
</g>
<!-- ModuleInfo -->
<g id="node8" class="node">
<title>ModuleInfo</title>
<polygon fill="lightyellow" stroke="transparent" points="1999.5,-376.5 1999.5,-408.5 2137.5,-408.5 2137.5,-376.5 1999.5,-376.5"/>
<text text-anchor="start" x="2024" y="-396.3" font-family="Times New Roman,serif" font-style="italic" font-size="14.00">&lt;&lt;interface&gt;&gt;</text>
<text text-anchor="start" x="2032.5" y="-382.3" font-family="Times New Roman,serif" font-weight="bold" font-size="14.00">ModuleInfo</text>
<text text-anchor="start" x="2037" y="-364.3" font-family="Times New Roman,serif" font-weight="bold" font-size="14.00">properties</text>
<text text-anchor="start" x="2042" y="-350.3" font-family="Times New Roman,serif" font-size="14.00">dir: string</text>
<text text-anchor="start" x="2041" y="-336.3" font-family="Times New Roman,serif" font-size="14.00">file: string</text>
<text text-anchor="start" x="2001.5" y="-322.3" font-family="Times New Roman,serif" font-size="14.00">dependsOnCnt: number</text>
<text text-anchor="start" x="2012.5" y="-308.3" font-family="Times New Roman,serif" font-size="14.00">usedByCnt: number</text>
<text text-anchor="start" x="2015.5" y="-294.3" font-family="Times New Roman,serif" font-size="14.00">exportCnt: number</text>
<polygon fill="none" stroke="black" points="1998.5,-287.5 1998.5,-409.5 2138.5,-409.5 2138.5,-287.5 1998.5,-287.5"/>
</g>
<!-- ImportInfo -->
<g id="node9" class="node">
<title>ImportInfo</title>
<polygon fill="lightyellow" stroke="transparent" points="2174.5,-376.5 2174.5,-408.5 2281.5,-408.5 2281.5,-376.5 2174.5,-376.5"/>
<text text-anchor="start" x="2183.5" y="-396.3" font-family="Times New Roman,serif" font-style="italic" font-size="14.00">&lt;&lt;interface&gt;&gt;</text>
<text text-anchor="start" x="2194.5" y="-382.3" font-family="Times New Roman,serif" font-weight="bold" font-size="14.00">ImportInfo</text>
<text text-anchor="start" x="2196.5" y="-364.3" font-family="Times New Roman,serif" font-weight="bold" font-size="14.00">properties</text>
<text text-anchor="start" x="2200.5" y="-350.3" font-family="Times New Roman,serif" font-size="14.00">src: string</text>
<text text-anchor="start" x="2194.5" y="-336.3" font-family="Times New Roman,serif" font-size="14.00">name: string</text>
<text text-anchor="start" x="2181" y="-322.3" font-family="Times New Roman,serif" font-size="14.00">importSrc: string</text>
<text text-anchor="start" x="2176.5" y="-308.3" font-family="Times New Roman,serif" font-size="14.00">relSrcName: string</text>
<text text-anchor="start" x="2190.5" y="-294.3" font-family="Times New Roman,serif" font-size="14.00">import: string</text>
<polygon fill="none" stroke="black" points="2173,-287.5 2173,-409.5 2282,-409.5 2282,-287.5 2173,-287.5"/>
</g>
<!-- ExportInfo -->
<g id="node10" class="node">
<title>ExportInfo</title>
<polygon fill="lightyellow" stroke="transparent" points="2317.5,-369.5 2317.5,-401.5 2410.5,-401.5 2410.5,-369.5 2317.5,-369.5"/>
<text text-anchor="start" x="2319.5" y="-389.3" font-family="Times New Roman,serif" font-style="italic" font-size="14.00">&lt;&lt;interface&gt;&gt;</text>
<text text-anchor="start" x="2330.5" y="-375.3" font-family="Times New Roman,serif" font-weight="bold" font-size="14.00">ExportInfo</text>
<text text-anchor="start" x="2332" y="-357.3" font-family="Times New Roman,serif" font-weight="bold" font-size="14.00">properties</text>
<text text-anchor="start" x="2336" y="-343.3" font-family="Times New Roman,serif" font-size="14.00">src: string</text>
<text text-anchor="start" x="2319.5" y="-329.3" font-family="Times New Roman,serif" font-size="14.00">exported: string</text>
<text text-anchor="start" x="2332.5" y="-315.3" font-family="Times New Roman,serif" font-size="14.00">type: string</text>
<text text-anchor="start" x="2324" y="-301.3" font-family="Times New Roman,serif" font-size="14.00">params: string</text>
<polygon fill="none" stroke="black" points="2316,-294.5 2316,-402.5 2411,-402.5 2411,-294.5 2316,-294.5"/>
</g>
<!-- ErrorInfo -->
<g id="node11" class="node">
<title>ErrorInfo</title>
<polygon fill="lightyellow" stroke="transparent" points="2446.5,-362.5 2446.5,-394.5 2539.5,-394.5 2539.5,-362.5 2446.5,-362.5"/>
<text text-anchor="start" x="2448.5" y="-382.3" font-family="Times New Roman,serif" font-style="italic" font-size="14.00">&lt;&lt;interface&gt;&gt;</text>
<text text-anchor="start" x="2462.5" y="-368.3" font-family="Times New Roman,serif" font-weight="bold" font-size="14.00">ErrorInfo</text>
<text text-anchor="start" x="2448.5" y="-350.3" font-family="Times New Roman,serif" font-weight="bold" font-size="14.00">properties</text>
<text text-anchor="start" x="2452.5" y="-336.3" font-family="Times New Roman,serif" font-size="14.00">file: string</text>
<text text-anchor="start" x="2454" y="-322.3" font-family="Times New Roman,serif" font-size="14.00">err: Error</text>
<text text-anchor="start" x="2449.5" y="-308.3" font-family="Times New Roman,serif" font-size="14.00">msg: string</text>
<polygon fill="none" stroke="black" points="2445,-301.5 2445,-395.5 2540,-395.5 2540,-301.5 2445,-301.5"/>
</g>
<!-- MethodInfo -->
<g id="node12" class="node">
<title>MethodInfo</title>
<polygon fill="lightyellow" stroke="transparent" points="2575.5,-376.5 2575.5,-408.5 2970.5,-408.5 2970.5,-376.5 2575.5,-376.5"/>
<text text-anchor="start" x="2728.5" y="-396.3" font-family="Times New Roman,serif" font-style="italic" font-size="14.00">&lt;&lt;interface&gt;&gt;</text>
<text text-anchor="start" x="2736.5" y="-382.3" font-family="Times New Roman,serif" font-weight="bold" font-size="14.00">MethodInfo</text>
<text text-anchor="start" x="2741.5" y="-364.3" font-family="Times New Roman,serif" font-weight="bold" font-size="14.00">properties</text>
<text text-anchor="start" x="2739.5" y="-350.3" font-family="Times New Roman,serif" font-size="14.00">name: string</text>
<text text-anchor="start" x="2577.5" y="-336.3" font-family="Times New Roman,serif" font-size="14.00">kind: unknown_type | unknown_type | unknown_type | unknown_type</text>
<text text-anchor="start" x="2727" y="-322.3" font-family="Times New Roman,serif" font-size="14.00">isStatic: boolean</text>
<text text-anchor="start" x="2723.5" y="-308.3" font-family="Times New Roman,serif" font-size="14.00">isPrivate: boolean</text>
<text text-anchor="start" x="2723.5" y="-294.3" font-family="Times New Roman,serif" font-size="14.00">parameters: string</text>
<polygon fill="none" stroke="black" points="2574,-287.5 2574,-409.5 2971,-409.5 2971,-287.5 2574,-287.5"/>
</g>
<!-- PropertyInfo -->
<g id="node13" class="node">
<title>PropertyInfo</title>
<polygon fill="lightyellow" stroke="transparent" points="3006.5,-376.5 3006.5,-408.5 3152.5,-408.5 3152.5,-376.5 3006.5,-376.5"/>
<text text-anchor="start" x="3035" y="-396.3" font-family="Times New Roman,serif" font-style="italic" font-size="14.00">&lt;&lt;interface&gt;&gt;</text>
<text text-anchor="start" x="3040" y="-382.3" font-family="Times New Roman,serif" font-weight="bold" font-size="14.00">PropertyInfo</text>
<text text-anchor="start" x="3048" y="-364.3" font-family="Times New Roman,serif" font-weight="bold" font-size="14.00">properties</text>
<text text-anchor="start" x="3046" y="-350.3" font-family="Times New Roman,serif" font-size="14.00">name: string</text>
<text text-anchor="start" x="3033.5" y="-336.3" font-family="Times New Roman,serif" font-size="14.00">isStatic: boolean</text>
<text text-anchor="start" x="3030" y="-322.3" font-family="Times New Roman,serif" font-size="14.00">isPrivate: boolean</text>
<text text-anchor="start" x="3048.5" y="-308.3" font-family="Times New Roman,serif" font-size="14.00">type: string</text>
<text text-anchor="start" x="3008.5" y="-294.3" font-family="Times New Roman,serif" font-size="14.00">hasDefaultValue: boolean</text>
<polygon fill="none" stroke="black" points="3005.5,-287.5 3005.5,-409.5 3153.5,-409.5 3153.5,-287.5 3005.5,-287.5"/>
</g>
<!-- ClassDetail -->
<g id="node14" class="node">
<title>ClassDetail</title>
<polygon fill="lightyellow" stroke="transparent" points="3188.5,-404.5 3188.5,-436.5 3464.5,-436.5 3464.5,-404.5 3188.5,-404.5"/>
<text text-anchor="start" x="3282" y="-424.3" font-family="Times New Roman,serif" font-style="italic" font-size="14.00">&lt;&lt;interface&gt;&gt;</text>
<text text-anchor="start" x="3291" y="-410.3" font-family="Times New Roman,serif" font-weight="bold" font-size="14.00">ClassDetail</text>
<text text-anchor="start" x="3295" y="-392.3" font-family="Times New Roman,serif" font-weight="bold" font-size="14.00">properties</text>
<text text-anchor="start" x="3293" y="-378.3" font-family="Times New Roman,serif" font-size="14.00">name: string</text>
<text text-anchor="start" x="3287" y="-364.3" font-family="Times New Roman,serif" font-size="14.00">filePath: string</text>
<text text-anchor="start" x="3190.5" y="-350.3" font-family="Times New Roman,serif" font-size="14.00">declarationType: unknown_type | unknown_type</text>
<text text-anchor="start" x="3285" y="-336.3" font-family="Times New Roman,serif" font-size="14.00">methods: array</text>
<text text-anchor="start" x="3281" y="-322.3" font-family="Times New Roman,serif" font-size="14.00">properties: array</text>
<text text-anchor="start" x="3262" y="-308.3" font-family="Times New Roman,serif" font-size="14.00">superClass: string | null</text>
<text text-anchor="start" x="3250" y="-294.3" font-family="Times New Roman,serif" font-size="14.00">implementsInterfaces: array</text>
<text text-anchor="start" x="3260" y="-280.3" font-family="Times New Roman,serif" font-size="14.00">extendsInterfaces: array</text>
<text text-anchor="start" x="3270.5" y="-266.3" font-family="Times New Roman,serif" font-size="14.00">isExported: boolean</text>
<polygon fill="none" stroke="black" points="3187.5,-259.5 3187.5,-437.5 3465.5,-437.5 3465.5,-259.5 3187.5,-259.5"/>
</g>
<!-- UsageProcessor -->
<g id="node15" class="node">
<title>UsageProcessor</title>
<polygon fill="lightblue" stroke="transparent" points="1561.5,-354.5 1561.5,-373.5 1767.5,-373.5 1767.5,-354.5 1561.5,-354.5"/>
<text text-anchor="start" x="1563.5" y="-361.3" font-family="Times New Roman,serif" font-weight="bold" font-size="14.00">UsageProcessor : BaseProcessor</text>
<text text-anchor="start" x="1604.5" y="-342.3" font-family="Times New Roman,serif" font-weight="bold" font-size="14.00">methods</text>
<text text-anchor="start" x="1563.5" y="-328.3" font-family="Times New Roman,serif" font-size="14.00">+ constructor(baseLoc)</text>
<polygon fill="none" stroke="black" points="1560.5,-322 1560.5,-375 1768.5,-375 1768.5,-322 1560.5,-322"/>
</g>
<!-- UsageProcessor&#45;&gt;BaseProcessor -->
<g id="edge6" class="edge">
<title>UsageProcessor&#45;&gt;BaseProcessor</title>
<path fill="none" stroke="black" d="M1643.33,-317.86C1621.59,-289.79 1585.13,-248.8 1543.5,-227 1372.63,-137.54 1150.74,-108.44 1000.41,-99.48"/>
<polygon fill="none" stroke="black" points="1000.35,-95.97 990.16,-98.9 999.95,-102.96 1000.35,-95.97"/>
</g>
</g>
</svg>
