<?xml version="1.0" encoding="UTF-8" standalone="no"?>
<!DOCTYPE svg PUBLIC "-//W3C//DTD SVG 1.1//EN"
 "http://www.w3.org/Graphics/SVG/1.1/DTD/svg11.dtd">
<!-- Generated by graphviz version 3.0.0 (20220226.1711)
 -->
<!-- Pages: 1 -->
<svg width="1367pt" height="1001pt"
 viewBox="0.00 0.00 1367.00 1001.00" xmlns="http://www.w3.org/2000/svg" xmlns:xlink="http://www.w3.org/1999/xlink">
<g id="graph0" class="graph" transform="scale(1 1) rotate(0) translate(4 997)">
<polygon fill="white" stroke="transparent" points="-4,4 -4,-997 1363,-997 1363,4 -4,4"/>
<text text-anchor="middle" x="679.5" y="-977.8" font-family="Times New Roman,serif" font-size="14.00">ast Module Exports</text>
<!-- ast/ASTProcessor -->
<g id="node1" class="node">
<title>ast/ASTProcessor</title>
<polygon fill="lightblue" stroke="transparent" points="624,-946 624,-965 748,-965 748,-946 624,-946"/>
<text text-anchor="start" x="630" y="-952.8" font-family="Times New Roman,serif" font-weight="bold" font-size="14.00">ast/ASTProcessor</text>
<polyline fill="none" stroke="black" points="624,-925 748,-925 "/>
<polyline fill="none" stroke="black" points="748,-946 624,-946 "/>
<text text-anchor="start" x="627" y="-931.8" font-family="Times New Roman,serif" font-size="14.00">ASTProcessor</text>
<polyline fill="none" stroke="black" points="624,-891 748,-891 "/>
<polyline fill="none" stroke="black" points="748,-925 624,-925 "/>
<text text-anchor="start" x="627" y="-911.8" font-family="Times New Roman,serif" font-style="italic" font-size="14.00" fill="red">ast/BaseProcessor</text>
<text text-anchor="start" x="636.5" y="-897.8" font-family="Times New Roman,serif" font-size="14.00">BaseProcessor</text>
<polyline fill="none" stroke="black" points="624,-857 748,-857 "/>
<polyline fill="none" stroke="black" points="748,-891 624,-891 "/>
<text text-anchor="start" x="627" y="-877.8" font-family="Times New Roman,serif" font-style="italic" font-size="14.00" fill="red">ast/ClassProcessor</text>
<text text-anchor="start" x="637" y="-863.8" font-family="Times New Roman,serif" font-size="14.00">ClassProcessor</text>
<polyline fill="none" stroke="black" points="624,-823 748,-823 "/>
<polyline fill="none" stroke="black" points="748,-857 624,-857 "/>
<text text-anchor="start" x="627" y="-843.8" font-family="Times New Roman,serif" font-style="italic" font-size="14.00" fill="red">ast/ErrorCollector</text>
<text text-anchor="start" x="638" y="-829.8" font-family="Times New Roman,serif" font-size="14.00">ErrorCollector</text>
<polyline fill="none" stroke="black" points="624,-789 748,-789 "/>
<polyline fill="none" stroke="black" points="748,-823 624,-823 "/>
<text text-anchor="start" x="627" y="-809.8" font-family="Times New Roman,serif" font-style="italic" font-size="14.00" fill="red">ast/ExportProcessor</text>
<text text-anchor="start" x="636.5" y="-795.8" font-family="Times New Roman,serif" font-size="14.00">ExportProcessor</text>
<polyline fill="none" stroke="black" points="624,-755 748,-755 "/>
<polyline fill="none" stroke="black" points="748,-789 624,-789 "/>
<text text-anchor="start" x="627" y="-775.8" font-family="Times New Roman,serif" font-style="italic" font-size="14.00" fill="red">ast/ImportProcessor</text>
<text text-anchor="start" x="636.5" y="-761.8" font-family="Times New Roman,serif" font-size="14.00">ImportProcessor</text>
<polyline fill="none" stroke="black" points="624,-665 748,-665 "/>
<polyline fill="none" stroke="black" points="748,-755 624,-755 "/>
<text text-anchor="start" x="627" y="-741.8" font-family="Times New Roman,serif" font-style="italic" font-size="14.00" fill="red">ast/SharedInterfaces</text>
<text text-anchor="start" x="654.5" y="-727.8" font-family="Times New Roman,serif" font-size="14.00">ClassDetail</text>
<text text-anchor="start" x="655" y="-713.8" font-family="Times New Roman,serif" font-size="14.00">ImportInfo</text>
<text text-anchor="start" x="655" y="-699.8" font-family="Times New Roman,serif" font-size="14.00">ExportInfo</text>
<text text-anchor="start" x="652.5" y="-685.8" font-family="Times New Roman,serif" font-size="14.00">ModuleInfo</text>
<text text-anchor="start" x="630" y="-671.8" font-family="Times New Roman,serif" font-size="14.00">ProcessedASTData</text>
<g id="a_node1_0"><a xlink:href="diagrams.html#utils" xlink:title="&lt;TABLE&gt;" target="_top">
<polyline fill="none" stroke="black" points="624,-577 748,-577 "/>
<polyline fill="none" stroke="black" points="748,-665 624,-665 "/>
<text text-anchor="start" x="662" y="-652.8" font-family="Times New Roman,serif" font-style="italic" text-decoration="underline" font-size="14.00" fill="red">utils</text>
<text text-anchor="start" x="637.5" y="-638.8" font-family="Times New Roman,serif" font-style="italic" font-size="14.00" fill="red">utils/file&#45;utils</text>
<text text-anchor="start" x="647.5" y="-624.8" font-family="Times New Roman,serif" font-size="14.00">cleanPath</text>
<text text-anchor="start" x="628.5" y="-610.8" font-family="Times New Roman,serif" font-size="14.00">getModuleName</text>
<text text-anchor="start" x="627.5" y="-596.8" font-family="Times New Roman,serif" font-size="14.00">moduleFileName</text>
<text text-anchor="start" x="626" y="-582.8" font-family="Times New Roman,serif" font-size="14.00">removeExtension</text>
</a>
</g>
<polygon fill="none" stroke="black" points="623,-576 623,-966 749,-966 749,-576 623,-576"/>
</g>
<!-- ast/ASTProcessor&#45;node_modules -->
<g id="node2" class="node">
<title>ast/ASTProcessor&#45;node_modules</title>
<polygon fill="lightgrey" stroke="transparent" points="800,-495 800,-514 1076,-514 1076,-495 800,-495"/>
<text text-anchor="start" x="894" y="-501.8" font-family="Times New Roman,serif" font-weight="bold" font-size="14.00">node_modules</text>
<text text-anchor="start" x="845" y="-482.8" font-family="Times New Roman,serif" font-style="italic" font-size="14.00" fill="red">@typescript&#45;eslint/parser</text>
<text text-anchor="start" x="988" y="-482.8" font-family="Times New Roman,serif" font-size="14.00"> (parse)</text>
<text text-anchor="start" x="802" y="-468.8" font-family="Times New Roman,serif" font-style="italic" font-size="14.00" fill="red">@typescript&#45;eslint/types</text>
<text text-anchor="start" x="937" y="-468.8" font-family="Times New Roman,serif" font-size="14.00"> (AST_NODE_TYPES)</text>
<text text-anchor="start" x="823.5" y="-454.8" font-family="Times New Roman,serif" font-style="italic" font-size="14.00" fill="red">@typescript&#45;eslint/types</text>
<text text-anchor="start" x="958.5" y="-454.8" font-family="Times New Roman,serif" font-size="14.00"> (ParserOptions)</text>
<text text-anchor="start" x="834" y="-440.8" font-family="Times New Roman,serif" font-style="italic" font-size="14.00" fill="red">@typescript&#45;eslint/types</text>
<text text-anchor="start" x="969" y="-440.8" font-family="Times New Roman,serif" font-size="14.00"> (TSESTree)</text>
<text text-anchor="start" x="875" y="-426.8" font-family="Times New Roman,serif" font-style="italic" font-size="14.00" fill="red">estraverse</text>
<text text-anchor="start" x="932" y="-426.8" font-family="Times New Roman,serif" font-size="14.00"> (estraverse)</text>
<text text-anchor="start" x="899.5" y="-412.8" font-family="Times New Roman,serif" font-style="italic" font-size="14.00" fill="red">estree</text>
<text text-anchor="start" x="932.5" y="-412.8" font-family="Times New Roman,serif" font-size="14.00"> (Node)</text>
<text text-anchor="start" x="890" y="-398.8" font-family="Times New Roman,serif" font-style="italic" font-size="14.00" fill="red">fs</text>
<text text-anchor="start" x="900" y="-398.8" font-family="Times New Roman,serif" font-size="14.00"> (readFileSync)</text>
<text text-anchor="start" x="906" y="-384.8" font-family="Times New Roman,serif" font-style="italic" font-size="14.00" fill="red">path</text>
<text text-anchor="start" x="933" y="-384.8" font-family="Times New Roman,serif" font-size="14.00"> (path)</text>
<polygon fill="none" stroke="black" points="799,-378.5 799,-515.5 1077,-515.5 1077,-378.5 799,-378.5"/>
</g>
<!-- ast/ASTProcessor&#45;&gt;ast/ASTProcessor&#45;node_modules -->
<g id="edge1" class="edge">
<title>ast/ASTProcessor&#45;&gt;ast/ASTProcessor&#45;node_modules</title>
<path fill="none" stroke="black" d="M757.2,-679.02C794.48,-631.39 839.7,-573.6 875.6,-527.74"/>
<polygon fill="black" stroke="black" points="878.55,-529.64 881.96,-519.61 873.04,-525.33 878.55,-529.64"/>
</g>
<!-- ast/BaseProcessor -->
<g id="node3" class="node">
<title>ast/BaseProcessor</title>
<polygon fill="lightblue" stroke="transparent" points="351,-245.5 351,-264.5 469,-264.5 469,-245.5 351,-245.5"/>
<text text-anchor="start" x="353" y="-252.3" font-family="Times New Roman,serif" font-weight="bold" font-size="14.00">ast/BaseProcessor</text>
<polyline fill="none" stroke="black" points="351,-224.5 469,-224.5 "/>
<polyline fill="none" stroke="black" points="469,-245.5 351,-245.5 "/>
<text text-anchor="start" x="354" y="-231.3" font-family="Times New Roman,serif" font-size="14.00">BaseProcessor</text>
<polygon fill="none" stroke="black" points="350,-223.5 350,-265.5 470,-265.5 470,-223.5 350,-223.5"/>
</g>
<!-- ast/ASTProcessor&#45;&gt;ast/BaseProcessor -->
<g id="edge6" class="edge">
<title>ast/ASTProcessor&#45;&gt;ast/BaseProcessor</title>
<path fill="none" stroke="black" d="M614.66,-753.69C516.59,-727.01 343.77,-663.69 269,-536 229.03,-467.73 234.68,-429.28 269,-358 274.47,-346.64 328.86,-305.05 368.45,-275.76"/>
<polygon fill="black" stroke="black" points="370.68,-278.47 376.65,-269.71 366.53,-272.83 370.68,-278.47"/>
</g>
<!-- ast/ClassProcessor -->
<g id="node5" class="node">
<title>ast/ClassProcessor</title>
<polygon fill="lightblue" stroke="transparent" points="1150,-496 1150,-515 1274,-515 1274,-496 1150,-496"/>
<text text-anchor="start" x="1153" y="-502.8" font-family="Times New Roman,serif" font-weight="bold" font-size="14.00">ast/ClassProcessor</text>
<polyline fill="none" stroke="black" points="1150,-475 1274,-475 "/>
<polyline fill="none" stroke="black" points="1274,-496 1150,-496 "/>
<text text-anchor="start" x="1153" y="-481.8" font-family="Times New Roman,serif" font-size="14.00">ClassProcessor</text>
<polyline fill="none" stroke="black" points="1150,-441 1274,-441 "/>
<polyline fill="none" stroke="black" points="1274,-475 1150,-475 "/>
<text text-anchor="start" x="1153" y="-461.8" font-family="Times New Roman,serif" font-style="italic" font-size="14.00" fill="red">ast/BaseProcessor</text>
<text text-anchor="start" x="1162.5" y="-447.8" font-family="Times New Roman,serif" font-size="14.00">BaseProcessor</text>
<polyline fill="none" stroke="black" points="1150,-379 1274,-379 "/>
<polyline fill="none" stroke="black" points="1274,-441 1150,-441 "/>
<text text-anchor="start" x="1153" y="-427.8" font-family="Times New Roman,serif" font-style="italic" font-size="14.00" fill="red">ast/SharedInterfaces</text>
<text text-anchor="start" x="1180.5" y="-413.8" font-family="Times New Roman,serif" font-size="14.00">ClassDetail</text>
<text text-anchor="start" x="1178.5" y="-399.8" font-family="Times New Roman,serif" font-size="14.00">MethodInfo</text>
<text text-anchor="start" x="1175.5" y="-385.8" font-family="Times New Roman,serif" font-size="14.00">PropertyInfo</text>
<polygon fill="none" stroke="black" points="1149,-378 1149,-516 1275,-516 1275,-378 1149,-378"/>
</g>
<!-- ast/ASTProcessor&#45;&gt;ast/ClassProcessor -->
<g id="edge7" class="edge">
<title>ast/ASTProcessor&#45;&gt;ast/ClassProcessor</title>
<path fill="none" stroke="black" d="M757.23,-740.6C847.92,-701.34 1007.21,-626.18 1127,-536 1130.83,-533.12 1134.64,-530.06 1138.42,-526.88"/>
<polygon fill="black" stroke="black" points="1140.85,-529.4 1146.09,-520.2 1136.25,-524.12 1140.85,-529.4"/>
</g>
<!-- ast/ErrorCollector -->
<g id="node7" class="node">
<title>ast/ErrorCollector</title>
<polygon fill="lightblue" stroke="transparent" points="448,-482 448,-501 572,-501 572,-482 448,-482"/>
<text text-anchor="start" x="452.5" y="-488.8" font-family="Times New Roman,serif" font-weight="bold" font-size="14.00">ast/ErrorCollector</text>
<polyline fill="none" stroke="black" points="448,-461 572,-461 "/>
<polyline fill="none" stroke="black" points="572,-482 448,-482 "/>
<text text-anchor="start" x="451" y="-467.8" font-family="Times New Roman,serif" font-size="14.00">ErrorCollector</text>
<polyline fill="none" stroke="black" points="448,-427 572,-427 "/>
<polyline fill="none" stroke="black" points="572,-461 448,-461 "/>
<text text-anchor="start" x="451" y="-447.8" font-family="Times New Roman,serif" font-style="italic" font-size="14.00" fill="red">ast/BaseProcessor</text>
<text text-anchor="start" x="460.5" y="-433.8" font-family="Times New Roman,serif" font-size="14.00">BaseProcessor</text>
<polyline fill="none" stroke="black" points="448,-393 572,-393 "/>
<polyline fill="none" stroke="black" points="572,-427 448,-427 "/>
<text text-anchor="start" x="451" y="-413.8" font-family="Times New Roman,serif" font-style="italic" font-size="14.00" fill="red">ast/SharedInterfaces</text>
<text text-anchor="start" x="483.5" y="-399.8" font-family="Times New Roman,serif" font-size="14.00">ErrorInfo</text>
<polygon fill="none" stroke="black" points="447,-392 447,-502 573,-502 573,-392 447,-392"/>
</g>
<!-- ast/ASTProcessor&#45;&gt;ast/ErrorCollector -->
<g id="edge8" class="edge">
<title>ast/ASTProcessor&#45;&gt;ast/ErrorCollector</title>
<path fill="none" stroke="black" d="M614.92,-639.96C591.53,-597.16 566.47,-551.32 546.72,-515.18"/>
<polygon fill="black" stroke="black" points="549.68,-513.3 541.81,-506.2 543.54,-516.66 549.68,-513.3"/>
</g>
<!-- ast/ExportProcessor -->
<g id="node8" class="node">
<title>ast/ExportProcessor</title>
<polygon fill="lightblue" stroke="transparent" points="608,-504 608,-523 764,-523 764,-504 608,-504"/>
<text text-anchor="start" x="623" y="-510.8" font-family="Times New Roman,serif" font-weight="bold" font-size="14.00">ast/ExportProcessor</text>
<polyline fill="none" stroke="black" points="608,-453 764,-453 "/>
<polyline fill="none" stroke="black" points="764,-504 608,-504 "/>
<text text-anchor="start" x="611" y="-489.8" font-family="Times New Roman,serif" font-size="14.00">DeclarationDetailsCallback</text>
<text text-anchor="start" x="642.5" y="-474.8" font-family="Times New Roman,serif" font-size="14.00">DeclarationInfo</text>
<text text-anchor="start" x="638" y="-459.8" font-family="Times New Roman,serif" font-size="14.00">ExportProcessor</text>
<polyline fill="none" stroke="black" points="608,-419 764,-419 "/>
<polyline fill="none" stroke="black" points="764,-453 608,-453 "/>
<text text-anchor="start" x="611" y="-439.8" font-family="Times New Roman,serif" font-style="italic" font-size="14.00" fill="red">ast/BaseProcessor</text>
<text text-anchor="start" x="620.5" y="-425.8" font-family="Times New Roman,serif" font-size="14.00">BaseProcessor</text>
<polyline fill="none" stroke="black" points="608,-371 764,-371 "/>
<polyline fill="none" stroke="black" points="764,-419 608,-419 "/>
<text text-anchor="start" x="611" y="-405.8" font-family="Times New Roman,serif" font-style="italic" font-size="14.00" fill="red">ast/SharedInterfaces</text>
<text text-anchor="start" x="639" y="-391.8" font-family="Times New Roman,serif" font-size="14.00">ExportInfo</text>
<text text-anchor="start" x="636.5" y="-377.8" font-family="Times New Roman,serif" font-size="14.00">ModuleInfo</text>
<polygon fill="none" stroke="black" points="607,-370 607,-524 765,-524 765,-370 607,-370"/>
</g>
<!-- ast/ASTProcessor&#45;&gt;ast/ExportProcessor -->
<g id="edge9" class="edge">
<title>ast/ASTProcessor&#45;&gt;ast/ExportProcessor</title>
<path fill="none" stroke="black" d="M686,-571.57C686,-560.1 686,-548.89 686,-538.2"/>
<polygon fill="black" stroke="black" points="689.5,-538.13 686,-528.13 682.5,-538.13 689.5,-538.13"/>
</g>
<!-- ast/ImportProcessor -->
<g id="node10" class="node">
<title>ast/ImportProcessor</title>
<polygon fill="lightblue" stroke="transparent" points="82,-512 82,-531 212,-531 212,-512 82,-512"/>
<text text-anchor="start" x="84" y="-518.8" font-family="Times New Roman,serif" font-weight="bold" font-size="14.00">ast/ImportProcessor</text>
<polyline fill="none" stroke="black" points="82,-491 212,-491 "/>
<polyline fill="none" stroke="black" points="212,-512 82,-512 "/>
<text text-anchor="start" x="85" y="-497.8" font-family="Times New Roman,serif" font-size="14.00">ImportProcessor</text>
<polyline fill="none" stroke="black" points="82,-457 212,-457 "/>
<polyline fill="none" stroke="black" points="212,-491 82,-491 "/>
<text text-anchor="start" x="85" y="-477.8" font-family="Times New Roman,serif" font-style="italic" font-size="14.00" fill="red">ast/BaseProcessor</text>
<text text-anchor="start" x="94.5" y="-463.8" font-family="Times New Roman,serif" font-size="14.00">BaseProcessor</text>
<polyline fill="none" stroke="black" points="82,-423 212,-423 "/>
<polyline fill="none" stroke="black" points="212,-457 82,-457 "/>
<text text-anchor="start" x="85" y="-443.8" font-family="Times New Roman,serif" font-style="italic" font-size="14.00" fill="red">ast/SharedInterfaces</text>
<text text-anchor="start" x="113" y="-429.8" font-family="Times New Roman,serif" font-size="14.00">ImportInfo</text>
<g id="a_node10_1"><a xlink:href="diagrams.html#utils" xlink:title="&lt;TABLE&gt;" target="_top">
<polyline fill="none" stroke="black" points="82,-363 212,-363 "/>
<polyline fill="none" stroke="black" points="212,-423 82,-423 "/>
<text text-anchor="start" x="120" y="-410.8" font-family="Times New Roman,serif" font-style="italic" text-decoration="underline" font-size="14.00" fill="red">utils</text>
<text text-anchor="start" x="95.5" y="-396.8" font-family="Times New Roman,serif" font-style="italic" font-size="14.00" fill="red">utils/file&#45;utils</text>
<text text-anchor="start" x="105.5" y="-382.8" font-family="Times New Roman,serif" font-size="14.00">cleanPath</text>
<text text-anchor="start" x="84" y="-368.8" font-family="Times New Roman,serif" font-size="14.00">removeExtension</text>
</a>
</g>
<polygon fill="none" stroke="black" points="81,-362 81,-532 213,-532 213,-362 81,-362"/>
</g>
<!-- ast/ASTProcessor&#45;&gt;ast/ImportProcessor -->
<g id="edge10" class="edge">
<title>ast/ASTProcessor&#45;&gt;ast/ImportProcessor</title>
<path fill="none" stroke="black" d="M614.94,-741.26C522.69,-702.19 358.84,-626.67 235,-536 233.12,-534.63 231.25,-533.21 229.38,-531.76"/>
<polygon fill="black" stroke="black" points="231.22,-528.75 221.23,-525.21 226.83,-534.2 231.22,-528.75"/>
</g>
<!-- ast/SharedInterfaces -->
<g id="node12" class="node">
<title>ast/SharedInterfaces</title>
<polygon fill="lightblue" stroke="transparent" points="565,-297.5 565,-316.5 696,-316.5 696,-297.5 565,-297.5"/>
<text text-anchor="start" x="567" y="-304.3" font-family="Times New Roman,serif" font-weight="bold" font-size="14.00">ast/SharedInterfaces</text>
<polyline fill="none" stroke="black" points="565,-171.5 696,-171.5 "/>
<polyline fill="none" stroke="black" points="696,-297.5 565,-297.5 "/>
<text text-anchor="start" x="592.5" y="-283.3" font-family="Times New Roman,serif" font-size="14.00">ClassDetail</text>
<text text-anchor="start" x="597.5" y="-268.3" font-family="Times New Roman,serif" font-size="14.00">ErrorInfo</text>
<text text-anchor="start" x="593" y="-253.3" font-family="Times New Roman,serif" font-size="14.00">ExportInfo</text>
<text text-anchor="start" x="593" y="-238.3" font-family="Times New Roman,serif" font-size="14.00">ImportInfo</text>
<text text-anchor="start" x="590.5" y="-223.3" font-family="Times New Roman,serif" font-size="14.00">MethodInfo</text>
<text text-anchor="start" x="590.5" y="-208.3" font-family="Times New Roman,serif" font-size="14.00">ModuleInfo</text>
<text text-anchor="start" x="568" y="-193.3" font-family="Times New Roman,serif" font-size="14.00">ProcessedASTData</text>
<text text-anchor="start" x="587.5" y="-178.3" font-family="Times New Roman,serif" font-size="14.00">PropertyInfo</text>
<polygon fill="none" stroke="black" points="563.5,-171 563.5,-318 696.5,-318 696.5,-171 563.5,-171"/>
</g>
<!-- ast/ASTProcessor&#45;&gt;ast/SharedInterfaces -->
<g id="edge11" class="edge">
<title>ast/ASTProcessor&#45;&gt;ast/SharedInterfaces</title>
<path fill="none" stroke="black" d="M757.07,-752.86C853.3,-725.41 1021.35,-661.42 1094,-536 1133.65,-467.54 1147.24,-416.52 1094,-358 1036.92,-295.26 791.57,-356.32 714,-322 713.9,-321.96 713.8,-321.91 713.7,-321.87"/>
<polygon fill="black" stroke="black" points="715.17,-318.69 704.66,-317.34 712.03,-324.95 715.17,-318.69"/>
</g>
<!-- ast/BaseProcessor&#45;node_modules -->
<g id="node4" class="node">
<title>ast/BaseProcessor&#45;node_modules</title>
<polygon fill="lightgrey" stroke="transparent" points="272,-106.5 272,-125.5 548,-125.5 548,-106.5 272,-106.5"/>
<text text-anchor="start" x="366" y="-113.3" font-family="Times New Roman,serif" font-weight="bold" font-size="14.00">node_modules</text>
<text text-anchor="start" x="274" y="-94.3" font-family="Times New Roman,serif" font-style="italic" font-size="14.00" fill="red">@typescript&#45;eslint/types</text>
<text text-anchor="start" x="409" y="-94.3" font-family="Times New Roman,serif" font-size="14.00"> (AST_NODE_TYPES)</text>
<text text-anchor="start" x="306" y="-80.3" font-family="Times New Roman,serif" font-style="italic" font-size="14.00" fill="red">@typescript&#45;eslint/types</text>
<text text-anchor="start" x="441" y="-80.3" font-family="Times New Roman,serif" font-size="14.00"> (TSESTree)</text>
<text text-anchor="start" x="347" y="-66.3" font-family="Times New Roman,serif" font-style="italic" font-size="14.00" fill="red">estraverse</text>
<text text-anchor="start" x="404" y="-66.3" font-family="Times New Roman,serif" font-size="14.00"> (estraverse)</text>
<text text-anchor="start" x="336.5" y="-52.3" font-family="Times New Roman,serif" font-style="italic" font-size="14.00" fill="red">estraverse</text>
<text text-anchor="start" x="393.5" y="-52.3" font-family="Times New Roman,serif" font-size="14.00"> (VisitorOption)</text>
<text text-anchor="start" x="346.5" y="-38.3" font-family="Times New Roman,serif" font-style="italic" font-size="14.00" fill="red">estraverse</text>
<text text-anchor="start" x="403.5" y="-38.3" font-family="Times New Roman,serif" font-size="14.00"> (Controller)</text>
<text text-anchor="start" x="371.5" y="-24.3" font-family="Times New Roman,serif" font-style="italic" font-size="14.00" fill="red">estree</text>
<text text-anchor="start" x="404.5" y="-24.3" font-family="Times New Roman,serif" font-size="14.00"> (Node)</text>
<text text-anchor="start" x="378" y="-10.3" font-family="Times New Roman,serif" font-style="italic" font-size="14.00" fill="red">path</text>
<text text-anchor="start" x="405" y="-10.3" font-family="Times New Roman,serif" font-size="14.00"> (path)</text>
<polygon fill="none" stroke="black" points="271,-4 271,-127 549,-127 549,-4 271,-4"/>
</g>
<!-- ast/BaseProcessor&#45;&gt;ast/BaseProcessor&#45;node_modules -->
<g id="edge2" class="edge">
<title>ast/BaseProcessor&#45;&gt;ast/BaseProcessor&#45;node_modules</title>
<path fill="none" stroke="black" d="M410,-219.26C410,-199.11 410,-169.31 410,-141.37"/>
<polygon fill="black" stroke="black" points="413.5,-141.18 410,-131.18 406.5,-141.18 413.5,-141.18"/>
</g>
<!-- ast/ClassProcessor&#45;&gt;ast/BaseProcessor -->
<g id="edge12" class="edge">
<title>ast/ClassProcessor&#45;&gt;ast/BaseProcessor</title>
<path fill="none" stroke="black" d="M1140.93,-383.06C1126.27,-373.04 1110.3,-364.01 1094,-358 865.41,-273.71 780.64,-391.08 547,-322 512.85,-311.9 477.85,-292.17 451.78,-275.28"/>
<polygon fill="black" stroke="black" points="453.57,-272.26 443.29,-269.67 449.71,-278.1 453.57,-272.26"/>
</g>
<!-- ast/ClassProcessor&#45;node_modules -->
<g id="node6" class="node">
<title>ast/ClassProcessor&#45;node_modules</title>
<polygon fill="lightgrey" stroke="transparent" points="1074,-250.5 1074,-269.5 1350,-269.5 1350,-250.5 1074,-250.5"/>
<text text-anchor="start" x="1168" y="-257.3" font-family="Times New Roman,serif" font-weight="bold" font-size="14.00">node_modules</text>
<text text-anchor="start" x="1108" y="-238.3" font-family="Times New Roman,serif" font-style="italic" font-size="14.00" fill="red">@typescript&#45;eslint/types</text>
<text text-anchor="start" x="1243" y="-238.3" font-family="Times New Roman,serif" font-size="14.00"> (TSESTree)</text>
<text text-anchor="start" x="1076" y="-224.3" font-family="Times New Roman,serif" font-style="italic" font-size="14.00" fill="red">@typescript&#45;eslint/types</text>
<text text-anchor="start" x="1211" y="-224.3" font-family="Times New Roman,serif" font-size="14.00"> (AST_NODE_TYPES)</text>
<polygon fill="none" stroke="black" points="1073,-218 1073,-271 1351,-271 1351,-218 1073,-218"/>
</g>
<!-- ast/ClassProcessor&#45;&gt;ast/ClassProcessor&#45;node_modules -->
<g id="edge3" class="edge">
<title>ast/ClassProcessor&#45;&gt;ast/ClassProcessor&#45;node_modules</title>
<path fill="none" stroke="black" d="M1212,-373.9C1212,-344.13 1212,-310.77 1212,-285.51"/>
<polygon fill="black" stroke="black" points="1215.5,-285.21 1212,-275.21 1208.5,-285.21 1215.5,-285.21"/>
</g>
<!-- ast/ClassProcessor&#45;&gt;ast/SharedInterfaces -->
<g id="edge13" class="edge">
<title>ast/ClassProcessor&#45;&gt;ast/SharedInterfaces</title>
<path fill="none" stroke="black" d="M1152.05,-373.99C1144.21,-367.74 1135.82,-362.2 1127,-358 960.68,-278.71 882.77,-395.92 714,-322 713.9,-321.96 713.8,-321.91 713.7,-321.87"/>
<polygon fill="black" stroke="black" points="715.16,-318.68 704.64,-317.37 712.04,-324.95 715.16,-318.68"/>
</g>
<!-- ast/ErrorCollector&#45;&gt;ast/BaseProcessor -->
<g id="edge14" class="edge">
<title>ast/ErrorCollector&#45;&gt;ast/BaseProcessor</title>
<path fill="none" stroke="black" d="M480.94,-387.74C463.25,-352.27 441.29,-308.23 426.53,-278.64"/>
<polygon fill="black" stroke="black" points="429.6,-276.95 422,-269.56 423.33,-280.07 429.6,-276.95"/>
</g>
<!-- ast/ErrorCollector&#45;&gt;ast/SharedInterfaces -->
<g id="edge15" class="edge">
<title>ast/ErrorCollector&#45;&gt;ast/SharedInterfaces</title>
<path fill="none" stroke="black" d="M544.87,-387.74C555.49,-369.99 567.4,-350.1 578.86,-330.95"/>
<polygon fill="black" stroke="black" points="581.96,-332.59 584.09,-322.21 575.95,-328.99 581.96,-332.59"/>
</g>
<!-- ast/ExportProcessor&#45;&gt;ast/BaseProcessor -->
<g id="edge16" class="edge">
<title>ast/ExportProcessor&#45;&gt;ast/BaseProcessor</title>
<path fill="none" stroke="black" d="M600.03,-365.85C596.68,-363.16 593.33,-360.53 590,-358 549.04,-326.84 499.19,-296.2 462.35,-274.78"/>
<polygon fill="black" stroke="black" points="463.69,-271.51 453.28,-269.54 460.19,-277.57 463.69,-271.51"/>
</g>
<!-- ast/ExportProcessor&#45;node_modules -->
<g id="node9" class="node">
<title>ast/ExportProcessor&#45;node_modules</title>
<polygon fill="lightgrey" stroke="transparent" points="732,-257.5 732,-276.5 1008,-276.5 1008,-257.5 732,-257.5"/>
<text text-anchor="start" x="826" y="-264.3" font-family="Times New Roman,serif" font-weight="bold" font-size="14.00">node_modules</text>
<text text-anchor="start" x="766" y="-245.3" font-family="Times New Roman,serif" font-style="italic" font-size="14.00" fill="red">@typescript&#45;eslint/types</text>
<text text-anchor="start" x="901" y="-245.3" font-family="Times New Roman,serif" font-size="14.00"> (TSESTree)</text>
<text text-anchor="start" x="734" y="-231.3" font-family="Times New Roman,serif" font-style="italic" font-size="14.00" fill="red">@typescript&#45;eslint/types</text>
<text text-anchor="start" x="869" y="-231.3" font-family="Times New Roman,serif" font-size="14.00"> (AST_NODE_TYPES)</text>
<text text-anchor="start" x="838" y="-217.3" font-family="Times New Roman,serif" font-style="italic" font-size="14.00" fill="red">path</text>
<text text-anchor="start" x="865" y="-217.3" font-family="Times New Roman,serif" font-size="14.00"> (path)</text>
<polygon fill="none" stroke="black" points="731,-211 731,-278 1009,-278 1009,-211 731,-211"/>
</g>
<!-- ast/ExportProcessor&#45;&gt;ast/ExportProcessor&#45;node_modules -->
<g id="edge4" class="edge">
<title>ast/ExportProcessor&#45;&gt;ast/ExportProcessor&#45;node_modules</title>
<path fill="none" stroke="black" d="M759.51,-365.89C783.44,-339.83 809.1,-311.86 829.66,-289.45"/>
<polygon fill="black" stroke="black" points="832.25,-291.81 836.43,-282.08 827.09,-287.08 832.25,-291.81"/>
</g>
<!-- ast/ExportProcessor&#45;&gt;ast/SharedInterfaces -->
<g id="edge17" class="edge">
<title>ast/ExportProcessor&#45;&gt;ast/SharedInterfaces</title>
<path fill="none" stroke="black" d="M663.63,-365.89C660.52,-354.76 657.31,-343.27 654.17,-332.03"/>
<polygon fill="black" stroke="black" points="657.49,-330.91 651.43,-322.22 650.75,-332.79 657.49,-330.91"/>
</g>
<!-- ast/ImportProcessor&#45;&gt;ast/BaseProcessor -->
<g id="edge18" class="edge">
<title>ast/ImportProcessor&#45;&gt;ast/BaseProcessor</title>
<path fill="none" stroke="black" d="M221.01,-369.05C225.63,-365.18 230.31,-361.47 235,-358 262.51,-337.68 273.91,-339.98 303,-322 325.94,-307.81 350.49,-290.43 370.29,-275.82"/>
<polygon fill="black" stroke="black" points="372.52,-278.52 378.46,-269.75 368.34,-272.91 372.52,-278.52"/>
</g>
<!-- ast/ImportProcessor&#45;node_modules -->
<g id="node11" class="node">
<title>ast/ImportProcessor&#45;node_modules</title>
<polygon fill="lightgrey" stroke="transparent" points="9,-257.5 9,-276.5 285,-276.5 285,-257.5 9,-257.5"/>
<text text-anchor="start" x="103" y="-264.3" font-family="Times New Roman,serif" font-weight="bold" font-size="14.00">node_modules</text>
<text text-anchor="start" x="43" y="-245.3" font-family="Times New Roman,serif" font-style="italic" font-size="14.00" fill="red">@typescript&#45;eslint/types</text>
<text text-anchor="start" x="178" y="-245.3" font-family="Times New Roman,serif" font-size="14.00"> (TSESTree)</text>
<text text-anchor="start" x="11" y="-231.3" font-family="Times New Roman,serif" font-style="italic" font-size="14.00" fill="red">@typescript&#45;eslint/types</text>
<text text-anchor="start" x="146" y="-231.3" font-family="Times New Roman,serif" font-size="14.00"> (AST_NODE_TYPES)</text>
<text text-anchor="start" x="115" y="-217.3" font-family="Times New Roman,serif" font-style="italic" font-size="14.00" fill="red">path</text>
<text text-anchor="start" x="142" y="-217.3" font-family="Times New Roman,serif" font-size="14.00"> (path)</text>
<polygon fill="none" stroke="black" points="8,-211 8,-278 286,-278 286,-211 8,-211"/>
</g>
<!-- ast/ImportProcessor&#45;&gt;ast/ImportProcessor&#45;node_modules -->
<g id="edge5" class="edge">
<title>ast/ImportProcessor&#45;&gt;ast/ImportProcessor&#45;node_modules</title>
<path fill="none" stroke="black" d="M147,-357.77C147,-335.23 147,-311.88 147,-292.35"/>
<polygon fill="black" stroke="black" points="150.5,-292.21 147,-282.21 143.5,-292.21 150.5,-292.21"/>
</g>
<!-- ast/ImportProcessor&#45;&gt;ast/SharedInterfaces -->
<g id="edge19" class="edge">
<title>ast/ImportProcessor&#45;&gt;ast/SharedInterfaces</title>
<path fill="none" stroke="black" d="M221.22,-384.37C236.31,-374.23 252.6,-364.82 269,-358 359.67,-320.28 394.02,-353.58 487,-322 506.91,-315.24 527.37,-305.91 546.37,-296.09"/>
<polygon fill="black" stroke="black" points="548.06,-299.16 555.27,-291.4 544.8,-292.96 548.06,-299.16"/>
</g>
<!-- ast/UsageProcessor -->
<g id="node13" class="node">
<title>ast/UsageProcessor</title>
<polygon fill="lightblue" stroke="transparent" points="287,-465 287,-484 412,-484 412,-465 287,-465"/>
<text text-anchor="start" x="289" y="-471.8" font-family="Times New Roman,serif" font-weight="bold" font-size="14.00">ast/UsageProcessor</text>
<polyline fill="none" stroke="black" points="287,-444 412,-444 "/>
<polyline fill="none" stroke="black" points="412,-465 287,-465 "/>
<text text-anchor="start" x="290" y="-450.8" font-family="Times New Roman,serif" font-size="14.00">UsageProcessor</text>
<polyline fill="none" stroke="black" points="287,-410 412,-410 "/>
<polyline fill="none" stroke="black" points="412,-444 287,-444 "/>
<text text-anchor="start" x="290" y="-430.8" font-family="Times New Roman,serif" font-style="italic" font-size="14.00" fill="red">ast/BaseProcessor</text>
<text text-anchor="start" x="299.5" y="-416.8" font-family="Times New Roman,serif" font-size="14.00">BaseProcessor</text>
<polygon fill="none" stroke="black" points="285.5,-409 285.5,-485 412.5,-485 412.5,-409 285.5,-409"/>
</g>
<!-- ast/UsageProcessor&#45;&gt;ast/BaseProcessor -->
<g id="edge20" class="edge">
<title>ast/UsageProcessor&#45;&gt;ast/BaseProcessor</title>
<path fill="none" stroke="black" d="M361.49,-404.94C372.79,-367.82 389.21,-313.83 399.75,-279.18"/>
<polygon fill="black" stroke="black" points="403.13,-280.11 402.69,-269.53 396.43,-278.07 403.13,-280.11"/>
</g>
</g>
</svg>
