<?xml version="1.0" encoding="UTF-8" standalone="no"?>
<!DOCTYPE svg PUBLIC "-//W3C//DTD SVG 1.1//EN"
 "http://www.w3.org/Graphics/SVG/1.1/DTD/svg11.dtd">
<!-- Generated by graphviz version 3.0.0 (20220226.1711)
 -->
<!-- Pages: 1 -->
<svg width="426pt" height="553pt"
 viewBox="0.00 0.00 426.00 553.00" xmlns="http://www.w3.org/2000/svg" xmlns:xlink="http://www.w3.org/1999/xlink">
<g id="graph0" class="graph" transform="scale(1 1) rotate(0) translate(4 549)">
<polygon fill="white" stroke="transparent" points="-4,4 -4,-549 422,-549 422,4 -4,4"/>
<text text-anchor="middle" x="209" y="-529.8" font-family="Times New Roman,serif" font-size="14.00">utils Module Exports</text>
<!-- utils/file&#45;utils -->
<g id="node1" class="node">
<title>utils/file&#45;utils</title>
<polygon fill="lightblue" stroke="transparent" points="46,-291.5 46,-310.5 185,-310.5 185,-291.5 46,-291.5"/>
<text text-anchor="start" x="76" y="-298.3" font-family="Times New Roman,serif" font-weight="bold" font-size="14.00">utils/file&#45;utils</text>
<polyline fill="none" stroke="black" points="46,-135.5 185,-135.5 "/>
<polyline fill="none" stroke="black" points="185,-291.5 46,-291.5 "/>
<text text-anchor="start" x="88.5" y="-277.3" font-family="Times New Roman,serif" font-size="14.00">cleanPath</text>
<text text-anchor="start" x="49" y="-262.3" font-family="Times New Roman,serif" font-size="14.00">getDirectoriesRecursive</text>
<text text-anchor="start" x="82" y="-247.3" font-family="Times New Roman,serif" font-size="14.00">getFilename</text>
<text text-anchor="start" x="94" y="-232.3" font-family="Times New Roman,serif" font-size="14.00">getFiles</text>
<text text-anchor="start" x="69.5" y="-217.3" font-family="Times New Roman,serif" font-size="14.00">getModuleName</text>
<text text-anchor="start" x="58" y="-202.3" font-family="Times New Roman,serif" font-size="14.00">getRelativePathParts</text>
<text text-anchor="start" x="68.5" y="-187.3" font-family="Times New Roman,serif" font-size="14.00">moduleFileName</text>
<text text-anchor="start" x="70" y="-172.3" font-family="Times New Roman,serif" font-size="14.00">ModulePathInfo</text>
<text text-anchor="start" x="67" y="-157.3" font-family="Times New Roman,serif" font-size="14.00">removeExtension</text>
<text text-anchor="start" x="78.5" y="-142.3" font-family="Times New Roman,serif" font-size="14.00">safeWriteFile</text>
<polyline fill="none" stroke="black" points="46,-101.5 185,-101.5 "/>
<polyline fill="none" stroke="black" points="185,-135.5 46,-135.5 "/>
<text text-anchor="start" x="49" y="-122.3" font-family="Times New Roman,serif" font-style="italic" font-size="14.00" fill="red">utils/globals</text>
<text text-anchor="start" x="51.5" y="-108.3" font-family="Times New Roman,serif" font-size="14.00">EXT_LIST</text>
<polygon fill="none" stroke="black" points="44.5,-101 44.5,-312 185.5,-312 185.5,-101 44.5,-101"/>
</g>
<!-- utils/file&#45;utils&#45;node_modules -->
<g id="node2" class="node">
<title>utils/file&#45;utils&#45;node_modules</title>
<polygon fill="lightgrey" stroke="transparent" points="9,-36.5 9,-55.5 101,-55.5 101,-36.5 9,-36.5"/>
<text text-anchor="start" x="11" y="-43.3" font-family="Times New Roman,serif" font-weight="bold" font-size="14.00">node_modules</text>
<text text-anchor="start" x="26" y="-24.3" font-family="Times New Roman,serif" font-style="italic" font-size="14.00" fill="red">fs</text>
<text text-anchor="start" x="36" y="-24.3" font-family="Times New Roman,serif" font-size="14.00"> (fs)</text>
<text text-anchor="start" x="11" y="-10.3" font-family="Times New Roman,serif" font-style="italic" font-size="14.00" fill="red">path</text>
<text text-anchor="start" x="38" y="-10.3" font-family="Times New Roman,serif" font-size="14.00"> (path)</text>
<polygon fill="none" stroke="black" points="8,-4 8,-57 102,-57 102,-4 8,-4"/>
</g>
<!-- utils/file&#45;utils&#45;&gt;utils/file&#45;utils&#45;node_modules -->
<g id="edge1" class="edge">
<title>utils/file&#45;utils&#45;&gt;utils/file&#45;utils&#45;node_modules</title>
<path fill="none" stroke="black" d="M77.51,-96.79C74.38,-87.71 71.37,-78.96 68.62,-70.99"/>
<polygon fill="black" stroke="black" points="71.85,-69.64 65.29,-61.33 65.24,-71.92 71.85,-69.64"/>
</g>
<!-- utils/globals -->
<g id="node3" class="node">
<title>utils/globals</title>
<polygon fill="lightblue" stroke="transparent" points="138,-31.5 138,-50.5 215,-50.5 215,-31.5 138,-31.5"/>
<text text-anchor="start" x="140" y="-38.3" font-family="Times New Roman,serif" font-weight="bold" font-size="14.00">utils/globals</text>
<polyline fill="none" stroke="black" points="138,-10.5 215,-10.5 "/>
<polyline fill="none" stroke="black" points="215,-31.5 138,-31.5 "/>
<text text-anchor="start" x="141" y="-17.3" font-family="Times New Roman,serif" font-size="14.00">EXT_LIST</text>
<polygon fill="none" stroke="black" points="136.5,-9.5 136.5,-51.5 215.5,-51.5 215.5,-9.5 136.5,-9.5"/>
</g>
<!-- utils/file&#45;utils&#45;&gt;utils/globals -->
<g id="edge3" class="edge">
<title>utils/file&#45;utils&#45;&gt;utils/globals</title>
<path fill="none" stroke="black" d="M153.11,-96.79C157.07,-85.49 160.85,-74.71 164.16,-65.28"/>
<polygon fill="black" stroke="black" points="167.54,-66.22 167.54,-55.63 160.93,-63.9 167.54,-66.22"/>
</g>
<!-- utils/json -->
<g id="node4" class="node">
<title>utils/json</title>
<polygon fill="lightblue" stroke="transparent" points="151,-470 151,-489 231,-489 231,-470 151,-470"/>
<text text-anchor="start" x="163.5" y="-476.8" font-family="Times New Roman,serif" font-weight="bold" font-size="14.00">utils/json</text>
<polyline fill="none" stroke="black" points="151,-419 231,-419 "/>
<polyline fill="none" stroke="black" points="231,-470 151,-470 "/>
<text text-anchor="start" x="157.5" y="-455.8" font-family="Times New Roman,serif" font-size="14.00">default</text>
<text text-anchor="start" x="159" y="-440.8" font-family="Times New Roman,serif" font-size="14.00">jsonIn</text>
<text text-anchor="start" x="154" y="-425.8" font-family="Times New Roman,serif" font-size="14.00">jsonOut</text>
<polyline fill="none" stroke="black" points="151,-385 231,-385 "/>
<polyline fill="none" stroke="black" points="231,-419 151,-419 "/>
<text text-anchor="start" x="154" y="-405.8" font-family="Times New Roman,serif" font-style="italic" font-size="14.00" fill="red">utils/file&#45;utils</text>
<text text-anchor="start" x="154" y="-391.8" font-family="Times New Roman,serif" font-size="14.00">safeWriteFile</text>
<polygon fill="none" stroke="black" points="150,-384 150,-490 232,-490 232,-384 150,-384"/>
</g>
<!-- utils/json&#45;&gt;utils/file&#45;utils -->
<g id="edge4" class="edge">
<title>utils/json&#45;&gt;utils/file&#45;utils</title>
<path fill="none" stroke="black" d="M172.31,-379.81C166.82,-363.31 160.6,-344.6 154.33,-325.75"/>
<polygon fill="black" stroke="black" points="157.63,-324.58 151.15,-316.19 150.99,-326.78 157.63,-324.58"/>
</g>
<!-- utils/json&#45;node_modules -->
<g id="node5" class="node">
<title>utils/json&#45;node_modules</title>
<polygon fill="lightgrey" stroke="transparent" points="221,-206.5 221,-225.5 313,-225.5 313,-206.5 221,-206.5"/>
<text text-anchor="start" x="223" y="-213.3" font-family="Times New Roman,serif" font-weight="bold" font-size="14.00">node_modules</text>
<text text-anchor="start" x="223" y="-194.3" font-family="Times New Roman,serif" font-style="italic" font-size="14.00" fill="red">fs</text>
<text text-anchor="start" x="233" y="-194.3" font-family="Times New Roman,serif" font-size="14.00"> (fs)</text>
<polygon fill="none" stroke="black" points="220,-186.5 220,-226.5 314,-226.5 314,-186.5 220,-186.5"/>
</g>
<!-- utils/json&#45;&gt;utils/json&#45;node_modules -->
<g id="edge2" class="edge">
<title>utils/json&#45;&gt;utils/json&#45;node_modules</title>
<path fill="none" stroke="black" d="M209.69,-379.81C224.27,-335.96 244.02,-276.58 256.12,-240.21"/>
<polygon fill="black" stroke="black" points="259.48,-241.19 259.32,-230.6 252.84,-238.98 259.48,-241.19"/>
</g>
<!-- utils/list&#45;utils -->
<g id="node6" class="node">
<title>utils/list&#45;utils</title>
<polygon fill="lightblue" stroke="transparent" points="267,-498 267,-517 409,-517 409,-498 267,-498"/>
<text text-anchor="start" x="299" y="-504.8" font-family="Times New Roman,serif" font-weight="bold" font-size="14.00">utils/list&#45;utils</text>
<polyline fill="none" stroke="black" points="267,-417 409,-417 "/>
<polyline fill="none" stroke="black" points="409,-498 267,-498 "/>
<text text-anchor="start" x="296" y="-483.8" font-family="Times New Roman,serif" font-size="14.00">getDependsOn</text>
<text text-anchor="start" x="293" y="-468.8" font-family="Times New Roman,serif" font-size="14.00">getExportedList</text>
<text text-anchor="start" x="289.5" y="-453.8" font-family="Times New Roman,serif" font-size="14.00">getNodeModules</text>
<text text-anchor="start" x="270" y="-438.8" font-family="Times New Roman,serif" font-size="14.00">getUniqueNodeModules</text>
<text text-anchor="start" x="296.5" y="-423.8" font-family="Times New Roman,serif" font-size="14.00">getUsedByList</text>
<g id="a_node6_0"><a xlink:href="diagrams.html#ast" xlink:title="&lt;TABLE&gt;" target="_top">
<polyline fill="none" stroke="black" points="267,-357 409,-357 "/>
<polyline fill="none" stroke="black" points="409,-417 267,-417 "/>
<text text-anchor="start" x="319.5" y="-404.8" font-family="Times New Roman,serif" font-style="italic" font-size="14.00" fill="red">ast</text>
<text text-anchor="start" x="269" y="-390.8" font-family="Times New Roman,serif" font-style="italic" font-size="14.00" fill="red">ast/SharedInterfaces</text>
<text text-anchor="start" x="297" y="-376.8" font-family="Times New Roman,serif" font-size="14.00">ImportInfo</text>
<text text-anchor="start" x="297" y="-362.8" font-family="Times New Roman,serif" font-size="14.00">ExportInfo</text>
</a>
</g>
<polygon fill="none" stroke="black" points="266,-356 266,-518 410,-518 410,-356 266,-356"/>
</g>
</g>
</svg>
